<svg xmlns="http://www.w3.org/2000/svg" viewBox="-50 -50 1100 1100">
  <g transform="translate(0, 1000) scale(1, -1)">
    <path d="M502 -89C622 -89 639 -73 665 -60L703 -43C894 46 953 234 953 249C953 262 971 288 971 379C971 406 968 425 967 425C967 425 968 428 968 430C968 435 966 447 959 482C930 644 775 768 739 782C739 782 668 821 649 821C646 821 641 822 640 823C630 840 495 849 482 849C466 849 354 847 242 774C80 668 29 503 29 401C29 316 33 316 37 294C44 248 65 202 65 200C65 192 104 98 189 26C242 -20 334 -70 393 -78C424 -82 399 -89 502 -89ZM511 -82C472 -82 427 -78 396 -71C313 -52 253 -10 253 -10C252 -10 244 -5 236 1L209 22C191 36 132 97 125 110C117 127 110 123 110 129C110 129 54 219 45 297C42 320 37 326 37 328C37 330 40 328 40 337C40 343 39 352 38 362C37 376 36 392 36 407C36 420 37 433 40 442C48 468 59 638 246 765C268 779 332 812 340 812C345 812 360 821 366 821C371 821 379 823 389 826C410 831 444 840 494 840C704 840 820 710 844 683C943 568 962 480 962 369C962 252 931 202 907 162C901 153 896 144 891 135L869 103C835 54 703 -82 511 -82ZM520 -73C564 -73 649 -53 667 -41C678 -33 691 -28 702 -24C714 -19 726 -14 734 -7C744 2 750 5 756 8C766 13 778 19 812 52C924 163 953 287 953 382C953 456 936 513 927 531L911 566C871 654 789 727 754 750C672 804 583 828 498 828C344 828 200 750 119 624C100 594 86 569 79 553L69 526C55 487 46 419 46 362C46 338 48 316 51 299C65 234 103 153 138 106C185 45 242 9 248 3C275 -21 360 -56 423 -67C441 -70 488 -73 520 -73ZM503 -63C232 -63 57 165 57 369C57 406 62 446 74 501C79 526 106 583 128 616C185 705 311 817 493 817C748 817 943 608 943 376C943 132 732 -63 503 -63ZM466 744H481C511 744 516 761 516 764C516 769 510 774 510 783V788C510 802 504 805 481 807L461 809C463 801 466 792 466 767ZM487 782C483 782 479 785 479 789C479 793 483 797 487 797C491 797 496 795 496 789C496 785 492 782 487 782ZM488 752C482 752 480 755 480 758C480 765 487 773 495 773C499 773 501 769 501 765C501 760 498 752 488 752ZM509 23C565 23 628 24 735 111C805 169 859 265 859 379C859 639 621 716 621 716C613 725 555 737 491 737C451 737 409 733 376 718L348 705C279 675 224 614 204 587C192 571 158 503 158 496C158 487 152 492 152 480C152 461 142 470 142 385C142 352 143 316 150 291C171 210 230 129 300 85L321 70C321 70 394 23 509 23ZM500 37C478 37 456 38 442 41C348 59 282 110 263 130L283 129C288 128 292 128 296 128C304 128 306 130 314 139C325 150 326 151 326 166C326 177 324 186 320 192L314 201L432 368H449C460 368 468 367 468 365C468 361 432 351 432 316C432 303 438 293 451 293C459 293 471 283 471 276C471 270 494 245 500 245C509 245 522 259 530 274C536 286 541 290 552 290C560 290 569 304 569 317C569 343 541 362 532 362C529 362 527 363 527 365C527 366 536 368 549 368C577 368 580 361 598 327C609 305 627 270 662 218C672 202 675 197 675 193C675 188 663 178 663 163C663 143 687 128 707 128C730 128 746 155 746 169C746 177 744 182 733 192C720 203 719 204 699 204H686L626 305C604 342 588 368 583 374C577 380 564 381 553 381C545 381 536 380 529 380C521 380 515 381 515 385C515 387 517 390 521 394C529 401 533 408 536 415C540 424 544 431 564 431C571 431 577 430 586 430C629 430 632 467 632 469C632 484 617 488 617 496C617 500 682 560 686 560C688 560 702 552 702 532C702 523 699 513 699 506C699 500 701 497 706 497C717 497 762 536 762 546C762 549 761 551 755 551C749 551 746 550 740 550C718 550 696 560 696 571C696 577 705 586 722 586C734 586 747 581 755 581C760 581 761 584 761 586C761 597 709 647 701 647C700 647 699 646 699 644C699 641 704 625 704 613C704 596 693 584 686 584C683 584 669 590 669 610C669 622 674 637 674 640C674 643 672 645 670 645C653 645 607 593 607 586C607 583 612 578 617 578C624 578 634 584 651 584C669 584 677 577 677 573C677 569 605 505 601 502C598 500 590 499 582 499C567 499 551 501 550 506C539 536 508 575 498 575C485 575 446 528 446 511C446 502 442 499 422 499H413L385 500L354 529C338 544 324 561 324 563V565C324 568 328 571 332 575C348 591 389 581 389 589C389 596 346 638 339 638C333 638 332 634 332 628V623C332 591 307 578 304 578C297 578 287 592 287 607C287 621 294 636 294 641C294 642 293 643 292 643C283 643 262 617 257 617C254 617 228 581 228 576C228 573 228 572 229 572C234 572 244 582 266 582C282 582 295 576 295 568C295 565 293 562 290 558C272 539 234 552 234 543C234 534 279 495 293 495C296 495 297 496 297 499C297 502 294 515 294 526C294 541 307 554 310 554C314 554 371 499 371 494C371 485 356 479 356 466C356 457 363 432 421 431H448L460 414C474 395 485 390 485 384C485 380 484 379 475 379H456L427 381L415 367C405 355 351 283 318 233C304 212 303 211 273 204C262 202 243 183 243 172C243 164 251 151 251 146C251 144 250 143 249 143C245 143 202 206 189 232C164 281 154 331 154 379C154 439 176 606 338 687C355 696 408 715 424 718L449 722C449 722 468 724 493 724C602 724 683 675 694 667C754 628 844 529 844 389C844 350 840 306 832 282C769 91 607 55 590 46C578 40 538 37 500 37ZM481 496C479 496 465 498 465 505C465 526 478 547 484 547C487 547 488 543 488 528V506C488 499 486 496 481 496ZM511 498C507 498 504 499 504 499C503 499 503 503 503 509C503 523 505 545 512 545C519 545 530 513 530 507C530 499 519 498 511 498ZM474 443C463 443 459 448 459 461C459 470 459 488 479 488C485 488 490 483 490 460C490 448 485 443 474 443ZM521 444C503 444 502 451 502 457V459C502 487 510 488 518 488C529 488 533 484 533 466C533 444 528 444 521 444ZM561 447C555 447 554 448 554 451C554 484 560 488 565 488C569 488 578 486 578 479C578 476 577 473 574 470C566 464 572 447 561 447ZM432 444C425 444 424 446 422 456C420 469 417 477 417 481C417 484 419 485 425 485C435 485 439 484 439 464C439 447 439 444 432 444ZM393 448C382 448 371 454 371 464C371 473 383 484 388 484C395 484 407 470 407 459C407 452 402 448 393 448ZM594 444C584 444 582 454 582 458C582 465 594 482 603 482C607 482 615 475 615 467C615 456 603 444 594 444ZM488 401C481 401 469 420 469 426C469 430 473 431 479 431C486 431 488 430 488 426C488 418 491 410 491 405C491 402 490 401 488 401ZM506 399C504 399 502 414 502 423V425C502 429 503 431 516 431C525 431 528 430 528 428C528 422 511 399 506 399ZM871 340C873 340 876 343 879 350C882 356 893 360 904 364C916 369 929 374 929 381C929 387 926 389 899 401C884 407 873 421 868 421C867 421 867 420 867 417C867 394 890 407 890 382C890 375 886 368 878 368H873C868 368 867 359 867 351C867 344 868 340 871 340ZM125 339C129 339 130 343 130 346C130 348 128 348 128 359C128 363 129 371 129 378C129 388 128 403 110 403C106 403 104 401 104 398C104 392 120 380 120 370C120 361 110 359 101 359C82 359 79 367 74 367C71 367 69 363 69 354C69 346 71 342 74 342C78 342 76 347 96 347C122 347 119 339 125 339ZM903 377C901 377 899 380 899 383C899 387 901 389 902 389C905 389 910 384 910 381C910 379 908 377 903 377ZM490 275C487 275 479 286 479 294C479 301 481 302 481 311C481 323 473 334 463 334C460 334 453 332 453 329C453 323 471 324 471 314C471 309 467 304 460 304C454 304 443 309 443 317C443 324 452 353 480 353C491 353 494 344 494 297C494 281 493 275 490 275ZM509 271C506 271 505 279 505 316V327C505 353 505 353 512 353C525 353 558 342 558 318C558 314 544 299 540 299C536 299 529 307 529 312C529 315 531 317 538 317C543 317 546 318 546 321C546 326 541 328 536 328C527 328 517 322 517 313C517 305 523 299 523 291C523 281 512 271 509 271ZM287 142C273 142 261 155 261 172C261 179 273 192 288 192C299 192 312 182 312 168C312 156 302 142 287 142ZM707 142C693 142 680 151 680 165C680 169 681 173 684 178C688 187 690 188 704 188C721 188 730 179 730 167C730 159 727 142 707 142ZM499 -51C504 -51 509 -51 515 -50L535 -48L534 -24C534 -19 533 -16 533 -14C533 3 541 9 541 10C541 11 540 11 539 11C531 10 523 10 516 9C497 8 482 8 482 -5C482 -8 485 -10 488 -10C497 -10 497 -1 510 -1C515 -1 521 -3 521 -9C521 -13 519 -15 516 -15C514 -15 510 -13 506 -13C502 -13 499 -15 499 -21C499 -25 502 -27 507 -27C510 -27 512 -26 515 -26C519 -26 521 -28 521 -32C521 -40 515 -42 509 -42C493 -42 489 -31 483 -31C480 -31 479 -34 479 -39C479 -47 485 -51 499 -51Z" fill="#f59e0b" stroke="none"/>
  </g>
</svg>