<svg xmlns="http://www.w3.org/2000/svg" viewBox="-50 -50 1100 1100">
  <g transform="translate(0, 1000) scale(1, -1)">
    <path d="M528 -90C536 -90 544 -89 556 -87C565 -85 576 -84 590 -82C636 -77 737 -37 762 -15C762 -15 840 41 883 107C902 136 906 129 906 135C906 139 910 145 915 155C933 188 970 255 970 380C970 442 959 499 943 540C933 566 903 630 900 632C895 636 884 655 856 686L829 716C818 728 770 768 759 773C749 778 744 788 740 788C728 788 647 852 462 852C443 852 452 848 431 848C418 848 409 844 401 840C392 837 385 833 374 833C365 833 334 823 313 814C232 776 249 779 227 766C211 756 132 681 132 676C132 674 104 638 102 635C102 635 30 529 30 374C30 300 62 193 83 169C86 166 87 163 86 163C86 150 123 104 125 101C178 29 237 -7 250 -18C263 -29 377 -89 474 -89C492 -89 485 -86 497 -86C506 -86 516 -90 528 -90ZM508 -81C347 -81 264 -13 264 -13C216 12 135 92 113 136C110 144 105 150 104 151C102 152 39 241 39 378C39 484 75 562 75 563C75 569 92 596 106 618C117 634 126 648 126 651C126 658 205 745 255 770C269 777 335 839 492 839C642 839 725 781 727 779C729 776 739 770 750 764C797 737 859 674 892 619C894 616 961 535 961 380V377C961 340 960 319 956 301C934 185 891 143 891 138C891 131 853 81 827 55C771 -1 732 -17 731 -18C729 -22 645 -81 508 -81ZM503 -75C657 -75 731 -13 739 -9C793 21 867 98 890 146C895 156 899 164 900 164C906 164 928 217 940 262C947 288 955 325 955 401C955 423 953 431 951 438C950 444 948 450 948 464C948 484 910 586 900 593C897 596 883 617 881 624C872 648 794 728 777 737C759 747 744 764 738 764C735 764 714 776 711 779C706 785 644 812 634 812C629 812 614 819 609 819L587 822C530 831 514 833 503 833C503 833 372 825 341 805C341 805 285 785 285 779C285 776 217 748 160 680L140 655C127 641 120 629 115 619C111 612 108 606 104 602C94 592 46 498 46 377C46 255 93 186 93 177C93 174 103 165 113 146C141 92 220 13 268 -9C277 -14 285 -18 285 -19C285 -21 369 -75 503 -75ZM506 -63C401 -63 314 -25 314 -19C314 -17 313 -16 312 -16C308 -16 257 12 238 26C173 72 145 124 127 153C120 166 114 175 109 183C85 221 85 221 62 323C61 328 60 347 60 367C60 398 61 433 62 443C81 547 104 569 104 570C104 571 111 583 118 595C125 607 132 619 132 620C132 621 138 633 146 645C198 725 312 776 315 779C317 782 387 818 496 818C591 818 678 783 681 778C686 771 728 760 781 716C811 691 852 649 852 643C852 641 854 637 857 634C860 631 867 618 875 605C885 588 896 569 899 569C899 569 943 483 943 376C943 349 940 318 934 287L928 257C925 244 925 252 918 232C911 208 905 198 897 186C893 180 890 174 885 165L859 120C848 100 799 49 768 26C759 19 698 -16 696 -16C694 -16 692 -17 692 -19C692 -19 626 -63 506 -63ZM461 749C474 749 476 753 476 758C476 766 484 771 491 771C497 771 502 768 502 761V758C502 751 504 751 519 751H521C527 751 530 752 530 755C530 756 528 759 525 763C521 769 517 778 513 787C508 801 503 814 496 814C490 814 486 804 486 802C486 802 461 757 457 756C454 755 453 753 453 752C453 751 456 749 461 749ZM490 776C487 776 486 778 486 783C486 790 489 795 493 795C495 795 499 792 499 787C499 781 494 776 490 776ZM501 23C666 23 729 110 739 110C742 110 761 130 770 142L789 167C837 229 859 305 859 379C859 452 837 523 798 578C757 634 743 653 738 653C735 653 726 659 715 667C669 705 598 726 592 727L560 733C537 737 517 738 496 738C348 738 248 642 240 630C222 603 143 530 143 382C143 236 225 157 244 130C244 130 337 23 501 23ZM827 271C826 271 826 274 826 279C826 284 823 298 819 311C803 363 746 383 727 383C710 383 698 372 685 372C659 372 639 396 639 429C639 441 651 473 658 477C659 478 661 478 664 478L688 477C712 477 723 507 723 513C723 522 715 539 710 539C709 539 708 539 708 540C708 545 727 562 727 577C727 583 725 588 719 593L695 612L700 626C702 632 703 635 703 638C703 648 689 674 663 674C652 674 637 654 637 645C637 634 647 629 647 622C647 618 641 615 557 615C540 615 528 616 528 617C528 622 537 632 537 645C537 664 514 680 498 680C483 680 460 667 460 647C460 634 468 623 471 623C473 623 474 621 474 618C474 612 474 617 388 612L351 610L353 628V636C353 667 329 667 317 667H315C312 667 311 667 311 668C311 676 392 710 424 716C450 721 486 724 512 724C534 724 567 717 567 715C567 714 568 714 569 714H572C581 714 605 713 669 680C690 669 747 625 750 619C757 607 845 526 845 380C845 329 831 271 827 271ZM502 619C502 619 480 628 480 646C480 653 483 664 498 664C510 664 519 656 519 645C519 633 506 619 502 619ZM192 597C198 597 203 605 209 607C214 608 220 617 220 626C220 638 210 646 204 646C200 646 194 644 184 640L171 635V643C171 649 173 651 178 651C185 651 188 651 188 653C188 655 183 663 176 663C165 663 156 648 156 637C156 630 158 624 169 624C179 624 193 629 202 629C207 629 210 628 210 623C210 609 182 616 182 608C182 606 187 597 192 597ZM671 617C666 617 654 635 654 642C654 648 660 659 670 659C680 659 687 643 687 636C687 630 675 617 671 617ZM319 611C302 611 300 612 300 631C300 646 309 652 317 652C326 652 336 645 336 625V611ZM805 587C811 587 810 594 817 594C822 594 827 591 829 591C832 591 834 592 834 594C834 598 822 614 816 614C812 614 812 605 805 605C800 605 794 610 794 617C794 627 809 639 819 639C823 639 830 638 830 630C830 626 828 621 828 618C828 616 829 614 834 614C840 614 854 627 854 633C854 635 852 636 850 636H847C832 636 834 652 810 652C795 652 780 644 780 626C780 605 800 601 800 591C800 589 803 587 805 587ZM173 277C170 277 157 318 157 382C157 555 278 651 287 651C287 647 281 641 281 632C281 622 289 616 289 612C289 608 249 605 249 578C249 553 269 547 269 546C269 543 250 538 250 518C250 508 252 504 260 498C279 483 295 480 308 479C327 476 338 475 338 439C338 418 331 387 304 387C297 387 294 392 291 392C290 392 288 390 285 387C282 383 273 381 263 379C234 373 187 364 175 288C174 280 174 277 173 277ZM514 279C440 279 427 302 417 302C414 302 410 303 409 305C406 310 390 308 360 325C344 335 314 360 314 366C314 367 360 382 360 433C360 458 340 496 322 496C320 496 315 493 305 493C292 493 273 498 273 520C273 536 287 539 303 539C313 539 325 537 334 537C346 537 348 540 348 545C348 549 346 555 341 555C336 555 338 551 316 551C276 551 268 560 268 574C268 596 284 597 350 597L487 598L489 547C489 529 490 514 490 504C490 497 490 492 489 492C488 489 481 488 467 488C398 488 394 539 384 539C383 539 383 522 383 500C383 432 384 416 389 416C392 416 395 420 397 426C403 440 432 469 441 471C445 472 458 473 470 474L491 475L493 455C494 450 494 446 494 443C494 424 471 406 455 392C446 385 438 379 438 375C438 372 451 371 469 371C485 371 565 374 565 378C565 386 509 408 509 456V474L544 477L557 462C564 454 570 444 576 436C583 425 589 416 593 416C600 416 602 482 602 525C602 536 598 541 594 541C592 541 574 515 568 515C560 515 562 487 518 487C512 487 507 488 507 489C506 491 504 568 504 591V597L646 602C675 602 705 594 705 574C705 558 687 553 668 553C645 553 631 559 631 559C627 559 625 556 625 551C625 547 627 535 631 535C635 535 644 539 663 539C694 539 704 531 704 519C704 508 697 490 683 490C677 490 675 492 667 492C638 492 617 439 617 418C617 388 640 359 669 357C678 356 684 355 684 354C684 346 649 325 625 310C614 304 605 299 604 297C592 286 552 279 514 279ZM247 218C240 218 213 234 213 280C213 343 258 371 271 371C276 371 277 361 277 327V241L267 237C251 234 254 218 247 218ZM771 188C757 188 735 194 731 199C729 203 729 203 736 201C751 197 756 194 760 194C765 194 769 197 779 206C791 215 803 227 803 259C803 294 787 345 746 364C740 367 736 369 736 370H738C738 370 812 359 812 265C812 209 785 188 771 188ZM277 187C227 187 188 227 188 274C188 321 225 365 235 365C236 365 237 364 237 364C237 357 197 338 197 286C197 241 231 197 278 197C287 197 293 195 293 192C293 191 290 187 277 187ZM774 215C771 215 771 219 771 226C771 237 763 248 753 248C738 248 737 254 737 271V279C737 326 729 354 729 359C729 360 729 361 730 361C743 361 789 329 789 257C789 217 774 215 774 215ZM497 209C415 209 292 262 292 350C292 357 294 358 294 358C295 358 302 353 309 346C339 318 370 301 372 298C374 296 441 270 465 263C471 261 496 259 521 259C542 259 563 260 574 264C616 279 651 296 651 300C651 301 653 302 655 302C658 302 670 313 683 325C696 338 710 351 714 351C718 351 718 329 718 323L719 298L699 280C688 270 674 259 667 255L649 245C599 218 538 209 497 209ZM743 215C738 215 732 224 732 231C732 237 737 239 743 239C749 239 759 237 759 231C759 224 750 215 743 215ZM518 143C396 143 334 209 334 213C334 214 337 220 355 220C377 220 397 215 418 209C442 203 469 196 506 196C554 196 590 210 618 221C637 228 654 234 668 234C684 234 693 226 693 225C693 216 594 143 518 143ZM273 207C272 207 270 210 270 214C270 221 277 226 282 226C285 226 288 224 288 221C288 217 277 207 273 207ZM506 72C411 72 347 136 338 150C326 168 311 185 311 196C311 198 312 202 314 202C319 202 327 196 339 187C362 170 398 144 450 129C479 120 497 117 512 117C525 117 536 120 548 123C554 125 561 126 568 128C595 134 598 136 612 147L636 164C657 178 673 192 685 203C696 213 704 220 709 220C711 220 713 218 713 214C713 206 703 188 686 165C681 158 677 153 674 148C665 134 659 126 616 100C578 77 533 72 506 72ZM513 35C377 35 317 91 286 112C270 124 213 186 213 192H215C219 192 246 176 274 175L295 174L306 156C321 130 323 127 344 110C377 82 439 55 511 55C566 55 626 71 682 117C693 127 704 143 723 188L735 183C743 180 756 179 766 179C774 179 775 180 778 180C779 180 780 179 780 178C780 176 746 128 738 128C737 128 732 124 728 118C711 101 625 35 513 35ZM814 78C815 78 816 78 816 82C816 88 813 98 809 109C805 122 800 135 800 144C800 147 801 148 801 151C801 153 800 154 798 154C796 154 787 148 787 139C787 131 794 125 794 118C794 111 786 102 778 102C773 102 768 105 768 109C768 111 767 113 764 113C760 113 750 104 750 101C750 96 811 78 814 78ZM216 61C218 61 219 63 219 67C219 71 233 95 246 95C253 95 257 97 257 100C257 100 221 135 210 135C206 135 204 132 204 124C204 121 205 120 207 120C209 120 212 121 215 121C224 121 233 113 233 106C233 101 229 96 225 96C223 96 222 97 222 99C222 101 223 103 223 105C223 108 222 109 221 109C218 109 207 98 207 94C207 93 209 92 211 92C214 92 216 90 216 88C216 84 212 78 207 78C202 78 198 85 198 94C198 101 196 104 193 104C189 104 188 102 188 98C188 86 207 61 216 61ZM801 93C800 93 798 93 795 95C794 96 793 97 793 99C793 101 795 104 797 104C801 104 804 99 804 96C804 94 803 93 801 93ZM516 -52C528 -52 536 -50 536 -47C536 -44 527 -48 527 -29C527 -2 535 2 535 7C535 10 533 11 529 11C525 11 511 8 511 6C511 5 516 1 516 -13C516 -18 515 -24 513 -24C506 -24 508 6 491 6C486 6 479 4 479 0C479 -2 481 -4 486 -4C489 -4 497 -12 497 -19C497 -28 486 -32 486 -41C486 -48 496 -52 516 -52ZM507 -44C502 -44 495 -41 495 -40C495 -37 497 -31 504 -31C509 -31 515 -34 515 -39C515 -43 511 -44 507 -44Z" fill="#f59e0b" stroke="none"/>
  </g>
</svg>