<svg xmlns="http://www.w3.org/2000/svg" viewBox="5 -117 990 992">
  <g transform="translate(0, 758) scale(1, -1)">
    <path d="M500 -87C565 -87 636 -72 706 -37C765 -8 797 16 844 64C891 112 936 204 936 213C936 219 944 232 946 244C947 251 949 258 950 266C957 297 965 336 965 384C965 446 950 523 901 613C874 662 807 734 757 766C704 799 615 833 584 833C579 833 575 834 575 835C575 842 541 845 503 845C459 845 411 841 407 836C404 831 370 829 310 803L287 793C242 775 169 716 138 672C134 666 128 660 122 653C112 641 102 630 102 625C102 621 71 575 71 563C71 558 35 497 35 379C35 145 203 15 247 -13C312 -55 401 -87 500 -87ZM503 -78C368 -78 294 -30 248 -3C221 13 162 68 140 98L119 125C111 135 41 244 41 377C41 478 71 536 71 538C71 541 78 557 86 574C152 711 299 833 497 833C516 833 534 831 553 829C696 813 784 728 788 728C788 728 956 604 956 376C956 292 932 202 871 114C854 88 787 23 761 6C738 -8 650 -78 503 -78ZM498 -73C612 -73 682 -31 687 -31C690 -31 741 -1 742 -1C742 -1 838 54 898 171C912 197 931 246 934 265L941 305C945 325 947 351 947 376C947 572 838 664 817 692C814 696 805 703 796 709C788 715 780 721 777 725C763 744 638 818 573 818C560 818 553 825 504 825C265 825 48 641 48 375C48 205 144 31 350 -48C365 -54 380 -58 383 -58C386 -58 431 -73 498 -73ZM500 -59C384 -59 267 -14 183 76C160 100 62 198 62 381C62 446 76 520 120 596C219 764 395 814 503 814C522 814 539 812 554 809L587 803C690 783 767 716 771 716C771 716 934 601 934 378C934 289 908 227 908 227C908 220 878 160 861 135C845 110 800 62 768 35C692 -29 596 -59 500 -59ZM489 739C493 739 513 761 521 776C533 796 546 788 546 796C546 799 540 800 526 800C511 800 507 799 507 795C507 793 509 791 511 791C514 791 516 789 516 786C516 782 497 757 493 757C490 757 471 779 471 789C471 793 477 794 477 798C477 799 475 800 473 800C468 800 443 797 443 795C443 791 485 739 489 739ZM491 24C531 24 578 29 604 38C760 92 819 223 820 226L834 260C847 289 854 334 854 382C854 419 850 457 838 490C812 561 754 635 692 675C645 706 593 719 574 726C566 728 530 730 496 730C466 730 437 729 427 727C344 708 270 660 230 611C187 557 143 493 143 378C143 166 323 24 491 24ZM497 512V571L515 580C539 592 553 611 553 632C553 647 544 664 538 664C535 664 533 660 533 651V644C533 621 507 607 500 607C496 607 495 609 495 615C495 634 505 642 514 650C523 657 532 665 532 682C532 697 521 712 513 712C510 712 508 711 508 708C508 705 510 706 510 697C510 685 505 662 491 662C479 662 472 674 472 693C472 697 472 701 473 705L475 720L511 718C651 710 730 627 730 627H728C724 627 717 631 707 631C691 631 676 619 676 601C676 590 682 586 682 582C682 576 670 570 635 533L614 512ZM513 36C440 36 370 51 301 99C258 129 207 191 188 235L180 255C178 259 175 267 173 274C165 301 158 300 158 391C158 477 206 610 346 682C383 700 449 718 464 718C466 718 468 718 468 717C468 714 447 699 447 682C447 670 456 662 464 653C473 644 482 636 482 623C482 611 480 606 476 606C474 606 472 607 469 608C442 622 454 664 444 664C438 664 433 653 433 638C433 619 442 594 475 576C481 572 485 558 485 529V510L375 513L347 539C326 559 321 565 321 569C321 573 325 579 325 588C325 610 298 624 289 624C284 624 244 616 244 585C244 567 260 548 282 548C291 548 299 552 303 552C311 552 318 546 345 520C372 494 372 493 373 429V384H335C285 383 279 383 279 346C279 303 288 307 335 305L376 303L377 261L343 226C314 197 309 192 302 192H289C271 192 252 182 252 161C252 144 271 123 291 123C310 123 326 137 326 157C326 161 325 165 324 169L320 180L349 210C366 227 375 236 378 236C379 236 381 225 382 206C384 171 381 168 406 168H424C451 168 464 166 464 163C464 154 442 157 442 133C442 98 469 72 500 72C503 72 505 73 505 74C505 78 481 90 481 127C481 151 494 165 509 165C523 165 539 148 539 122C539 87 519 83 519 76C519 74 521 71 525 71C530 71 536 77 545 77C558 77 577 112 577 121C577 136 547 161 547 167C547 169 558 170 601 170H635C637 170 638 179 638 191C638 202 637 216 637 226C637 232 637 235 638 235C639 235 649 227 660 215L681 194L678 181C678 177 677 174 677 171C677 142 706 134 718 134C739 134 754 164 754 179C754 201 725 211 719 211C716 211 712 210 706 207L692 202L675 220C636 260 636 260 636 287C636 314 637 316 659 316H675C685 316 696 316 711 317C715 317 718 339 718 357C718 367 717 376 715 379C710 386 638 386 637 387C636 387 636 396 635 410C635 427 634 453 631 482L629 501L694 567L708 563C714 561 718 560 721 560C724 560 727 561 730 563C755 576 745 608 750 608C752 608 776 576 787 560C808 527 831 472 834 448L840 414C842 401 842 389 842 375C842 200 683 36 513 36ZM196 608C212 608 226 624 226 640C226 654 214 671 196 671C180 671 163 656 163 642C163 627 186 608 196 608ZM203 618C192 618 177 639 177 651C177 657 180 661 188 661C197 661 214 642 214 629C214 622 208 618 203 618ZM795 587C796 587 797 588 797 591C798 598 804 608 810 619C818 631 825 644 825 652C825 659 821 660 816 660C810 660 802 657 794 655C784 651 774 648 765 648C760 648 753 651 749 651H747C747 645 759 630 764 630C769 630 771 639 778 639C786 639 792 629 792 621C792 615 789 610 782 610C778 610 776 610 776 609C776 605 795 587 795 587ZM797 634C794 634 793 637 793 640C793 648 802 650 804 650C806 650 808 649 808 647C808 643 801 634 797 634ZM716 575C709 575 696 580 696 590C696 600 698 619 710 619C716 619 731 615 731 598C731 589 729 575 716 575ZM284 560C272 560 262 568 262 582C262 593 270 610 281 610C292 610 308 594 308 586C308 575 301 560 284 560ZM391 229 390 269C390 292 388 311 386 313C384 316 375 317 358 317H346C325 317 326 319 324 347L322 371H363C389 371 390 371 390 386C390 397 389 414 388 431C386 449 385 468 385 480C385 486 385 490 386 491C390 495 424 498 450 498C467 498 480 497 482 495C483 493 485 463 486 428L488 364L475 352C464 341 461 337 461 327C461 306 477 283 498 283C506 283 514 287 522 294C533 305 535 305 535 324C535 332 533 349 510 358L500 361V396C500 445 498 471 498 483C498 496 498 497 520 497H535C567 497 610 496 613 493C617 490 617 478 617 460V436C617 403 619 371 634 371C640 371 646 374 656 374C674 374 674 367 674 362V349L673 327L650 326C639 326 627 324 625 322C623 320 622 304 622 277C622 255 621 235 620 234C617 232 560 230 468 229ZM308 318C303 318 301 326 301 340C301 370 302 371 307 371C312 371 312 360 312 350C312 330 312 318 308 318ZM692 331C689 331 688 340 688 352C688 364 690 367 694 367C696 367 697 363 697 358C697 352 695 331 692 331ZM112 305H115C123 305 141 307 141 327C141 337 132 353 127 353C123 353 121 348 118 348C114 348 112 361 108 361C106 361 104 357 104 350C104 334 111 329 113 329C116 329 117 338 124 338C129 338 133 332 133 329C133 321 117 314 104 314C88 314 84 324 84 327C84 334 95 339 95 344C95 346 93 347 88 347C78 347 74 345 74 342V340C77 328 74 305 112 305ZM915 294C919 294 920 296 920 307C920 340 898 344 898 344C895 344 877 320 869 320C868 320 865 321 865 325C865 339 888 342 888 347C888 352 870 356 867 356C864 356 863 354 863 351C863 341 855 331 855 321C855 309 870 301 876 301C893 301 894 325 902 325C906 325 908 318 908 316C908 306 894 308 894 302C894 299 909 294 915 294ZM501 299C490 299 477 310 477 321C477 323 479 350 498 350C506 350 519 345 519 325C519 315 514 299 501 299ZM394 180 393 212H412C421 212 432 213 445 213C478 215 521 217 565 217H575L622 216C624 198 624 203 624 194V192C624 184 623 182 568 182C542 182 509 183 475 183C452 183 429 182 406 181ZM715 147C707 147 695 151 695 167C695 181 699 196 716 196C730 196 740 185 740 173C740 159 729 147 715 147ZM288 135C278 135 268 150 268 161C268 173 275 176 282 176C296 176 309 166 309 154C309 143 296 135 288 135ZM476 90C476 90 461 97 461 117C461 132 460 134 460 136C460 144 479 163 482 163H484C484 159 469 149 469 126C469 112 476 99 476 92ZM552 98C550 98 550 103 550 109V121C550 144 547 142 547 147C547 148 547 149 548 149C552 149 558 146 558 124C558 109 555 98 552 98ZM681 -8C683 -8 684 -7 684 -4C684 -1 708 6 708 21C708 25 703 40 686 40C678 40 669 37 664 37C661 37 660 38 660 41C660 47 668 51 674 51C685 51 685 44 691 44C694 44 695 46 695 49C695 56 687 69 684 69C683 69 683 68 681 66C676 57 647 54 647 40C647 35 653 24 669 24C673 24 678 25 684 25C691 25 695 23 695 17C695 11 692 8 687 8C681 8 676 13 671 13C669 13 667 12 667 10C667 3 676 -8 681 -8ZM322 -18C326 -18 334 -11 343 -2C354 8 368 20 375 20C383 20 385 22 385 24C385 27 373 34 366 34C364 34 362 33 362 31C362 28 356 18 349 18C341 18 333 26 333 33C333 41 343 41 343 43C343 44 324 56 322 56C321 56 319 26 319 4C319 -14 320 -18 322 -18ZM333 -4C331 -4 329 -2 329 4C329 13 331 17 335 17C337 17 343 13 343 9C343 3 337 -4 333 -4Z" fill="#f59e0b" stroke="none"/>
  </g>
</svg>