<svg xmlns="http://www.w3.org/2000/svg" viewBox="-50 -50 1100 1100">
  <g transform="translate(0, 1000) scale(1, -1)">
    <path d="M491 -90C518 -90 571 -84 604 -77C677 -60 729 -37 789 9C821 33 887 102 887 110C887 115 971 206 971 384C971 521 916 653 806 743C792 754 729 819 577 846C570 848 514 851 477 851C428 851 458 844 429 844C349 844 217 771 168 716L144 691C77 619 29 503 29 379C29 250 80 112 216 5C304 -64 413 -86 455 -86C484 -86 470 -90 491 -90ZM507 -83C487 -83 472 -81 462 -80C405 -74 410 -75 401 -72C397 -71 388 -67 361 -60C332 -53 333 -47 326 -47C313 -47 250 -9 210 22C131 82 73 189 73 203C73 205 72 208 70 209C65 212 38 283 38 380C38 471 62 584 153 686C261 807 375 827 424 836C434 837 441 839 445 840C452 843 483 840 485 844C486 846 487 846 488 846C492 846 498 841 522 841H529C588 841 770 814 889 637C925 583 950 501 954 485L959 463C962 447 965 404 965 376C965 265 912 160 875 109C834 53 746 -20 693 -42C607 -76 547 -83 507 -83ZM496 -76C653 -76 749 -14 829 64C879 114 908 159 935 238C954 292 957 309 957 379C957 465 954 480 925 551C901 611 893 624 863 663C841 691 773 754 765 754C763 754 758 758 754 762C742 775 637 834 511 834C366 834 273 777 222 737L200 720C137 666 106 600 101 595C96 592 48 497 48 374C48 258 90 116 249 -2C280 -24 370 -76 496 -76ZM506 -63C455 -63 401 -55 344 -34C295 -17 216 36 181 75C90 177 83 250 79 255C72 264 61 319 61 381C61 413 64 447 72 478L81 510C115 635 257 821 509 821C690 821 804 709 808 703C812 697 811 696 805 694C805 694 750 680 747 680C741 680 734 683 730 683C729 683 728 682 728 681C728 676 751 657 753 657C754 657 754 658 754 659V662C754 667 759 670 766 670C775 670 784 663 784 655C784 645 770 645 770 640C770 638 772 635 779 629L789 619L792 630C794 636 812 692 818 692C823 692 949 576 949 376C949 298 919 212 898 176L884 151C828 51 690 -63 506 -63ZM476 741C478 741 479 751 489 751C496 751 498 749 506 749C520 749 529 756 529 766C529 779 518 781 507 784C497 786 488 788 488 798C488 803 492 805 501 805C519 805 520 787 527 787C530 787 531 790 531 795C531 799 530 815 525 815C520 812 512 811 504 811C489 810 473 808 473 790C473 777 487 774 498 772C508 770 516 768 516 762C516 758 510 754 506 754C494 754 481 771 475 771C472 771 471 767 471 761C471 753 473 741 476 741ZM501 19C725 19 828 213 828 217C828 222 865 273 865 382V424C865 438 850 496 841 516C828 544 792 639 655 709C612 731 558 739 508 739C421 739 369 715 369 715C369 715 325 699 266 649C226 614 196 570 196 566C196 565 183 546 183 544C183 542 171 520 171 518C173 518 171 515 169 512C154 496 144 426 144 367C144 284 174 233 178 229C178 225 203 183 219 161C264 102 364 19 501 19ZM747 133C743 133 730 172 727 191C725 209 704 242 690 256C639 303 546 303 525 305L509 308V363C510 364 518 365 528 365C585 365 575 340 584 340C587 340 587 345 587 363C587 391 587 410 582 410C581 410 578 407 575 401L570 390L542 387C532 386 525 386 521 386C504 386 504 391 504 430C504 440 503 452 503 466L502 504H582C602 504 616 505 628 505C661 505 661 503 661 499C661 475 625 449 625 448C625 446 644 445 667 445C690 445 709 446 709 448C709 451 671 488 671 504C671 504 676 505 683 505C696 505 725 489 730 479C732 475 735 472 736 472C738 472 738 485 738 502C738 525 737 558 734 558C728 558 714 518 683 518C676 518 673 522 673 527C673 552 703 573 703 578C703 579 694 580 661 580C647 580 626 580 626 578C626 575 661 545 661 528C661 520 658 518 562 518C530 518 502 519 501 521C500 523 499 551 499 584L498 643H509C521 643 540 637 548 630C555 623 557 607 561 607C564 607 567 621 567 679V683C567 691 567 692 564 692C561 692 554 688 554 683C554 675 545 676 526 662C520 657 514 655 509 655C502 655 498 659 498 666C498 682 519 709 522 709C525 709 538 715 538 718C538 721 531 723 525 723C519 723 519 720 517 720C515 720 512 722 491 722C467 722 456 720 452 720C450 720 450 720 450 722C450 726 474 729 501 729C517 729 533 728 548 726C618 716 662 691 664 691C665 691 679 679 687 676C742 651 854 536 854 385C854 231 751 133 747 133ZM271 126C260 126 192 218 192 229C192 230 186 239 186 241C186 243 157 302 157 375V377C157 457 183 511 183 511C183 513 188 522 188 524C188 524 212 562 212 564C212 573 280 663 367 698C369 698 380 705 383 705C385 705 386 704 387 704C387 704 418 721 434 721C441 721 482 691 482 666C482 659 479 656 474 656C445 656 442 676 438 676C436 676 434 690 429 690C424 690 422 683 422 664C422 618 424 607 428 607C439 607 437 643 472 643H484V627C484 608 485 591 486 576C486 558 487 543 487 533C487 531 488 530 488 528C488 518 485 517 444 517H396C360 517 356 518 356 526C356 545 386 575 386 577C386 578 373 579 359 579C331 579 312 578 312 575C312 572 326 554 335 548C341 543 345 534 345 526C345 517 338 515 330 515C299 515 292 553 282 553C275 553 275 494 275 484C275 474 276 467 279 467C292 467 293 502 330 502C346 502 347 502 347 493C347 484 326 451 320 451C318 451 316 449 316 446C316 442 322 442 354 442C380 442 391 442 391 447C391 451 384 457 377 463C368 471 358 480 358 488C358 489 359 490 359 491L360 502L486 504L489 446C490 427 490 409 490 399V390C490 386 489 386 484 386C479 386 474 386 468 387C437 390 433 406 430 406C428 406 427 401 427 380C427 360 429 337 431 337C438 337 454 367 483 367H485C491 367 491 365 491 335L492 306L459 304C417 301 408 299 373 283C309 255 302 214 295 180C292 159 289 141 275 129C273 127 272 126 271 126ZM208 608C213 608 226 626 226 629C226 632 214 629 214 644C214 651 217 660 228 660C234 660 241 656 241 653C241 651 242 650 244 650C249 650 262 664 262 668C262 669 262 670 261 670C260 670 259 669 257 669C249 669 204 682 200 686C199 687 197 688 196 688C193 688 191 686 191 684C191 677 207 640 207 620C207 614 206 614 206 609C206 609 207 608 208 608ZM789 664C787 664 778 673 775 676C787 680 793 682 795 682C796 682 797 681 797 680C797 679 789 664 789 664ZM208 659C206 659 205 659 205 662C205 665 208 667 212 667C215 667 218 666 218 664C218 662 217 661 216 661C213 661 210 659 208 659ZM938 339C942 339 943 352 943 356C943 370 909 377 909 385C909 396 940 387 940 418C940 423 939 427 938 427C936 427 935 424 935 421C935 415 933 415 908 415C885 415 883 415 881 421C880 425 879 427 877 427C875 427 873 424 873 418C873 411 875 401 877 401C880 401 885 409 907 409C912 409 916 408 916 406C916 401 893 399 893 387C893 372 920 376 920 366C920 364 916 364 911 364C880 364 881 375 877 375C875 375 874 370 874 359C874 346 875 341 877 341C884 341 873 352 910 352C933 352 935 352 936 345C936 341 937 339 938 339ZM74 334C83 334 68 349 102 349C127 349 119 337 127 337C129 337 131 342 131 351C131 360 129 365 126 365C122 365 121 359 108 359C104 359 101 359 101 361C101 364 108 371 116 378C124 385 133 393 133 397C133 401 124 401 106 401C83 401 82 401 77 410C74 415 72 417 71 417C68 417 67 410 67 401C67 392 67 390 70 390C73 390 79 392 90 392C99 392 103 391 103 388C103 374 71 373 71 344C71 338 72 334 74 334ZM510 238 509 286H526C553 286 587 277 591 274C593 273 595 264 595 255V238ZM497 237 417 239 416 258V266C416 274 417 277 419 278C424 280 476 285 487 285C493 285 493 283 493 269C493 251 495 246 497 237ZM644 237 607 238V256C607 273 608 275 614 275C626 275 682 248 682 239C682 237 678 237 660 237ZM327 235C351 261 383 273 394 273C397 273 399 272 399 255L400 239L378 237C365 236 349 235 341 235ZM532 180C514 180 512 180 512 193V205C512 215 513 223 514 225C515 225 525 226 539 226H555L594 225L595 203V191C595 182 594 181 589 181C578 181 555 180 536 180ZM630 181C610 181 607 183 607 199C607 225 612 226 636 226H657L696 225L704 207C708 198 712 193 712 190C712 181 699 181 660 181ZM333 176C314 176 312 177 312 183C312 192 317 213 321 218C325 222 332 223 361 223C385 223 397 222 399 220C402 218 403 208 403 197C403 181 402 178 398 178C389 178 377 178 366 177C354 177 343 176 333 176ZM419 178 418 198C417 204 417 210 417 214V217C417 223 418 223 438 223H497L495 180ZM502 33C431 33 459 37 431 41C375 49 290 102 290 109C290 111 295 111 303 111C313 111 328 110 340 110C350 110 361 113 361 117C361 118 359 120 354 122C337 125 313 147 313 156C313 157 314 159 315 159C317 162 413 165 457 165C476 165 479 164 479 163C479 159 467 148 467 130C467 113 475 89 521 89C538 89 561 108 561 131C561 151 539 159 539 165C539 168 643 169 678 169C708 169 709 168 709 163C709 147 662 120 662 119C662 116 672 116 693 115L729 113L695 91C677 79 661 69 659 69C653 69 635 56 632 56C630 56 619 50 615 50C614 50 614 51 613 51C608 51 593 33 502 33ZM511 103C484 103 479 130 479 135C479 139 492 157 516 157C530 157 545 150 545 133C545 122 545 103 511 103ZM803 67C806 67 824 80 824 85C824 86 824 87 822 87C820 87 819 86 818 86C812 86 784 114 784 121C784 121 787 127 787 131C787 132 787 133 785 133C777 133 757 104 762 104C763 104 767 107 769 107C779 107 801 77 801 72C801 68 802 67 803 67ZM216 60C218 60 219 61 219 62C219 65 215 69 215 70C215 76 240 105 250 105C254 105 256 104 260 104C261 104 262 104 262 105C262 109 237 130 234 130C233 130 232 129 232 128C232 125 233 124 233 122C233 111 208 89 196 89C191 89 188 90 188 88C188 87 207 60 216 60ZM499 -53C533 -53 538 -24 538 -14C538 1 528 12 515 12C508 12 508 11 504 11C497 11 497 16 494 16C492 16 490 13 490 7C490 -6 481 -12 481 -15C481 -16 502 -17 507 -17C514 -17 518 -16 518 -15C518 -10 500 -10 500 -5C500 -1 508 7 513 7C520 7 522 -4 522 -16C522 -41 514 -44 505 -44C503 -44 501 -43 501 -42V-40C501 -37 497 -33 494 -33C490 -33 487 -36 487 -46C487 -52 489 -53 499 -53Z" fill="#f59e0b" stroke="none"/>
  </g>
</svg>