<svg xmlns="http://www.w3.org/2000/svg" viewBox="-50 -50 1100 1100">
  <g transform="translate(0, 1000) scale(1, -1)">
    <path d="M507 -94C510 -94 512 -92 512 -91C512 -89 519 -89 526 -89C533 -89 541 -89 541 -87C542 -87 545 -90 547 -90C548 -90 548 -90 549 -88C552 -83 589 -90 679 -55C761 -23 841 52 842 56C842 57 848 64 855 72C917 142 941 221 952 257C955 267 957 274 959 276C960 278 960 304 964 306C966 307 966 308 966 310C966 313 963 317 963 319C963 320 965 320 965 326V335C965 338 966 341 968 341C968 343 966 347 966 350C966 354 970 355 970 356H968C966 356 966 356 966 357C966 358 969 362 969 378C969 385 967 393 966 393C966 394 969 398 969 400C967 400 965 404 965 408C965 412 966 416 968 416C970 416 970 417 968 420C965 423 962 445 962 451C962 454 963 453 963 455C963 459 959 460 959 465C959 478 930 624 809 733L791 748C784 754 763 769 727 792C711 802 642 830 632 830C628 830 614 836 609 836H607C604 836 604 840 599 840C597 840 596 839 593 839C588 839 587 844 584 844C582 844 582 843 580 843C577 843 575 847 572 847C571 847 570 846 569 846C569 846 508 849 472 849C438 849 453 846 435 846H429L381 839C378 834 306 821 238 775C161 723 121 673 80 581C63 545 46 492 46 480C46 480 36 410 35 410C34 410 33 408 33 405C33 402 34 399 34 396C34 394 33 392 32 392C31 392 30 384 30 374C30 364 30 356 32 356C32 353 30 346 30 341C30 326 40 335 40 313V305C40 294 43 296 43 291C43 288 42 286 42 284C42 284 42 283 43 282C45 281 49 259 57 233L67 200C72 186 111 79 210 6C275 -43 357 -73 370 -73L404 -82C405 -83 454 -89 461 -89H486C495 -89 502 -89 502 -91C502 -92 505 -94 507 -94ZM499 -81C378 -81 320 -43 315 -43C304 -43 199 11 138 90C120 113 79 191 79 200C79 200 46 272 46 377C46 427 54 484 75 544C109 639 152 697 229 755C271 787 358 841 488 841C521 841 558 839 578 835C637 823 715 791 760 760C800 733 857 673 886 630C941 546 959 460 959 385C959 260 910 167 907 167C906 167 905 167 905 168C905 171 908 178 912 187C926 218 954 282 954 380C954 569 837 748 640 813C582 832 568 834 504 834H488C430 834 330 831 211 734C179 708 124 646 124 635C124 633 120 625 115 616C107 601 98 583 98 578C98 575 95 569 92 566C73 538 54 444 54 391C54 357 61 286 64 278C65 276 65 275 65 273V270C65 268 66 264 68 257L79 224C85 204 113 143 128 118C145 89 200 36 243 6C328 -53 425 -70 503 -70C558 -70 604 -62 630 -55C791 -9 877 124 877 126C877 129 893 146 893 151C893 153 900 162 902 162C903 162 904 162 904 161C904 151 837 54 777 13L749 -8C725 -26 634 -81 499 -81ZM505 -58C440 -58 353 -39 309 -16C254 13 208 46 187 71L162 100C144 121 128 144 119 165L107 193C95 221 82 249 82 264C82 275 67 315 67 377C67 467 95 565 141 637C158 663 224 743 318 786L339 795C358 804 437 824 490 824C558 824 700 806 816 686L842 659C873 627 941 522 941 379C941 297 912 192 891 182C886 179 883 179 881 181C877 187 868 186 868 192C868 195 866 197 864 197C858 197 858 205 854 205C854 205 854 204 852 204C848 204 844 209 844 215V221C844 223 844 224 842 224C837 224 829 205 829 204C829 199 854 192 854 183C854 180 849 175 845 175C837 175 827 186 819 186C812 186 806 177 806 163C806 153 808 151 810 151C817 151 812 164 820 164C854 164 848 149 862 149C871 149 883 163 886 163C886 163 887 162 887 161C887 159 886 158 884 158C883 158 850 98 783 42C709 -20 602 -58 505 -58ZM521 747C527 747 532 749 532 751C532 752 531 753 528 754C522 755 521 758 521 779V805C527 805 538 806 538 809C538 811 536 814 530 814C499 814 501 778 491 778C479 778 484 812 457 812C449 812 445 811 445 809C445 808 447 806 451 805C457 804 457 801 457 780C457 760 457 757 451 756C447 755 445 753 445 751C445 749 448 748 453 748C462 748 476 749 476 751C476 753 470 757 470 771V783L477 770C481 762 486 755 488 755C493 755 502 779 506 779C507 779 507 777 507 772V764L506 749L517 748C519 747 521 747 521 747ZM483 25H505C712 25 809 189 809 193C809 195 811 197 812 199C822 208 851 284 851 301C851 301 861 331 861 379C861 454 830 530 826 530C824 530 823 532 823 535C823 538 798 607 693 688C688 688 652 710 650 710C645 710 591 742 504 742C283 742 140 568 140 373C140 330 147 286 165 246L180 213C185 203 207 172 225 147C238 130 287 84 311 73C322 67 382 25 483 25ZM503 38C458 38 441 40 409 49C332 71 250 120 207 201L194 226C178 255 156 313 156 384C156 454 182 505 182 511C182 514 196 545 196 548C196 550 197 551 199 551C201 551 202 553 202 555C202 572 296 674 318 674C323 674 324 675 324 677C324 686 427 727 480 727C617 727 675 671 684 671C688 671 711 654 736 632C756 614 793 570 793 564C793 562 795 560 796 560C798 560 800 558 800 555C800 553 802 547 806 542C814 529 812 524 820 506C829 488 843 440 843 379C843 262 793 198 793 195C793 185 710 82 612 56L576 46C553 39 543 38 503 38ZM179 570C183 570 185 572 185 576C185 585 205 593 205 608C205 612 202 622 193 622C181 622 160 609 152 609C150 609 149 609 149 611C149 614 151 620 151 624C151 625 155 626 160 626C168 626 172 628 172 631C172 635 164 641 154 641C151 641 149 640 149 638V636C149 628 135 621 135 610C135 604 143 594 147 589L164 597C175 602 184 605 188 605C191 605 193 604 193 601C193 591 164 589 164 581C164 576 174 570 179 570ZM505 125C540 125 541 146 544 146C546 146 547 151 547 157C547 188 521 201 521 201C521 199 520 200 518 201C515 204 514 278 513 344C512 394 511 439 510 441C509 442 510 443 511 443C513 443 520 436 525 427L588 339C588 339 660 239 660 234C660 234 648 221 648 204C648 182 674 166 690 166C712 166 732 185 732 202C732 221 711 244 691 244C688 244 687 243 684 243C671 243 644 285 625 313C617 325 611 335 608 338C602 344 592 358 582 372C576 381 569 391 563 398L555 407L566 418C610 456 656 494 660 494C664 494 683 478 683 453C683 438 673 426 673 421C673 416 680 411 682 411C685 411 687 413 692 419C697 424 708 432 719 441C734 452 750 464 750 467C750 468 747 470 734 470C696 470 674 500 674 506C674 517 699 526 728 526C738 526 747 524 754 524C763 524 766 526 766 528C766 532 754 547 743 561C736 570 730 578 730 579C730 585 723 582 719 594C717 599 713 602 709 602C704 602 700 598 700 579C700 547 669 519 661 519C656 519 650 527 650 529V531C650 533 645 539 645 543C645 545 646 546 646 547C646 550 641 548 641 563C641 576 645 569 645 580C645 587 643 596 641 596C637 596 633 587 627 587C624 587 622 586 622 584C622 582 615 575 607 568C596 556 581 542 581 535C581 531 593 529 607 526C625 523 646 519 646 511C646 505 640 498 626 487L577 446C558 430 548 422 544 422C542 422 541 423 541 425C541 434 521 449 521 466C521 474 526 479 531 484C537 491 543 497 543 511C543 532 520 550 497 550C472 550 456 529 456 509C456 495 464 482 481 473L474 458C469 449 462 439 459 435L452 427L434 442L378 484C351 504 337 514 337 517C337 524 363 547 368 547C370 547 371 546 372 546C375 546 373 550 384 550H398C405 550 411 551 411 555C411 563 353 607 348 607C344 607 343 603 343 596C343 590 344 582 344 574C344 561 341 559 341 555V551C341 549 340 546 333 538L323 526L311 535C277 559 296 610 283 610C276 610 238 568 238 564C238 562 221 543 221 529C221 526 221 525 225 525C234 525 252 532 271 532C299 532 311 516 311 512C311 500 281 484 259 484C254 484 245 484 245 481C245 475 258 459 262 459C263 459 263 460 264 460C272 460 304 428 307 428C310 428 310 434 310 442V459C310 489 319 499 325 499C334 499 354 484 414 439C431 425 440 420 440 411C440 404 434 395 421 374C414 364 406 351 396 334L366 285C361 276 351 260 342 246L325 222L311 223H305C290 223 274 208 274 190C274 182 277 176 277 176C281 176 281 161 287 161C289 161 301 151 315 151C338 151 355 176 355 188C355 191 353 197 349 203L342 213L351 230C417 346 421 334 421 344C421 348 482 449 495 449C496 449 496 440 496 427C496 412 495 398 495 355C495 313 496 273 496 244C496 220 496 204 494 202C492 200 490 199 490 201C489 201 465 189 465 161C465 156 466 151 466 146C467 138 490 125 505 125ZM839 528C844 528 877 596 877 604C877 608 874 608 869 608C864 608 853 606 843 604C833 601 823 599 817 599C810 599 802 608 799 608C797 608 796 606 796 603C796 595 806 584 808 584C811 584 813 592 822 592C833 592 843 579 843 568C843 560 838 555 835 555C832 555 829 559 827 559C825 559 824 557 824 554C824 550 827 545 830 545C831 545 832 542 832 539C832 534 837 528 839 528ZM851 578C850 578 842 585 842 591C842 598 852 599 854 599C857 599 859 598 859 596C859 591 854 578 851 578ZM494 485C479 485 475 500 475 511C475 529 484 530 493 530C510 530 521 525 521 510C521 495 510 485 494 485ZM691 177C689 177 670 178 670 207C670 220 677 230 686 230C696 230 715 216 715 200C715 187 696 177 691 177ZM139 141C143 141 151 143 159 146C170 149 182 153 190 153C199 153 201 146 209 146C211 146 213 148 213 150C213 151 211 154 208 158C197 171 198 182 192 182C184 182 189 162 182 162C175 162 165 178 165 186C165 191 167 192 170 192C173 192 178 190 178 190C180 190 181 192 181 195C181 204 174 221 164 221C162 221 160 220 160 216C160 212 155 202 150 190C142 174 134 156 134 147C134 142 136 141 139 141ZM318 164C311 164 293 183 293 192C293 202 297 207 306 207C313 207 336 199 336 189C336 177 329 164 318 164ZM506 141C490 141 481 153 481 165C481 179 490 188 504 188C521 188 531 173 531 160C531 150 521 141 506 141ZM868 158C861 158 856 166 856 171C856 174 859 179 862 179C867 179 873 169 873 163C873 160 872 158 868 158ZM157 151C154 151 152 157 152 161C152 167 155 170 157 170C160 170 164 165 164 160C164 156 161 151 157 151ZM509 -52C516 -52 549 -49 549 -44C549 -39 539 -48 539 -28C539 2 540 3 550 7C556 10 559 11 559 13C559 15 551 17 519 17C492 17 484 13 484 -4C484 -18 490 -18 490 -22C490 -24 488 -28 488 -33C488 -41 496 -52 509 -52ZM512 -16C503 -16 497 -12 497 -5C497 1 500 8 512 8C520 8 526 6 526 -2C526 -9 520 -16 512 -16ZM511 -44C507 -44 501 -44 501 -33C501 -28 505 -25 520 -25C524 -25 526 -27 526 -31C526 -41 521 -44 513 -44Z" fill="#f59e0b" stroke="none"/>
  </g>
</svg>