<svg xmlns="http://www.w3.org/2000/svg" viewBox="6 -118 988 993">
  <g transform="translate(0, 757) scale(1, -1)">
    <path d="M489 -88C523 -88 563 -86 582 -82C697 -59 787 -8 857 77L881 107C889 116 911 155 923 181L938 212C939 216 964 280 964 372C964 623 770 845 498 845C226 845 36 626 36 381C36 298 58 211 108 128C136 83 203 15 228 2C241 -5 247 -15 252 -15C254 -15 259 -17 263 -20C313 -59 434 -84 434 -84C442 -87 465 -88 489 -88ZM508 -78C416 -78 402 -73 378 -64C373 -62 367 -59 359 -57C320 -45 292 -26 287 -26C286 -26 266 -12 264 -12C260 -12 44 116 44 382C44 442 56 481 56 481C56 488 74 574 134 652C199 737 298 809 424 830C440 833 473 834 503 834C770 834 955 607 955 379C955 236 886 136 886 136C885 136 883 134 883 132C883 118 780 -19 631 -62C584 -76 566 -78 508 -78ZM500 -73C644 -73 782 -3 865 113C921 192 936 268 938 268C938 268 948 326 948 367C948 459 933 536 871 631C851 662 790 727 775 733C771 734 767 737 767 738C767 741 656 830 503 830C243 830 51 624 51 383C51 122 267 -73 500 -73ZM493 -61C423 -61 344 -29 343 -29C335 -29 258 13 242 26C72 167 63 320 63 379V394C63 619 261 817 497 817C592 817 697 786 783 711L807 691C851 653 913 535 913 521C913 517 937 458 937 375C937 338 932 297 919 253C890 154 826 88 826 83C826 81 825 79 823 79C813 79 714 -61 493 -61ZM488 744C493 744 499 751 510 767C530 799 537 796 537 799C537 801 535 803 529 803H527L514 802C510 802 509 801 509 799C509 797 510 795 510 792C510 783 500 766 494 766C492 766 480 783 480 791C480 796 483 796 483 799C483 801 479 803 473 803C464 803 451 802 451 798C451 795 454 791 459 784C476 762 480 744 488 744ZM505 22C549 22 605 28 655 56C740 103 761 130 783 160L797 177C806 188 812 195 812 198C812 209 856 270 856 377C856 450 827 533 779 596C673 734 539 735 484 735C274 735 166 526 166 501C166 498 161 491 161 490V488C161 478 146 458 146 386C146 316 162 270 162 270C162 264 199 188 199 188C199 185 238 136 247 128C251 124 270 109 302 85C336 59 404 22 505 22ZM514 35C475 35 438 43 438 43C423 43 377 59 346 75C249 125 159 237 159 382C159 547 279 647 299 656C299 656 365 703 438 716C452 719 479 720 505 720C643 720 719 637 729 637C731 637 733 636 733 634C733 627 842 541 842 373C842 325 832 276 809 231L797 206C771 156 709 106 699 98C671 76 612 51 579 44L557 39C543 36 528 35 514 35ZM204 598C208 598 215 611 215 615C215 619 200 630 200 634C200 636 201 636 202 636C209 636 216 630 224 630C235 630 240 643 240 647C240 648 240 649 239 649C235 649 229 641 227 641C225 641 223 643 218 646C206 654 206 674 194 674C182 674 160 646 160 641C160 639 163 637 166 637C172 637 197 611 200 603C201 600 202 598 204 598ZM797 593C799 593 800 594 801 597C803 603 806 610 809 617C815 631 822 647 822 655C822 660 820 663 816 663C812 663 803 660 794 657C782 654 769 650 761 650C753 650 752 654 748 654C747 654 746 653 746 653C746 649 758 636 763 636C768 636 768 645 774 645C779 645 796 634 796 623C796 616 790 612 789 612C787 612 787 611 787 609C787 604 793 593 797 593ZM189 644C185 644 181 649 181 652C181 657 185 660 188 660C192 660 196 655 196 651C196 646 191 644 189 644ZM798 637C794 637 792 640 792 643C792 649 801 651 806 651C807 651 809 651 809 650C809 646 802 637 798 637ZM303 171C313 171 356 172 356 175C356 181 319 203 319 232V234C319 242 321 242 382 242C413 242 446 243 477 244C502 244 525 245 542 245C561 245 572 245 573 243C582 232 569 216 592 195C600 188 607 184 615 184C648 184 661 234 668 242C669 244 675 245 683 245C690 245 700 244 711 244C745 244 788 249 788 288C788 311 769 321 745 321C723 321 696 311 678 290C672 283 669 278 666 274C656 260 656 259 618 259H608C596 259 591 260 591 275C591 287 595 314 597 389C597 408 597 408 607 415C620 424 624 433 624 441C624 454 610 465 610 467C610 468 644 478 644 478C689 491 711 508 718 508C724 508 766 487 771 482C774 477 776 472 776 467C776 451 757 439 738 439C720 439 707 451 707 471C707 480 711 484 720 484C728 484 733 478 733 471C733 460 722 457 722 453C722 452 723 451 726 451C732 451 748 457 748 470C748 484 728 493 718 493C706 493 694 480 694 467C694 435 720 427 742 427C775 427 794 453 794 471C794 490 775 498 759 506C747 511 737 515 737 523C737 526 739 530 742 530C745 530 750 526 756 526C769 526 783 543 783 553C783 563 766 582 754 582C716 582 708 559 706 536C704 519 705 519 689 510C663 495 601 479 579 479C570 479 569 480 569 496V510L570 539L590 542C636 550 639 586 639 586C639 591 634 591 634 598C634 610 607 635 589 640C580 643 538 644 498 644C379 644 278 614 264 593C256 581 252 568 252 558C252 548 255 539 261 532L281 511L272 502C265 494 261 488 261 482C261 471 277 444 302 444C312 444 333 447 333 475C333 485 333 489 337 489C337 489 365 486 365 477C365 471 357 460 357 449C357 430 384 417 396 417C412 417 433 435 433 445V453L431 466H450C460 466 470 465 470 465C470 464 454 445 454 435C454 425 468 406 484 406C495 406 523 412 523 434C523 449 508 462 508 463C508 464 519 464 532 464C546 464 557 463 557 462C557 458 552 451 552 444C552 425 561 420 569 416C576 412 582 409 582 399C582 384 579 291 577 277L576 261L339 258L320 257V269C319 270 319 271 319 272C319 300 355 321 355 328C355 331 349 333 343 333C341 333 339 333 337 332C333 331 321 330 309 330C288 329 264 328 264 324C264 323 266 321 272 319C288 314 305 288 305 270V255L287 257C246 262 242 306 234 306C229 306 227 280 227 254C227 243 228 199 231 199C236 199 246 224 255 232C262 237 279 243 290 243C301 243 304 240 304 231C304 202 269 181 269 177C269 172 284 171 303 171ZM504 476C375 476 312 520 303 520C298 520 271 537 271 563C271 567 271 571 272 575C281 601 392 631 521 631H533C554 631 557 630 557 613V593C557 575 556 558 555 557C555 556 546 556 536 556C493 556 493 557 493 560C493 568 512 590 512 592C512 594 499 595 484 595C470 595 457 594 457 593C457 589 479 570 479 562C479 557 477 556 467 556C445 556 448 572 432 585C431 586 430 587 429 587C424 587 422 576 422 568V564C422 556 417 537 417 526C417 521 418 517 422 517C430 517 441 543 459 543C476 543 479 543 479 537C479 520 459 508 459 502C459 500 463 499 479 499C504 499 511 501 511 503C511 509 494 521 494 533C494 541 498 542 507 542C514 542 524 541 541 541H557L555 477L518 476ZM587 555C572 555 569 558 569 570C569 579 570 583 570 601V609C570 621 571 628 578 628C592 628 618 610 618 590C618 577 603 555 587 555ZM726 533C725 533 719 535 719 544C719 553 725 570 746 570C761 570 770 564 770 551C770 542 764 535 756 535C752 535 749 538 749 543V548C749 554 746 557 744 557C740 557 736 553 736 547C736 544 731 533 726 533ZM301 454 289 460C279 465 274 474 274 482C274 489 280 501 297 501C314 501 318 484 318 473C318 467 316 465 311 460ZM397 432C385 432 374 442 374 454C374 461 378 471 392 471C405 471 418 463 418 450C418 442 408 432 397 432ZM590 421C577 421 565 434 565 444C565 455 579 462 589 462C599 462 608 456 608 446C608 442 604 421 590 421ZM489 420C477 420 468 428 468 441C468 454 487 456 487 456C489 456 510 448 510 436C510 430 503 420 489 420ZM876 279C881 279 883 281 883 286C883 289 882 292 881 292C877 292 869 316 869 322C869 324 869 324 873 324C913 324 912 304 918 304C924 304 925 332 925 337C925 340 924 342 923 342C919 342 918 334 911 334C904 334 895 340 884 340C875 340 873 352 868 352C866 352 865 349 865 343C865 335 863 327 861 319C859 311 857 303 857 296C857 280 875 279 876 279ZM111 269C129 269 141 289 141 303C141 323 115 337 104 337C91 337 73 320 73 311C73 294 89 269 111 269ZM101 286C91 286 82 294 82 304C82 318 91 318 114 321H116C126 321 132 311 132 302C132 288 106 286 101 286ZM690 259C677 259 676 261 676 266C676 276 709 309 740 309C762 309 767 299 767 289C767 260 741 259 698 259ZM619 198C602 209 596 209 596 232V235C596 245 596 246 619 246C644 246 648 245 648 242C648 235 640 220 630 209ZM692 -3C700 -3 739 26 739 28C739 29 739 29 737 29H733C726 29 711 64 711 69C711 69 712 71 712 72C712 73 711 73 710 73C708 73 703 71 699 68C692 62 684 58 678 54C667 47 658 42 658 36C658 31 664 25 668 25C671 25 673 28 673 34C673 45 683 54 691 54C698 54 703 47 703 43C703 40 700 37 697 37C693 37 690 42 688 42C687 42 686 41 686 40C686 34 693 21 698 21C704 21 701 36 706 36C709 36 718 25 718 21C718 15 702 7 698 7C693 7 691 12 688 12C685 12 684 10 684 8C684 4 689 -3 692 -3ZM296 4C296 4 312 55 325 55C328 55 331 56 331 57C331 60 311 72 307 72C306 72 297 25 284 25C268 25 268 40 267 53C265 51 253 39 253 36C253 33 292 4 296 4ZM285 40C289 40 294 49 294 55C294 58 293 60 291 60C287 60 280 50 280 44C280 41 282 40 285 40Z" fill="#f59e0b" stroke="none"/>
  </g>
</svg>