<svg xmlns="http://www.w3.org/2000/svg" viewBox="-50 -50 1100 1100">
  <g transform="translate(0, 1000) scale(1, -1)">
    <path d="M498 846C233 846 31 635 31 383C31 194 148 56 219 7C291 -43 390 -85 502 -85C592 -85 690 -58 792 16C841 51 891 120 891 120C894 123 969 228 969 378C969 617 780 846 498 846ZM891 581C918 531 941 466 941 390C941 360 940 327 937 310C918 202 855 93 743 19C691 -15 663 -28 604 -43C566 -53 533 -58 501 -58C248 -58 61 160 61 385C61 626 266 820 508 820C521 820 535 819 549 818L586 812C615 807 794 765 891 581ZM462 745C471 745 476 746 476 748C476 751 470 754 470 757C470 763 479 769 490 769H492C497 769 507 769 507 757C507 752 503 751 503 748C503 746 508 745 518 745C527 745 531 745 531 747C526 754 520 768 515 781C507 800 500 818 494 818C492 818 485 806 479 792C460 753 448 750 448 746C448 745 454 745 462 745ZM492 794C495 794 496 791 496 783C496 778 493 776 490 776C487 776 485 778 485 782C485 787 489 794 492 794ZM794 583C790 586 694 736 498 736C358 736 281 658 276 658C265 658 182 561 182 546C182 535 144 489 144 383V368C144 341 147 288 182 218C182 203 251 121 276 103L293 90C299 86 305 82 307 82C307 82 383 25 503 25C700 25 806 192 806 192C806 193 819 210 822 220C825 232 828 236 830 240C834 247 839 254 848 295L856 336C858 344 859 356 859 368C859 406 853 460 845 480C845 480 812 568 794 583ZM847 376C847 276 793 199 785 189L767 166C751 147 660 39 502 39C393 39 311 93 293 109C279 120 241 157 231 169C198 208 169 283 169 288C169 301 155 324 155 381C155 460 185 568 291 653C372 718 481 724 481 724C503 724 554 720 568 717C730 682 809 537 809 533C809 533 847 464 847 376ZM744 395H730L693 396L692 497V526C691 616 691 624 681 646C669 674 644 688 619 688C580 688 567 655 562 655C560 655 552 699 494 699C438 699 430 658 422 658C414 658 407 682 372 682C312 682 308 631 308 570V546C308 539 309 467 309 423C309 404 309 391 308 390C306 389 274 388 248 388C222 388 215 388 215 390C215 397 249 419 249 446C249 462 237 475 221 475C200 475 186 456 186 443C186 435 191 425 200 425C210 425 224 433 224 444C224 448 222 451 220 451C211 451 213 435 205 435C201 435 198 441 198 442C198 447 210 463 215 463C219 463 232 452 232 437C232 427 228 417 218 411C197 400 175 368 175 345C175 323 194 307 214 307C234 307 248 327 248 340C248 353 239 362 223 362C215 362 207 361 207 349C207 342 211 338 214 338C224 338 213 355 229 355C232 355 232 353 232 342C232 327 225 318 214 318C193 318 188 347 188 353C188 371 204 374 228 374C235 374 244 373 253 373L309 374L310 274C310 254 311 234 311 218C311 190 311 171 312 169C317 151 324 85 382 85C399 85 421 92 431 109L437 119C447 105 464 75 504 75C558 75 572 121 577 121C581 121 593 100 628 100C649 100 673 109 687 136C692 147 693 208 693 266V332C693 359 693 379 694 380C694 380 729 383 758 383C795 383 799 380 799 359C799 338 780 334 770 334C755 334 752 343 752 353C752 365 760 367 762 367C765 367 767 365 767 361C767 358 769 355 771 355C775 355 777 357 777 359C777 365 767 375 764 375C759 375 740 363 740 346C740 332 758 322 768 322C774 322 816 332 816 363C816 383 802 400 789 416C777 429 767 442 767 454C767 470 784 474 789 474C798 474 804 468 804 461C804 454 798 446 793 446C786 446 791 460 784 460C782 460 779 457 779 452C779 447 782 436 793 436C804 436 817 446 817 459C817 482 786 486 781 486C774 486 757 473 757 453C757 432 778 410 778 401C778 396 771 395 744 395ZM678 396 652 395 521 392C520 408 519 419 519 426C519 451 538 442 538 452C538 456 531 458 516 458C512 458 464 457 464 451C464 448 470 446 478 442C487 437 487 436 487 415C487 403 486 394 485 393C484 393 447 391 403 391L324 390L323 511V588C323 634 324 637 329 646C338 663 354 671 369 671C414 671 421 623 429 623C441 623 419 687 493 687C560 687 547 635 559 625C562 622 562 623 565 630C577 661 599 675 620 675C640 675 659 663 670 642C677 628 677 628 678 512ZM509 637C504 637 501 649 497 649C495 649 494 643 494 640C494 632 503 626 510 626C517 626 521 632 521 640C521 653 509 664 497 664C484 664 469 651 469 635C469 620 479 617 488 613C497 610 505 607 505 595C505 583 492 581 485 581C476 581 473 593 473 596C473 597 474 598 475 598C479 598 484 596 487 596C489 596 490 597 490 600C490 604 482 607 477 607C471 607 467 605 467 595C467 585 471 571 486 571C501 571 518 584 518 598C518 609 509 614 500 619C490 625 480 631 480 644C480 652 488 656 496 656C507 656 512 648 512 641C512 639 511 637 509 637ZM635 628C631 628 629 634 625 634C624 634 623 633 623 631C623 626 627 620 634 620C643 620 649 630 649 637C649 647 639 653 626 653C613 653 594 645 594 631C594 616 607 611 618 606C627 603 635 600 635 592C635 587 626 578 617 578C610 578 604 582 604 589C604 593 604 595 606 595C609 595 615 591 618 591C620 591 621 592 621 594C621 596 617 604 612 604C607 604 595 599 595 590C595 582 607 569 613 569C621 569 644 578 644 593C644 603 635 612 615 620C612 621 610 625 610 629C610 637 615 646 622 646C625 646 637 644 637 633C637 630 636 628 635 628ZM370 650C354 650 342 634 342 623C342 610 351 605 360 600C368 595 376 591 376 580C376 575 372 571 363 571C354 571 351 577 351 581C351 583 352 585 354 585C359 585 362 580 367 580C369 580 370 581 370 582C370 587 359 595 353 595C346 595 342 589 342 582C342 570 354 560 368 560C386 560 391 578 391 583C391 593 382 599 373 606C363 613 354 619 354 630C354 636 358 640 367 640C376 640 384 634 384 628C384 625 383 624 381 624C379 624 375 628 373 628C370 628 367 626 367 622C367 616 371 612 378 612C386 612 397 618 397 628C397 638 385 650 370 650ZM896 375C875 375 878 382 875 382C873 382 871 377 871 370C871 362 873 358 875 358C879 358 874 364 900 364C923 364 922 362 931 351L932 362V365C932 375 930 375 915 382C906 386 898 390 898 391C898 396 929 410 929 423C929 427 927 430 926 430C924 430 923 428 923 426C923 422 918 421 899 421C887 421 877 422 877 424C877 426 876 427 874 427C873 427 871 423 871 417V406L884 408H889C893 408 895 408 895 406C895 401 878 401 878 393C878 381 901 381 901 376C901 375 899 375 896 375ZM134 386C134 393 127 394 119 394C115 394 111 393 107 393C78 393 80 408 72 408C70 408 68 404 68 401C68 385 70 385 86 385H90C106 385 113 384 113 381C113 376 74 365 74 341C74 334 78 328 80 328C81 328 82 329 82 332C82 338 94 342 105 342C132 342 124 325 130 325C132 325 134 330 134 337C134 346 132 359 128 359C125 359 126 353 113 353H109L96 354L111 363C132 377 134 378 134 386ZM678 276C678 218 677 163 676 155C671 122 649 107 628 107C586 107 587 151 573 151C566 151 563 141 563 140V138C563 138 558 90 505 90C460 90 449 124 449 133C449 136 450 137 450 137C450 140 445 145 441 145C438 145 435 142 433 134C427 113 406 99 385 99C351 99 337 129 337 129L327 147L326 231C326 327 324 358 324 368C324 373 324 373 326 374C326 375 362 376 406 376L486 378L487 319L477 312C470 306 466 302 466 299C466 297 468 296 472 296C472 296 547 300 547 305C547 315 522 296 520 354L519 378H586C651 378 658 382 665 382H667L678 381ZM636 175C625 179 614 183 614 194C614 199 620 202 627 202C638 202 644 195 644 191C644 189 643 188 640 188C634 188 630 192 626 192H624C624 189 631 178 636 178C640 178 651 181 651 191C651 199 642 210 627 210C610 210 602 192 602 189C602 178 615 173 627 167C637 163 646 159 646 153C646 149 642 143 632 143C623 143 616 146 616 151C616 152 617 154 619 154C621 154 622 152 622 151C622 150 624 149 627 149C630 149 632 150 632 151C632 153 625 163 616 163C610 163 605 159 605 153C605 147 615 135 629 135C644 135 658 146 658 156C658 168 647 171 636 175ZM508 170C497 175 488 180 488 186C488 190 494 196 507 196C519 196 521 190 521 186C521 185 520 184 519 184C517 184 515 186 512 186C508 186 506 184 506 182C506 178 513 175 519 175C525 175 533 178 533 189C533 202 523 206 509 206C493 206 476 200 476 180C476 168 507 157 510 157C515 157 521 146 521 137C521 132 514 129 506 129C497 129 490 134 490 138C490 139 491 140 493 140H496C498 140 499 142 499 145C499 148 498 152 493 152C488 152 479 145 479 140C479 134 494 121 501 121C516 121 534 131 534 145C534 157 520 164 508 170ZM379 205C362 205 347 191 347 182C347 170 359 165 370 161C380 157 389 153 389 145C389 137 379 131 371 131C361 131 359 139 359 142C359 144 360 145 361 145C364 145 370 142 373 142C375 142 376 144 376 145C376 149 369 154 363 154C354 154 352 150 352 145C352 136 360 124 375 124C382 124 400 128 400 143C400 159 389 163 378 167C370 170 363 173 363 181C363 187 366 196 377 196C388 196 391 189 391 187C391 186 390 185 389 185C386 185 384 189 380 189C377 189 376 187 376 184C376 179 381 172 390 172C396 172 404 178 404 185C404 194 394 205 379 205ZM511 13C484 13 479 -19 479 -21C479 -34 495 -50 509 -50C530 -50 544 -33 544 -16C544 -3 535 13 511 13ZM510 -44C500 -44 496 -38 496 -22C496 -2 500 4 513 4C521 4 529 3 529 -21C529 -36 522 -44 510 -44Z" fill="#f59e0b" stroke="none"/>
  </g>
</svg>