<svg xmlns="http://www.w3.org/2000/svg" viewBox="-50 -50 1100 1100">
  <g transform="translate(0, 1000) scale(1, -1)">
    <path d="M498 -85C756 -85 880 114 880 114C880 118 890 122 910 164L928 200C940 224 967 327 967 386C967 425 963 471 959 475C955 479 952 487 949 501C944 521 935 552 911 601C833 757 670 847 503 847C365 847 225 786 125 654C84 600 57 526 57 519C57 519 33 464 33 381C33 194 148 -9 385 -74C410 -81 455 -85 498 -85ZM496 -78C398 -78 331 -46 331 -46C327 -46 275 -21 260 -12C208 20 136 93 105 147C62 221 42 301 42 381C42 619 246 839 498 839C732 839 953 654 953 381C953 118 733 -78 496 -78ZM494 -69C573 -69 663 -49 743 5C809 49 820 74 822 74C827 74 880 139 880 145C880 150 946 229 946 385C946 495 919 554 881 620C819 725 704 802 575 825C561 828 527 830 497 830C258 830 89 643 56 460C52 441 50 408 50 378C50 286 74 227 80 213L92 188C128 109 253 -69 494 -69ZM492 -58C356 -58 226 12 151 115C121 155 104 187 97 206L88 229C82 242 62 319 62 383C62 480 96 569 151 643C248 774 409 818 461 818H496C773 818 874 603 874 600C874 598 875 596 877 596C884 596 911 528 922 484C931 448 933 437 933 394C933 326 926 290 906 229C886 170 827 83 782 50L744 21C690 -20 595 -58 492 -58ZM473 746C497 746 520 748 520 768C520 778 514 778 514 785C514 789 516 793 516 798C516 809 503 815 492 815C469 815 460 812 460 810C460 808 467 811 467 788C467 747 454 752 454 749C454 747 461 746 473 746ZM490 785C479 785 479 788 479 793V796C479 808 481 811 485 811C495 811 500 804 500 796C500 787 495 785 490 785ZM490 752C481 752 479 758 479 765C479 777 485 778 490 778C496 778 503 777 503 765C503 758 500 752 490 752ZM495 26C598 26 678 58 755 138C775 159 793 178 793 180C793 186 811 203 811 206C811 207 817 219 822 232C829 247 836 263 837 266C839 297 851 272 851 380V383C852 386 852 394 852 404C852 555 703 734 562 734C554 734 529 735 505 735C482 735 461 734 449 734C328 734 144 593 144 382C144 294 177 213 220 159C236 139 283 97 301 85C369 42 419 26 495 26ZM210 194C209 194 181 249 181 253C181 255 155 304 155 378C155 556 306 722 501 722C576 722 624 700 651 688C663 683 671 679 676 679C680 679 684 681 684 676C684 672 692 666 703 656C718 644 739 627 760 603C776 583 807 532 807 526C807 524 806 521 808 521C813 521 841 443 841 389C841 387 840 384 840 381L839 363L832 378C823 396 808 403 793 403C771 403 755 386 755 363C755 339 777 333 787 333C801 333 813 343 813 354C813 365 798 376 792 376C790 376 789 375 789 374C789 368 798 362 798 354C798 347 789 345 784 345C773 345 768 354 768 364C768 372 772 392 792 392C808 392 825 378 825 359C825 354 823 348 820 341C810 319 800 317 724 314L711 313L710 392C708 567 707 604 700 612C691 624 664 639 638 639C609 639 601 623 595 623C589 623 562 648 493 648C427 648 419 624 409 624C398 624 385 638 359 638C351 638 324 628 317 623C297 606 294 578 294 503V306L278 304C270 303 260 302 249 302C216 302 180 310 180 343C180 362 193 379 209 379C223 379 234 365 234 355C234 343 221 334 218 334C208 334 210 359 207 359C205 359 198 351 198 346C198 336 210 329 221 329C234 329 248 342 248 353C248 384 226 392 209 392C185 392 166 372 166 348C166 302 206 296 206 296L228 291L229 258V248C229 198 212 194 210 194ZM777 621C780 621 782 624 783 632C783 636 787 644 790 654C795 667 801 682 801 691C801 694 799 698 797 698C794 698 789 692 778 689L759 682C750 678 742 675 737 675C730 675 730 680 725 680C723 680 719 680 719 678C719 673 735 656 739 656C741 656 742 658 742 661C742 666 748 669 755 669C766 669 771 661 771 653C771 644 762 646 762 642C762 640 771 621 777 621ZM776 668C771 668 770 671 770 674C770 677 772 680 780 680C782 680 784 680 784 679C784 674 779 668 776 668ZM218 607C220 607 222 608 222 609C222 611 221 613 221 614C221 623 240 628 240 646C240 656 236 660 229 660C217 660 194 645 191 645C189 645 188 650 188 655C188 663 191 665 202 665C210 665 213 666 213 668C213 671 204 679 199 679C195 679 179 660 179 650C179 642 186 630 194 630C207 630 223 647 229 647C230 647 231 646 231 642C231 622 203 628 203 620C203 615 212 607 218 607ZM312 304 310 326C309 339 309 401 309 467V585L317 600C327 615 346 625 363 625C414 625 409 555 421 555C426 555 428 585 440 608C454 634 486 638 490 638C496 638 502 637 514 634C549 626 559 615 566 580C568 568 571 562 574 562C582 562 583 625 639 625C649 625 662 622 673 614C691 600 691 611 694 472C694 460 695 446 695 432C696 394 696 367 696 350C696 321 695 314 693 313C687 311 500 306 365 305ZM646 515C653 515 665 516 665 519C665 524 652 538 652 547C652 552 655 554 658 554C664 554 674 540 680 540C682 540 684 543 684 551C684 557 682 577 676 577C673 577 665 567 657 567C653 567 651 568 651 574C651 589 660 600 660 603C660 607 648 607 640 607C628 607 626 606 626 604C626 599 638 584 638 574C638 568 635 567 631 567C622 567 609 574 609 574C605 574 604 567 604 559C604 551 605 540 609 540C615 540 624 553 631 553C636 553 639 548 639 545C639 535 626 526 626 520C626 517 630 515 646 515ZM354 506C367 506 375 508 375 512C375 515 362 523 362 538C362 542 363 545 366 545C370 545 390 527 394 527C395 527 395 533 395 542C395 559 394 569 391 569C387 569 376 557 369 557C365 557 363 560 363 565C363 577 379 594 379 597C379 599 374 600 365 600C341 600 337 600 337 592C337 584 350 571 350 564C350 559 345 556 340 556C331 556 327 569 320 569C316 569 315 565 315 550C315 534 317 526 321 526C328 526 339 544 343 544C345 544 351 539 351 532C351 522 334 517 334 509C334 507 343 506 354 506ZM481 330C535 330 551 333 551 336C551 339 544 344 523 365L505 385L506 440H538C562 440 570 439 591 407C597 399 601 394 603 394C606 394 607 402 607 415C607 431 606 454 606 481C606 497 603 506 599 506C593 506 591 491 571 471L558 455L506 453V481C506 506 506 508 516 522C529 541 550 542 550 555C550 557 545 559 542 559H540C538 557 523 557 505 556C477 555 440 554 440 548C440 535 492 531 492 478V474L491 453L464 452H451C439 452 436 453 432 457C401 490 403 503 396 503C391 503 389 486 389 465C389 435 394 387 399 387C403 387 409 393 409 399C409 404 418 423 426 434C430 439 433 440 445 440H461L491 439V414C492 412 492 409 492 407C492 364 452 342 452 333C452 331 458 330 481 330ZM874 354C877 354 882 357 882 359C882 363 872 365 872 371C872 374 875 378 879 378H883C887 378 888 382 893 382C897 382 902 378 907 378C914 378 923 385 923 406C923 421 918 437 915 437C910 437 920 426 888 426C865 426 865 434 862 434C861 434 861 430 861 422V414C861 409 861 408 867 408C874 408 880 410 885 410C888 410 889 409 889 407C889 388 863 402 863 377C863 367 869 354 874 354ZM905 390C898 390 897 401 897 403C897 408 899 413 908 413C914 413 916 411 916 404C916 397 910 390 905 390ZM108 342C121 342 133 351 133 372C133 402 104 404 99 404C81 404 70 390 70 374C70 355 92 342 108 342ZM84 360 81 371C80 373 79 375 79 377C79 386 87 389 104 389C117 389 125 384 125 374C125 360 119 360 104 360ZM790 205C788 205 784 210 784 214C784 216 782 218 781 218C775 218 772 233 772 259V268L773 301L785 303C792 305 802 309 808 312C824 320 828 318 830 329C831 335 834 338 836 338C837 338 838 337 838 334C838 314 800 205 790 205ZM609 263C588 263 588 267 588 286C588 289 588 291 589 292C591 296 679 299 679 299C691 299 696 296 696 283V279L695 265H677C649 264 625 263 609 263ZM757 266 733 267C710 268 709 268 709 276C709 298 710 299 729 299H757ZM469 262C437 262 430 262 430 271C430 279 431 282 433 293L489 294H522C553 294 571 293 572 292C573 292 573 285 574 278L575 265L541 263C521 262 489 262 469 262ZM311 260C310 267 309 270 309 275C309 278 309 283 311 291H396C417 291 417 290 417 282V276L416 262ZM258 259C245 259 243 259 242 276L240 290H295V261L271 259ZM733 192 724 201C719 206 714 215 713 220L710 239C709 241 709 244 709 246C709 252 710 253 729 253C729 253 731 253 733 252H755L756 239V236C756 225 752 215 740 201ZM488 39C323 39 228 167 228 172C228 174 230 175 248 175C269 175 288 174 314 174C344 174 351 175 351 176C351 185 314 184 309 246H416V241C416 211 391 188 387 186C382 184 381 182 381 181C381 178 391 178 397 178C424 178 470 181 470 184C470 191 460 182 438 222C433 231 430 236 430 240C430 248 445 249 497 249C555 249 562 250 569 250C572 250 574 247 574 243C574 228 558 193 542 188C538 187 535 184 535 182C535 181 549 181 565 181C578 181 624 181 624 184C624 185 620 190 615 194C604 206 589 234 589 243C589 249 596 249 644 250L696 251V240C696 230 683 196 650 190C646 189 644 187 645 185C646 183 660 183 679 183C704 183 737 184 758 184C772 184 776 183 776 182C776 178 719 95 600 54C573 45 528 39 488 39ZM269 184C258 184 241 227 241 234C241 244 250 246 279 246L295 247V228C295 197 278 184 269 184ZM790 74C806 74 828 103 828 105C828 107 826 107 821 107C812 107 810 114 799 120C786 127 781 149 777 149C775 149 751 123 751 108C751 98 758 97 764 97H769C774 97 776 74 790 74ZM217 65C223 65 232 75 232 79C232 81 231 82 227 82C220 82 213 80 209 80C207 80 206 80 206 82C206 84 230 114 240 114C242 114 244 113 247 113C248 113 249 113 249 114C249 116 232 134 229 134C227 134 226 132 226 129C226 122 200 95 194 95C192 95 191 96 191 99C191 103 195 115 195 119C195 122 194 123 192 123C187 123 175 111 175 106C175 100 211 65 217 65ZM772 107C769 107 763 110 763 116C763 120 766 124 771 124C775 124 780 118 780 113C780 109 777 107 772 107ZM797 82C791 82 787 93 787 100C787 105 790 107 793 107C799 107 805 100 805 92C805 86 800 82 797 82ZM503 -52C507 -52 520 -31 524 -23C546 12 553 5 553 8C553 11 549 12 542 12C526 12 523 11 523 4V-1C523 -12 513 -15 508 -15C498 -15 491 -4 491 1C491 5 495 6 495 8C495 10 478 13 472 13H469C474 2 478 -7 481 -15C492 -42 496 -52 503 -52ZM506 -34C503 -34 502 -31 502 -26C502 -21 503 -19 508 -19C511 -19 514 -20 514 -21C514 -28 510 -34 506 -34Z" fill="#f59e0b" stroke="none"/>
  </g>
</svg>