<svg xmlns="http://www.w3.org/2000/svg" viewBox="-1 -121 1002 1000">
  <g transform="translate(0, 758) scale(1, -1)">
    <path d="M490 -91C514 -91 539 -90 540 -88C543 -84 547 -87 550 -87C555 -87 560 -84 567 -84H571C579 -84 580 -79 583 -79C584 -79 584 -80 585 -80C588 -80 589 -76 592 -76C594 -76 595 -77 597 -77C600 -77 601 -73 604 -73C604 -73 605 -74 607 -74C610 -74 614 -69 622 -69H625C653 -69 795 -6 871 99L896 132C917 161 948 250 948 250C948 253 947 254 947 257C947 262 950 268 952 272L957 288C967 320 971 351 971 377C971 419 962 448 962 456C962 463 960 470 939 532C923 582 880 645 877 651C870 670 797 737 797 737C768 768 684 810 677 810C677 810 629 825 627 829C626 831 625 832 623 832H619C612 832 612 836 607 836C606 836 605 835 604 835C601 835 601 839 595 839C593 839 590 838 589 838C585 838 586 842 583 842C581 842 580 841 579 841C577 841 580 845 558 845C541 845 539 846 537 847C534 848 532 849 516 849C484 849 431 845 431 845H427C421 845 419 841 415 841C413 841 414 842 411 842C402 842 373 829 368 829C368 829 331 816 329 816C326 816 313 810 301 805C290 800 279 795 277 795C267 795 210 752 210 752C174 726 120 657 119 657C107 657 50 533 50 515V513C50 510 46 508 46 504V501C46 496 42 490 42 489C42 487 36 477 36 473C36 470 37 468 37 466C37 460 29 432 29 409C29 313 37 319 37 314C37 309 32 306 32 302C32 295 40 286 40 281C40 279 39 278 39 277C39 274 43 269 43 268C43 266 46 260 46 257C46 255 45 255 45 253C45 249 49 244 49 243C49 243 98 125 106 117C108 115 156 50 186 28L218 4C277 -42 289 -44 298 -48L324 -58L350 -67C351 -67 356 -71 358 -71C358 -68 363 -73 367 -73H372C374 -73 376 -73 378 -75C382 -78 396 -80 412 -82C426 -84 441 -86 445 -88C448 -90 469 -91 490 -91ZM479 -81C444 -81 375 -68 335 -54C264 -29 170 42 122 109C122 109 52 219 42 322C40 340 40 364 40 388C40 474 47 469 47 475C47 479 74 575 101 616L116 640C150 692 240 770 278 785C284 788 292 791 300 794C338 812 396 838 492 838C530 838 599 832 621 822C629 818 638 815 648 811C685 796 733 777 782 738C803 722 861 659 862 652C863 651 865 647 868 644C898 609 941 517 945 477C946 467 956 431 956 378C956 157 801 34 791 28C757 5 670 -81 479 -81ZM485 -72C561 -72 714 -55 830 75C906 160 918 209 937 285C939 293 942 302 944 311C947 321 948 337 948 355C948 410 937 483 937 483C930 551 856 651 856 651C856 656 798 717 780 730C763 743 751 765 614 818C612 818 613 817 611 817C609 817 603 821 602 821C602 821 518 832 511 832C492 832 473 828 463 828C458 828 457 829 447 829C384 829 274 774 271 774C271 774 157 708 96 591C60 523 44 424 44 401C44 385 46 364 48 346C50 332 51 319 51 312C51 257 101 163 101 163C101 136 242 -72 485 -72ZM485 -62C417 -62 295 -21 275 -3C271 1 264 5 255 12C230 29 188 57 146 110C135 124 110 163 110 167C110 168 70 248 64 309C62 337 61 365 61 392C61 434 63 469 70 484C74 493 77 504 81 516C93 556 111 612 182 686C209 713 255 751 270 758L295 770C321 782 349 795 384 804L424 814C433 817 452 818 477 818C531 818 607 813 631 799C639 794 650 790 662 785C698 770 749 749 807 689C825 671 839 654 839 652C839 651 916 554 926 479C935 415 938 392 938 369C938 248 868 138 860 129L837 103C823 86 810 71 778 45C729 4 664 -33 633 -39C602 -46 546 -62 485 -62ZM489 743C496 743 501 744 501 746C501 750 488 752 488 757C488 770 500 771 506 771H508C527 771 534 781 534 791C534 809 519 810 497 810H485C460 810 454 808 454 805C454 803 457 801 462 801C463 801 465 802 475 803V776C475 753 474 751 468 750C464 750 461 748 461 747C461 746 478 743 489 743ZM495 778C491 778 490 779 490 782C490 799 493 801 495 801H498C503 801 518 797 518 788C518 784 514 778 495 778ZM494 24C565 24 613 45 621 45C637 45 694 79 732 112C815 184 839 277 839 287C839 298 854 308 854 359C854 422 833 507 830 507C827 507 824 526 818 531C807 541 781 636 651 701C601 727 564 734 497 734C431 734 420 731 401 726C339 707 311 685 294 673C286 667 281 663 276 663C269 663 222 613 205 588C177 545 169 523 163 505C160 497 158 489 153 480C147 468 142 431 142 386C142 326 151 253 185 205L201 180C234 129 281 87 285 87C293 87 326 55 386 40C427 30 462 24 494 24ZM712 201C701 201 698 202 693 212C686 225 684 236 684 244C684 253 686 259 687 262C694 254 697 249 713 249C739 249 752 280 752 280C752 284 762 289 775 295C788 302 805 310 811 318C825 336 830 357 830 374C830 404 812 428 790 428C768 428 752 404 752 393C752 381 763 369 773 369C785 369 799 382 799 393C799 399 793 410 789 410C787 410 786 409 786 405C786 402 787 401 787 397C787 387 780 380 775 380C771 380 768 385 768 392C768 404 775 420 785 420C798 420 818 401 818 373C818 338 785 306 764 306C760 306 758 308 758 315C758 323 747 344 739 360C734 370 729 379 729 381C729 392 741 404 753 452L761 483L753 503C748 517 741 527 731 537L718 552L728 563C733 569 736 576 736 584C736 604 712 620 698 620C684 620 660 605 660 587C660 573 672 561 672 557C672 556 672 555 671 555C666 555 644 538 636 527L626 516L620 527C613 541 604 550 590 556L579 560L589 565C596 568 610 574 610 605C610 617 595 634 575 634C556 634 536 618 536 595C536 575 548 569 548 565C548 561 515 547 515 537C515 535 510 530 506 530C499 530 495 544 475 557L461 565L469 573C477 584 480 594 480 602C480 627 451 644 435 644C415 644 398 620 398 598C398 576 414 567 420 562L407 554C400 549 391 539 386 530L376 516L369 531C357 553 340 557 340 565C340 571 352 573 352 594C352 625 317 633 312 633C306 633 272 616 272 602C272 580 288 564 288 562C288 559 278 552 275 552C268 552 233 510 233 469C233 434 255 421 271 412C279 407 286 404 286 398C286 391 282 380 269 360C261 347 256 337 252 328C246 315 242 307 233 307C216 307 178 332 178 377C178 419 215 423 215 423C227 423 235 403 235 390C235 381 232 375 226 375C218 375 213 382 213 390C213 397 217 403 217 407C217 409 217 410 216 410C212 410 200 402 200 389C200 377 209 366 222 366C232 366 250 380 250 394C250 411 229 431 213 431C192 431 162 405 162 374C162 355 188 292 229 291C239 291 242 284 245 276C248 267 252 256 266 247C272 242 278 241 283 241C290 241 294 244 297 244C298 244 299 243 299 238C299 236 292 206 279 206C262 206 254 215 246 223C241 229 236 234 229 234C218 234 200 226 200 220C200 217 199 216 198 216C190 216 159 286 159 307C159 309 160 310 160 311C160 317 152 342 152 381C152 430 164 501 216 578C264 651 371 723 501 723C606 723 685 668 708 648C770 593 785 574 806 526C813 508 824 488 824 484C824 466 838 459 838 366C838 335 836 308 834 306C831 302 826 287 821 272L813 247L804 225C798 211 795 205 791 205C787 205 776 227 761 227C752 227 745 221 737 214C729 208 722 201 712 201ZM165 555C174 555 174 569 179 569C181 569 182 572 182 576C182 580 181 581 178 581C176 581 173 580 169 580C160 580 152 584 152 589C152 593 165 594 177 596C190 597 202 598 202 602C202 605 195 611 187 618C178 627 168 636 168 641C168 645 173 652 173 655C173 656 171 657 169 657C164 657 156 647 156 639C156 626 175 619 175 613C175 606 119 614 119 591V589C121 589 123 592 128 592C130 592 132 592 135 590L151 578C157 573 160 570 160 566V563C160 558 162 555 165 555ZM440 576C428 576 414 588 414 600C414 603 418 623 433 623C447 623 464 605 464 597C464 593 457 576 440 576ZM316 573C311 573 287 577 287 593C287 603 300 618 313 618C323 618 336 608 336 600C336 597 334 573 316 573ZM576 573C563 573 551 583 551 595C551 608 564 618 577 618C587 618 596 612 596 599C596 588 592 573 576 573ZM700 562C692 562 677 567 677 583C677 596 687 609 698 609C707 609 721 599 721 584C721 572 712 562 700 562ZM827 529C829 529 830 531 830 536C830 545 844 565 855 580C861 589 866 596 866 598C866 601 862 602 857 602C852 602 844 601 836 599C827 598 818 596 811 596C803 596 797 598 797 604C797 606 795 606 794 606C792 606 789 604 789 602C789 595 798 572 803 572C807 572 805 588 815 588C821 588 829 583 829 573C829 567 825 563 819 563C815 563 812 564 811 564C810 564 809 564 809 563C809 554 822 529 827 529ZM839 582C835 582 833 584 833 587C833 592 838 594 844 594C846 594 848 594 848 593C848 587 844 582 839 582ZM372 299 317 300C262 302 261 302 261 306C261 318 271 335 282 352C292 369 303 386 305 401C305 404 338 419 338 441C338 463 318 476 302 476C289 476 278 468 278 452C278 442 286 431 292 431C295 431 297 434 297 437C297 442 291 449 291 455C291 459 294 462 305 462C317 462 320 459 320 441C320 426 310 414 296 414C292 414 250 431 250 467C250 471 253 518 281 534C297 543 306 547 315 547C339 547 358 523 362 513C364 509 365 491 365 472V460C365 406 370 388 370 377C370 359 346 347 346 335C346 332 347 330 347 326C347 325 353 318 359 312ZM472 299C395 299 387 300 385 306C382 316 362 319 362 332C362 340 371 355 383 355C395 355 397 340 397 335C397 330 396 327 393 327C385 327 392 348 385 348C382 348 374 344 374 336C374 329 379 320 390 320C396 320 411 320 411 342C411 351 406 357 398 361C387 366 386 370 384 396L382 420C393 414 399 411 410 411C428 411 448 438 448 455C448 471 443 494 421 495C409 495 392 478 392 465C392 454 401 441 409 441C411 441 413 442 413 445C413 454 405 456 405 463C405 471 416 476 420 476C427 476 431 467 431 457C431 437 417 423 407 423C405 423 380 428 380 462C380 484 393 522 403 531C412 540 425 547 438 547C456 547 475 537 489 510C495 499 497 462 497 431C497 406 496 386 496 386C493 375 470 357 470 350C470 338 483 320 494 316C503 313 506 311 506 308C506 299 493 299 476 299ZM540 300C523 300 519 301 519 304C519 305 520 305 520 306C520 311 513 316 506 321C498 327 488 334 488 343C488 349 495 359 507 359C514 359 521 355 521 348C521 345 519 339 518 339C515 339 511 350 505 350C502 350 500 348 500 344C500 335 510 330 519 330C530 330 533 342 533 349C533 359 529 366 521 370C513 374 513 375 513 399V422L527 421H532C559 421 578 439 578 464C578 484 568 491 558 491C539 491 526 474 526 466C526 464 528 462 530 462C540 462 537 477 550 477C557 477 562 472 562 463C562 455 553 436 538 436C521 436 511 455 511 479C511 522 544 544 566 544C573 544 580 542 588 539C615 527 617 509 617 470V443C617 381 616 372 606 372C605 372 588 362 588 348C588 329 616 314 616 306C616 303 604 300 540 300ZM650 298C631 298 630 298 630 306V310C630 318 621 330 615 330C612 330 604 336 604 346C604 355 610 362 620 362C631 362 638 356 638 346C638 342 637 339 636 339C632 339 628 351 623 351C621 351 621 350 621 347C621 343 624 328 636 328C649 328 650 341 650 349C650 377 633 355 633 400L632 423L644 421C650 419 656 419 661 419C679 419 682 426 685 426C692 426 699 444 699 461C699 488 684 495 673 495C654 495 642 473 642 468C642 462 648 451 652 451C655 451 658 456 659 466C660 482 660 482 671 482H673C677 482 685 480 685 463C685 452 679 430 657 430C637 430 633 453 633 454C633 456 634 456 634 458C634 462 630 466 630 472C630 474 631 477 633 480C638 484 634 505 642 516C647 523 678 542 683 542C718 526 721 528 731 507C737 496 740 486 740 478C740 446 719 410 719 408C719 401 711 399 711 384C711 372 720 356 728 341C735 329 742 317 742 309C742 302 740 298 650 298ZM282 252C275 252 260 268 260 275C260 279 265 288 268 288L282 284C295 281 296 280 296 272C296 261 289 252 282 252ZM715 264C708 264 698 272 698 276C698 281 713 284 724 284C731 284 732 282 732 280C732 276 722 264 715 264ZM309 202C305 202 302 205 302 209C302 217 312 228 312 231V233C312 234 315 238 315 244C315 255 310 270 310 275C310 278 354 281 359 281C374 281 376 279 376 276C376 266 356 260 356 245C356 234 367 218 383 218C396 218 405 231 405 239C405 247 401 252 397 258C393 263 389 269 389 276C389 283 393 283 405 283C405 283 505 282 505 268C505 263 486 252 486 241C486 232 504 218 515 218C525 218 533 230 533 240C533 255 520 257 520 268C520 280 551 283 577 283C609 283 617 282 617 274C617 265 600 259 600 246C600 235 615 219 632 219C645 219 650 230 650 236C650 250 630 263 630 272V274C631 279 633 280 657 280C674 280 676 279 676 275V273C676 263 669 259 669 248C669 237 672 222 672 222C672 219 683 206 683 203C683 202 680 202 675 202C668 202 658 202 646 203C628 203 606 204 585 204C567 204 542 203 499 203C462 203 433 204 412 204C399 205 389 205 382 205C361 205 360 202 359 202C356 202 354 207 335 207C313 207 311 202 309 202ZM626 228C620 228 614 234 614 246C614 253 615 256 618 256C620 256 624 253 626 253C627 253 627 254 627 254C629 254 635 250 635 241C635 234 631 228 626 228ZM511 229C507 229 500 234 500 241C500 248 506 252 512 252C517 252 521 249 521 243C521 239 518 229 511 229ZM381 227C374 227 369 232 369 237C369 243 374 251 383 251C390 251 396 245 396 239C396 232 387 227 381 227ZM138 162C149 162 169 170 174 178C175 181 176 187 176 192C176 200 175 207 173 207C171 207 170 209 170 211C170 218 152 228 140 228C123 228 107 203 107 195C107 180 113 162 138 162ZM229 182C219 182 209 192 209 202C209 211 216 217 227 217C239 217 242 210 242 200C242 193 239 182 229 182ZM854 139C856 139 878 162 878 166C878 167 877 168 876 168C875 168 873 167 870 167C867 167 863 168 857 173L841 188C836 193 833 193 833 196C833 199 839 204 839 212C839 214 838 216 837 216C834 216 824 205 824 201C824 199 807 182 807 176C807 175 808 174 809 174C811 174 812 178 818 178C829 178 854 159 854 151C854 148 852 144 852 141C852 140 853 139 854 139ZM759 179C749 179 742 189 742 196C742 206 753 213 763 213C772 213 778 206 778 197C778 188 769 179 759 179ZM138 173C132 173 125 181 125 190C125 204 138 211 148 211C158 211 167 206 167 196C167 192 144 173 138 173ZM495 35C375 35 284 105 280 105C279 105 269 116 259 128C247 143 233 159 230 160C228 161 227 163 227 165C227 168 229 171 234 171C247 171 254 188 263 188C265 188 267 186 267 182C267 176 265 176 265 150C265 131 266 128 273 120C280 112 286 109 293 109C308 109 332 135 332 143C332 150 316 165 310 165C307 165 283 160 283 140C283 134 284 129 285 129C291 129 296 134 296 141C296 151 303 155 309 155C313 155 316 151 316 145C316 132 303 118 291 118C282 118 277 124 277 141C277 148 278 155 280 163C286 186 285 188 341 188H369C481 188 690 184 695 181C697 180 697 179 697 176V174C697 164 700 164 700 158C700 143 683 124 673 124C665 124 654 141 654 152C654 157 657 161 663 161C667 161 673 160 673 154C673 146 675 143 679 143C682 143 686 148 686 151C686 159 672 171 663 171C654 171 638 156 638 147C638 132 658 115 674 115C680 115 686 118 686 120C686 122 688 123 689 123C691 123 713 137 713 157C713 161 713 166 712 169L710 183H720C737 183 737 170 769 166L751 148C741 138 731 129 729 129C727 129 725 128 725 126C725 116 640 62 618 58C605 56 557 35 495 35ZM462 -51C486 -51 497 -13 504 -13C505 -13 506 -14 507 -17C511 -28 531 -48 540 -48C545 -48 548 -47 548 -45C548 -39 539 -46 539 -16C539 1 540 4 545 5C549 6 551 8 551 9C551 11 547 13 541 13C529 13 528 11 528 4C528 -3 529 -10 529 -18C529 -23 529 -27 528 -27C524 -27 517 5 506 5C494 5 483 -33 479 -33C477 -33 476 -25 476 -16C476 9 483 4 483 6C483 9 470 11 461 11C456 11 452 11 452 9C452 8 455 6 458 5C463 4 464 1 464 -19C464 -40 463 -42 458 -42C455 -42 452 -44 452 -47C452 -50 455 -51 462 -51Z" fill="#f59e0b" stroke="none"/>
  </g>
</svg>