<svg xmlns="http://www.w3.org/2000/svg" viewBox="4 -115 992 989">
  <g transform="translate(0, 759) scale(1, -1)">
    <path d="M483 -85C607 -85 659 -58 704 -37C758 -11 771 5 778 5C781 5 784 6 784 7C784 11 822 28 900 141C922 173 953 263 953 263V272C953 283 956 294 959 305C962 317 966 330 966 345C966 392 956 472 956 472V474C956 478 953 479 953 482V485C953 493 945 524 943 527L931 559C914 599 871 667 842 696C817 722 789 743 784 749C776 759 705 800 696 800C694 800 634 830 574 840C558 843 532 844 504 844C473 844 439 842 416 839C324 825 226 764 226 757C226 756 224 755 222 755C213 755 139 680 139 673C139 667 127 668 127 661C127 658 126 656 124 656C120 656 85 598 85 598C85 597 82 589 78 580C69 561 61 536 55 518C51 505 48 495 46 494C40 490 34 426 34 376C34 300 44 254 76 186C86 165 94 148 94 147C94 132 172 38 217 10L261 -18C274 -27 283 -49 419 -79C422 -82 448 -85 483 -85ZM489 -80C487 -80 482 -76 458 -76C432 -75 429 -70 425 -70C423 -70 422 -71 421 -71C417 -71 415 -68 412 -68H408C405 -68 404 -64 399 -64C396 -64 396 -65 393 -65C389 -65 392 -62 378 -59C325 -50 278 -19 275 -19C271 -19 267 -13 229 12C204 28 138 94 121 119C95 158 63 234 63 236C63 241 54 262 54 265V270C54 274 51 274 51 276V280C51 284 47 285 47 291C47 293 48 295 48 297C48 298 48 299 47 300C45 301 43 354 43 398C43 462 49 458 49 463V469C49 473 50 481 56 494C63 511 59 506 62 517L74 548C96 604 127 650 152 677C192 721 254 773 265 773C271 773 301 794 305 794C306 794 315 798 327 803C369 823 410 837 511 837C569 837 587 827 593 827C596 827 598 828 600 828C602 828 604 827 608 825L628 817C628 817 699 795 758 755C779 740 873 663 918 563C922 555 944 496 944 492V483C944 473 947 476 947 471C947 470 946 468 946 466C946 462 950 464 950 459C950 456 949 453 949 450C949 447 951 435 953 422C955 406 958 388 958 383C958 361 955 316 952 314C948 312 948 285 945 282C944 280 943 278 943 276C943 275 944 273 944 271C944 270 944 269 942 268C939 266 939 249 933 232L921 202C912 178 896 149 886 135L859 100C834 68 822 52 796 31C710 -40 621 -58 611 -63C605 -67 577 -66 575 -70C574 -71 574 -72 573 -72C571 -72 569 -70 566 -70C565 -70 564 -71 562 -71C553 -75 536 -76 521 -76H516C504 -76 493 -76 491 -79C491 -80 490 -80 489 -80ZM499 -70C640 -70 725 -10 761 15C771 22 777 26 780 26C786 26 846 88 860 109C868 121 879 136 883 141C891 151 919 205 919 210C919 212 922 220 925 228C929 236 934 261 938 282C941 298 944 313 946 316C948 319 949 336 949 358C949 496 919 549 907 572C851 685 785 725 780 730C715 790 580 825 568 826C544 829 521 829 503 829C444 829 409 820 397 820C377 820 266 767 264 767C260 767 162 697 113 612C99 588 73 532 73 526C73 515 48 476 48 391C48 351 54 300 69 237C75 215 113 138 129 117C186 42 253 6 258 -1C262 -8 361 -70 499 -70ZM507 -59C469 -59 344 -48 254 19L220 43C204 54 179 78 153 110C93 181 63 306 63 320C63 323 65 321 65 327C65 337 62 357 62 386C62 424 68 480 100 553C125 611 144 643 189 687C221 719 259 749 266 749C267 749 279 756 294 764C371 810 425 811 428 816C428 817 430 817 430 817C432 817 436 814 446 814C458 814 458 817 505 817C605 817 614 797 622 797C636 797 702 768 729 751C867 664 916 519 916 519C916 517 918 510 921 504C930 484 937 394 937 346C937 322 935 317 933 309C930 302 928 294 924 271C911 194 842 99 800 62C682 -40 581 -50 539 -54C528 -55 521 -56 519 -58C519 -58 514 -59 507 -59ZM489 743C508 743 531 752 531 768C531 775 525 778 525 785C525 790 528 793 528 798C528 800 526 815 494 815C483 815 475 814 474 812C473 811 474 808 477 807C479 806 480 800 480 780C480 757 480 755 475 753C471 752 470 751 470 750C470 746 481 743 489 743ZM507 785C502 785 496 790 496 796C496 801 501 806 507 806C513 806 514 805 514 797C514 790 511 785 507 785ZM506 752C499 752 496 758 496 764C496 772 501 779 508 779C513 779 521 775 521 767C521 759 515 752 506 752ZM485 26C528 26 587 31 636 51C703 78 787 155 822 223C829 235 849 303 849 303V306C849 317 856 312 856 361C856 462 826 523 826 525C826 527 801 569 786 590C775 605 746 635 720 658C679 694 614 715 612 717C606 726 546 733 487 733C453 733 419 731 399 724C284 684 214 600 214 596C214 587 191 573 166 499C166 496 164 494 162 493C161 493 144 463 144 381C144 363 144 342 146 318C148 289 176 222 196 192L210 173C249 115 310 77 310 77C324 62 433 30 433 30C440 27 460 26 485 26ZM491 38C396 38 304 94 304 98C304 101 313 101 335 101H391C432 101 432 101 432 104C432 108 430 116 416 116C402 116 386 128 380 142C373 158 360 170 360 191C360 195 361 200 362 205C364 211 365 212 390 212C394 212 435 212 438 208C465 188 457 147 469 147C477 147 477 192 477 229C477 252 477 272 479 276C480 277 482 294 482 310C482 324 481 338 478 338C476 338 473 332 469 318C463 296 453 292 404 292L364 291L365 329C368 371 364 372 383 375C404 378 438 399 447 405C454 412 472 449 472 458C472 474 486 476 502 476H525L569 475V441C569 408 569 406 562 400C549 387 524 388 524 380C524 374 550 372 575 371C592 370 608 369 614 367C617 366 620 366 623 366C632 366 642 370 642 374C642 386 604 364 604 423C604 431 605 464 606 465C606 465 688 469 729 469C767 469 771 466 779 454C782 449 783 445 783 442C783 426 763 415 753 415C743 415 738 425 738 434C738 441 741 446 746 446C750 446 753 442 753 437C753 433 752 433 752 431C752 428 754 426 757 426C762 426 766 432 766 442C766 456 751 460 741 460C717 460 716 440 716 436C716 427 731 401 753 401C764 401 799 404 799 436C799 443 797 452 793 459L786 470L797 484C804 493 808 500 808 507C808 522 785 551 751 551C739 551 727 534 727 519C727 503 736 489 736 484C736 483 707 483 671 483L606 482C611 505 611 527 611 545C611 567 612 584 621 592C638 606 655 602 655 609C655 613 599 618 564 618C544 618 539 616 539 614C539 610 558 609 570 602L580 596L578 549C577 523 575 499 574 495C572 489 569 489 526 489C482 489 479 491 479 495C479 497 482 499 482 501C482 502 482 503 480 505C477 510 479 514 477 523L470 538C466 548 447 576 438 584C415 607 398 611 364 611C318 611 307 594 300 594C297 594 295 597 291 606C283 625 265 623 265 629C265 633 297 657 318 670C383 708 430 722 504 722C626 722 691 659 708 649C724 639 775 584 781 572C789 558 817 522 828 473L838 431C841 421 842 401 842 377C842 337 841 328 831 294C817 247 805 225 805 223C805 223 803 213 769 170C748 144 728 129 705 111L677 89C641 60 543 38 491 38ZM265 569C256 569 239 577 239 588C239 598 247 609 259 609C270 609 280 597 280 589C280 580 271 569 265 569ZM303 494C283 494 263 496 263 515C263 528 277 545 277 554C277 559 317 596 335 596C340 596 345 593 350 588L357 580V494ZM442 492C436 492 422 493 396 493L370 494V557C370 575 372 594 390 594C418 594 460 534 460 513C460 510 459 492 442 492ZM209 199C206 199 156 267 156 382C156 443 170 492 175 493C177 494 178 496 178 499C178 504 211 575 220 575C227 575 230 560 245 560C254 560 257 558 257 553C257 550 243 514 242 514C239 514 234 525 221 525C206 525 179 510 179 487C179 476 188 454 213 454C227 454 232 457 236 457C243 457 251 436 251 430C251 426 248 425 241 425C227 425 215 407 215 390C215 365 242 351 249 351C265 351 259 348 265 348C273 348 292 358 292 376V387L303 385C319 381 314 378 337 375L354 372V344C353 316 351 294 349 291C348 290 330 290 310 290C284 290 255 290 251 292C237 297 236 306 234 316C232 323 231 331 225 340C224 342 223 343 221 343C213 343 211 299 208 299C207 299 207 298 207 296C207 289 212 269 212 227C212 205 211 199 209 199ZM315 506C325 506 340 523 340 532C340 545 327 554 313 554C305 554 288 550 288 533C288 521 299 506 315 506ZM413 502C426 502 435 514 435 525C435 539 422 553 406 553C395 553 382 544 382 532C382 518 397 502 413 502ZM313 519C305 519 300 528 300 530C300 534 309 542 315 542C320 542 324 537 324 530C324 523 319 519 313 519ZM410 516C402 516 397 521 397 526C397 531 403 539 409 539C416 539 421 531 421 525C421 520 418 516 410 516ZM768 483C755 483 749 499 749 512C749 526 756 533 768 533C781 533 786 521 786 510C786 496 779 483 768 483ZM219 470C208 470 197 477 197 485C197 497 213 505 223 505C231 505 238 498 238 490C238 482 231 470 219 470ZM330 392C306 392 260 427 260 466C260 478 266 481 295 481C310 481 326 479 334 479H354V404C347 399 341 392 330 392ZM384 390C382 390 379 391 374 396C367 403 367 406 367 442V480L404 479C440 478 457 473 457 460C457 429 411 394 397 394C396 394 396 395 395 395C391 395 389 390 384 390ZM310 419C320 419 331 426 331 440C331 465 308 467 308 467C308 467 283 466 283 446C283 428 297 419 310 419ZM402 415C407 415 426 423 426 436C426 442 418 464 401 464C389 464 376 454 376 442C376 429 396 415 402 415ZM310 431C299 431 292 441 292 442C292 445 300 454 305 454C308 454 310 452 312 452C315 452 318 446 318 441C318 436 316 431 310 431ZM399 426C396 426 389 436 389 441C389 443 396 452 401 452C407 452 411 447 411 442C411 432 401 426 399 426ZM79 353C84 353 77 363 100 363C127 363 125 355 129 355C131 355 133 359 133 368C133 377 131 382 127 382C123 382 122 377 114 377C107 377 104 381 104 383C104 389 133 389 133 413C133 421 129 428 122 428C120 428 118 427 118 427C118 424 124 416 124 411C124 404 104 402 104 402C100 402 93 410 85 410C79 410 70 406 70 387C70 371 75 353 79 353ZM924 338C924 338 925 346 925 355C925 366 925 370 924 370C922 370 917 362 908 362C898 362 878 376 878 383C878 391 893 395 903 395C920 395 917 386 921 386C924 386 925 392 925 404C925 415 923 422 921 422C915 422 924 413 902 413C873 413 865 388 865 380C865 370 892 354 900 352C913 349 921 338 924 338ZM257 365C245 365 232 374 232 387C232 399 248 412 255 412C260 412 276 401 276 389C276 380 271 365 257 365ZM86 378C82 378 79 384 79 388C79 394 82 396 85 396C89 396 94 390 94 384C94 381 92 378 86 378ZM360 225 362 274C377 276 395 277 410 277C446 277 453 271 460 256L466 243L444 225ZM349 224 300 225C256 226 250 226 244 232C236 238 231 247 231 254C231 260 234 276 266 276C277 276 291 275 309 275H349C349 270 350 265 350 255V241ZM285 116C266 116 246 155 241 155C241 155 226 167 226 181C226 196 254 214 260 214C265 214 270 212 307 212H349L351 195V188C351 156 307 116 285 116ZM494 -51C502 -51 529 -49 529 -46C529 -44 524 -48 524 -29C524 -1 531 3 531 7C531 9 524 9 496 9H487C473 9 466 8 466 -4C466 -10 468 -12 469 -12C472 -12 490 2 502 2C509 2 511 -3 511 -8C511 -12 509 -15 506 -15C501 -15 496 -5 494 -5C490 -5 488 -23 488 -27C488 -32 489 -34 492 -34C497 -34 501 -25 505 -25C507 -25 508 -27 508 -31C508 -41 501 -43 497 -43C485 -43 479 -28 473 -28C471 -28 469 -31 469 -37C469 -46 477 -51 494 -51Z" fill="#f59e0b" stroke="none"/>
  </g>
</svg>