<svg xmlns="http://www.w3.org/2000/svg" viewBox="-50 -50 1100 1100">
  <g transform="translate(0, 1000) scale(1, -1)">
    <path d="M511 -91C544 -91 571 -88 577 -84C577 -84 653 -73 740 -24C831 26 899 141 902 143C908 147 938 222 938 232C938 234 939 239 941 244C951 269 945 274 950 276C951 277 951 278 951 280V288C951 294 955 294 955 303V308C955 309 963 338 963 345C963 350 961 357 961 361C961 363 963 362 963 372C963 397 957 456 956 456C955 456 953 468 952 476C952 484 948 487 948 490C948 493 952 492 952 495C952 498 947 502 945 511C941 541 871 714 729 787C708 798 685 809 683 809C679 809 684 818 593 841C590 841 588 840 586 840C582 840 584 844 578 844C575 844 572 843 569 843C567 843 565 843 565 844C563 848 536 845 534 848C534 849 533 850 532 850C529 850 525 847 522 847C518 847 518 850 514 850L510 849C505 849 503 853 499 853C495 853 492 849 477 849C458 849 432 846 422 843C370 830 279 819 175 715C155 695 87 633 58 521C53 502 45 495 45 494C48 494 43 487 43 485V482C43 478 37 479 37 375C37 330 38 287 42 285C45 283 42 280 42 279C42 276 47 272 47 269C47 268 46 268 46 266C46 262 52 247 52 245C51 245 51 243 53 241C62 230 105 51 290 -41C304 -48 363 -91 511 -91ZM516 -82C408 -82 363 -61 351 -58C317 -48 203 10 146 89L119 125C100 151 104 161 98 166C85 173 48 280 47 312C47 318 42 319 42 320C42 322 47 325 47 332C47 338 44 345 44 392C44 459 53 483 61 506C63 513 66 520 68 528C77 563 109 628 130 652C136 660 225 756 279 783C286 787 293 791 300 794C314 802 326 809 333 809C338 809 419 841 486 841C572 841 677 810 677 803C677 802 699 791 702 791C706 791 759 758 776 745C840 696 849 672 865 651C897 607 938 524 938 494C938 486 940 478 942 468C947 449 953 422 953 367C953 344 952 322 948 310C946 303 944 294 942 285C934 254 925 213 902 168C889 143 852 83 847 82C845 82 775 5 724 -22C701 -35 594 -82 516 -82ZM499 -74C544 -74 595 -69 642 -51C649 -48 655 -46 662 -44C681 -38 702 -32 744 -3C832 57 880 140 885 145C896 158 926 232 926 247C926 255 932 250 936 285C938 304 941 310 942 315C945 322 947 327 947 370C947 407 944 426 940 447C938 460 936 474 934 492C927 552 860 646 853 659C827 707 692 825 526 831C495 832 510 835 501 835C409 835 333 800 327 800C316 800 259 764 259 764C251 764 189 710 170 687C163 678 155 671 153 671C150 671 116 623 116 619C116 619 49 513 49 388C49 356 52 351 52 335C52 323 49 324 49 322C49 318 53 308 62 269C88 161 152 90 152 87C152 85 165 71 180 57C229 11 275 -26 377 -61C377 -61 431 -74 499 -74ZM510 -60C424 -60 413 -56 344 -35C335 -33 326 -28 322 -25C319 -22 312 -19 303 -14C277 1 230 26 185 71C164 93 125 146 125 152C125 154 122 161 117 168C103 190 79 254 71 290C67 311 65 344 65 398C65 470 82 508 92 529C96 538 99 543 99 548C99 557 107 558 107 567C107 574 135 628 148 644C170 671 232 729 256 744C337 798 411 819 497 819C635 819 695 772 707 766C790 723 849 650 849 644C849 644 914 545 919 493C920 479 923 466 926 452C931 430 936 406 936 375C936 224 843 96 828 96V99C828 104 839 110 839 119C839 123 834 140 812 140C807 140 801 139 797 139C793 139 792 141 792 142C792 145 800 149 807 149H814C818 149 820 150 820 151C820 156 809 167 804 167C802 167 800 166 800 163C800 157 779 146 779 134C779 125 789 119 806 119C809 119 812 120 816 120C823 120 826 119 826 116C826 109 806 111 806 106C806 103 809 100 816 94L826 86L799 60C719 -16 669 -27 664 -29C596 -53 564 -60 510 -60ZM521 743C526 743 530 749 530 759C530 765 538 771 538 774C538 775 536 776 527 776H518L499 775C508 766 511 764 511 761C511 757 506 757 504 757C494 757 494 762 494 768C494 797 498 801 504 801C518 801 515 784 523 784C527 784 530 790 530 800C530 811 527 814 524 814C520 814 514 810 509 810C505 810 503 813 499 813C485 813 470 780 470 773C470 773 475 749 500 748C519 748 513 743 521 743ZM508 19C598 19 684 69 701 82C742 111 793 170 812 210C842 274 854 335 854 367C854 541 759 632 725 656C720 659 716 664 716 666C716 669 708 673 699 679C691 683 683 688 679 692C669 702 607 738 470 738C434 738 341 702 341 701C341 699 337 697 332 696C319 693 276 664 255 643C205 594 173 526 173 515C173 512 172 509 171 509C165 509 144 447 144 389C144 298 166 226 225 151C229 135 289 85 338 56C359 43 435 19 508 19ZM513 35C443 35 369 46 305 95C301 95 291 110 285 110C283 110 281 111 281 113C281 115 278 117 275 118C270 120 245 143 245 147C245 148 248 149 253 149C274 149 290 166 290 183C290 204 262 211 262 211C252 211 241 199 241 190C241 184 246 177 248 177C254 177 256 197 267 197C272 197 277 190 277 185C277 176 268 168 257 168C244 168 230 179 230 194C230 214 253 237 267 237C275 237 270 232 278 232C283 232 295 218 307 197C328 161 341 152 366 152C395 152 404 182 404 193C404 212 389 224 379 224C372 224 368 220 366 220H364C359 220 345 204 345 198C345 196 347 188 353 188C355 188 359 191 359 195C359 200 368 210 371 214L380 204C385 198 388 195 388 192C388 190 383 168 365 168C348 168 326 189 325 197C324 201 308 235 272 250L260 255L262 308C264 344 265 373 265 395C266 431 267 449 271 450C275 452 301 453 316 453C320 453 323 454 325 454C336 454 336 447 336 380V370C336 323 334 318 324 318C322 318 299 304 299 285C299 271 317 257 321 257C324 257 326 256 326 255C326 253 331 248 338 248C352 248 374 265 374 276C374 302 346 315 346 319C346 321 350 323 350 327C350 329 349 331 349 333C349 339 360 341 412 341C431 341 433 340 433 336C433 323 428 315 421 311C411 306 396 286 396 279C396 278 398 276 398 269C398 264 406 248 424 248C453 248 466 262 466 278C466 292 457 307 441 316V318L443 329L447 342L494 340C544 337 544 337 544 331C544 320 536 315 528 310C519 304 509 297 509 281C509 264 524 248 530 248C537 248 536 243 541 243C552 243 581 259 581 282C581 293 576 297 571 303C564 310 557 318 554 338H588C611 338 624 340 630 340C635 340 635 338 635 331V329C635 318 634 317 623 310C608 300 601 287 601 276C601 253 629 248 637 248C652 248 671 268 671 283C671 307 649 310 649 316C649 321 653 316 653 365C653 388 652 413 652 431V444C652 454 653 454 658 454H660C666 454 675 454 687 453L718 450L717 395C715 263 710 240 700 240C697 240 696 241 696 241C692 241 662 220 644 203C619 181 603 170 590 170C576 170 563 188 563 192C563 198 574 208 582 208C586 208 590 204 590 195V190C590 183 591 180 594 180C598 180 605 192 605 202C605 215 596 220 594 220C592 220 586 223 583 223C574 223 548 213 548 194C548 173 558 178 558 170C558 170 565 156 587 156C614 156 627 170 647 188C664 203 683 215 687 215C692 215 695 220 698 220C700 220 705 223 710 223C716 223 723 219 727 219C729 219 729 220 729 220C732 220 733 216 735 216C736 216 737 217 738 217C743 217 749 204 749 193C749 177 734 162 720 162C711 162 699 170 699 182C699 186 700 194 707 194C719 194 714 176 720 176C722 176 729 181 729 190C729 198 721 207 709 207C695 207 684 194 684 179C684 159 703 146 724 146C749 146 768 165 768 192C768 212 755 233 735 239L726 242L727 274C728 311 729 350 729 381C729 391 729 399 730 408C730 434 730 452 732 453C735 457 796 452 796 501C796 523 778 541 752 541C737 541 739 537 735 537C733 537 732 541 730 541C727 541 728 537 722 537C717 537 711 539 707 539C702 539 698 537 698 529C698 522 702 526 707 526C717 526 719 514 719 501C719 485 715 468 715 468C715 467 711 467 706 467C695 467 678 468 670 468H664C660 468 651 471 651 476C651 480 655 482 655 485C655 488 652 489 652 492C652 492 672 521 676 521C678 521 685 526 685 530C685 537 673 542 665 542C657 542 658 537 655 537C653 537 650 540 647 540C646 540 646 538 640 538H624C614 538 610 535 610 533C610 524 640 512 640 492C640 468 637 467 602 467H558V480C558 489 559 495 570 507C596 538 597 509 600 539H560C521 539 503 534 503 527C503 525 511 521 518 521C518 521 545 517 545 495C545 492 544 489 544 485V466H521L473 467H446V482C446 495 447 498 459 511C468 520 475 524 479 524C485 524 496 528 496 533C496 538 487 540 479 540C475 540 460 538 431 538H417C403 538 399 537 399 530C399 518 406 528 425 512C434 504 436 502 436 493C436 491 435 488 435 484L434 467H394C372 467 354 468 353 469V483C355 512 391 525 391 532C391 538 367 539 347 539C337 539 328 539 325 540C324 541 323 541 322 541C317 541 312 536 312 531C312 526 315 526 317 526C320 526 339 507 339 498C339 495 337 494 337 492C337 490 340 489 340 487C340 484 337 484 337 481C337 479 339 478 339 475C339 473 335 466 330 466C327 466 319 468 297 468L268 469L269 492C270 512 274 526 279 526C282 526 281 525 285 525C291 525 299 526 299 534V542H258C230 542 186 539 186 484C186 463 202 452 236 452H252L250 359L248 260V258C248 247 229 242 216 215L207 197L197 217C166 283 160 308 160 383V392C160 480 186 508 186 514C186 515 191 525 197 536C204 549 212 565 212 568C212 572 295 665 306 665C307 665 309 666 309 668C309 670 310 671 312 671C315 671 322 675 333 680C364 696 423 725 488 725C504 725 517 723 527 722C604 716 627 695 635 695C654 695 690 662 694 662C700 662 698 653 705 653C708 653 710 651 710 650C710 649 713 646 715 645C723 643 768 599 768 594C768 592 769 590 771 590C771 590 773 588 773 585C773 578 782 579 782 573C782 570 783 569 785 569C787 569 788 567 788 565C788 563 790 560 791 560C793 560 794 559 794 557C794 555 800 542 807 527C815 511 823 495 823 492C823 491 822 491 822 489C822 480 839 447 839 377C839 304 827 315 827 298C827 288 804 214 794 207C787 202 779 176 776 176C774 176 773 174 773 172C773 169 771 167 771 167C769 167 768 165 768 163C767 159 712 107 707 107C706 107 704 106 704 104C704 103 699 99 693 97C680 91 678 82 674 82H672C666 82 634 62 632 62C614 62 600 35 513 35ZM186 578C191 578 206 594 206 600C206 601 205 602 203 602C201 602 200 601 198 601C191 601 187 610 179 612C175 613 173 616 173 619C173 620 175 622 177 622C181 622 191 618 214 618C220 618 225 618 225 619C225 622 217 628 209 635C199 642 190 649 190 653C190 654 192 663 192 666C192 668 191 670 189 670C187 670 183 667 178 662L169 652L179 645C185 640 188 637 188 635C188 633 186 632 181 632C173 632 169 634 161 634C150 634 146 630 146 622C146 619 147 617 150 617C153 617 184 600 184 587V581C184 579 184 578 186 578ZM830 575C835 575 840 576 841 578C843 582 848 579 850 579C854 579 857 583 860 583C864 583 864 578 871 578C873 578 875 579 875 581C875 586 863 602 860 602C854 602 868 585 824 585C812 585 810 589 810 598C810 606 830 620 840 620C843 620 844 618 847 618C848 618 848 619 848 620C848 624 837 644 833 644C829 644 827 631 815 626C805 622 799 611 799 601C799 585 810 575 830 575ZM236 467C225 467 200 469 200 483C200 499 209 525 222 525C227 525 229 522 232 522C236 522 236 525 244 525C255 525 257 523 257 520C257 515 254 506 254 486V467ZM736 471C731 471 731 471 731 477C731 482 732 489 732 498L734 524C736 524 740 525 744 525C761 525 778 520 778 500C778 483 760 471 736 471ZM614 354C566 354 556 356 556 359C556 360 557 382 557 407L558 451L593 453C609 454 618 454 623 454H631C638 454 640 431 640 406V386C640 354 638 354 616 354ZM393 354C352 354 350 355 350 361V363C350 377 351 400 352 418C353 428 353 437 353 440L354 451L390 452C406 453 421 453 427 453H429C433 453 433 452 434 404L435 357C422 355 406 354 393 354ZM521 355 473 356H446V411C446 448 446 453 463 453C522 453 540 450 542 448C544 445 545 435 545 414V400L544 355ZM637 266C628 266 622 275 622 282C622 293 631 302 641 302C646 302 654 296 654 287C654 277 646 266 637 266ZM551 261C551 261 527 263 527 278C527 287 537 299 546 299C552 299 561 295 561 276C561 266 558 261 551 261ZM334 267C328 267 320 276 320 284C320 291 326 296 336 296C344 296 353 288 353 280C353 270 337 267 334 267ZM431 263C421 263 416 267 416 279C416 291 420 296 433 296C447 296 449 287 449 280C449 272 441 263 431 263ZM170 122C188 122 201 137 201 152C201 168 188 179 171 179C140 179 139 151 139 151C139 146 151 122 170 122ZM162 136C155 136 150 141 150 147C150 156 168 167 180 167C188 167 190 162 190 159C190 152 175 136 162 136ZM509 -54C513 -54 516 -53 516 -49C516 -44 501 -46 501 -35C501 -28 505 -26 505 -22C505 -19 503 -16 503 -11C503 0 515 5 515 7C515 8 487 11 487 11C481 11 479 8 479 6C479 2 488 3 488 -16C488 -40 475 -40 475 -47C475 -50 479 -51 483 -51H489C494 -51 503 -54 509 -54Z" fill="#f59e0b" stroke="none"/>
  </g>
</svg>