<svg xmlns="http://www.w3.org/2000/svg" viewBox="5 -121 990 1002">
  <g transform="translate(0, 760) scale(1, -1)">
    <path d="M486 -91C525 -91 562 -84 562 -84C564 -84 565 -79 573 -79H578C586 -79 589 -76 591 -76C592 -76 592 -77 593 -77C596 -77 619 -67 635 -65C676 -60 781 3 844 66C851 70 896 130 896 134C898 140 902 147 907 158C927 194 965 263 965 392C965 489 924 566 924 576C924 584 884 663 784 754C761 774 711 802 670 817C640 827 637 833 633 833C628 833 604 844 600 844H598C575 844 575 851 487 851C394 851 412 843 394 842C379 842 309 815 304 814C288 811 277 800 274 800C272 800 263 794 251 786L228 771C203 755 196 750 172 724C142 692 128 676 128 672C128 670 125 666 122 663C115 656 101 629 90 608C84 596 79 586 77 584C74 581 49 511 49 511C49 509 50 507 50 505C50 501 46 503 46 498C46 496 47 494 47 492C47 490 46 489 45 487C41 482 42 451 38 449C37 449 35 415 35 377C35 349 36 318 41 298L52 248C63 192 94 143 111 117L122 98C131 78 146 70 146 63C146 61 147 59 148 59C154 59 193 12 259 -23C277 -33 317 -68 452 -88C464 -90 476 -91 486 -91ZM495 -81C416 -81 322 -46 322 -46L303 -38C296 -35 290 -32 290 -30C290 -26 212 0 146 81C111 124 74 199 74 208C74 210 73 213 72 214C67 216 40 313 40 389C40 395 53 505 64 529C67 549 112 638 117 638C118 638 119 640 119 642C119 644 127 655 136 668C216 782 332 812 339 817C343 820 349 822 358 824C366 827 376 829 387 834C390 836 426 841 426 842C426 844 450 845 480 845C598 845 597 831 603 831C604 831 605 832 607 832C611 832 615 827 618 827C619 827 619 829 621 829C623 829 628 824 630 824C631 824 631 825 632 825C636 825 647 817 650 817C650 817 735 784 774 749L798 729C814 715 858 666 877 641C894 618 927 549 927 543C927 541 957 482 957 385C957 308 938 202 862 102C812 35 685 -46 670 -46C663 -46 641 -58 635 -58C633 -58 634 -57 632 -57C627 -57 615 -64 607 -64H605C603 -64 596 -68 594 -68C594 -68 552 -81 495 -81ZM485 -71C518 -71 580 -64 611 -56L646 -45C676 -36 842 38 907 192L924 232C937 261 948 305 948 395C948 472 932 510 918 543C913 554 909 565 905 576C896 605 825 714 733 770C663 813 642 807 642 813C642 818 570 837 469 837C424 837 378 829 284 785C143 720 98 584 92 584C91 584 90 582 90 580C90 571 49 526 49 390C49 262 102 153 110 148C112 147 113 144 113 142C113 126 198 26 211 26C212 26 220 21 229 13C254 -6 264 -7 283 -18C358 -66 485 -71 485 -71ZM486 -58C459 -58 462 -56 455 -56C452 -56 450 -57 448 -57C443 -57 448 -52 432 -52H427C413 -52 413 -49 410 -49C406 -49 404 -51 402 -51C401 -51 400 -50 399 -49C398 -47 399 -49 354 -35C291 -16 287 -1 281 -1C276 -1 235 25 215 40C199 53 182 72 145 117C127 139 88 217 84 241C79 268 74 274 74 279V283C74 288 69 288 69 292C69 294 70 295 70 295C70 299 68 310 67 321C64 335 62 350 62 358C62 441 80 517 80 517C82 519 86 531 91 544C96 560 103 579 108 587C115 597 120 607 125 616C146 651 165 683 227 734C245 749 289 775 296 775C297 775 300 773 305 777C311 782 346 800 350 800C354 800 360 802 369 805C392 812 432 825 489 825C540 825 580 816 591 816C604 816 660 791 663 791C665 791 710 770 718 765C775 729 838 667 877 607C877 607 937 502 937 401C937 249 902 230 902 211C902 202 891 193 891 187C891 178 824 50 685 -15L643 -34C639 -36 633 -37 628 -37C619 -37 619 -42 616 -42C615 -42 614 -41 614 -41C605 -41 589 -51 586 -51C584 -51 582 -50 580 -50C576 -50 577 -54 574 -54C572 -54 570 -53 566 -53C559 -53 543 -58 486 -58ZM496 748C504 748 525 755 525 766C525 774 512 782 501 790C491 796 483 801 483 805C483 807 486 810 490 810C500 810 517 789 521 789V807C521 818 521 820 520 820C518 820 514 816 495 816C475 816 470 802 470 798C470 791 481 785 491 780C500 775 509 771 509 765C509 761 504 756 499 756C487 756 473 779 467 779C465 779 465 777 465 773C465 763 462 757 462 754C462 753 462 752 464 752C466 752 470 754 474 754C482 754 486 748 496 748ZM492 24C527 24 587 34 616 46C633 53 643 56 649 58C657 60 661 61 668 66L701 90C770 139 817 213 835 265C846 299 853 348 853 390C853 479 812 539 812 549C812 549 785 606 744 643L725 660C692 689 648 705 642 711C618 733 518 742 468 742C424 742 359 721 319 696C300 684 285 680 278 674L256 653C236 635 174 558 174 542C174 539 172 536 171 534C164 527 138 453 138 373C138 283 184 197 195 182L210 162C219 151 264 110 265 110C266 110 273 104 281 96C360 24 461 33 461 26C461 25 474 24 492 24ZM492 35C487 35 482 35 479 36L448 41C368 54 317 86 305 94C239 142 183 226 183 235C183 240 180 249 175 262C165 289 150 331 150 378C150 449 179 542 217 589C234 609 292 667 295 667C303 667 371 729 492 729C563 729 632 704 635 698C639 693 658 687 670 680L697 662C716 649 779 590 779 583C779 571 796 574 834 453C837 444 839 414 839 385C839 368 838 353 837 340C828 253 801 231 801 226C801 221 766 159 720 120L696 101C664 73 549 35 492 35ZM491 42C509 42 542 57 542 86C542 97 538 108 538 113C538 118 540 121 545 121C565 124 632 141 659 177C699 230 700 244 704 301L707 337L711 380H767C767 379 773 351 802 351C819 351 830 365 830 385C830 402 819 419 804 419C794 419 775 408 769 400C765 395 765 391 718 391C711 391 708 392 708 399C708 401 708 402 709 405L711 416H727C736 416 743 417 743 418C743 419 736 429 727 439C710 459 709 458 708 479L707 500H725C764 500 771 465 777 465C782 465 783 490 783 521C783 537 782 541 781 541C779 541 771 535 764 529C748 515 747 515 728 515H707L708 536C709 548 710 559 712 560C717 564 720 577 732 583C740 587 743 589 743 590C743 594 735 596 697 596C671 596 659 595 659 592C659 592 695 569 695 535C695 534 694 533 694 532V517L677 516H669C648 516 637 548 627 548C625 548 623 548 623 547C623 547 621 516 621 492C621 479 621 467 624 467C631 467 638 488 642 488C649 488 650 500 673 500C675 500 676 500 678 499H694V479C695 476 695 473 695 470C695 441 662 424 662 421C662 413 698 418 698 410C698 408 692 408 692 401C692 393 688 390 672 390C666 390 656 391 645 391C624 392 596 394 564 394C549 394 537 393 527 393C509 393 500 395 500 403C500 421 512 422 519 422H521C527 422 538 423 538 426C538 432 506 454 505 469C504 479 500 485 500 490C500 496 505 500 526 500C546 500 565 467 574 467C578 467 581 492 581 514C581 528 580 549 574 549C571 549 567 545 558 533L542 515H500V534C500 579 540 593 540 602C540 604 527 604 513 604C495 605 476 604 465 607C462 608 460 608 458 608C456 608 455 607 455 605C455 597 468 595 472 583C478 565 490 568 490 537V517H473C448 518 441 520 427 535C420 542 413 547 411 547C408 547 407 509 407 499C407 486 408 468 410 468C420 468 437 502 461 502C473 502 491 498 491 482C491 466 476 444 454 426L465 424C489 420 490 424 490 407V394H445C399 394 384 397 377 397C368 397 368 393 332 393C300 393 300 394 300 401C300 403 301 407 301 410L303 422H322C335 422 342 424 342 426C342 428 300 445 300 486C300 499 300 501 329 501C348 501 365 470 373 470C376 470 379 507 379 531C379 549 378 554 375 554C371 554 367 543 353 529C339 515 338 515 320 515C305 515 301 516 301 528C301 588 341 591 341 599C341 606 282 607 266 607C261 607 259 605 259 603C259 598 272 586 272 581C272 573 288 571 288 541C288 528 285 519 285 519C285 518 281 518 275 518C249 518 247 518 231 532C222 539 216 549 216 551C216 553 213 554 210 554C204 553 202 528 202 506C202 486 204 467 206 467C208 467 216 475 225 484C238 497 240 502 274 502C280 502 285 502 285 501C286 500 289 493 289 484C289 449 256 436 256 427C256 424 259 423 264 423C270 423 274 425 279 425C287 425 288 416 288 410C288 403 287 399 284 398H265C250 398 233 398 228 395C222 395 217 404 217 408C217 411 203 426 188 426C166 426 152 402 152 386C152 375 159 354 187 354C195 354 198 356 210 368L224 383H285L283 366C281 352 281 339 281 326C281 243 310 194 323 194C325 194 326 192 326 191C326 186 357 155 362 155C367 155 391 137 401 137C406 137 411 129 426 129H434C436 129 438 129 438 128C438 126 442 125 449 125C456 125 461 124 461 122C461 117 444 106 444 88C444 76 451 68 452 68C454 68 455 67 455 66C455 61 469 42 491 42ZM149 527C157 527 172 556 172 562C172 564 171 565 169 565C165 565 164 562 159 562C148 562 127 576 127 585C127 590 129 593 124 593C122 593 119 592 118 591C110 577 105 568 105 565C105 564 107 564 107 564C111 564 111 568 115 568C115 568 148 545 148 537C148 534 147 533 147 530C147 528 148 527 149 527ZM852 494C854 494 854 495 854 496C854 499 853 503 853 507C853 515 887 529 890 529C896 529 899 522 901 522C902 522 902 523 902 526C902 534 892 557 888 557C886 557 885 554 885 550C885 538 854 528 843 528C841 528 840 529 840 529C840 531 838 533 836 533C835 533 834 531 834 529C834 523 843 494 852 494ZM185 366C175 366 167 377 167 389C167 408 178 411 184 411C193 411 202 399 202 387C202 374 191 366 185 366ZM804 365C789 365 783 372 783 381C783 393 793 406 803 406C812 406 818 395 818 385C818 374 812 365 804 365ZM519 134C409 134 371 180 366 185C354 195 325 233 325 235C325 240 299 272 299 346C299 378 300 383 315 383C320 383 328 382 337 382C354 382 379 382 379 379C379 376 369 364 369 352C369 330 401 316 417 316C436 316 449 338 449 354C449 365 444 374 444 379C444 382 446 383 453 383C470 383 459 380 480 380C490 380 504 381 518 381C531 382 544 382 553 382C562 382 565 381 565 379C565 375 554 366 554 349C554 328 571 314 592 314C603 314 633 320 633 355C633 375 627 373 627 377C627 380 630 382 633 382H635C638 381 648 381 659 380C673 380 688 380 690 377C692 376 693 370 693 360C693 219 607 134 519 134ZM410 335C393 335 389 349 389 353C389 359 398 376 403 376C406 376 408 379 413 379C417 379 435 370 435 358C435 353 433 335 410 335ZM591 329C576 329 569 340 569 351C569 363 578 376 592 376C604 376 618 367 618 354C618 342 607 329 591 329ZM249 35C250 35 251 36 251 38L250 46C250 59 273 76 280 76C281 76 284 75 286 75C288 75 289 76 289 77C289 84 271 102 262 102C260 102 259 101 259 98C259 94 262 93 262 90C262 83 255 79 247 72L250 83C252 91 252 98 252 103C252 114 249 119 238 119C232 119 229 117 229 115C229 109 241 117 241 104C241 95 235 81 228 81C221 81 213 72 213 65C213 54 246 35 249 35ZM499 60C487 60 466 70 466 88C466 99 471 115 493 115C515 115 527 100 527 85C527 69 512 60 499 60ZM727 23C731 23 736 27 744 34C751 39 759 45 771 53L782 61L775 72C772 78 769 82 767 82C765 82 764 79 764 75V71C764 68 761 60 758 55L751 46C741 69 732 72 732 77C732 82 739 85 739 89C739 90 739 90 737 90C729 90 710 72 710 68C710 67 711 67 712 67C716 67 723 69 724 69C729 69 739 47 739 41C739 38 738 37 734 37C729 37 717 44 713 44C710 44 710 42 710 38C710 33 720 23 727 23ZM232 58C229 58 229 60 229 62C229 67 231 71 235 71C239 71 241 68 241 66C241 62 236 58 232 58Z" fill="#f59e0b" stroke="none"/>
  </g>
</svg>