<svg xmlns="http://www.w3.org/2000/svg" viewBox="-50 -50 1100 1100">
  <g transform="translate(0, 1000) scale(1, -1)">
    <path d="M500 -85C601 -85 666 -62 752 -15C812 18 880 97 880 104C880 106 968 208 968 374C968 476 935 578 872 661C850 691 840 708 777 755C761 768 691 807 687 807C679 807 611 846 500 846C400 846 282 817 189 731C152 696 121 661 121 654C121 650 116 652 102 628L87 604C84 599 32 496 32 382C32 249 88 159 111 123C117 113 121 107 121 105C121 104 127 96 135 88L170 51C192 28 303 -85 500 -85ZM492 -77C386 -77 292 -36 227 12C207 26 150 82 138 99C62 202 42 288 42 400C42 434 49 527 115 632C197 760 355 839 479 839C513 839 562 836 578 833C792 787 916 633 952 465C957 442 959 408 959 375C959 334 956 293 949 274C938 243 904 66 700 -33C630 -67 579 -77 492 -77ZM499 -68C600 -68 704 -35 800 41C850 81 907 165 929 233C942 274 953 340 953 381V395C943 512 916 583 845 671C781 750 654 830 496 830C432 830 378 818 354 809L323 796C161 731 49 564 49 382C49 131 254 -68 499 -68ZM501 -58C341 -58 229 30 185 78L163 101C163 101 62 210 62 376C62 430 72 485 81 512C92 545 121 607 142 636C168 674 233 735 271 756C323 785 400 820 488 820C747 820 941 620 941 381C941 257 884 151 874 151C873 151 873 152 871 152C869 152 868 150 864 150C855 150 830 171 830 180L831 187C831 188 830 189 830 189C826 189 792 149 792 141C792 137 798 131 802 131C804 131 806 134 806 140C806 151 812 165 817 165C824 165 853 140 853 134C853 131 854 129 854 129C856 129 859 132 865 137L875 146L869 137C823 66 729 0 719 0C714 0 639 -58 501 -58ZM482 744C503 744 522 746 522 762C522 768 516 773 516 781C516 787 519 790 519 796C519 806 507 810 490 810C483 810 458 808 458 806C458 805 470 803 470 774C470 749 458 748 458 746C458 744 465 744 482 744ZM485 783C482 783 481 784 481 786C481 788 483 804 495 804C503 804 506 794 506 789C506 784 502 783 485 783ZM493 747C486 747 483 751 483 760C483 773 485 775 498 775C503 775 511 774 511 760C511 750 500 747 493 747ZM491 26C563 26 597 34 656 61C722 91 858 193 858 377C858 509 784 639 646 705C593 730 571 734 472 734C325 734 144 592 144 379C144 217 257 98 359 53C408 31 436 26 491 26ZM498 37C321 37 156 184 156 380C156 502 225 587 227 587C228 587 229 586 229 583C239 535 269 564 269 544C269 536 266 522 260 492C258 483 249 473 240 464C233 456 226 449 223 442C215 426 208 424 208 420C208 416 181 369 181 312C181 237 230 189 231 188C242 172 277 166 287 166C303 166 330 191 330 222C330 243 314 261 291 261C277 261 253 251 253 232C253 217 266 198 278 198C291 198 300 209 300 220C300 231 292 237 286 237C284 237 282 236 282 234C282 233 284 232 285 232C288 232 290 225 290 219C290 210 285 207 280 207C272 207 265 216 265 227C265 238 276 249 288 249C299 249 313 238 313 216C313 192 301 178 281 178C219 178 200 276 200 312C200 319 201 325 203 326L415 332H418C418 324 409 320 409 311C409 298 422 280 440 280C459 280 477 300 477 308C477 313 474 321 474 327C474 335 481 335 515 335C556 335 578 339 592 339C608 339 609 333 609 311V278L587 255C557 225 541 200 541 181C541 157 567 141 580 141C593 141 601 152 610 152C618 152 621 144 638 144C649 144 664 150 674 158C681 165 682 168 682 185C682 207 673 223 643 254L622 275L620 338L642 337C650 337 657 336 665 336C679 336 694 337 727 337L768 338L767 313C766 282 760 250 728 250C717 250 709 259 709 271C709 282 716 296 726 296C730 296 734 293 734 287C734 279 729 276 727 276C725 276 724 276 724 279C724 280 722 282 719 282C717 282 715 279 715 276C715 271 718 265 725 265C732 265 744 276 744 288C744 298 735 306 722 306C703 306 691 281 691 271C691 258 710 237 726 237C731 237 738 239 747 243C777 259 780 300 780 347V411H794C818 411 829 384 829 384C829 383 829 382 830 382C832 382 837 388 837 394C837 394 832 451 829 451C822 451 813 423 792 423C785 423 780 428 780 442C780 473 810 477 810 482C810 484 805 485 788 485C779 485 742 484 742 481C742 471 769 471 769 443C769 442 769 440 768 437V425L752 424H745C728 424 719 447 712 447C711 447 710 432 710 416C710 399 711 380 716 379C719 378 721 380 721 383C721 385 730 411 747 411C749 411 751 410 753 410L768 409V355C746 351 621 350 621 350C620 352 618 381 617 416L615 481H627C644 481 648 488 648 496C648 503 645 511 642 514L634 521L651 538C661 548 670 555 671 555C676 555 683 544 696 544C713 544 723 559 723 569C723 573 721 576 715 582L705 591L712 600C715 604 716 608 716 611C716 621 706 630 691 630C680 630 673 623 673 611C673 606 674 604 675 604C678 604 686 621 692 621C701 621 705 617 705 612C705 607 700 601 691 594C685 591 676 581 666 570L652 556C635 537 619 520 615 520C613 520 613 539 613 562C612 592 612 627 607 629C604 630 601 629 599 626C596 621 558 597 554 597C549 597 521 574 511 574C509 574 508 574 508 577C508 583 519 595 519 615C519 638 505 658 473 658C455 658 413 651 407 598L404 579L396 587C389 594 384 602 380 609C374 618 370 625 364 625C361 625 360 619 360 612V594C360 583 359 573 354 569C350 564 326 560 307 560C290 560 286 562 286 566C286 568 287 571 287 575C287 583 284 606 260 606C241 606 237 597 232 597C232 604 341 722 479 722H499C707 722 847 551 847 378C847 172 671 37 498 37ZM186 581C188 581 194 586 198 593C206 604 226 620 226 627C226 629 224 630 220 630C214 630 185 657 185 663V665C185 667 184 668 183 668C178 668 166 658 166 653C166 652 167 651 170 651C174 651 184 642 184 638C184 635 180 625 174 625C170 625 164 630 159 644L150 633C145 626 143 622 143 620C143 619 143 618 145 618C148 618 149 620 153 620C163 620 187 596 187 590C187 587 185 585 185 583C185 582 185 581 186 581ZM817 568C823 568 835 576 835 580C835 581 833 581 830 581H823C813 581 805 591 805 598C805 605 813 606 814 606C816 606 816 604 816 599V592L827 598C834 602 837 606 837 608C837 609 837 609 835 609C832 609 831 608 829 608C825 608 823 610 823 613C823 618 830 626 837 626C843 626 848 619 848 610C848 605 845 600 845 595C845 593 845 592 846 592C848 592 852 594 855 599L865 609L850 628C839 642 833 648 830 648C829 648 829 646 829 643C829 640 824 634 819 630L802 616C798 612 795 611 793 611C792 611 785 618 782 618C781 618 780 617 780 615C780 610 814 568 817 568ZM483 568C481 568 480 569 480 573C480 574 475 597 451 597C423 597 419 580 416 580C414 580 414 581 414 583C414 592 420 614 425 624C432 636 450 644 467 644C485 644 508 630 508 613C508 595 489 568 483 568ZM197 604C189 604 185 609 185 615C185 623 193 630 195 630C197 630 207 624 207 614C207 609 203 604 197 604ZM507 411C490 411 475 443 475 447C475 465 463 480 453 494C445 504 438 513 438 521C438 528 442 534 450 534C463 534 516 563 555 585L576 596C588 603 596 607 598 607C600 607 601 578 601 571L603 538C600 539 597 539 594 539C570 539 568 522 568 519C568 507 586 498 586 490C586 487 582 483 575 483L565 484C560 484 554 482 546 473C536 462 535 462 515 462C500 462 492 460 492 458C492 457 494 456 498 455C506 452 517 434 517 423C517 415 514 411 507 411ZM267 564C260 564 243 573 243 587C243 595 247 597 253 597C262 597 273 593 273 575C273 569 271 564 267 564ZM243 343C204 343 204 344 204 347C204 374 245 455 253 456C258 456 258 423 280 423C298 423 311 447 311 461C311 492 274 484 274 493C274 498 277 507 280 526L283 549L355 548L364 558C369 563 373 569 373 572C373 579 376 588 378 588C378 588 427 543 427 531C427 521 422 514 403 496C381 474 363 445 363 430C363 421 373 390 397 390C407 390 415 396 431 396C439 396 446 395 451 395C459 395 465 398 470 412L475 425V401C475 386 476 378 479 378C488 378 482 402 505 402H517V389C517 366 497 357 497 354C497 353 500 352 509 352C517 352 547 353 547 355C547 357 546 358 544 358C537 358 528 380 528 393C528 400 531 401 534 401C550 401 554 381 560 381C562 381 563 385 563 391C563 400 561 438 556 438C551 438 555 414 538 414C529 414 527 417 527 422C527 441 534 448 538 453L547 447C552 443 559 442 562 442C571 442 584 455 584 464V468C584 478 599 488 602 488C604 488 604 471 604 442C605 435 605 426 605 417L607 348H584C550 348 482 347 415 346C346 344 278 343 243 343ZM447 544C436 544 429 553 429 564C429 578 446 588 450 588C458 588 469 575 469 563C469 550 456 544 447 544ZM695 556C691 556 686 558 686 565C686 572 691 581 699 581C704 581 709 575 709 569C709 563 703 556 695 556ZM592 506C586 506 577 514 577 520C577 523 584 530 589 530C596 530 600 520 600 515C600 509 596 506 592 506ZM624 486C621 486 617 492 617 497C617 502 620 507 627 507C633 507 638 503 638 498C638 492 627 486 624 486ZM399 401C393 401 382 403 382 424C382 471 425 495 428 495C434 495 466 459 466 435C466 417 456 403 443 403C434 403 430 411 430 416C430 425 438 426 438 430C438 433 432 434 423 434C414 434 403 432 403 429C403 424 417 423 417 414C417 407 408 401 399 401ZM280 436C272 436 268 450 268 459C268 468 272 474 281 474H283C287 474 296 473 296 458C296 446 288 436 280 436ZM560 451C555 451 552 454 552 458C552 464 558 474 564 474C568 474 571 470 571 465C571 458 565 451 560 451ZM444 291C437 291 424 305 424 312C424 320 438 330 451 330C459 330 466 326 466 315C466 305 453 291 444 291ZM641 151C627 151 618 157 618 170C618 178 623 186 629 186C632 186 636 185 636 179C636 175 633 169 633 167C633 166 634 166 635 166C637 166 646 172 646 180C646 189 637 198 631 198C625 198 620 192 612 192C604 192 604 196 594 196C582 196 572 188 572 180C572 171 584 165 589 165C591 165 592 165 592 167C592 169 586 174 586 180C586 183 589 186 591 186C593 186 598 185 598 176C598 169 594 153 578 153C565 153 555 168 555 186C555 193 557 203 562 212C567 221 612 264 615 264C618 264 626 254 636 242C643 233 652 223 659 216C667 209 671 197 671 187C671 167 660 151 641 151ZM169 111C177 111 190 125 190 128C190 130 188 131 184 131C178 131 175 130 169 130C165 130 162 131 162 133C162 139 190 157 197 157C201 157 201 153 206 153C207 153 207 154 207 155C207 159 189 183 186 183C185 183 184 183 184 181L185 174C185 163 156 148 153 148C150 148 145 154 145 156C145 160 153 171 153 177C153 179 152 180 151 180C148 180 144 178 137 172L126 164L138 151C157 131 158 111 169 111ZM499 -46C517 -46 545 -45 545 -42C545 -40 537 -44 537 -17C537 7 544 7 544 9C544 10 541 11 536 11C532 11 525 10 517 10C478 10 476 7 476 3C476 -1 479 -6 481 -10C487 -4 492 3 509 3C517 3 525 1 525 -7C525 -11 523 -14 521 -14C516 -14 514 -7 510 -7C507 -7 506 -10 506 -14C506 -18 507 -26 511 -26C514 -26 517 -22 521 -22C524 -22 527 -28 527 -32C527 -38 521 -42 511 -42C490 -42 496 -29 487 -29C485 -29 483 -31 483 -36C483 -46 487 -46 499 -46Z" fill="#f59e0b" stroke="none"/>
  </g>
</svg>