<svg xmlns="http://www.w3.org/2000/svg" viewBox="0 -120 1000 1000">
  <g transform="translate(0, 760) scale(1, -1)">
    <path d="M492 -90C589 -90 687 -62 768 -7C793 10 849 63 868 87C943 182 970 280 970 370C970 479 932 574 894 636C870 674 809 739 778 760L750 779C683 825 582 845 582 845C581 846 543 850 497 850C461 850 419 847 386 839C246 805 167 714 162 714C160 714 159 713 159 711C159 709 144 690 129 670C111 648 93 625 93 622C93 619 52 556 34 455C32 442 30 412 30 379C30 340 33 296 41 264C62 174 111 111 111 104C111 98 115 101 134 77C183 16 219 4 219 -3C219 -5 221 -6 223 -6C226 -6 232 -10 241 -16C276 -38 357 -90 492 -90ZM494 -83C354 -83 265 -19 260 -16C187 24 102 131 102 142C102 145 96 153 91 161C84 169 78 178 78 182C78 188 70 194 55 249C46 283 45 285 45 288C45 306 38 306 38 385C38 411 38 438 40 444C62 542 77 582 126 652C162 705 234 766 299 799C325 812 415 843 487 843C510 843 538 841 558 839C651 828 756 771 764 761C773 750 959 627 959 381C959 279 927 208 927 208C927 192 875 111 875 111C868 99 792 23 772 9L740 -13C708 -34 615 -83 494 -83ZM492 -75C595 -75 694 -39 774 20C807 44 862 102 880 132L896 159C917 192 938 250 947 299C950 318 952 359 952 393C952 433 951 437 948 448C946 454 943 462 940 480C918 610 812 712 789 731L764 750C744 766 675 804 661 806C653 807 580 836 500 836C489 836 490 835 461 833C240 818 44 628 44 377C44 322 53 307 53 300C53 297 52 295 52 293C52 292 53 291 53 291C57 291 52 259 86 186C121 113 248 -75 492 -75ZM498 -62C230 -62 113 159 113 159C113 159 58 255 58 385C58 633 267 825 499 825C707 825 871 674 919 518C934 471 940 444 940 374C940 341 938 303 928 270C912 220 888 158 872 140L846 109C708 -59 542 -57 542 -59C542 -59 525 -62 498 -62ZM486 753C529 753 531 756 531 767V769C531 776 530 779 528 779C520 779 521 762 498 761H485L484 782V794C484 805 486 805 492 806C499 808 501 809 501 810C501 812 490 813 479 813C471 813 462 812 462 810C462 805 472 813 472 784C472 751 459 762 459 757C459 755 471 753 486 753ZM497 24C520 24 541 25 562 28C726 52 858 213 858 365C858 399 855 440 853 441C851 442 849 444 849 446C849 486 765 739 499 739C376 739 312 687 293 677C244 652 180 548 180 548C176 543 139 468 139 370C139 247 214 144 277 96C306 73 365 43 393 35C422 27 460 24 497 24ZM493 36C290 36 154 210 154 369V397C159 582 311 680 367 701C417 720 463 727 503 727C615 727 682 672 682 672C688 672 728 640 749 618C799 566 826 498 832 469L835 458L818 460C760 468 754 485 749 496C747 502 745 507 745 509C745 513 756 516 756 520C756 522 753 522 749 522C741 522 722 507 722 495C722 479 750 461 750 458C750 457 742 456 732 456C715 456 715 456 709 467C701 483 690 488 681 488C664 488 649 476 644 465C640 456 638 456 616 456H594V469C594 498 617 498 617 502C617 505 606 507 588 507C563 507 552 505 552 501C552 499 555 497 561 493C569 489 570 487 570 473V466C570 456 568 455 547 455H517C505 455 497 455 496 456C510 467 528 501 528 510C528 517 548 545 557 551C562 553 563 555 563 557C563 559 558 559 549 559H533C493 559 482 558 482 556C482 550 512 530 512 517C512 517 508 457 458 457C432 457 398 480 398 519C398 546 440 557 440 561C440 565 388 566 347 566C343 566 341 565 341 563C341 560 345 556 353 551C371 541 384 505 384 500C384 484 407 464 407 458C407 456 396 455 354 455C339 455 334 455 334 457C334 460 345 467 345 481C345 496 331 511 312 511C294 511 280 498 280 483C280 470 289 463 289 458C289 454 285 453 274 453C271 453 267 453 261 454H238C238 462 237 487 207 487C187 487 168 465 168 451C168 441 182 424 194 421L205 418L211 387C222 320 250 257 281 225C299 207 331 189 372 173C400 162 404 162 446 162C492 162 595 162 657 303C667 325 684 402 684 405C684 409 688 414 694 417C706 424 708 430 710 435C711 441 712 444 730 444C741 444 747 442 747 441C747 436 728 439 728 417C728 395 751 380 763 380C766 380 768 381 768 383C768 391 754 393 754 412C754 432 775 441 821 445L837 446L839 433C841 424 841 404 841 385C841 357 840 327 838 318L829 283C824 264 795 173 702 104C677 85 625 57 615 57C615 57 564 36 493 36ZM824 562C832 562 840 568 840 572C840 574 839 575 837 575C834 575 834 574 830 574C821 574 812 579 812 587C812 594 820 600 822 600C824 600 824 599 824 596V590C824 587 826 585 828 585C835 585 849 595 849 600C849 601 848 602 845 602C841 602 839 601 836 601C831 601 830 603 830 605C830 609 838 618 843 618C849 618 856 606 856 597C856 593 855 592 855 589C855 585 857 584 859 584C863 584 872 592 872 595C872 600 835 657 835 639C835 638 836 635 836 633C836 622 805 604 802 604C800 604 792 612 788 612C787 612 786 611 786 609C786 605 815 562 824 562ZM165 558C172 558 175 561 199 599L207 610C199 618 195 621 192 621C184 621 195 585 178 585C171 585 165 594 165 598C165 602 166 603 167 603C169 603 174 598 178 598C180 598 182 600 182 602C182 608 170 619 163 619C160 619 158 617 158 613C158 606 158 603 156 603C153 603 144 613 144 617C144 623 155 630 163 630C168 630 171 632 171 635C171 641 160 645 156 645C146 645 117 596 117 591C117 589 118 588 119 588C123 588 134 601 135 602L145 593C164 578 170 573 170 569C170 567 162 561 162 559C162 559 163 558 165 558ZM307 462C296 462 293 474 293 479C293 488 302 498 312 498C325 498 329 484 329 481C329 471 316 462 307 462ZM678 456C666 456 657 457 657 459C657 473 677 480 681 480C682 480 699 475 699 461C699 457 696 456 678 456ZM205 432C192 432 184 442 184 452C184 465 195 477 206 477C218 477 224 463 224 452C224 440 217 432 205 432ZM675 423C668 423 657 432 657 438C657 442 662 444 680 444C696 444 699 443 699 439C699 433 685 423 675 423ZM410 179C391 179 360 190 344 204L356 215C365 222 369 229 369 235C369 258 336 274 321 274C306 274 296 251 286 251C267 251 226 376 226 416C226 441 239 442 259 442C273 442 280 440 280 437C280 433 273 433 273 423C273 409 291 391 308 391C326 391 338 411 338 424C338 432 334 433 334 438C334 442 340 442 352 442H383C410 442 440 441 440 437C440 432 362 316 360 316C358 316 355 308 355 304C355 295 365 294 404 294H429C447 294 448 293 448 287V284C448 185 443 187 420 180C417 179 414 179 410 179ZM489 181C463 181 461 192 461 201C461 203 462 205 462 207C462 234 463 290 464 292C465 293 482 294 504 294C537 294 545 295 545 300C545 305 538 323 530 338L514 367C474 439 474 438 474 439C474 441 521 442 549 442C568 442 570 442 570 430C570 400 542 405 542 400C542 397 547 394 570 394C592 394 618 396 618 396C618 401 595 410 595 425V430L596 442H636C642 442 642 422 658 415L668 411L660 379C644 316 637 299 610 257C603 245 597 238 594 238C592 238 591 240 591 244C591 248 580 264 561 264C540 264 514 248 514 227C514 210 534 202 534 195C534 192 504 181 489 181ZM308 405C296 405 291 408 291 422C291 434 294 439 306 439C314 439 325 435 325 423C325 405 312 405 308 405ZM465 309C387 309 380 310 380 314C380 317 383 319 387 325C394 333 405 351 415 369L437 404L449 424C452 430 455 433 457 433C462 433 467 424 479 400L510 341C518 326 524 313 524 311C524 310 512 309 465 309ZM327 214C316 214 307 225 307 235C307 239 311 255 324 255C335 255 347 244 347 233C347 223 337 214 327 214ZM551 208C542 208 534 214 534 223C534 234 552 251 561 251C568 251 581 238 581 234C581 229 569 208 551 208ZM142 129C143 129 144 130 144 131C144 132 143 135 143 139C143 154 167 173 173 173C177 173 184 169 189 169C191 169 192 170 192 172C192 178 180 190 180 193C180 196 171 204 166 204C164 204 162 203 162 199C162 197 163 196 163 195C163 184 141 164 129 164C125 164 123 168 119 168C118 168 117 167 117 166C117 157 137 129 142 129ZM838 120C853 120 878 148 878 153C878 154 877 155 876 155C872 155 871 152 867 152C854 152 831 179 831 186C831 190 830 192 828 192C823 192 812 175 812 171C812 169 814 169 815 169H819C824 169 830 162 830 158C830 156 828 154 825 154C818 154 815 158 809 158C799 158 790 150 790 137C790 130 792 126 794 126C799 126 794 147 808 147C814 147 822 141 822 136C822 129 831 120 838 120ZM846 130C840 130 834 135 834 141C834 148 837 150 840 150C846 150 854 143 854 137C854 131 848 130 846 130ZM499 -53C504 -53 509 -44 523 -23C541 4 548 1 548 5C548 7 543 9 534 9C526 9 522 8 522 6C522 3 525 2 525 -1C525 -6 515 -16 509 -16C508 -16 505 -15 498 -15C492 -15 487 -9 487 -4C487 2 491 2 491 6C491 10 483 12 481 12L471 10C465 9 462 7 462 5C462 4 463 3 465 3C468 3 475 -11 482 -25C489 -39 496 -53 499 -53ZM502 -34C497 -34 495 -23 495 -23C495 -21 498 -21 503 -21C508 -21 510 -22 510 -23C510 -26 505 -34 502 -34Z" fill="#f59e0b" stroke="none"/>
  </g>
</svg>