<svg xmlns="http://www.w3.org/2000/svg" viewBox="-50 -50 1100 1100">
  <g transform="translate(0, 1000) scale(1, -1)">
    <path d="M483 -91H495C524 -91 556 -90 573 -87C787 -56 896 124 896 130C896 131 899 136 903 141C916 156 938 212 938 214C938 218 953 248 953 256C953 280 966 275 966 378C966 636 767 818 569 846C557 847 495 849 465 849C430 849 329 825 281 796L256 780C194 744 34 619 34 376C34 351 35 326 38 315C64 187 86 175 86 160C86 158 87 156 89 156C91 156 93 154 94 151C95 149 165 4 336 -62C404 -88 460 -91 483 -91ZM499 -85C258 -85 42 121 42 382C42 638 251 842 502 842C762 842 958 618 958 379C958 127 754 -85 499 -85ZM501 -76C631 -76 708 -25 725 -16C762 2 842 76 859 107C865 116 870 124 872 124C873 124 894 157 894 158C894 161 896 167 900 173C916 193 939 264 947 317C949 328 950 354 950 379C950 527 868 651 811 706C710 801 601 834 503 834C244 834 50 624 50 382C50 265 94 176 119 141L139 110C186 39 316 -76 501 -76ZM508 -63C423 -63 373 -51 295 -11C274 0 265 6 246 20L231 30C143 98 62 227 62 378C62 448 79 539 139 630C192 709 296 785 381 805C381 805 441 824 498 824C557 824 638 803 674 786C827 718 937 552 937 396V376C937 312 936 305 921 256C905 202 881 150 852 112C827 78 769 25 733 3C703 -16 639 -45 618 -48C604 -50 596 -53 588 -55C571 -60 560 -63 508 -63ZM486 756C525 756 534 760 534 767C534 770 531 776 529 776C524 776 517 762 505 762C496 762 491 770 491 776C491 781 495 784 497 784C502 784 506 776 509 776C512 776 515 785 515 788C515 793 512 795 509 795C506 795 502 792 498 792C496 792 494 794 494 800C494 807 500 811 506 811C518 811 520 800 524 800C528 800 530 804 530 808C530 815 526 816 516 816C511 816 474 814 474 812C474 809 481 813 481 802C481 762 471 763 471 759C471 757 476 756 486 756ZM503 21C537 21 568 24 583 27L612 37C742 77 855 219 855 374C855 480 806 555 806 557C806 565 771 611 749 633C705 676 702 676 654 701C602 728 559 738 498 738C486 738 451 737 440 735C376 725 324 691 320 691C319 691 250 649 214 592L192 559C188 553 184 543 181 536L170 511C159 487 145 433 145 380C145 238 236 97 367 46L394 35C420 25 463 21 503 21ZM238 463C228 463 226 466 225 471C224 476 214 495 197 495C185 495 178 484 173 484C173 487 178 496 181 507C210 600 337 727 499 727C534 727 573 720 623 702C769 651 830 488 830 473C830 470 828 469 825 469C803 469 784 484 769 495C762 501 757 505 752 507C747 509 731 525 725 525C723 525 721 524 721 520C721 520 721 519 722 518L726 469H713C708 469 672 467 646 467C632 467 620 468 620 469C620 472 664 525 664 547C664 576 636 589 636 589C629 592 607 594 592 594C546 594 506 531 506 531C506 527 497 519 485 487L477 465L462 464C460 463 458 463 457 463C446 463 444 465 444 467C444 476 480 498 480 526C480 542 468 560 443 560C397 560 349 491 343 483L331 464L307 463H292C287 463 285 463 285 465C285 467 293 470 293 483C293 495 283 508 270 508C257 508 246 496 246 483C246 480 246 477 247 474L250 463ZM191 566C197 595 206 585 206 603C206 611 205 613 195 617C190 619 188 620 185 620C179 620 165 610 157 610C153 610 152 612 152 617C152 624 157 629 164 629C166 629 172 627 176 627C178 627 179 628 179 631C179 633 176 636 171 640L162 646L151 634C144 626 141 619 141 614C141 607 150 596 157 596C163 596 183 608 188 608C192 608 194 606 194 602C194 595 187 586 179 586C173 586 171 584 171 582C171 580 174 576 181 571ZM833 557C838 557 851 561 851 567C851 577 821 569 821 585C821 596 841 611 851 611H856C858 611 859 611 859 613C859 619 846 640 841 640C840 640 839 640 839 639C839 636 842 631 843 627C843 625 812 601 809 601C809 601 801 608 797 608C795 608 794 607 794 605C794 603 798 597 802 593C821 572 822 557 833 557ZM536 464C524 464 521 465 521 469C521 481 546 525 561 540C578 556 582 559 605 559H608C615 559 626 558 626 540C626 531 621 520 609 503C590 475 592 464 536 464ZM376 463C365 463 356 464 356 465C356 469 408 523 429 523C435 523 437 517 437 513C437 506 430 508 409 481L396 463ZM760 467C750 467 740 468 739 469C737 471 735 485 735 493C735 496 735 499 736 499C741 499 780 473 780 469C780 468 772 467 760 467ZM271 468C265 468 258 474 258 482C258 488 266 495 271 495C277 495 281 489 281 483C281 476 277 468 271 468ZM193 451C186 451 182 455 182 464C182 475 188 478 193 478C205 478 209 472 209 463C209 454 201 451 193 451ZM805 225C800 225 783 241 783 243C783 246 788 305 789 421L790 445L809 452C820 456 825 459 829 459C835 459 842 440 842 371C842 297 812 225 805 225ZM736 427C735 427 735 428 735 431C735 434 735 438 736 442L738 457H759C770 457 779 456 779 454C779 450 743 427 736 427ZM440 229C354 229 347 230 347 234L346 283C346 295 347 298 353 298C357 298 366 296 369 296C383 296 400 313 400 329C400 338 387 358 376 358C371 358 362 356 347 354V449C347 451 356 452 365 452C380 452 383 450 383 448C383 444 375 439 375 425C375 408 393 361 432 361C479 361 499 406 511 438L517 452L543 453H554C564 453 568 452 568 450C568 446 559 432 559 413C559 396 578 373 604 373C625 373 650 398 672 420C690 439 707 456 719 456C722 456 723 453 723 448C723 441 720 425 720 409C720 401 721 399 724 399C726 399 736 407 745 415C757 425 770 436 774 436C775 436 775 432 775 426C775 369 773 368 770 368H768C764 368 751 370 746 370C734 370 714 347 714 338C714 319 729 301 750 301C761 301 764 306 768 306C770 306 771 303 771 293V290C771 269 771 243 765 237C760 233 748 233 659 231L559 229L568 238C574 244 578 250 578 253C578 255 581 253 586 247C593 239 595 237 607 237C623 237 630 243 640 262L645 272L632 283C624 291 617 295 610 295C604 295 599 291 592 284L580 275C564 286 563 287 563 290C563 298 580 304 580 319C580 333 566 345 551 345C535 345 520 331 520 321C520 316 522 309 529 301L537 291L517 275C516 276 512 291 492 291C470 291 459 274 459 262C459 248 474 238 487 238C505 238 516 255 518 255C518 255 519 254 519 253C519 251 521 245 526 239L533 229ZM604 393C594 393 587 399 587 413C587 437 604 438 604 447C604 454 625 456 644 456C659 456 682 455 682 453C682 451 635 393 604 393ZM172 286C169 286 158 321 158 371C158 409 163 446 165 454C176 442 182 434 193 434C201 434 208 438 215 443C221 447 228 451 235 451C243 451 245 449 245 446C245 442 242 438 242 432C242 420 257 411 268 411C279 411 288 421 288 437V451H306C315 451 323 449 323 448C323 447 319 438 315 426C312 418 310 410 308 402C299 371 289 338 264 315C254 306 247 302 241 302C231 302 227 315 207 315C178 315 173 286 172 286ZM431 395C419 395 412 404 412 417C412 427 416 438 426 447C431 452 435 454 451 454C468 454 473 453 473 446C473 434 452 395 431 395ZM270 425C265 425 258 430 258 437C258 443 263 444 266 444C272 444 277 440 277 434C277 429 274 425 270 425ZM492 32C396 32 279 94 224 178L206 205C202 210 200 216 200 218C200 225 191 228 191 234C191 240 187 240 177 265L188 259C193 256 201 253 205 253C215 253 230 265 236 276C240 283 246 287 254 292C265 299 281 308 300 335C309 346 328 391 330 402C330 402 332 350 332 303C332 266 331 233 325 233C324 233 324 234 322 234C315 234 284 224 284 201C284 176 314 169 318 169C324 169 347 180 347 204C347 214 348 217 352 217C362 217 363 213 363 211C363 209 362 207 362 205C362 194 373 181 382 181C388 181 407 191 407 205C407 208 406 210 406 212C406 215 409 216 411 216C414 216 415 213 415 204C415 187 422 181 430 181C441 181 454 192 454 205V212C454 216 455 217 460 217C466 217 469 215 469 213C469 209 463 208 463 200C463 192 472 181 481 181C500 181 505 197 505 204C505 210 502 213 502 215C502 217 504 217 512 217C521 217 523 216 523 214C523 209 516 205 516 194C516 179 530 163 549 163C575 163 581 186 581 193C581 205 572 210 572 214C572 217 587 220 596 220C602 220 604 218 604 216C604 212 599 207 599 201C599 191 610 182 622 182C639 182 643 199 643 204C643 210 640 213 640 216C640 219 646 220 647 220C652 220 655 217 655 213C655 211 653 210 653 204C653 192 663 183 674 183C687 183 693 195 695 195C699 195 704 184 717 184C728 184 737 192 737 206C737 213 738 217 739 217C745 217 743 178 771 178C775 178 777 178 777 176C777 166 703 91 653 68L610 50C589 41 531 32 492 32ZM748 316C739 316 733 324 733 334C733 347 744 359 756 359C764 359 771 353 771 338C771 323 763 316 748 316ZM367 310C359 310 354 317 354 328C354 340 360 345 368 345C377 345 386 339 386 330C386 322 378 310 367 310ZM552 306C543 306 534 316 534 319C534 324 543 333 549 333C554 333 564 327 564 319C564 313 559 306 552 306ZM200 264C195 269 188 276 188 285C188 293 195 304 205 304C214 304 224 295 224 286C224 280 221 275 211 270ZM613 247C609 247 595 255 595 267C595 276 602 280 609 280C617 280 626 276 626 267C626 259 618 247 613 247ZM488 248C481 248 478 254 478 263C478 267 479 279 487 279C498 279 505 271 505 265C505 256 495 248 488 248ZM549 247C542 247 536 252 536 262C536 272 541 276 550 276C560 276 565 271 565 263C565 254 558 247 549 247ZM778 189C771 189 762 200 762 206C762 210 769 226 778 226C784 226 790 220 790 209C790 199 786 189 778 189ZM317 184C306 184 300 193 300 202C300 212 309 220 318 220C327 220 335 216 335 203C335 192 328 184 317 184ZM696 209C695 209 692 212 692 214C692 216 693 217 696 217C699 217 700 216 700 214C700 212 698 209 696 209ZM721 194C716 194 713 199 713 204C713 210 719 216 722 216C725 216 727 212 727 204C727 196 726 194 721 194ZM387 194C381 194 374 200 374 206C374 211 379 215 385 215C390 215 396 211 396 205C396 197 392 194 387 194ZM434 193C427 193 425 202 425 204C425 208 431 215 436 215C441 215 446 210 446 207C446 199 438 193 434 193ZM674 192C670 192 663 196 663 201C663 206 671 214 678 214C681 214 686 212 686 207C686 200 680 192 674 192ZM624 191C618 191 612 194 612 201C612 205 616 212 622 212C627 212 632 207 632 200C632 192 628 191 624 191ZM483 190C478 190 477 196 477 199C477 204 480 208 486 208C492 208 493 207 493 203V199C493 193 487 190 483 190ZM553 177C543 177 534 185 534 194C534 205 544 208 552 208C562 208 569 203 569 193C569 183 562 177 553 177ZM158 151C173 151 188 163 188 187C188 195 188 207 153 207C140 207 126 189 126 182C126 173 137 151 158 151ZM152 157C146 157 139 167 139 176C139 185 153 198 167 198C174 198 178 194 178 189C178 175 156 157 152 157ZM827 109C832 109 852 127 852 136C852 138 851 139 850 139C847 139 841 134 840 134C837 134 816 145 816 162C816 165 817 168 817 170C817 171 816 172 815 172C813 172 787 144 787 138C787 137 788 136 789 136C792 136 798 141 802 141C805 141 809 139 815 133L830 121C830 118 825 112 825 110C825 109 827 109 827 109ZM483 -57C490 -57 487 -50 500 -50C512 -50 536 -39 536 -21C536 -8 522 4 507 4C492 4 486 11 483 11C482 11 482 9 482 3C482 -15 472 -10 472 -16C472 -18 479 -20 490 -20C500 -20 502 -19 502 -18C502 -16 494 -14 494 -11C494 -8 502 -4 507 -4C513 -4 518 -8 518 -16C518 -29 511 -44 500 -44C490 -44 484 -33 481 -33C479 -33 479 -36 479 -44C479 -53 480 -57 483 -57Z" fill="#f59e0b" stroke="none"/>
  </g>
</svg>