<svg xmlns="http://www.w3.org/2000/svg" viewBox="1 -121 998 1002">
  <g transform="translate(0, 760) scale(1, -1)">
    <path d="M487 -91C709 -91 835 47 857 74C926 157 940 221 949 244C961 272 969 338 969 392C969 595 814 807 576 846C560 849 509 851 478 851C312 851 175 725 166 714C157 701 31 579 31 378C31 192 159 -6 367 -68L417 -84C430 -88 457 -91 487 -91ZM505 -81C228 -81 41 151 41 382C41 604 203 808 449 843C459 845 472 846 484 846C599 846 650 819 650 817C643 817 588 840 503 840C263 840 51 646 51 384C51 132 264 -70 504 -70C671 -70 771 25 781 25C781 25 957 153 957 381C957 494 913 572 913 578C913 582 884 630 867 654C846 685 789 742 766 757C730 780 696 796 676 806C664 811 657 815 657 816C659 816 667 814 678 809C872 732 931 550 938 525C956 459 959 448 959 386V375C959 330 958 314 953 289C929 178 869 81 785 18C754 -6 681 -48 670 -48C664 -48 606 -81 505 -81ZM506 -59C387 -59 251 -5 161 108C110 171 63 276 63 389C63 433 78 599 207 713C298 793 402 829 504 829C636 829 763 768 847 664C883 618 919 549 925 523L933 493C941 462 945 425 945 387C945 332 937 278 921 243C917 235 914 226 912 217C909 208 906 199 903 195C888 176 857 63 679 -20C618 -49 560 -59 506 -59ZM500 757C513 757 523 758 524 760C526 768 528 773 528 776C528 778 527 779 525 779C519 779 517 765 496 765C489 765 484 766 484 768C484 769 493 779 503 790C514 802 526 815 526 817C526 818 526 818 523 818C511 818 461 818 461 813C461 812 461 811 462 810L465 798C466 794 467 792 469 792C477 792 469 810 490 810C497 810 502 809 502 808C502 807 493 798 484 788C472 775 459 762 459 760C459 758 491 757 500 757ZM502 24C534 24 571 28 611 41C703 70 794 167 801 181C803 186 859 260 859 381C859 446 844 485 834 509C830 520 827 528 827 533C827 534 828 535 828 535C828 537 822 541 812 558C782 610 687 740 498 740C475 740 451 739 435 736C352 722 267 668 215 597C185 556 165 499 163 496C154 484 146 431 146 377C146 337 150 297 161 273L177 235C215 147 296 88 319 77C347 63 350 57 353 57C355 57 413 24 502 24ZM555 439C534 439 514 440 514 442C513 455 513 464 513 472C513 522 547 523 547 534C547 537 546 539 531 539C505 539 464 537 464 534C464 532 471 522 480 513C502 490 499 496 500 454L501 440H417L416 471C415 477 415 481 415 485C415 514 430 523 430 523C434 523 443 532 443 536C443 537 436 538 408 538C388 538 364 537 364 532C364 523 400 524 400 485V468L398 440H379C360 440 359 441 357 447C346 491 342 498 330 509C309 527 278 540 256 540C243 540 228 551 228 559C228 561 229 562 229 563C229 568 221 574 217 578L227 592C253 628 350 730 502 730C632 730 724 650 745 626L768 602C776 594 781 586 781 585C781 581 799 568 799 555C799 536 770 526 746 524C718 521 708 517 693 504C676 489 674 484 667 459L662 440L638 439H628C608 439 607 440 607 463V482C607 519 641 527 641 533C641 536 632 538 613 538C570 538 559 537 559 532C559 526 580 520 580 517C580 511 597 511 597 465C597 452 596 442 596 442C595 440 574 439 555 439ZM142 506 150 516C155 521 157 525 157 528C157 536 139 541 139 547C139 548 140 549 143 549C148 549 156 540 163 540C173 540 179 555 179 567C179 572 178 575 175 575C173 575 172 573 172 571C172 560 165 556 157 556C149 556 142 560 142 564C142 569 131 582 126 582C111 582 94 547 94 537C94 535 95 534 96 534C98 534 102 537 108 546L127 535C141 526 145 525 145 519C145 516 143 512 142 506ZM863 496C869 496 880 501 880 504C880 506 876 507 869 507C854 507 852 524 852 524C852 527 861 533 866 533C868 533 870 531 870 528C870 526 869 525 869 523C869 521 870 520 872 520C875 520 885 524 885 529C885 531 884 532 882 532C879 532 878 531 876 531C874 531 873 532 873 534C873 536 880 548 889 548C896 548 900 542 900 534C900 528 896 523 896 519C896 517 897 516 899 516C902 516 903 517 914 527L900 552C891 567 887 576 885 576C884 576 884 575 884 574C884 571 886 568 886 566C886 558 851 541 848 541C841 541 840 549 834 549C833 549 832 548 832 547C832 543 834 538 838 534C842 528 845 521 848 515C852 505 855 496 863 496ZM124 552C121 552 113 554 113 560C113 564 117 569 123 569C127 569 133 564 133 560C133 556 129 552 124 552ZM498 36C383 36 265 95 194 230C174 268 159 324 159 386C159 495 209 568 211 568C214 568 215 554 215 531V515C215 501 218 493 222 493C230 493 222 525 259 525C273 525 334 513 339 458L341 438L301 440C258 441 259 441 235 467C229 474 225 477 221 477C218 477 215 473 215 453C215 453 216 398 222 398C225 398 228 400 232 404C255 425 254 426 284 426H299C343 426 343 425 343 419C343 402 310 355 258 355C225 355 233 381 222 381C218 381 217 374 217 341C217 298 219 298 222 298C231 298 229 334 264 340C298 346 324 362 332 369C340 376 354 405 356 416C356 421 357 428 391 428C400 428 401 428 401 414C401 382 398 382 389 377C305 337 279 252 279 232C279 225 283 186 292 171L307 146C331 106 400 75 435 75C450 75 464 79 478 89C497 102 500 109 500 128C500 168 459 174 448 174C430 174 410 161 410 148C410 144 416 112 440 112C445 112 467 116 467 132C467 142 459 151 454 151C453 151 452 150 452 147L453 137C453 125 440 120 439 120C431 120 425 133 425 144C425 160 440 164 447 164C455 164 481 158 481 132C481 112 467 87 434 87C414 87 387 97 351 122C341 129 303 151 303 224C303 319 375 353 395 364L415 377L414 425L456 427C471 427 485 428 493 428C497 428 499 428 500 427C500 427 501 403 501 373V289L477 290C446 290 454 293 440 309C425 325 429 333 421 333C416 333 415 330 415 271C415 238 415 231 418 231C421 231 427 238 427 243C427 246 432 254 438 262L449 276H475C498 276 502 276 502 263C502 234 472 205 459 203C452 201 448 199 448 197C448 192 448 192 529 192C564 192 573 192 573 194C573 201 521 221 516 252C514 259 512 264 512 268C512 274 517 276 536 276C561 276 564 274 576 248C581 239 585 234 587 234C593 234 595 250 595 281V288C595 312 596 320 596 325C596 331 592 335 589 335C584 335 580 327 580 325C580 321 568 302 561 292C560 291 550 290 537 289L514 288V367C514 408 515 424 516 426C517 427 533 428 550 428H559C595 428 597 427 597 414C597 410 597 404 596 397L595 370L611 362C688 325 701 258 701 215C701 150 661 99 590 98H564L555 109C547 119 542 130 542 141C542 155 551 168 566 168C581 168 592 157 592 147C592 138 585 130 578 130C574 130 571 134 571 143C571 150 568 153 565 153C562 153 558 148 558 142C558 132 569 121 581 121C597 121 606 139 606 151C606 167 595 179 571 179C530 179 526 145 526 133C526 126 527 119 530 113C536 101 571 80 588 80C604 80 642 89 653 97C685 118 715 153 717 172C718 182 723 194 723 214C723 303 649 359 627 370L610 379V426H623C649 427 657 429 660 429C665 429 657 370 707 345C729 334 746 333 759 332C775 331 785 331 793 313C796 306 799 303 801 303C805 303 808 312 808 327V344C808 359 809 361 809 366C809 378 806 384 802 384C797 384 796 377 796 374C796 369 782 345 758 345C740 345 708 359 698 370C688 383 681 401 681 413C681 428 685 429 713 429H768L784 410C794 398 800 395 804 395C809 395 810 423 810 443C810 466 807 477 803 477C802 477 800 476 798 473C793 464 769 442 763 441H721L684 440L685 454C687 479 699 513 761 513C808 513 791 486 802 486C808 486 810 495 810 506C810 516 809 527 809 533C809 535 809 537 810 537C813 537 848 472 848 384C848 329 833 299 833 292C833 291 834 292 834 290C834 250 732 36 498 36ZM246 35C249 35 256 40 265 46C276 55 291 65 300 65C304 65 307 61 310 61C311 61 311 63 311 63C311 68 297 81 290 81C288 81 287 79 287 76V73C287 69 284 67 281 67C271 67 263 79 263 82C263 86 271 86 271 90C271 97 255 107 251 107C249 107 249 106 249 104C249 98 252 101 252 90C252 72 244 40 244 38C244 36 245 35 246 35ZM752 30C760 30 792 53 792 58C792 59 791 59 790 59C787 59 785 58 783 58C771 58 748 87 747 91C747 94 747 95 746 95C744 95 731 85 731 83C731 81 748 75 748 68C748 65 733 60 733 49C733 42 745 30 752 30ZM263 52C261 52 259 53 259 58C259 65 261 68 263 68C265 68 270 65 270 60C270 56 266 52 263 52ZM758 40C750 40 745 45 745 51C745 57 750 63 754 63C758 63 769 49 769 45C769 41 760 40 758 40Z" fill="#f59e0b" stroke="none"/>
  </g>
</svg>