<svg xmlns="http://www.w3.org/2000/svg" viewBox="9 -120 982 999">
  <g transform="translate(0, 759) scale(1, -1)">
    <path d="M511 -90C544 -90 578 -89 594 -86C768 -53 878 93 878 104C878 105 881 109 885 112C892 120 923 183 923 189C923 192 926 196 928 200C945 225 961 343 961 370C961 375 960 380 958 421C955 476 947 476 947 489C947 498 903 706 700 804C632 837 581 849 505 849H492C475 849 410 848 350 824C151 746 39 571 39 379C39 149 206 -47 425 -86C442 -89 477 -90 511 -90ZM503 -85C254 -85 46 127 46 380C46 645 266 843 502 843C725 843 952 663 952 370C952 122 756 -85 503 -85ZM521 -74C670 -74 776 21 776 21C776 23 780 26 785 29C808 43 854 97 877 133C919 200 943 296 943 356C943 496 920 512 920 533C920 540 900 579 888 603C882 614 878 621 878 622C878 627 851 660 823 692C795 723 689 835 489 835C438 835 260 815 143 650C60 533 55 429 55 393V383C55 354 57 324 59 309C93 124 205 37 237 14C354 -70 441 -73 486 -73H497C505 -73 512 -74 521 -74ZM509 -63C258 -63 66 137 66 380C66 425 71 472 79 492C79 492 108 617 203 703C293 784 396 823 500 823C578 823 656 801 729 756C847 682 896 564 896 562V560C893 560 881 568 872 568C852 568 833 548 833 528C833 504 858 498 868 498C883 498 897 507 899 535L900 554L907 532C926 476 931 445 931 386C931 302 923 276 909 233C879 142 814 55 740 8C685 -28 602 -63 509 -63ZM465 745C486 745 518 750 518 767C518 774 514 778 514 783C514 788 519 788 519 798C519 812 500 817 484 817C473 817 462 814 462 810C462 809 467 810 467 789C467 745 455 753 455 748C455 746 459 745 465 745ZM489 786C485 786 478 787 478 802C478 809 482 812 488 812C496 812 506 806 506 797C506 791 499 786 489 786ZM488 753C481 753 478 756 478 764C478 779 483 780 489 780C501 780 506 775 506 768C506 761 499 753 488 753ZM505 20C590 20 676 51 747 121C765 138 791 168 791 170L802 187C838 243 850 322 851 324C852 328 853 347 853 368V393C853 430 849 474 812 544L804 563C802 568 795 577 789 585L769 610C769 610 766 622 693 680C667 700 608 724 564 734C552 736 523 737 496 737C427 737 360 721 298 674C227 620 183 543 167 500C157 471 147 427 147 377C147 176 316 20 505 20ZM333 575 317 576C323 588 325 597 325 605C325 636 286 638 286 645C286 650 375 726 498 726C622 726 725 648 725 637C725 630 688 622 688 594V588L689 576H638C551 576 484 576 436 575ZM177 551C179 551 181 553 181 557C182 569 196 575 196 585C196 594 185 606 178 606C167 606 150 590 142 590C139 590 138 593 138 597C138 603 146 609 151 609C153 609 153 608 156 608C159 608 163 609 163 611C163 616 152 623 147 623C145 623 144 622 144 618C144 609 126 607 126 593C126 589 130 574 142 574C154 574 170 588 179 588C184 588 185 583 185 580C185 575 179 569 172 569C165 569 163 568 163 565C163 559 171 551 177 551ZM295 575C284 575 263 584 263 596C263 601 269 621 289 621C301 621 312 615 312 602C312 597 310 575 295 575ZM727 574C726 574 706 574 706 587C706 607 721 621 734 621C745 621 752 611 752 601C752 587 740 574 727 574ZM504 34C477 34 448 36 436 38C354 57 284 100 237 163C237 163 219 183 219 187C219 194 213 187 178 270C178 272 160 304 160 374C160 520 243 607 246 607C247 607 247 606 248 603C252 571 271 561 275 561C287 561 287 557 287 480C287 443 287 391 288 314L290 202L277 192C266 183 266 178 266 161C266 126 298 125 302 125C323 125 341 151 341 161C341 188 308 200 305 204C304 206 304 215 304 241C303 249 303 259 303 270C303 310 302 372 300 467L299 561H396C486 561 494 561 495 556C495 553 496 504 496 447V344L451 345L419 378L420 417C420 442 421 458 423 458C428 458 441 441 454 426C465 412 476 399 479 399C484 399 485 431 485 440C485 453 484 467 481 468C479 470 451 471 422 471C385 471 344 470 343 467C341 465 341 449 341 433C341 411 342 397 343 397C344 397 352 405 362 416C378 433 399 455 404 455C407 455 408 447 408 435V418L407 382L377 347L344 345C323 344 310 342 310 340C309 338 311 336 312 335C316 334 353 332 393 331C441 330 493 328 494 326C495 325 496 316 496 304C496 292 495 279 494 273C494 271 488 270 480 270C450 270 440 309 431 309C427 309 425 268 425 239V234C425 219 425 215 430 215C435 215 440 219 440 224C440 226 444 233 449 237C466 255 453 258 478 258H494V248C494 239 493 236 487 235C474 232 462 215 462 198C462 176 487 170 499 170C527 170 533 199 533 208C533 220 527 226 521 232C516 237 511 242 511 250C511 256 518 258 523 258C531 258 540 246 548 234C554 225 560 217 564 217C569 217 571 229 571 257C571 304 570 305 563 305C550 305 545 270 520 270H509L511 328H575C624 328 623 328 633 312C633 311 642 308 651 308C677 308 683 328 683 342C683 364 660 370 654 370C647 370 641 366 630 356L620 347L610 357C594 376 593 378 593 419V438C593 453 594 456 597 456C606 456 618 439 628 425C637 413 644 402 649 402C654 402 655 408 655 427C655 442 654 463 648 467C645 470 617 471 589 471C557 471 523 470 521 466C520 464 519 454 519 443C519 426 521 405 523 405C526 405 532 413 540 423C551 437 564 455 574 455C580 455 581 445 581 414C581 381 580 378 572 365C560 346 553 342 532 342C512 342 509 342 509 387V448C509 502 510 560 511 561C511 561 550 562 592 562C641 562 693 561 694 560C696 559 699 218 699 216C699 202 695 202 665 196L617 187L561 174C523 166 440 148 427 144C396 135 369 114 369 94C369 72 396 51 424 51C453 51 475 78 475 90C475 94 462 120 443 120C427 120 417 101 417 98C417 80 448 77 448 74C448 70 438 63 425 63C408 63 387 75 387 94C387 129 470 140 482 143C553 157 593 167 617 173C637 178 647 180 654 180C659 180 661 180 661 178C661 176 657 171 657 163C657 147 671 122 692 122C714 122 734 145 734 167C734 175 732 183 726 190C716 202 714 189 709 500L708 561L725 559H730C764 559 761 590 768 590C780 590 833 485 836 414C837 398 838 384 838 372C838 236 758 83 569 38C559 36 531 34 504 34ZM858 514C852 514 845 516 845 524C845 534 857 548 871 548C876 548 888 546 888 537C888 526 873 514 858 514ZM653 321C648 321 641 326 641 334C641 344 651 357 657 357C657 357 671 351 671 340C671 332 660 321 653 321ZM497 183C484 183 478 192 478 201C478 212 485 219 496 219C507 219 519 213 519 213C520 211 521 208 521 205C521 187 509 183 497 183ZM302 138C292 138 290 139 286 148C282 153 281 160 281 165C281 179 289 189 300 189C310 189 325 178 325 161C325 150 316 138 302 138ZM697 134C686 134 675 142 675 158C675 176 681 187 702 187C715 187 719 180 719 162C719 149 716 134 697 134ZM256 34C257 34 258 35 258 36C258 39 253 44 253 47C253 52 270 73 278 73C282 73 285 72 288 72C289 72 290 73 290 75C290 81 270 96 263 96C262 96 261 96 261 95C261 92 264 90 264 88C264 81 248 58 237 58H233C231 58 230 57 230 56C230 51 251 34 256 34ZM739 17 761 37C773 48 782 61 782 64C782 68 768 82 760 82C758 82 757 81 757 79C757 72 767 62 767 57C767 55 764 51 761 51C751 51 734 80 734 82C734 85 732 87 730 87C725 87 714 77 714 72C714 71 715 70 717 70C719 70 720 71 722 71C733 71 749 44 749 41C749 38 746 36 742 36C735 36 731 46 725 46C723 46 723 45 723 43C723 39 726 32 730 26Z" fill="#f59e0b" stroke="none"/>
  </g>
</svg>