<svg xmlns="http://www.w3.org/2000/svg" viewBox="2 -124 996 1006">
  <g transform="translate(0, 758) scale(1, -1)">
    <path d="M471 -94H506C564 -94 576 -93 609 -84C668 -68 733 -37 777 -4C788 4 837 48 849 61C861 74 892 115 902 134C953 223 968 310 968 381C968 471 944 538 938 553C899 637 873 684 800 743C757 779 754 780 752 780C750 780 742 786 734 791C725 797 717 802 715 802C715 802 621 852 497 852C385 852 303 807 262 785C249 777 239 772 235 772C229 772 233 764 220 756C217 754 32 626 32 374C32 232 99 130 102 126L121 98C144 64 203 7 243 -20C274 -41 342 -74 354 -74C368 -74 373 -94 471 -94ZM500 -90C229 -90 40 138 40 374C40 636 255 844 502 844C620 844 704 796 707 796C711 796 961 671 961 386C961 184 849 76 822 49C713 -58 596 -90 500 -90ZM498 -81C755 -81 893 125 926 220C944 273 953 326 953 379C953 638 746 837 507 837C424 837 340 813 265 768C118 679 76 532 71 525C66 517 48 437 48 371C48 329 58 276 61 267L71 232C105 112 242 -81 498 -81ZM502 -70C472 -70 388 -63 300 -21C190 32 60 174 60 377C60 485 104 601 178 681C288 801 426 818 436 821C441 823 467 824 495 824C527 824 562 823 573 820L604 814C634 808 700 780 728 762L752 746C787 724 862 649 862 634C862 631 858 629 852 628C819 619 809 613 801 613C795 613 790 618 787 618C785 618 785 618 785 616C785 611 795 592 801 592C804 592 805 594 805 599C805 606 810 609 816 609C819 609 829 591 829 578C829 572 827 568 820 568C818 568 817 566 817 564C817 556 825 541 829 541C830 541 831 543 831 547C831 548 863 624 867 624C872 624 881 610 895 581C932 506 940 460 940 373C940 332 938 315 933 287L925 254C919 233 915 235 915 228C915 219 881 150 864 126C837 86 767 19 737 3C737 3 630 -70 502 -70ZM473 748C513 748 522 757 522 770C522 778 517 781 517 784C517 789 522 792 522 801C522 812 510 818 491 818C478 818 469 817 469 813C469 813 475 812 475 768C475 755 474 754 469 754C465 754 463 752 463 750C463 749 467 748 473 748ZM495 787C491 787 486 788 486 803C486 811 488 814 495 814C503 814 507 811 507 802C507 794 502 787 495 787ZM494 755C490 755 486 757 486 764C486 772 493 783 500 783C505 783 510 778 510 773C510 764 502 755 494 755ZM491 14C517 14 627 25 686 68L718 91C787 142 859 257 859 385C859 437 848 491 818 544L805 568C780 612 685 739 505 739C364 739 295 670 289 670C284 670 220 606 220 601C220 599 216 593 212 589C194 570 161 494 147 442C145 431 143 412 143 391C143 354 146 309 153 287C161 263 183 190 237 132C271 97 270 94 330 54C342 47 348 51 356 45C384 26 469 14 491 14ZM399 526C396 526 389 527 381 527L357 529C359 537 361 543 361 549C361 567 349 576 334 576C317 576 302 562 302 553C302 545 306 536 306 532C306 528 302 528 279 528C265 528 253 529 253 530C253 534 265 544 265 557C265 566 256 580 238 580C233 580 229 579 226 579C222 579 221 580 221 581C221 586 255 626 275 643C333 693 400 715 409 715C411 715 445 729 500 729C699 729 803 560 803 548C803 545 798 545 788 545C771 544 766 539 761 535C756 531 752 527 741 527C735 527 730 529 730 532C730 535 735 541 735 553C735 567 729 580 707 580C687 580 675 561 675 546C675 536 681 535 681 532C681 527 664 526 654 526C640 526 637 530 637 542C637 559 642 568 650 568C655 568 657 570 657 572C657 575 653 578 647 578C597 577 583 575 583 573C583 564 606 577 606 549C606 548 606 546 605 545L604 530L541 528L547 540C550 548 552 554 552 559C552 564 546 583 521 583C499 583 481 564 481 551C481 546 491 536 491 530C491 527 487 526 482 526C482 526 452 527 452 532C452 535 456 542 456 550C456 561 447 576 428 576C412 576 396 567 396 551C396 542 406 533 406 529C406 527 404 526 399 526ZM163 544C168 544 184 559 184 565C184 566 183 567 181 567H175C166 567 152 578 152 582C152 583 154 583 161 583C174 583 185 581 191 581C196 581 199 582 199 584C199 590 188 601 179 611C171 619 165 625 165 628C165 634 174 642 174 648C174 649 173 650 172 650C166 650 154 636 154 629C154 621 171 608 171 602C171 600 169 599 165 599C155 599 138 603 131 603C122 603 114 582 114 580C114 579 115 579 116 579C117 579 120 580 123 582L132 587L148 572C159 562 165 558 165 553C165 550 160 547 160 545C160 544 161 544 163 544ZM834 598C833 598 829 603 829 607C829 612 835 618 840 618C842 618 845 618 845 616C845 611 837 598 834 598ZM519 533C508 533 496 544 496 555C496 563 510 573 520 573C528 573 537 565 537 559C537 556 533 533 519 533ZM708 532C705 532 690 533 690 551C690 566 696 570 705 570C715 570 724 565 724 553C724 543 718 532 708 532ZM230 532C218 532 212 540 212 548C212 558 219 568 233 568C243 568 252 566 252 550C252 539 243 532 230 532ZM332 532C324 532 316 538 316 547C316 553 319 566 333 566C335 566 352 565 352 553C352 547 348 532 332 532ZM425 532C414 532 409 539 409 546C409 555 417 565 428 565C434 565 446 559 446 550C446 543 437 532 425 532ZM504 28C284 28 157 207 157 375C157 461 192 541 197 541C199 541 206 533 206 527C206 518 188 513 188 495C188 476 206 460 223 460C234 460 239 469 244 469C245 469 245 451 245 425V372L243 276L251 251C256 236 263 221 269 213C288 188 330 163 374 163C405 163 438 176 462 209C496 255 502 287 503 413V464H519C526 464 528 460 557 392L574 352L559 309C531 236 525 219 525 218C525 216 476 220 476 180C476 155 497 139 522 139C533 139 556 160 556 175C556 199 537 209 537 211C537 216 578 329 581 329C583 329 621 248 621 243C621 242 626 232 632 219C637 209 640 201 642 195C648 181 649 178 656 178C670 178 678 211 684 236C687 250 690 262 693 262C696 262 699 253 699 248C699 241 717 196 759 196C791 196 804 223 807 223C808 223 809 222 809 222C809 209 707 28 504 28ZM788 496C780 496 766 508 766 515C766 526 777 536 788 536C798 536 805 530 805 519C805 508 798 496 788 496ZM223 473C212 473 201 484 201 497C201 507 213 519 221 519C225 519 228 517 237 517C242 517 243 516 243 509C243 487 240 473 223 473ZM282 492C262 492 258 493 258 510V512C258 517 259 518 285 518C324 518 324 517 324 508C324 494 321 492 282 492ZM382 491C345 491 336 491 336 500C336 504 338 509 340 517H427L425 491ZM486 489 463 490C442 491 438 490 438 507C438 516 443 517 465 517C488 517 491 516 491 512C491 509 490 504 489 500ZM519 477C505 477 503 484 503 496C503 509 510 517 518 517C527 517 534 504 534 499C534 497 528 477 519 477ZM579 373C576 373 539 459 539 471C539 483 549 485 549 497C549 500 548 503 547 507L544 517H581C600 517 604 516 604 502C604 482 589 482 589 478C589 476 593 475 602 475C609 475 615 474 615 472C615 465 582 373 579 373ZM657 195C656 195 653 201 650 208L616 284C600 319 588 345 588 356C588 359 589 361 591 362C596 365 592 367 604 397L619 439C631 473 632 474 643 474C650 474 654 477 654 479C654 480 652 481 649 481C641 481 637 487 637 501V503C637 513 637 516 658 516C668 516 681 515 681 513C681 510 675 502 675 493C675 478 696 467 705 467C719 467 732 484 732 495C732 503 729 508 729 511C729 514 731 516 740 516C750 516 752 514 753 509C754 500 769 487 779 486C785 485 787 484 787 482C787 477 785 471 785 431V426C785 405 785 397 772 397C750 397 717 368 702 336C691 312 681 275 674 245C667 217 661 195 657 195ZM705 476C695 476 689 487 689 495C689 506 698 512 706 512C714 512 720 506 720 495C720 484 713 476 705 476ZM788 270C779 270 771 284 771 301C771 325 785 373 814 373C817 373 820 372 823 372C827 372 828 375 828 378C828 381 825 383 809 392C801 397 798 397 798 411C798 454 801 487 810 500C814 506 818 511 819 511C822 511 847 441 847 388C847 353 841 316 834 314C820 309 824 279 790 270ZM488 447 376 449C314 450 263 451 261 452C260 453 258 461 258 467C258 473 259 478 260 479C261 480 290 481 331 481C345 481 359 480 375 480L487 479C489 472 491 469 491 464C491 460 490 455 488 447ZM287 401 260 404 259 417V421C259 438 262 438 291 438H320L321 420V413C321 401 319 401 311 401ZM383 401C373 401 364 402 356 402L333 403V416C333 434 335 437 362 437C383 437 421 435 423 435C425 434 427 428 427 418V403L403 402C397 402 390 401 383 401ZM440 404 439 416C438 419 438 422 438 424C438 434 441 436 454 436C457 436 461 436 465 435H488V404ZM371 176C354 176 338 180 326 186C274 212 259 242 259 323V337L260 386L273 388C280 389 287 391 292 391C295 391 298 390 298 387C298 382 289 375 289 365C289 351 302 338 322 338C341 338 354 350 354 367C354 378 350 382 350 385C350 388 353 388 360 388H373L371 346C370 322 369 303 368 302C368 301 357 300 350 300C323 300 322 324 311 324C307 324 304 316 304 280C304 268 305 262 308 262C317 262 326 288 342 288C371 288 371 282 371 278C371 249 312 224 312 218C312 214 328 213 352 213H371C415 213 415 212 426 212C436 212 440 214 440 216C440 219 437 222 427 226C413 232 382 263 382 272C382 280 390 289 398 289C412 289 430 260 434 260C439 260 441 276 441 293C441 319 438 326 435 326C431 326 427 321 420 309C415 302 413 301 399 301H395C384 301 383 302 383 326V363C383 387 384 391 396 391C398 391 409 390 409 387C409 383 399 376 399 364C399 358 406 337 433 337C456 337 462 356 462 367C462 377 459 378 459 383C459 388 464 390 475 390H488V365C488 200 418 176 371 176ZM765 209C720 209 708 276 708 280C708 294 723 345 729 354C750 383 772 391 788 391C804 391 808 384 808 382C808 380 805 379 796 376C769 365 756 329 756 300C756 281 762 256 784 256C802 256 812 275 819 275C820 275 820 274 820 273C820 265 806 239 793 226C779 210 777 209 765 209ZM321 345C305 345 302 365 302 369C302 383 312 390 315 390C318 390 317 364 323 364C326 364 330 386 334 386C336 386 342 380 342 369C342 347 326 345 321 345ZM428 344C418 344 411 354 411 365C411 375 419 388 425 388C428 388 430 384 430 377C430 370 431 367 434 367C437 367 438 370 438 376C438 382 440 385 442 385C446 385 451 376 451 366C451 349 433 344 428 344ZM519 154C501 154 489 165 489 178C489 190 497 204 512 204C524 204 540 200 540 179C540 167 535 154 519 154ZM145 127C146 127 146 128 146 130V140C146 150 183 172 183 172C185 172 192 164 195 164C196 164 197 164 197 165C197 172 180 200 175 200C173 200 173 198 173 196C173 193 174 190 174 189C174 185 170 181 155 171L136 157C129 166 124 171 121 171C120 171 120 170 120 169C120 158 139 127 145 127ZM843 113C853 113 880 155 880 168C880 173 863 181 858 181C856 181 856 180 856 180C856 176 864 158 864 151C864 150 864 148 862 148C859 148 822 171 822 183C822 188 821 190 820 190C814 190 799 167 799 165C799 164 800 163 802 163C805 163 806 164 810 164C824 164 851 138 851 136C849 133 826 132 826 125C826 120 840 113 843 113ZM472 -58C476 -58 487 -57 494 -57C497 -57 498 -56 498 -56C498 -55 490 -51 490 -43C490 -34 494 -32 513 -32C519 -32 520 -34 520 -39C520 -49 509 -53 509 -55C509 -56 512 -57 524 -57C535 -57 543 -55 543 -52C543 -49 534 -55 534 -25C534 2 539 1 539 3C539 5 537 6 532 6C527 6 513 4 513 2C513 0 520 -6 520 -14C520 -17 517 -21 505 -22L492 -23V-13C492 0 501 1 501 2C501 3 494 6 486 6C478 6 470 3 470 0C470 -1 478 -2 478 -29C478 -60 465 -50 465 -57C465 -58 468 -58 472 -58Z" fill="#f59e0b" stroke="none"/>
  </g>
</svg>