<svg xmlns="http://www.w3.org/2000/svg" viewBox="-50 -50 1100 1100">
  <g transform="translate(0, 1000) scale(1, -1)">
    <path d="M499 -93C550 -93 569 -92 588 -88C655 -73 684 -56 688 -56C688 -56 966 42 966 384C966 416 964 448 960 468C911 713 709 854 513 854C438 854 361 838 355 834C341 824 179 779 87 600C49 526 34 462 34 374C34 202 128 66 218 0C240 -17 276 -41 278 -41C282 -41 288 -44 297 -49C324 -63 378 -93 499 -93ZM497 -89C229 -89 40 140 40 379C40 533 119 685 256 776C310 811 399 841 429 841C436 841 442 842 449 843C461 845 476 848 505 848C697 848 824 713 824 713C828 701 958 588 958 376C958 278 929 156 821 43C757 -24 637 -89 497 -89ZM500 -77H513C557 -77 636 -74 753 -1C862 67 951 215 951 383C951 609 775 838 503 838C434 838 355 832 251 763C146 693 48 555 48 378C48 189 164 9 358 -57C405 -72 439 -77 500 -77ZM504 -68C382 -68 229 -17 133 132C121 150 106 175 106 177C106 177 59 266 59 383C59 510 126 618 133 628L152 653C170 678 217 724 244 744C327 807 437 829 502 829C569 829 622 810 641 806C656 802 716 772 745 752C836 691 938 565 938 383C938 140 769 20 765 20C757 20 654 -68 504 -68ZM469 744C478 750 483 752 487 752C495 752 497 745 504 745C511 745 526 755 526 765C526 783 488 796 488 805C488 809 494 815 500 815C507 815 515 809 515 800C515 795 517 791 520 791C523 791 526 798 526 807C526 815 524 822 521 822C520 822 520 819 514 819C511 819 507 820 502 820C482 820 477 802 477 798C477 790 487 784 496 777C506 770 515 764 515 757C515 754 512 753 509 753C500 753 482 762 480 770C479 773 479 775 478 775C475 775 472 768 470 757ZM500 18C575 18 625 41 643 48C684 63 757 121 787 162C833 224 856 301 856 378C856 489 809 602 708 676C687 692 632 721 607 729C585 735 547 743 502 743C292 743 144 568 144 377C144 321 157 173 313 68C360 37 434 18 500 18ZM565 388 513 390 512 426C511 433 511 439 511 444C511 491 529 476 529 488C529 492 527 495 488 495C471 495 467 490 467 486C467 484 471 482 476 482C479 482 485 476 490 469C498 458 499 455 499 434V414C499 394 498 390 485 390C478 390 451 391 448 393C447 394 446 408 446 427C446 480 449 481 462 485C463 485 464 488 463 491C461 494 449 496 436 496C420 496 401 494 401 490C401 483 433 486 434 449V436C434 414 433 393 432 392C431 391 421 391 407 391C331 391 331 393 331 395C331 413 350 568 391 568C398 568 403 557 403 546C403 535 399 526 393 526C388 526 383 533 383 542V546C383 550 382 553 380 553C375 553 372 544 372 538C372 527 381 518 392 518C405 518 414 532 414 547C414 564 405 580 393 580C382 580 361 562 352 545C340 521 325 464 320 414L318 392H271V434C271 543 243 562 225 562C216 562 209 557 205 557C204 557 203 557 203 558C203 563 283 696 439 725C456 728 481 729 506 729C532 729 560 728 574 724C629 710 679 685 718 651C755 617 799 566 799 555C799 554 795 553 789 553C760 553 745 499 745 486L733 391C732 390 723 389 711 389C700 389 688 390 688 394C688 395 689 412 689 450C689 544 684 575 648 575C629 575 616 562 616 541C616 524 629 509 638 509C646 509 657 522 657 534C657 541 653 547 647 547C645 547 645 545 645 541C645 538 646 533 646 528C646 523 644 518 637 518C630 518 625 527 625 538C625 551 632 566 649 566C661 566 676 565 676 467C676 442 675 418 674 412L672 390L641 388V401C641 425 622 427 617 427C605 427 595 417 595 401V396C595 390 594 389 590 389C587 389 584 389 579 390L578 465L592 477C599 484 604 489 604 491C604 494 585 494 571 494C545 494 539 493 539 491C539 487 545 482 549 482C550 482 567 472 567 442C567 434 566 420 565 400ZM191 582C195 607 214 604 214 618C214 625 208 634 197 634C188 634 169 624 160 624C156 624 154 626 154 629C154 635 159 637 168 637C175 637 178 638 178 641C178 644 166 655 160 655C159 655 158 654 158 652C158 651 159 650 159 648C159 640 146 638 146 626C146 618 151 610 162 610C172 610 188 621 196 621C200 621 202 619 202 613C202 604 174 601 174 600C174 599 176 597 182 592ZM830 551C832 551 832 552 832 556C832 562 838 572 845 583C852 595 859 608 859 615C859 619 857 620 854 620C845 620 826 610 810 610C798 610 793 615 789 615C788 615 787 615 787 613C787 607 802 586 806 586C810 586 808 604 815 604C821 604 830 593 830 584C830 579 827 575 823 575C821 575 819 576 816 576C814 576 813 575 813 573C813 568 827 551 830 551ZM837 595C833 595 830 601 830 605C830 609 835 610 839 610C842 610 845 609 845 608C845 602 841 595 837 595ZM218 391 210 403C204 413 196 418 187 418C173 418 165 410 159 410C158 410 157 411 157 415C157 447 183 527 188 527C189 527 190 526 190 523C190 511 205 503 208 503C212 503 228 514 228 526C228 530 224 541 218 541C216 541 215 540 215 538C215 535 217 531 217 526C217 519 213 512 208 512C201 512 199 524 199 529C199 544 208 552 219 552C234 552 258 534 258 453V393ZM751 386 753 419C757 479 767 526 778 540C781 543 785 544 789 544C799 544 805 540 805 522C805 512 803 505 798 505C795 505 791 511 791 518C791 522 792 525 792 527C792 528 792 529 789 529C783 529 779 522 779 514C779 505 784 496 797 496C804 496 807 498 812 509L816 521L821 508C838 461 843 419 843 405C843 401 843 401 842 401C839 401 836 409 817 409C803 409 798 403 793 398C787 392 782 386 767 386ZM618 390C612 390 607 395 607 402C607 412 611 418 616 418C624 418 634 404 634 401C634 396 625 390 618 390ZM183 362C177 362 163 378 163 385C163 394 176 406 185 406C190 406 205 396 205 384C205 371 187 362 183 362ZM815 356C807 356 797 367 797 377C797 389 808 400 819 400C828 400 837 395 837 383C837 371 827 356 815 356ZM493 28C286 28 182 224 182 245C184 245 196 236 211 236C225 236 239 244 249 273C256 294 269 354 269 365C269 374 271 379 273 379C281 379 283 376 283 310V247L272 236C265 230 263 227 263 221C263 202 273 188 289 188C303 188 317 200 317 215C317 231 304 244 299 244C297 244 296 258 296 286V311L297 378L316 380V347C316 253 342 239 358 239C375 239 391 257 391 274C391 286 381 298 371 298C359 298 353 282 353 271C353 263 356 260 358 260C361 260 364 265 364 272C364 282 368 290 372 290C376 290 380 284 380 276C380 262 369 247 357 247C334 247 328 310 328 346C328 357 329 364 329 368L332 379L432 378L434 308C422 300 406 293 406 276C406 266 412 241 436 241C454 241 465 259 465 279C465 297 460 300 454 303C450 306 445 309 445 322C445 327 445 334 446 343L447 378H481C498 378 499 377 499 355V342L498 312L485 299C476 289 473 284 473 276C473 265 483 247 492 247C498 247 505 245 507 245C517 245 529 260 529 273C529 285 525 295 517 301C512 304 512 309 512 340V376L530 377H544C556 377 561 376 565 375L563 309L553 299C543 290 541 287 541 276C541 259 554 248 566 248C584 248 595 269 595 279C595 290 588 297 583 301C578 304 577 309 577 340V376H598L597 363C596 360 596 359 596 357C596 346 606 337 617 337C629 337 640 347 640 360V365L638 376H652C666 376 667 376 667 369C667 334 652 263 643 251C641 248 636 247 631 247C617 247 610 257 610 267C610 277 618 285 623 285C626 285 628 283 628 278L627 271C627 267 628 265 630 265C634 265 639 272 639 279C639 290 631 298 625 298C615 298 602 279 602 266C602 249 614 235 629 235C666 235 670 284 675 324C677 352 680 376 692 376C694 376 698 375 702 375L703 259L693 253C682 246 677 237 677 229C677 212 692 196 708 196C727 196 738 218 738 232C738 250 718 258 715 260L717 316C718 363 718 374 725 374C731 374 732 358 734 337C737 299 743 243 779 243C797 243 811 264 811 281C811 295 802 307 791 307C784 307 769 301 769 282C769 273 771 269 776 269C779 269 781 272 781 276C781 289 784 295 791 295C798 295 802 288 802 280C802 269 793 252 779 252C754 252 747 323 747 355C747 372 751 376 760 376C773 376 781 373 783 366C786 355 802 347 815 347C831 347 837 358 842 358C844 358 845 355 845 350C845 320 822 246 803 210C784 174 739 125 699 96C677 80 625 52 615 52C613 52 609 51 609 50C604 41 533 28 493 28ZM208 245C197 245 190 265 190 274C190 282 196 289 201 289C206 289 210 283 210 276C210 271 209 271 209 267C209 264 210 263 211 263C213 263 222 269 222 278C222 289 213 301 199 301C180 301 175 268 175 268C171 268 155 341 155 359C155 363 155 363 156 363C160 363 178 353 187 353C195 353 213 365 214 372C215 379 216 379 235 379C255 379 256 379 256 372C256 351 237 276 229 261C224 252 215 245 208 245ZM620 344C614 344 606 353 606 361C606 368 612 374 618 374C625 374 632 368 632 359C632 352 626 344 620 344ZM437 256C428 256 420 264 420 275C420 281 423 296 438 296C447 296 457 289 457 278C457 270 448 256 437 256ZM567 260C560 260 552 268 552 276C552 285 560 295 565 295C572 295 583 285 583 276C583 267 575 260 567 260ZM503 258C498 258 487 260 487 277C487 290 493 294 500 294C506 294 521 291 521 276C521 267 513 258 503 258ZM710 210C707 210 694 213 694 223C694 233 698 250 710 250C718 250 727 242 727 232C727 221 719 210 710 210ZM292 199C283 199 275 207 275 218C275 226 280 235 289 235C298 235 308 229 308 219C308 211 302 199 292 199ZM797 115C802 115 800 155 813 155C817 155 843 137 843 126V118C843 116 843 115 844 115C848 115 864 138 864 141C864 141 863 142 862 142C859 142 858 141 856 141C848 141 825 163 825 167C825 170 831 176 831 183C831 186 829 188 826 188C822 188 818 172 788 142L780 134L787 124C791 119 796 115 797 115ZM176 109C198 109 214 128 214 145C214 169 187 175 180 175C168 175 143 156 143 133C143 129 155 109 176 109ZM170 124C162 124 159 130 159 137C159 151 173 165 187 165C195 165 199 157 199 151C199 135 179 124 170 124ZM525 -64C533 -64 541 -63 544 -63L558 -61C542 -53 541 -57 541 -31C541 -2 550 -10 550 -5C550 -4 548 -2 545 -2H543C524 -4 510 -4 499 -4C479 -5 473 -5 473 -18C473 -23 474 -25 477 -25C485 -25 485 -11 504 -11C505 -11 507 -12 510 -12L524 -13L525 -35C526 -40 526 -44 526 -48C526 -66 516 -58 516 -62C516 -64 521 -64 525 -64Z" fill="#f59e0b" stroke="none"/>
  </g>
</svg>