<svg xmlns="http://www.w3.org/2000/svg" viewBox="-50 -50 1100 1100">
  <g transform="translate(0, 1000) scale(1, -1)">
    <path d="M479 -95C564 -95 647 -95 757 -18C781 -1 826 9 912 154C948 215 968 331 968 400C968 415 967 429 965 439L948 504C939 539 911 603 885 642C856 687 798 743 751 776C688 819 593 854 488 854C217 854 31 624 31 381C31 146 208 7 208 7C209 7 216 2 222 -4C239 -19 240 -12 255 -25C300 -61 420 -91 422 -92C426 -94 450 -95 479 -95ZM496 -89C461 -89 432 -85 415 -81L376 -71C204 -30 41 169 41 360C41 366 42 370 42 372C42 375 41 389 41 400C41 431 43 442 49 472C98 704 283 846 488 846C559 846 631 829 701 794C835 727 887 617 894 609C900 602 942 500 942 491C942 491 942 489 941 489C941 486 957 444 957 377C957 156 809 31 778 9C757 -7 698 -44 695 -44C686 -44 633 -89 496 -89ZM502 -80C622 -80 657 -47 668 -47C673 -47 710 -29 723 -21C783 19 826 59 826 61C826 62 832 69 840 78C853 93 871 114 871 118C871 121 890 147 893 151L902 170C915 195 934 244 937 262L943 298C946 313 948 344 948 374C948 478 926 550 868 638C834 689 776 740 768 746C678 809 588 839 492 839C227 839 47 615 47 380C47 155 225 -80 502 -80ZM483 -69 464 -67C237 -45 135 121 107 181L93 213C87 226 60 293 60 382C60 602 230 827 492 827C752 827 937 605 937 387C937 194 844 101 831 85C791 38 719 -13 655 -38L629 -49C594 -64 544 -66 517 -66H498C510 -64 523 -52 523 -41C523 -26 493 -18 493 -8C493 -6 495 -5 497 -5C507 -5 521 -16 525 -16C528 -16 530 -9 530 -4C530 1 528 7 524 7C517 7 523 -1 509 -1H499C488 -1 479 -2 479 -16C479 -21 494 -37 505 -41C510 -43 512 -46 512 -48C512 -51 508 -54 501 -54C482 -54 491 -40 485 -40C483 -40 481 -45 481 -52V-57ZM485 757C493 757 499 758 499 760C499 762 497 763 494 763C491 763 490 765 491 772C492 779 492 779 510 780C514 780 531 788 531 800C531 808 524 819 493 819C488 819 464 818 464 815C464 813 468 812 473 812C477 812 478 813 479 813C480 813 481 811 481 803C481 800 481 795 480 789C479 759 472 763 472 761C472 759 478 757 485 757ZM504 787C494 787 490 791 490 802C490 809 496 814 503 814C513 814 519 805 519 797C519 791 514 787 504 787ZM513 15C529 15 545 16 554 17C650 31 704 82 708 82C714 82 856 192 856 375C856 478 812 548 812 550C812 552 715 743 492 743C383 743 273 693 203 586C149 504 142 439 142 379C142 297 171 239 187 207L196 187L185 194C177 199 171 201 165 201C155 201 131 190 131 168C131 150 138 142 157 142C178 142 199 155 199 173C199 178 197 181 197 182C197 183 198 184 198 184C206 184 266 55 438 20C453 17 485 15 513 15ZM500 27C395 27 308 89 298 96C281 109 238 151 238 153C238 154 246 154 258 154H274C322 154 337 169 346 169C347 169 348 168 348 168C348 166 344 160 344 153C344 135 366 113 385 113C405 113 421 138 421 152C421 156 422 160 423 160C428 160 466 144 496 144C524 144 534 159 534 169C534 194 477 204 455 204C446 204 448 202 444 202C442 202 441 203 441 205C441 211 465 245 477 245C482 245 484 242 492 242C510 242 524 263 524 279C524 298 504 301 504 306C504 308 724 453 726 453C728 450 730 439 741 439C745 439 748 439 748 438C748 434 744 429 744 422C744 413 753 400 771 400C795 400 828 424 828 436C828 438 827 438 825 438C819 438 813 433 805 427C796 419 784 410 772 410C763 410 758 414 758 419C758 429 773 439 786 449C797 457 808 464 808 470C808 472 806 475 801 475C789 475 775 448 751 448C742 448 738 453 738 457C738 465 752 475 766 485C778 493 790 501 790 507C790 509 789 511 787 511C783 511 776 506 767 499C755 491 740 480 729 480C722 480 718 484 718 487C718 495 731 505 744 514C757 524 771 534 771 543C771 546 771 547 770 547C764 547 752 535 751 535C745 535 717 508 701 508C694 508 692 515 692 518C692 530 711 557 728 565C742 572 752 580 752 584C752 586 749 587 747 587C735 587 679 548 679 524C679 520 680 516 682 511C691 490 703 507 703 490C703 476 718 474 718 469C718 467 716 466 682 444C677 441 672 437 665 433C649 423 629 409 602 392C599 392 598 396 597 406C596 431 579 454 563 454C553 454 560 459 540 459C515 459 501 467 501 482C501 504 521 509 541 514C553 516 565 519 573 526C581 530 583 532 583 539C583 588 553 583 487 585C451 586 421 587 421 588C421 588 435 606 435 624C435 646 410 659 395 659C380 659 354 646 354 625C354 609 370 593 370 588C370 587 368 587 364 587C359 587 352 587 343 588C329 589 310 590 291 590C228 590 212 577 212 560C212 547 216 525 248 525H253C260 525 267 524 275 524C280 523 289 506 289 497C289 487 282 473 275 471C264 467 215 466 196 443C191 438 185 412 185 400C185 382 188 379 235 379H256C304 379 304 379 304 376C304 372 302 359 298 345L292 314L279 316H275C258 316 246 301 246 285C246 261 271 250 277 250C284 250 296 259 301 259C304 259 305 255 311 245C318 231 327 223 327 220C327 216 318 215 293 215C263 215 260 215 248 207C230 195 226 179 221 179C219 179 217 181 214 188C207 204 156 258 156 387C156 579 308 730 485 730C510 730 535 728 551 726C716 696 790 566 802 541L815 514C827 489 842 435 842 379C842 245 772 173 772 166C772 161 715 105 697 92C625 41 554 27 500 27ZM167 565C170 565 186 581 186 587C186 588 186 589 184 589C183 589 182 588 181 588H179C171 588 158 597 158 602C158 609 200 603 200 614C200 625 171 634 171 644C171 648 172 650 172 653C172 656 171 657 170 657C166 657 157 649 157 644C157 634 181 625 181 618C181 617 178 616 172 616C169 616 164 616 159 617L137 619L129 609C124 602 121 596 121 594C121 593 122 592 122 592C126 592 133 603 136 603C141 603 168 585 168 574C168 572 166 565 167 565ZM397 593C380 593 370 604 370 621C370 639 376 646 393 646C413 646 421 630 421 622C421 601 411 593 397 593ZM825 568C841 568 854 580 862 580C866 580 867 577 871 577C872 577 873 577 873 579C873 585 861 604 855 604C854 604 854 602 854 599V595C854 583 833 575 823 575C812 575 810 583 810 587C810 597 825 615 837 615C843 615 844 610 847 610C848 610 849 611 849 612C849 620 836 640 828 640C827 640 826 640 826 639C826 637 827 636 827 634C827 625 797 606 797 587C797 580 812 568 825 568ZM251 536C235 537 227 545 227 557C227 570 240 578 251 578C263 578 265 571 265 554V550L264 536ZM388 202C372 202 310 230 310 311C310 348 322 380 322 386C322 393 322 393 288 394C268 395 253 395 242 395C203 396 202 396 202 404V406C202 445 225 450 240 452C271 456 305 471 305 497C305 512 296 525 284 529C278 531 276 541 276 551C276 563 279 574 279 574C279 575 289 575 302 575C332 575 383 574 388 572C390 571 391 561 391 526V484L390 399L373 398C370 398 354 396 354 394C354 390 361 384 369 378C380 370 391 362 391 354C391 340 388 337 377 337C356 337 343 367 334 367C331 367 330 365 330 361C330 356 331 347 331 333V329C331 300 333 292 339 292C350 292 354 323 375 323C378 323 391 322 391 316C391 294 359 271 359 264C359 261 365 259 379 259C386 259 392 258 399 257C408 256 416 255 422 255C429 255 434 256 434 260C434 266 403 293 403 314C403 318 405 321 410 321C416 321 434 309 434 303C434 300 442 291 447 291C452 291 454 299 454 316C454 344 451 363 446 363C444 363 422 333 410 333C406 333 403 337 403 349C403 361 404 362 432 386L440 394H426C405 394 403 396 403 419V444C403 455 403 469 404 485V572L462 571L520 569C521 568 521 558 522 546L523 524L510 517C496 510 484 497 484 484C484 479 485 473 489 468C503 449 523 446 541 444C564 440 583 437 583 406C583 396 580 385 576 384H521L468 383C470 362 472 327 472 314C472 257 430 202 388 202ZM547 526C537 526 535 531 535 550C535 566 536 570 543 570C546 570 568 568 568 547C568 539 563 526 547 526ZM487 318C485 318 481 346 481 363V365C481 371 483 371 515 371C524 371 564 370 564 368C564 362 493 318 487 318ZM275 263C267 263 263 276 263 286C263 302 269 307 277 307C291 307 295 284 295 280C295 270 281 263 275 263ZM488 253C482 253 479 256 479 263C479 275 484 297 495 297C502 297 511 289 511 280C511 277 507 253 488 253ZM259 166C247 166 245 168 234 177L245 187C261 201 281 205 301 205C330 205 357 194 357 189C357 180 303 166 259 166ZM844 130C853 130 883 159 883 167C883 170 883 171 882 171C880 171 875 165 870 165C867 165 863 167 854 174C839 185 829 187 829 192C829 195 828 197 826 197C822 197 815 189 815 182C815 173 834 178 834 165C834 163 832 161 829 161C824 161 817 164 810 164C792 164 788 144 788 136C788 132 790 131 792 131C795 131 799 136 799 142C799 151 804 153 808 153C829 153 826 130 844 130ZM499 155C476 155 409 181 409 188C409 192 426 194 446 194C500 194 517 179 517 169C517 163 512 155 499 155ZM159 151C150 151 144 157 144 165C144 180 161 187 172 187C178 187 187 185 187 177C187 168 176 151 159 151ZM385 125C373 125 360 139 360 153C360 169 371 178 384 178C396 178 405 169 405 153C405 142 399 125 385 125ZM849 142C843 142 839 145 839 149C839 151 840 156 846 156C852 156 858 151 858 147C858 144 855 142 849 142Z" fill="#f59e0b" stroke="none"/>
  </g>
</svg>