<svg xmlns="http://www.w3.org/2000/svg" viewBox="2 -121 996 1001">
  <g transform="translate(0, 759) scale(1, -1)">
    <path d="M493 -91C580 -91 639 -65 669 -51C679 -46 686 -43 690 -43C705 -43 818 29 855 85C868 105 878 117 886 128C898 143 906 154 918 177C935 212 968 318 968 364C968 388 965 410 965 410C966 411 966 412 966 413C966 417 961 417 961 432C961 450 953 485 953 492V494C953 494 943 558 887 642C875 661 864 689 815 731C776 764 697 807 697 808C689 817 574 850 492 850C447 850 416 841 389 834C375 830 362 826 350 825C332 823 337 818 329 818C315 818 177 743 129 668C36 522 33 452 33 378V361C33 351 32 340 32 330C32 289 36 250 73 174L88 143C102 114 161 42 190 19C283 -52 372 -91 493 -91ZM491 -84C345 -84 259 -20 235 -8C202 10 143 78 143 78C86 137 54 237 46 266C41 286 38 323 38 359C38 401 41 439 43 445L51 485C60 527 99 611 131 658C146 679 219 752 270 780L286 790C308 803 346 818 367 822L415 833C442 840 490 845 509 845C558 845 685 809 697 798C700 796 707 791 714 788C849 716 872 650 889 624C940 546 948 494 958 400C959 391 960 382 960 373C960 311 927 193 880 130C880 129 874 120 867 111L836 75C764 -14 637 -84 491 -84ZM503 -78C560 -78 613 -68 706 -24C756 0 953 138 953 381C953 433 944 478 937 512C929 555 874 640 874 640C874 647 831 707 765 752C741 769 664 809 652 811C652 811 573 838 492 838C438 838 346 813 336 809C281 786 235 756 188 711L154 679C132 657 102 608 80 555C50 482 42 447 42 369C42 268 51 236 107 133C128 96 184 37 235 -2C250 -13 316 -46 344 -56C359 -62 394 -78 503 -78ZM498 -68C475 -68 459 -65 450 -64C367 -57 350 -47 290 -17C246 5 210 18 132 116C118 133 79 205 79 214C79 222 75 212 58 277C55 289 54 334 54 373C54 394 54 413 55 425C68 559 156 673 166 676C170 677 178 685 188 696C206 714 232 741 265 761C284 773 337 799 346 801C354 802 440 828 489 828C550 828 658 806 693 780C708 770 787 737 841 668C863 640 874 624 874 622C874 620 923 544 932 490L938 443C941 426 943 398 943 372C943 353 942 336 940 327L932 287C914 206 883 148 822 84C757 14 717 -13 646 -38C576 -62 530 -68 498 -68ZM535 754C537 754 538 754 538 755C538 759 529 755 529 774C529 798 537 813 537 813C537 815 534 815 526 815C515 815 514 815 508 801C505 794 501 788 499 788C492 788 479 818 465 818C461 818 456 815 456 814C456 810 467 806 467 785C467 760 454 763 454 757C454 756 455 756 458 756C464 756 474 758 474 761V765C474 770 475 788 479 788C482 788 490 765 495 765C500 765 515 800 518 800C519 800 519 797 519 792C519 768 516 764 516 761C516 757 528 754 535 754ZM504 18C534 18 573 26 580 27C631 48 727 82 794 186C813 216 836 264 843 288C846 299 848 306 850 311C855 327 857 332 857 380V386C857 474 838 484 838 499C838 504 822 540 813 555C779 614 749 639 723 661C714 668 706 675 699 682C687 693 603 741 499 741C484 741 470 740 454 738C360 725 295 677 293 677C291 677 276 664 260 648C195 587 163 510 163 506C163 503 162 499 160 498C146 483 139 371 139 360C139 240 206 167 222 145C254 98 336 53 368 40C395 30 451 18 504 18ZM496 32C444 32 352 53 340 67C336 71 276 92 224 162C195 201 185 217 185 222C185 229 172 239 172 244C172 253 152 291 152 338C152 348 153 353 153 353C156 353 171 338 178 338C187 338 198 347 204 357L210 367L278 369L277 297C277 253 276 224 274 224C272 224 267 233 256 233C242 233 228 219 228 203C228 182 251 175 251 167C251 163 248 162 248 153C248 136 268 122 276 122C285 122 311 136 311 154C311 163 306 171 306 175C306 178 307 179 311 179C328 179 340 201 340 212C340 220 324 238 311 238C297 238 301 233 293 233C290 233 289 236 289 259C289 373 292 370 303 372C308 373 317 374 327 374C342 374 346 373 346 371C346 368 339 362 339 354C339 331 360 323 360 316C360 313 358 310 358 306C358 296 374 278 390 278C405 278 418 296 418 310C418 318 420 321 426 325C436 331 442 347 442 357C442 369 434 366 434 372C434 375 457 379 471 379H473C480 379 480 378 480 360C480 342 479 311 477 275L475 248C479 247 483 246 487 246C499 246 578 306 578 306C593 319 613 322 613 326C613 328 615 329 617 329C622 329 627 341 633 341C638 341 667 367 676 367C685 367 719 322 719 321C719 319 725 312 732 305C739 297 747 289 747 286C747 284 715 270 715 241C715 222 729 203 753 203C794 203 811 253 811 266C811 268 811 269 810 269C805 269 795 215 758 215C740 215 729 233 729 243C729 276 773 281 773 286C773 290 766 293 765 293C761 293 747 307 741 319C735 331 724 342 713 352C700 366 688 378 688 389C688 397 720 487 722 488C729 493 739 498 739 502C739 508 683 509 683 545C683 571 704 571 722 571C750 571 756 569 772 539C775 533 779 537 779 541C779 544 767 587 720 587H716C704 587 668 586 668 543C668 539 668 531 700 505L710 498L699 471C692 451 686 432 682 417C678 403 675 392 672 389C661 375 506 271 494 271C491 271 490 285 490 294C490 308 491 312 492 315C494 320 495 324 495 346V378L522 377C548 376 549 376 562 364C570 357 577 353 585 353C594 353 615 364 615 381C615 418 592 421 585 421C576 421 568 416 560 406L549 395L495 397L496 445C497 482 497 504 497 519V527C497 536 496 548 487 548C484 548 485 542 478 542C475 542 473 540 473 539C473 537 470 536 467 536C460 536 425 512 422 512C422 512 348 467 342 467C339 467 221 393 221 393L211 385L201 397C194 405 190 406 185 406C157 406 154 392 150 392C150 392 149 392 149 394C149 404 162 483 171 496C179 508 205 609 320 680C338 691 419 729 487 729C561 729 657 702 699 663C711 651 748 630 785 579C826 523 830 482 832 473C842 433 845 402 845 377C845 329 832 308 832 302C832 286 812 235 794 205C717 76 577 32 496 32ZM155 526C161 526 166 545 172 549C175 551 176 552 176 554C176 555 174 556 172 556C170 556 169 555 167 555C161 555 157 563 157 573C157 578 160 581 164 581C172 581 177 571 181 571C184 571 193 590 193 593C193 595 192 596 191 596C188 596 180 591 168 591H152L149 608C146 625 146 633 143 633C140 633 127 610 127 606C129 606 134 611 139 611C143 611 146 609 146 599C146 578 123 585 109 581C107 581 98 565 98 562C98 561 99 561 100 561C105 561 124 571 141 571C141 571 142 572 144 572C147 572 154 569 154 548C154 536 150 533 150 530C150 528 153 526 155 526ZM854 488C854 488 856 490 857 495C859 503 870 516 880 528C890 539 899 551 899 556C899 559 896 560 891 560C886 560 877 559 868 558C858 557 847 556 840 556C830 556 824 560 822 560C820 560 820 559 820 556C820 554 823 548 826 542L832 532C838 538 843 544 848 544C855 544 861 530 861 524C861 519 858 516 854 516C849 516 845 518 843 518C842 518 842 516 842 516C842 515 851 488 854 488ZM868 532C865 532 863 538 863 542C863 547 867 548 871 548C873 548 879 547 879 545C879 541 871 532 868 532ZM232 384C232 386 239 390 251 397L280 415C291 423 337 448 381 471C387 475 394 478 400 481C437 501 469 519 473 523C475 525 477 526 478 526C481 526 483 517 483 502C483 489 482 474 481 454L480 396L465 394C436 392 455 390 366 388C312 387 232 384 232 384ZM592 366C584 366 562 370 562 387C562 398 572 408 584 408C592 408 604 404 604 385C604 375 599 366 592 366ZM180 353C169 353 160 361 160 376C160 387 169 395 180 395C191 395 199 385 199 374C199 361 189 353 180 353ZM385 370C382 373 383 374 389 374C398 374 391 364 385 370ZM415 335C407 335 398 345 398 355C398 363 408 371 416 371C426 371 432 362 432 357C432 351 425 335 415 335ZM361 333C355 333 350 337 350 347C350 359 356 366 365 366C374 366 382 360 382 352C382 343 371 333 361 333ZM388 291C379 291 371 299 371 305C371 316 384 323 394 323C403 323 406 316 406 308C406 299 397 291 388 291ZM309 191C297 191 289 199 289 209C289 220 300 228 309 228C320 228 327 215 327 206C327 197 320 191 309 191ZM256 182C247 182 236 195 236 201C236 208 245 221 256 221C265 221 273 212 273 202C273 193 264 182 256 182ZM274 134C268 134 263 140 263 152C263 163 271 176 281 176C291 176 298 159 298 155C298 150 284 134 274 134ZM246 14C251 14 261 22 272 30C285 40 300 52 310 52C311 52 312 51 315 51C317 51 319 52 319 53C319 57 302 68 298 68C296 68 295 66 295 62C295 61 292 48 280 48C277 48 258 52 258 63C258 76 267 78 267 79C267 84 248 98 247 98C245 98 241 22 241 22C241 15 243 14 246 14ZM712 2C715 2 726 10 736 19L757 36C758 37 756 42 753 42C751 42 748 36 743 36C737 36 717 64 717 73C717 77 720 80 720 82C720 83 720 84 719 84C717 84 712 81 706 76L695 68C697 66 709 56 709 48C709 45 708 44 705 44C699 44 690 56 675 56C662 56 652 47 652 32C652 26 653 23 655 23C657 23 661 31 661 36C661 38 662 47 671 47C679 47 695 37 695 31C695 27 692 25 692 20C692 11 707 2 712 2ZM262 33C259 33 256 36 256 41C256 45 258 46 261 46C265 46 271 42 271 41C271 39 267 33 262 33ZM716 12C713 12 703 21 703 23C703 25 712 34 717 34C722 34 729 27 729 24C729 22 720 12 716 12Z" fill="#f59e0b" stroke="none"/>
  </g>
</svg>