<svg xmlns="http://www.w3.org/2000/svg" viewBox="-50 -50 1100 1100">
  <g transform="translate(0, 1000) scale(1, -1)">
    <path d="M490 -93C540 -93 608 -85 638 -73L663 -63C691 -53 805 0 864 81C923 161 941 202 962 296C967 321 970 348 970 375C970 620 797 753 742 783L712 799C680 818 591 851 496 851C401 851 331 820 258 785C211 763 182 723 176 723C174 723 173 722 173 721C173 711 121 679 65 558C60 545 30 495 30 398C30 285 50 257 59 232C67 206 80 181 88 163C94 151 98 143 98 140C98 138 105 126 114 114L139 80C149 66 191 26 210 12L241 -12C308 -62 347 -70 400 -80C413 -83 427 -85 443 -89C454 -92 471 -93 490 -93ZM496 -86C451 -86 381 -77 293 -37C262 -22 165 54 146 83C144 86 136 96 129 106C122 115 115 123 115 124L104 148C47 249 41 314 41 387C41 390 40 395 40 401C40 439 46 531 119 645C150 692 249 780 261 780C265 780 272 784 282 789C311 804 368 834 461 842C461 842 477 846 504 846C614 846 732 786 767 761C788 746 859 674 864 664C866 659 871 652 874 649C892 628 907 598 921 571L931 552C956 505 964 415 964 362C964 347 963 334 962 327C937 198 910 159 878 113C871 104 865 94 858 84C832 44 748 -21 692 -44C620 -74 622 -73 548 -82C540 -83 522 -86 496 -86ZM493 -80C533 -80 588 -74 618 -66C706 -45 782 18 787 18C788 18 803 33 821 51C917 152 935 231 948 290C951 300 953 309 955 318C957 326 958 343 958 361C958 399 955 446 950 469L942 503C939 516 932 537 926 552L910 583C906 592 902 599 889 618L870 645C859 659 856 662 856 666C856 670 790 737 775 747C723 784 637 838 502 838C487 838 471 837 455 836C331 824 312 792 298 792C295 792 287 787 278 782C271 778 263 774 259 773C236 765 151 683 125 642C89 587 47 506 47 388C47 339 53 282 59 266C66 249 97 111 218 22C234 10 246 -3 248 -3C259 -3 288 -57 462 -78C471 -79 481 -80 493 -80ZM499 -67C439 -67 421 -65 360 -45C326 -34 276 -9 258 6C186 64 146 102 120 152L103 185C93 204 71 261 64 291C59 313 59 428 59 428C59 528 150 672 159 672C168 672 157 685 249 754C265 766 335 800 363 810C409 825 455 830 495 830C579 830 640 807 640 807C644 807 652 803 661 798C671 794 680 789 685 789C691 789 722 771 732 765C776 741 840 673 842 668C842 668 907 580 926 524C937 490 948 436 948 375C948 276 900 163 878 138C872 131 867 124 861 116C853 104 844 91 830 76L808 52C804 48 794 39 785 32L756 12C733 -5 669 -39 642 -48C602 -61 557 -67 499 -67ZM495 753C506 753 512 754 512 757C512 765 500 752 500 786C500 816 509 809 509 813C509 815 503 817 493 817C485 817 479 815 479 814C479 809 487 817 487 784C487 767 486 762 483 760C479 759 479 758 479 757C479 755 484 753 495 753ZM490 22C523 22 557 26 594 33C618 38 676 48 767 139C811 183 830 218 848 283C857 318 861 347 861 376C861 402 858 430 851 464C841 510 836 520 812 561C780 614 730 666 691 687C646 710 604 741 498 741C425 741 386 723 385 723C376 723 298 682 289 672C285 668 266 654 264 654C259 654 229 621 217 602L199 576C195 569 144 488 144 389C144 214 235 153 235 140C235 135 328 22 490 22ZM275 112 263 126C256 134 251 141 251 142C251 144 201 206 187 237C171 274 153 298 153 396C153 525 256 639 264 639C270 639 338 710 447 728C461 730 483 731 505 731C601 731 685 679 692 673C702 664 711 657 719 651C739 634 755 622 777 592C786 579 794 569 794 568C794 567 817 534 825 509L836 473C847 438 852 406 852 374C852 240 752 127 736 127C735 127 734 127 734 128C734 131 736 135 736 142C736 155 729 169 705 174C697 176 696 178 689 204C688 207 649 360 649 369C649 371 657 372 671 372C704 372 706 369 713 362C729 347 725 334 731 334C733 334 735 336 735 341C735 362 729 420 728 420C720 420 727 385 681 385C647 385 646 385 642 398C642 398 616 485 616 508V516H727L732 505C740 491 754 484 767 484C783 484 800 496 800 516C800 533 787 553 769 553C744 553 734 531 732 528H689C672 528 646 528 646 530C646 532 654 544 654 558C654 577 640 580 640 587C640 590 645 599 645 602C645 605 643 605 643 609V613C643 627 617 654 597 661C590 663 580 664 568 664C534 664 526 656 526 651C526 650 529 649 534 649C541 649 551 651 556 651C566 651 567 644 578 602C589 561 593 544 593 538C593 533 593 533 483 533H475C404 533 404 533 404 538C404 542 406 550 409 563C413 580 418 604 424 638L426 652H444C460 652 462 653 462 658C462 664 449 668 433 668C404 668 350 657 350 612C350 597 357 592 357 585C357 576 343 578 343 553V546C343 531 339 531 308 531C285 531 285 531 273 543C263 553 258 555 248 555C229 555 219 542 219 527C219 512 231 495 256 495C264 495 269 497 277 507L289 518L334 519H355C378 519 382 518 382 513C382 507 380 496 377 484C370 456 366 435 364 420C359 394 358 386 348 386C344 386 342 388 335 388H325C288 388 290 414 283 414C280 414 279 402 279 377C279 352 280 339 284 339C293 339 287 375 335 375H354L336 280C330 254 327 234 324 218C314 171 313 163 298 159C284 155 272 140 272 127C272 124 272 125 275 112ZM393 590C383 590 366 594 364 598C362 601 361 606 361 610C361 649 404 654 406 654C409 654 412 653 412 650C407 632 406 619 404 610C402 595 402 590 393 590ZM617 589C591 589 590 600 587 616C586 622 585 629 582 637L577 649L592 647C612 645 630 623 630 607C630 598 625 589 617 589ZM378 534C366 534 355 545 355 556C355 575 373 576 380 576H382C395 576 397 575 397 571C397 568 396 559 393 550C388 535 387 534 378 534ZM615 531C609 531 607 533 605 539C604 545 596 574 596 575C596 576 598 576 600 576C611 576 641 571 641 552C641 541 631 531 615 531ZM252 506C241 506 230 515 230 527C230 536 236 545 244 545C254 545 269 532 269 521C269 512 261 506 252 506ZM767 497C755 497 743 505 743 517C743 527 756 542 765 542C778 542 788 528 788 518C788 506 779 497 767 497ZM545 384C533 384 530 389 530 391C530 396 535 402 535 411C535 431 511 444 495 444C483 444 486 435 480 435C476 435 467 416 467 405C467 396 474 392 474 389C474 387 466 386 432 386C411 386 389 386 373 387C371 387 371 391 372 396C373 402 375 408 376 416C380 439 386 471 399 515C399 517 455 518 507 518C554 518 599 517 600 513C602 506 602 499 615 444L629 387L599 388H594C571 388 556 384 545 384ZM508 391C485 391 479 403 479 412C479 422 487 432 499 432C510 432 523 424 523 411C523 406 521 391 508 391ZM121 363C131 363 135 364 135 367C135 371 130 372 130 377C130 381 133 387 133 396C133 406 127 414 118 414C110 414 92 401 92 398C92 395 85 383 78 383C74 383 71 386 71 392C71 401 82 407 82 411C82 414 71 416 69 416C66 416 65 414 65 407C65 377 76 371 84 371C91 371 96 379 102 387C107 394 112 402 119 402C123 402 125 399 125 394C125 377 110 371 110 366C110 363 113 363 121 363ZM920 352C926 352 935 357 935 383C935 392 934 401 931 411C923 402 919 399 902 399C879 399 879 409 876 409C875 409 875 405 875 396V393C875 383 875 378 877 378C880 378 882 387 891 387C899 387 901 379 904 371C906 362 909 352 920 352ZM919 364C913 364 908 369 908 378C908 384 909 391 923 391C927 391 928 388 928 378C928 369 924 364 919 364ZM490 31C416 31 314 87 305 92L294 98L312 99C314 99 347 100 347 136C347 157 329 156 329 162C329 171 338 216 347 261L353 294C359 325 364 350 364 352C364 360 368 367 370 374L495 373C495 373 499 349 499 325C499 313 498 301 495 293C494 289 490 288 470 288C394 288 385 290 380 296C374 304 373 309 370 309C367 309 366 305 366 284C366 269 367 246 372 246C376 246 380 263 387 270C392 275 412 276 434 276C463 276 495 273 496 272C499 269 500 255 500 243C500 227 499 226 479 226H462C444 226 425 227 419 229C410 232 401 252 397 252C396 252 396 225 396 205C396 194 396 186 397 186C398 186 403 192 409 199L418 212L457 211C478 210 497 209 499 208C501 207 502 199 502 189C502 175 500 159 497 157C493 154 480 153 468 153C455 153 441 154 438 157C432 162 427 176 423 176C418 176 417 137 417 127C417 120 417 117 419 117C426 117 420 142 462 142H477C516 142 535 144 548 144C574 144 576 117 584 117C586 117 587 131 587 149C587 174 586 180 582 180C580 180 577 176 576 171C573 156 567 153 543 153C516 153 516 155 515 174C515 180 515 186 514 195L513 210H533C551 210 562 212 570 212C597 212 597 186 605 186C607 186 608 192 608 208C608 241 607 249 604 249C601 249 599 248 599 247C599 245 595 240 590 234L581 225H544C512 225 512 226 512 256C512 266 513 274 514 275C514 275 541 276 567 276C588 276 606 276 612 271C622 261 621 246 627 246C630 246 631 252 631 261C631 278 627 307 627 307C624 311 619 309 619 304C619 292 614 291 568 291C542 291 523 290 522 288C521 286 519 286 515 288C512 290 510 294 510 315C510 319 511 325 511 332V373L571 374H586C618 374 633 373 635 371C637 368 651 309 659 270C673 201 682 187 682 178C682 169 666 157 666 134C666 111 683 106 694 106C710 106 714 110 719 110H721C721 107 670 75 639 60C607 45 539 31 490 31ZM700 118C692 118 679 126 679 139C679 146 683 161 698 161C711 161 725 151 725 142C725 135 716 120 712 120C707 120 702 118 700 118ZM312 111C300 111 290 118 290 128C290 140 301 152 313 152C320 152 330 149 330 132C330 121 326 111 312 111ZM497 -57C521 -57 536 -43 537 -22C537 -2 521 9 505 9C484 9 470 -12 470 -29C470 -44 479 -57 497 -57ZM506 -48C496 -48 487 -38 487 -23C487 -6 492 0 504 0C518 0 521 -5 521 -21C521 -36 518 -48 506 -48Z" fill="#f59e0b" stroke="none"/>
  </g>
</svg>