<svg xmlns="http://www.w3.org/2000/svg" viewBox="-50 -50 1100 1100">
  <g transform="translate(0, 1000) scale(1, -1)">
    <path d="M524 -94C546 -94 563 -92 572 -88C576 -86 584 -85 595 -82C636 -73 716 -55 781 -3C857 59 898 125 902 129C918 148 970 248 970 380C970 577 878 655 878 666C878 673 745 854 503 854C435 854 386 838 356 828C344 824 335 821 330 821C327 821 323 819 320 818L282 800C236 776 249 780 228 767C205 752 126 671 109 646C82 604 47 522 40 480C34 445 30 386 30 359C30 304 65 171 137 87L157 62C175 41 260 -46 380 -76C425 -87 482 -94 524 -94ZM521 -87C357 -87 285 -28 271 -20C210 15 155 69 150 78C148 82 143 89 137 98C106 140 39 233 39 382C39 485 72 602 160 692C195 729 289 835 493 848H496C517 848 600 840 639 827L663 819C678 814 676 815 689 808C694 805 701 801 711 796C800 751 868 671 868 665C868 662 914 603 935 550C959 490 965 419 965 370C965 344 963 324 961 315L951 271C943 232 917 166 900 141L879 109C865 89 771 -29 665 -55C644 -60 628 -65 614 -70C586 -79 563 -87 521 -87ZM510 -81C577 -81 677 -53 735 -19C771 2 854 79 872 107C872 107 959 215 959 375V377C959 539 893 615 893 619C893 621 888 628 881 638C873 649 862 664 854 678C849 685 794 750 700 796C669 812 613 842 482 842C463 842 370 829 288 789C259 775 217 741 182 707C111 637 92 605 63 512C50 469 44 442 44 402C44 269 72 215 112 141C138 95 262 -81 510 -81ZM517 -68C369 -68 271 -19 185 68C174 80 54 189 54 395C54 520 128 650 159 671C167 676 172 683 178 690C183 697 189 704 197 711L221 731C249 756 316 797 329 797C335 797 344 800 355 805C382 815 427 831 499 831C631 831 714 781 740 761C745 761 794 724 814 705C839 683 888 613 907 576C930 530 949 457 949 381C949 347 945 311 936 276C911 187 900 161 860 110C832 74 746 -17 653 -43L600 -58C573 -65 548 -68 517 -68ZM551 751C554 751 556 752 556 755C556 761 543 761 540 771C536 783 511 827 507 827C501 827 494 814 487 800C479 785 472 770 463 766C457 764 454 762 454 760C454 757 460 755 472 755C482 755 486 755 486 757C486 759 479 764 479 767C479 769 484 781 492 781C497 781 503 779 516 779C519 779 525 774 525 767C525 760 519 756 519 753C519 751 525 751 551 751ZM511 785C509 785 506 791 499 791C495 791 494 792 494 794C494 797 499 812 502 812C505 812 514 797 514 790C514 787 513 785 511 785ZM511 19C567 19 719 39 815 200C815 200 862 287 862 382C862 466 834 554 790 604C704 701 633 743 479 743C450 743 351 716 289 673C230 632 188 563 188 554C188 550 187 548 186 548C182 548 176 529 170 514C166 503 162 494 161 494C158 494 145 455 145 388C145 308 157 266 184 216C189 201 209 173 223 155C230 146 235 139 236 137C240 127 312 71 337 58C364 44 439 19 511 19ZM505 30C487 30 470 33 438 38C345 54 307 95 301 95C291 95 218 174 206 196C178 251 155 286 155 394C155 470 175 497 185 523C212 598 282 662 312 676C404 721 442 734 484 734C499 734 515 732 532 730C632 718 685 692 753 624C781 597 806 566 806 558C806 556 807 554 809 554C811 554 836 495 836 487C836 478 847 450 849 424L851 404C846 406 836 413 826 413C816 413 803 401 803 394C803 391 800 389 795 389C790 389 788 391 788 395C788 404 780 397 780 433C780 447 781 461 784 466C789 475 806 475 806 478C806 479 798 480 782 480C761 480 729 479 729 476C729 474 733 472 738 469C748 463 753 466 754 407L755 389H731C711 389 708 390 701 398C688 411 684 441 684 463C684 478 686 489 688 491C695 497 700 511 718 519L731 525L740 515C747 507 756 503 767 503C775 503 794 519 794 534C794 550 777 568 760 568C734 568 735 536 720 536C716 536 710 535 707 533C676 518 673 516 661 495C655 485 652 473 652 464C652 459 653 455 655 453C659 451 656 448 656 447C656 443 665 436 666 430C666 426 673 418 680 410C687 401 695 392 695 388C695 387 694 386 692 386C682 386 674 390 673 396C672 401 655 412 640 412C613 412 619 389 610 389C604 389 599 485 599 508C599 542 591 566 574 587L565 598L576 608C582 614 586 620 586 628C586 649 560 662 548 662C536 662 521 644 521 628C521 622 523 615 528 609C537 598 537 564 537 512C537 480 538 441 540 397V394C540 389 539 385 514 385C500 385 505 389 496 389C488 389 474 386 441 386H429C412 386 413 386 412 398C412 406 410 447 410 473C410 481 411 487 411 490L413 500L450 498L456 485C460 477 463 474 465 474C470 474 472 489 472 506C472 532 470 538 467 538C460 538 461 511 429 511C420 511 414 513 413 515C410 519 408 597 408 643V659C408 684 410 685 429 688L445 690L457 678C465 669 472 665 479 665C484 665 515 670 515 692C515 708 497 725 480 725C472 725 456 712 453 703C451 699 448 698 434 698C418 698 396 692 357 676C301 653 254 601 254 599C254 597 215 539 215 527C215 522 212 516 208 506C198 485 182 449 182 388C182 264 243 179 248 172C263 153 311 107 314 107C317 107 322 104 325 100C342 82 397 65 437 65H457L464 52C467 47 471 35 497 35C519 35 523 59 523 69C523 100 493 104 485 104C471 104 467 97 462 91C458 84 453 78 441 78C430 78 414 80 414 81C413 81 413 96 413 119C413 142 413 174 414 212V249H427C455 249 460 219 466 219C468 219 468 224 468 244C468 290 466 293 464 293C461 293 458 289 458 285C458 278 449 269 443 269C441 269 439 268 439 266C439 265 434 263 426 263C414 263 412 263 412 276C412 285 413 301 413 325V374L476 373C535 372 539 372 541 366C542 364 542 335 542 297V259L541 157L532 147C526 140 523 134 523 127C523 117 538 92 558 92C573 92 590 110 590 127C590 151 576 151 576 164C576 176 606 217 606 337C606 356 605 359 605 367C605 372 606 374 608 374C617 374 615 351 640 351C654 351 660 358 665 364C669 370 674 375 684 375C698 375 702 374 702 372C702 370 699 367 694 363C657 334 669 330 665 327C664 327 663 325 663 324C663 322 664 320 664 318C664 313 660 314 660 304C660 284 680 251 684 251C686 251 688 248 691 245C701 234 715 232 727 230C738 228 749 226 753 218C759 206 769 200 780 200C796 200 810 217 810 234C810 251 795 262 780 262C771 262 764 258 756 249L746 238L731 243C721 247 689 255 689 301C689 323 696 346 710 361C719 372 723 375 748 375C754 375 758 373 758 342C758 326 756 310 754 304C747 288 730 281 730 278C730 277 736 277 745 277C766 277 801 278 803 279C803 280 799 284 793 290C783 300 782 305 782 347V353C782 368 783 374 793 374C811 374 806 353 828 353C843 353 843 361 848 361C850 361 851 359 851 354C851 336 844 311 842 311C840 311 838 305 837 297C825 209 757 126 687 82C668 70 570 30 505 30ZM479 678C473 678 461 684 461 692C461 700 465 716 479 716C489 716 500 708 500 697C500 688 487 678 479 678ZM386 385C376 385 366 386 290 387H202V396C202 439 212 471 223 498C280 634 333 648 358 662C367 667 373 670 377 670C385 670 390 649 390 534C390 522 390 515 389 514C388 513 376 512 362 511L338 508L335 520C330 533 318 542 308 542C290 542 279 524 279 506C279 498 283 480 302 480C313 480 317 483 322 487C329 492 336 497 363 498H389V393C389 387 389 385 386 385ZM550 607C550 607 529 610 529 628C529 639 540 650 552 650C562 650 572 637 572 629C572 620 556 607 550 607ZM552 387 546 588C546 594 547 596 549 596C552 596 559 587 566 575C583 549 587 526 589 451L590 390L571 388C563 387 557 387 554 387ZM765 516C754 516 743 526 743 537C743 548 756 556 765 556C774 556 782 548 782 537C782 526 775 516 765 516ZM306 491C298 491 291 499 291 509C291 520 301 529 312 529C325 529 328 513 328 505C328 497 312 491 306 491ZM646 385C636 385 621 385 621 387C621 391 638 404 643 404C649 404 661 393 661 389C661 386 656 385 646 385ZM826 365C816 365 810 374 810 384C810 394 817 401 826 401C839 401 847 386 847 382C847 375 836 365 826 365ZM642 360C636 360 623 364 623 370C623 376 634 377 643 377C650 377 658 376 658 373C658 366 650 360 642 360ZM557 164V372C557 373 562 374 567 374C588 374 590 374 590 358V343C590 224 562 164 557 164ZM386 86C370 86 335 109 300 145C241 204 230 236 220 267C217 275 215 283 211 291C208 298 203 350 203 365C203 373 204 373 278 373H392V350C392 339 393 330 393 325C393 300 391 322 391 287L390 265L362 264C356 264 352 263 348 263C336 263 334 265 333 268C327 287 316 296 307 296C293 296 280 281 280 260C280 243 293 233 307 233C334 233 313 251 360 251C373 251 386 250 389 248C392 246 394 196 394 152C394 86 392 86 386 86ZM310 248C302 248 293 255 293 265C293 274 304 280 309 280C312 280 322 274 322 262C322 254 316 248 310 248ZM777 213C771 213 760 226 760 231C760 238 774 250 778 250C782 250 797 240 797 234C797 226 786 213 777 213ZM874 150C877 150 900 182 900 190C900 192 898 192 897 192C894 192 892 186 885 186C874 186 852 206 852 214L853 224C853 226 853 227 852 227C847 227 826 194 826 191C826 190 828 189 829 189C836 189 837 196 842 196C847 196 873 176 873 162C873 158 871 155 871 152C871 151 873 150 874 150ZM157 122C159 122 160 123 160 125C160 126 159 127 159 128C159 136 184 160 189 160C193 160 199 155 202 155C203 155 204 155 204 156C204 160 191 176 187 176C186 176 185 175 185 172C185 168 170 155 166 155C165 155 164 155 164 156C164 159 168 169 175 183C175 184 172 184 167 184H140C140 188 161 195 169 195C172 195 173 194 176 194C178 194 178 195 178 196C178 201 167 224 163 224C161 224 160 221 159 217C156 208 135 193 126 193C121 193 121 197 117 197C116 197 116 196 116 195C116 191 126 173 132 173C135 173 141 176 154 176C158 176 160 175 160 175C160 167 146 151 146 137C146 128 153 122 157 122ZM554 108C545 108 536 116 536 127C536 137 543 146 555 146C565 146 577 141 577 131C577 123 565 108 554 108ZM497 47C485 47 471 58 471 70C471 78 479 89 489 89C501 89 511 75 511 63C511 57 508 47 497 47Z" fill="#f59e0b" stroke="none"/>
  </g>
</svg>