<svg xmlns="http://www.w3.org/2000/svg" viewBox="-50 -50 1100 1100">
  <g transform="translate(0, 1000) scale(1, -1)">
    <path d="M509 -93C555 -93 610 -87 649 -70C659 -65 669 -61 679 -57C727 -37 773 -18 833 44C875 87 917 151 937 200L944 220C962 265 968 318 968 368C968 434 958 492 948 517L936 553C897 652 838 717 761 773C721 803 669 822 584 844C563 849 537 851 501 851C431 851 343 833 260 784L229 766C181 736 122 659 120 659C117 659 101 634 87 607C71 577 43 499 37 473L34 455C32 447 32 424 32 399C32 362 33 322 35 319C37 318 38 316 38 315C38 313 36 311 36 308C36 291 66 147 167 51C185 35 234 -8 245 -16C261 -26 312 -58 428 -88C428 -88 463 -93 509 -93ZM508 -83C433 -83 407 -79 340 -55C231 -16 136 84 105 142C90 171 84 174 84 177C84 180 62 220 56 249L48 278C44 296 39 352 39 393C39 481 55 491 55 502C55 521 86 594 110 631C140 676 204 741 241 762C300 797 334 815 349 818C364 821 354 824 371 824C376 824 418 841 510 841C538 841 566 840 572 838L640 819C668 811 733 780 733 780C743 776 832 714 878 645C897 615 928 558 928 551C928 540 959 500 959 371C959 251 918 191 918 180C918 180 876 88 796 21C765 -6 746 -17 702 -39C631 -75 595 -83 508 -83ZM495 -78C533 -78 580 -76 605 -68L638 -59C658 -54 700 -36 711 -27C719 -21 732 -15 743 -10C754 -5 763 -1 763 1C763 6 768 2 799 32L830 62C859 89 895 149 899 155C907 167 910 174 913 182C915 187 917 193 921 201C941 240 953 309 953 379C953 408 950 438 946 466C931 557 909 572 909 580C909 591 864 653 864 653C864 660 825 710 743 770C705 797 638 814 602 824C588 827 579 830 577 831C573 833 545 835 514 835C483 835 451 834 434 831C208 800 104 621 86 578L75 552C69 539 59 502 50 466C46 452 45 425 45 396C45 355 48 309 53 282C68 204 113 130 137 103C161 74 208 28 231 11C283 -29 383 -69 445 -76C457 -78 475 -78 495 -78ZM497 -69C408 -69 348 -40 347 -40C341 -40 274 -8 253 6C216 29 137 111 124 141C118 155 54 231 54 397C54 447 61 479 64 486C69 497 72 508 76 520C91 565 109 621 195 710C204 719 215 726 229 735C237 740 246 746 257 754C327 804 416 825 502 825C567 825 631 813 682 789L719 774C750 762 840 681 851 658C851 658 926 548 932 484C933 474 934 466 936 457C939 438 943 416 943 369V367C943 215 859 113 855 108C840 85 783 28 760 13C685 -37 607 -69 497 -69ZM521 752C524 752 525 757 525 776C525 818 537 806 537 815C537 818 533 818 523 818C517 818 511 818 511 817C511 817 518 801 518 791C518 787 517 785 514 785C509 785 496 817 478 817C476 817 466 815 466 813C466 810 479 815 479 784C479 762 470 762 470 757C470 755 472 753 476 753C479 753 492 755 492 758C492 760 487 766 487 778C487 785 488 788 490 788C494 788 500 779 506 770C511 761 517 752 521 752ZM497 19C571 19 601 25 655 52C731 89 820 173 847 275L854 305C856 316 858 339 858 364C858 436 853 518 783 598L753 634C702 696 619 720 613 721C602 724 595 726 588 729C573 734 564 738 505 738C352 738 281 661 276 659C267 655 223 610 216 597C206 576 198 581 198 573C198 568 190 563 190 561C190 551 140 490 140 401C140 323 146 254 207 175C214 166 219 159 223 153C237 133 244 124 296 82C317 66 396 32 424 25C441 21 457 19 497 19ZM362 61C359 61 339 74 337 74C328 74 257 126 251 137C250 140 243 149 236 157L214 186C204 199 182 238 182 241C182 242 173 258 173 260L163 288C158 302 151 351 151 397C151 426 153 454 160 470C173 501 197 553 210 572C259 649 363 703 369 703C369 703 422 728 504 728C569 728 586 716 589 716C606 716 688 679 688 673C688 672 687 671 680 671C661 671 647 647 642 647C635 647 608 627 604 618C601 612 598 608 597 608C593 608 589 590 583 590C580 590 576 598 576 603C576 612 550 652 535 663C527 669 519 671 511 673C501 676 491 678 483 692C476 706 470 712 460 712C440 712 422 697 422 676C422 664 427 648 447 648C472 648 470 660 488 660C515 660 535 640 553 613C568 591 571 578 572 528L573 485L559 484C559 484 476 481 430 481C414 481 402 481 400 483C397 484 396 494 396 526V566H460L472 553C479 545 486 539 490 539C505 539 525 558 525 572C525 577 513 602 494 602C483 602 466 590 466 582C466 580 462 579 452 579C444 579 419 581 369 581H330C304 581 288 581 287 587C284 596 273 603 262 603C246 603 234 587 234 571C234 557 244 545 262 545C271 545 281 550 289 558C295 565 296 567 345 567C362 567 377 566 378 565C381 562 383 530 383 508C383 494 382 484 381 484C379 483 336 482 287 482L197 481L183 472C168 462 159 449 159 436C159 429 165 422 170 422C173 422 176 424 176 426C176 429 173 433 173 438C173 441 174 444 177 448C192 469 197 470 352 470C378 470 385 468 385 458C385 455 384 450 383 444L310 443C244 443 235 442 219 437C163 417 157 393 157 381C157 375 167 363 172 363C175 363 180 366 180 368C180 371 170 371 170 381C170 397 195 422 241 428C258 430 300 432 332 432C356 432 377 431 378 429C381 426 386 401 386 394C386 389 385 389 364 389C344 389 343 384 342 384C339 384 336 388 334 388C333 388 333 386 319 386H302C268 386 214 384 184 356C169 343 168 341 168 326C168 307 175 293 185 293C190 293 194 295 194 298C194 304 181 311 181 321C181 367 263 369 316 369H383L385 326H318C287 326 260 325 253 323C204 310 191 272 191 258C191 249 202 239 208 239C209 239 210 240 210 242C210 242 206 250 206 261C206 271 210 284 225 295C241 308 260 311 324 312L383 313L384 302C384 287 381 286 367 286H355C351 286 346 287 340 287C314 287 285 285 268 277C232 260 221 236 221 218C221 197 233 182 245 182C250 182 253 185 253 188C253 197 233 192 233 212C233 223 239 235 251 247C273 269 285 272 356 272C373 272 379 271 381 269C384 265 385 242 385 189L386 112C385 111 361 99 361 77C361 71 364 68 364 64C364 62 364 61 362 61ZM228 631C229 631 231 633 231 637C231 639 232 641 234 641C238 641 255 660 255 665C255 669 248 683 232 683C221 683 209 677 202 677C198 677 195 679 195 684C195 691 200 696 205 696C210 696 210 692 214 692C216 692 218 694 218 697C218 701 212 707 209 707C204 707 182 693 182 681C182 672 190 658 204 658C218 658 218 667 232 667C237 667 241 666 241 661C241 656 237 649 227 649L217 650C213 650 211 649 211 647C211 645 222 631 228 631ZM450 660C440 660 435 666 435 675C435 683 440 697 449 697C449 697 472 697 472 683C472 671 467 660 450 660ZM794 602C795 602 795 607 795 611C795 619 800 633 805 646C810 658 814 669 814 675C814 681 810 683 808 683C803 683 771 657 757 657C752 657 751 662 745 662C743 662 741 661 741 658C741 656 746 650 751 644L760 634V642C760 649 766 653 772 653C778 653 785 651 785 641C785 634 782 626 778 626C776 626 775 625 775 624C775 617 794 602 794 602ZM790 654C788 654 787 657 787 659C787 663 789 668 795 668C799 668 800 668 800 667C800 665 794 654 790 654ZM684 627C669 627 659 640 659 643C659 645 660 647 662 649C667 656 672 658 690 658H692C695 658 701 657 701 645C701 633 693 627 684 627ZM588 482V508C588 561 601 590 604 590C605 590 606 592 606 595C606 601 624 620 630 620C632 620 634 621 634 623C634 623 637 630 644 630C656 630 657 612 679 612C693 612 715 623 715 640C715 645 713 650 713 651C713 652 713 653 715 653C718 653 748 629 756 616C764 604 780 591 780 585C780 582 777 581 771 581C762 581 749 568 749 560C749 557 754 542 756 542L767 540H769C777 540 786 546 786 552C786 555 784 556 780 556C772 556 772 549 768 549C765 549 762 553 762 558C762 566 770 571 774 571C781 571 788 563 788 551C788 542 782 525 773 525C769 525 767 528 763 528C757 528 753 524 747 511C736 486 727 484 691 484H657ZM261 561C249 561 247 564 247 573C247 582 252 592 261 592C269 592 277 583 277 574C277 567 271 561 261 561ZM493 555C483 555 478 560 478 569C478 583 484 591 492 591C503 591 513 578 513 568C513 558 501 555 493 555ZM846 394C843 394 830 402 823 402C815 402 812 397 809 397C806 397 802 401 802 405C802 407 803 410 803 413C803 413 792 482 785 497L778 515C801 536 795 546 802 546C811 546 831 500 836 466L844 419C846 406 847 399 847 396C847 395 847 394 846 394ZM756 254C744 254 760 281 688 281H684C662 281 649 281 649 293C649 302 653 302 653 316C653 327 651 345 650 356V366L666 368C684 371 685 373 686 373C689 373 693 364 693 354C693 336 682 330 682 323C682 321 685 320 692 320C703 320 719 320 719 324C719 327 707 334 707 358C707 368 710 370 714 370C740 370 738 356 745 356C746 356 747 363 747 372C747 392 745 398 742 398C738 398 740 387 721 386L707 385L706 399V401C706 423 721 423 721 431C721 433 711 434 699 434C688 434 679 433 679 431C679 429 693 407 693 395C693 387 688 385 670 385C651 385 651 387 651 395V406C651 421 646 420 646 423C646 425 651 427 651 449V470H694C760 470 757 501 764 501C774 501 789 437 789 380C789 301 760 254 756 254ZM422 443C402 443 394 444 394 462C394 468 394 469 479 470H562C566 460 568 456 568 453C568 451 567 450 566 449C562 446 475 443 429 443ZM597 382C592 382 593 386 585 386C580 386 579 388 579 397C579 406 580 407 592 407C608 407 614 400 616 400C619 400 621 418 621 422C621 426 620 427 619 427C615 427 606 420 595 420C582 420 578 423 578 442C578 444 578 449 579 454L580 467L600 468H612C633 468 635 465 635 440V385H624C623 386 622 386 621 386C606 386 602 382 597 382ZM701 439C712 439 717 447 717 453C717 459 710 464 701 464C690 464 688 459 688 451C688 443 694 439 701 439ZM553 422C541 422 538 428 538 430C538 433 544 434 550 434C558 434 565 432 565 428C565 425 560 422 553 422ZM447 386C422 386 400 387 398 389C397 390 396 396 396 403V410L397 430H452C480 430 498 432 510 432C529 432 531 429 531 412V397C542 407 550 410 556 410C564 410 567 402 567 398C567 391 561 386 554 386C551 386 547 387 521 387C500 387 472 386 447 386ZM887 350C895 350 898 359 903 359C907 359 913 350 922 350C933 350 936 366 936 386C936 393 935 399 931 399C927 399 924 394 921 394C918 394 916 398 895 398C875 398 873 399 873 404C873 407 872 409 870 409C867 409 864 406 864 399C864 383 871 350 887 350ZM68 337C69 337 67 340 99 346C113 348 126 359 126 369C126 373 123 380 119 385C105 401 72 396 72 401C72 402 71 404 69 404C67 404 66 400 66 395C66 388 66 387 76 387H82C102 387 114 381 114 372C114 362 101 360 95 360C88 360 89 363 86 363H82C76 363 74 369 71 369C68 369 66 362 66 349C66 340 66 337 68 337ZM824 357C816 357 806 361 806 368C806 375 817 392 823 392C827 392 843 384 843 372C843 364 834 357 824 357ZM769 355C779 355 786 362 786 372C786 384 776 391 770 391C760 391 753 379 753 369C753 358 763 355 769 355ZM885 362C876 362 874 374 874 377C874 382 877 385 882 385C884 385 896 383 896 374C896 369 891 362 885 362ZM915 365C912 365 906 371 906 378C906 382 909 384 913 384C919 384 927 380 927 377C927 373 920 365 915 365ZM421 324C398 324 400 328 397 352C397 358 396 361 396 363C396 370 397 371 401 371C406 371 417 369 439 369C480 369 548 371 549 374C549 375 550 376 550 376C553 376 557 371 562 371C566 371 567 368 567 362C567 353 563 353 558 353C530 353 532 362 529 362C526 362 525 356 525 344V326L479 325C450 325 433 324 421 324ZM596 279C584 279 580 282 580 293C580 333 586 334 594 334C604 334 611 327 616 327C618 327 619 329 619 336C619 341 618 360 615 360C613 360 609 350 592 350C583 350 581 354 581 359C581 367 593 369 605 369C635 369 637 367 637 360C637 349 636 329 636 309V292C636 284 636 279 596 279ZM798 204C797 204 794 205 794 208C794 217 772 233 772 246C772 248 773 251 775 254C783 263 803 321 803 332C803 334 802 337 802 340C802 344 805 345 808 345C812 345 818 343 822 343C830 343 835 344 838 344C842 344 843 340 843 325C843 286 806 204 798 204ZM553 326C542 326 537 327 537 330C537 335 541 338 559 338C565 338 567 337 567 332C567 327 565 326 553 326ZM456 283C398 283 397 283 397 292C397 298 399 306 402 308C404 309 442 311 486 311L567 312V298C567 290 566 284 565 284C560 283 521 283 482 283ZM701 284C706 284 717 286 717 297C717 303 712 311 702 311C693 311 685 306 685 299C685 292 692 284 701 284ZM500 30C480 30 405 36 405 44C405 50 427 53 427 71C427 79 423 88 414 96L401 108V205C401 246 402 267 403 267C408 269 522 269 527 269C560 269 567 267 567 249C567 226 543 188 543 186C543 183 516 141 481 141C475 141 477 151 470 151C464 151 467 160 449 160C430 160 416 142 416 126C416 111 429 101 447 101C457 101 461 103 469 111C479 122 491 126 503 130C517 135 531 140 545 156C559 173 570 192 570 198C570 202 571 204 572 204C575 204 580 197 587 185C605 151 622 141 634 135C642 131 648 127 651 118C654 108 668 101 685 101C714 101 722 123 722 135C722 150 710 157 695 157C684 157 679 155 674 152C669 150 664 148 654 148C646 148 640 150 640 152C640 153 638 155 635 155C617 155 587 214 585 252L584 265L641 266H662C715 266 741 260 741 237C741 226 743 222 751 222C757 222 760 224 765 224C780 224 782 192 782 192C782 189 780 186 779 186C778 186 777 187 777 190C777 198 769 209 762 209C749 209 741 200 741 190C741 179 750 170 764 170C769 170 774 171 777 171C779 171 780 171 780 170C780 158 716 108 716 108C691 85 619 47 587 40C557 33 528 30 500 30ZM764 180C760 180 755 185 755 190C755 195 761 198 764 198C767 198 769 194 769 188C769 182 767 180 764 180ZM443 113C434 113 429 121 429 129C429 145 446 149 447 149C453 149 462 137 462 131C462 123 452 113 443 113ZM686 109C673 109 670 124 670 129C670 136 684 146 687 146C691 146 709 140 709 129C709 119 696 109 686 109ZM790 53C792 53 830 84 830 91C830 92 829 93 827 93H825C818 93 789 122 789 128C789 128 792 133 792 135C792 136 792 137 790 137C788 137 749 102 749 96C749 92 755 85 759 85C761 85 763 87 763 91C763 96 771 113 778 113C781 113 786 109 786 104C786 100 786 99 785 99C783 99 779 103 775 103C773 103 772 102 772 100C772 94 780 82 786 82C793 82 791 93 798 93C803 93 810 85 810 82C810 76 801 68 796 68C794 68 792 70 786 70C782 70 778 69 778 67C778 62 786 53 790 53ZM211 56C212 56 213 57 213 58C213 61 209 67 209 69C209 80 226 96 238 96H245C248 96 249 97 249 98C249 106 226 119 226 122C226 124 225 125 223 125C221 125 220 123 220 120C220 116 223 114 223 113C223 109 203 81 191 81C190 81 186 84 184 84C183 84 182 84 182 82C182 77 205 56 211 56ZM393 56C386 56 375 66 375 79C375 92 385 95 391 95C400 95 409 85 409 75C409 64 396 56 393 56ZM512 -58H533L532 -32C531 -30 531 -28 531 -25C531 -5 536 0 536 3C536 4 535 7 526 7C521 7 512 4 512 0C512 -2 516 -4 516 -12C516 -17 514 -23 511 -23C503 -23 503 5 481 5C474 5 463 -4 463 -10C463 -11 465 -15 467 -15C472 -15 479 -1 483 -1C488 -1 491 -20 491 -26C491 -36 484 -43 484 -49C484 -56 492 -58 512 -58ZM504 -54C501 -54 498 -52 498 -43C498 -35 503 -32 508 -32C513 -32 520 -37 520 -42C520 -45 511 -54 504 -54Z" fill="#f59e0b" stroke="none"/>
  </g>
</svg>