<svg xmlns="http://www.w3.org/2000/svg" viewBox="1 -123 998 1005">
  <g transform="translate(0, 759) scale(1, -1)">
    <path d="M523 -93C554 -93 558 -88 562 -88C563 -88 563 -89 565 -89C569 -89 573 -84 581 -84H584C594 -84 604 -78 609 -78C619 -78 676 -58 684 -55C717 -45 771 -8 773 -6C779 1 788 7 797 15C834 44 892 89 946 225C949 234 969 301 969 383C969 438 954 550 898 630L873 666C860 686 806 739 780 758C758 775 664 834 570 842C558 843 552 844 545 846C533 849 519 852 461 852C444 852 452 850 437 848C405 844 394 840 378 835L353 827C275 806 245 775 236 775C233 775 207 754 205 754C205 754 195 746 186 738C177 729 168 721 167 721C162 721 125 675 112 652L100 631C91 617 73 581 73 577C73 576 70 572 67 568C56 552 34 456 34 416C34 382 31 393 31 378C31 346 41 234 81 161C103 121 156 39 229 -11C288 -52 391 -84 409 -84H412C419 -84 419 -88 422 -88H426C433 -88 475 -93 523 -93ZM516 -84C471 -84 382 -78 335 -56C312 -45 269 -27 222 6C174 39 115 115 78 190C67 212 52 265 47 301L41 341C39 352 38 364 38 378C38 490 83 631 184 722C188 731 297 802 307 802C307 802 339 818 392 830L403 833C425 839 450 840 468 841C480 842 488 842 490 844C490 844 492 845 494 845C504 845 533 840 554 837C565 835 574 833 576 833C576 833 576 834 578 834C593 834 674 811 690 801L723 783C756 766 776 756 824 708C935 599 962 475 962 381C962 218 875 108 875 108C872 105 791 -5 683 -46C604 -75 567 -84 516 -84ZM504 -76C598 -76 665 -43 696 -32C706 -29 712 -26 721 -20C727 -16 735 -11 747 -5C787 17 883 114 895 150C897 159 907 171 907 174C907 176 911 184 916 195C923 209 932 226 932 231C932 234 933 236 934 237C938 239 957 323 957 390C957 437 939 545 889 621L869 650C850 677 792 736 764 754C667 818 585 837 474 837C377 837 232 779 148 677C130 654 109 626 109 623C109 622 106 618 103 613C99 608 96 599 91 588C88 578 83 567 78 557C56 512 44 452 44 389C44 211 116 128 164 68C206 16 242 0 247 -6C249 -10 292 -29 319 -41L340 -51C340 -54 420 -76 504 -76ZM522 -65C459 -65 353 -53 338 -37C335 -35 331 -33 328 -33C324 -33 306 -24 291 -17C282 -13 274 -9 273 -9C273 -9 183 50 150 101C150 101 53 220 53 360C53 500 88 562 105 592C111 603 115 610 115 615C115 618 120 621 135 645C153 676 220 738 224 738C229 738 258 763 260 763C263 763 265 764 265 765C270 775 379 829 487 829C654 829 736 759 749 752C790 732 869 643 869 635C869 634 873 626 878 617C902 579 915 550 937 476C942 457 944 425 944 390C944 233 898 197 898 187C898 186 894 177 888 167C881 153 872 137 872 133C872 126 864 130 857 116C847 95 799 46 768 25C728 -3 693 -35 560 -63C551 -65 538 -65 522 -65ZM520 752C521 752 521 754 521 758C521 766 529 775 535 775C538 775 540 776 540 777C540 779 536 780 533 780C522 780 515 783 511 783C508 783 507 782 507 780C507 773 513 776 513 771C513 768 508 763 502 763C495 763 490 771 490 779C490 790 498 806 508 806C521 806 518 787 524 787C527 787 527 791 527 801C527 813 527 817 526 817C525 817 524 816 523 815C522 814 483 816 479 798C478 793 477 788 477 784C477 767 496 755 504 755H510C515 755 518 752 520 752ZM708 691 717 697C722 701 724 702 724 704C724 706 720 711 716 711C713 711 710 706 705 706C699 706 684 718 684 726C684 729 686 732 689 734C700 744 693 748 708 757L717 762C701 771 690 781 688 781C687 781 687 780 687 779C687 777 690 772 690 768C690 757 681 735 671 730L661 725L675 718C682 714 691 707 697 701ZM292 694C297 694 291 706 306 706C311 706 331 711 331 730C331 745 323 750 313 750C304 750 292 745 285 745C281 745 278 746 278 749C278 754 287 762 296 762C298 762 300 761 303 761C307 761 308 762 308 764C308 768 298 775 294 775C288 775 289 766 281 766C280 766 267 756 267 743C267 737 271 728 280 728C285 728 290 732 291 732C293 732 298 734 305 734C312 734 321 732 321 726C321 721 316 713 297 713C290 713 283 714 279 714C277 714 276 713 276 713C276 710 290 694 292 694ZM516 18C547 18 589 21 662 58C688 71 709 75 757 127C874 253 856 369 863 382C864 383 864 384 864 387C864 406 852 472 845 489L833 517C816 557 816 545 810 565C807 572 702 741 489 741C438 741 400 727 398 727C391 727 343 707 343 707C340 707 262 672 208 592C200 581 137 515 137 373C137 351 140 307 162 250L178 209C196 163 295 72 312 72C327 72 353 18 516 18ZM783 178C782 178 782 181 782 186C782 202 783 244 785 293C785 308 786 324 786 341C788 401 790 465 790 504C790 538 790 538 786 552L729 554C696 555 669 557 668 559C666 561 665 572 665 583C665 605 667 608 679 608C699 608 705 582 713 582C718 582 719 591 719 602C719 608 718 634 714 634C709 634 704 618 683 618C679 618 673 618 666 619C665 619 662 628 662 638C662 669 682 665 682 671C682 675 659 676 644 676C632 676 630 675 630 672C630 669 631 667 632 667C632 667 652 661 652 640V617L639 618C609 620 611 640 604 640C600 640 599 632 599 602C599 588 600 582 602 582C611 582 603 607 638 608H652L653 584V574C653 559 652 557 628 557H593C530 557 437 559 437 565C438 567 438 587 438 609V651L451 660C463 669 467 678 467 687C467 712 438 717 434 717C417 717 396 699 396 682C396 672 406 659 416 655C422 653 424 639 424 623C424 610 423 596 423 583C423 568 424 567 424 565C424 561 412 559 392 559C392 559 202 564 202 565C202 576 267 650 289 662L315 680C347 701 343 692 363 702C404 723 467 732 500 732C511 732 519 731 521 729C532 722 527 736 623 704C686 683 699 661 706 661C712 661 717 650 721 650C726 649 767 608 767 603C767 599 785 588 785 582C785 580 786 577 787 577C790 575 817 524 822 509L836 472C839 465 839 460 839 457V454C839 443 844 445 844 440C844 438 843 436 843 434C843 430 850 422 850 390V387C848 381 847 372 847 360C844 328 840 277 804 212L788 185C786 180 784 178 783 178ZM433 664C422 664 409 671 409 683C409 691 414 705 431 705C447 705 453 698 453 688C453 679 449 664 433 664ZM171 579C174 579 192 600 192 604C192 605 186 604 183 604C177 604 173 607 173 610C173 619 184 631 193 631C203 631 199 622 205 622C211 622 221 636 221 642C221 644 219 646 215 646C210 646 208 645 202 645C185 645 164 654 153 654C149 654 146 653 146 649C146 642 151 633 156 624C162 612 169 599 169 585V582C169 580 169 579 171 579ZM169 622C166 622 158 635 158 640C158 641 159 642 160 642C164 642 174 632 174 626C174 624 173 622 169 622ZM831 573C832 573 833 574 833 575C833 577 832 578 832 579C832 582 838 592 844 602C851 614 859 626 859 631C859 633 857 634 853 634C843 634 822 629 806 629C802 629 793 631 788 631C786 631 785 631 785 630C785 629 798 611 804 611C809 611 809 621 812 621C815 621 829 612 829 604C829 597 823 592 815 592H808L817 582C823 576 828 573 831 573ZM836 614C833 614 828 618 828 621C828 622 830 625 834 625C837 625 840 623 840 619C840 615 839 614 836 614ZM411 278 202 281C197 281 196 305 196 329C196 358 198 387 199 391L202 401H298C295 392 294 386 293 370C292 350 275 323 265 323C260 323 256 318 256 315C256 312 258 311 312 311C335 311 339 312 339 316C339 329 306 309 306 361C306 369 307 378 309 390C311 401 311 401 324 401C364 401 363 385 365 378C368 367 371 362 373 362C383 362 385 425 385 441C385 452 384 453 380 453C375 453 374 451 373 442C372 428 356 410 347 410C345 410 338 413 323 413H310V428C310 451 326 482 340 482C344 482 347 483 347 484C347 491 335 492 294 492C275 492 258 491 258 489C259 488 259 486 259 484C259 482 290 473 290 460C290 458 289 457 289 455C289 448 296 441 296 427V414L249 413H221C202 413 200 413 200 429V455C200 494 201 550 207 551C208 551 216 552 227 552C254 552 308 551 350 550C360 549 370 549 378 549L420 547L421 498V492C421 443 417 389 414 350C412 327 411 309 411 299ZM542 444C538 444 519 444 519 446C519 447 527 452 527 463C527 468 522 493 504 493C488 493 474 479 474 464C474 456 479 453 479 450C479 447 476 447 466 447H434V459C434 472 431 476 431 478C431 481 436 480 436 490C436 500 431 502 431 503C431 505 436 508 436 528V547H466C482 547 510 547 525 545L555 543V495C555 449 555 444 542 444ZM576 445C570 445 568 451 568 474C568 481 568 488 569 499L570 544L606 545H667C691 544 710 543 724 543C767 542 775 541 776 534C777 519 777 501 777 486C777 463 776 445 774 445H761C733 445 684 448 681 450C680 451 679 460 679 469V474C679 487 677 489 643 489H607L606 471C605 455 603 447 598 447C575 447 582 445 576 445ZM273 111C271 111 268 123 264 123C254 123 202 186 195 207C193 211 172 258 172 260C172 266 162 281 162 290C162 299 156 300 156 312V316C156 325 152 324 152 329C152 331 153 333 153 335C153 338 149 334 149 368C149 480 187 538 187 538C188 538 189 530 189 512C189 482 188 432 186 385C185 344 184 306 184 287V284C184 269 184 267 203 267H227C246 267 270 268 287 268C300 268 310 267 311 266C312 265 312 249 312 231C312 168 311 155 302 155C302 155 280 151 277 125C276 114 274 111 273 111ZM126 442 129 461C131 484 137 491 137 495C137 499 126 506 122 506C120 506 119 504 119 502C119 499 123 491 123 474C123 470 123 467 122 467C120 467 115 468 110 470C84 479 81 469 78 483C77 485 76 486 75 486C71 486 68 466 68 460C68 457 69 455 70 455C74 455 72 460 84 460C94 460 110 456 126 442ZM500 451C493 451 483 463 483 467C483 472 495 484 501 484C505 484 511 477 511 467C511 459 507 451 500 451ZM886 428C903 428 907 451 907 455C907 461 912 466 916 466C920 466 923 464 923 458C923 444 913 444 913 439C913 436 915 435 919 435C930 435 933 439 933 444C933 457 921 479 914 479C894 479 889 438 880 438C877 438 872 446 872 452C872 464 887 467 887 471C887 473 880 475 873 475C865 475 857 473 857 470C857 469 858 468 860 466C871 457 860 428 886 428ZM613 76C607 76 604 78 604 81C604 81 614 309 617 312C618 313 619 313 620 313C634 313 637 291 642 291C646 291 650 310 650 325C650 342 646 346 643 346C638 346 641 326 621 326C615 326 614 327 614 338C614 374 635 366 635 374C635 377 626 378 615 378C608 378 581 377 581 374C581 370 603 366 603 334C603 329 601 329 596 329C587 329 576 343 572 343C570 343 569 325 569 315C569 304 570 295 574 295C580 295 582 313 594 313H601L600 262C599 223 598 215 597 208C595 200 594 193 594 142C594 92 593 78 590 78C584 78 548 94 541 99C529 109 525 129 525 151C525 176 531 202 538 209C545 217 541 227 547 234C550 237 550 240 550 242V247C550 251 554 249 554 253C554 255 553 257 553 258C553 262 557 262 557 265C557 266 556 268 556 270C556 271 556 272 557 273C560 278 561 301 562 325C563 348 564 371 567 380C568 385 569 391 569 397C569 406 568 416 568 423C568 431 568 433 583 433H599C615 433 617 437 617 454V463C617 476 618 476 635 476C638 476 641 475 645 475L667 474V457C667 448 668 440 669 439C671 437 775 430 775 430L773 342L772 254L762 276C750 301 738 325 710 325C697 325 656 314 656 262C656 248 659 231 662 214C665 194 668 173 668 154C668 88 625 76 613 76ZM516 29C407 29 340 68 338 71C336 75 318 77 318 81C318 85 304 84 304 89C304 91 307 93 312 93C319 93 348 99 348 119C348 134 338 152 331 153C326 154 326 159 326 210V266L373 265H396C426 265 429 268 429 288V305C429 324 432 334 432 340C432 345 429 340 429 359C429 385 432 435 432 437C432 437 437 438 442 438C457 438 479 436 479 432C479 430 474 429 474 417C474 402 485 395 498 395C511 395 524 403 524 418C524 430 525 430 537 432C541 433 545 434 547 434C551 434 553 431 553 419C553 410 552 394 550 369C549 361 549 352 548 343C542 266 529 239 520 218C512 202 506 189 506 159C506 133 513 103 535 85C542 80 570 64 603 64C616 64 632 66 646 74C673 89 682 105 682 148C682 156 681 166 681 176C680 184 679 192 679 200C677 222 675 246 675 264C675 278 675 311 709 311C747 311 766 235 768 187L770 157L737 124C702 89 704 90 656 68C586 35 586 44 580 39C579 38 577 37 576 37C575 37 574 38 572 38C569 38 568 29 516 29ZM501 402C499 402 483 405 483 418C483 426 489 434 497 434C510 434 514 428 514 422C514 415 509 402 501 402ZM920 257C921 257 929 275 929 283C929 286 928 289 925 289C921 289 911 300 911 303C911 304 913 312 931 312C935 312 935 315 935 324C935 334 934 338 930 338C928 338 926 336 926 334C926 327 906 319 892 319C884 319 878 322 878 328C878 330 876 332 875 332C873 332 872 328 872 324C872 318 867 306 867 302C867 300 868 300 869 300C872 300 875 307 883 307C897 307 916 289 916 276C916 273 915 273 915 268C915 263 917 257 920 257ZM102 264C118 264 131 278 131 295C131 316 112 327 95 327C78 327 67 316 67 300C67 282 81 264 102 264ZM96 279C85 279 78 287 78 295C78 303 87 310 101 310C117 310 120 305 120 299C120 287 105 279 96 279ZM849 121C856 121 860 123 860 129C860 133 858 140 855 149C846 176 839 181 839 186C839 188 843 193 843 197C843 199 842 200 839 200C837 200 821 183 821 179C821 178 838 171 838 159C838 155 823 139 817 139C816 139 809 141 809 147C809 151 812 154 812 157C812 158 811 158 809 158C804 158 780 132 780 125V123C784 123 785 127 797 127C805 127 817 125 828 124C837 122 845 121 849 121ZM562 121C572 121 578 134 578 142C578 154 564 158 558 158C540 158 538 137 538 136C538 130 551 121 562 121ZM640 120C654 120 658 135 658 142C658 152 650 158 642 158C632 158 621 149 621 136C621 123 632 120 640 120ZM840 135C837 135 834 138 834 141C834 145 838 149 842 149C847 149 848 143 848 142C848 138 844 135 840 135ZM188 72C190 72 191 73 191 75V80C191 90 215 109 228 109H234C236 109 237 109 237 110C237 115 207 144 194 144C180 144 187 123 169 123C158 123 155 115 155 110C155 96 181 72 188 72ZM315 106C305 106 293 113 293 122C293 141 306 144 313 144C325 144 333 134 333 123C333 112 326 106 315 106ZM197 109C192 109 190 113 190 119C190 124 192 135 203 135C211 135 215 129 215 125C215 121 204 109 197 109ZM178 93C171 93 169 97 169 101C169 107 174 113 180 113C186 113 189 107 189 103C189 98 185 93 178 93ZM306 -15C310 -15 318 -11 327 -7C341 0 359 9 375 9C378 9 381 9 381 12C381 16 352 26 350 26C349 26 348 26 348 25C348 23 350 20 350 18C350 13 347 11 341 11C337 11 318 13 318 22C318 30 324 39 329 39C333 39 334 40 334 42C334 49 316 60 310 60C308 60 308 59 308 57V47C308 37 306 30 305 22C303 15 301 7 301 -3C301 -11 302 -15 306 -15ZM659 -2C660 -2 738 26 738 35C738 37 733 47 726 47C721 47 648 17 648 13C648 9 653 -2 659 -2ZM314 -6C313 -6 312 -2 312 3C312 9 313 11 317 11C321 11 327 9 327 7C327 5 317 -6 314 -6ZM519 -61C529 -61 546 -58 546 -57C546 -55 544 -54 542 -54C536 -54 534 -47 534 -27C534 -9 540 -7 540 -4C540 -1 532 -1 509 -1L475 0C473 -12 472 -13 472 -16C472 -21 474 -23 476 -23C486 -23 479 -6 501 -6C512 -6 520 -6 520 -43C520 -53 518 -54 513 -54C509 -54 507 -56 507 -57C507 -58 509 -61 519 -61Z" fill="#f59e0b" stroke="none"/>
  </g>
</svg>