<svg xmlns="http://www.w3.org/2000/svg" viewBox="-1 -121 1002 1001">
  <g transform="translate(0, 759) scale(1, -1)">
    <path d="M494 -91C612 -91 725 -39 759 -7C772 4 785 12 804 30C809 35 814 39 820 43C836 56 856 71 889 128L929 194C936 207 945 237 952 258C972 312 966 367 969 374C970 375 971 379 971 384C971 406 964 455 958 478L943 531C943 533 933 553 933 554C933 581 888 641 888 645C888 647 887 649 885 649C883 649 883 654 858 683C854 689 844 705 838 705C836 705 831 709 827 715C789 769 706 804 702 804C700 804 671 822 660 822C659 822 653 824 647 827C625 839 547 850 546 850H538C396 850 413 840 396 840C394 840 383 833 381 833C379 833 374 829 371 829H368C366 829 360 827 359 827C358 827 353 823 351 823C348 823 339 818 330 816L304 806C280 797 228 765 201 742C146 695 84 605 84 594C84 593 61 553 61 548C61 547 61 546 62 546C62 545 56 534 56 531C56 530 52 525 52 523C52 521 53 522 53 520C53 517 49 513 49 509C49 507 50 507 50 505C50 502 43 498 39 462L32 411C31 400 29 382 29 372C29 308 58 228 58 222C61 192 131 87 131 87C137 75 193 18 213 4C229 -8 310 -54 315 -55C347 -70 355 -66 355 -69C355 -71 439 -91 494 -91ZM519 -79C448 -79 359 -77 282 -29L243 -5C203 20 140 83 123 115C112 135 107 134 107 139C107 144 62 200 45 316C42 337 40 359 40 379C40 541 132 651 132 651C132 651 179 718 241 759C273 780 313 801 320 801C320 801 410 841 477 841C479 841 479 840 492 840H528C548 840 570 839 588 835L625 825C641 821 687 803 718 787C770 762 802 730 804 729C812 729 899 619 899 610C899 608 917 584 921 568C924 557 928 546 932 535C944 502 959 463 959 388C959 360 956 320 955 316L952 299C940 243 907 179 902 165C896 149 866 110 866 107C866 103 825 56 814 48C804 41 795 33 785 25C747 -7 703 -44 600 -69C565 -78 559 -79 519 -79ZM507 -77C524 -77 534 -74 543 -74C546 -74 546 -75 548 -75C556 -75 557 -70 561 -70C562 -70 562 -71 564 -71C568 -71 573 -67 575 -67C577 -67 576 -68 577 -68C582 -68 607 -61 626 -56C636 -53 645 -51 649 -50C663 -47 708 -24 714 -21C728 -16 744 3 748 3C754 3 786 31 822 64C863 103 893 157 903 183L916 211C945 276 953 369 953 400C953 404 947 455 947 470C947 475 942 481 942 483L943 485C943 485 935 513 935 516C935 518 927 526 927 529V531C927 538 915 558 915 565C915 567 916 567 916 568C916 575 894 608 894 611C894 618 822 707 808 718L782 740C768 753 705 792 698 792C692 792 661 813 599 827C587 830 548 833 505 833C418 833 390 825 336 803C184 739 142 649 135 649C129 649 70 545 67 523C65 508 46 458 46 380C46 344 49 304 53 294C53 294 74 198 110 144C127 120 134 96 201 33C215 19 286 -27 293 -27C306 -38 326 -44 343 -50C352 -53 359 -55 365 -58C375 -62 385 -61 385 -62C385 -63 396 -65 424 -68L479 -75C490 -76 499 -77 507 -77ZM496 -64C445 -64 364 -56 295 -16L266 0C244 12 211 39 181 71C144 109 153 99 133 131C67 233 57 324 57 376C57 404 60 421 60 421C60 472 81 528 87 544C99 578 157 667 192 699L216 720C264 764 362 808 440 820C446 821 467 823 494 823C542 823 611 818 660 796C701 777 743 754 758 743L789 719C821 692 879 620 896 582C927 515 943 438 943 401C943 342 924 245 903 207L882 166C844 93 791 48 787 48C786 48 779 43 774 38C723 -12 606 -64 496 -64ZM495 747C518 747 545 748 545 770C545 780 537 780 537 787C537 792 543 795 543 802C543 812 529 817 504 817C483 817 479 816 479 813C479 810 488 806 488 781C488 760 487 758 479 757C474 756 471 755 471 753C471 750 476 747 495 747ZM513 789C505 789 504 790 504 798C504 805 504 807 509 807C524 807 527 802 527 799C527 794 521 789 513 789ZM511 758C506 758 504 760 504 770C504 777 507 779 514 779C525 779 528 778 528 775C528 766 527 758 511 758ZM492 22C675 22 772 140 803 199C815 222 851 254 854 392V442L840 484C825 528 804 574 789 596C789 596 741 659 675 692C650 704 641 722 550 735C539 736 523 737 509 737C494 737 482 737 479 739C478 740 477 740 476 740C474 740 473 738 460 737C419 733 401 727 364 709L317 686C308 682 300 677 300 676C300 674 293 669 285 665C251 647 200 572 198 571C193 568 145 488 144 369C144 292 177 229 177 227C177 219 212 148 281 95C281 95 355 22 492 22ZM495 31C455 31 398 48 392 48C385 48 329 75 313 85C305 91 216 159 190 228L181 252C166 288 153 320 153 390C153 390 164 474 178 505L190 534C195 545 204 561 210 568L234 600C251 623 286 654 303 662C312 666 321 672 331 678C365 699 409 726 503 726C621 726 677 677 714 653C734 641 789 581 791 569C791 569 843 473 844 408V392L828 391H820C806 391 811 406 803 406C799 406 798 399 798 396C798 387 807 383 812 378L801 367C793 359 789 349 786 340C782 330 779 321 770 321C762 321 761 379 761 379C761 388 768 399 768 410C768 426 753 451 734 451C700 451 688 421 688 388C688 386 688 385 689 384L690 373L675 371H663C651 371 650 374 650 385C650 413 676 410 676 415C676 418 646 423 632 423C622 423 621 420 621 418C621 408 641 413 641 396C641 393 641 390 640 387L637 375L572 373L574 384C576 393 577 422 578 448C578 471 579 491 580 494C581 496 584 498 587 498C596 498 615 514 615 531C615 543 604 555 590 555C574 555 557 541 557 523V512L434 513C365 513 298 514 281 514L253 515L252 526C252 531 250 553 226 553C208 553 196 535 196 521C196 506 202 505 209 503C217 501 225 499 225 476V469L224 444L208 441C204 441 166 436 166 398C166 382 182 368 206 363C217 361 217 361 221 344C222 337 227 288 276 288C303 288 330 319 330 350V360H362C398 360 398 360 398 338C398 328 398 322 390 322C385 322 385 326 383 326C382 326 381 325 380 325C376 325 361 346 357 346C354 346 352 311 352 303C352 294 354 286 356 286C366 286 367 309 386 309C396 309 396 309 396 296C396 267 372 267 372 261C372 257 393 256 406 256C433 256 439 258 439 265C439 268 437 270 431 270C431 270 410 271 410 299C410 308 413 309 423 309C444 309 440 288 449 288C452 288 454 296 454 313C454 346 452 353 448 353C444 353 440 345 440 341C440 334 431 322 422 322C411 322 408 341 408 351C408 359 415 360 439 360H468V350C468 330 485 298 511 298C524 298 540 305 549 315C559 325 562 335 565 343C568 352 571 358 582 359L593 360L596 335C597 322 600 277 651 277C673 277 705 299 705 357C705 374 702 389 702 402C702 437 728 440 732 440C753 440 756 408 756 404C756 397 752 396 747 396H737C723 396 714 389 714 375C714 363 724 355 734 355C745 355 746 361 749 361C751 361 751 359 751 356V340C751 323 755 309 773 309C785 309 795 318 795 331C795 341 805 366 808 366C812 366 814 368 815 368C816 368 817 367 817 365C817 361 816 359 816 356C816 342 830 336 835 336C838 336 839 335 839 333C839 330 837 323 835 314C825 240 761 148 710 109L683 88C625 44 514 31 495 31ZM584 512C577 512 572 517 572 526C572 536 581 542 589 542C598 542 604 536 604 528C604 521 596 512 584 512ZM227 511C223 511 208 514 208 526C208 533 214 540 223 540C229 540 239 535 239 525C239 518 235 511 227 511ZM277 443 238 445 237 469V482C237 498 240 501 261 501C283 501 315 498 317 496C320 494 321 479 321 465V453C321 444 320 443 308 443ZM443 442C417 442 412 443 412 461C412 499 418 501 444 501C455 501 465 500 467 497C470 495 471 484 471 468V442ZM402 441 334 442V467C333 471 333 474 333 478C333 486 334 493 334 494C335 497 345 498 367 498H398V481C398 471 399 458 400 452ZM519 375C491 375 479 376 479 378C479 380 481 382 481 398C481 401 480 405 480 409C480 420 482 428 491 428C502 428 510 408 510 399C510 392 513 388 516 388C521 388 523 392 523 447C523 466 523 470 520 470C507 470 520 442 492 442H481V466C481 481 482 493 484 495C485 497 493 498 510 498C515 498 520 497 525 497L565 496L564 441C564 409 562 382 562 379C559 376 552 375 519 375ZM212 378C204 378 178 384 178 400C178 415 193 431 212 431C222 431 223 427 223 421C223 409 219 389 219 382C219 379 216 378 212 378ZM311 374C304 374 290 378 262 379L232 380L233 403C234 425 235 431 238 431C238 431 316 427 317 426C319 426 319 421 319 416C319 374 315 374 311 374ZM331 374 332 399C334 426 333 428 354 428H402L400 402C399 388 397 376 397 376C397 376 383 375 364 375ZM443 374C435 374 426 375 424 375H410L412 400C413 413 415 425 415 426C416 427 425 427 438 427H469V403C467 376 470 374 443 374ZM125 354C127 354 127 359 127 366V388C127 406 132 399 132 405C132 411 120 420 114 420C112 420 110 419 110 416C110 408 119 406 119 390C119 377 118 374 113 374C108 374 99 376 99 378C99 381 109 385 109 389C109 392 104 393 96 393C88 393 84 393 84 391C84 387 92 383 92 377C92 375 90 374 87 374C79 374 71 380 71 388C71 401 87 406 87 414C87 416 86 417 84 417C81 417 77 415 71 412C62 408 62 407 62 383C62 364 64 355 67 355C68 355 66 360 96 360C126 360 122 354 125 354ZM923 348C925 348 927 354 927 362C927 370 927 374 925 374C923 374 923 368 906 368C892 368 870 371 870 385C870 394 886 396 900 396C925 396 925 392 928 392C930 392 930 395 930 403C930 411 929 417 928 417C908 413 882 414 869 395C865 390 864 386 864 382C864 366 880 358 900 358C927 358 918 348 923 348ZM733 367C728 367 721 372 721 376C721 381 733 384 736 384C741 384 745 382 745 379C745 375 741 367 733 367ZM840 344C836 344 825 349 825 356C825 362 834 372 838 372C841 372 843 367 843 358C843 347 843 344 840 344ZM276 301C242 301 237 334 230 363H263C280 363 301 362 307 361L318 359L316 346C313 324 301 301 276 301ZM648 290C648 290 619 295 611 310C608 316 604 343 604 354C604 359 604 360 622 360C635 360 639 359 639 356C639 336 615 337 615 329C615 324 632 323 646 323C661 323 664 323 664 325C664 331 647 348 647 351C647 356 656 358 675 358H693L692 345C688 317 666 290 648 290ZM519 309C488 309 480 347 480 354C480 358 484 359 504 359C526 359 558 358 558 355C558 347 542 309 519 309ZM479 -57C489 -57 492 -57 492 -55C492 -52 488 -46 488 -35V-20L505 -37C517 -49 520 -54 524 -54C526 -54 529 -53 532 -52L544 -49L534 -45C524 -41 524 -40 524 -20C524 -4 525 0 529 0C531 0 533 1 533 3C533 5 530 6 526 6C515 6 513 0 513 -9C513 -15 514 -20 514 -23C514 -25 514 -27 513 -27C508 -27 498 3 481 3C477 3 476 3 476 2C476 -1 479 -7 479 -22C479 -57 462 -48 462 -53C462 -56 468 -57 479 -57Z" fill="#f59e0b" stroke="none"/>
  </g>
</svg>