<svg xmlns="http://www.w3.org/2000/svg" viewBox="5 -120 990 1000">
  <g transform="translate(0, 760) scale(1, -1)">
    <path d="M479 -90C495 -90 519 -89 559 -87C567 -86 571 -83 574 -83C575 -83 575 -84 576 -84C579 -84 584 -80 588 -80C589 -80 590 -81 592 -81C595 -81 597 -77 601 -77C602 -77 603 -78 604 -78C607 -78 608 -74 612 -74C626 -74 616 -70 626 -70C636 -70 663 -55 669 -55C673 -55 684 -50 694 -45C705 -39 715 -34 719 -34C728 -34 802 22 836 59C874 100 915 167 915 173C915 177 920 189 926 200C932 213 939 227 939 233C939 240 944 241 944 243C944 245 943 245 943 246C943 250 947 255 947 257C947 259 950 263 950 265C949 265 949 266 949 267C949 268 953 274 953 277V287C953 292 956 291 956 295C956 298 955 301 955 303C955 308 959 304 959 316V324C959 329 959 333 961 334C963 335 963 352 963 368C964 382 964 396 965 398V402C965 421 952 483 952 486C952 486 953 487 953 488C953 492 949 493 949 495C949 496 949 496 950 497C950 497 937 541 937 543C937 545 935 549 932 553C923 565 938 565 900 622L883 650C879 658 877 662 866 674L839 703C823 721 772 764 769 764C767 764 740 785 737 785C736 785 729 789 723 794C712 801 703 805 694 808C688 810 681 813 674 816C652 826 602 836 573 842C560 845 552 846 551 847C547 850 533 850 518 850C490 850 458 848 458 848H452C448 848 451 846 422 841L407 838C396 836 398 834 378 832C327 826 258 778 224 755C214 748 206 743 205 743C200 743 148 691 138 675C112 636 103 620 98 609C91 593 75 573 75 570C75 569 71 561 66 552C55 528 63 531 56 520C54 517 53 514 53 513C53 511 54 510 54 509C54 508 54 507 53 505C47 497 49 480 46 478C45 477 44 476 44 474C44 472 45 470 45 467C45 462 41 464 41 458C41 456 42 454 42 452C42 445 38 443 38 442C38 439 41 439 41 436C41 435 40 434 39 432C37 431 35 391 35 357C35 321 41 288 42 288C43 288 43 285 44 281C48 253 58 245 58 231C58 223 59 221 68 202C71 197 74 189 79 179C121 87 211 8 226 -2C247 -17 320 -57 328 -57C328 -57 329 -56 330 -56C336 -56 368 -73 379 -73C385 -73 386 -78 390 -78C392 -78 393 -76 395 -76C397 -76 398 -80 424 -84C448 -87 453 -90 479 -90ZM510 -80C378 -80 355 -52 342 -52C336 -52 281 -27 263 -16C146 53 68 204 66 232C66 238 42 293 42 362C42 537 114 629 147 670C153 677 157 683 160 687C191 735 317 806 323 806C324 806 370 827 393 827C404 827 403 831 406 831H411C420 831 420 843 498 843C517 843 599 835 662 811L694 798C710 792 763 759 763 759C776 749 832 699 843 687L865 659C879 641 915 579 915 570C915 558 955 514 955 372C955 352 954 336 953 329C935 215 925 224 925 216C925 211 891 142 888 140C873 130 884 116 801 37C779 17 722 -25 715 -25C706 -25 625 -80 510 -80ZM505 -73C535 -73 568 -72 593 -65C651 -51 724 -17 759 11L800 43C839 73 885 144 900 178L919 217C935 250 932 265 937 268C938 269 938 270 938 271V276C938 280 940 278 940 282L939 289L940 293C945 300 949 417 949 417C949 432 943 446 943 452C943 455 944 455 944 457C944 459 939 459 939 468V471C939 483 925 523 925 526C925 532 896 606 865 650C843 682 772 747 753 757C751 758 651 835 495 835C463 835 441 830 420 826C413 825 407 823 400 822C354 813 358 815 353 813C351 812 346 809 333 804C271 780 241 749 229 743C216 737 209 722 204 722C192 722 126 636 126 631C126 629 100 591 100 585C100 583 97 578 94 575C80 563 63 497 62 491C61 490 48 395 48 380C48 199 143 98 181 59C189 49 195 44 195 41C195 37 235 6 253 -5C294 -28 385 -67 411 -67C424 -67 421 -71 426 -71H431C437 -71 469 -73 505 -73ZM485 -62C466 -62 448 -62 439 -60C361 -49 253 -8 182 74L147 114C134 130 124 147 117 160C111 169 107 176 105 176C104 176 83 234 82 239L75 263C63 305 59 341 59 377C59 417 64 455 73 497C98 603 196 708 201 708C202 708 207 712 212 717C243 747 342 801 371 805C375 805 388 808 402 811C422 816 446 821 452 821C468 821 452 826 491 826C565 826 550 818 565 818C581 818 646 801 668 791C837 715 894 581 894 581C895 576 898 569 902 558C915 525 937 467 938 401V396C938 291 926 255 891 187C856 118 834 91 780 42C767 31 719 -4 715 -4C713 -4 706 -8 695 -13C674 -24 638 -42 601 -51L573 -58C562 -61 521 -62 485 -62ZM484 752C494 752 497 754 497 757C497 761 494 766 494 772C494 779 495 781 497 781C503 781 504 753 536 753C556 753 568 774 568 778C568 780 567 782 564 782C560 782 542 761 532 761C523 761 519 768 519 776C519 790 530 794 530 804C530 814 518 820 496 820C473 820 466 818 466 816C466 807 481 813 481 798C481 786 476 780 476 776C476 773 479 769 479 765C479 762 474 762 474 758C474 755 478 752 484 752ZM506 791C501 791 494 795 494 803C494 808 495 815 496 815C497 815 501 809 508 809C514 809 518 806 518 801C518 798 515 791 506 791ZM508 27C535 27 561 28 572 31C637 50 672 72 696 88C704 93 711 98 718 101C718 101 855 200 855 388C855 466 831 515 817 542C813 551 809 557 808 562C800 588 738 658 698 682L674 695C669 698 659 704 651 707L629 718C618 723 549 741 506 741C463 741 422 731 416 731C416 731 333 708 324 695C324 695 258 651 225 602C209 578 192 563 192 559C192 558 189 553 187 548C172 527 150 450 150 417C150 394 146 405 146 388C146 362 155 305 166 275C193 196 198 201 198 198C198 189 263 102 343 66C374 51 393 27 508 27ZM492 40C414 40 383 58 355 75C347 79 339 84 330 88C263 118 198 213 198 223C198 234 188 243 188 252C188 257 191 262 195 262C197 262 201 259 210 249C228 230 232 227 255 227C304 227 326 268 326 289C326 303 318 311 318 313C318 316 308 327 292 327C274 327 259 313 259 297C259 282 273 272 285 272C296 272 305 276 305 280V282C304 284 305 283 308 280C310 278 311 276 311 275C311 261 287 240 258 240C240 240 219 250 219 256C219 261 228 263 245 263C257 263 262 264 262 267C262 273 255 275 234 275H217V290C217 341 283 375 292 375C305 375 291 377 319 377C332 377 352 376 381 376L392 375L393 333V285C390 276 356 272 356 246C356 235 364 209 392 209C409 209 432 221 432 238C432 250 424 268 415 275L405 283L407 374H455L456 361V355C456 347 450 343 444 338C437 333 430 328 430 318C430 307 440 291 457 291C473 291 485 303 485 307C485 316 488 312 488 318C488 322 485 326 485 330C484 337 470 340 470 360V375L495 374C510 374 521 373 522 371C524 370 525 356 525 338C525 278 522 285 504 277C493 273 478 258 478 253C479 250 477 247 477 242C477 239 478 211 519 211C539 211 531 218 539 218C543 218 557 237 557 246C557 250 554 257 548 266L537 281V373L556 372C572 371 578 372 578 355C578 335 553 343 553 316C553 297 566 292 576 292C595 292 609 314 609 322C609 331 590 341 589 360L588 372L610 371C635 370 637 374 637 330V308C637 261 635 254 623 254C616 254 617 246 609 244C602 242 594 224 590 224C585 224 569 192 569 175C569 140 601 107 634 107C666 107 679 119 690 130C697 135 702 141 710 142C727 146 738 163 738 178C738 200 718 200 718 206C718 208 708 211 702 211C686 211 671 192 671 174C671 157 681 153 681 141C681 130 670 123 650 123C603 123 587 159 587 177C587 196 609 233 635 242C641 244 679 245 715 245C729 245 743 244 756 244C775 244 790 245 791 245C792 246 793 276 794 310C796 393 802 402 802 410C802 422 797 410 797 470V488C797 500 797 510 796 515L795 528L701 529C617 530 583 531 527 532C514 532 500 533 483 533C467 534 448 534 427 535L312 539L298 547C285 555 266 571 266 575C266 577 249 596 249 602C249 604 248 605 246 605C244 605 245 609 248 613C266 642 352 704 372 704C384 704 428 730 510 730C559 730 536 722 562 722C581 722 653 696 673 683C677 680 682 677 683 677C698 677 791 578 791 569C791 569 844 488 844 396C844 295 812 211 740 136C705 99 616 48 548 42C526 40 508 40 492 40ZM168 556C171 556 174 560 178 566C182 574 188 581 193 587C198 595 203 600 203 606C203 607 202 626 199 626C189 626 199 588 175 588C168 588 163 594 163 596C163 598 167 601 172 601C176 601 177 600 178 600C179 600 180 600 180 601C180 604 167 612 162 612C161 612 160 611 160 610C160 609 162 606 162 605C162 603 160 602 158 602C155 602 149 604 141 609L148 618C153 624 157 627 161 627C163 627 164 626 165 626C170 626 174 628 174 631C174 636 160 639 157 639C149 639 144 631 139 621C135 616 132 609 127 604C124 600 122 596 122 593C122 591 123 590 125 590C129 590 129 594 135 594C146 594 167 580 167 568C167 566 166 563 166 560C166 557 167 556 168 556ZM837 536C865 536 888 555 888 575C888 591 873 604 858 604C838 604 814 579 814 568C814 567 816 536 837 536ZM184 266C180 266 159 322 159 386C159 479 195 551 198 551C200 551 205 559 212 569C222 583 233 599 238 599C239 599 240 598 240 595C240 584 232 552 232 488C232 468 234 453 237 453C243 453 246 471 273 500C292 522 300 526 329 526C350 526 388 524 391 523C395 522 396 486 396 452C396 426 395 400 393 389L376 390C356 392 354 395 352 395C347 395 341 392 319 391C260 389 229 355 229 352C229 345 220 347 220 340C220 337 218 335 217 335C215 335 213 334 213 332C213 332 198 306 198 285C198 281 199 279 199 278C199 274 190 266 184 266ZM839 549C833 549 826 553 826 558C826 566 849 592 861 592C864 592 876 590 876 580C876 568 855 549 839 549ZM483 388C477 388 469 389 469 398C469 400 470 401 472 401C473 401 474 401 474 402C474 404 472 408 472 413C472 432 492 438 492 453C492 463 480 478 467 478C451 478 438 458 438 452C438 447 444 441 449 435C455 429 460 423 460 418C460 415 458 414 458 411C458 408 461 407 461 405C461 405 461 404 460 403C451 393 463 389 440 389H438C408 389 407 389 407 422C407 511 410 518 412 520C414 521 425 522 441 522C450 522 459 522 470 521L523 520L524 506C524 486 527 501 527 456C527 429 526 392 525 391C523 389 505 388 489 388ZM557 385C542 385 539 387 539 421C539 430 540 441 540 455L541 520L587 519C613 519 635 518 636 517C637 516 639 428 639 425C639 388 635 385 616 385H612L593 386V407C593 431 612 430 612 447C612 457 600 472 587 472C573 472 562 458 562 450C562 438 583 427 583 407C583 387 569 385 563 385ZM771 382C765 382 756 383 744 383H729L731 406C733 432 737 441 750 446C757 448 760 451 760 453C760 460 713 462 700 462C690 462 688 460 688 457C688 453 691 449 695 449C697 449 715 447 715 417C715 407 713 397 712 385L691 386H652C647 386 646 387 646 392C646 400 650 417 650 459C650 484 649 493 649 501C649 515 652 518 674 518C684 518 781 515 783 514C783 513 784 485 784 456C784 422 783 386 782 384C781 382 777 382 771 382ZM465 441C458 441 451 443 451 448C451 450 458 466 469 466C476 466 480 460 480 454C480 445 474 441 465 441ZM589 438C579 438 573 442 573 449C573 455 579 463 587 463C596 463 604 454 604 447C604 442 599 438 589 438ZM731 257C648 257 647 260 647 266C647 272 649 281 649 287L647 328L646 367L672 368C697 369 700 370 703 370C708 370 710 364 710 358C710 324 683 318 683 314C683 311 693 310 719 310C751 310 755 310 756 315C757 318 755 320 749 320C736 320 727 332 727 347C727 366 729 369 750 369C762 369 778 368 779 367C780 366 780 346 780 322C780 294 780 262 778 260C777 258 757 257 731 257ZM577 301C567 301 562 318 562 321C562 322 564 326 569 330L576 338L587 331C593 328 598 323 598 320C598 316 587 301 577 301ZM461 304C454 304 442 317 442 322C442 329 458 334 464 334C471 334 474 328 474 321C474 313 470 304 461 304ZM287 283C284 283 271 284 271 292C271 305 277 314 288 314C296 314 303 308 303 300C303 296 300 283 287 283ZM399 222C392 222 385 226 385 228C385 229 383 230 380 230C375 230 373 234 373 240C373 256 386 269 398 269C410 269 420 257 420 244C420 234 412 222 399 222ZM517 224C507 224 498 231 498 244C498 255 509 269 519 269C525 269 543 263 543 254C543 235 529 224 517 224ZM162 114C164 114 165 117 165 124C165 134 173 147 180 160C187 171 193 182 193 189C193 190 184 190 173 190C152 191 122 192 114 198C111 201 107 203 105 203C104 203 103 202 103 200C103 196 120 173 123 173C125 173 126 175 126 178C126 181 131 183 145 183C169 183 175 181 175 179C175 177 174 176 172 174C160 157 159 144 151 144C149 144 146 146 144 146C143 146 143 145 143 144C143 140 157 114 162 114ZM823 104C829 104 844 118 844 125C844 127 843 128 841 128C838 128 816 148 816 150C816 151 819 151 824 151H840L863 149L871 161C876 168 878 173 878 175C878 176 876 176 876 176C875 176 873 174 869 168L861 159L848 173C830 191 832 199 827 199C822 199 814 184 814 178C814 176 814 176 815 176C819 176 821 181 824 181C831 181 840 166 840 164C840 162 838 161 832 161C826 161 816 163 808 163C801 163 798 161 798 159C798 155 804 150 811 143C819 136 828 128 828 122C828 116 821 109 821 105C821 104 822 104 823 104ZM701 159C695 159 683 172 683 176C683 181 690 197 703 197C713 197 723 188 723 178C723 165 705 159 701 159ZM492 -57C510 -57 525 -42 525 -22C525 6 494 14 489 14C479 14 458 -6 458 -24C458 -43 476 -57 492 -57ZM489 -48C480 -48 475 -38 475 -26C475 -10 486 2 493 2C504 2 506 -17 508 -17C508 -17 510 -22 510 -28C510 -40 498 -48 489 -48Z" fill="#f59e0b" stroke="none"/>
  </g>
</svg>