<svg xmlns="http://www.w3.org/2000/svg" viewBox="-50 -50 1100 1100">
  <g transform="translate(0, 1000) scale(1, -1)">
    <path d="M516 -93H520C524 -93 535 -89 565 -87C600 -84 692 -48 692 -48C700 -48 766 -6 790 14C931 135 934 220 946 234C960 252 968 354 968 361C968 391 966 437 963 452C935 629 818 734 812 734C806 734 793 757 728 792C694 810 682 825 564 845C536 850 514 852 491 852C455 852 421 845 371 831C310 814 287 799 269 787L248 775C229 766 173 717 149 690C127 665 110 635 99 616C93 605 89 597 87 596C78 590 45 485 45 463V460C45 449 41 450 41 446V442C41 442 32 389 32 375C32 370 34 374 34 369V361C34 353 35 335 41 301L43 285L50 263C50 263 64 148 178 34C195 17 218 -2 227 -8C359 -89 449 -90 491 -90C504 -90 513 -90 516 -93ZM504 -83C428 -83 353 -65 341 -56C329 -47 293 -49 202 19C169 44 71 165 62 240L48 305C46 316 44 354 44 385C44 458 73 569 104 605C106 609 171 737 318 806C337 814 427 841 485 841C557 841 660 823 692 802C715 787 910 709 955 447C958 431 959 412 959 392C959 321 944 243 937 234C933 230 931 223 927 213C921 196 911 167 881 121C826 37 700 -40 688 -40C682 -40 604 -83 504 -83ZM490 -79C603 -79 687 -34 692 -34C701 -34 828 40 886 137C899 159 925 214 925 221C925 225 952 282 952 372C952 435 939 514 893 601C861 661 819 705 751 753C672 809 599 829 470 829C460 829 452 828 450 828L416 822C374 815 323 798 286 778C194 731 114 622 114 612C114 612 48 521 48 379C48 359 50 336 53 313C69 202 83 171 156 75C195 25 244 -12 308 -37L336 -49C391 -71 442 -79 490 -79ZM503 -70C438 -70 360 -66 252 -1C223 17 175 56 129 122C75 200 76 240 68 276C61 311 58 343 58 370C58 469 101 564 101 564C114 599 118 593 127 610C150 655 251 768 357 795C433 814 469 819 492 819C537 819 674 795 700 770C708 762 785 730 857 637C883 604 928 501 928 469C928 456 938 470 938 392C938 348 934 296 928 272C915 224 881 143 866 127C862 123 853 110 843 98C803 46 710 -22 688 -27C682 -28 675 -31 665 -36C636 -48 586 -70 503 -70ZM469 749C521 749 521 761 521 771C521 775 518 779 518 782C518 788 520 792 520 795C520 807 513 812 503 812C493 812 491 814 485 814C476 814 463 811 463 807C463 802 472 807 472 784C472 751 456 758 456 751C456 750 462 749 469 749ZM495 788C484 788 483 788 483 797C483 805 484 806 492 806C503 806 507 797 507 792C507 789 504 788 495 788ZM492 758C484 758 483 759 483 769C483 778 484 779 492 779C498 779 509 775 509 769C509 762 498 758 492 758ZM507 21C586 21 650 59 662 62C667 63 683 77 688 77C700 77 766 140 788 173C840 250 857 288 857 401C857 436 853 483 809 558L790 590C778 611 737 647 713 669C703 677 696 683 695 685C692 688 611 741 500 741C452 741 400 731 346 705C312 689 258 643 231 608C219 591 210 589 210 584C210 582 204 572 198 563C183 541 185 536 183 534C168 520 143 449 143 372C143 342 146 311 157 281C164 260 173 196 253 119C292 82 344 54 344 54C370 35 447 21 507 21ZM725 437 721 452C717 466 707 488 694 510C688 521 661 531 661 535C661 538 666 541 674 550L688 564L699 553C707 545 709 542 709 537C709 533 706 525 706 519C706 516 707 515 709 515C715 515 747 544 747 552C747 555 743 556 734 556H731C716 556 702 563 702 571C702 578 722 598 733 598C741 598 749 593 755 593C758 593 759 594 759 596C759 599 757 604 752 607C746 611 737 620 728 628C721 635 714 641 713 641C712 641 712 639 712 635C712 626 713 620 713 613C713 602 709 598 695 591L684 586L672 598C664 606 662 609 662 614C662 619 665 624 665 630C665 635 663 638 660 638C654 638 623 605 623 597C623 595 626 594 631 594C638 594 643 595 647 595C654 595 657 592 665 584L677 572L662 558C652 549 647 544 644 544H639C633 544 627 541 604 541L583 540L585 553V557C585 573 570 591 553 591C536 591 521 575 521 559C521 548 526 546 526 540C526 538 525 536 523 536C520 536 518 540 516 540C513 540 507 537 479 537C463 537 447 539 447 542C447 543 448 544 448 553C448 572 442 588 418 588C405 588 388 582 388 559C388 548 393 544 393 540C393 532 380 530 367 530C339 530 350 535 329 535H325L309 534L302 548C298 556 295 564 295 566C295 569 315 581 323 581C329 581 342 570 347 570C348 570 349 570 349 571C349 579 336 626 324 626C319 626 318 624 318 614C318 609 317 602 316 601C312 596 295 587 289 587C284 587 282 590 282 596C282 613 301 635 301 638C301 640 300 640 298 640C290 640 277 629 272 629C271 629 271 630 271 631C271 645 380 727 488 727C552 727 596 712 600 712C613 712 716 672 771 595C803 551 834 485 834 473C834 471 833 471 833 470C833 466 840 453 840 445C840 442 839 440 834 440C832 440 747 457 747 498C747 503 746 506 744 506C740 506 734 496 734 484C734 462 753 441 753 439C753 438 747 437 739 437ZM171 550C174 550 178 554 183 563L190 575C185 574 180 572 176 572C167 572 165 581 165 583C165 592 177 598 186 598C189 598 192 596 192 593C192 587 187 585 187 579C187 578 188 577 188 577C196 577 216 600 216 606C216 609 213 609 206 609H203C185 609 189 620 184 620C178 620 167 632 167 638C167 639 168 640 168 642C168 643 167 644 166 644C160 644 145 625 145 618C145 616 146 615 147 615C151 615 154 618 159 618C164 618 167 615 167 609C167 600 159 593 152 593C146 593 142 597 142 604C142 607 143 609 143 609C143 612 142 612 140 612C137 612 134 610 131 606C124 593 117 592 117 585C117 583 119 582 122 582H127C138 582 163 566 166 556C167 552 168 550 171 550ZM511 33C470 33 418 42 418 42C406 43 403 48 399 48H396C393 48 381 55 379 55C379 52 371 58 369 58C369 58 264 106 206 197C188 225 182 247 182 250C182 250 155 304 155 383C155 448 186 512 205 550C225 588 237 602 252 602C271 602 275 581 275 581C275 578 267 569 256 569C244 569 239 576 232 576C230 576 229 574 229 572C229 560 249 526 255 526C257 526 258 527 258 532V539C258 558 276 553 276 561C276 563 277 564 278 564C282 564 294 540 294 532C294 528 292 527 287 526C268 522 216 502 209 451C207 436 203 435 203 431C203 430 204 428 204 426C204 422 201 420 201 410C201 407 202 402 203 396C205 388 237 341 244 337C250 334 252 331 252 328C252 320 235 312 226 295C207 258 200 248 200 244C200 241 204 240 211 240C221 240 247 242 270 244L305 246H307C312 246 321 244 321 223C321 213 313 206 308 206C303 206 290 215 290 221C290 224 293 226 296 226C299 226 300 221 304 221C305 221 306 223 306 226C306 232 304 235 293 235C280 235 273 227 273 217C273 206 282 194 300 194C315 194 334 201 334 226C334 234 333 236 333 239C333 243 341 244 375 244C396 244 398 244 402 210C407 166 416 163 436 161L449 159L452 123H469C494 123 517 109 517 90C517 85 463 84 463 55C463 45 472 38 483 38C492 38 518 55 521 63C521 65 524 66 529 66C540 66 557 63 575 63C588 63 602 64 613 69C624 74 650 108 664 134C673 150 686 161 696 161C709 161 720 169 728 169C733 169 734 163 734 161C734 154 728 147 722 147C715 147 718 158 711 158C708 158 706 153 706 151C706 144 713 141 721 141C731 141 744 149 744 160C744 171 734 182 734 190C734 196 740 200 744 200C753 200 750 187 755 187C758 187 762 193 762 197C762 203 756 208 744 208C734 208 727 203 727 196C727 176 707 172 688 172C667 172 633 175 623 179C617 181 602 182 589 182C577 182 566 183 564 184C562 185 562 192 562 200C562 211 562 214 564 214H566C587 208 615 204 636 204C645 204 652 205 659 205C664 205 666 204 666 203C666 193 634 192 634 188C634 186 639 183 646 183C661 183 684 195 684 210C684 220 668 236 645 236C630 236 621 233 621 227C621 226 660 228 660 221C660 220 656 214 636 214C606 214 562 225 560 228C559 229 560 233 562 235C564 240 569 241 613 243C662 245 699 246 724 246C748 246 761 245 762 243C765 238 781 230 788 230C798 230 810 239 812 239V237C812 233 783 186 770 168C753 146 695 92 688 92C682 92 645 68 642 68C641 68 614 50 569 41L539 35C531 33 521 33 511 33ZM845 511C848 511 860 518 860 522C860 526 837 526 837 542C837 548 844 550 846 550C850 550 852 548 852 545C852 542 848 539 848 536C848 535 850 534 852 534C858 534 873 540 873 545C873 551 858 549 858 557C858 560 862 563 864 563C870 563 884 549 884 544C884 542 883 540 879 524C887 527 896 531 896 539C896 545 872 585 869 585C865 585 863 575 854 571C842 565 835 561 831 561C826 561 822 565 820 565C818 565 818 564 818 563C818 557 842 511 845 511ZM550 537C540 537 544 544 539 546C536 547 534 552 534 557C534 569 541 577 552 577C561 577 570 570 570 561C570 549 560 541 559 541C558 541 555 537 550 537ZM423 541C420 541 417 541 413 542L401 543V557C401 571 405 575 420 575C432 575 435 568 435 559C435 544 431 541 423 541ZM586 436C575 436 566 437 565 438L564 488C564 516 565 524 571 524C574 524 575 523 577 523C580 523 581 526 584 526C587 526 586 524 594 524C600 524 610 525 622 525C641 525 662 521 681 502C689 493 708 452 708 442C708 440 696 438 686 438C667 438 662 441 662 443C662 447 666 448 666 458C666 470 651 481 636 481C613 481 607 462 607 457C607 449 615 443 615 440C615 437 608 436 586 436ZM530 433C520 433 513 434 513 439C513 442 522 449 522 459C522 470 511 484 492 484C478 484 463 474 463 458C463 449 468 440 472 434L419 436V520L453 522H490C517 522 543 521 548 520C550 519 552 502 552 477L553 435L537 434C534 433 532 433 530 433ZM346 337C335 337 327 340 327 377C327 404 329 406 334 406C376 406 370 376 379 376C385 376 388 419 388 431C388 437 387 440 385 440C383 440 380 437 376 430C370 419 369 419 350 419C339 419 331 420 331 421C331 430 329 425 329 431C329 442 363 463 363 464C363 467 340 470 309 470C291 470 283 469 283 466C283 460 314 457 317 431L318 419H302C286 419 285 420 278 430C274 437 271 440 270 440C267 440 264 401 264 392C264 382 265 374 269 374C278 374 277 403 300 403C312 403 314 398 314 366C314 358 313 349 313 346C312 338 311 338 291 338C271 338 271 338 255 353C226 378 221 401 221 416C221 425 223 431 223 433C228 473 246 495 285 510C305 517 306 517 357 517L404 518C406 510 406 487 406 461C406 409 404 342 403 340C401 339 373 338 352 338C350 338 348 337 346 337ZM493 440C484 440 473 448 473 458C473 465 479 473 487 473C494 473 509 467 509 459C509 456 506 440 493 440ZM635 441C626 441 621 446 621 457C621 465 630 470 638 470C646 470 651 464 651 456C651 448 645 441 635 441ZM564 271V305C564 324 563 358 562 379V418L577 420C586 421 600 422 608 422H624V401C624 382 624 381 614 373C606 367 604 361 604 356C604 345 616 329 632 329C646 329 658 341 658 355C658 362 654 371 644 378C638 382 637 386 637 398C637 421 647 423 670 423C702 423 710 421 710 418C710 415 705 409 705 399C705 374 661 312 623 285C610 276 606 274 587 273ZM822 267C820 267 819 269 818 272C816 279 799 290 790 290C783 290 774 285 771 285C770 285 770 286 770 287C770 294 790 314 790 320C790 321 789 322 788 322C784 322 773 316 762 316C754 316 748 318 748 321C748 330 774 337 774 339C774 342 744 362 738 362C737 362 736 361 736 359C736 355 739 347 739 340C739 336 737 331 732 331C723 331 702 349 702 354C702 356 703 356 705 356C708 356 716 379 719 398C723 418 725 422 741 422H743C751 422 755 421 755 420C755 417 741 417 741 386C741 360 759 358 759 358C761 358 762 359 762 363C762 367 760 371 760 375C760 410 829 423 840 423C842 423 844 420 844 387C844 360 835 267 822 267ZM548 279C541 279 516 291 511 298C502 308 438 335 424 335C418 335 417 337 417 377V401C417 420 419 420 434 420C478 420 479 416 479 411V409C479 401 477 386 474 386C469 386 456 374 456 360C456 347 473 333 487 333C505 333 516 356 516 361C516 370 511 374 505 379C500 384 494 389 494 399C494 408 497 418 499 419C500 420 506 420 513 420H525L549 418L550 351C551 338 551 326 551 317C551 280 550 279 548 279ZM486 348C479 348 470 357 470 362C470 369 479 374 487 374C498 374 501 367 501 362C501 356 495 348 486 348ZM632 342C624 342 616 347 616 356C616 364 624 368 631 368C641 368 646 360 646 354C646 346 639 342 632 342ZM621 259C618 259 615 259 615 260C615 262 619 264 626 268C641 276 678 310 686 324C689 329 692 330 696 330C709 330 724 317 724 312C724 303 699 305 699 299C699 295 719 279 729 279C732 279 734 280 734 283C734 287 733 287 733 292C733 299 735 305 738 305C742 305 750 289 752 276L754 265L736 264C665 264 633 259 621 259ZM233 254C228 254 223 255 223 257C223 262 247 299 257 308C268 318 290 321 345 321H404L405 308V300C405 292 404 283 404 276L401 256L362 257C324 258 322 259 312 267C302 275 299 280 299 285C299 295 313 299 315 299C320 299 323 296 323 292C323 285 316 285 316 280C316 276 324 276 327 276C334 276 340 282 340 294C340 307 321 310 315 310C300 310 286 299 286 286C286 275 297 266 297 261C297 258 292 257 280 257C271 257 248 254 233 254ZM497 256C477 256 446 258 446 276C446 282 453 286 461 286C466 286 470 284 470 281V278C470 276 473 270 477 270C480 270 486 275 486 279C486 285 472 294 459 294C445 294 436 283 436 274C436 267 440 262 440 259C440 257 438 257 430 257C417 257 417 259 417 266V268C417 318 419 319 424 319C444 319 513 279 513 269C513 256 506 256 497 256ZM790 242C777 242 769 250 769 261C769 275 778 277 788 277C804 277 808 271 808 261C808 252 804 242 790 242ZM537 254C527 254 525 255 525 259C525 265 527 267 529 267C534 267 542 260 548 260C551 260 552 259 551 257C550 255 544 254 537 254ZM449 174C419 174 417 192 417 201V204C417 215 413 231 413 237C413 241 413 244 442 244C456 244 466 242 466 227C466 215 457 210 451 210C445 210 442 215 442 218C442 220 443 221 446 221C449 221 450 223 450 226C450 232 446 235 443 235C438 235 431 228 431 219C431 207 444 199 454 199C467 199 477 210 477 226V229L476 240L505 242C495 197 474 174 449 174ZM508 188C504 188 502 189 502 192C502 196 505 203 511 215L522 239H536C548 239 550 238 550 233C550 230 548 227 546 227C537 227 524 213 522 201C521 192 520 188 508 188ZM126 163C134 163 150 169 150 180C150 181 149 182 147 182C145 182 138 180 133 180C128 180 126 182 126 184C126 189 142 197 144 197C148 197 152 206 159 206C164 206 171 198 175 198C176 198 177 200 177 203C177 210 167 216 164 228C162 234 159 236 156 236C153 236 150 233 150 227C150 224 149 221 147 221C141 221 127 203 119 203C115 203 113 206 113 211C113 217 117 223 117 227C117 229 116 230 112 230C105 230 94 219 94 213C94 211 98 201 104 191L117 167C118 164 122 163 126 163ZM543 187C539 187 534 192 534 198C534 205 539 212 543 212C546 212 548 208 548 198C548 191 546 187 543 187ZM840 119C864 119 875 149 875 156C875 157 875 158 874 158C871 158 871 155 868 155C858 155 827 178 827 186C827 189 828 192 825 192C820 192 808 172 808 169C808 168 809 168 810 168C812 168 813 169 815 169C822 169 834 160 834 156C834 155 833 155 831 155C826 155 817 159 809 159C795 159 785 151 785 142C785 136 790 131 793 131C795 131 799 151 808 151C808 151 826 150 826 138C826 136 825 133 825 132C825 124 832 119 840 119ZM573 74C529 74 528 80 528 88V90C528 112 504 134 479 134C465 134 463 137 463 151C463 166 474 176 506 176C526 176 546 171 546 171C548 170 550 163 550 156C550 131 534 138 534 117C534 101 549 90 559 90C562 90 585 92 585 113C585 125 579 136 568 140C562 143 562 145 562 155C562 163 562 166 566 166C579 166 617 147 617 109C617 85 602 74 573 74ZM634 110C632 110 630 114 629 119C623 148 600 161 600 165C600 166 601 167 604 167C604 167 664 162 664 156C664 156 636 110 634 110ZM845 128C841 128 838 131 838 135C838 142 845 146 849 146C853 146 854 143 854 139C854 134 850 128 845 128ZM562 99C555 99 546 107 546 114C546 122 553 128 561 128C566 128 576 122 576 112C576 106 569 99 562 99ZM485 48C483 48 478 53 478 57C478 62 499 71 505 71C507 71 508 70 508 69C508 64 490 48 485 48ZM497 -55C508 -55 517 -54 517 -52C517 -51 515 -49 512 -49C509 -49 507 -43 507 -35C507 -4 525 -10 525 -5C525 -1 508 2 495 2C488 2 483 1 481 -1C480 -3 482 -4 484 -4C489 -4 492 -15 492 -24C492 -52 478 -48 478 -52C478 -54 484 -55 497 -55Z" fill="#f59e0b" stroke="none"/>
  </g>
</svg>