<svg xmlns="http://www.w3.org/2000/svg" viewBox="0 -122 1000 1004">
  <g transform="translate(0, 760) scale(1, -1)">
    <path d="M510 -92C604 -92 731 -63 845 58C872 86 883 101 894 118C965 240 970 327 970 370V396C970 442 967 483 925 583C903 636 864 686 807 736L773 766C747 790 637 852 505 852C436 852 374 838 341 825C323 818 254 784 235 774C194 750 114 664 102 630C102 630 30 532 30 385C30 352 34 310 39 307C42 305 40 303 40 301C40 287 60 203 93 150C115 114 154 64 170 48C203 17 246 -17 274 -33C296 -46 354 -68 363 -68C366 -68 425 -92 510 -92ZM502 -80C379 -80 290 -35 255 -11L229 8C212 20 150 82 131 108C72 185 59 244 42 337C40 345 39 360 39 382C39 553 135 714 274 785C356 827 414 842 493 842C553 842 603 839 665 813L695 800C746 779 765 765 821 709C895 635 910 603 937 528C953 482 960 429 960 380C960 321 951 268 938 235C904 149 889 112 814 41L799 27C784 13 773 3 771 3C764 3 685 -80 502 -80ZM488 -76C642 -76 736 -32 826 60C874 109 865 106 879 123C902 152 939 248 949 302C952 319 953 353 953 385V395C953 436 952 476 930 531C898 613 889 629 847 678C809 723 735 780 729 780C719 780 686 807 590 830C574 834 539 837 503 837C473 837 442 835 424 832C166 786 44 571 44 383C44 297 80 198 89 181C198 -12 333 -49 405 -65C438 -73 460 -76 488 -76ZM512 -63C478 -63 431 -59 411 -54L370 -41C258 -8 186 70 186 70C186 71 179 79 172 87C163 97 153 109 150 113L130 144C91 201 75 244 60 339C57 353 56 368 56 385C56 533 128 625 151 659C187 712 233 755 342 797C395 818 447 826 497 826C615 826 716 779 760 743L782 726C839 681 887 606 890 596C892 586 897 577 903 565C919 532 943 481 943 371C943 310 926 230 882 154C882 150 826 66 813 66V68C813 69 815 68 815 70C815 78 806 103 806 120C806 131 810 133 810 136C810 137 809 138 808 138C803 138 787 123 787 119C787 116 798 117 798 108C798 99 788 90 780 90C775 90 772 92 772 97C772 99 773 100 773 103C773 105 772 105 771 105C765 105 747 90 747 86C747 85 748 84 749 84C751 84 752 85 753 85C758 85 771 80 784 73L811 61L791 43C770 23 739 4 690 -21C640 -46 626 -51 539 -62C532 -63 522 -63 512 -63ZM526 754C541 754 546 755 546 757C546 761 532 766 532 769C532 776 508 822 504 822C501 822 497 814 491 804C482 788 471 767 459 766C456 765 451 763 451 758C451 756 453 755 457 755C462 755 484 757 484 760C484 762 479 763 479 767C479 773 487 781 499 781C506 781 514 778 514 772C514 765 506 760 506 757C506 755 510 754 526 754ZM496 787C494 787 493 787 493 788C493 791 498 803 501 803C502 803 506 798 506 793C506 790 504 787 496 787ZM498 22C596 22 656 50 711 86C729 98 795 162 795 168C795 168 838 242 847 271C857 303 861 342 861 379C861 425 856 479 828 531C828 537 792 593 792 594C792 598 771 626 758 638L735 658C735 658 639 741 514 741C354 741 289 676 241 627C232 619 225 611 217 604C211 599 184 555 184 551C184 550 182 543 178 536C163 510 144 435 144 380C144 328 156 292 164 269C168 259 170 252 170 247C170 244 173 238 176 234C191 212 241 88 396 40C405 37 437 22 498 22ZM475 34C472 34 468 38 463 38H457C452 38 453 42 444 42H440C412 42 307 95 301 105C299 107 297 108 296 108C292 108 227 175 227 179C227 184 195 222 176 286C172 300 168 303 168 305C168 306 170 307 170 308C170 311 166 314 166 320C166 321 167 322 167 324C167 330 162 330 162 334C162 336 163 336 163 337C163 340 157 383 157 402C157 413 160 412 160 414C160 415 159 416 159 418C159 420 166 434 166 452C166 454 165 454 165 456C165 459 169 459 172 474C179 520 218 578 218 581C218 585 264 634 267 634C269 634 272 639 278 645C294 663 359 700 397 712L421 720C435 725 463 726 492 726C581 726 587 722 603 715L617 709C674 686 708 661 710 661C716 661 717 652 722 652C728 652 732 640 736 640C740 640 762 619 762 615C762 610 777 605 777 594C777 583 786 584 786 580C786 578 791 570 796 562C811 539 837 481 837 471C837 465 844 454 845 442C846 438 846 412 846 386C846 314 845 320 842 306C838 283 803 205 792 193C790 192 789 188 789 185C789 182 788 180 786 180C784 180 782 178 781 175C778 167 763 153 746 135C718 103 660 68 652 68V70C652 72 658 74 658 84C658 96 650 110 640 117C628 124 627 124 627 138V150C627 166 627 183 629 183C630 183 638 177 647 171C659 163 671 155 673 155C675 155 676 154 676 152C676 151 678 150 681 150C688 150 691 154 691 157C691 160 688 162 688 166C688 177 656 256 656 256L644 290C641 300 639 307 639 311C639 317 642 318 648 318C658 318 678 315 697 315C710 315 709 318 717 318C730 318 747 310 747 300C747 295 739 287 731 287C724 287 719 293 719 297C719 300 721 302 726 302C730 302 728 298 728 295C728 293 729 292 730 292C733 292 737 295 737 299C737 303 734 312 724 312C716 312 705 305 705 296C705 288 723 273 731 273C748 273 763 288 763 303C763 318 750 316 750 327C750 335 760 335 760 348C760 360 750 376 731 376C724 376 702 372 702 358C702 353 705 342 716 342C725 342 734 348 734 355C734 359 732 361 729 361C728 361 726 359 726 357V355C726 352 722 349 718 349C716 349 712 349 712 353C712 361 724 370 726 370C729 370 747 353 747 347C747 335 729 332 698 332C666 332 629 336 629 337C629 340 696 395 714 405L733 418C744 424 753 432 762 438C770 445 778 450 784 453C789 456 792 460 792 463C792 470 791 471 700 471H628L629 518C632 615 632 630 644 643C652 651 656 658 656 666C656 681 639 695 627 695C606 695 589 686 589 661C589 653 598 643 611 635C615 633 616 631 616 602C616 602 615 475 613 473C612 472 609 472 605 472H596L581 474L577 488C574 497 572 506 570 509C564 522 555 549 546 575C532 617 518 660 511 660C502 660 482 585 467 532L461 510C458 496 455 485 454 483C450 471 449 470 438 470H427V517C427 649 434 645 438 648C446 655 451 664 451 672C451 688 431 708 417 708C407 708 383 694 383 674C383 659 391 654 398 650C406 646 413 641 413 627C413 622 412 615 412 606C411 592 409 571 409 542V532L410 475L356 474C331 473 311 473 294 473C253 472 238 472 236 468C235 465 236 462 237 462C241 461 246 457 254 450C265 441 282 427 313 407L371 368C389 357 402 345 402 343C402 340 333 337 300 337H297C283 337 273 338 273 356C273 362 279 373 290 373C298 373 306 365 306 361C306 360 305 359 302 359C295 359 293 364 289 364C286 364 284 361 284 359C284 350 295 348 301 348C312 348 319 355 319 365C319 378 307 385 293 385C273 385 258 373 258 355C258 342 269 336 269 328C269 320 255 318 255 301C255 293 261 270 285 270C296 270 317 275 317 293C317 306 300 314 296 314C290 314 280 301 280 294C280 292 281 290 283 290C285 290 293 299 298 299C300 299 302 297 302 292C302 285 296 279 290 279C278 279 271 296 271 304C271 319 293 321 317 321C324 321 330 320 337 320C375 320 375 318 379 318C384 318 391 320 396 320C400 320 403 319 403 317C403 312 383 250 379 246C377 243 354 157 354 151C354 145 355 138 358 138C362 138 394 165 396 165C399 165 400 153 400 143C400 131 399 119 396 117C390 111 374 104 374 87C374 69 389 57 411 57C433 57 445 71 445 86C445 100 437 107 429 114C421 120 413 127 413 140C413 151 417 152 417 157C417 163 412 167 412 172C412 182 478 225 479 225C480 225 481 226 481 228C481 230 503 245 506 245C507 245 508 224 508 196V147H498C480 147 461 182 459 182C455 182 454 166 454 149C454 113 455 103 460 103C473 103 466 132 495 132H508V118C508 101 493 77 479 74C470 72 466 71 466 68C466 62 471 61 493 61C521 61 564 65 564 65C564 66 565 67 565 67C565 70 560 75 553 75C541 75 521 97 521 116C521 133 524 133 528 133C564 133 570 100 580 100C585 100 586 138 586 149C586 172 584 182 576 182C564 182 578 147 540 147H521V198C521 241 522 257 528 257C531 257 543 243 572 225C610 200 613 198 613 169V150C613 132 612 124 606 119C601 115 587 108 587 90C587 73 604 57 608 56C611 55 612 54 612 53C612 50 583 49 581 45C580 44 579 44 578 44H573C568 44 570 41 565 41C563 41 561 42 557 42C551 42 545 36 498 36C489 36 483 36 481 37C478 39 477 34 475 34ZM503 692C507 692 516 697 516 705C516 711 509 721 506 721C505 721 494 718 494 707C494 700 498 692 503 692ZM207 626C209 626 229 642 229 647C229 649 227 650 223 650C215 650 209 659 209 663C209 666 211 668 216 672L225 679C235 669 238 664 238 661C238 657 233 657 233 655C233 654 234 651 237 651C242 651 247 661 253 661C256 661 262 670 262 673C262 674 262 675 261 675C259 675 256 674 255 674C242 674 225 708 224 710C223 714 221 716 218 716C211 716 200 704 200 699C200 698 201 697 202 697C204 697 205 698 207 698C212 698 221 692 221 687C221 683 206 671 202 671C200 671 192 677 192 683C192 686 193 688 193 689C193 691 192 692 191 692C184 692 165 671 165 669C165 668 166 668 167 668C170 668 172 669 175 669C189 669 206 640 206 633V628C206 626 206 626 207 626ZM416 655C407 655 411 661 405 661C401 661 396 674 396 679C396 685 409 696 419 696C429 696 436 685 436 673C436 667 436 655 416 655ZM533 661C537 661 547 670 547 674C547 678 537 685 533 685C528 685 520 677 520 673C520 669 529 661 533 661ZM788 626C805 626 809 637 809 651C809 659 807 667 807 671C807 676 809 676 812 676C817 676 820 672 820 667C820 661 815 658 815 652C815 651 816 650 818 650C820 650 824 651 829 656L837 664L829 675C823 682 816 685 812 685C800 685 790 672 790 656C790 651 792 646 792 642C792 638 790 637 785 637C778 637 774 642 774 650C774 655 776 660 776 663C776 666 775 667 773 667C769 667 757 660 757 652C757 651 758 650 761 650C770 650 774 626 788 626ZM617 645C607 645 604 659 604 669C604 676 614 684 622 684C624 684 627 682 633 682C635 682 645 672 645 663C645 651 624 645 617 645ZM474 655C477 655 489 661 489 669C489 675 483 678 476 678C469 678 463 676 463 670C463 665 469 655 474 655ZM471 470C468 470 467 472 467 475C467 479 505 627 512 627C515 627 519 614 526 593C533 570 544 535 560 496C563 488 564 484 564 480C564 473 557 473 531 473H525C487 473 476 470 471 470ZM242 483C248 483 253 485 253 491C253 498 245 505 240 505C235 505 228 493 228 490C228 489 234 483 242 483ZM783 480C788 480 792 483 792 489C792 497 783 505 775 505C769 505 766 499 766 494C766 486 775 480 783 480ZM202 465C211 465 218 474 218 482C218 489 208 493 205 493C201 493 189 481 189 477C189 475 195 465 202 465ZM815 464C819 464 826 471 826 476C826 485 820 490 815 490C810 490 806 484 806 479C806 471 813 464 815 464ZM229 432C236 432 238 441 238 444C238 456 229 458 224 458C219 458 215 456 215 445C215 438 222 432 229 432ZM612 384C609 384 589 456 589 456C589 457 591 458 593 458C614 458 615 448 615 438V435C615 408 613 385 612 384ZM401 365C398 365 273 453 273 454C273 455 305 456 342 456H409L407 420C406 384 404 365 401 365ZM420 387C420 387 419 389 419 394C419 454 419 456 430 456H432C441 456 444 455 444 452C444 446 436 422 434 422C429 422 425 387 420 387ZM525 278C524 278 522 300 522 325V373C524 374 544 379 544 403C544 419 535 436 516 436C505 436 480 430 480 405C480 394 488 381 501 375L511 371V331C511 309 510 290 509 290C507 290 497 297 486 305L446 335C432 346 427 350 427 353C427 357 432 360 432 365V369C432 370 432 371 434 372C435 374 438 384 441 395C447 417 455 448 462 453C465 455 488 456 520 456H573L579 440C579 440 611 347 611 344C611 341 609 340 604 337C592 332 568 312 550 297C537 286 527 278 525 278ZM630 357C628 357 627 364 627 375C627 386 628 398 628 410C629 420 629 430 629 437V442L628 455L641 454C641 454 677 455 709 455C729 455 756 455 756 452C756 450 744 442 729 431C697 410 671 388 653 374C640 364 632 357 630 357ZM802 425C808 425 812 429 812 438C812 445 807 451 800 451C792 451 789 448 789 441C789 431 794 425 802 425ZM88 354C93 354 95 355 95 357C95 362 80 373 80 378C80 382 91 384 102 384C131 384 125 374 131 374C133 374 134 379 134 389C134 400 133 404 130 404C121 404 133 395 104 395C89 395 82 397 82 401C82 405 99 416 99 424C99 426 98 427 95 427C93 427 90 426 71 422V392C71 359 74 354 88 354ZM513 387C504 387 496 394 496 405C496 418 501 422 518 425C520 425 531 413 531 402C531 393 521 387 513 387ZM915 350H932V413H919C912 413 903 411 903 407C903 403 922 395 922 391C922 390 918 389 898 389C882 389 879 390 878 395C877 400 876 401 874 401C871 401 868 388 868 378C868 371 870 366 873 366C881 366 872 375 902 375C917 375 922 374 922 371C922 366 900 358 900 354C900 352 904 350 915 350ZM412 200 413 215C416 235 419 248 419 262C419 271 418 276 418 283C418 296 421 303 421 316V327C421 327 508 276 508 267C508 264 505 262 501 259L480 245L452 224C439 214 433 210 423 205ZM612 211 604 220C595 232 574 243 574 245C574 248 565 253 556 258C547 263 538 268 538 270C538 273 594 315 598 315C602 315 604 322 608 322C614 322 615 308 615 286C615 275 615 261 614 245ZM668 176C667 176 662 179 651 187C628 203 627 198 627 226C627 250 629 286 630 286C632 285 670 184 670 177C670 176 669 176 668 176ZM377 169C376 169 375 170 375 173C375 181 391 245 395 245C397 245 400 267 402 267C402 267 403 265 403 262C403 250 399 234 399 207V194C399 180 377 169 377 169ZM326 149C333 149 338 155 338 161C338 169 332 174 325 174C318 174 310 167 310 161C310 156 318 149 326 149ZM714 148C717 148 726 155 726 161C726 167 716 172 714 172C710 172 707 168 699 160C709 151 712 148 714 148ZM673 114C680 114 685 120 685 127C685 134 680 138 674 138C666 138 660 132 660 126C660 120 665 114 673 114ZM712 114C722 114 726 120 726 124C726 130 716 136 708 136C702 136 699 132 699 124C699 117 706 114 712 114ZM325 109C331 109 340 115 340 122C340 129 333 135 326 135C316 135 314 124 314 120C314 114 318 109 325 109ZM365 115C370 115 378 122 378 127C378 132 370 135 364 135C357 135 356 132 356 128C356 123 359 115 365 115ZM213 72C233 72 250 85 250 101C250 118 232 128 217 128C193 128 188 104 188 96C188 82 197 72 213 72ZM208 79C205 79 200 81 200 87C200 98 215 117 228 117C232 117 237 113 237 108C237 96 221 79 208 79ZM623 72C608 72 599 85 599 93C599 106 617 113 622 113C628 113 643 99 643 90C643 78 633 72 623 72ZM410 72C397 72 392 77 392 86C392 94 394 103 409 103C422 103 426 92 426 80C426 76 425 72 410 72ZM801 81C800 81 796 84 796 85C796 86 797 87 800 87C802 87 804 86 804 84C804 82 803 81 801 81ZM523 -57C535 -57 544 -56 544 -55C544 -48 531 -51 531 -21C531 1 541 0 541 6C541 7 540 8 537 8C533 8 527 6 524 6C520 6 518 4 518 0C518 -5 521 -11 521 -16C521 -18 520 -20 516 -20C510 -20 506 -17 506 -12C504 -2 493 9 485 9C479 9 467 3 467 -7C467 -9 467 -12 468 -16L476 -8C479 -4 484 -1 486 -1C487 -1 495 -15 495 -25C495 -32 490 -36 490 -43C490 -53 500 -57 523 -57ZM517 -49C512 -49 505 -43 505 -37C505 -32 511 -30 514 -30C521 -30 522 -37 522 -41C522 -46 520 -49 517 -49Z" fill="#f59e0b" stroke="none"/>
  </g>
</svg>