<svg xmlns="http://www.w3.org/2000/svg" viewBox="2 -121 996 1002">
  <g transform="translate(0, 760) scale(1, -1)">
    <path d="M505 -91C582 -91 699 -64 784 7C881 87 903 136 919 171L928 191C934 203 936 208 937 214C939 220 941 226 947 240C962 271 968 327 968 378C968 421 964 460 959 475C959 475 942 561 892 637C866 677 839 699 839 704C839 709 762 771 762 771C762 776 651 829 645 829C643 829 628 834 626 834C626 834 589 851 480 851C463 851 446 850 436 848L418 844C407 842 368 829 345 821C345 821 307 814 244 774C224 761 170 717 170 713C170 710 133 678 102 623C80 585 60 567 35 432C33 421 32 408 32 394C32 257 81 169 116 120L128 103C144 77 163 49 219 7C238 -8 294 -40 299 -40C299 -40 375 -91 505 -91ZM508 -81C419 -81 318 -47 312 -37C308 -32 205 10 154 79C101 150 74 202 63 251C46 328 42 373 42 398C42 415 44 422 44 422C45 422 48 435 50 449C64 561 111 620 116 629C136 662 212 745 228 750C230 751 233 753 233 755C233 759 253 769 270 778C283 784 294 790 297 793C300 796 398 836 461 839C485 840 490 843 492 843C496 841 503 840 515 840C536 839 571 837 624 824C660 815 729 784 754 765C795 734 838 697 843 688C857 666 958 568 958 375C958 312 957 319 950 284C941 239 927 218 927 211C927 205 886 119 859 89C840 67 779 13 755 -3C740 -13 686 -61 543 -79C531 -81 520 -81 508 -81ZM514 -75C548 -75 578 -72 598 -66C690 -42 741 -19 822 59C876 111 889 131 927 226C930 234 953 267 953 382C953 428 952 437 944 470C914 601 857 656 857 661C857 663 855 666 853 667C845 670 843 692 777 740L743 767C741 768 646 836 500 836C441 836 396 824 362 814L331 803C305 794 272 773 269 773C260 773 165 704 119 625C115 618 111 613 108 607C89 578 74 554 52 437C49 422 48 405 48 389C48 314 73 232 78 218C89 187 128 121 155 86C208 18 301 -26 303 -27C359 -62 445 -75 514 -75ZM514 -62C227 -62 62 174 62 382C62 618 239 747 300 776C367 807 448 827 479 827C491 827 508 826 535 824C645 815 702 778 732 758C743 751 750 746 755 746C757 746 759 745 759 743C759 742 769 733 782 723C803 706 830 683 830 678C830 675 852 655 852 650C852 646 860 645 860 639C860 637 861 635 863 635C865 635 866 633 866 632C866 630 894 589 916 533C939 473 942 432 942 415V407C942 285 923 249 923 249C923 249 876 133 865 128C864 128 863 126 863 124C863 119 852 114 852 110C852 102 778 35 741 9C698 -21 673 -33 627 -45C578 -58 548 -62 514 -62ZM492 750C493 750 494 750 494 752C494 758 485 759 485 775C485 781 487 783 489 783C492 783 500 772 505 772C508 772 510 776 510 786C510 797 508 802 504 802C500 802 496 791 490 791C487 791 485 795 485 803C485 813 485 815 488 815C490 815 495 812 504 812C512 812 518 792 523 792C526 792 527 797 527 804C527 819 525 819 477 819C468 819 461 819 460 818C456 816 459 812 464 812C470 812 471 810 471 793C471 748 452 765 452 756C452 754 458 752 469 752C487 752 489 750 492 750ZM506 20C543 20 600 28 679 68C729 94 789 157 817 215C824 230 856 272 856 350C856 448 854 449 847 473C817 573 709 739 501 739C410 739 328 694 324 689C324 688 321 686 318 686C300 686 210 590 207 580C205 574 191 559 191 556C191 553 147 484 147 383C147 348 152 310 167 269C179 235 158 265 205 189L218 167C232 143 274 109 298 90C308 82 315 77 316 75C329 60 437 20 506 20ZM697 383C681 383 677 390 677 401C677 411 680 425 680 442C680 486 655 541 618 541C596 541 577 521 573 521C569 521 567 528 567 563C567 572 567 577 579 577C598 577 603 549 608 549C613 549 616 597 616 608C616 614 615 619 612 619C606 619 599 592 583 592C579 592 580 596 575 596H572C569 596 568 597 568 604C571 626 603 626 603 638C603 643 602 644 584 644C534 644 522 641 522 638C522 634 529 629 538 624C547 618 558 611 558 604C558 596 554 592 548 592C534 592 523 613 518 613C513 613 510 600 510 581C510 568 512 555 517 555C524 555 522 577 548 577H550C555 577 556 576 556 557V541C556 530 555 521 555 521C555 521 524 544 491 544C462 544 447 526 447 526C444 526 443 534 443 549C443 568 444 574 453 574C474 574 477 556 483 556C485 556 487 560 487 573C488 596 493 600 493 605C493 608 491 614 487 614C480 614 474 597 467 597C466 597 466 598 464 598C460 598 458 595 450 594C445 594 443 597 443 600C443 609 454 618 463 626C471 633 479 640 479 645C479 647 478 648 474 648C474 648 396 647 396 640C396 632 432 626 432 607C432 600 424 592 420 592C416 592 421 595 413 595C409 595 396 619 392 619C385 619 384 587 384 579C384 555 388 550 392 550C397 550 401 578 418 578H420C425 578 431 576 431 537C431 531 430 530 427 530C424 530 422 531 422 533C422 537 403 541 386 541C360 541 359 536 350 526C329 502 328 487 324 438L321 406L319 389H292L293 401V404C293 417 284 421 275 421C271 421 268 420 265 419L264 544L278 543C281 542 284 542 286 542C299 542 303 560 303 562C303 566 302 567 299 567C296 567 290 563 289 563C275 563 268 604 268 623C268 627 268 629 269 631C271 636 310 668 314 668C323 668 385 727 503 727C585 727 660 693 665 687C667 684 675 679 685 672C707 657 740 636 740 617C740 608 731 569 718 569C718 569 713 572 709 572C705 572 702 570 702 564C702 554 713 543 725 543C728 543 728 543 736 545L735 420C717 418 706 412 706 401C706 394 709 389 709 386C709 384 706 383 697 383ZM809 607C827 607 843 621 843 639C843 662 828 677 806 677C788 677 773 659 773 648C773 612 795 607 809 607ZM202 595C205 595 206 598 206 603C206 606 208 608 212 608C220 608 231 625 231 632C231 640 218 653 210 653C204 653 182 643 173 643C171 643 169 644 169 645C169 647 175 660 184 660C188 660 192 656 195 656C196 656 197 657 197 659C197 666 188 676 187 676C184 676 158 658 158 642C158 631 170 624 177 624C188 624 198 636 205 636C208 636 211 633 211 629C211 620 205 622 182 612L191 603C196 598 200 595 202 595ZM800 623C793 623 789 627 789 634C789 649 809 658 819 658C826 658 827 654 827 650C827 636 815 623 800 623ZM774 562C755 562 749 586 749 604V621L757 613C765 608 787 569 787 567C787 563 783 562 774 562ZM223 561C219 561 214 565 214 568C214 574 243 610 250 610C251 610 251 609 251 608C251 602 237 561 223 561ZM776 175C771 188 771 192 754 202L753 265C753 321 752 328 752 335C752 338 753 339 757 339C760 339 762 338 764 338C775 338 784 346 784 357C784 360 782 364 782 376C782 387 784 396 784 403C784 412 781 418 769 418C763 418 759 417 755 417C751 417 750 418 750 419C750 426 752 419 752 484V540H764C786 540 790 556 795 556C799 556 802 550 811 531C840 471 844 451 844 369C844 325 841 297 834 289C834 289 808 214 783 184ZM224 183C221 183 218 189 212 201C208 207 204 215 198 225C190 239 186 255 182 269C180 278 178 286 175 291C166 309 161 340 161 373C161 420 169 473 181 498L194 530C200 544 206 554 207 554C212 554 212 539 227 539C237 539 241 544 245 544C248 544 248 535 248 490C248 439 249 432 249 425C249 422 248 421 244 421C239 421 236 422 233 422C218 422 208 412 208 401C208 388 217 386 217 379C217 372 206 366 206 358C206 352 213 344 218 344C220 344 222 342 222 341C222 339 224 338 227 338C229 338 230 339 233 339L246 340L244 278L242 205C242 186 230 197 226 185ZM532 467C521 467 496 468 478 469L443 471V488C443 505 443 506 457 517C461 520 473 531 494 531C510 531 555 523 555 483V467ZM377 469C343 469 341 471 341 477C341 479 348 527 388 527C401 527 405 526 417 517C428 509 431 510 431 481V478C431 470 430 469 406 469ZM571 469C569 480 569 480 569 482C569 513 605 526 620 526C624 526 643 514 643 510C643 506 659 491 659 472C659 470 644 469 618 469ZM499 477C512 477 521 487 521 497C521 517 498 521 492 521C473 521 469 500 469 498C469 493 482 477 499 477ZM497 484C488 484 481 494 481 502C481 507 484 511 491 511C494 511 512 509 512 499C512 493 505 484 497 484ZM390 287C365 287 338 288 336 291C335 293 334 311 334 334C334 381 337 448 341 452C343 454 378 456 416 456H430L431 374V336C431 302 430 291 428 289C425 288 408 287 390 287ZM550 288 499 289C472 289 447 291 445 292C443 294 442 348 442 392C442 422 443 449 444 451C445 453 458 454 473 454C504 454 551 451 553 449C554 447 555 425 555 398C555 365 554 326 552 310ZM661 286 617 287C593 287 572 288 571 290C568 292 566 355 566 399C566 420 567 437 568 442C570 453 576 454 628 454H646C664 454 666 452 666 420V394C666 366 665 336 663 319ZM396 423H398C415 423 423 424 423 428C423 436 407 437 396 437C385 437 371 435 371 429C371 424 375 423 396 423ZM518 420C532 420 536 422 536 427C536 432 527 435 490 435C480 435 479 434 479 431C479 422 486 420 518 420ZM616 419C630 419 646 421 646 425C646 429 640 431 609 431C600 431 597 429 597 423C597 420 605 419 616 419ZM234 390C225 390 221 395 221 401C221 406 225 411 229 411C231 411 245 401 245 397C245 392 240 390 234 390ZM268 389C262 389 261 391 261 398C261 407 264 410 268 410C271 410 284 406 284 400C284 393 272 389 268 389ZM460 354C462 354 465 356 469 362L474 371L501 369C548 366 532 355 543 355C547 355 548 362 548 378C548 401 545 406 542 406C541 406 540 403 536 397L531 388H504C450 388 476 409 460 409C454 409 453 390 453 378C453 365 455 354 460 354ZM729 383C725 383 718 393 718 398C718 405 722 409 727 409C730 409 735 405 735 397C735 391 732 383 729 383ZM757 386C754 386 752 389 752 392C752 399 758 408 765 408C769 408 774 403 774 399C774 392 764 386 757 386ZM582 351C587 351 575 367 623 367C649 367 644 351 650 351C655 351 658 362 658 372C658 387 653 407 648 407C646 407 645 404 645 401C645 392 636 387 619 387C598 387 595 389 589 398C586 403 582 407 580 407C577 407 576 402 576 387C576 359 579 351 582 351ZM349 353C351 353 354 357 357 362L362 372L386 370C419 368 416 357 420 357C425 357 425 389 425 389C425 399 424 405 421 405C420 405 418 403 415 399C410 389 410 389 387 389C362 389 354 393 354 402C354 408 349 408 346 402C345 400 345 388 345 375C345 360 346 353 349 353ZM233 351C228 351 223 355 223 359C223 367 236 375 239 375C244 375 245 368 245 364C245 355 239 351 233 351ZM277 352C270 352 261 358 261 365C261 370 263 372 268 372C275 372 287 366 287 359C287 357 283 352 277 352ZM506 36C364 36 296 110 280 122L263 135L273 142C285 150 290 157 290 165C290 172 287 179 280 185C264 199 259 192 259 205C259 208 259 216 260 226C261 247 263 277 263 303C263 329 259 325 259 330C259 338 263 340 272 340C287 340 296 347 296 359L295 366C295 370 296 371 300 371C302 371 304 370 307 370L318 369L320 321C322 255 330 260 330 246C330 234 345 200 384 200C405 200 422 211 422 216C422 217 424 218 426 218C427 218 429 211 429 203C429 189 428 188 416 181C404 173 398 162 398 151C398 135 418 117 432 117C447 117 470 131 470 151C470 162 463 174 448 181C441 185 440 187 440 202V219L453 208C464 198 486 188 506 188C532 188 542 205 548 205C551 205 554 193 554 190C554 184 530 177 530 150C530 135 548 125 565 125C585 125 596 139 596 154C596 166 589 179 576 184C567 188 566 190 566 200C566 209 567 211 570 211C574 211 585 203 605 203C644 203 662 238 662 238C662 246 672 236 678 297L684 368H695C704 368 706 367 706 364C706 362 705 360 705 359C705 349 716 338 726 338C735 338 735 338 735 272V235C732 182 724 212 712 184C710 180 710 177 710 174C710 156 730 143 740 143C746 143 749 142 749 141C749 138 742 133 734 126C729 122 723 117 718 112C678 72 584 36 506 36ZM728 348C725 348 719 354 719 358C719 362 725 366 736 371C736 371 735 348 728 348ZM759 348C751 348 750 365 750 365C750 367 752 368 758 368C768 368 771 362 771 358C771 354 770 348 759 348ZM82 290C85 290 86 291 86 293C86 298 142 298 142 325C142 336 135 353 108 353C102 353 101 352 95 352C81 352 75 357 72 357C71 357 70 354 70 339C70 330 71 327 74 327C82 327 85 338 110 338C123 338 135 334 135 327C135 318 81 311 81 311C80 311 79 322 76 322C75 322 73 321 73 316C73 306 78 290 82 290ZM868 268C869 268 869 268 869 270C869 275 865 279 865 283C865 287 867 290 878 290C896 290 902 281 912 281C925 281 929 303 929 320C929 327 927 331 925 331C922 331 919 324 913 324H911C885 331 882 321 870 346C866 337 863 329 863 321C863 316 867 315 871 315C875 315 879 316 882 316C886 316 889 315 889 310C889 297 855 309 855 286C855 278 864 268 868 268ZM380 328C405 328 413 332 413 337C413 340 410 343 381 343C363 343 360 340 360 335C360 330 366 328 380 328ZM514 320C528 320 535 323 535 329C535 336 527 340 495 340C483 340 474 339 474 337C474 327 479 320 514 320ZM612 320C627 320 642 323 642 330C642 335 634 338 621 338C614 338 585 336 585 329C585 324 592 320 612 320ZM908 294C905 294 900 296 900 300C900 305 906 311 910 311C912 311 914 310 914 306C914 301 913 294 908 294ZM383 218C367 218 348 223 343 262L341 276L430 274V268C430 248 421 218 383 218ZM501 203C478 203 443 231 443 257V265C443 275 444 275 454 275H462C491 275 550 272 552 269C552 269 554 264 554 257C554 222 521 203 501 203ZM608 218C588 218 567 232 567 249C567 271 572 274 591 274H630C656 274 656 273 656 268C656 254 641 218 608 218ZM503 222C520 222 523 241 523 248C523 257 515 266 503 266C489 266 474 254 474 241C474 235 489 222 503 222ZM500 230C493 230 485 236 485 241C485 246 496 257 500 257C502 257 514 255 514 246C514 238 508 230 500 230ZM744 155C735 155 726 162 726 171C726 181 734 188 744 188C753 188 761 181 761 173C761 169 758 155 744 155ZM257 153C248 153 237 163 237 170C237 174 249 185 255 185C260 185 271 172 271 168C271 166 268 153 257 153ZM561 137C549 137 546 148 546 156C546 172 556 176 559 176C563 176 581 168 581 156C581 147 570 137 561 137ZM434 134C424 134 413 141 413 152C413 163 426 172 437 172C450 172 454 155 454 151C454 142 445 134 434 134ZM314 -8C314 -5 311 6 311 12C311 15 312 17 314 17C319 17 322 37 332 37C335 37 341 35 345 35C348 35 350 36 350 38C350 41 343 48 331 54C309 66 307 78 297 78C288 78 275 68 275 62C275 61 276 60 278 60C282 60 290 64 298 64C311 64 318 54 318 47C318 41 312 37 308 37C305 37 303 39 303 43C303 46 301 47 299 47C294 47 281 35 281 29C281 27 282 26 286 26C290 26 292 27 296 27C299 27 301 26 301 24C301 20 294 10 291 10C291 10 276 11 271 33L266 49C259 40 255 34 255 29C255 18 309 -8 314 -8ZM659 -25C664 -25 671 -22 682 -14L676 -2C670 9 666 16 666 20C666 22 668 23 670 23C679 23 693 11 712 11C728 11 735 20 739 23C713 24 710 39 710 41C710 50 701 51 701 57C701 64 715 73 715 76C715 76 714 77 712 77C703 77 679 66 679 59C679 57 681 55 686 54C691 53 705 34 705 26H703C696 26 664 40 660 45C659 48 657 48 655 48C650 48 646 43 646 42C646 41 647 39 650 35C659 24 658 12 663 9C665 8 666 5 666 1C666 -15 653 -14 653 -20C653 -22 654 -25 659 -25Z" fill="#f59e0b" stroke="none"/>
  </g>
</svg>