<svg xmlns="http://www.w3.org/2000/svg" viewBox="-1 -123 1002 1005">
  <g transform="translate(0, 759) scale(1, -1)">
    <path d="M501 -93C520 -93 539 -92 556 -91C646 -83 745 -28 775 -6C802 14 855 62 865 76C914 142 904 138 916 151C925 162 934 189 942 211C948 229 953 244 956 245C959 245 959 246 959 248V251C959 255 963 257 963 262C963 264 962 266 962 268C962 269 971 271 971 377C971 410 970 442 967 456C958 513 924 586 922 593C908 636 857 699 798 745C729 800 704 813 625 834C569 849 551 852 499 852H494C387 852 324 824 226 761C160 719 29 577 29 385C29 303 44 241 77 175C102 126 158 39 237 -15C299 -58 389 -78 393 -81C401 -88 451 -93 501 -93ZM495 -84C419 -84 362 -68 292 -35C244 -12 227 1 186 41C132 95 76 165 54 260C41 318 36 359 36 388C36 424 43 442 46 457C71 588 112 627 116 635C135 668 206 747 218 747C220 747 224 749 226 751C244 774 349 823 394 831C437 839 476 843 510 843C532 843 553 842 570 838C690 815 718 793 755 765C762 759 770 753 780 746C834 708 900 631 912 593C914 588 916 582 920 574C935 542 962 482 962 375C962 314 957 264 918 177C915 169 900 145 884 121C861 86 850 74 821 47C769 -1 765 -6 714 -31C637 -69 601 -84 495 -84ZM490 -80C693 -80 790 24 821 54C910 139 934 229 934 229C934 233 957 269 957 378C957 619 806 723 749 765C749 765 664 837 496 837C397 837 331 806 298 789C263 772 205 732 185 711C128 654 43 539 43 381C43 332 57 251 71 215C118 95 218 15 245 -4C314 -51 411 -80 490 -80ZM493 -66C403 -66 320 -32 290 -16C238 11 235 16 200 52C95 161 83 217 67 291C66 297 65 304 63 311C62 316 60 337 60 368C60 418 66 491 96 564C120 624 200 714 220 725C225 727 230 732 238 738C269 762 330 810 469 826C476 827 484 827 494 827C562 827 681 804 740 757C746 752 789 722 799 711L814 697C855 657 903 611 938 462C944 439 946 412 946 387C946 327 936 274 936 274C934 258 891 155 862 117C777 3 671 -33 671 -33C660 -33 616 -66 493 -66ZM481 748C490 748 499 749 499 751C499 754 486 751 486 765C486 771 489 777 492 777C495 777 501 769 504 769C508 769 510 783 510 786C510 791 508 794 505 794C500 794 496 786 492 786C491 786 490 788 490 792C490 808 493 810 503 810C515 810 520 792 527 792C529 792 530 793 530 796C530 816 519 816 494 816C479 816 466 815 466 814C466 809 476 813 476 793C476 776 469 755 467 754C464 753 463 752 463 751C463 749 472 748 481 748ZM483 19C506 19 532 21 561 24C647 34 723 101 733 107C752 118 777 152 793 173C799 182 803 188 806 191C809 194 813 204 818 215C823 227 829 241 834 247C834 247 857 288 857 375C857 483 827 518 827 519C827 521 819 535 816 543C812 559 802 564 802 568C802 573 784 591 784 597C783 607 695 688 682 691C682 691 612 726 592 726C575 726 581 739 482 739C454 739 449 738 408 728C333 710 313 687 289 671C267 656 203 591 190 568C170 533 147 474 142 441L136 409C135 406 135 401 135 396C135 359 146 277 171 227C178 212 209 165 221 150C292 67 351 48 399 30C420 22 448 19 483 19ZM221 211C204 211 193 223 193 226C193 227 194 227 195 227C198 227 198 226 203 226C218 226 228 242 228 253C228 263 214 277 203 277C195 277 187 272 176 257C159 282 148 357 148 389C148 414 156 450 171 495C188 548 201 569 245 614C304 674 375 724 495 724C674 724 766 602 766 599C766 598 771 589 779 579C830 513 838 437 841 434C842 432 843 412 843 389C843 313 837 319 837 313V308C837 306 837 304 835 302C829 295 830 277 820 256L815 244L812 259C809 277 799 287 781 287C776 287 773 286 769 286C754 286 738 310 738 311C738 315 725 327 721 327C719 327 719 326 719 324C719 320 721 315 721 307C721 288 708 278 704 278C699 278 670 366 670 421C670 428 670 437 671 447V502L712 503C723 504 730 504 737 504C763 504 766 501 771 490C773 484 775 481 777 481C781 481 783 495 783 510C783 535 778 543 775 543C774 543 773 541 772 537C767 523 762 521 716 520L673 518V529C673 541 678 608 709 608C718 608 724 600 724 590C724 583 720 576 710 576C705 576 704 577 704 580C704 583 705 586 705 590C705 596 702 599 699 599C694 599 688 585 688 582C688 576 698 563 702 563C712 563 707 560 714 560C724 560 735 573 735 588V590C735 613 718 619 710 619C691 619 663 595 651 537L647 519L600 521C600 541 600 544 599 547C599 577 603 582 629 601C635 605 637 607 637 609C637 617 578 618 517 618H454C379 618 384 622 379 622C371 622 365 619 365 615C365 612 369 609 371 609C375 609 404 594 404 549C404 544 403 539 403 533L401 521H375C356 521 356 523 354 548C351 583 331 615 315 615H313C296 614 273 598 273 580C273 566 293 553 301 553C308 553 324 564 324 572C324 576 320 594 313 594C312 594 311 593 311 589C311 586 312 584 312 581C312 573 305 568 299 568C292 568 286 573 286 583C286 593 287 595 297 599C302 601 307 602 310 602C326 602 336 574 337 544L338 521L291 520H276C238 520 229 523 220 532C216 536 212 540 211 540C209 540 208 523 208 507V499C208 488 208 482 212 482C225 482 204 504 279 504H290L337 503V484C337 392 294 261 278 261C275 261 263 277 263 289C263 296 268 305 268 307C268 308 267 309 265 309C262 309 223 284 223 276C223 275 224 274 226 274C228 274 232 276 236 276C250 276 267 252 267 245C267 236 237 211 221 211ZM425 518C419 518 418 521 418 552C418 582 418 585 424 586C433 589 434 600 440 600C442 600 444 602 444 603C444 606 446 607 448 607C454 607 465 601 475 592L490 577V551C490 536 489 524 488 523C486 521 446 518 429 518ZM585 519 509 521 510 552C511 587 513 590 536 603C542 606 546 607 550 607C557 607 562 603 572 594C574 592 587 586 587 547C587 542 587 536 586 530ZM164 523C165 523 166 524 166 526C166 529 164 531 164 535C164 540 181 552 181 563C181 566 172 578 159 578C144 578 127 565 119 565C116 565 114 567 114 571C114 579 119 584 126 584C133 584 136 580 143 580C146 580 146 581 146 583C146 589 131 603 126 603C124 603 122 601 121 596C116 584 105 584 105 567C105 553 115 544 126 544C134 544 140 549 146 553C152 558 158 562 165 562C168 562 169 558 169 557C169 545 143 540 143 535C143 532 161 523 164 523ZM857 510C881 510 901 531 901 552C901 567 889 582 871 582C848 582 822 557 822 542C822 537 830 510 857 510ZM852 526C844 526 838 530 838 538C838 552 868 569 880 569C883 569 889 566 889 558C889 541 865 526 852 526ZM495 30C409 30 371 54 352 64C233 125 205 193 205 193C205 193 206 194 207 194C211 194 218 192 221 192C246 192 268 223 278 223C281 223 287 215 287 208C287 199 280 192 280 188C280 187 281 186 284 186C291 186 332 217 332 222C332 223 331 225 327 225C323 225 318 223 312 223C299 223 290 235 290 239C290 242 293 245 299 252C319 277 327 305 333 326C336 337 338 345 341 350C345 357 357 448 357 476V478L356 502C370 503 368 504 373 504C379 504 385 503 390 503L402 501V485C402 473 402 471 396 471C383 471 376 494 368 494C363 494 362 489 362 475C362 443 363 441 366 441H368C376 441 380 459 395 459C400 459 403 453 403 447C403 428 376 413 376 410C376 409 390 408 405 408C422 408 436 409 436 410C436 415 415 420 415 451C415 456 416 456 422 456C434 456 443 436 449 436C452 436 454 442 454 461C454 481 452 494 445 494C437 494 443 472 425 472C419 472 415 475 415 482C415 504 415 504 455 504H493L491 386C490 321 488 268 488 268C488 268 477 267 461 267L435 266L434 281V285C434 323 466 308 466 324C466 326 465 326 463 326C458 326 445 324 417 324C395 324 392 323 392 319C392 298 418 322 418 281V264H403C364 264 366 297 358 297C354 297 351 289 351 244C351 231 352 221 354 221C369 221 356 249 391 249C411 249 415 244 415 232C415 221 403 199 397 199C397 199 396 200 395 200C392 200 389 196 389 192C389 188 393 187 400 187C422 187 457 190 457 194C457 200 430 201 430 229V231C430 248 431 249 465 249H489V213C489 187 488 176 486 175C482 174 443 172 416 171H401L402 135V122C402 89 398 83 378 78C364 75 358 72 358 69C358 64 369 60 406 60C426 60 444 62 444 65C444 67 440 70 436 73C421 79 418 82 418 106V120L419 154L489 156V142C489 101 453 105 453 94C453 90 454 90 500 90C541 90 548 91 548 97C548 107 504 98 504 137V139C504 148 505 154 505 154C507 155 524 156 541 156H555C574 156 574 154 574 126C574 110 572 93 569 89C562 79 535 71 535 67C535 63 550 62 583 62C622 62 629 63 629 66C629 68 622 73 613 78C593 88 589 92 589 119C589 130 590 136 590 147C590 162 588 167 585 169C581 173 556 173 536 174C522 174 509 175 508 176C507 177 506 190 506 203C506 220 507 238 508 242C511 248 513 249 537 249C565 249 567 248 567 234C567 228 551 207 546 207C541 207 537 203 537 199C537 194 544 192 580 192C592 192 609 192 609 194C609 199 580 208 580 230C580 234 583 249 592 249C604 249 619 229 619 222C619 217 624 211 629 211C633 211 635 219 635 263C635 282 634 300 630 300C622 300 629 264 597 264H583L585 277C587 293 600 309 610 309C616 309 617 314 613 317C612 317 586 318 565 318C552 318 541 318 541 315C541 312 570 305 570 276V265L540 266C523 267 510 267 509 268C508 269 508 283 508 303C508 334 508 377 505 401C505 407 504 410 504 413C504 423 508 419 508 463V504L532 505H551C565 505 576 504 582 502C584 502 586 495 586 485V470L574 472C558 475 547 495 543 495C542 495 541 475 541 461C541 446 542 442 545 442C552 442 555 454 578 454C583 454 585 452 585 443C585 422 558 421 558 412C558 408 558 405 605 405C619 405 622 406 622 409C622 412 621 414 619 414C614 414 597 433 597 444C597 453 605 455 611 455C627 455 632 439 638 439C641 439 643 444 643 470C643 488 642 497 639 497C631 497 634 470 604 470C600 470 600 473 600 485V502L649 504L647 444C647 427 646 414 646 404C646 366 669 305 669 305L691 253L683 246C678 242 674 240 668 240C661 240 658 242 651 242C646 242 644 241 644 238C644 232 684 193 693 193C694 193 695 194 695 196C695 201 688 211 688 220C688 229 693 234 697 240L710 229C731 209 747 199 763 199C779 199 792 211 796 211C797 211 797 210 797 209C797 200 698 30 495 30ZM766 215C731 215 715 257 715 258C715 260 732 280 732 282C732 284 735 284 738 283L751 280C755 279 756 277 756 275C756 271 755 267 755 262C755 248 765 237 777 237C787 237 792 241 794 241C795 241 796 239 796 236C796 228 783 215 766 215ZM779 250C775 250 769 255 769 263C769 270 771 273 777 273C784 273 792 269 792 263C792 257 785 250 779 250ZM197 237C191 237 188 242 188 247C188 255 194 264 202 264C208 264 213 258 213 252C213 243 203 237 197 237ZM242 21C248 21 258 27 269 34C282 43 296 52 308 52C310 52 312 51 315 51C318 51 319 52 319 53C319 59 293 75 289 75C287 75 286 74 286 73C286 70 291 65 291 64C291 59 277 52 273 52C271 52 261 59 261 69C261 76 265 82 271 82C272 82 273 81 275 81C278 81 279 82 279 83C279 89 255 108 248 108C247 108 246 108 246 107C246 104 250 100 250 96C250 90 246 76 243 63C239 49 235 34 235 27C235 22 239 21 242 21ZM729 10C749 10 780 36 780 44C780 46 779 47 778 47C775 47 771 44 767 44C757 44 738 75 738 81C738 85 743 90 743 95C743 98 741 99 738 99C732 99 714 79 714 73C714 72 715 72 716 72C718 72 719 73 720 73C724 73 729 65 729 58C729 55 729 53 725 53C717 53 698 66 692 66C688 66 667 53 667 34C667 28 670 25 672 25C678 25 676 51 692 51C703 51 716 38 716 26C716 15 722 10 729 10ZM256 36C254 36 253 38 253 40C253 43 256 49 260 49C263 49 265 47 265 43C265 40 259 36 256 36ZM738 22C736 22 729 27 729 34C729 38 731 41 736 41C743 41 749 33 749 31C749 28 740 22 738 22Z" fill="#f59e0b" stroke="none"/>
  </g>
</svg>