<svg xmlns="http://www.w3.org/2000/svg" viewBox="-50 -50 1100 1100">
  <g transform="translate(0, 1000) scale(1, -1)">
    <path d="M510 -94C574 -94 638 -70 671 -57C682 -53 689 -50 692 -50C699 -50 761 -14 785 5C821 33 919 128 949 245L957 276C966 311 969 334 969 376C969 520 918 598 884 650C879 659 873 667 869 674C860 689 815 735 794 750C668 844 575 842 562 846C552 850 535 852 513 852C444 852 333 832 260 785C194 742 106 666 70 564L58 527C39 478 31 428 31 380C31 270 72 172 108 116C186 -4 313 -59 323 -59C325 -59 332 -61 338 -65C366 -80 450 -94 510 -94ZM502 -84C438 -84 371 -72 336 -57L298 -39C263 -23 215 10 181 40C119 97 40 224 40 378C40 443 55 513 89 584C120 649 153 690 219 745C319 828 450 844 489 844C571 844 679 813 697 799C697 799 819 734 856 674C867 657 874 655 874 651C874 638 961 558 961 368C961 327 954 299 944 262C940 248 936 233 932 215C927 197 927 209 918 182C904 139 815 31 762 -3C732 -22 692 -44 687 -44C679 -44 683 -47 647 -58L607 -70C578 -79 541 -84 502 -84ZM515 -76C574 -76 550 -72 574 -70C604 -67 702 -34 725 -19L750 -3C782 19 843 75 854 96C859 104 863 109 865 109C867 109 889 141 904 167C920 194 955 316 955 360C955 407 944 514 913 571L902 592C886 624 838 692 820 707C755 766 721 781 719 781C718 781 709 785 700 791C671 810 590 836 495 836C331 836 229 747 229 747L196 718C154 682 118 635 118 630C118 627 88 582 88 569C88 567 87 565 86 565C84 565 82 561 80 556C78 545 74 536 70 526C60 501 48 470 48 374C48 265 65 250 73 221C77 206 88 182 97 164C102 153 106 145 106 143C106 142 112 132 119 121C192 16 286 -43 407 -71C419 -74 474 -76 515 -76ZM501 -65C482 -65 462 -64 439 -61C341 -52 269 -2 267 -2C266 -2 258 3 248 10C126 95 92 204 70 272C67 280 65 287 63 293C60 303 59 328 59 358C59 401 61 453 67 478C75 513 106 583 106 585C106 587 107 589 108 589C112 589 118 608 121 610C135 622 117 636 211 716C270 767 280 762 280 766C280 768 282 769 284 769C287 769 289 770 290 772C291 775 345 799 350 799C357 799 423 825 493 825C597 825 697 782 697 778C697 775 718 769 718 766C718 763 739 756 739 753C739 752 741 751 744 751C746 751 748 749 748 748C748 746 750 745 753 745C760 745 759 736 765 736C768 736 770 734 770 733C770 732 771 730 773 730C777 730 833 678 849 657C854 652 877 614 877 611C877 604 941 527 941 383C941 251 886 158 880 151C880 151 795 15 693 -21C687 -23 680 -26 673 -29C635 -45 586 -65 501 -65ZM540 741C544 741 546 743 546 745C546 746 545 748 542 749C535 750 531 767 527 784C522 801 518 818 511 818C506 818 498 806 489 792C478 777 467 761 459 759C454 758 452 756 452 754C452 752 457 748 475 748C482 748 485 749 485 753C485 757 482 760 482 764C482 772 491 776 500 776C514 776 517 765 517 762C517 755 500 757 500 752C500 745 533 741 540 741ZM501 781C499 781 498 783 498 785C498 789 502 796 505 796C508 796 510 792 510 790C510 786 505 781 501 781ZM509 20C612 20 707 85 714 91C733 106 787 161 798 176C841 241 859 330 859 381C859 478 820 551 804 572C694 715 612 737 476 737C464 737 431 737 362 711C237 663 144 526 144 403C144 293 155 268 165 248C168 241 171 235 173 226C178 207 217 155 217 152C217 149 303 50 419 26C439 22 478 20 509 20ZM493 31C342 31 234 142 204 202L189 231C168 272 156 333 156 392C156 426 160 458 168 485C174 505 207 565 229 593C252 622 311 676 319 676C321 676 409 727 490 727C565 727 659 698 691 669C699 663 745 625 745 621C745 620 745 619 744 619C743 619 739 625 731 625C717 625 697 608 697 593C697 575 719 571 721 571C728 571 739 584 739 593C739 601 732 604 728 604C724 604 721 603 721 600C721 597 723 595 725 595C726 595 726 593 726 592C726 590 721 585 716 585C714 585 712 588 712 595C712 606 717 610 729 610C744 610 751 603 751 589C751 568 724 556 721 556C712 556 700 564 694 574C689 582 681 589 673 596C664 603 656 609 656 615C656 622 664 621 664 634C664 648 650 667 636 667C629 667 613 651 613 645C613 635 606 630 603 630C601 630 600 631 600 634C600 639 606 644 606 655C606 668 597 679 583 679C572 679 555 670 555 657C555 652 557 647 559 640H544C527 640 515 645 515 651C515 694 562 706 562 710C562 716 529 720 500 720C482 720 458 718 458 712C458 703 501 695 501 669C501 648 489 646 479 646C463 646 465 643 461 643H452C444 643 434 642 415 637C389 630 382 625 364 604C359 598 356 595 356 591C356 591 357 568 377 554L390 545L499 547L497 524C495 505 495 496 495 478C494 459 494 454 483 454C446 454 434 475 434 480C434 483 432 484 430 484C423 484 421 476 421 444C421 429 422 404 424 404C426 404 432 410 438 417L449 431L494 429L495 391H465C455 391 447 390 441 390C421 390 419 392 414 399L397 419C388 429 385 435 365 435C344 435 333 421 322 407C311 394 300 381 281 381C258 381 223 402 223 415C223 419 226 421 233 421C242 421 261 434 261 439C261 442 256 444 245 445C210 450 188 488 188 500C188 503 187 505 185 505C176 505 174 491 174 457C174 421 175 419 184 398C194 376 198 371 201 371C203 371 204 373 204 376C204 379 200 392 200 399C200 402 200 404 203 404C211 404 230 364 276 364C306 364 321 381 333 396C343 407 351 416 362 416C366 416 371 415 376 412C389 405 394 398 397 392C404 382 409 374 454 374H491L493 354V344C493 337 493 332 492 331C490 329 479 328 468 328C421 328 436 359 422 359C414 359 411 323 411 297C411 274 412 267 417 267C418 267 420 269 423 275C436 301 444 301 465 301H490V255C490 234 490 234 487 234C482 234 475 235 467 235C455 236 440 237 425 237C362 237 355 217 348 217C345 217 326 201 326 177C326 166 331 153 344 139C358 125 373 121 453 121H487L485 101C479 42 440 53 440 43C440 39 468 37 494 37C542 37 547 39 547 43C547 46 542 49 535 49C529 49 502 64 502 105V120L537 119C577 117 589 112 597 95C599 91 600 88 600 85C600 75 591 68 581 68C569 68 562 77 562 84C562 87 562 88 564 88C567 88 566 85 566 83C566 80 568 74 573 74C578 74 585 80 585 86C585 94 576 100 568 100C556 100 550 91 550 82C550 69 560 56 577 56C595 56 617 69 617 90C617 108 602 113 602 119C602 120 604 121 607 121C613 121 639 142 639 155C639 166 626 172 611 172C594 172 572 163 568 143C567 137 566 136 554 136C507 136 504 138 504 145C504 202 507 211 511 211C516 211 518 210 518 208C518 205 509 198 509 192C509 186 518 182 523 182C531 182 538 187 538 192C538 198 533 202 533 203C533 204 535 205 540 205C544 205 546 204 546 203C546 200 542 196 542 191C542 181 552 170 565 170C579 170 594 180 594 192C594 201 586 207 586 209C586 210 587 211 588 211C604 211 593 179 625 179C642 179 654 193 654 203C654 207 652 212 649 217L643 226C646 227 657 232 661 232C671 232 676 250 701 250C714 250 747 244 747 221C747 208 736 203 726 203C718 203 707 206 707 217C707 218 707 219 708 219C711 219 713 208 722 208C729 208 738 217 738 225C738 235 726 240 718 240C705 240 694 229 694 216C694 201 708 187 726 187C745 187 766 203 766 226C766 247 742 260 734 262L719 267C718 267 717 268 717 269C717 274 730 300 738 300C743 300 748 292 762 292C788 292 793 319 793 329C793 343 780 358 768 358C761 358 760 359 760 368C760 375 760 378 762 378C764 378 771 370 780 370C793 370 812 386 812 402C812 414 800 436 783 436C772 436 766 428 761 428C758 428 757 432 757 442C757 456 758 457 765 457C778 457 796 480 796 496C796 509 781 517 768 517C753 517 745 505 743 505C742 505 742 507 742 507C742 514 726 533 726 540C726 547 769 560 769 578C769 582 767 593 767 595C767 597 768 597 768 597C768 597 846 522 846 374C846 293 798 203 779 176C764 155 712 104 698 97C698 97 611 31 493 31ZM204 605C209 605 229 626 229 631C229 633 229 633 227 633C225 633 224 632 221 632C218 632 193 637 193 659C193 677 202 685 202 688C202 689 201 689 199 689C193 689 180 675 180 672C180 668 188 666 188 653C188 648 187 647 184 647C181 647 175 649 166 649C162 649 165 656 165 658C165 660 165 660 164 660C159 660 139 638 139 627C139 625 139 625 140 625C146 625 145 633 166 633C183 633 204 628 204 614C204 611 203 609 203 607C203 606 203 605 204 605ZM535 646C546 646 549 654 549 659C549 666 544 670 538 670C529 670 523 660 523 654C523 650 527 646 535 646ZM585 638C578 638 569 646 569 655C569 662 573 667 580 667C586 667 597 660 597 651C597 647 594 638 585 638ZM801 602C811 602 817 609 817 629C817 645 812 641 812 648C812 652 813 656 818 656C824 656 831 651 831 648C831 646 826 634 826 630C826 629 828 629 828 629C831 629 842 636 842 645C842 655 828 667 815 667C804 667 797 659 797 651C797 641 804 632 804 625C804 621 801 617 797 617C792 617 786 624 786 631C786 635 789 637 789 642C789 644 788 645 786 645C779 645 764 631 764 627C764 626 765 625 766 625C768 625 770 626 771 626C781 626 779 602 801 602ZM640 622C635 622 624 627 624 634C624 642 634 649 641 649C646 649 652 644 652 637C652 630 645 622 640 622ZM428 562C401 562 377 565 377 587C377 602 403 618 419 622C432 625 478 630 493 630H495C500 630 500 629 500 609C500 589 498 564 498 563C497 562 479 562 457 562ZM527 560C516 560 516 565 516 582V628C536 624 628 611 628 601C628 598 616 587 604 579L595 573L587 581C582 586 574 589 566 589C533 589 544 560 527 560ZM620 298C597 298 589 300 589 309C589 324 594 325 611 325H613C625 325 634 326 634 327C634 336 622 326 622 360C622 386 621 386 584 386C569 386 549 386 522 388H511V431L522 429C550 423 551 399 558 399C566 399 568 428 568 453C568 468 567 481 564 481C553 481 555 454 529 454C512 454 511 461 511 465V467C511 477 515 494 515 531V547L528 545C552 542 553 533 565 533C582 533 596 551 596 554C596 558 638 595 642 595C646 595 685 569 690 558C696 546 702 540 707 534C719 521 728 510 737 443C740 422 742 405 742 394C742 379 740 371 736 367C731 363 717 356 710 356C707 356 705 357 705 359C705 364 712 372 712 384C712 393 707 411 688 411C673 411 660 396 660 383C660 367 683 354 683 345C683 343 682 342 679 342C671 342 654 350 648 350C642 350 641 343 639 322C637 302 636 298 620 298ZM566 546C556 546 549 556 549 565C549 571 555 577 564 577C573 577 583 573 583 561C583 552 577 546 566 546ZM668 446H670C677 446 682 449 682 451C682 458 657 456 657 485C657 490 658 493 664 493C685 493 682 469 689 469C693 469 696 491 696 509C696 518 694 531 691 531C684 531 687 505 669 505C664 505 660 505 660 518C660 530 686 546 686 547C686 549 666 550 648 550C635 550 623 549 621 548C617 544 619 541 625 541C635 540 648 524 648 513C648 506 644 504 639 504C616 504 607 527 604 527C600 527 599 516 599 503C599 500 600 464 602 464C607 464 615 493 634 493C642 493 644 491 644 485C644 458 616 459 616 452C616 448 631 447 668 446ZM765 467C752 467 749 484 749 486C749 489 753 502 768 502C778 502 781 497 781 489C781 476 772 467 765 467ZM780 383C779 383 765 386 765 401C765 411 771 421 776 421C780 421 796 413 796 401C796 392 783 383 780 383ZM691 363C686 363 674 376 674 387C674 397 683 402 688 402C694 402 699 392 699 381C699 371 694 363 691 363ZM538 226C531 226 526 226 520 228L508 230V302L521 300C527 299 534 297 536 296C539 294 547 276 547 273C547 269 550 266 553 266C561 266 562 274 562 298V311C562 318 562 322 563 322C564 322 565 326 565 332C565 353 560 357 558 357C551 357 548 326 526 326H521L511 328V372L542 371C576 369 580 369 580 342C580 320 574 307 574 298C574 287 583 285 625 285C650 285 652 290 652 312C652 325 653 331 657 331C659 331 666 327 666 325C666 321 657 318 657 307C657 297 663 287 672 287C679 287 690 291 690 316V330C690 346 697 336 736 354C738 354 739 355 740 355C741 355 742 354 742 353C742 350 738 343 732 333C720 314 697 226 538 226ZM596 334C593 334 592 337 592 343C592 359 596 369 601 369C605 369 607 357 607 353C607 337 598 334 596 334ZM140 275C142 275 142 276 142 279C142 289 137 304 133 304C131 304 132 298 125 298C117 298 106 307 106 315C106 319 113 323 117 323C120 323 124 321 134 316L132 334C130 350 128 357 125 357C124 357 123 355 121 352C118 345 106 339 93 332C79 324 64 316 64 307C64 300 74 299 87 296C101 294 120 291 132 279C136 276 138 275 140 275ZM906 241C908 241 910 242 910 244C910 246 912 252 915 258L920 268L906 280C896 288 893 293 893 296C893 297 894 298 896 298C908 298 929 311 929 330C929 334 928 337 926 337C917 337 924 325 902 325C864 325 876 346 869 346C866 346 856 316 856 316C856 313 858 311 861 311C869 311 865 318 880 318C891 318 901 314 901 313C901 311 881 304 873 304C869 304 868 302 868 300C868 289 897 286 897 276H895C890 276 862 279 862 289C862 292 860 295 857 295C855 295 854 293 854 292C854 287 846 275 846 268C846 265 847 262 850 262C853 262 851 267 867 267C882 267 903 263 903 252C903 250 903 243 906 241ZM757 306C752 306 749 311 749 317C749 325 756 339 767 339C772 339 776 334 776 327C776 317 765 306 757 306ZM673 299C671 299 668 301 668 304C668 307 674 318 678 318C680 318 680 316 680 313C680 307 678 299 673 299ZM93 303C89 303 86 305 86 307C86 309 91 312 94 312C99 312 100 308 100 307C100 304 97 303 93 303ZM721 217C718 217 716 223 716 227C716 230 717 232 719 232C721 232 727 226 727 223C727 221 724 217 721 217ZM473 137C462 137 445 138 428 138L370 140L358 151C350 157 346 162 346 172C346 206 376 220 425 220C436 220 448 219 460 217C486 213 488 214 488 191V176C488 157 488 140 487 138C486 138 481 137 473 137ZM623 191C615 191 613 196 613 203C613 211 616 214 623 214C634 214 637 210 637 203C637 195 630 191 623 191ZM566 181C559 181 557 188 557 193C557 198 558 202 567 202C576 202 579 199 579 194C579 188 573 181 566 181ZM598 132C590 132 580 137 580 139C580 144 594 159 608 159C618 159 624 152 624 151C624 150 613 132 598 132ZM702 -10C713 -10 729 6 729 25C729 47 709 66 688 66C674 66 662 56 662 34C662 -8 702 -10 702 -10ZM316 -11C320 -11 322 -11 322 -9C322 -6 312 -2 312 4C312 11 328 36 339 36C345 36 350 31 353 31C354 31 355 32 355 33C355 41 315 61 299 61C279 61 269 43 269 36C269 26 279 7 286 5C289 4 292 2 292 1C292 -3 309 -11 316 -11ZM699 1C684 1 673 30 673 41C673 56 686 57 690 58C692 58 712 39 712 20C712 8 707 1 699 1ZM297 12C295 16 286 26 286 35C286 45 297 52 307 52C312 52 317 49 317 46C317 42 313 35 305 23Z" fill="#f59e0b" stroke="none"/>
  </g>
</svg>