<svg xmlns="http://www.w3.org/2000/svg" viewBox="-50 -50 1100 1100">
  <g transform="translate(0, 1000) scale(1, -1)">
    <path d="M506 -96C643 -96 781 -16 850 61C869 83 896 117 898 123C901 131 906 139 912 149C936 193 976 263 976 386C976 403 974 429 971 442L965 477C957 521 908 632 888 651C888 651 814 749 732 792C697 810 620 853 501 853C422 853 352 828 352 828L321 817C282 801 239 775 207 747L173 719C149 700 90 620 90 614C90 613 66 570 66 567C66 567 24 480 24 366C24 222 102 87 206 4C273 -50 360 -75 368 -78C392 -89 454 -96 506 -96ZM499 -85C416 -85 366 -74 291 -40C214 -4 35 126 35 374C35 489 66 534 66 544C66 549 94 606 104 621C175 732 308 842 495 842C526 842 561 840 578 837C685 819 747 773 783 747C790 742 796 737 801 734C801 734 965 603 965 386C965 317 962 307 958 287C945 234 916 162 893 128C756 -67 584 -85 499 -85ZM496 -80C578 -80 627 -69 702 -35C765 -6 841 61 885 126C905 155 939 227 939 238C939 238 960 300 960 383C960 440 950 508 916 573C882 637 867 659 833 694C758 770 661 837 500 837C259 837 40 645 40 368C40 260 74 196 81 182C111 114 173 39 237 -3C326 -62 401 -80 496 -80ZM497 -69C411 -69 323 -45 243 9C206 34 146 95 130 123C130 123 69 215 59 300C57 317 55 327 54 334C52 343 51 348 51 357C51 454 75 514 87 544C90 554 93 561 93 564C93 566 95 568 96 568C98 568 100 570 101 575C103 584 131 631 146 649C217 738 313 786 317 786C325 786 396 825 503 825C563 825 634 814 711 775C842 709 949 551 949 377C949 323 938 271 914 208C864 78 712 -69 497 -69ZM521 748C527 748 528 751 528 758C528 770 545 770 545 778C545 779 544 781 541 781C541 781 505 778 505 774C505 769 512 769 512 763C512 759 509 756 504 756C499 756 493 770 493 778C493 778 494 804 505 804C520 804 516 783 522 783C526 783 531 790 531 802C531 811 528 819 524 819C521 819 522 813 509 813C490 813 473 795 473 777C473 752 513 748 521 748ZM501 17C598 17 666 56 691 73L719 92C727 98 815 170 843 264C848 281 863 316 863 396C863 484 819 541 817 554C814 568 734 666 691 688C660 704 607 740 506 740C428 740 330 717 248 635C228 614 188 566 188 560C187 551 139 487 139 378C139 338 144 302 146 294C173 206 206 153 266 103C278 92 356 17 501 17ZM493 31C396 31 401 48 388 48C377 48 310 85 287 103C212 163 150 267 150 376C150 550 298 726 500 726C602 726 702 681 771 596C787 576 811 536 811 528C811 526 812 524 815 521C819 516 826 499 841 457C846 443 853 386 853 386C853 327 816 104 582 40C559 33 522 31 493 31ZM449 52C489 52 497 53 497 59C497 61 493 63 484 65C473 67 447 86 447 92C447 94 446 96 444 96C440 96 436 111 436 126V142L452 140C492 135 494 93 505 93C510 93 511 108 511 125C511 140 510 155 510 167V176C510 188 507 197 503 197C491 197 495 153 456 153H454C442 153 437 153 437 177C437 182 437 188 438 195L439 222L557 221V204C557 177 575 174 582 174C595 174 623 183 623 208C623 234 589 237 589 243C589 250 609 265 609 283C609 301 590 312 572 312C556 312 540 303 540 280C540 266 547 258 558 258C577 258 579 270 579 273V275C579 283 577 287 571 287C567 287 559 285 559 278C559 274 563 270 563 268C563 268 562 267 561 267C556 267 551 274 551 281C551 295 568 299 575 299C589 299 594 288 594 282C594 274 572 243 565 241C562 240 532 239 499 238L438 237V366H591C599 348 610 336 623 336C663 336 659 365 678 365C688 365 688 362 688 345V325H788V340C788 352 789 357 792 357C797 357 799 352 808 352C821 352 843 365 843 387C843 396 827 413 817 413C810 413 798 408 793 408C790 408 789 411 789 417C787 433 779 435 733 435H725C706 435 685 434 685 423C685 420 690 419 690 403C690 391 688 384 677 384C673 384 669 386 669 389C669 396 651 416 636 416C622 416 604 406 597 394L591 384H438V438C438 478 439 492 442 492H461C500 492 582 491 586 490C593 488 598 478 598 467C598 452 589 444 577 444C566 444 556 451 556 461C556 463 557 470 561 470C565 470 567 456 575 456C579 456 585 462 585 468C585 479 570 485 562 485C554 485 543 476 543 466C543 444 560 433 576 433C606 433 614 464 614 475C614 489 603 493 603 500C603 507 624 525 624 547C624 560 616 568 604 568C588 568 567 550 567 531C567 515 573 519 573 511C573 507 555 506 532 506C493 506 441 509 440 510C438 511 438 526 438 554V591H452C465 591 466 590 477 575L494 553C497 549 500 546 502 546C505 546 507 557 507 582C507 636 506 650 501 650C490 650 485 606 452 606H449C441 606 437 608 437 624C437 652 465 678 479 678C485 678 490 682 490 686C490 691 483 692 479 692C474 692 479 690 456 690C444 690 429 691 414 691C380 691 370 689 370 681C370 677 379 675 385 675C396 675 426 646 426 620C426 608 421 607 417 607C410 607 387 608 380 612C370 617 349 640 349 644C349 646 346 649 343 649C338 649 335 646 335 575C335 551 337 539 341 539C354 539 352 593 411 593H415C424 593 423 591 424 549L425 509L229 506L217 497C201 486 201 486 184 456C163 420 158 401 158 364C158 300 195 247 211 235C227 223 239 222 321 222H336C382 222 419 221 421 220C422 219 423 208 423 195V186L422 154H402C384 154 383 155 372 168C357 186 355 200 347 200C341 200 339 181 339 147C339 105 341 95 347 95C354 95 359 141 404 141H407L422 140L423 125V120C423 111 421 107 413 95C387 55 375 73 375 61C375 56 377 52 449 52ZM591 513C588 513 580 527 580 531C580 534 592 547 603 547C608 547 611 543 611 541C611 534 597 513 591 513ZM188 377 177 379 178 396C182 432 207 461 207 463C207 468 221 481 231 486C241 492 292 493 339 493C382 493 421 492 422 491C423 490 424 461 424 428V401L423 385L409 383C401 382 352 381 298 381C196 381 193 377 188 377ZM492 397C505 397 524 408 524 430C524 445 515 460 498 460C484 460 459 448 459 430C459 417 476 397 492 397ZM342 393C354 393 369 406 369 420C369 446 360 455 348 455C325 455 307 438 307 421C307 404 333 393 342 393ZM493 414C481 414 474 421 474 428C474 438 491 446 497 446C499 446 510 442 510 428C510 417 507 414 493 414ZM337 408C325 408 321 413 321 418C321 427 332 439 342 439C348 439 354 434 354 425C354 417 347 408 337 408ZM881 339C883 339 909 358 912 358C914 358 948 371 948 376C948 380 942 388 936 391C889 409 890 426 884 426C880 426 879 423 879 413C879 401 882 394 886 394C888 394 890 397 894 397C897 397 902 393 902 384C902 378 899 367 896 367C892 367 888 374 886 374C882 374 880 349 880 343C880 341 880 339 881 339ZM732 337C725 337 716 338 705 339C704 339 704 349 704 364C704 377 704 393 705 410V423L739 421C758 420 773 419 773 418C774 418 775 398 775 379V363C775 347 774 342 769 342C769 342 759 337 732 337ZM739 351C749 351 767 364 767 379C767 392 760 410 744 410C730 410 715 397 715 381C715 365 728 351 739 351ZM129 336C131 336 132 343 132 356C132 366 131 375 129 375C128 375 126 373 126 371C126 367 118 363 109 363C106 363 105 368 105 378C105 395 97 405 86 405C72 405 63 395 63 364C63 352 65 340 69 340C73 340 66 348 100 348C120 348 123 348 125 342C126 338 127 336 129 336ZM639 383C625 383 609 385 609 388C609 391 627 402 632 402C635 402 656 389 656 386C656 386 652 383 639 383ZM812 366C801 366 795 372 795 384C795 393 805 399 814 399C822 399 829 394 829 383C829 372 823 366 812 366ZM743 365C736 365 729 370 729 374C729 377 728 380 728 383C728 389 734 397 742 397C749 397 756 390 756 380C756 369 750 365 743 365ZM83 363C76 363 73 366 73 372C73 377 75 389 85 389C91 389 96 384 96 376C96 366 93 363 83 363ZM911 373C910 373 909 374 909 381C909 386 909 389 911 389C915 389 924 383 924 379C924 377 923 375 922 375C917 375 913 373 911 373ZM635 348C632 348 611 358 611 363C611 368 626 369 636 369C646 369 654 368 654 366C654 360 640 348 635 348ZM423 237 333 238C279 239 240 241 235 243C210 253 183 301 176 350L174 363H234C269 363 324 364 359 365H423L424 350V286ZM488 279C508 279 520 298 520 311C520 324 506 332 491 332C476 332 458 321 458 307C458 292 473 279 488 279ZM340 274C351 274 365 292 365 302C365 313 354 327 335 327C319 327 303 316 303 301C303 290 317 274 340 274ZM486 294C478 294 471 300 471 307C471 316 482 321 491 321C501 321 504 315 504 308C504 297 493 294 486 294ZM343 285C330 285 322 290 322 298C322 304 328 313 337 313C345 313 351 306 351 297C351 291 348 285 343 285ZM584 191C579 191 571 192 571 207C571 216 577 222 585 222C597 222 609 209 609 201C609 197 605 191 587 191ZM502 -59C506 -59 510 -55 511 -51C514 -38 534 -8 542 -4C547 -1 549 1 549 2C549 5 544 6 534 6C524 6 520 5 520 2C520 -1 523 0 523 -4C523 -9 518 -16 506 -16C491 -16 488 -10 488 -5C488 0 490 4 490 4C490 6 487 6 478 6C469 6 462 5 462 3C462 2 464 0 467 -1C473 -3 478 -16 483 -29C489 -44 495 -59 502 -59ZM504 -39C501 -39 499 -32 499 -27C499 -22 505 -20 510 -20C512 -20 514 -21 514 -22C514 -25 506 -39 504 -39Z" fill="#f59e0b" stroke="none"/>
  </g>
</svg>