<svg xmlns="http://www.w3.org/2000/svg" viewBox="-50 -50 1100 1100">
  <g transform="translate(0, 1000) scale(1, -1)">
    <path d="M501 -92C559 -92 622 -84 649 -71L692 -51C760 -19 815 24 861 79C883 106 888 110 888 112C888 113 924 175 937 206L946 232C970 291 970 339 970 374C970 404 970 432 969 436C969 436 953 568 871 671L852 695C842 709 806 742 787 754L756 776C708 811 604 852 515 852C419 852 235 821 108 640C103 632 88 604 75 578C75 578 30 508 30 376C30 338 34 297 47 258L58 222C71 176 101 128 138 80C204 -3 340 -92 501 -92ZM512 -83C193 -83 81 185 81 185C81 190 70 203 49 278C42 305 41 311 41 371C41 499 68 548 103 612C121 645 189 721 224 747C316 815 416 841 510 841C628 841 729 785 750 771C882 684 961 536 961 383C961 271 920 121 781 12C695 -56 609 -71 604 -75C597 -80 553 -83 512 -83ZM504 -76C706 -76 863 55 925 216C935 241 951 303 951 314C951 324 955 315 955 355C955 401 954 472 927 540C927 540 829 835 504 835C415 835 354 811 354 811C347 811 334 802 329 802C324 802 289 784 266 770C191 725 46 595 46 389C46 368 47 346 51 323L57 278C65 219 108 143 111 140L133 110C171 61 199 31 235 9C239 6 334 -76 504 -76ZM514 -65C485 -65 452 -62 421 -57C306 -35 235 26 231 26C231 26 56 152 56 381C56 402 58 425 62 449C77 558 123 609 123 615C123 617 124 619 126 619C127 619 129 621 129 623C129 626 130 628 132 628C134 628 137 632 139 636C145 649 156 653 156 658C156 658 279 824 499 824C737 824 858 646 861 643C861 640 942 528 942 391C942 298 915 206 894 169C882 148 844 98 819 71C748 -5 678 -41 560 -61C547 -64 531 -65 514 -65ZM476 750C482 750 489 751 489 753C489 755 486 757 484 757C481 757 479 761 479 766C479 773 482 777 486 777C491 777 494 770 497 770C501 770 503 785 503 790C503 795 502 797 500 797C495 797 491 788 484 788C481 788 479 791 479 795C479 802 485 805 493 805C509 805 512 793 517 793C518 793 519 795 519 798C519 804 516 817 502 817C493 817 484 812 473 812C468 812 464 814 460 814C457 814 455 813 455 811C455 806 467 800 467 793C467 789 465 784 465 774C465 751 453 762 453 755C453 752 466 750 476 750ZM486 20C517 20 567 24 580 27L607 35C688 59 780 137 816 211L829 238C834 247 860 303 860 384C860 400 858 410 857 420C855 427 854 435 854 445C854 445 832 565 737 650C717 668 664 703 657 703C655 703 650 704 646 706C606 727 528 738 515 738C403 738 331 697 292 670C267 653 217 603 208 587C191 555 143 498 143 376C143 159 333 20 486 20ZM408 382C394 382 392 403 372 403C362 403 354 397 348 390C342 383 340 383 312 383H282L281 397C280 401 280 408 280 415V426L282 458C284 484 292 509 304 522C312 531 313 532 327 532H330C337 532 347 531 347 517C347 509 335 503 330 503C326 503 324 506 324 511C324 518 326 516 332 516C336 516 338 518 338 521C338 524 333 528 327 528C319 528 312 522 312 512C312 503 321 490 328 490C331 490 356 497 356 523C356 535 349 546 330 546C282 546 281 499 271 499C261 499 254 535 217 535C200 535 192 527 189 527C189 527 188 528 188 530C188 536 201 548 201 551C201 561 277 665 369 697L405 710C430 719 469 723 507 723C622 723 692 670 740 626C767 600 807 551 807 542C807 539 804 538 798 538C783 538 769 528 755 511L742 493L740 510C738 526 737 529 725 541C715 551 711 553 705 553C690 553 663 546 663 519C663 511 676 497 686 497C697 497 710 510 710 520C710 527 702 531 697 531C691 531 688 526 688 524C688 522 688 520 691 520C694 520 695 519 695 517C695 513 692 509 688 509C682 509 676 517 676 525C676 536 691 542 699 542C704 542 724 534 724 499C724 477 717 452 709 428C705 413 700 399 697 384L679 383C676 383 673 382 671 382C662 382 660 384 660 386C660 395 646 406 635 406C624 406 610 398 607 388C606 384 603 382 599 382C592 382 592 383 592 404C592 449 612 450 612 454C612 456 604 457 572 457C543 457 508 456 505 454C503 451 501 452 500 454C499 457 485 458 445 458C396 458 392 458 391 453C390 449 392 448 396 448C399 448 405 444 409 441C416 433 417 430 417 407V382ZM148 523C155 523 164 540 164 547C164 548 163 550 162 550C159 550 156 545 151 545C145 545 138 552 138 555C138 558 145 561 155 561H158C167 561 182 562 182 583C182 590 180 596 177 596C173 596 172 591 172 586C172 583 173 579 173 579C173 573 168 569 162 569C143 569 146 595 129 595C110 595 96 554 96 548C96 545 96 545 97 545C99 545 104 552 111 552C125 552 141 535 145 526C146 524 146 523 148 523ZM861 516C873 516 879 521 891 521C896 521 898 520 900 520C902 520 902 521 902 523C902 528 899 547 894 547C891 547 888 543 888 538C888 532 869 524 859 524C852 524 849 536 849 540C849 554 874 560 876 560C880 560 878 556 881 556C883 556 885 559 885 563C885 574 881 584 876 584C875 584 873 582 872 579C869 572 838 563 838 542C838 536 843 516 861 516ZM127 562C122 562 115 567 115 571C115 574 119 579 125 579C129 579 135 577 135 569C135 564 131 562 127 562ZM510 34C456 34 413 46 391 51C381 53 383 58 375 58C367 58 331 77 312 91L284 111C264 126 216 178 216 186C216 188 214 191 211 192C206 193 195 210 195 216C195 218 195 218 197 218H207C216 218 229 221 243 238L253 251L259 237C274 204 284 196 308 196C332 196 342 215 342 233C342 248 334 263 320 263C312 263 289 252 289 236C289 221 312 218 317 218C320 218 321 219 321 223C321 230 306 233 306 239C306 242 311 249 317 249C324 249 332 241 332 231C332 224 327 207 308 207C288 207 270 241 270 274C270 286 273 297 275 309C279 323 282 338 282 356V367H307C334 367 342 365 342 359C342 355 354 342 369 342C392 342 396 366 407 366C411 366 416 364 416 357C416 330 388 341 388 331C388 325 394 322 472 322C492 322 495 323 495 327C495 335 479 342 479 358C479 365 483 366 489 366C493 366 496 362 496 322C496 314 496 305 495 300L493 281L457 282H438C415 282 408 281 408 276C408 275 415 264 424 252L499 156L506 163C506 163 579 267 579 277C579 280 570 280 564 280C554 280 541 279 530 279C519 279 510 280 510 285C509 315 508 334 508 347C508 361 510 367 517 367C525 367 530 361 530 355C530 339 511 336 511 329C511 325 513 323 563 323C606 323 617 325 617 327C617 331 593 338 593 355C593 359 594 367 596 367C602 367 616 346 631 346C642 346 646 350 650 355C655 361 661 367 681 367H698L696 348V338C696 290 706 249 706 241C706 220 692 205 689 205C684 205 683 200 678 200C663 200 659 212 659 229C659 239 661 244 668 244C675 244 677 241 677 238C677 233 669 224 669 221C669 217 673 215 677 215C684 215 692 220 692 234C692 257 681 257 674 257C654 257 643 243 643 226C643 210 655 187 674 187C720 187 717 235 724 235C728 235 740 217 781 217C799 217 815 237 815 254C815 266 812 282 796 282C782 282 768 271 768 258C768 249 777 241 784 241C788 241 793 245 793 248C793 252 782 252 782 258C782 262 790 271 795 271C798 271 803 263 803 254C803 240 795 227 780 227C776 227 772 229 764 232C733 244 719 263 719 336C719 435 769 528 795 528C804 528 810 521 810 514C810 506 803 502 799 502C795 502 792 505 792 507C792 512 797 510 797 515C797 517 794 520 789 520C783 520 780 516 780 511C780 503 787 493 796 493C809 493 815 509 820 509C826 509 846 446 846 378C846 309 827 222 752 143C669 56 580 34 510 34ZM201 233C186 233 182 246 182 250C182 257 189 274 200 274C205 274 209 272 209 268C209 264 204 265 204 253C204 250 205 247 207 247C212 247 221 261 221 272C221 279 216 286 203 286C192 286 174 276 174 273H173C166 276 154 343 154 385C154 428 171 499 178 499C179 499 180 497 180 493C180 486 190 478 200 478C218 478 226 490 226 500C226 508 222 514 215 514C208 514 202 511 202 509C202 507 207 507 207 499C207 494 205 493 199 493C192 493 189 497 189 503C189 513 198 526 213 526C218 526 225 524 231 519C254 504 261 480 261 405C261 354 261 325 257 317C250 299 240 233 201 233ZM479 381 478 392C477 395 477 399 477 401C477 438 494 449 499 449C501 449 503 448 507 447C527 440 528 430 528 405L529 381ZM441 380C430 380 429 386 429 405C429 426 430 429 437 437C441 442 445 444 448 444C452 444 465 439 465 404V383L454 381C448 380 444 380 441 380ZM543 382V409C543 438 545 444 554 444C559 444 578 437 578 415V404L577 384ZM633 382C622 382 619 384 619 386C619 390 628 395 635 395C642 395 647 388 647 386C647 384 644 382 633 382ZM372 380C361 380 357 382 357 384C357 387 365 390 373 390C382 390 387 385 387 383C387 381 382 380 372 380ZM372 355C364 355 354 361 354 363C354 366 359 367 370 367C381 367 386 366 386 364C386 362 381 355 372 355ZM444 334C432 334 429 352 429 358C429 365 431 367 439 367C447 367 465 366 465 359C465 352 457 334 444 334ZM637 356C630 356 621 360 621 363C621 365 624 367 633 367C642 367 645 365 645 362C645 358 642 356 637 356ZM557 332C548 332 542 346 542 356C542 365 547 366 557 366H566C578 366 579 365 579 359C579 346 566 332 557 332ZM476 287C483 287 488 290 488 305C488 312 486 316 476 316C467 316 456 312 456 301C456 293 467 287 476 287ZM533 284C537 284 547 295 547 302C547 307 541 315 533 315C523 315 515 306 515 298C515 292 529 284 533 284ZM499 181C497 181 494 184 493 187C491 193 447 246 447 246L432 267L475 268C490 269 504 269 516 269C541 269 558 268 558 266C558 262 502 182 499 181ZM504 199C506 199 508 201 509 204C513 214 524 223 524 227C524 230 543 254 543 257C543 260 513 261 486 261C457 261 451 260 451 256C451 251 492 199 504 199ZM501 219 468 250H495C506 250 523 249 523 247C523 245 519 239 513 232ZM863 148C872 148 894 176 894 188C894 192 894 192 892 192C889 192 885 189 881 189C867 189 847 217 841 217C840 217 828 199 828 195C828 194 830 194 831 194H838C846 194 852 190 852 186C852 183 847 180 838 180C833 180 831 181 826 181C814 181 805 165 805 158C805 154 808 151 810 151C812 151 812 153 812 156C812 166 821 169 829 169C837 169 846 166 846 162C846 156 856 148 863 148ZM168 114C170 114 171 114 171 116C171 118 170 119 170 121C170 129 191 149 191 167C191 179 180 186 167 186C146 186 142 170 134 170C131 170 128 171 126 171C123 171 121 170 121 168C121 161 136 149 139 149C141 149 141 150 141 152C141 157 161 178 174 178C180 178 182 174 182 169C182 158 170 141 157 141C154 141 153 142 150 142C148 142 146 140 146 138C146 130 162 114 168 114ZM864 161C861 161 858 164 858 173C858 177 860 181 864 181C864 181 873 177 873 171C873 166 868 161 864 161ZM502 -56C513 -56 549 -52 549 -47C549 -45 547 -44 544 -44C534 -44 531 -15 531 -8C531 3 542 1 542 6C542 9 536 10 524 10C513 10 509 10 509 8C509 0 519 -1 519 -13C519 -16 518 -20 516 -20C513 -20 508 -13 504 -13C499 -13 498 -23 498 -31C498 -35 498 -38 499 -38C500 -38 510 -29 515 -29C518 -29 519 -31 519 -36C519 -42 514 -46 507 -46C502 -46 497 -44 492 -39L484 -30C483 -35 483 -38 483 -42C483 -51 486 -56 502 -56Z" fill="#f59e0b" stroke="none"/>
  </g>
</svg>