<svg xmlns="http://www.w3.org/2000/svg" viewBox="0 -122 1000 1003">
  <g transform="translate(0, 759) scale(1, -1)">
    <path d="M510 -92C560 -92 669 -83 783 3C939 119 966 304 966 332C966 357 970 332 970 366C970 402 963 472 948 520C936 560 903 627 882 653L858 684C823 730 758 777 752 777C748 777 649 851 496 851C440 851 374 841 305 809C216 768 141 686 116 649L97 619C85 600 52 526 52 516C52 507 46 513 46 498C46 496 43 484 40 473C37 460 34 446 34 443V433C34 428 30 433 30 384C30 352 33 306 44 266L47 252C50 240 113 -16 405 -84C436 -91 489 -92 510 -92ZM502 -83C226 -83 40 144 40 369C40 453 64 533 70 547L89 584C113 635 136 664 177 706C193 723 302 840 490 840C808 840 960 580 960 373C960 358 959 346 958 338C951 327 949 133 764 -1C688 -56 596 -83 502 -83ZM486 -77C645 -77 723 -20 750 -2C883 86 952 236 952 379C952 481 915 558 915 560C915 575 800 834 499 834H497C334 834 255 764 229 747C210 735 145 669 132 649L110 616C62 538 44 437 44 385C44 313 65 234 75 212L89 182C114 122 162 63 220 19C300 -43 351 -54 381 -61C391 -63 398 -64 404 -67C419 -74 451 -77 486 -77ZM505 -66C335 -66 223 31 220 34C216 39 212 43 210 43C205 43 99 144 71 270C65 297 57 304 57 383C57 609 244 824 497 824C659 824 827 735 911 545C930 502 940 432 940 371C940 345 939 319 935 299C905 164 853 117 853 110C853 108 838 97 838 94C838 91 784 39 772 30C718 -9 703 -23 598 -55C575 -61 542 -66 505 -66ZM467 748C477 748 482 750 482 753C482 756 473 759 473 781C473 787 475 789 476 789C479 789 490 757 498 757C503 757 513 796 517 796C518 796 518 793 518 789C518 757 511 753 511 751C511 749 515 748 524 748C533 748 539 750 539 752C539 755 531 750 531 777C531 809 540 805 540 808C540 811 524 813 521 813C509 813 504 780 499 780C492 780 488 811 470 811C464 811 459 810 459 808C459 806 461 805 463 805C464 805 466 795 466 782C466 747 454 759 454 751C454 749 458 748 467 748ZM276 665C279 668 285 679 291 679C298 679 326 694 326 712C326 721 319 726 308 726C293 726 282 719 272 719C267 719 265 722 265 727C265 734 279 741 289 741C293 741 295 740 298 740C301 740 302 741 302 743C302 748 291 760 286 760C284 760 282 759 282 755C282 753 280 750 277 748C262 743 250 728 250 717C250 711 254 702 266 702C278 702 295 710 305 710C310 710 312 708 312 702C312 697 288 688 276 688C268 688 265 686 265 683C265 678 272 670 276 665ZM733 664C733 664 740 741 740 745C738 747 736 748 733 748C721 748 710 740 700 732C691 725 682 719 674 719C670 719 668 721 665 721C663 721 663 720 663 719C663 714 683 698 690 698C693 698 694 701 694 703C694 707 690 709 690 712C690 716 699 720 704 720C710 720 720 716 720 702C720 694 717 687 714 687C713 687 711 688 709 688C709 688 708 687 708 686C708 682 729 664 733 664ZM487 21C556 21 635 29 728 104C790 153 834 237 834 251C834 251 856 297 856 382C856 383 857 388 857 394C857 421 852 499 792 584C792 587 753 634 741 645C688 693 597 739 495 739C352 739 187 639 146 435C143 415 141 398 141 380C141 347 147 312 161 265C196 142 336 21 487 21ZM721 719C719 719 714 724 714 729C714 734 723 738 724 738C726 738 727 736 727 733C727 729 725 719 721 719ZM595 324C560 324 525 325 521 328C518 332 517 342 515 402L513 472H527C542 472 543 471 560 453C570 442 577 436 581 436C585 436 586 442 586 456C586 514 583 528 578 528C566 528 565 487 538 487H532L515 488V509C514 512 514 514 514 516C514 526 516 530 519 534L534 551C551 569 559 565 559 572C559 576 552 577 543 577C536 577 529 577 520 576C511 576 502 575 493 575C477 575 471 577 465 577C458 577 454 575 454 571C454 561 471 568 488 546C498 533 498 531 498 510V486L481 487C444 490 441 527 431 527C425 527 425 526 425 483V480C425 445 427 430 432 430C435 430 438 436 444 447C452 464 454 474 487 474H489C498 474 498 473 498 445C498 434 498 419 499 399V326H396C362 326 313 326 313 328C313 329 375 433 375 445C375 447 394 480 394 518C394 529 392 542 388 555C379 579 371 586 348 586C331 586 329 585 321 576C315 570 312 567 312 561C312 540 328 526 339 526C345 526 351 529 356 537L364 548L354 557C349 562 344 565 340 565C338 565 337 564 337 561C337 558 339 556 341 556C345 556 350 549 350 545C350 543 349 541 345 541C337 541 325 546 325 555C325 562 335 573 342 573C349 573 380 568 380 522C380 502 375 483 372 472C368 460 313 351 309 351C308 351 307 369 307 397C307 548 265 590 237 590C232 590 229 591 229 593C229 597 271 641 285 651L309 668C315 673 394 726 498 726C676 726 770 594 770 591C770 590 769 589 768 588C707 552 690 411 690 373V348C687 352 679 361 679 367C678 374 638 451 638 489C638 531 641 571 678 571C686 571 693 568 693 557C693 547 688 536 682 536C678 536 673 540 673 549C673 557 679 560 679 563C679 564 678 564 676 564C673 564 661 559 661 546C661 535 669 526 680 526C692 526 704 536 704 553C704 568 694 583 677 583C634 583 623 530 623 500C623 419 684 330 684 326C684 325 613 324 595 324ZM865 481C866 481 867 482 867 483C867 488 855 498 855 505C855 509 877 528 883 528C885 528 900 532 900 547C900 563 886 581 881 581C880 581 880 580 880 579C880 573 846 555 832 555C826 555 826 559 822 559C821 559 821 558 821 557C821 553 832 528 839 528C840 528 840 529 840 530C840 533 839 535 839 537C839 544 851 546 854 546C858 546 861 543 861 538C861 526 845 519 845 505C845 492 861 481 865 481ZM254 325C202 325 231 331 203 345C199 347 196 347 193 347C176 347 164 327 159 327C155 327 154 368 154 378C154 476 197 556 205 556C207 556 207 553 207 549C207 537 223 521 236 521C249 521 258 535 258 545C258 556 243 563 242 563C238 563 229 556 229 554C229 550 246 554 246 546C246 542 243 536 237 536C229 536 217 549 217 560C217 568 228 579 238 579C259 579 290 542 290 376C290 350 289 330 287 328C286 326 275 325 254 325ZM838 320V323C838 331 837 349 812 349C803 349 799 347 789 337L778 324L707 326L706 340V348C706 398 732 576 772 576C783 576 794 566 794 557C794 550 784 539 778 539C774 539 772 542 772 546C772 553 776 554 776 559C776 565 770 568 769 568C766 568 754 558 754 551C754 544 770 526 780 526C784 526 789 529 794 535L802 545C805 542 813 531 813 526C813 526 846 452 846 377C846 358 844 339 838 320ZM880 540C874 540 867 552 867 554C867 556 881 562 883 562H885C888 562 891 558 891 553C891 546 884 540 880 540ZM135 463C140 463 146 484 146 488V490C144 490 141 487 136 487C131 487 122 489 122 498C122 506 127 520 131 520C138 520 142 523 145 523C146 523 147 522 147 517C147 514 149 511 152 511C154 511 156 513 156 515C156 520 172 538 172 541C172 543 170 544 167 544C165 544 162 543 161 541C160 539 148 537 133 534C110 530 82 525 82 518C82 515 91 508 102 500C116 489 133 477 133 468C133 465 133 463 135 463ZM111 503C106 503 101 507 101 511C101 515 111 516 113 516C116 516 117 515 117 511C117 505 114 503 111 503ZM811 302C804 302 797 308 797 317C797 324 805 337 814 337C822 337 828 328 828 319C828 309 817 302 811 302ZM192 296C184 296 175 308 175 318C175 326 184 334 192 334C202 334 209 324 209 317C209 309 202 296 192 296ZM231 183C221 183 211 197 211 206C211 216 221 227 225 227C226 227 230 225 230 217V209C230 207 230 205 233 205C242 205 246 211 246 218C246 228 237 238 228 238C212 238 198 217 194 217C193 217 192 219 192 221C192 224 190 227 188 229C185 232 163 294 163 294L160 304L172 294C179 287 185 283 190 283C196 283 203 288 212 298L227 313H285L283 302C278 266 257 183 231 183ZM501 33C470 33 422 42 389 53C313 77 294 102 278 115C258 132 229 161 229 165V167L245 175C267 186 275 203 292 268C295 280 298 293 298 297C298 301 298 303 300 303C303 303 309 295 314 282L332 242C337 231 343 218 343 214C343 196 317 169 317 165C317 164 318 163 319 163C325 163 343 174 343 178C343 180 345 181 347 181C353 181 370 199 379 199C384 199 393 207 393 212C393 214 390 215 376 215H362L339 262C326 287 315 310 315 311C315 312 328 313 347 313C353 313 358 312 365 312L415 311V236C414 155 413 135 407 135C404 135 397 138 384 138C365 138 356 125 356 113C356 101 365 89 380 89C385 89 391 91 397 94L409 100L421 87C431 75 440 71 448 71C466 71 478 89 478 100C478 108 464 124 456 124C450 124 438 111 438 105C438 104 440 98 444 98C451 98 453 110 460 110C463 110 468 107 468 101C468 93 461 82 452 82C439 82 422 103 422 122C422 138 430 165 430 289V312H463C481 312 494 311 496 309C498 307 499 298 499 273V245L498 186L489 180C479 175 476 167 476 158C476 143 490 127 506 127C525 127 539 150 539 159C539 176 516 185 516 198C516 202 516 230 517 258V310L587 309L586 241C585 164 583 128 579 120C573 109 555 91 549 91C544 91 535 101 535 107C535 110 539 112 541 112C547 112 554 105 559 105C561 105 562 107 562 111C562 119 556 123 549 123C540 123 525 115 525 104C525 91 542 79 549 79C557 79 575 91 579 99C582 104 585 106 586 106C588 106 589 105 589 102C589 96 603 85 610 85C617 85 636 94 636 111C636 125 623 136 604 136C599 136 595 137 596 139C599 143 600 205 601 252C601 263 602 273 602 282C602 297 602 307 603 308C605 310 656 311 670 311C680 311 682 311 682 309C682 302 675 301 655 267L644 245H626C615 245 608 244 608 242C608 239 623 222 636 208C645 197 653 188 655 185C657 183 660 181 663 181C665 181 666 182 666 184C666 188 654 202 654 225C654 240 660 259 679 280L688 290V279C688 259 702 180 725 166C731 162 737 160 744 160C757 160 767 167 770 167C770 165 758 150 745 138L720 113C681 74 585 33 501 33ZM748 172C737 172 722 188 718 203C710 233 706 270 706 292C706 310 706 312 717 312H728C749 312 782 310 783 307C784 302 792 289 809 289C815 289 824 292 835 299L833 286C827 248 788 185 783 183C783 185 785 192 785 199C785 212 781 226 764 226C750 226 735 214 735 203C735 194 743 178 747 178C752 178 755 183 755 188C755 192 752 193 752 200C752 206 756 211 761 211C765 211 771 206 771 197C771 186 761 172 748 172ZM98 235C99 235 100 237 100 241C100 251 121 261 135 261C145 261 145 256 147 256C148 256 148 257 148 259C148 264 142 296 137 296C136 296 134 292 134 284C134 276 100 267 97 267C93 267 90 276 82 276C80 276 78 276 78 273C78 272 93 235 98 235ZM896 193C896 193 897 194 897 197C897 205 908 212 908 228C908 244 897 270 877 270C857 270 841 246 841 234C841 228 847 224 849 224C851 224 853 227 853 234C853 245 858 253 865 253C871 253 900 239 900 225C900 206 878 216 878 208C878 204 892 193 896 193ZM510 139C502 139 491 146 491 156C491 165 499 175 509 175C521 175 528 159 528 155C528 149 519 139 510 139ZM384 102C380 102 369 104 369 112C369 118 376 125 385 125C388 125 403 123 403 116C403 110 396 102 384 102ZM609 102C604 102 598 107 598 113C598 121 602 124 606 124C613 124 621 118 621 111C621 107 615 102 609 102ZM715 4C719 4 738 16 738 20C738 22 736 22 732 22C728 22 720 29 720 34C720 38 730 47 738 47C742 47 745 44 745 36V29C745 27 745 26 747 26L756 27C760 27 771 40 771 43C771 46 767 44 764 44C756 44 734 81 734 85C734 88 738 92 738 95C738 96 737 97 736 97C730 97 711 80 711 75C711 74 712 73 713 73C716 73 717 74 720 74C725 74 729 69 729 64C729 57 723 48 717 48C710 48 704 60 704 66C704 69 707 73 700 70C690 68 682 57 682 52C682 51 683 50 685 50C687 50 688 51 688 51C697 51 713 26 713 15C713 12 712 10 712 7C712 5 713 4 715 4ZM257 18C259 18 274 25 274 35C274 46 259 60 259 72C259 77 262 80 268 80C275 80 281 71 281 61C281 57 280 53 280 50C280 48 281 46 282 46C286 46 303 66 303 68C303 68 301 68 298 69C292 70 286 75 281 81C274 87 267 94 259 94C257 94 243 92 243 80C243 51 258 38 258 33C258 31 256 30 249 30C238 30 232 37 232 46C232 53 235 58 235 62C235 65 234 66 233 66C229 66 216 51 216 48C216 45 224 45 229 34C233 27 249 18 257 18ZM508 -59C521 -59 543 -44 543 -23C543 0 529 15 509 15C495 15 472 9 472 -16C472 -37 488 -59 508 -59ZM512 -49C493 -49 491 -36 491 -24C491 1 501 7 508 7C521 7 525 -5 525 -22C525 -41 521 -49 512 -49Z" fill="#f59e0b" stroke="none"/>
  </g>
</svg>