<svg xmlns="http://www.w3.org/2000/svg" viewBox="-2 -125 1004 1008">
  <g transform="translate(0, 758) scale(1, -1)">
    <path d="M481 -95C588 -95 618 -82 643 -71C654 -67 663 -63 677 -60C697 -56 972 64 972 387C972 464 945 565 885 651L855 693C845 707 794 755 772 769C758 778 658 829 655 829C649 829 587 853 498 853H476C449 853 413 851 354 830L322 818C255 796 165 709 161 706C144 694 95 624 81 591L69 564C64 553 61 546 61 544C61 542 58 533 53 524C39 494 28 419 28 386C28 368 30 377 31 343C33 276 49 262 49 248C49 240 63 200 82 157C117 77 217 -2 217 -4C217 -6 218 -8 220 -8C222 -8 230 -13 239 -19C248 -24 257 -29 258 -29C265 -29 353 -95 481 -95ZM505 -87C272 -87 151 71 151 71C143 85 136 85 136 88C136 90 127 103 116 117C99 140 97 146 93 156C91 161 88 168 83 178C48 247 37 323 37 384C37 422 42 453 48 474C81 588 118 655 180 711C212 740 256 776 261 776C263 776 265 776 265 777C265 781 327 813 343 817L391 829C430 839 455 844 486 844C501 844 517 843 536 841C665 828 707 790 714 790C714 790 813 743 876 649C894 621 913 590 913 587C913 585 914 583 915 582C918 581 934 546 934 540C934 540 964 449 964 371C964 358 963 344 961 331C940 220 932 196 897 141C889 128 886 122 883 118C880 111 878 107 854 79C780 -7 717 -45 592 -78C573 -83 543 -87 505 -87ZM511 -82C599 -82 665 -54 730 -20C803 17 886 122 886 132C886 134 920 178 936 236L944 268C952 296 956 339 956 380C956 536 886 624 877 637C819 721 778 755 678 803C643 820 567 839 479 839C450 839 431 835 391 824L347 813C327 808 283 786 271 776C253 762 253 771 178 701C107 634 76 560 57 480L45 435L47 364C49 287 51 273 72 215C93 160 108 147 111 134C114 123 123 113 132 104C139 96 145 88 149 81C152 76 221 -14 360 -62C396 -74 457 -82 511 -82ZM518 -71C484 -71 354 -58 330 -38C327 -36 314 -29 300 -22C278 -12 254 0 252 4C249 8 229 15 229 19C229 22 222 27 213 34C196 47 170 66 155 91L143 108C129 128 108 156 101 177L93 199C79 234 56 273 56 374C56 433 65 482 68 488C74 498 74 511 80 526L89 545C139 662 195 700 195 700C195 700 290 785 333 795C338 796 351 800 362 804L395 815C421 824 456 827 492 827C635 827 713 774 763 741C802 715 844 672 863 638L886 601C931 526 946 450 946 383C946 274 907 184 889 158C871 131 869 119 861 116C856 114 850 98 812 59C730 -27 594 -71 518 -71ZM469 746 495 747C522 747 529 750 529 764C529 774 506 793 493 793C488 793 486 795 486 798C486 803 492 810 499 810C502 810 506 808 510 803L517 794L516 808C516 816 514 822 510 822C509 822 508 821 508 820C508 818 503 818 497 818C483 818 473 806 473 796C473 783 484 780 494 778C503 775 512 773 512 763C512 759 510 756 501 756C491 756 478 761 478 766C478 768 476 769 474 769C470 769 469 766 469 758ZM503 18H505C596 18 611 37 618 37C625 37 686 68 704 81C725 96 782 146 812 202L828 229C844 257 861 339 861 381C861 386 860 389 860 393L855 435C848 506 805 570 805 570C776 626 678 703 630 720C581 737 510 740 474 740C430 740 382 722 382 722L354 708C346 704 339 701 337 701C337 701 316 693 296 680C280 670 223 611 223 606C223 603 222 601 220 601C215 601 200 574 187 552C178 536 171 523 169 523C167 523 166 521 166 518C166 513 140 481 140 370V351C143 276 169 241 169 236C169 234 179 214 191 192C212 156 216 149 245 122C261 106 282 89 288 85L327 61C375 30 426 18 503 18ZM384 533C370 533 359 534 359 535C358 537 357 555 357 575C357 598 356 622 354 625C352 626 335 627 317 627C275 627 275 624 265 624C260 624 257 625 257 627C257 629 259 631 262 633C275 643 288 658 290 658C290 658 387 729 496 729C575 729 669 690 686 672C686 672 765 610 765 603V601C761 601 738 622 693 628C684 630 676 631 670 631C657 631 656 624 656 598V533H604C587 533 573 533 572 534C571 536 570 553 569 571C568 594 567 619 565 623C564 628 558 629 544 629C537 629 528 628 519 628C465 628 435 628 434 627C433 626 432 605 432 580V534L396 533ZM170 547C174 547 177 551 177 554C177 558 174 557 174 559C174 563 197 572 197 590C197 605 188 609 180 609C169 609 158 604 158 604C152 604 151 595 138 595C134 595 130 597 130 599C130 606 140 613 148 613C154 613 156 614 156 615C156 619 145 627 142 627C136 627 119 608 119 591C119 583 122 574 134 574C150 574 170 588 179 588C181 588 182 587 182 586C182 584 180 580 176 576C165 566 156 571 156 563C156 556 168 547 170 547ZM829 545C831 545 833 547 834 553C836 564 838 566 856 574C863 577 867 578 869 578C872 578 873 577 873 575C873 568 863 556 863 552C863 549 865 547 869 547C873 547 888 550 888 565C888 578 874 599 871 603C862 611 863 622 858 622C853 622 833 605 833 602C833 600 837 599 839 599C844 599 846 603 852 603C854 603 863 601 863 596C863 589 832 575 826 575C824 575 816 582 812 582C811 582 809 581 809 578C809 572 819 567 822 555C824 548 826 545 829 545ZM343 157C331 157 327 165 323 165C321 165 321 164 320 164C315 164 304 183 295 206C275 255 260 255 248 258L249 336C250 378 251 414 252 415C252 416 285 418 315 418C333 418 349 417 357 415L356 258L346 251C336 245 331 236 331 228C331 214 344 201 363 201C385 201 388 225 388 232C388 236 385 239 379 246L370 255V309C370 338 370 375 371 390V416L398 418C413 419 479 421 544 422L663 424L675 416C684 410 693 407 701 407C718 407 729 420 729 440C729 447 706 472 699 472C690 472 671 459 667 451C664 444 662 442 641 442C611 442 528 444 518 446C511 448 508 468 508 507C508 535 513 541 517 542C524 544 535 562 535 571C535 584 509 601 506 601C504 601 481 595 481 570C481 550 496 549 496 534C495 484 492 443 489 442C487 441 473 439 458 439C451 439 443 438 433 437C416 436 393 434 360 434C329 434 310 436 297 436C278 436 282 432 269 432H251L250 613H289L288 588C287 565 287 564 280 564C269 564 262 583 258 583C257 583 256 579 256 569C256 555 259 530 261 529C263 529 265 530 265 532C265 539 274 547 282 547C287 547 289 545 289 540C288 523 265 517 265 511C265 509 277 508 291 508C305 508 323 509 323 512C323 517 304 533 304 543C304 547 307 549 311 549C325 549 334 526 337 526C338 526 339 530 339 538C339 551 338 586 334 586C331 586 321 563 311 563C306 563 304 566 304 577C304 580 305 584 305 588L306 611C312 612 326 615 330 615C341 615 343 606 343 571V546C343 523 344 520 362 520H396C441 520 452 521 452 528C452 537 448 533 448 570V580L449 614H498C529 614 549 613 550 611C552 609 553 591 553 572C554 550 554 526 558 523C560 522 594 519 625 519C646 519 664 520 674 523L672 568V589C672 614 672 615 676 615C691 615 772 598 788 548C789 546 789 545 789 543C789 541 787 540 781 540C775 540 770 541 768 541C751 541 735 519 735 508C735 495 747 487 761 487C781 487 789 501 797 501C811 501 819 476 819 455C819 445 818 429 812 429C805 429 792 449 775 449C764 449 745 435 745 418C745 411 751 394 772 394C782 394 791 397 797 397C802 397 805 395 805 390C805 382 800 370 778 370C769 370 758 371 746 371C703 371 691 337 691 335C691 319 713 295 737 295C743 295 747 294 747 291C747 285 686 202 651 202C646 202 645 206 645 216L646 256C646 272 643 274 622 274C619 274 577 274 574 270C572 268 571 258 571 249C571 228 575 227 575 225C575 223 571 221 571 197V175H541C520 175 509 176 507 179C506 181 506 195 505 212C505 235 505 263 501 267C499 270 482 271 463 271C438 271 411 269 408 266C404 261 403 252 403 240C403 218 402 188 371 168C358 159 349 157 343 157ZM185 231 180 241C157 292 151 336 151 371C151 408 158 434 159 442C168 502 200 552 219 579C226 590 231 598 231 601C231 603 233 604 234 604C236 604 238 603 238 599C238 573 231 271 231 271C231 263 231 262 217 262C199 262 190 256 188 241ZM509 554C499 554 493 558 493 569C493 580 498 586 505 586C512 586 522 577 522 568C522 560 517 554 509 554ZM824 497 814 505C803 516 802 510 802 529C802 539 802 550 804 550C809 550 824 497 824 497ZM765 504C759 504 752 511 752 515C752 520 761 526 771 526C778 526 784 524 784 519C784 516 774 504 765 504ZM696 418C686 418 678 429 678 439C678 444 681 457 694 457C703 457 715 453 715 438C715 422 702 418 696 418ZM784 179C782 179 779 181 773 186L765 193L768 233C775 327 790 312 790 329C790 334 788 337 785 337C777 337 766 312 734 312C722 312 712 318 712 332C712 349 733 359 743 359C749 359 763 354 776 354C814 354 824 391 824 401C824 406 821 408 821 412C821 416 838 448 838 448C840 448 841 446 841 444C841 437 847 400 847 370C847 297 791 179 784 179ZM780 404C771 404 760 409 760 416C760 425 767 430 774 430C787 430 798 416 798 413C798 408 788 404 780 404ZM521 31C386 31 334 73 334 73C334 74 327 79 319 82C271 106 222 168 218 176C207 196 194 209 194 214C194 215 195 216 197 216C201 216 204 215 208 215C231 215 239 244 251 244C257 244 263 237 272 216C289 178 300 142 351 142C376 142 406 177 406 184C406 186 408 192 410 196C414 204 416 217 417 228C418 243 419 255 426 255C431 255 433 249 433 204C433 188 432 170 431 161L429 141L417 140H413C400 140 392 155 388 155C385 155 384 134 384 128C384 117 386 107 389 107C393 107 396 127 418 127C428 127 428 124 428 112C428 84 413 85 413 80C413 77 419 76 443 76C463 76 468 77 468 79C468 84 448 90 447 112L446 125L462 126H465C487 126 489 112 495 112C500 112 501 125 501 132C501 140 500 150 495 158L488 150C483 144 480 143 478 143L474 144C470 144 470 140 465 140C461 140 456 143 452 143H450C447 143 446 147 446 169L447 254C447 255 454 256 462 256C464 256 467 256 470 255H491L492 210C492 181 493 164 496 162C498 160 521 158 544 158H564C587 158 589 160 589 180C589 188 588 198 588 208C587 218 586 228 586 236C586 254 588 256 607 256C617 256 628 255 630 253C631 250 631 245 631 238V212C631 194 633 178 643 178C647 178 652 183 654 183C655 183 655 182 656 182C667 182 708 205 741 254C748 263 752 267 754 267C756 267 757 264 757 258C757 252 756 242 755 231C753 221 752 209 751 196C750 183 720 196 720 156C720 132 745 138 745 128C745 127 744 127 741 127C739 127 728 118 716 108C650 54 561 35 561 35C557 32 541 31 521 31ZM211 230C208 230 202 234 202 239C202 247 214 250 222 250C226 250 229 249 229 247C229 241 217 230 211 230ZM360 214C350 214 346 218 346 228C346 237 352 243 360 243C370 243 378 234 378 227C378 220 370 214 360 214ZM128 147C130 147 149 153 178 153C197 153 195 149 199 149C201 149 202 150 202 152C202 163 189 183 185 183C183 183 183 181 183 179V170C183 165 180 163 176 163C165 163 158 176 158 185C158 191 161 193 168 193H173C176 193 178 194 178 196C178 201 164 225 159 225C158 225 157 223 157 216C157 208 147 209 147 203C147 199 139 186 131 175C125 165 119 156 119 153C119 150 123 147 128 147ZM848 121C854 121 860 123 863 126C869 132 883 158 883 164C883 182 858 192 858 196C858 197 854 198 850 198C815 198 807 161 807 158C807 156 814 121 848 121ZM850 133C846 133 820 147 820 165C820 173 826 185 838 185C852 185 868 168 868 150C868 142 858 133 850 133ZM744 146C736 146 731 155 731 161C731 172 744 178 754 178C761 178 766 176 766 172C766 165 755 146 744 146ZM147 161C142 161 140 161 140 163C140 165 147 173 150 173C151 173 155 169 155 165C155 163 153 161 147 161ZM525 -65C535 -65 537 -65 537 -63C537 -55 521 -61 521 -43C521 -13 521 -10 529 -6C535 -3 537 -1 537 1C537 3 533 4 525 4C511 4 512 8 491 8C461 8 461 6 456 -4C454 -8 453 -11 453 -14C453 -16 454 -17 457 -17C465 -17 480 -2 495 -2H506V-26C506 -62 496 -52 496 -59C496 -64 515 -65 525 -65Z" fill="#f59e0b" stroke="none"/>
  </g>
</svg>