<svg xmlns="http://www.w3.org/2000/svg" viewBox="3 -120 994 999">
  <g transform="translate(0, 759) scale(1, -1)">
    <path d="M513 -90H525C566 -90 648 -83 762 -12C804 14 871 84 905 148C915 167 947 204 966 352C967 358 967 363 967 371C967 396 963 431 956 466L947 510C925 617 818 729 784 750C760 766 755 787 604 836C581 844 529 849 487 849C468 849 451 848 439 845L407 840C318 824 247 776 244 776C239 776 153 713 109 641C35 522 33 468 33 370V355C33 322 35 314 40 288C74 139 141 71 229 -6C274 -45 363 -71 369 -72L392 -79C415 -86 466 -90 513 -90ZM494 -84C456 -84 422 -80 403 -75L370 -65C344 -58 291 -35 268 -22C247 -10 191 35 157 71C119 111 38 232 38 379C38 412 41 447 45 470C56 530 102 624 145 675C182 720 237 764 244 764C245 764 256 770 268 777C286 788 307 800 311 800C322 800 367 838 507 838C549 838 581 835 590 832C698 800 745 771 774 745L803 721C867 667 936 545 936 518C936 518 960 422 960 366C960 361 947 227 902 158C896 147 873 104 843 69C821 43 769 -2 757 -5C750 -7 742 -12 732 -19C695 -42 629 -84 494 -84ZM488 -78C512 -78 535 -76 556 -74L586 -71C604 -70 682 -45 684 -40C684 -38 687 -37 689 -37C693 -37 714 -25 733 -14C742 -9 750 -4 756 -1C782 12 846 77 846 80C846 84 915 158 940 271C941 274 953 352 953 371C953 412 937 505 921 548C893 623 822 698 799 718L760 750C742 764 689 794 682 794C681 794 674 797 668 800C658 805 638 811 621 815C607 819 595 822 593 824C586 829 553 832 512 832C456 832 385 826 346 809L332 804C289 786 294 789 240 753C150 694 95 603 81 562C78 553 75 545 71 537C59 509 46 480 46 390C46 309 51 296 57 274C69 226 79 198 84 194C93 187 93 123 230 9C295 -44 405 -78 488 -78ZM485 -67C402 -67 307 -23 279 -8C231 19 157 89 122 144C122 144 57 250 57 383C57 447 70 518 106 586L121 612C146 661 212 727 257 749C278 759 277 767 285 767C288 767 291 769 291 770C291 776 397 814 416 814C423 814 430 815 440 816C454 817 472 819 496 819C601 819 703 778 750 743C790 713 870 628 870 614C870 612 871 611 873 611C874 611 876 609 876 607C876 605 877 602 879 602C888 602 941 477 941 374C941 327 920 215 886 159C846 94 794 36 755 13L725 -6C647 -54 546 -67 485 -67ZM475 745C486 745 504 746 504 751C504 759 486 750 486 769C486 774 489 775 502 777C510 779 521 789 521 794C521 794 517 815 490 815C485 815 480 815 476 814L463 811C458 810 456 808 456 806C456 805 458 803 462 803C467 803 473 803 473 766C473 751 459 757 459 749C459 746 463 745 475 745ZM494 786C488 786 485 790 485 795C485 801 489 807 495 807C500 807 506 801 506 796C506 791 501 786 494 786ZM497 21C561 21 614 31 663 56C700 75 774 143 796 177C838 242 855 311 855 376C855 592 673 737 515 737C444 737 380 730 300 678C237 637 194 577 173 531C167 517 142 485 142 378C142 354 144 330 146 316C150 290 170 234 180 222C183 217 225 96 385 39C429 24 449 21 497 21ZM492 32C459 32 428 35 412 42C402 47 392 50 382 54C351 66 320 78 282 109L264 124C264 124 297 127 297 152C297 158 294 163 286 170L275 180L271 275L297 276C305 276 312 277 317 277H319C326 277 326 276 326 262V239C326 222 326 205 330 203C332 201 345 201 359 201H403L404 223V256C404 271 404 278 410 278C420 278 421 277 422 206V141L407 142C377 144 372 177 365 177C360 177 359 168 359 136C359 120 360 96 362 96C364 96 370 103 376 111C387 127 388 128 400 128C414 128 420 125 420 113C420 76 388 70 388 67C388 61 421 56 444 56C460 56 469 58 469 65C469 68 467 71 462 72C457 74 434 99 434 118C434 124 437 125 450 125C475 125 483 89 493 89C496 89 498 117 498 141C498 168 497 174 495 174C490 174 479 164 479 159C479 159 476 139 454 139H449L434 140V200C434 214 433 226 433 234C433 269 435 276 447 276C458 276 460 270 460 229V198L487 196C494 195 503 194 511 194C518 194 524 195 529 196L544 198L547 274H644C745 274 745 273 745 268C745 254 697 212 690 212C680 212 675 229 648 229C637 229 625 224 625 211C625 199 634 183 659 183C671 183 678 187 682 187C684 187 685 186 687 182C691 169 713 155 729 155C734 155 794 169 794 225C794 252 776 264 776 273C776 276 780 281 789 293C808 318 812 341 815 341C820 341 826 386 826 414C826 494 774 535 733 535C690 535 639 505 623 474C619 467 615 464 605 464C600 464 592 465 582 467L568 469L567 491V496C567 514 568 518 572 518C590 518 607 488 615 488C617 488 618 489 618 492C618 500 619 507 620 514C620 522 621 530 621 534C621 543 619 547 615 547C606 547 604 533 585 533C577 533 573 534 573 537C573 544 590 560 598 560C604 560 611 565 611 568C611 574 592 579 564 579C543 579 522 575 522 569C522 566 558 552 558 535C558 533 555 533 549 533C532 533 521 553 516 553C512 553 510 546 510 523C510 499 511 494 515 494C521 494 524 518 547 518H555V467H508L506 489C505 502 504 513 504 521V536C504 555 501 556 469 557C464 557 457 558 449 558L358 562C348 562 339 563 332 563C320 563 313 562 312 561C309 558 307 548 306 513L305 469L272 468H254C234 468 234 470 234 497C234 506 234 517 236 526C240 547 266 545 266 555C266 561 252 561 239 562C225 563 211 564 211 569C211 576 224 591 253 620C279 646 352 724 499 724C542 724 585 717 590 713C598 706 648 697 709 651C730 635 765 601 765 596C765 586 798 563 818 502C834 454 843 415 843 376C843 332 833 289 812 234C796 190 785 178 755 147C690 81 621 32 492 32ZM169 551C172 551 191 585 191 585C191 586 191 587 189 587C188 587 188 586 187 586C183 586 174 593 174 597C174 598 180 601 184 601C192 601 190 595 194 595C202 595 216 617 216 617C216 621 215 622 212 622C206 622 192 613 181 613C159 613 165 658 157 658C152 658 146 639 146 635C146 629 156 633 156 614C156 609 154 609 144 609C139 609 138 610 138 615C138 619 137 623 135 623C132 623 114 588 114 582C114 579 116 578 118 578C121 578 123 579 125 582C127 586 153 596 159 596C160 596 170 588 170 572C170 566 166 558 166 554C166 552 167 551 169 551ZM844 509C845 509 846 511 846 516C846 526 883 547 886 547C890 547 892 543 895 543C896 543 898 544 898 548C898 553 891 568 886 568C880 568 874 554 867 554C862 554 854 567 854 571C854 574 862 579 865 579C868 579 870 575 873 575C875 575 876 578 876 581C876 593 866 606 859 606C857 606 856 605 856 602V596C856 592 854 590 849 586C829 574 826 567 822 567C817 567 813 575 808 575C806 575 805 574 805 572C805 566 821 541 824 539C827 537 839 509 844 509ZM840 537C832 537 828 541 828 546C828 555 840 561 845 561C852 561 855 550 855 548C855 543 848 537 840 537ZM269 137C261 137 233 157 228 167C218 187 155 253 155 377C155 475 193 551 200 551C201 551 206 548 211 544L221 537V457L255 450L256 368C258 177 259 171 269 167C270 167 283 159 283 150C283 143 273 137 269 137ZM488 208C475 208 473 209 473 226V288L450 289C429 289 415 292 406 292C394 292 392 285 392 249V214L367 213H360C351 213 343 213 341 215C340 216 338 234 338 252V260C338 287 337 291 315 291C311 291 306 290 299 290H272V306C272 318 271 327 271 334C271 359 274 357 274 361C274 367 272 377 272 409V450L295 451C320 452 321 453 321 478C321 489 321 492 340 492C404 492 406 489 406 482C406 469 387 457 387 453C387 451 406 447 422 447C437 447 439 452 439 455C439 462 420 465 420 480C420 486 428 487 434 487C458 487 455 465 464 465C468 465 470 471 470 494C470 510 469 527 467 527C459 527 453 503 432 503C424 503 420 504 420 507C420 514 435 530 439 530C442 530 444 532 444 534C444 538 418 541 402 541C391 541 387 538 387 536C387 532 407 527 407 515C407 506 396 505 377 505C369 505 361 506 351 506L319 508L320 526L322 545C323 546 331 546 344 546C369 546 413 545 454 543L492 541V526C492 514 491 504 491 495C491 470 493 458 495 456C499 454 509 453 522 453C530 453 540 454 551 454C582 454 618 452 633 438C633 438 707 358 707 351C707 345 701 338 701 330C701 320 713 307 726 307C739 307 759 323 759 340C759 352 751 360 736 360H732C723 360 721 363 699 386L666 424C654 437 633 456 633 461C633 468 654 492 666 501C681 511 700 518 727 520L746 522L768 508C789 495 812 474 812 411C812 382 806 351 794 332C786 320 780 310 776 302C769 290 765 283 758 283C756 283 754 283 751 284C745 287 667 289 608 289C572 289 543 288 543 286C543 285 541 284 539 284C533 284 531 274 531 260C531 249 533 235 533 226V224C533 210 532 208 493 208ZM729 320C722 320 715 328 715 335C715 341 721 347 732 347C743 347 747 343 747 337C747 330 738 320 729 320ZM731 170C722 170 718 172 708 183L695 194L727 225C743 240 758 254 760 254C761 254 780 245 780 223C780 212 772 170 731 170ZM146 132C152 130 148 135 148 139C148 150 176 172 188 172C191 172 194 169 197 169C198 169 199 169 199 171C199 178 183 201 183 207C183 210 167 234 165 234C162 234 150 225 150 222C150 216 180 212 180 194C180 186 172 179 166 179C164 179 162 181 162 184C162 185 167 192 167 195C167 198 166 199 162 199C155 199 139 183 139 179C139 178 141 177 142 177C145 177 148 178 151 178C154 178 156 178 156 175C156 172 150 165 142 165C136 165 126 170 126 174C126 178 133 189 133 195C133 198 132 200 129 200C124 200 111 192 111 187C111 176 140 133 146 132ZM656 195C646 195 637 201 637 208C637 212 641 218 648 218C655 218 674 208 674 203C674 198 662 195 656 195ZM844 113C847 113 886 168 886 171C886 171 885 172 884 172C882 172 881 169 875 169C864 169 833 189 833 193C833 195 839 200 839 204C839 207 836 209 832 209C829 209 821 198 813 186C807 177 800 168 796 164C792 160 789 156 789 151C789 146 796 129 800 129C808 129 806 178 823 178C829 178 837 173 837 170C837 164 819 162 819 157C819 155 830 146 837 146C839 146 840 147 840 149C840 151 838 151 838 154C838 159 843 167 846 167C848 167 849 165 849 163C849 155 858 158 858 151C858 134 825 129 825 125C825 123 840 113 844 113ZM451 -60H481L479 -12L487 -20C492 -26 496 -32 500 -37C508 -49 514 -58 530 -58C536 -58 539 -57 539 -55C539 -47 528 -56 528 -34V-22L529 1C533 2 548 4 548 9C548 11 544 13 535 13C517 13 513 8 513 5C513 1 519 5 519 -16C519 -22 519 -27 517 -27C512 -27 487 11 477 11C473 11 473 5 473 -17C472 -43 472 -44 462 -52Z" fill="#f59e0b" stroke="none"/>
  </g>
</svg>