<svg xmlns="http://www.w3.org/2000/svg" viewBox="0 -122 1000 1001">
  <g transform="translate(0, 757) scale(1, -1)">
    <path d="M507 -92C698 -92 816 33 837 50C863 72 919 159 937 208C954 256 954 255 967 350C969 360 970 372 970 385C970 485 918 604 896 633L870 665C865 671 861 676 858 681C828 719 820 729 749 778C725 794 645 828 611 836C579 844 527 849 483 849C462 849 442 848 429 845C393 839 307 811 279 795C220 762 143 695 114 651C78 597 51 524 51 524C40 510 30 427 30 367C30 349 31 333 33 321L39 291C44 268 55 230 67 202C79 175 82 162 126 99C156 57 226 1 226 1C236 -13 302 -44 306 -47C316 -57 410 -92 507 -92ZM509 -83C471 -83 373 -67 362 -59C362 -59 295 -38 252 -8C157 60 101 140 84 184C61 242 39 289 39 376C39 489 84 629 187 715C187 715 253 777 313 800C440 849 455 832 463 840C463 841 468 841 476 841C506 841 586 834 634 820C654 814 739 774 754 763L788 737C821 712 855 673 895 610C942 536 957 456 957 383C957 280 926 194 907 165L886 132C843 62 797 18 726 -21C676 -49 627 -68 608 -68C608 -68 557 -83 509 -83ZM500 -79C555 -79 700 -60 818 52C840 72 877 118 877 124C877 129 954 228 954 391C954 445 939 566 827 693L812 711C801 725 739 769 735 769C734 769 727 773 719 777C708 784 694 790 681 795L656 807C607 829 539 834 491 834C461 834 439 832 438 831C362 818 292 790 247 758C215 734 166 693 150 673C100 614 74 549 67 523L59 496C49 461 46 438 46 382C46 339 46 301 64 252L82 203C86 190 92 175 94 172C100 161 142 97 149 88C163 70 192 43 212 28L243 4C267 -15 325 -44 359 -55C382 -62 486 -79 500 -79ZM507 -64C472 -64 432 -59 379 -48C354 -43 214 -1 114 161C106 175 72 259 67 279C62 299 55 359 55 376C55 413 69 501 78 521C82 528 115 622 177 683C222 727 282 770 314 782C393 811 435 821 490 821C573 821 642 806 670 787C682 787 751 746 779 723C824 687 876 615 907 549C921 519 940 440 940 380C940 297 914 204 881 153L859 121C831 78 737 -11 655 -36C598 -54 557 -64 507 -64ZM529 738C540 738 547 740 547 742C547 748 531 737 531 784C531 812 540 808 540 811C540 815 528 817 519 817C510 817 503 816 503 813C503 807 517 810 517 797C517 782 514 782 503 782H488L489 793C490 807 498 809 498 812C498 816 479 817 475 817C468 817 462 816 462 813C462 807 475 815 475 765C475 754 462 746 462 742C462 740 466 739 479 739C487 739 501 739 501 742C501 745 487 752 487 761C487 769 495 772 505 772C515 772 520 769 520 758C520 747 509 747 509 743C509 740 516 738 529 738ZM503 20C563 20 645 44 696 79C744 112 793 167 819 218C842 263 857 335 857 387C857 417 840 528 788 589C731 657 704 673 684 685C676 689 669 694 661 700C640 719 565 736 493 736C455 736 417 732 388 720L360 709C316 692 284 671 253 640C145 532 144 423 144 384V382C144 283 171 237 193 201C198 191 204 182 208 173C213 163 275 92 345 59L383 41C391 37 468 20 503 20ZM746 142V236C746 282 745 319 744 320C743 321 723 322 699 323H656V439H702C734 439 748 440 750 442C752 444 753 472 753 513V525L752 603L663 605C633 606 605 607 587 607C576 607 568 606 566 606C560 604 560 604 559 558C558 526 556 510 553 507C550 503 543 502 517 502C492 502 483 503 483 506C483 508 482 522 482 535V562H492C503 562 518 549 523 535C524 532 526 529 529 529H531C537 530 537 546 537 590C537 606 536 607 532 607C519 607 522 577 497 577H493L482 578L481 594V601C481 609 482 609 486 611C495 614 500 625 508 625C511 625 519 628 519 633C519 640 509 645 465 645C442 645 426 643 426 635C426 629 469 617 469 591C469 582 462 580 457 580C447 580 438 587 438 596C438 606 434 612 428 612C420 612 419 602 419 572V550C419 536 420 529 424 529C432 529 436 538 439 546C443 555 447 565 457 565C469 565 470 562 470 553C470 547 469 536 467 521L466 505H427C408 505 404 507 404 527C404 538 405 561 405 583C405 600 404 605 402 606C396 607 343 609 306 609C287 609 272 608 271 608C267 605 267 572 266 541C266 521 265 502 264 494C263 491 263 489 263 487C263 477 270 477 284 477C294 476 308 476 325 472L324 396C323 350 321 318 319 316C312 307 302 281 291 253C273 208 254 157 240 157C237 157 234 159 231 163C231 163 183 241 172 273C159 310 156 325 156 366C156 458 168 499 216 572C242 612 279 649 316 669C362 694 373 699 376 699C380 699 423 725 498 725C625 725 676 672 686 666C797 592 831 485 831 469C831 456 834 462 834 457C834 455 833 454 833 452C833 451 833 450 834 449C840 442 846 397 846 365C846 358 845 350 844 345L838 311C833 283 817 239 807 222L788 190C782 181 771 166 762 157ZM199 586C202 586 203 589 205 594C213 610 228 618 228 628C228 635 214 649 205 649C200 649 193 645 186 642C179 638 172 634 167 634C161 634 160 639 160 642C160 648 169 653 179 653C183 653 185 652 188 652C192 652 195 654 195 658C195 664 181 676 178 676C174 676 173 668 159 655C150 647 146 641 146 635C146 628 154 612 166 612C174 612 198 630 211 630C213 630 214 629 214 626C214 620 207 609 194 609C188 609 186 609 186 605C186 600 195 586 199 586ZM810 578C811 578 812 579 812 582V589C812 595 817 608 823 622C828 636 834 650 834 657C834 660 833 663 828 663C810 663 778 639 773 639C768 639 759 645 755 645C753 645 752 644 752 642C752 635 771 617 775 617C782 617 779 632 786 632C792 632 799 619 799 612C799 609 798 608 796 608C794 608 788 611 785 611C783 611 782 610 782 609C782 604 802 578 810 578ZM806 630C803 630 799 635 799 636C799 638 812 648 815 648C815 645 811 630 806 630ZM395 139 396 219C396 312 398 302 398 312C398 319 391 321 365 322L339 323V403C339 457 337 484 335 486C333 488 320 490 307 491C283 492 278 493 278 507C278 516 280 530 280 555V599L294 597C302 595 327 594 350 593L391 592L390 558C389 515 385 509 385 504C385 494 388 487 534 487C566 487 570 490 570 501V514C570 526 574 519 574 560V592H609C627 592 648 591 670 591C693 590 716 589 736 589C738 589 740 568 740 539C740 528 740 516 739 504L738 458L712 456H695C673 456 655 458 648 458C645 458 643 458 643 350C643 328 643 312 644 311C646 308 658 307 688 307C711 307 730 306 730 305C732 302 733 255 733 212V182C733 143 731 139 705 139C703 139 628 141 625 144C623 145 622 154 622 171C622 188 623 200 623 212C623 234 620 234 605 234H602C585 234 582 239 578 239C575 239 574 235 567 235C563 235 558 237 550 237C542 237 532 235 521 229V187C521 163 520 144 519 142C518 141 489 140 456 140ZM328 516C331 516 338 518 340 518C340 518 365 526 365 541C365 556 352 576 339 576C334 576 301 567 301 548C301 533 315 516 328 516ZM666 506C673 506 698 516 698 538C698 554 687 564 668 564C652 564 640 555 640 547C640 540 635 538 635 536C635 533 640 532 640 526C641 519 657 506 666 506ZM333 531C323 531 315 536 315 544C315 554 327 562 336 562C347 562 349 554 349 546C349 537 347 531 333 531ZM670 520C663 520 654 530 654 539C654 547 669 553 673 553C675 553 685 546 685 536C685 527 679 520 670 520ZM142 276C145 276 146 280 146 286C146 300 140 318 136 318C132 318 134 307 125 307C120 307 113 314 113 320C113 329 123 334 126 334C129 334 130 331 133 331C135 331 136 335 136 344C136 359 134 367 130 367C126 367 124 362 124 358C124 355 114 348 102 340C87 329 69 317 69 309C69 302 81 301 95 300C111 298 129 296 134 286C137 279 140 276 142 276ZM884 269C885 269 886 270 886 271C886 280 868 291 868 304C868 313 871 314 884 314H899C922 314 910 301 917 301C921 301 924 319 924 330C924 334 923 336 922 336C917 336 919 330 896 330C867 330 868 340 864 340C862 340 857 296 857 284C857 275 884 269 884 269ZM97 310C91 310 88 312 88 313C88 316 95 320 100 320C104 320 105 318 105 314C105 312 103 310 97 310ZM506 34C421 34 347 70 347 70C342 71 341 91 341 114V156C341 185 340 192 335 192C326 192 334 144 285 144H278C264 144 268 141 261 141C259 141 257 142 257 143C257 145 259 147 262 149C270 156 268 168 276 180C281 188 292 215 303 241C314 269 325 297 330 302C333 305 351 309 363 309C380 309 380 307 380 263V256C380 223 379 179 379 151C379 139 379 129 380 127C382 125 421 124 459 124C495 124 529 125 530 127C531 128 532 151 533 176V222L566 221C584 221 601 220 603 220C605 220 606 209 606 177C606 143 607 133 611 130C614 128 624 127 634 127H641C664 127 644 124 670 124C691 124 726 127 731 127C732 127 733 127 733 126C733 126 647 34 506 34ZM325 82C323 82 268 125 268 126C268 127 275 128 284 129H301L312 112C321 99 326 88 326 84C326 82 326 82 325 82ZM704 -2C713 -2 749 12 749 21C749 23 747 25 744 25C741 25 738 23 736 23C729 23 710 59 710 62C710 64 715 68 715 72C715 74 714 76 712 76C708 76 682 59 682 54C682 53 683 52 685 52C687 52 689 53 692 53C700 53 702 44 702 41C702 34 686 28 686 14C686 5 692 -2 704 -2ZM335 -17C338 -17 339 -16 339 -14C339 -12 338 -11 338 -10C338 0 351 28 367 30C373 31 376 33 376 35C376 39 354 51 349 51C347 51 347 51 347 49C347 47 348 45 348 42C348 36 342 28 334 28C330 28 323 32 323 39C323 45 329 52 331 52C333 52 333 53 333 53C333 58 316 69 310 69C308 69 307 69 307 68C307 65 311 63 311 60C311 52 301 21 284 21C280 21 277 18 277 16C277 14 279 12 282 11C292 7 301 -2 305 -2C306 -2 307 -1 307 1C307 4 306 7 306 10C306 18 310 23 316 23C321 23 329 20 329 15C329 13 328 10 328 6C328 1 311 0 311 -4C311 -9 331 -17 335 -17ZM708 7C702 7 697 11 697 17C697 22 701 29 707 29C714 29 720 23 720 16C720 9 713 7 708 7Z" fill="#f59e0b" stroke="none"/>
  </g>
</svg>