<svg xmlns="http://www.w3.org/2000/svg" viewBox="-50 -50 1100 1100">
  <g transform="translate(0, 1000) scale(1, -1)">
    <path d="M487 -91C521 -91 577 -87 594 -83L621 -76C659 -65 744 -25 773 -5C814 25 856 67 879 101L893 121C913 151 940 208 945 232C946 239 948 247 950 256C957 288 967 332 967 382C967 487 920 596 883 647C767 807 626 829 575 842C563 845 538 847 511 847H498C443 847 312 842 174 717C130 676 100 631 62 547C35 487 33 456 33 381C33 316 36 299 51 251C67 199 80 168 101 132C111 114 191 11 266 -27C353 -72 425 -91 487 -91ZM491 -83C357 -83 253 -11 248 -11C240 -11 163 64 137 96C61 190 40 307 40 356C40 449 51 547 138 664C161 695 216 754 313 799C374 827 447 835 505 835C614 835 710 789 721 781L748 763C833 705 907 623 936 511C952 446 957 410 957 379C957 354 954 332 949 303L946 280C937 210 906 162 884 127C879 119 874 112 870 105C860 87 797 24 772 5C737 -21 641 -65 608 -70C604 -70 559 -83 491 -83ZM497 -76H528C581 -76 570 -71 581 -71C594 -71 649 -58 705 -29L734 -14C782 11 844 70 879 127C922 195 937 237 947 323C950 345 952 363 952 382C952 418 946 451 933 503C913 579 880 633 818 698C760 757 705 790 628 812C576 826 530 831 494 831C252 831 121 643 121 633C121 629 45 539 45 381C45 296 66 206 117 128C142 91 225 7 256 -11C361 -72 437 -76 497 -76ZM488 -63C422 -63 410 -59 377 -48C370 -45 363 -43 354 -40C324 -30 257 3 254 9C253 11 251 13 248 13C246 13 244 14 244 16C244 18 242 19 240 19C233 19 229 31 225 31C221 31 157 94 157 98C157 102 143 110 143 116C143 122 133 121 133 128C133 131 132 133 130 133C129 133 127 135 127 138C127 140 126 142 124 142C123 142 121 144 121 146C121 151 58 247 58 354C58 497 86 545 117 603C144 652 176 683 180 689C188 701 301 778 309 778C312 778 372 818 508 818C572 818 564 811 574 811C582 811 642 794 667 785C719 767 812 701 860 628L875 606C908 558 938 459 938 379C938 293 911 209 905 203C899 197 896 178 893 178C892 178 871 143 871 141C871 138 870 136 868 136C865 136 860 118 856 118C854 118 854 116 854 113C854 106 845 109 845 101C845 98 773 18 735 -1C725 -7 713 -11 712 -11C708 -11 701 -15 691 -20C662 -35 608 -63 519 -63ZM543 747C549 747 552 748 552 749C552 756 541 745 541 779C541 801 542 803 548 805C551 806 552 807 552 808C552 810 543 812 541 812C521 812 511 778 504 778C503 778 502 778 502 780C502 784 478 811 474 811C469 810 460 809 460 805C460 804 462 802 466 802C472 802 473 800 473 782C473 763 472 762 463 759C457 757 454 754 454 752C454 750 458 748 464 748C466 748 469 749 472 749L483 751L482 766V771C482 776 482 780 483 780C486 780 498 757 506 757C508 757 509 759 510 763C513 773 524 793 526 793C527 793 528 789 528 785C528 758 516 755 516 752C516 749 532 747 543 747ZM514 21C539 21 565 22 588 27C667 46 744 109 767 138C822 206 835 234 850 315C854 339 856 360 856 381C856 440 831 557 730 649C673 702 569 733 539 733C529 733 540 737 510 737C462 737 344 726 256 640C218 603 157 516 157 486C157 483 155 474 153 467C141 431 145 357 143 354C142 353 142 352 142 350C142 341 148 321 148 310C148 294 180 213 191 199C193 196 200 186 205 176C250 92 383 39 383 39C387 33 449 21 514 21ZM272 122C263 122 236 151 224 167C217 176 207 196 183 244C162 287 153 333 153 375C153 458 182 526 187 529C189 530 193 538 198 546C203 556 209 566 213 570L234 598C261 631 293 659 323 676L354 692C370 700 445 721 492 721C563 721 652 697 712 648C735 630 787 570 795 554C799 545 804 538 805 537C808 534 838 445 838 440C838 438 836 436 833 436C820 432 832 385 798 385C782 385 780 383 778 383C775 383 775 388 775 404C775 448 794 430 794 456C794 469 785 481 771 481C758 481 743 469 743 454C743 437 762 431 762 421C762 417 759 413 759 402C759 400 760 397 760 394C760 388 758 385 748 385C743 385 736 386 726 388L714 390V442C714 484 716 496 716 501C716 507 713 509 643 509H571C555 509 544 509 544 510C544 514 556 525 556 538C556 550 547 559 530 559C509 559 511 551 506 551C501 551 495 558 483 558C467 558 448 544 448 527C448 514 454 515 454 511C454 511 434 510 408 510C378 510 339 511 320 514V538C321 570 333 595 348 595C354 595 364 604 364 609C364 614 354 616 344 616C325 616 331 612 313 612C306 612 296 613 287 613C265 613 258 611 258 604C258 600 263 595 271 595C281 595 306 586 306 538C306 514 303 512 279 509C253 505 168 484 168 382C168 377 169 372 169 368C169 355 165 359 165 352C165 335 186 296 206 277C242 244 294 242 301 236C303 235 305 221 305 202C305 133 277 122 272 122ZM203 596C204 596 205 597 205 599L204 606C204 616 223 611 223 631C223 636 221 642 216 648L208 655L188 651C181 649 173 647 169 647C165 647 163 651 163 652C163 658 169 662 172 662C177 662 181 656 184 656C186 656 188 660 188 663C188 669 183 675 178 675C176 675 154 660 154 648C154 640 165 628 172 628C179 628 194 634 204 634C209 634 211 633 211 630C211 616 185 623 185 613C185 608 200 596 203 596ZM819 557C821 557 823 561 824 568C825 572 829 581 833 591C840 607 848 627 848 637C848 641 846 643 843 643C843 643 786 620 783 620C779 620 776 624 772 624C771 624 771 623 771 622C771 615 786 596 791 596C792 596 793 596 793 598C793 602 792 604 792 607C792 611 799 614 804 614C812 614 818 608 818 600C818 593 812 587 809 587C804 587 799 595 798 595C797 595 796 593 796 590C796 584 813 557 819 557ZM820 618C820 621 824 625 829 625C833 625 833 625 828 620C824 616 820 614 820 618ZM522 515C516 515 512 522 512 527C512 536 518 547 526 547C532 547 543 541 543 532C543 524 531 515 522 515ZM481 511C476 511 465 520 465 529C465 537 472 544 481 544C490 544 495 536 495 528C495 520 488 511 481 511ZM504 508C498 508 502 514 504 514C505 514 510 508 504 508ZM427 255C380 255 320 257 318 260C318 261 317 282 317 312C317 380 319 489 320 494C321 495 353 497 389 497C430 497 477 495 490 490L491 423V400C491 366 490 328 489 307L486 257L467 255ZM298 260C285 260 224 265 191 328C187 336 186 351 186 367C186 393 190 423 198 439C216 473 271 496 294 496C304 496 305 496 305 456V427C305 359 303 262 300 260ZM655 253C641 253 624 254 607 255C587 256 566 257 544 257C529 257 524 256 521 256C510 256 509 258 507 263C507 266 506 340 506 403C506 450 506 492 507 493C508 494 528 494 556 494C611 494 695 492 697 491L699 374V259C689 255 674 253 655 253ZM769 442C762 442 758 448 758 453C758 460 766 467 772 467C777 467 781 464 781 455C781 448 774 442 769 442ZM357 269C365 269 385 274 385 292C385 309 376 313 376 318C376 321 377 326 381 336L396 377C403 398 407 404 410 404C414 404 418 399 418 397C418 392 443 345 443 328C443 318 428 310 428 297C428 286 445 270 454 270C467 270 480 281 480 299C480 313 466 310 453 345C438 385 429 397 429 404C429 410 438 415 438 434C438 454 419 460 409 460C396 460 381 451 381 437C381 432 383 427 386 421L392 409L384 384C373 352 369 343 367 343C366 343 364 339 363 333C362 327 356 321 351 315C344 308 337 301 337 292C337 283 350 269 357 269ZM561 273C570 273 580 285 580 293C580 304 569 312 569 318C569 325 575 338 581 351C588 367 596 383 596 393C596 400 598 402 603 402C619 402 630 328 630 326C630 318 622 318 622 305C622 290 635 274 650 274C669 274 673 291 673 306C673 319 666 322 659 326C652 329 644 332 642 347C639 362 636 374 632 384C629 393 627 400 627 406C627 416 634 418 634 430C634 436 632 457 608 457C590 457 580 445 580 432C580 420 585 418 585 410C585 405 583 400 579 388C558 331 550 327 542 322C538 320 534 318 529 307L523 295L531 286C538 278 552 273 561 273ZM412 422C408 422 404 426 396 433L404 441C410 445 414 447 416 447C420 447 422 443 422 438C422 431 418 422 412 422ZM610 419C604 419 596 429 596 437C596 443 600 445 604 445C612 445 619 442 619 432C619 426 616 419 610 419ZM842 340C841 340 840 349 840 359C840 371 841 418 842 418C843 418 845 390 845 367C845 356 844 340 842 340ZM490 30C464 30 385 49 382 52L364 61C336 75 287 99 286 104C286 105 303 106 322 106H328C354 106 360 107 360 114C360 118 357 120 350 122C335 125 332 128 324 145C318 156 317 165 317 176C317 188 319 202 319 227V241L403 239C414 239 424 238 432 238C474 237 488 236 490 234C491 234 492 229 492 217V193C492 158 491 157 479 157H477C450 157 445 178 445 178C445 183 443 186 441 186C437 186 433 178 433 129V122C433 117 434 112 438 112C448 112 438 139 475 139H490V118C490 82 485 103 470 84C468 82 467 78 467 74C467 42 488 39 503 39C523 39 531 47 531 64C531 84 526 87 520 90C515 94 509 97 507 118L506 139H521C534 139 535 139 543 126C551 112 559 105 562 105C564 105 565 112 565 146C565 178 564 184 561 184C554 184 551 160 520 155L504 153L506 174C508 185 508 204 508 216V237L676 236C708 236 721 238 721 249C721 259 715 256 715 345V360C715 366 716 366 722 366C731 366 749 364 753 364C759 364 760 362 760 347V345C760 315 739 317 739 304C739 298 755 276 770 276C780 276 789 289 789 302C789 324 775 311 775 345V364H791C811 364 818 359 822 342C828 319 837 325 837 313C837 291 820 245 803 211C774 155 709 103 709 103C700 90 625 52 592 43C564 36 519 30 490 30ZM144 267 142 280C139 295 138 298 133 298C130 298 133 291 133 289C133 287 132 286 130 286C128 286 115 289 115 300C115 308 111 308 111 310C111 313 115 318 120 318C125 318 130 312 133 312C135 312 136 315 136 319C136 336 131 348 128 348C127 348 126 347 125 344C124 340 106 326 90 314C78 305 67 297 67 295C67 293 77 291 90 288C106 284 126 280 135 274ZM875 265C881 265 884 267 884 269C884 276 868 288 868 297C868 305 880 307 896 307C914 307 917 292 920 292C921 292 927 320 927 328V330C925 330 918 324 902 324C870 324 875 336 868 336C860 336 857 287 857 281C857 268 862 265 875 265ZM650 287C645 287 638 295 638 300C638 306 646 316 651 316C656 316 663 309 663 302C663 294 657 287 650 287ZM767 292C760 292 757 297 757 303C757 308 760 313 767 313C768 313 777 310 777 303C777 298 771 292 767 292ZM560 285C552 285 542 292 542 299C542 305 549 309 554 309C562 309 567 301 567 294C567 289 564 285 560 285ZM460 283C454 283 443 290 443 295C443 300 449 307 458 307C464 307 469 304 469 294C469 287 466 283 460 283ZM105 292C103 292 95 295 95 298C95 301 102 304 104 304C105 304 106 304 106 303C106 301 108 296 108 295C108 293 107 292 105 292ZM364 280C363 280 351 284 351 293C351 300 357 304 364 304C370 304 376 301 376 295C376 289 369 280 364 280ZM715 8C739 8 757 25 757 31C757 32 757 33 755 33C753 33 752 32 749 32C741 32 733 48 733 50C733 54 721 67 721 73C721 76 725 79 725 83C725 84 724 84 723 84C717 84 697 68 697 68C697 65 715 59 715 55C715 47 695 39 695 26C695 20 704 8 715 8ZM500 51C491 51 483 57 483 68C483 74 488 81 499 81C509 81 517 78 517 67C517 57 509 51 500 51ZM318 -11C320 -11 321 -10 321 -7C321 -5 320 -3 320 -1C320 10 334 36 349 37C354 37 357 38 357 40C357 46 340 54 335 54C328 54 333 37 321 37C316 37 312 43 312 47C312 51 315 54 319 54C320 54 321 53 323 53C324 53 325 53 325 54C325 58 312 72 304 72C301 72 300 71 300 69C300 67 303 63 303 63C303 49 271 25 271 18C271 14 278 7 284 7C287 7 289 9 289 12C289 20 299 34 305 34C312 34 314 30 314 26C314 15 299 6 299 3C299 2 315 -11 318 -11ZM716 16C713 16 710 23 710 28C710 37 717 39 718 39C722 39 726 34 733 26C730 24 721 16 716 16Z" fill="#f59e0b" stroke="none"/>
  </g>
</svg>