<svg xmlns="http://www.w3.org/2000/svg" viewBox="-50 -50 1100 1100">
  <g transform="translate(0, 1000) scale(1, -1)">
    <path d="M477 -92C514 -92 559 -89 579 -85L615 -77C658 -69 769 -31 865 88C931 170 954 238 967 335C969 354 971 364 971 376C971 421 952 514 942 530C941 532 913 613 866 671C848 693 804 737 786 751C753 776 715 798 675 816L653 825C648 827 643 829 640 829C638 829 635 830 633 832C628 837 565 850 494 850C445 850 393 844 349 827C212 774 117 692 64 555C64 555 41 501 41 481C41 481 29 440 29 378C29 191 135 47 239 -17L262 -31C335 -76 409 -92 477 -92ZM492 -85C262 -85 41 101 41 374C41 491 83 608 161 692C178 710 230 756 246 765C338 820 425 841 501 841C613 841 705 797 766 753C799 729 854 676 868 654C922 574 959 494 959 382C959 324 950 249 915 180C801 -48 594 -85 492 -85ZM494 -80C744 -80 875 113 875 116C875 118 877 121 880 124C898 146 930 217 944 271C951 297 955 350 955 391C955 408 954 424 953 435C933 552 896 599 896 603C896 607 857 661 844 676C777 749 701 789 688 793C676 797 667 801 656 805C625 819 591 834 490 834C465 834 442 833 437 832L408 826C386 822 316 802 265 771C136 693 76 560 66 517C50 451 47 436 47 372C47 335 50 299 55 278C55 278 72 176 144 88C236 -26 366 -80 494 -80ZM499 -68C263 -68 61 119 61 365C61 462 72 524 132 623C145 644 185 691 207 710C286 779 357 806 459 821C463 821 470 822 479 822C507 822 555 819 574 816C775 781 944 596 944 377C944 139 745 -68 499 -68ZM476 748C485 748 491 749 491 752C491 755 482 754 482 763C482 766 483 772 489 772C499 772 490 748 521 748C544 748 548 764 548 764C548 766 547 766 545 766C536 766 527 756 520 756C512 756 507 763 507 771C507 781 518 785 518 797C518 807 512 814 484 814C462 814 456 809 456 806C456 804 458 802 462 802C465 802 467 791 467 779C467 750 458 756 458 752C458 750 465 748 476 748ZM493 785C487 785 484 790 484 795C484 800 487 805 493 805C499 805 501 802 501 794C501 787 500 785 493 785ZM496 19C519 19 541 20 554 22C696 45 856 174 856 374C856 597 682 735 504 735C485 735 467 734 450 734C307 734 144 592 144 381C144 365 144 350 146 334C158 167 302 43 436 23C449 21 474 19 496 19ZM157 397C156 397 156 400 156 403C156 405 161 563 308 663C328 676 346 688 348 688C351 688 354 690 355 692C359 697 425 724 502 724C694 724 802 568 823 500C826 490 829 484 832 478C836 469 839 462 840 448L842 432L825 465C805 505 782 528 746 547C717 562 683 573 668 573L657 572V480L639 479H632C625 479 619 480 619 481C619 492 618 499 618 504C618 523 637 524 637 541C637 556 617 566 612 566C606 566 583 556 583 539C583 520 604 523 604 494L605 480H559V523C559 560 558 566 554 566C554 566 417 562 415 561V555C415 550 415 542 416 533C416 521 417 509 417 498C417 473 415 472 387 472H385C358 472 350 474 350 484C350 488 354 498 354 531C354 553 350 556 324 556C273 556 235 554 232 551C230 550 229 528 229 505V461L203 437C175 410 160 402 160 400C160 399 159 397 157 397ZM673 210 675 222C676 225 676 232 676 239C676 248 676 258 675 268L673 304H653C647 304 643 303 639 303C622 303 621 309 621 353V461L647 463C670 464 675 464 675 472C675 478 671 490 671 515C671 534 672 556 674 556C679 556 705 550 724 540L735 534L737 446C738 404 738 347 738 309V229L720 222C710 218 695 214 688 213ZM609 524C604 524 593 533 593 536C593 539 602 549 611 549C619 549 625 544 625 538C625 530 614 524 609 524ZM477 209C432 209 432 209 432 214C432 217 435 222 435 224C435 227 431 228 431 249C431 256 432 263 432 272C432 295 427 296 402 296C386 296 385 296 385 304V328L386 358L396 351C404 345 409 343 413 343C427 343 428 366 465 366C472 366 480 365 491 363L489 333C487 294 489 293 481 290C470 287 463 278 463 270C463 260 475 244 490 244C517 244 523 258 523 268C523 288 507 283 507 308C507 314 508 321 508 332L510 367H530C569 367 551 351 575 351C598 351 599 370 599 378C599 400 581 405 574 405C570 405 567 403 561 396C551 385 550 385 528 385H506V429C506 478 521 457 521 480C521 492 509 503 495 503C484 503 467 494 467 481C467 475 470 468 478 461L488 451L491 385H463C414 385 436 397 417 397C403 397 390 383 388 383C386 383 385 408 385 425C385 440 386 452 387 453C388 454 396 455 405 455C431 457 431 457 431 502C431 523 432 541 433 543C435 546 442 546 454 546C467 546 484 545 500 545C522 545 526 548 533 548C543 548 543 542 543 535C543 524 546 524 546 520C546 516 543 512 543 494C543 462 546 463 577 462L605 461L606 435C607 402 608 359 608 332V315C608 301 605 305 579 303C553 302 548 302 548 290C548 282 550 270 550 248V244L549 209ZM208 380C180 380 176 381 176 387C177 391 224 435 237 444C247 451 247 453 247 511L248 538H338L336 458H348C368 456 371 457 371 439C371 438 370 384 369 383C369 383 354 382 336 382L302 381L304 427C306 467 307 475 312 479C314 483 316 487 316 492C316 499 312 514 297 514C280 514 266 501 266 492C266 472 287 498 287 415C287 400 286 384 282 381C281 380 258 380 234 380ZM753 487 751 501C749 508 749 514 749 519C749 524 750 526 752 526C760 526 794 490 794 489C794 487 784 487 773 487ZM295 482C289 482 281 485 281 492C281 497 285 501 291 501C296 501 306 496 306 489C306 485 301 482 295 482ZM495 466C487 466 479 475 479 479C479 483 488 492 495 492C501 492 506 485 506 478C506 471 501 466 495 466ZM825 437C825 437 799 442 791 442C783 442 781 443 781 449C781 463 791 480 798 480C803 480 825 438 825 437ZM759 439C752 439 752 440 752 458C752 471 752 476 755 476C755 476 768 475 768 453C768 445 766 439 759 439ZM691 335C697 335 703 341 712 353L737 385L729 398C721 410 695 439 692 439C686 439 646 396 646 385C646 379 680 335 691 335ZM877 343C878 343 882 347 886 351C890 355 900 359 910 363C924 369 939 375 939 382C939 389 927 395 914 402C900 409 884 417 884 427C884 432 879 438 875 438C872 438 872 433 872 413C872 404 872 397 873 397C873 397 880 401 887 401C893 401 898 398 898 388C898 377 894 370 889 370C880 370 882 385 878 385C876 385 875 377 875 364C875 353 876 343 877 343ZM787 334C783 334 781 348 781 387C781 422 782 431 786 431C792 431 794 413 794 386C794 344 793 334 787 334ZM810 337C804 337 804 366 804 387C804 407 805 427 808 427C815 427 817 414 817 377C817 346 817 337 810 337ZM755 338C754 338 754 346 754 358C754 365 753 373 753 382L751 426C768 425 771 426 771 410C771 340 766 338 763 338C759 337 755 337 755 338ZM692 352 662 387 676 401C683 407 688 414 688 416C688 417 689 418 690 418C692 418 718 399 718 386C718 380 713 373 704 363ZM829 342C828 342 826 351 826 375C826 400 828 412 830 412C833 412 836 401 836 385C836 365 832 342 829 342ZM130 316C133 316 134 318 134 322C134 327 133 349 128 349C125 349 115 340 97 340C94 340 93 341 93 341C93 346 125 358 125 361C125 363 116 368 105 373L87 382H103C129 382 120 370 127 370C129 370 131 376 131 388C131 401 129 406 126 406C117 406 124 394 97 394C82 394 80 395 78 401C77 405 74 409 72 409C70 409 67 405 67 394C67 382 71 377 90 368L102 361L88 354C76 347 71 340 71 331C71 326 73 317 76 317C78 317 79 318 80 323C81 330 86 331 109 331C127 331 119 316 130 316ZM912 380C908 380 904 383 904 388C904 392 905 394 907 394C907 394 921 391 921 386C921 383 915 380 912 380ZM576 365C568 365 561 372 561 380C561 387 565 391 574 391C587 391 590 380 590 376C590 369 583 365 576 365ZM413 359C405 359 400 365 400 371C400 377 404 382 412 382C423 382 423 377 423 370C423 362 422 359 413 359ZM333 206 289 207H260C243 207 243 207 243 211C243 223 244 238 245 252C245 263 246 272 246 278C246 299 241 303 222 318L190 345L173 361H226C255 361 280 362 281 363C283 363 284 351 284 315C284 263 267 283 267 260C267 246 283 235 295 235C303 235 319 247 319 264C319 276 300 280 300 294C300 301 302 312 302 338V364L369 362L370 331V318C370 296 367 295 353 295C334 295 335 289 334 247ZM499 31C426 31 354 53 300 94C259 124 198 194 188 225C188 225 155 306 155 350C155 353 155 355 156 355C159 355 187 328 193 321L228 289V229C228 203 229 192 230 192C232 190 251 190 274 190C338 190 350 190 350 208V277H382C409 277 414 276 414 256L413 214C413 192 420 191 462 191H510C559 191 564 193 564 224C564 234 563 244 563 257V276C563 286 565 287 578 287C581 287 585 286 590 286L611 285L610 270C609 259 606 253 603 253C595 253 588 268 582 268C578 268 577 261 577 245C577 225 578 223 584 223C587 223 590 224 590 226C590 229 599 239 604 239C607 239 610 236 610 226C610 214 603 202 596 202C594 202 593 200 593 198C593 192 599 191 615 191C637 191 643 192 643 197C643 201 641 205 637 205C630 205 623 217 623 227C623 234 625 237 629 237C637 237 643 223 648 223C651 223 652 228 652 237C652 256 650 270 647 271C646 271 644 270 644 266C644 262 636 253 630 253C626 253 623 257 623 271C623 285 623 285 634 287C640 288 646 289 649 289C661 289 663 281 663 255V220C663 198 663 193 676 193C681 193 687 194 691 196C714 205 791 216 824 281C831 296 836 304 838 304C839 304 839 303 839 302C839 264 742 31 499 31ZM754 235C753 235 753 236 753 238C753 243 754 252 754 263L756 289H779C795 289 803 290 803 293C803 294 782 313 782 320C782 321 785 322 800 322C814 322 822 327 825 327C827 327 827 326 827 325C827 292 768 235 754 235ZM757 300C756 303 753 309 753 314C753 320 758 321 763 321C767 321 770 320 770 318C770 314 760 303 757 300ZM492 255C484 255 476 260 476 268C476 274 482 282 491 282C499 282 507 275 507 267C507 260 500 255 492 255ZM295 247C289 247 280 255 280 260C280 267 287 271 294 271C298 271 307 269 307 261C307 255 301 247 295 247ZM488 -60C495 -60 502 -59 502 -57C502 -53 494 -55 494 -37C494 -23 499 -5 509 -5C519 -5 525 -23 525 -36C525 -51 515 -50 515 -56C515 -57 529 -58 541 -58C548 -58 554 -58 554 -56C554 -49 542 -49 542 -29C542 -9 532 7 512 7C508 7 504 6 499 5C491 3 481 -16 480 -28C479 -44 470 -55 470 -57C470 -58 478 -60 488 -60Z" fill="#f59e0b" stroke="none"/>
  </g>
</svg>