<svg xmlns="http://www.w3.org/2000/svg" viewBox="-50 -50 1100 1100">
  <g transform="translate(0, 1000) scale(1, -1)">
    <path d="M498 -93C751 -93 969 122 969 384C969 554 857 773 605 837C578 844 523 852 505 852H502L475 849C421 845 378 841 307 807C166 739 70 619 38 470C33 450 31 406 31 367C31 234 88 140 146 70C192 14 244 -22 344 -67C371 -80 444 -93 498 -93ZM496 -83C310 -83 127 31 57 244C45 279 38 332 38 382C38 534 114 670 243 762C244 763 355 840 487 840C758 840 922 642 953 457C957 438 959 401 959 367C959 343 958 320 955 310C938 232 916 150 832 63C738 -35 616 -83 496 -83ZM492 -78C602 -78 694 -36 723 -17L754 2C836 55 891 142 907 179L920 208C930 230 955 309 955 382C955 397 954 412 952 426C933 535 923 560 863 651C841 685 796 727 743 763C689 800 603 829 536 833L502 835H483C338 835 223 741 223 741C218 741 174 698 151 672C86 596 70 536 54 475L48 451C46 442 44 411 44 380C44 288 66 230 66 230C69 226 111 84 248 -4C299 -36 387 -78 492 -78ZM497 -63C229 -63 54 152 54 378C54 494 95 568 121 614C138 645 147 655 174 682C218 726 285 774 294 774C296 774 376 822 496 822C726 822 849 660 879 609C932 518 942 424 942 366C942 271 899 182 863 127C846 101 800 53 774 33L743 10C682 -35 592 -63 497 -63ZM486 747C494 747 499 748 499 750C499 757 486 750 486 772C486 778 488 782 490 782C495 782 498 769 503 769C507 769 509 774 509 781C509 788 507 798 504 798C500 798 501 792 492 792C489 792 486 793 486 795C486 803 491 807 500 807C519 807 515 789 522 789C524 789 525 793 525 801V813H492C469 813 460 812 460 810C460 800 476 814 476 786C476 761 473 757 466 756C462 756 460 755 460 753C460 752 464 747 486 747ZM500 19C647 19 855 140 855 379C855 532 774 601 774 606C774 610 673 736 514 736H502C459 736 422 731 412 728L382 718C361 712 234 665 169 519C160 499 143 441 143 372C143 158 318 19 500 19ZM666 277C655 277 647 277 647 278C646 280 646 318 646 360C646 417 645 433 644 446C643 454 643 461 643 479V502C643 535 641 543 633 543C631 543 630 543 629 542C626 542 615 527 601 508L585 486C563 455 540 423 534 420C534 420 502 439 502 461C502 478 492 489 478 489C449 489 448 458 448 454C448 442 465 436 472 436C477 436 479 438 483 438C497 438 522 406 522 403C522 402 513 390 502 375C482 349 456 314 453 305C451 301 445 297 442 297C438 297 438 297 438 424V549C433 550 430 552 427 552C419 552 411 540 372 479C351 446 333 421 332 421C329 424 283 505 283 514C283 517 285 519 288 519C296 519 306 527 306 533C306 538 299 540 265 540C218 540 223 546 219 546C209 546 191 530 188 530V532C188 537 219 581 237 603C302 678 375 701 409 712C421 716 428 718 430 721L494 726H503C543 726 652 711 743 619C764 599 796 559 796 554C796 551 812 525 812 521C812 519 809 519 791 519H778C741 519 730 517 730 509C730 504 738 501 742 501C744 501 768 491 770 470L771 457L758 456H753C737 456 728 482 719 482C716 482 715 464 715 451C715 424 717 418 720 418C727 418 736 441 757 441H769L768 280H754C750 280 741 280 729 279C710 278 684 277 666 277ZM178 587C184 587 202 605 202 612C202 613 201 614 199 614C197 614 192 611 188 611C181 611 176 621 176 623C176 625 177 626 180 626C187 626 204 618 207 618C217 618 223 625 223 636C223 642 222 645 220 645C215 645 215 627 207 627C207 627 187 629 187 647C187 657 181 666 172 666C158 666 131 629 131 619C131 617 132 616 132 616C135 616 142 626 146 626C153 626 179 603 179 597C179 594 176 592 176 589C176 588 177 587 178 587ZM805 598C822 598 844 613 844 637C844 651 835 657 816 657C809 657 780 652 780 624C780 606 792 598 805 598ZM165 632C163 632 150 637 150 638C150 640 161 650 168 650C173 650 174 647 174 644C174 638 170 632 165 632ZM802 606C795 606 792 611 792 618C792 634 812 647 825 647C831 647 833 645 833 640C833 629 814 606 802 606ZM196 519C195 519 194 519 194 520C194 523 203 534 212 534C215 534 217 532 217 530C217 526 201 519 196 519ZM204 268C196 268 191 271 191 276C191 295 220 314 220 319C220 320 219 320 216 320C209 320 191 308 181 308C177 308 175 310 175 313C175 329 214 347 214 353C214 356 214 357 212 357C206 357 192 347 184 347C180 347 179 348 179 351C179 359 193 368 205 376C214 382 223 388 223 392C223 393 223 393 221 393C215 393 195 381 188 381C187 381 185 381 185 382C185 396 226 415 226 421C226 422 225 423 221 423C216 423 198 411 190 411C188 411 187 412 187 415C187 421 200 430 212 439C221 445 229 451 229 454C229 457 229 458 228 458C224 458 199 442 190 442C188 442 187 442 187 444C187 461 231 474 231 480C231 482 231 483 229 483C222 483 203 470 192 470C190 470 189 471 189 472C189 477 199 483 209 489C219 494 229 500 229 505C229 505 229 506 227 506C220 506 202 493 188 493C187 493 185 493 185 495C185 505 223 518 223 523C223 523 225 524 227 524C232 524 246 521 253 517C266 510 318 399 318 399C318 397 302 372 280 340L242 282C238 276 218 268 204 268ZM424 273C408 275 410 270 383 320C369 346 357 368 357 370C357 376 344 386 344 401C344 405 346 411 351 418L380 462C398 491 418 522 421 522C423 522 424 466 424 398ZM468 273C450 273 445 274 445 274C445 277 494 341 496 344C532 390 531 393 535 393C539 393 561 375 561 367C561 363 558 357 558 351C558 336 568 330 580 330C595 330 611 339 611 355C611 364 600 381 593 381C590 381 588 379 584 379C579 379 571 382 560 394L544 408L552 418C552 419 567 438 583 460C590 470 598 481 605 490C616 504 624 515 624 516C624 519 625 522 626 522C627 522 627 513 627 484C628 476 628 467 628 456C628 433 628 403 629 363L631 276H604C586 276 567 275 549 275C518 274 488 273 468 273ZM500 33C416 33 355 63 355 63C350 63 153 160 153 372C153 453 174 504 178 504C179 504 180 503 180 500L179 489C179 487 179 485 180 485C182 485 183 482 183 476C183 450 176 447 176 444C176 440 183 437 183 431C183 426 176 422 176 415C176 408 183 403 183 399C183 393 175 393 175 382V378C175 368 167 359 167 350C167 340 179 339 179 335C179 330 166 321 166 311C166 298 182 300 182 289C182 285 179 280 179 275C179 266 195 252 216 252C247 252 251 265 282 313C290 326 297 336 303 345C319 369 325 379 329 379C331 379 342 356 352 335C359 319 366 305 368 302C374 295 374 292 374 290C374 285 380 286 380 281C380 275 356 270 356 261C356 253 364 252 369 252C381 252 407 255 473 255H494C548 255 557 257 565 258C571 259 575 260 596 260H631C632 221 633 197 633 184C633 167 632 164 627 163C617 160 604 149 604 133C604 122 612 106 636 106C660 106 673 129 673 140C673 157 647 164 647 170C647 172 649 170 649 195V218L647 261H667C741 262 772 264 777 269C781 273 782 310 783 347V369C783 403 783 432 785 437C785 439 790 441 795 441C812 441 810 414 823 414C825 414 825 429 825 447C825 475 825 480 821 480C813 480 813 456 787 456C784 456 783 458 783 463C783 478 807 505 816 505C827 505 843 441 843 385C843 188 684 33 500 33ZM476 447C467 447 460 456 460 462C460 469 468 474 480 474C487 474 492 472 492 463C492 454 483 447 476 447ZM583 342C576 342 570 347 570 356C570 363 580 368 588 368C596 368 601 363 601 356C601 345 589 342 583 342ZM933 294V316C933 348 907 351 898 351C881 351 862 330 862 322C862 319 864 318 864 317C864 314 858 313 858 310C858 306 874 301 884 301C887 301 889 302 889 304C889 311 877 312 877 319C877 325 884 329 896 329C911 329 922 327 922 318C922 309 910 304 910 300C910 298 913 298 922 296ZM95 271C104 271 142 281 142 304C142 309 139 330 111 330C80 330 67 310 67 296C67 276 91 271 95 271ZM89 285C82 285 76 289 76 295C76 305 98 314 114 314C128 314 132 308 132 306C132 300 107 285 89 285ZM641 117C631 117 623 129 623 129C626 129 620 135 620 137C620 144 631 151 642 151C651 151 658 143 658 137C658 133 651 117 641 117ZM699 -11C704 -11 705 -4 705 10V32C705 63 713 57 713 68C713 70 712 72 709 72C705 72 695 57 688 57C686 57 685 57 685 55C685 52 693 46 693 38C693 27 681 25 674 25C668 25 665 27 665 33C665 41 669 46 669 49C669 50 668 51 667 51C660 51 634 33 634 29C634 27 637 26 641 26C646 26 656 18 667 9C679 -1 692 -11 699 -11ZM330 -21C331 -21 332 -20 332 -19C332 -17 327 -14 327 -9C327 -6 329 -1 335 9C344 25 345 26 356 26C364 26 368 26 368 28C368 32 310 60 309 60C305 60 285 50 285 42C285 39 289 36 295 36C304 36 311 41 317 41C322 41 325 38 334 33L316 4C312 -4 298 -2 298 -7C298 -13 323 -21 330 -21ZM690 6C688 6 683 11 683 14C683 16 685 18 689 18C691 18 693 15 693 12C693 8 692 6 690 6Z" fill="#f59e0b" stroke="none"/>
  </g>
</svg>