<svg xmlns="http://www.w3.org/2000/svg" viewBox="-50 -50 1100 1100">
  <g transform="translate(0, 1000) scale(1, -1)">
    <path d="M489 -90C536 -90 595 -84 633 -72C660 -64 743 -21 772 -1C820 34 878 96 902 139C952 226 970 288 970 376V380C970 461 959 509 927 573C897 633 871 672 835 707C818 724 800 741 793 746L766 767C727 796 626 849 505 849C456 849 412 843 406 838C396 830 203 807 91 603C47 523 30 446 30 377C30 250 86 147 130 91C248 -57 410 -80 410 -80C426 -80 434 -90 489 -90ZM503 -80C371 -80 271 -21 248 -5L225 11C210 21 171 57 159 71C159 71 39 191 39 374C39 448 59 533 113 624C179 734 338 839 487 839C518 839 559 837 572 835C694 813 745 769 768 752C895 663 962 516 962 378C962 196 849 79 849 79C848 79 843 73 838 67C820 42 735 -19 692 -38C691 -38 619 -80 503 -80ZM510 -71C740 -71 956 122 956 381C956 621 763 834 505 834C235 834 46 609 46 377C46 237 113 141 113 141C113 138 120 129 146 95C201 22 312 -38 324 -38C331 -38 382 -71 510 -71ZM506 -61C417 -61 325 -35 249 15C212 39 115 128 84 229L71 270C62 298 59 332 59 368C59 440 74 517 100 565L116 596C189 734 346 823 507 823C585 823 664 802 735 756L768 735C781 727 827 681 845 659C887 608 944 520 944 379C944 240 875 122 800 54C779 35 727 -2 721 -2C713 -2 635 -61 506 -61ZM497 742C499 742 505 751 511 761C520 777 532 797 540 798C548 799 555 804 555 808C555 810 546 811 535 811C520 811 517 811 517 808C517 806 520 803 520 796C520 790 503 763 500 763C498 763 479 789 479 793C479 798 488 802 488 805C488 808 481 810 473 810C461 810 445 807 445 803C445 802 446 801 450 799C458 796 468 781 476 767C485 754 492 742 497 742ZM503 23C701 23 857 185 857 379C857 484 822 534 807 565C770 638 665 716 563 732C563 732 538 734 506 734C421 734 361 708 360 706C359 704 356 703 354 703C349 703 233 646 187 542L172 509C155 471 146 425 146 375C146 302 166 220 220 154C269 93 346 51 382 40C427 27 467 23 503 23ZM195 261C180 261 177 284 177 301C177 320 181 339 188 339C192 339 192 333 192 327C192 320 192 314 196 314C204 314 215 333 215 343V349C215 374 227 380 227 387C227 390 226 392 223 392C219 392 175 361 162 361C156 361 155 365 155 373V375C156 551 305 723 503 723C701 723 803 552 803 541C803 537 801 536 795 536C789 536 783 517 770 517C768 517 766 519 766 522C766 524 767 525 767 527C767 537 756 546 744 546C730 546 717 531 717 523C717 515 727 507 732 502L727 493C703 459 717 430 704 430C701 430 698 433 697 437C695 444 682 454 672 454C651 454 642 430 639 430V432C639 436 647 449 656 464C673 490 695 526 695 548C695 576 669 592 662 592C658 592 648 587 641 581C618 564 607 539 603 491C599 453 588 424 579 424C574 424 572 433 572 471C572 504 573 511 577 511C582 511 589 498 593 498C596 498 597 511 597 519C597 527 595 536 591 536C587 536 583 526 577 526C574 526 572 530 572 534C572 553 592 557 592 562C592 565 587 566 575 566H567L544 565V579C544 594 539 607 521 607C510 607 506 605 498 597C483 581 481 572 481 506C481 437 479 424 465 424H456L455 467C455 479 454 489 454 497C454 507 455 513 458 513C463 513 470 503 473 503C475 503 477 507 477 522C477 529 475 534 471 534C466 534 462 526 458 526C456 526 456 529 456 537C456 558 471 547 471 558C471 561 466 562 450 562H430L432 574C433 577 433 581 433 584C433 610 410 616 400 616C383 616 368 599 368 574V559H348C330 559 329 560 329 563V565C329 574 310 585 303 585C298 585 292 582 282 576C269 568 267 567 263 552C258 537 256 499 254 468C252 444 251 425 249 422C247 421 245 420 243 420C225 420 228 444 202 444C186 444 175 432 175 419C175 400 198 395 201 395C208 395 215 404 229 404C237 404 242 401 242 397C242 389 220 351 220 323C220 307 226 310 226 296C226 279 214 261 195 261ZM844 514C850 514 863 520 863 523C863 531 840 530 840 539C840 543 847 551 851 551C853 551 854 550 854 547C854 545 853 543 853 540C853 537 854 536 856 536C862 536 874 545 874 551C874 553 873 554 871 554C869 554 868 553 867 553C863 553 862 555 862 558C862 563 870 570 874 574C878 569 885 564 885 555C885 544 876 535 876 531C876 529 878 528 881 528C887 528 899 539 899 546C899 550 894 552 894 559C894 567 878 598 874 598C871 598 868 595 867 591C864 583 839 562 833 562C826 562 822 570 818 570C816 570 815 568 815 566C815 563 817 558 819 555C824 550 828 540 832 532C836 523 840 514 844 514ZM390 421C387 421 387 424 387 432C387 439 389 448 391 457C393 469 396 483 396 498C396 516 393 532 391 546C389 556 387 565 387 572C387 592 402 597 406 597C411 597 413 590 413 581C413 569 411 559 409 548C406 533 403 517 403 490C403 463 406 442 406 431C406 426 406 424 404 424C396 424 392 421 390 421ZM510 424C505 424 496 425 496 433C496 440 498 455 498 489V555L507 569C514 580 518 585 521 585C525 585 527 576 527 566C527 543 525 540 523 537C521 533 518 528 518 477V468C518 432 517 424 510 424ZM154 502C157 502 171 524 171 531C171 533 170 534 169 534C166 534 161 530 159 530C153 530 145 535 145 538C145 540 148 542 158 542C175 542 182 549 182 564C182 572 180 583 175 583C174 583 172 581 172 576C172 571 173 568 173 565C173 559 171 557 167 557C162 557 154 561 148 561C145 561 143 557 142 557C141 557 141 559 141 562C141 572 134 577 126 577C120 577 114 574 111 570C110 569 92 537 92 527C92 526 93 526 94 526C98 526 108 536 111 536C113 536 115 535 119 532C136 521 154 521 154 511C154 509 153 507 153 504C153 502 153 502 154 502ZM611 427C605 427 604 427 604 429C604 431 604 434 606 440C611 453 614 468 617 485C621 512 626 540 643 560C650 567 655 569 660 569C674 569 681 553 681 552C680 535 664 508 649 483C636 461 624 440 624 430C624 429 619 427 613 427ZM279 418C271 418 269 421 269 425V427C271 443 271 460 272 477C273 524 275 565 298 565C303 565 305 560 305 553C305 545 302 534 300 526C278 434 292 418 279 418ZM129 546C124 546 113 552 113 556C113 558 117 560 120 560C126 560 132 554 132 548C132 547 131 546 129 546ZM549 425C533 425 529 434 529 474V484C529 510 530 553 549 553C555 553 561 545 561 538C561 531 554 526 549 526C543 526 543 535 538 535C537 535 536 529 536 523C536 501 541 496 543 496C545 496 546 497 546 500C546 504 555 511 560 511C560 511 561 501 561 487C561 482 561 475 560 468V425ZM435 424C424 424 417 428 417 525C417 539 418 542 422 546C427 550 429 552 431 552C434 552 443 547 443 536C443 529 440 525 437 525C431 525 430 535 423 535C421 535 420 533 420 529C420 519 424 502 426 502C430 502 430 514 438 514C443 514 443 512 443 469V424ZM358 421C355 421 354 429 354 444C354 469 355 508 362 508C367 508 369 499 374 499C377 499 378 504 378 516C378 526 376 532 373 532C368 532 365 520 360 520C358 520 356 524 356 530C356 546 367 550 370 550C379 550 384 533 384 512C384 462 363 421 358 421ZM340 521C337 521 322 530 322 538C322 542 326 547 331 547C336 547 343 544 343 529C343 525 342 521 340 521ZM738 512C733 512 729 517 729 522C729 528 736 534 744 534C750 534 756 531 756 526C756 520 746 512 738 512ZM321 421C313 421 309 425 309 453C309 485 316 532 319 532C319 532 320 529 320 525C320 517 319 511 319 505C319 501 320 499 321 499C324 499 333 508 338 508C342 508 343 502 343 494C343 486 342 477 342 465L340 422L327 421ZM801 509C799 509 795 511 795 516C795 523 804 531 806 531C808 531 810 525 810 521C810 515 806 509 801 509ZM841 416C837 416 831 429 829 443C825 476 808 489 808 498C808 502 815 508 819 508C826 508 844 443 844 421C844 418 843 416 841 416ZM726 429V443C726 473 740 493 740 494C740 500 752 504 764 504C802 504 804 468 804 465C804 460 802 456 799 455C776 448 770 443 766 439C763 435 760 432 744 431ZM761 451C771 451 785 466 785 474C785 481 774 491 764 491C753 491 743 484 743 473C743 464 750 451 761 451ZM758 463C755 463 753 464 753 468C753 476 759 481 764 481C768 481 770 478 770 474C770 468 763 463 758 463ZM672 427C659 427 654 430 654 433C654 439 669 447 672 447C675 447 688 440 688 433C688 430 685 427 672 427ZM759 379C752 379 746 380 743 384C738 390 728 412 728 417H743C755 417 771 418 771 422C771 428 790 444 797 444C803 444 812 436 812 426C812 415 804 406 794 406C790 406 783 408 783 411C783 416 798 422 798 428C798 430 793 432 792 432C785 432 773 421 773 414C773 406 789 401 789 394C789 385 772 379 759 379ZM202 407C196 407 186 408 186 419C186 426 195 436 203 436C205 436 216 431 216 421C216 413 210 407 202 407ZM675 383C656 383 639 401 639 408C639 414 643 410 645 405C650 396 653 394 669 394C695 394 696 415 706 415C707 415 708 415 708 413C708 413 697 383 675 383ZM668 400C664 400 656 408 656 413C656 414 663 415 672 415C680 415 687 413 687 412C687 408 674 400 668 400ZM518 261C513 261 513 262 513 282C513 318 530 311 530 329C530 351 516 331 516 383C516 399 517 412 517 412C521 412 540 385 556 385C582 385 595 412 603 412C606 412 607 405 607 377C607 350 604 349 600 348C594 347 586 338 586 328C586 322 589 317 597 312C605 307 605 306 605 287C605 266 603 262 585 262C578 262 576 264 576 267C576 270 578 275 578 280C578 294 564 304 555 304C541 304 528 288 528 283C528 276 533 270 533 266C533 262 525 261 520 261ZM393 259V278C393 294 394 298 398 301C405 305 414 319 414 328C414 340 395 348 395 364V367C396 377 396 384 397 390C397 404 398 408 409 408C421 408 427 386 450 386C458 386 467 393 475 400C482 405 489 411 495 411C502 411 502 405 502 384V357L490 351C478 345 474 337 474 330C474 324 479 318 488 311L501 303V263L483 261C477 261 470 260 467 260C466 260 465 261 465 262C465 264 469 270 469 278C469 290 459 301 444 301C429 301 419 290 418 275C418 261 416 259 402 259ZM459 403C458 403 456 403 456 405C456 407 462 411 465 411C467 411 468 410 468 409C468 406 463 403 459 403ZM561 403C551 403 547 408 547 410C547 411 551 411 559 411C573 411 577 411 577 410C577 408 570 403 561 403ZM755 385C767 385 770 393 770 399C770 406 764 411 756 411C750 411 741 408 741 398C741 390 745 385 755 385ZM834 395C830 395 827 399 827 404C827 409 829 411 831 411C834 411 839 404 839 400C839 397 836 395 834 395ZM502 91C334 91 302 204 302 233C302 234 303 234 304 234C306 234 311 227 323 227C337 227 331 243 358 243H362L379 242V223C379 207 379 204 375 204H371C364 204 351 195 351 190C351 188 349 185 349 181C349 181 350 161 371 161C403 161 409 165 409 184C409 194 404 205 396 205C394 205 393 207 393 216C393 218 393 221 394 225L395 245H439V228C439 215 438 209 435 209C432 209 429 211 425 216L417 225L416 208C416 192 415 191 415 189C415 186 416 185 418 185C424 185 426 198 435 198C438 198 441 195 441 192C441 178 426 172 426 166C426 162 434 161 442 161C455 161 470 163 470 163C470 164 452 186 452 194C452 197 453 198 456 198C460 198 474 187 483 174C492 161 500 169 511 164H514C522 164 530 180 530 184C530 189 540 203 547 203C550 203 552 200 552 192C552 175 538 177 538 170C538 169 541 168 546 168C551 168 569 168 569 172C569 174 561 179 561 195C561 201 562 205 567 205C578 205 582 194 585 183C588 174 590 166 597 166C603 166 605 171 611 171C616 171 618 168 621 168C626 168 640 183 640 192C640 194 639 198 636 202C624 219 616 207 616 221C616 250 624 253 632 253C650 253 652 237 666 237C679 237 692 254 692 263C692 272 682 283 672 283C660 283 649 267 632 267H619L618 285V294C618 315 635 313 635 328C635 343 619 332 619 386C619 399 620 410 621 410C622 409 624 406 624 404C624 395 638 368 662 368C675 368 685 376 689 376C698 376 709 397 714 397C716 397 717 378 717 355C717 268 714 239 679 183C641 120 585 91 502 91ZM439 402C438 402 434 409 438 409C439 409 440 407 440 405C440 404 440 402 439 402ZM297 259 295 278V296C295 332 299 394 303 394C309 394 314 379 335 379C363 379 374 408 378 408C381 408 381 401 381 390C381 348 378 349 370 342C359 334 356 328 356 323C356 312 380 307 380 279V276L379 260H360C357 259 354 259 352 259C332 259 341 276 324 276C315 276 305 265 297 259ZM337 398C328 398 322 401 322 404C322 407 331 408 339 408C347 408 353 407 353 405C353 403 349 398 337 398ZM495 36C317 36 225 174 225 174C225 176 222 180 219 183C211 190 187 234 187 239C187 241 189 241 192 241H199C216 241 236 263 236 279C236 290 242 295 252 295C266 295 275 307 275 323C275 339 271 345 259 345L241 344H239C239 349 258 381 258 390C258 400 265 406 272 406C283 406 284 401 284 385C284 368 282 349 279 330C277 311 275 292 275 276C275 169 350 68 489 68C618 68 691 129 725 244C732 270 733 276 733 322C733 364 733 371 737 371C739 371 746 367 760 367C787 367 796 390 806 390C812 390 815 382 815 372C815 370 815 367 814 365L811 351V347C811 344 812 343 812 343C816 343 823 348 832 357L847 371L845 352C827 188 708 106 708 106C698 100 692 96 686 91C671 80 657 71 591 47C570 40 532 36 495 36ZM819 397C816 397 813 400 813 402C813 404 815 405 819 405C820 405 821 403 821 401C821 398 820 397 819 397ZM757 391C752 391 750 393 750 396C750 400 754 403 758 403C761 403 764 401 764 399C764 396 760 391 757 391ZM830 370C828 370 827 373 827 377C827 381 828 385 830 386C832 389 838 388 838 385C838 380 833 370 830 370ZM163 318C160 318 158 332 158 341C158 349 158 351 162 351C165 351 179 349 179 346C179 343 164 318 163 318ZM503 317C493 317 486 323 486 329C486 335 495 340 503 340C512 340 518 335 518 328C518 321 511 317 503 317ZM613 317C609 317 601 318 601 326C601 332 605 339 612 339C618 339 625 332 625 327C625 321 619 317 613 317ZM387 315C380 315 375 318 375 322C375 327 385 337 390 337C390 337 403 332 403 325C403 320 396 315 387 315ZM255 304C254 304 243 307 243 317C243 325 252 332 258 332C263 332 265 328 265 323C265 317 259 304 255 304ZM557 266C544 266 540 273 540 278C540 284 546 292 555 292C562 292 568 287 568 280C568 276 565 266 557 266ZM443 259C435 259 429 271 429 275C429 277 438 288 445 288C453 288 458 274 458 272C458 270 451 259 443 259ZM667 251C662 251 658 256 658 260C658 266 665 270 670 270C676 270 681 263 681 260C681 255 670 251 667 251ZM318 238C313 238 309 244 309 249C309 256 315 262 321 262C327 262 329 254 329 251C329 244 324 238 318 238ZM589 202 588 212C588 218 585 227 580 227C575 227 574 214 571 214C569 214 564 211 562 211C562 211 561 212 561 215C561 222 564 245 565 247C566 249 576 250 586 250H605V234C605 220 604 216 598 209ZM524 203C524 203 513 205 513 221C513 245 516 249 539 249C550 249 550 247 550 234V232C550 219 549 215 546 215C541 215 536 228 532 228C526 228 529 203 524 203ZM479 195C478 195 477 202 477 211C477 221 476 226 474 226C467 226 471 208 456 208C454 208 453 215 453 223C453 245 456 247 474 247C495 247 501 246 501 226C501 202 479 195 479 195ZM622 182C619 182 614 184 614 192C614 197 617 201 620 201C623 201 627 196 627 187C627 183 625 182 622 182ZM599 176C596 176 594 181 594 188C594 194 597 198 602 198C604 198 605 195 605 191C605 184 603 176 599 176ZM497 178C494 178 489 180 489 186C489 192 493 197 496 197C499 197 501 194 501 187C501 181 500 178 497 178ZM512 175C511 175 511 177 511 184C511 190 512 197 514 197C517 197 521 188 521 187C521 184 515 175 512 175ZM394 173C392 173 390 175 390 182C390 188 393 195 396 195C397 195 401 192 401 187C401 181 396 173 394 173ZM367 170C364 170 362 173 362 182C362 188 363 192 368 192C371 192 374 188 374 182C374 176 370 170 367 170ZM232 37C234 37 236 38 238 40C247 48 289 67 297 67C304 67 307 68 307 69C307 73 281 88 279 88C277 88 276 87 276 85C276 83 281 77 281 73C281 70 279 68 273 68C263 68 253 82 253 90C253 93 254 96 258 96C262 96 264 94 268 94C269 94 270 95 270 95C270 97 253 116 242 116C238 116 237 115 237 113C237 109 240 106 240 103C240 97 238 85 235 74C233 62 230 50 230 43C230 39 230 37 232 37ZM749 28C768 28 789 51 789 58C789 60 788 60 786 60H783C776 60 748 77 748 92C748 95 749 95 749 99C749 102 748 103 746 103C745 103 743 102 742 100C738 94 721 90 721 84C721 82 723 81 727 81H731C740 81 738 71 745 68C746 68 747 68 747 67C747 63 732 53 732 42C732 35 740 28 749 28ZM248 56C246 56 244 56 244 58C244 62 248 72 252 72C255 72 259 68 259 64C259 59 252 56 248 56ZM754 35C748 35 743 42 743 48C743 56 750 61 752 61C755 61 765 52 765 47C765 42 759 35 754 35Z" fill="#f59e0b" stroke="none"/>
  </g>
</svg>