<svg xmlns="http://www.w3.org/2000/svg" viewBox="-50 -50 1100 1100">
  <g transform="translate(0, 1000) scale(1, -1)">
    <path d="M517 -93C540 -93 568 -92 657 -63C758 -30 873 73 918 172C930 198 954 272 958 292C962 312 964 337 964 366C964 433 952 519 915 587L894 625C876 658 827 715 795 741C674 836 558 851 491 851C438 851 390 839 333 820C273 801 228 773 176 722C74 623 36 505 36 391C36 245 82 165 140 80C167 40 231 -10 295 -42L326 -58C344 -67 374 -73 400 -79C415 -82 430 -85 438 -88C446 -91 485 -93 517 -93ZM503 -83C277 -83 147 75 127 111L111 139C86 181 55 255 55 275L51 312L43 362C43 367 42 374 42 382C42 407 46 443 51 463C60 502 68 592 157 692C174 712 227 756 253 773C273 787 315 807 322 807C327 807 422 841 481 841H493L538 837C674 825 717 774 731 774C734 774 769 749 793 729C822 706 955 585 955 368C955 340 947 277 942 269C935 255 926 195 879 122C822 34 694 -51 652 -58C645 -59 636 -62 625 -64C597 -72 557 -83 503 -83ZM498 -77C597 -77 666 -45 670 -45C677 -45 714 -27 736 -12C776 14 807 46 857 101C878 125 910 183 922 222L933 256C943 290 949 324 949 365C949 598 813 713 755 752C644 826 581 828 495 835H481C413 835 323 801 312 797C252 777 177 714 122 636C72 567 50 473 50 382C50 233 107 152 121 132C135 111 154 60 253 -4C341 -61 427 -77 498 -77ZM509 -65C353 -65 279 0 270 0C262 0 193 54 193 61C193 62 191 63 189 63C185 63 159 92 151 105L122 156C76 234 60 296 60 389C60 515 109 589 109 596C109 601 172 693 235 740C313 798 436 824 478 824C484 824 508 822 532 820C599 814 632 805 685 779C754 745 821 701 868 617L883 592C934 503 938 429 938 367C938 340 938 263 883 162L871 138C863 123 801 55 773 31C752 13 726 -6 722 -6C722 -6 631 -65 509 -65ZM465 744C468 744 475 756 479 756C484 756 493 751 503 751C515 751 522 758 522 768C522 784 502 798 492 798C489 798 482 802 482 806C482 809 487 811 492 811C514 811 518 791 520 787C523 798 526 805 526 809C526 814 522 815 517 815C507 815 499 818 491 818C477 818 467 805 467 797C467 788 476 784 485 780C495 776 505 771 505 760C505 758 505 757 503 757C491 757 467 773 466 773C463 773 461 768 461 762C461 758 463 744 465 744ZM509 20C631 20 763 103 816 222L829 250C832 258 835 266 835 269C835 271 836 273 838 273C844 273 854 334 854 378C854 442 840 508 797 569C728 666 696 672 676 688C631 722 529 740 503 740C396 740 330 692 320 692C319 692 289 672 271 658C211 612 170 525 160 493L149 454C145 441 144 422 144 402C144 346 157 280 157 280C169 211 268 72 392 36C428 26 471 20 509 20ZM731 288C716 288 709 289 706 292C704 295 703 311 703 327C703 341 704 355 704 365C704 375 703 382 702 382C700 385 686 386 672 386C646 386 646 384 646 360V291H630C615 291 613 292 601 304C573 329 557 343 552 343C548 343 548 331 548 319V304C548 298 548 293 547 292H532C520 292 501 292 480 293L416 295L415 368L430 372C453 378 479 401 491 425C500 443 501 447 501 476L502 505L600 510L609 521C614 527 618 531 618 534C618 535 614 543 614 545C614 548 619 549 647 549H680C702 549 703 550 715 561C729 574 729 582 729 587C729 600 724 616 715 625C707 633 704 634 690 634H688C662 634 647 620 647 604C647 585 669 570 675 570C679 570 696 580 696 594C696 603 689 610 681 610C676 610 669 608 669 602C669 600 671 598 674 598C676 598 677 599 679 599C683 599 685 597 685 593C685 587 678 583 677 583C673 583 659 596 659 601C659 614 680 624 690 624C698 624 714 604 714 592C714 582 709 569 703 566L506 559C504 559 503 560 503 561C503 569 520 576 520 589C520 596 514 620 490 620C468 620 457 594 457 593C457 587 473 567 479 564C479 561 361 559 361 559C347 559 344 560 344 564C344 568 357 574 357 587C357 602 343 617 324 617C312 617 296 608 296 593C296 579 311 568 311 566C311 565 292 564 270 564C232 564 228 564 218 558C205 550 196 540 196 533C196 526 212 513 224 510C229 508 254 507 278 507H322V469C322 426 325 412 336 400C346 388 373 373 390 370L403 368L401 292L381 293C291 295 240 297 238 298C236 299 235 311 235 324C235 347 234 348 229 348C223 348 208 332 194 318C184 307 174 297 171 297C162 297 155 345 155 388C155 584 320 727 497 727C674 727 818 580 838 432C841 415 842 394 842 373C842 338 838 305 834 305C833 305 826 320 802 320C789 320 775 316 763 300C754 288 754 288 731 288ZM191 595C194 595 208 612 208 616C208 617 207 617 206 617H200C195 617 188 621 188 625C188 626 189 628 192 628H196C202 628 201 633 205 633C208 633 209 632 209 629V623C209 622 209 621 210 621C215 621 236 642 236 649C236 650 235 651 233 651C228 651 225 643 202 642L186 641L185 653V657C185 673 192 675 192 683C192 686 190 687 188 687C181 687 171 674 171 668C171 663 175 666 175 655C175 649 172 641 169 641C161 641 162 652 159 652C155 652 142 639 142 631C142 629 143 627 145 627C147 627 151 630 152 630C161 630 190 608 190 599C190 597 190 595 191 595ZM806 588 832 659C832 660 831 660 830 660C825 660 814 655 803 651C790 645 777 640 771 640C769 640 766 641 763 641C761 641 759 641 759 639C759 635 778 618 780 618C781 618 781 620 781 622C781 626 785 638 788 638C791 638 802 627 802 620C802 615 798 610 795 610C792 610 790 613 788 613C787 613 785 612 785 610C785 605 801 588 806 588ZM808 630C805 630 803 633 803 637C803 646 812 648 814 648C816 648 817 648 817 647C817 643 810 630 808 630ZM487 577C479 577 473 582 473 590C473 602 479 609 488 609C498 609 508 597 508 589C508 579 494 577 487 577ZM326 574C323 574 308 577 308 586C308 590 312 606 324 606C331 606 343 600 343 590C343 582 336 574 326 574ZM229 523C221 523 212 534 212 537C212 546 240 552 243 552C248 552 257 544 257 537C257 526 234 523 229 523ZM276 521C269 521 262 521 262 522C262 526 270 530 270 538C270 541 269 543 269 545C269 549 273 549 295 549H322V522H311C307 522 289 521 276 521ZM334 518V546H360C366 546 376 546 387 547C403 547 421 548 437 548L487 549V537C487 530 486 525 484 524C483 523 468 523 445 522C434 521 421 521 408 520ZM502 518V546L587 548C598 548 603 544 603 538C603 524 589 522 578 522H569C555 522 533 521 522 520ZM415 389C339 389 334 434 334 473V503C356 506 413 508 446 508C459 508 471 508 481 507C485 507 487 499 487 487C487 474 484 454 479 439C470 408 455 389 415 389ZM690 345 675 346C662 347 658 347 658 361C658 370 662 372 676 372C689 372 692 369 692 361C692 358 691 352 690 345ZM909 291C927 291 931 318 931 337C931 346 930 353 927 353C926 353 924 351 922 347C919 340 917 339 901 339C872 339 878 354 869 354C863 354 862 329 862 322C862 314 863 294 874 294C879 294 884 296 890 296C900 296 903 291 909 291ZM673 313C665 313 658 316 658 324C658 333 659 336 670 336C692 336 692 334 692 325C692 319 690 313 673 313ZM108 285C125 285 139 298 139 312C139 323 130 327 128 327C126 327 124 326 124 324C124 322 130 318 130 315C130 308 117 304 106 304C97 304 86 307 86 313C86 318 95 319 95 324C95 328 90 330 82 330C75 330 70 328 70 327C70 325 71 323 73 322C79 319 70 285 108 285ZM880 309C872 309 871 310 871 317C871 322 872 323 875 323C878 323 893 322 893 318C893 314 887 309 880 309ZM908 304C902 304 901 312 901 314C901 319 906 322 911 322C917 322 919 317 919 315C919 309 913 304 908 304ZM201 294C194 294 190 295 190 296C190 301 214 320 219 320C222 320 223 319 223 314V308L222 295L206 294ZM560 291V305C560 312 560 318 561 318C563 318 595 295 595 293C595 292 587 291 577 291ZM798 258C780 258 772 266 772 281C772 294 776 299 789 303C795 305 800 306 804 306C815 306 826 293 826 285C826 281 823 276 818 269C812 259 810 258 798 258ZM677 288C668 288 658 292 658 298C658 302 663 305 681 305C690 305 693 304 693 300C693 296 689 288 677 288ZM795 267C805 267 813 277 813 279C813 285 807 297 795 297C785 297 782 285 782 280C782 273 788 267 795 267ZM797 274C792 274 791 276 791 279C791 283 794 287 798 287C800 287 805 284 805 280C805 276 801 274 797 274ZM502 32C409 32 335 70 318 84L297 102C270 124 243 147 213 192C192 223 170 267 170 276C170 280 179 282 227 282C257 282 309 281 342 280L401 278V259C400 240 399 238 390 230C379 221 374 216 374 208C374 192 390 182 406 182C430 182 436 202 436 211C436 231 412 225 412 258V260C412 278 413 279 446 279H465C485 279 511 278 540 276C543 276 544 269 544 248C544 230 545 220 550 220C556 220 565 229 583 247C611 275 613 276 628 278L644 279V227C644 207 645 185 648 178C650 175 663 173 675 173C697 173 704 175 704 209C704 219 703 229 702 239C702 247 701 255 701 262C701 276 702 276 727 276H757L763 265C771 251 783 247 793 247C806 247 811 251 814 251C815 251 816 251 816 250C816 239 802 222 798 210C788 179 707 99 703 99C702 99 694 94 686 89C678 83 670 78 668 78C659 78 604 32 502 32ZM560 244C558 244 557 250 557 258C557 267 558 276 561 276C562 277 571 278 580 278H597L579 261C569 252 562 244 560 244ZM672 247C659 247 655 253 655 268C655 276 657 277 662 277C667 277 673 276 682 276C689 276 690 276 690 270C690 253 688 247 672 247ZM671 214C658 214 655 215 655 230C655 236 657 238 664 238C687 238 690 234 690 228C690 215 688 214 675 214ZM405 194C396 194 392 200 392 208C392 217 396 222 404 222C409 222 421 219 421 209C421 202 415 194 405 194ZM675 186C663 186 656 186 656 196C656 201 662 204 677 204C690 204 691 203 691 194C691 186 691 186 675 186ZM262 16C276 16 304 31 304 56C304 72 290 84 276 84C258 84 240 67 240 46C240 30 250 16 262 16ZM672 -17C681 -17 703 -3 703 1C703 2 701 3 697 3C688 3 684 21 684 25C684 26 684 26 686 26C690 26 707 15 724 15C735 15 748 22 748 26C748 27 747 28 744 28C740 28 737 27 735 27C727 27 711 57 711 63C711 68 715 68 715 73C715 74 714 75 713 75C707 75 691 67 691 63C691 59 712 45 712 31C712 28 710 26 708 26C702 26 693 36 688 40L676 49C672 51 668 53 665 53C662 53 660 51 660 49C660 40 678 23 678 6C678 -6 668 -11 668 -16C668 -16 670 -17 672 -17ZM258 30C254 30 251 32 251 35C251 44 266 73 280 73C287 73 289 69 289 65C289 51 275 30 258 30Z" fill="#f59e0b" stroke="none"/>
  </g>
</svg>