<svg xmlns="http://www.w3.org/2000/svg" viewBox="0 -124 1000 1005">
  <g transform="translate(0, 757) scale(1, -1)">
    <path d="M502 -94C551 -94 599 -86 644 -70C902 23 970 248 970 380C970 504 916 584 916 592C916 600 898 625 898 629C898 638 847 699 818 724C793 746 734 791 730 791C729 791 721 795 710 800C694 808 672 818 669 818C657 818 604 851 504 851C323 851 191 755 132 674L104 636C88 613 54 539 45 507L36 470C32 455 30 440 30 402C30 299 48 227 93 146C212 -68 420 -94 502 -94ZM508 -85C365 -85 252 -19 224 6L189 35C164 56 140 87 112 130C58 212 39 283 39 404C39 429 40 451 42 459C42 459 64 568 109 627L134 660C165 703 225 755 231 755C240 755 317 839 506 839C550 839 579 833 579 833C597 824 699 822 822 704C892 637 919 572 947 487C954 465 958 377 958 365C958 252 907 174 907 168C907 165 894 148 881 124C862 91 773 1 752 -7C747 -9 740 -13 730 -19C693 -41 619 -85 508 -85ZM500 -80C657 -80 768 6 806 43C876 112 905 160 934 255C946 294 952 333 952 357C952 399 941 477 930 513C906 586 878 618 878 622C878 628 854 659 830 684C748 769 681 804 575 825C552 830 526 832 501 832C410 832 313 805 270 774C250 760 187 728 124 641C60 551 40 449 40 390C40 359 54 271 63 238C76 195 136 72 244 -5C278 -29 385 -80 500 -80ZM499 -69C401 -69 306 -32 254 1C219 24 159 81 144 108C140 115 135 123 129 131C107 164 77 208 61 294C55 322 53 333 53 357C53 455 61 475 76 521C128 677 279 819 496 819C571 819 580 809 585 809C613 809 711 770 739 748C799 702 851 649 867 617C871 608 876 600 881 592C889 580 897 567 905 548L918 516C921 511 923 504 923 502C923 502 938 445 938 373C938 243 871 139 862 126C840 96 778 32 758 19C682 -32 604 -69 499 -69ZM469 743C472 743 477 747 482 747C489 747 498 743 506 743C518 743 525 755 525 763C525 784 484 786 484 797C484 800 492 802 495 802C506 802 511 788 516 788C517 788 518 794 518 800C518 810 516 817 513 817C512 817 512 817 511 816C505 810 470 813 470 791C470 772 510 761 510 753C510 751 508 751 506 751C486 751 476 768 474 768C470 768 467 750 467 746C467 744 468 743 469 743ZM493 21C615 21 671 64 725 103C815 170 839 269 839 271C839 271 855 291 855 365C855 466 839 500 823 532C795 589 767 613 757 628C735 662 666 705 606 722L570 732C557 735 535 737 510 737C356 737 291 672 254 638C184 573 168 517 157 477C154 468 152 459 149 451C146 442 144 417 144 390V377C144 323 147 224 253 116C313 55 401 21 493 21ZM792 431C783 431 782 437 782 451C780 467 779 493 760 531C735 580 702 602 649 602C623 602 580 587 566 573C559 565 548 543 546 527C544 513 544 510 476 510C452 510 420 510 376 511L228 513L213 506C196 498 167 470 167 470C167 470 193 593 333 679C370 702 438 725 506 725C586 725 668 681 680 673C780 611 839 483 839 444V437L830 442C824 445 821 447 817 447C806 447 803 431 792 431ZM645 261C630 261 615 266 599 277C571 296 562 317 562 356V359C562 377 561 382 550 382C543 382 537 381 531 381C521 381 519 384 519 386C519 389 530 402 538 402C542 402 544 401 547 401C556 401 562 407 562 415C562 430 550 430 546 430H540C526 430 522 433 522 438C522 443 530 453 540 453C543 453 545 452 548 452C558 452 564 461 564 469C564 477 558 484 549 484C541 484 540 481 534 481C529 481 522 482 512 485L489 493L521 494C555 496 563 499 563 511V520C563 539 582 561 596 571C603 576 634 586 662 586C727 586 763 512 763 452C763 435 760 432 756 432C755 432 752 432 749 433C730 436 730 436 730 455C730 488 745 480 745 499C745 510 737 519 727 519C721 519 707 515 707 500C707 481 719 486 719 467C719 452 713 434 711 434C710 434 710 435 710 438C710 444 697 451 688 451C671 451 673 435 647 435H643C614 435 613 436 613 448C613 459 612 461 607 461C602 461 599 452 599 436C599 422 601 398 605 398C612 398 613 403 613 411V422H637C681 422 666 404 688 404C699 404 706 418 712 418C715 418 718 416 718 407C718 378 700 378 700 362C700 351 712 341 725 341C736 341 745 349 745 359C745 377 730 365 730 400C730 419 732 420 734 420C737 420 743 419 749 418L763 414L762 402C753 329 736 298 695 276C676 266 660 261 645 261ZM610 501C613 501 616 506 617 511L620 521H644C686 521 672 509 690 509C700 509 709 517 709 527C709 534 706 551 692 551C675 551 672 533 649 533C618 533 618 534 616 543C615 550 613 553 610 553C606 553 602 548 602 531C602 518 605 501 610 501ZM688 518C682 518 678 525 678 529C678 534 682 538 688 538C694 538 696 535 696 528C696 522 692 518 688 518ZM728 489C722 489 716 493 716 497C716 504 724 509 729 509C737 509 739 501 739 497C739 492 732 489 728 489ZM247 386C227 386 174 394 174 438C174 475 224 499 256 499C260 499 266 499 266 462C266 447 264 442 254 442C235 442 232 461 216 461C203 461 191 445 191 439C191 435 193 433 193 431C193 425 205 416 212 416C224 416 236 431 253 431H264L262 411C260 386 258 386 247 386ZM434 383C419 383 405 384 402 385C398 386 397 391 397 408C397 429 397 431 392 431C379 431 391 413 354 413H352C339 413 337 413 337 427C337 460 337 463 352 463C378 463 381 462 385 454C387 449 390 445 392 445C396 445 400 457 400 470C400 478 399 490 393 490C391 490 388 488 386 484C383 480 379 479 355 479H346C326 479 328 478 324 454L322 442H303C274 442 281 446 279 474L278 497H327C450 497 457 492 457 487C457 482 467 474 474 474C479 474 480 480 491 480C501 480 530 469 530 467C530 464 501 458 488 458C479 458 483 460 478 460C471 460 458 453 458 443C458 435 469 428 478 428C487 428 485 435 494 435C507 435 529 420 529 418C529 414 506 408 490 408C484 408 479 409 476 409C464 409 461 392 461 390C461 383 460 383 434 383ZM473 485C470 485 467 488 467 490C467 493 471 496 475 496C479 496 480 492 480 491C480 488 477 485 473 485ZM551 462C547 462 542 467 542 470C542 474 546 476 549 476C554 476 556 472 556 469C556 465 554 462 551 462ZM510 441C505 441 497 445 497 446C497 448 516 454 520 454C520 454 522 454 522 453C522 450 518 441 510 441ZM215 427C209 427 204 434 204 440C204 447 211 450 216 450C222 450 227 445 227 440C227 434 221 427 215 427ZM477 437C472 437 470 439 470 442C470 445 474 449 478 449C480 449 483 447 483 444C483 442 480 437 477 437ZM688 414C680 414 678 424 678 428C678 435 683 440 688 440C693 440 700 436 700 429C700 421 693 414 688 414ZM821 410C815 410 809 416 809 422C809 428 815 433 821 433C825 433 830 432 830 425C830 419 826 410 821 410ZM494 34C417 34 357 58 302 96C284 108 227 165 227 171C227 173 224 177 220 181C211 189 187 232 179 252C165 288 154 358 154 399C154 407 155 415 156 421L158 432L164 414C171 394 172 382 222 375C245 372 248 372 248 367C248 363 246 356 242 347C237 331 228 306 228 281C228 234 266 215 267 215C275 215 282 203 307 203C350 203 411 235 424 247L488 297C489 297 490 296 490 295C490 290 484 276 484 260C484 243 484 242 474 237C457 229 444 226 437 226C430 226 427 230 421 230C418 230 415 229 415 226C415 219 431 209 439 209C469 209 526 263 527 263C528 262 528 261 528 259C528 248 523 213 520 205C517 196 509 194 501 194C489 194 475 199 466 199C462 199 458 197 458 192C458 184 478 178 488 178C519 178 569 204 587 254C588 256 589 258 591 258C597 258 617 244 644 244C716 244 781 326 781 402C781 414 782 416 788 416C796 416 809 401 821 401C833 401 837 413 841 413C844 413 845 408 845 396C845 329 835 282 828 276C820 269 827 256 777 179C766 163 717 113 698 101C628 53 574 34 494 34ZM276 387 277 406V416C277 430 279 431 295 431H322L324 402L351 401C376 400 382 397 383 388C383 387 367 387 345 387ZM67 323C73 323 69 339 87 359L97 371L107 359C125 341 119 332 126 332C130 332 131 337 131 352C131 362 130 371 129 371C123 371 121 363 117 363C113 363 106 374 103 378L111 385C116 390 119 392 122 392C124 392 124 390 124 387C124 384 125 383 126 383C128 383 134 387 134 406C134 417 131 426 128 426C120 426 129 421 107 401L95 388L87 395C83 399 79 403 79 406C79 412 73 428 70 428C68 428 65 401 65 391C65 387 65 386 67 386C69 386 71 391 76 391C80 391 87 384 87 381C87 378 76 365 73 365C70 365 71 370 67 370C64 370 60 366 60 353C60 348 61 323 67 323ZM546 410C542 410 539 412 539 415C539 419 544 424 548 424C552 424 553 418 553 417C553 413 549 410 546 410ZM871 347C879 347 868 359 899 359C929 359 923 350 929 350C931 350 932 353 932 359C932 369 929 376 925 376C922 376 921 370 914 370C908 370 903 375 903 382C903 391 909 395 915 395C925 395 924 383 928 383C930 383 932 388 932 398C932 405 931 414 930 417C928 423 923 424 923 418C923 415 906 410 892 410C871 410 874 422 868 422C867 422 866 420 866 417C866 412 868 400 868 396C868 394 870 394 873 394C878 394 884 395 886 395C889 395 890 394 890 391C890 375 881 370 878 370C875 370 875 377 872 377C870 377 868 371 868 361C868 352 869 347 871 347ZM502 390C498 390 495 391 495 394C495 401 521 406 522 406C523 406 524 406 524 405C524 404 516 390 502 390ZM476 387C473 387 470 390 470 393C470 397 473 401 477 401C479 401 482 399 482 395C482 391 479 387 476 387ZM327 222C263 222 243 256 243 278C243 296 263 359 270 370C271 373 275 374 287 374C298 374 313 373 338 372L540 366L525 350C515 339 442 280 442 280C441 280 439 279 439 278C439 276 402 244 398 244C385 244 370 222 327 222ZM725 350C718 350 712 356 712 361C712 367 718 370 724 370C729 370 735 366 735 360C735 356 731 350 725 350ZM605 303C608 303 613 313 613 319C613 325 615 325 634 325C669 325 675 311 684 311C684 311 703 319 703 337C703 346 700 358 687 358C663 358 674 341 636 341H614C612 357 612 361 603 361C599 361 599 358 599 337C599 320 601 303 605 303ZM328 235C345 235 361 239 361 244C361 252 339 251 339 273C339 289 344 290 353 290C390 290 378 265 391 265C397 265 400 286 400 306C400 328 397 333 392 333C387 333 383 329 383 322C383 315 369 305 359 305C346 305 341 309 341 314C341 324 363 343 363 349C363 351 355 353 328 353C307 353 302 352 302 348C302 341 328 341 328 318C328 309 327 308 320 308C297 308 297 332 288 332C285 332 283 327 283 317C283 293 278 281 278 275C278 268 282 265 284 265C293 265 304 293 320 293C326 293 328 293 328 289C328 250 299 251 299 244C299 240 310 235 328 235ZM686 324C680 324 674 329 674 333C674 339 681 343 686 343C692 343 694 338 694 334C694 328 690 324 686 324ZM498 252V262C498 317 542 341 542 341C542 341 550 327 550 314C550 305 550 298 519 271ZM538 209C537 209 536 210 536 213C536 230 550 287 563 287C568 287 575 276 575 269C575 249 545 209 538 209ZM499 -59C502 -59 504 -58 506 -51C511 -32 528 -6 538 -2C545 1 548 4 548 6C548 8 544 10 538 10C523 10 512 4 512 0C512 -1 513 -1 516 -1C519 -1 521 -2 521 -4C521 -10 509 -16 499 -16C481 -16 480 -1 480 -1C480 3 484 3 484 5C484 10 474 11 465 11C459 11 449 10 449 6C449 5 451 3 456 0C462 -3 469 -16 476 -29C484 -44 493 -59 499 -59ZM499 -40C497 -40 496 -38 496 -36C496 -31 494 -27 494 -24C494 -23 495 -22 499 -22C505 -22 507 -24 507 -27C507 -32 500 -40 499 -40Z" fill="#f59e0b" stroke="none"/>
  </g>
</svg>