<svg xmlns="http://www.w3.org/2000/svg" viewBox="0 -122 1001 1003">
  <g transform="translate(0, 759) scale(1, -1)">
    <path d="M506 -92C567 -92 644 -70 649 -70C659 -70 729 -36 754 -18C870 62 929 151 963 280C968 298 971 338 971 378C971 421 968 466 962 489C951 531 919 604 890 646C875 669 826 722 806 740C755 784 635 851 538 851H470C435 851 396 843 354 826L307 809C291 803 260 786 250 779L227 761C193 736 139 679 108 637C81 599 30 498 30 379C30 351 33 321 39 292V290C39 287 42 285 42 277V272C42 264 46 259 46 257C46 256 49 249 49 248C49 247 52 240 52 239C52 237 56 230 57 228C62 205 89 157 106 128C114 114 120 105 120 103C121 99 188 16 266 -25C284 -35 360 -92 506 -92ZM517 -82C449 -82 357 -65 314 -44C234 -3 164 45 113 132C66 211 42 257 42 401C42 421 43 440 44 447C57 517 91 604 117 634C123 641 191 743 292 792C324 808 389 828 433 837C443 840 466 841 490 841C526 841 569 838 591 834C695 816 782 753 835 697C915 610 945 513 947 507L953 482C957 468 962 397 962 364C962 186 842 51 778 8C770 3 766 -1 761 -5C747 -16 738 -24 668 -55C655 -60 569 -82 517 -82ZM512 -77C577 -77 665 -56 716 -28C773 3 853 74 878 118C882 124 959 224 959 383C959 604 796 777 614 825C588 832 539 835 499 835C462 835 431 833 427 832L393 823C297 798 226 755 169 690C132 649 48 559 48 382C48 327 57 289 57 281V277C57 246 119 131 119 131C119 128 137 110 137 105C138 103 174 47 262 -8L293 -27C336 -56 435 -77 512 -77ZM509 -65C405 -65 301 -23 293 -14C292 -12 170 52 110 174C74 248 69 286 66 309C65 318 64 325 62 331C60 337 59 353 59 372C59 409 62 459 68 476C68 476 101 588 133 626C156 652 257 822 502 823H506C626 823 665 793 689 783C749 758 800 713 800 713C812 704 881 626 895 596L904 573C943 485 947 448 947 382C947 357 946 330 944 314C936 236 891 141 841 90C761 8 690 -38 629 -50C611 -53 570 -65 509 -65ZM496 745C500 745 506 757 512 770C519 786 527 803 535 805C539 806 541 807 541 809C541 812 533 815 523 815C519 815 507 814 507 809C507 804 513 805 513 797C513 785 500 767 498 767C497 767 479 789 479 799C479 804 485 804 485 808C485 811 479 812 468 812C455 812 444 807 444 804C444 804 445 803 448 803C458 803 479 766 479 765C479 760 492 745 496 745ZM481 22H503C563 22 577 24 638 46C686 64 744 108 782 156C810 190 842 255 854 300C858 315 860 339 860 366C860 405 857 450 850 476C825 569 742 661 676 695L643 712C594 737 556 738 503 738H479C432 738 426 735 379 718C332 700 276 661 239 623C181 561 141 456 141 382C141 337 161 260 169 242C183 208 209 170 242 136C304 72 331 54 409 32C441 23 447 22 481 22ZM283 549C277 549 272 555 272 566C272 582 262 592 247 592C236 592 227 585 226 585C225 585 225 587 225 587C225 591 266 639 315 669C344 687 400 713 408 713C410 713 413 714 415 716C419 720 454 727 497 727C681 727 772 597 772 594H770C768 594 762 598 751 598C732 598 726 587 721 576C716 568 712 560 702 560C696 560 692 565 692 571C692 584 701 590 701 603C701 614 688 631 675 631C646 631 640 621 640 607C640 596 644 581 644 578C644 571 633 570 629 570C621 570 615 574 615 579V581L620 601C621 605 622 609 622 611C622 628 610 637 596 637C591 637 586 636 581 635C564 629 560 626 560 609C560 597 562 581 562 578C562 573 558 572 548 572C539 572 534 576 534 584C534 590 538 606 538 615C538 625 523 639 501 639C480 639 462 628 462 611C462 604 466 596 466 589C466 579 455 572 446 572C437 572 429 578 429 587C429 598 438 598 438 613C438 628 432 635 408 635C378 635 366 617 366 606C366 593 377 590 377 579C377 571 365 566 355 566C346 566 338 570 338 579C338 591 349 597 349 609C349 619 339 625 321 625C296 625 281 612 281 597C281 581 295 571 295 563C295 558 291 549 283 549ZM667 344C661 344 654 345 644 346L619 348L617 384C616 403 614 422 613 424C611 427 598 428 559 428H506L508 447C509 459 510 478 510 490V512H552L556 501C562 486 568 482 581 482C591 482 610 490 615 498C616 500 617 505 617 510C617 539 604 548 584 548C573 548 569 546 562 537L551 527H481C451 528 443 528 443 531C443 537 428 557 409 557C393 557 377 540 377 522C377 503 390 485 407 485C415 485 425 488 434 498L446 512L493 510V484C493 468 492 449 491 442L490 427H451C447 428 443 428 440 428H424C406 428 404 427 404 407V389C404 360 403 356 398 353C396 351 378 350 360 350C324 350 317 351 317 366C317 373 318 382 318 392C318 428 316 428 279 428H252L253 531H240C227 531 219 539 219 550C219 562 229 580 244 580C251 580 257 575 257 565C257 559 262 534 280 534C310 534 310 556 310 564C310 589 295 583 295 601C295 610 315 613 321 613C328 613 334 610 334 606C334 598 323 592 323 578C323 563 340 552 354 552C369 552 392 569 392 589C392 601 385 605 385 610C385 618 395 620 408 620L424 621L423 610C422 592 420 583 420 578C420 569 437 560 448 560C463 560 481 574 481 588C481 594 479 599 479 605C479 617 492 625 501 625C504 625 521 622 521 609C521 605 521 600 520 593L518 569L527 562C532 558 541 554 545 554C549 554 579 561 579 580C579 591 572 604 572 608C572 617 580 623 590 623C598 623 610 619 610 612C610 607 604 590 604 581C604 564 620 555 635 555C653 555 658 566 658 578C658 590 654 592 654 602C654 612 659 619 667 619C676 619 688 608 688 597C688 586 678 578 678 568C678 558 689 545 698 545C702 545 708 547 717 551C730 558 733 566 735 572C737 579 738 584 752 584C771 584 781 568 781 556C781 548 777 541 769 541C752 541 749 516 749 488C749 475 750 461 750 449C750 441 750 433 748 429C747 426 733 425 718 423C705 422 690 420 688 418C685 416 684 406 684 381V376C684 350 683 344 667 344ZM499 31C472 31 354 48 290 109C200 193 172 244 158 347C156 358 156 369 156 380C156 469 200 544 200 544C201 544 206 539 211 532C227 510 241 520 241 510C241 504 240 497 240 489C238 476 237 460 237 439C237 426 238 415 240 413C241 412 246 412 253 412C269 412 279 414 291 414C303 414 306 410 306 396C306 388 305 378 305 366V351C305 338 307 338 328 338H347L348 315C348 259 352 206 368 168L376 149C386 125 426 80 448 69C477 54 478 48 508 48C521 48 532 50 535 53C543 60 578 70 613 117C620 126 641 173 648 197C654 216 658 254 661 284C663 307 665 326 667 328C668 329 675 330 680 330H682C695 330 697 337 697 350C697 358 696 368 696 380C696 389 697 399 699 409L760 411L763 526C780 533 794 541 794 555C794 559 795 561 796 561C801 561 850 478 850 371C850 343 849 283 784 180C714 70 581 31 499 31ZM409 504C401 504 394 510 394 518C394 527 403 536 412 536C422 536 425 525 425 521C425 512 417 504 409 504ZM582 500C575 500 570 505 570 513C570 521 576 529 585 529C590 529 599 526 599 518C599 509 591 500 582 500ZM293 458C304 458 313 464 313 475C313 484 302 499 295 499C290 499 271 490 271 477C271 469 277 458 293 458ZM356 454C370 454 380 467 380 479C380 495 361 499 354 499C342 499 332 487 332 477C332 463 346 454 356 454ZM638 459C652 459 659 465 659 476C659 487 646 497 634 497C619 497 615 484 615 478C615 468 624 459 638 459ZM706 458C719 458 723 471 723 477C723 492 708 496 701 496C688 496 681 484 681 481C681 469 694 458 706 458ZM291 468C288 468 281 469 281 476C281 481 288 487 294 487C300 487 302 481 302 478C302 472 297 468 291 468ZM354 467C351 467 348 467 348 468C348 469 346 474 346 476C346 481 353 487 357 487C362 487 366 482 366 476C366 471 363 467 354 467ZM637 468C628 468 626 477 626 480C626 486 631 487 635 487C641 487 646 485 646 479C646 473 642 468 637 468ZM704 467C698 467 694 473 694 478C694 484 698 487 702 487C709 487 713 481 713 477C713 471 709 467 704 467ZM66 340C68 340 64 352 105 352C125 352 121 345 125 345C128 345 130 356 130 376V382C130 401 129 418 114 418C110 418 107 416 107 412C107 409 108 406 110 406C112 406 113 404 113 402C113 400 114 398 116 398C118 398 120 389 120 381C120 372 118 368 109 368C104 368 102 369 102 372C102 379 113 378 113 384C113 387 109 392 96 392C85 392 77 388 77 384C77 378 92 374 92 370C92 367 81 366 74 366C68 366 68 367 68 377C68 383 69 389 71 389C73 389 74 391 74 393C74 401 89 403 89 411C89 414 87 415 81 415C63 415 62 412 62 375C62 352 63 340 66 340ZM507 67C481 67 446 78 411 124C378 166 367 207 367 287V338H391C406 338 414 339 415 341C417 348 419 414 419 415C419 415 422 416 426 416C444 416 446 414 446 401V368C446 338 449 337 475 335L493 333V259C493 210 492 209 484 209H482C440 209 432 256 423 256C419 256 419 251 419 233C419 198 420 148 425 148C436 148 427 194 474 194L493 195V170C493 147 493 146 482 137C464 121 432 110 432 105C432 100 452 98 506 98C569 98 574 100 574 107C574 111 565 112 562 112C554 112 535 123 522 137C511 149 511 150 511 172V195L531 194C556 194 562 191 574 169C579 160 585 153 587 153C591 153 592 161 592 203V220C592 239 592 254 588 254C583 254 574 209 520 209H518C509 209 507 209 507 229C507 235 507 243 508 253C508 268 509 287 509 309L510 335H539C557 335 569 336 571 338C573 340 574 345 574 356C574 361 573 368 573 377L571 412C579 414 586 416 590 416C599 416 605 411 605 360C605 357 605 354 604 351V333L622 332C632 332 641 329 642 327C643 327 644 317 644 300C644 158 583 67 507 67ZM479 347C463 347 458 352 458 398C458 410 459 412 477 412H491V347ZM513 349C507 349 506 351 506 381V412H530C548 412 555 411 556 408C557 406 558 393 559 378V351L535 350C527 349 521 349 516 349ZM880 353C881 353 883 356 885 360C887 367 889 367 908 367C927 367 929 367 932 360C934 356 936 353 938 353C940 353 941 361 941 378C941 393 940 403 938 403C937 403 936 402 936 399C936 388 931 384 918 384C873 384 887 401 880 401C877 401 876 385 876 374C876 360 877 353 880 353ZM475 -55H479L490 -54L491 -22L506 -37C518 -49 519 -52 527 -52C542 -52 545 -48 545 -47C545 -46 543 -45 538 -45C532 -45 530 -40 530 -15C530 5 539 -2 539 4C539 6 535 8 527 8C519 8 516 6 516 3C516 3 521 -9 521 -18C521 -23 519 -27 518 -27C513 -27 495 7 484 7C482 7 480 6 480 1C480 -5 482 -14 482 -21C482 -43 468 -45 468 -52C468 -55 470 -55 475 -55Z" fill="#f59e0b" stroke="none"/>
  </g>
</svg>