<svg xmlns="http://www.w3.org/2000/svg" viewBox="-50 -50 1100 1100">
  <g transform="translate(0, 1000) scale(1, -1)">
    <path d="M519 -93C558 -93 620 -86 711 -46C761 -23 833 39 883 103C917 146 929 176 957 265C966 292 971 320 971 359C971 378 969 401 967 427C959 530 897 640 865 678C795 763 670 851 502 851C320 851 183 744 131 668L110 639C100 627 94 620 78 586C53 535 29 451 29 392C29 329 41 255 53 234C57 226 117 33 299 -44C356 -69 406 -93 519 -93ZM499 -82C405 -82 372 -67 347 -56C339 -53 333 -50 325 -48C280 -34 209 13 171 54C149 77 121 112 121 116C121 120 68 198 53 259C46 285 37 359 37 399C37 438 58 526 77 569C109 642 173 711 201 732C329 832 410 829 428 833C449 838 474 840 497 840C588 840 683 809 722 783L750 765C851 698 886 635 894 619C931 551 960 492 960 359C960 277 925 173 882 116L864 92C862 90 856 83 847 74L828 54C778 4 737 -26 681 -49C615 -76 578 -82 499 -82ZM513 -78C563 -78 660 -69 761 1C786 19 847 75 857 91L880 123C934 201 954 307 954 361C954 490 931 533 879 632C871 648 781 753 689 792L654 808C635 816 563 833 495 833C479 833 461 832 445 829L409 824C315 810 205 745 148 671C140 659 128 645 122 638C113 628 43 526 43 386C43 258 72 209 111 144C118 133 125 122 132 109C162 57 252 -19 326 -44C333 -46 340 -49 347 -52C377 -64 412 -78 513 -78ZM521 -66C515 -66 512 -65 512 -65C455 -65 393 -57 354 -42L314 -26C221 11 142 108 115 153L99 184C88 205 65 264 63 278C61 301 55 322 55 388V406C55 436 56 444 66 483C87 561 115 614 137 639L158 665C183 694 262 769 350 798C367 804 443 820 473 820C562 820 575 815 600 808C694 783 704 776 728 758C734 753 741 748 751 741C813 701 865 636 865 629C865 627 870 620 876 611C885 598 896 580 896 573C896 571 896 568 897 568C902 568 941 481 941 361C941 305 929 199 836 86C810 55 739 -4 712 -16C613 -60 543 -66 521 -66ZM479 743C510 743 526 753 526 767C526 776 521 777 521 784C521 790 526 794 526 798C526 799 525 815 501 815C493 815 458 814 458 809C458 802 470 813 470 777C470 756 469 755 462 752C457 750 454 748 454 747C454 744 463 743 479 743ZM493 786C487 786 482 791 482 796C482 802 487 806 496 806C503 806 510 803 510 796C510 790 497 786 493 786ZM498 752C489 752 487 752 487 758C487 768 490 777 499 777C505 777 514 772 514 764C514 758 508 752 498 752ZM514 18C596 18 660 53 695 78L728 100C767 127 818 201 837 259C847 288 857 299 857 360C857 432 839 525 800 570C800 570 738 653 690 682C690 682 615 736 499 736C298 736 139 572 139 378C139 312 157 243 200 178C218 151 270 98 292 83C318 65 386 33 402 29C434 22 477 18 514 18ZM797 408C770 408 755 445 753 461C750 478 747 484 723 509C670 564 551 589 546 593C542 596 494 601 478 601C472 601 472 599 449 598L425 596C403 594 345 583 333 579C289 563 262 537 244 521C235 512 229 506 224 506C210 506 225 545 202 545C199 545 196 546 196 547C196 557 255 630 269 637C269 637 330 688 373 700L414 711C445 719 471 725 497 725C573 725 651 691 688 668C764 620 832 504 832 463C829 471 819 473 808 473C780 473 767 456 767 444C767 428 789 424 797 424C812 424 816 440 816 442C816 450 805 455 799 455C795 455 794 454 794 452C794 449 795 446 795 442C795 438 793 435 789 435C784 435 778 440 778 445C778 453 787 461 801 461C809 461 823 461 823 436C823 419 812 408 797 408ZM202 590C203 590 204 591 204 593C204 596 203 597 203 599C203 610 222 610 222 633C222 636 220 643 203 643C188 643 174 633 167 633C165 633 164 634 164 637C164 637 164 650 171 650C175 650 178 649 182 649C187 649 188 651 188 653C188 658 183 669 172 669C167 669 163 666 163 660C163 656 149 644 149 632C149 623 159 617 169 617C184 617 198 628 205 628C208 628 210 627 210 625C210 619 201 610 194 610C188 610 186 609 186 605C186 597 198 590 202 590ZM803 584C806 584 808 584 808 586C808 589 801 598 801 602C801 607 825 630 830 630C833 630 842 624 846 624C848 624 849 625 849 627C849 634 829 658 821 658C819 658 818 657 818 653C818 650 819 648 819 644C819 634 791 616 786 616C781 616 778 620 775 620C774 620 773 620 773 619C773 614 796 588 796 586C796 585 799 584 803 584ZM381 526C368 526 347 555 347 561C347 566 362 572 374 572C377 572 378 571 378 570C378 568 367 563 367 557C367 552 379 542 384 542C389 542 400 553 400 557C400 562 391 569 386 574L399 577C410 579 424 580 434 580C442 580 448 580 448 578C448 576 445 573 441 571C434 568 423 558 412 549C399 537 386 526 381 526ZM499 491C496 491 477 563 477 573C477 578 479 579 489 579C524 579 581 566 581 562C581 552 504 491 499 491ZM478 473C471 473 453 484 445 484C436 484 440 491 430 491C423 491 397 509 397 514C397 521 452 566 461 566C466 566 481 485 481 477C481 474 479 473 478 473ZM382 551C378 551 376 554 376 556C376 560 379 563 382 563C385 563 390 558 390 555C390 553 387 551 382 551ZM515 526C524 526 535 534 535 545C535 554 528 563 519 563C515 563 497 559 497 543C497 534 505 526 515 526ZM640 469 630 484C614 509 600 543 600 551C600 552 600 555 603 555C605 555 609 553 618 550C651 536 667 531 667 519C667 511 662 502 652 487ZM514 534C509 534 506 537 506 542C506 547 511 554 516 554C520 554 525 549 525 543C525 538 519 534 514 534ZM288 431C282 431 276 443 276 456C276 461 277 464 277 469C277 492 239 483 239 494C239 512 316 550 321 551C324 551 351 527 351 523C351 523 298 431 288 431ZM603 449C568 449 546 452 545 454C542 459 507 461 507 470C507 478 538 502 544 506C577 532 580 542 583 542C585 542 589 533 595 519C601 505 610 485 620 468C624 463 626 459 626 456C626 450 619 449 603 449ZM435 497C446 497 454 506 454 516C454 527 442 535 439 535C435 535 416 529 416 514C416 505 422 497 435 497ZM634 500C642 500 651 513 651 522C651 527 646 532 641 532C632 532 623 526 623 516C623 508 628 500 634 500ZM196 511C191 511 188 518 188 523C188 527 190 529 197 529C201 529 207 528 207 524C207 519 201 511 196 511ZM436 503C431 503 425 507 425 511C425 519 431 524 436 524C441 524 445 519 445 513C445 506 440 503 436 503ZM636 510C631 510 630 515 630 517C630 520 633 521 638 521C641 521 644 519 644 517C644 512 640 510 636 510ZM656 453C653 453 652 454 652 456C652 458 678 515 688 515C694 515 725 489 725 481C724 466 656 453 656 453ZM326 395C322 395 317 399 309 407L295 420L303 428C317 442 330 463 341 479C351 495 359 508 363 508C366 508 375 505 375 498C375 492 370 481 355 455C351 449 348 438 344 428C338 411 333 395 326 395ZM175 254C170 254 150 311 150 383C150 442 170 505 181 505C181 505 215 503 215 495C215 489 202 467 193 467C186 467 159 456 159 442C159 430 174 417 188 417C197 417 210 421 210 437C210 443 208 450 208 455C208 460 223 482 229 482C231 482 233 478 233 468C234 436 262 450 269 436C272 430 280 423 280 418C280 413 264 385 254 372C249 366 238 348 226 328C206 294 182 254 175 254ZM696 468C704 468 712 474 712 482C712 490 700 502 694 502C691 502 678 499 678 486C678 478 686 468 696 468ZM570 462C582 462 593 473 593 483C593 492 583 500 571 500C559 500 545 493 545 483C545 472 558 462 570 462ZM697 476C691 476 687 481 687 485C687 489 692 494 696 494C701 494 705 488 705 483C705 480 703 476 697 476ZM385 349C382 349 373 357 360 367L338 383L344 394L358 429C370 460 376 459 376 462C376 469 389 491 394 491C396 491 428 477 428 464C428 462 427 460 425 458C422 455 414 430 406 404C397 377 388 349 385 349ZM565 471C561 471 557 475 557 480C557 484 562 491 566 491C572 491 580 484 580 483C580 482 574 471 565 471ZM254 455C248 455 245 459 245 464C245 472 254 479 257 479C259 479 268 471 268 465C268 457 258 455 254 455ZM457 327C447 327 401 336 401 342C401 346 405 360 411 378C417 396 421 410 425 421C435 452 438 462 445 462C452 462 471 452 477 452C479 452 480 451 480 446C480 429 472 388 466 359C462 343 460 331 460 328C460 327 459 327 457 327ZM728 376 716 378C711 380 701 380 693 380H673L675 399C676 408 677 421 677 427C677 437 678 438 698 447C712 454 720 457 724 457C728 457 729 455 729 450C729 446 728 442 728 405ZM188 429C180 429 173 433 173 439C173 444 184 451 188 451C191 451 201 440 201 436C201 435 196 429 188 429ZM529 318C521 318 494 322 479 324C477 325 475 325 475 331C475 340 479 362 492 420L498 443L528 439C543 436 550 432 550 420C550 417 549 413 548 409C542 380 539 358 537 344C535 326 534 318 529 318ZM627 380C626 380 625 381 625 385C625 390 628 399 628 413C628 423 630 433 659 437C660 437 661 430 661 421C661 412 660 401 660 397C658 388 657 388 645 388C623 388 631 380 627 380ZM818 249C817 249 817 252 817 258C817 280 780 305 746 305H736V356L751 350C777 340 782 337 787 321C792 306 800 301 809 301C822 301 837 317 837 330C837 346 818 350 812 350C806 350 805 348 802 348C797 348 787 352 770 359L739 374V404C739 424 740 434 743 434C746 434 752 396 793 396C834 396 833 433 838 433C842 433 844 379 844 364C844 293 822 249 818 249ZM601 309C596 309 587 312 568 313L547 315C563 431 563 424 563 427C564 430 579 431 593 431C614 431 615 429 615 425C615 405 608 319 605 313C604 310 604 309 601 309ZM511 32C419 32 404 45 400 46L388 48C379 50 318 82 299 94C273 111 206 182 206 192C211 192 231 165 239 165C245 165 247 177 257 196L284 248L273 259C268 264 261 269 260 269C256 269 238 288 229 293C229 294 228 295 228 297C228 305 240 322 250 337C258 349 266 360 266 364C266 366 267 368 269 368C271 368 286 393 286 400C286 402 287 403 289 403C293 403 319 385 319 373C319 367 306 319 294 319C292 319 271 315 271 293C271 272 291 267 300 267C316 267 327 287 327 291C327 301 312 316 312 318C312 321 328 363 336 363C341 363 380 335 380 332C380 324 371 298 362 281C353 262 311 122 311 120C311 115 382 92 398 92C402 92 403 94 403 98C403 109 407 101 410 115L418 151C421 163 422 171 422 177C422 189 411 194 396 194C383 194 355 206 355 217C355 228 393 325 399 325C403 325 411 323 419 320C429 317 440 314 446 314C450 314 455 313 455 312C455 312 450 247 438 241C431 238 422 225 422 216C422 204 439 191 455 191C469 191 479 201 479 217C479 237 458 235 458 247C458 251 468 308 472 308C478 308 498 302 514 302C525 302 530 301 530 294C530 293 526 271 520 242C509 184 493 96 493 88C493 76 549 71 560 71C571 71 574 75 576 85C576 86 592 154 592 167C592 170 582 171 570 173C551 174 526 177 526 191C526 205 540 295 544 295C547 295 559 294 572 291L601 285L600 271C596 236 595 232 586 230C572 226 565 218 565 207C565 200 571 176 593 176C607 176 622 188 622 202C622 211 615 226 610 228C609 228 608 231 608 235C608 251 614 282 615 284C616 286 624 287 633 287H649C648 278 647 263 646 246C645 238 645 228 644 219C641 177 638 130 634 108C633 101 632 95 632 91C632 81 636 79 648 79H673C658 67 601 46 601 46C580 35 545 32 511 32ZM644 354C637 354 632 359 632 363C632 370 641 376 646 376C651 376 655 373 655 366C655 359 649 354 644 354ZM666 308 668 334C670 349 672 361 674 362C675 362 680 365 690 365C698 365 710 363 725 359V310ZM619 308V319C619 325 620 351 625 351C629 351 633 342 642 342C647 342 650 346 653 346C655 346 655 343 655 334C655 310 653 308 636 308ZM75 263C78 263 79 266 79 271C79 282 101 285 114 285C121 285 126 284 126 284V282C126 279 129 276 131 276C134 276 135 282 135 288C135 295 133 304 131 304C129 305 127 304 127 301C127 293 114 291 104 291C99 291 95 292 95 293C95 294 104 304 113 315C122 325 131 335 131 336C131 337 129 338 128 338C119 338 96 329 85 329C72 329 78 350 68 350C66 350 64 347 64 342C64 325 65 322 77 322H86L104 323L87 301C76 286 70 275 70 268C70 265 71 263 75 263ZM905 267C913 267 922 270 925 273C928 276 935 317 935 329C935 333 933 335 930 335C922 335 931 326 910 326C876 326 878 338 872 338C866 338 865 319 865 310C865 301 867 297 869 297C874 297 878 314 886 314C889 314 895 309 895 305C895 300 885 296 885 293C885 290 890 287 898 287C904 287 909 288 909 291C909 296 901 296 901 304C901 308 904 311 910 311C916 311 923 309 923 301C923 276 897 278 897 270C897 268 901 267 905 267ZM812 315C805 315 800 319 800 325C800 332 807 337 813 337C822 337 826 330 826 326C826 319 818 315 812 315ZM293 278C287 278 283 283 283 291C283 301 287 304 293 304C300 304 310 296 310 289C310 280 297 278 293 278ZM699 98C705 118 706 146 706 151C706 165 701 166 678 170C656 173 656 173 656 176C656 179 657 187 657 196C659 214 661 239 661 262C661 272 663 282 665 285C669 290 691 295 707 295C722 295 722 292 722 281C722 263 718 227 715 227C708 227 694 211 694 203C694 195 715 173 723 173C727 173 748 179 748 207C748 226 733 210 733 253C733 286 735 290 743 290C765 290 806 282 806 249C806 237 794 231 785 231C771 231 767 243 767 248C767 253 769 257 773 257C775 257 780 255 780 250C780 247 779 244 779 242C779 240 780 239 782 239C788 239 793 248 793 258C793 267 785 273 775 273C762 273 752 261 752 254C752 243 756 216 786 216C798 216 803 224 806 224C807 224 808 223 808 222C808 209 746 121 712 104ZM236 187C231 187 185 235 185 240C185 242 187 246 188 248C191 251 196 258 201 265C206 273 212 281 214 281C217 281 228 268 253 255L268 248ZM454 203C445 203 436 207 436 214C436 220 443 229 451 229C460 229 466 220 466 212C466 207 463 203 454 203ZM597 189C588 189 580 193 580 202C580 210 585 214 592 214C600 214 612 209 612 201C612 196 605 189 597 189ZM723 185C718 185 710 193 710 201C710 208 715 214 722 214C729 214 739 203 739 200C739 197 729 185 723 185ZM392 110C387 110 380 113 373 115C364 119 355 122 346 123C333 125 329 127 329 131C329 137 341 148 341 168C341 183 347 187 354 187C365 187 379 179 386 178C403 175 408 172 408 164C408 159 405 150 403 141C400 131 397 122 397 117C397 111 396 110 392 110ZM551 87C550 87 510 88 510 97C510 102 513 110 517 131C521 157 521 163 528 163C533 163 542 160 558 158L573 156L572 136C572 125 570 112 569 109C562 96 568 87 551 87ZM646 89V102C646 113 649 159 656 159C681 152 690 159 690 150C690 149 684 96 681 92C680 90 672 89 663 89ZM682 -21C703 -21 730 1 730 8C730 9 729 10 728 10C725 10 723 9 721 9C712 9 690 40 690 45C690 47 695 53 695 57C695 58 694 59 691 59C688 59 670 45 670 44C670 41 685 31 685 26C685 23 682 21 679 21C672 21 660 32 654 32C652 32 630 24 630 10C630 3 631 0 634 0C640 0 638 17 652 17C660 17 669 10 669 6C669 4 664 4 664 -5C664 -16 669 -21 682 -21ZM314 -17C338 -17 355 6 355 26C355 43 341 56 320 56C291 56 286 24 286 12C286 -13 306 -17 314 -17ZM306 -3C300 -3 298 1 298 5C298 21 316 43 333 43C339 43 342 40 342 34C342 18 320 -3 306 -3ZM688 -13C685 -13 681 -7 681 -2C681 4 686 8 691 8C694 8 702 6 702 -2C702 -6 700 -10 697 -10C694 -10 690 -13 688 -13Z" fill="#f59e0b" stroke="none"/>
  </g>
</svg>