<svg xmlns="http://www.w3.org/2000/svg" viewBox="-50 -50 1100 1100">
  <g transform="translate(0, 1000) scale(1, -1)">
    <path d="M487 -85C544 -85 593 -76 600 -75C664 -67 783 -1 836 58C910 139 946 242 946 242C962 298 967 345 967 385C967 461 947 509 940 534C924 595 857 690 797 739C736 789 696 810 624 828L585 839C575 842 531 843 492 843C472 843 453 843 442 842C348 834 252 777 218 749L185 723C157 701 108 638 88 594L71 562C33 486 32 365 32 365C32 338 37 290 67 201C95 116 199 22 213 12L240 -9C264 -28 371 -85 487 -85ZM497 -77C438 -77 424 -75 356 -54C163 8 74 189 66 227C64 238 60 252 56 266C52 280 48 294 47 302L41 335C41 340 40 350 40 362C40 391 45 439 60 509C70 553 125 649 166 692C229 758 264 769 280 779C336 815 420 838 505 838C614 838 714 789 753 762C819 717 896 628 917 571C917 571 933 550 957 433C958 425 959 413 959 400C959 258 922 194 867 109C850 81 803 34 778 18C726 -15 696 -34 693 -34C684 -34 634 -77 497 -77ZM488 -73C770 -73 952 153 952 381C952 532 881 626 868 644C857 651 745 832 501 832C368 832 236 774 146 662C118 627 72 541 64 509C53 460 46 411 46 370C46 355 47 341 49 328C74 158 137 97 240 8C277 -23 388 -73 488 -73ZM506 -58C416 -58 319 -34 254 14C142 96 94 179 63 302C59 318 59 338 59 360C59 429 73 511 81 520C84 524 86 540 91 545C93 547 97 554 102 564C119 599 156 671 225 724C238 734 251 742 253 742C266 742 264 767 390 808C412 816 467 820 512 820C618 820 722 764 745 748C778 726 852 650 877 610C899 575 941 479 941 391C941 304 910 213 901 202C895 196 834 46 689 -16L657 -30C615 -49 562 -58 506 -58ZM499 750C504 750 508 759 513 769C519 781 526 795 536 800C542 802 544 805 544 806C544 810 533 812 523 812C516 812 510 811 510 810C510 806 514 805 514 801C514 792 506 773 501 773C498 773 485 790 485 796C485 801 491 800 491 806C491 808 483 809 474 809C462 809 446 808 446 802C446 799 449 797 455 796C464 794 474 780 483 767C490 758 496 750 499 750ZM491 25C519 25 548 27 587 34C657 46 745 116 777 160C798 188 820 223 824 232C848 294 855 344 855 385C855 443 839 484 826 518C773 655 634 736 495 736C370 736 279 666 234 616C213 592 177 534 168 510C148 459 145 434 145 348C145 274 188 184 252 123C326 52 427 25 491 25ZM450 423C446 423 441 423 435 424C393 427 397 424 395 448C395 456 394 471 394 488C394 561 397 580 397 589C397 598 393 605 359 605C347 605 333 604 320 604C268 604 285 620 268 620C264 620 261 621 261 622C261 624 348 724 499 724C658 724 783 611 818 505L824 494L794 493C787 493 766 494 746 494C726 494 706 493 703 490C702 489 701 480 701 467V459L702 431H675C650 431 648 431 646 438V527C646 561 643 558 613 559C547 560 511 561 491 561C472 561 469 560 468 559C466 556 464 517 464 467V448C464 427 463 423 450 423ZM258 578C251 578 245 586 245 594C245 605 257 608 262 608C268 608 271 605 271 598C271 591 267 578 258 578ZM495 37C470 37 447 40 430 45C326 75 284 103 225 174C196 210 170 274 162 308C159 321 157 347 157 373C157 502 207 557 219 575C225 585 229 590 231 590C232 590 233 588 233 586C233 579 251 566 259 566C264 566 270 570 276 578C286 589 287 590 305 590H323L322 530C322 523 322 516 321 509C321 478 320 452 320 431C319 397 318 373 318 357C318 329 319 322 321 320C323 319 344 318 367 318H409L411 293C413 262 413 260 444 260C471 260 475 260 475 288V301C475 313 476 314 487 314C497 314 498 313 498 300V291C498 271 497 237 496 200L494 154H482C454 154 451 181 447 181C444 181 443 173 443 150C443 126 444 115 448 115C459 115 456 140 481 140H494V127C494 97 462 88 462 81C462 76 465 76 477 76H491C529 76 539 77 539 80C539 88 508 106 508 126C508 133 510 140 517 140C542 140 538 116 548 116C552 116 554 123 554 148C554 175 553 181 548 181C545 181 543 178 543 174C543 165 530 154 521 154H511L512 267V316C512 380 513 401 524 401C529 401 532 399 532 348C532 318 531 279 531 251C531 206 532 206 554 206H556C569 206 572 207 574 211C577 218 577 247 577 281C577 335 578 400 589 400C594 400 595 399 595 373C595 321 593 291 592 269C592 257 591 246 591 236C591 213 592 206 634 206C654 206 653 213 655 264V305C655 325 656 325 668 325H680L682 305C683 300 682 296 682 293C682 280 684 281 700 279H715V235C714 189 711 189 706 189C690 189 687 209 679 209C675 209 674 204 674 184C674 169 675 151 680 151C687 151 690 175 702 175C708 175 713 168 713 159C713 139 692 133 692 124C692 121 697 119 706 119C712 119 717 117 717 116C717 111 651 71 630 63C589 46 539 37 495 37ZM619 221C607 221 605 222 605 238C605 245 606 254 606 265C606 305 606 360 607 377V411C597 414 589 415 582 415C569 415 563 411 563 406C563 398 569 404 569 387C569 384 569 377 568 367C566 345 564 309 564 270V249C564 227 562 224 552 224H543L544 277C544 287 545 299 545 312C547 340 548 373 548 393C548 403 547 410 546 411C544 412 530 413 521 413C501 413 500 407 498 367L497 329L460 327L462 276L444 274C440 273 437 273 434 273C425 273 423 276 423 290L424 314C424 331 419 332 385 332H330L331 353C332 368 333 372 334 375C335 380 336 384 336 409C336 431 335 460 335 488C335 586 340 588 348 588C353 588 359 587 370 587H382L381 502V470C381 440 382 417 383 415C384 414 426 410 453 410C465 410 474 410 476 413C477 415 478 436 478 460C479 470 479 480 479 490C479 501 480 511 480 520C480 534 480 544 481 545C482 546 500 547 517 547H528C547 547 548 546 548 533C548 505 548 500 537 500C522 500 512 524 510 524C506 524 505 512 505 499C505 485 506 467 510 467C517 467 514 487 537 487H549V473C549 443 526 448 526 437C526 435 536 433 551 433C567 433 587 436 587 441C587 446 562 450 562 470C562 486 563 487 565 487H567C575 487 594 481 594 471C594 467 596 465 600 465C606 465 608 469 608 485C608 490 608 521 602 521C596 521 602 504 575 502L562 501V516C562 522 561 526 561 529C561 541 563 544 580 544C584 544 590 544 598 543L631 542L632 484C632 452 633 425 633 424C633 419 651 417 671 417C689 417 709 419 712 422C714 424 715 438 715 452V481L762 480C792 479 809 477 811 475C812 474 812 464 812 450C812 421 811 373 808 362C806 353 806 353 789 353C759 353 757 351 755 323C755 311 753 298 752 296C750 294 740 293 723 293H719C698 293 694 293 694 304L695 318C695 336 683 338 666 338C650 338 645 337 644 333C643 329 642 308 642 285C642 259 641 230 639 226C637 223 627 221 619 221ZM734 137C729 137 726 142 726 159C726 172 728 176 730 176C737 176 748 158 754 158C758 158 759 177 759 190C759 200 758 210 756 211C754 212 753 210 753 208C753 202 737 189 731 189C729 189 729 191 729 199V241L730 279H766L767 303C768 334 768 340 778 340C784 340 793 338 801 338C819 338 824 345 824 432C824 461 825 484 826 484C826 484 844 455 844 394C844 234 747 137 734 137ZM927 345C930 345 932 351 932 359C932 369 930 372 927 372C924 372 918 368 911 368C900 368 881 372 881 385C881 394 896 398 910 398C928 398 926 393 930 393C931 393 932 394 932 398C932 402 931 425 925 425C922 425 921 423 921 421C921 411 873 418 873 385C873 378 874 371 875 369C879 362 892 359 903 356C912 354 920 352 923 348C924 346 926 345 927 345ZM128 338C131 338 132 343 132 355C132 372 136 386 136 396C136 414 113 416 113 416C109 416 108 410 108 409C108 400 125 398 125 385C125 383 124 379 124 375L122 359H95C75 359 71 361 71 369C71 374 70 377 67 377C63 377 62 373 62 359C62 349 63 341 65 341C67 341 68 342 68 343C68 344 74 345 82 345C126 345 127 338 128 338ZM494 -56C496 -56 500 -48 505 -39C513 -22 524 0 536 3C540 4 542 6 542 8C542 11 536 14 528 14C521 14 514 11 514 7C514 6 515 5 515 2C515 -6 506 -12 497 -12C485 -12 479 -3 479 -1C479 1 481 2 484 2C486 2 488 4 488 6C488 10 478 14 467 14C458 14 452 11 452 8C452 6 454 5 458 3C463 2 474 -16 474 -23C474 -28 491 -56 494 -56ZM497 -32C496 -32 490 -26 490 -22C490 -20 491 -19 494 -19C500 -19 502 -20 502 -23C502 -23 500 -32 497 -32Z" fill="#f59e0b" stroke="none"/>
  </g>
</svg>