<svg xmlns="http://www.w3.org/2000/svg" viewBox="1 -119 998 999">
  <g transform="translate(0, 761) scale(1, -1)">
    <path d="M509 -89C578 -89 668 -60 708 -40C747 -20 806 24 838 56C855 74 895 124 895 129C895 131 969 237 969 382C969 541 887 645 883 651C868 673 810 737 789 753C750 782 669 822 626 834C587 844 532 850 487 850C359 850 192 771 112 645C56 558 31 483 31 376C31 191 136 64 218 3C244 -16 313 -53 343 -63C385 -77 458 -89 509 -89ZM516 -79C439 -79 353 -62 315 -43C212 9 219 19 211 19C208 20 146 82 134 97C109 129 68 205 63 230C62 237 59 243 57 251C50 273 41 302 41 367C41 423 49 485 65 532C80 575 127 668 210 734C326 826 439 840 504 840C578 840 677 821 779 746C825 713 886 638 913 581C941 523 960 438 960 376C960 351 948 267 936 234C925 206 886 132 874 115L854 88C810 29 677 -79 516 -79ZM515 -73C581 -73 658 -52 715 -19C859 64 895 162 913 193C938 234 955 319 955 385C955 401 954 415 951 428C933 538 911 600 837 685C794 734 768 754 714 782C640 820 589 835 506 835C478 835 447 833 430 830C272 804 45 661 45 373C45 282 72 201 112 139L131 110C134 106 154 85 174 64C268 -30 371 -73 515 -73ZM500 -63C483 -63 470 -62 459 -60C310 -39 297 -8 288 -8C274 -8 186 60 152 104C123 143 57 236 57 377C57 417 62 462 76 510C82 530 116 600 128 617C158 659 200 708 220 721C227 726 235 731 242 737C272 760 311 790 416 815C441 821 450 822 474 822C605 822 649 801 693 779C771 741 818 697 870 620C887 596 906 557 911 540L921 510C935 461 941 424 941 384C941 302 910 209 902 199C901 198 893 184 883 167C870 143 853 114 850 112C850 112 795 44 758 22L727 3C696 -16 664 -31 650 -36C582 -58 535 -63 500 -63ZM529 739C539 739 546 742 546 745C546 746 544 748 539 749C531 751 531 752 531 777C531 816 540 809 540 814C540 817 535 818 524 818C514 818 507 816 507 813C507 808 517 815 517 794V780L505 781C497 782 493 782 493 795C493 808 503 809 503 813C503 816 499 818 482 818C473 818 463 816 463 814C463 812 465 810 469 809C474 808 475 805 475 781C475 759 474 755 469 752C465 749 463 747 463 746C463 743 469 742 481 742C494 742 502 743 502 746C502 749 492 746 492 763C492 768 493 772 496 772C501 773 506 775 509 775C514 775 517 769 517 763C517 750 508 748 508 745C508 741 521 739 529 739ZM496 23C572 23 651 58 652 58C673 58 842 171 852 337C854 373 856 368 856 382C856 470 813 545 813 552C813 558 759 647 669 694L649 705C638 712 608 722 575 731C573 731 535 735 492 735C465 735 436 734 413 728C247 683 193 553 189 553C189 553 145 489 145 365V362C145 277 193 190 205 175C239 132 295 84 333 64C359 50 443 23 496 23ZM679 385V434C679 506 683 476 693 502C695 506 695 508 695 510C695 514 682 531 671 531C663 531 646 522 646 508C646 502 649 495 656 487C666 476 666 476 666 449C666 434 666 414 664 403L662 386L639 387V544C637 545 573 546 573 546C541 546 541 534 541 520V442L540 387L517 386V478L525 487C532 494 535 501 535 507C535 520 515 531 506 531C496 531 480 516 480 505C480 499 484 493 491 486C501 477 501 476 501 452C501 440 501 419 499 408L497 388L467 390L466 466V490C466 550 464 553 436 553H415C381 553 379 551 379 496V435L378 390H351C336 390 321 392 319 393C317 393 316 397 316 407C316 428 319 449 319 459C319 473 315 482 299 482C291 482 285 484 285 487C285 488 291 496 299 505C311 521 327 541 327 546C327 548 326 550 324 552C321 554 269 558 243 558C220 558 210 555 210 548C210 539 228 524 229 520C229 516 249 500 249 494C249 492 251 490 252 490C254 490 256 488 256 487C256 485 250 484 244 484C224 484 223 482 223 436V430C223 397 223 392 212 392C199 392 200 413 181 413C178 413 173 412 168 411L156 406C157 414 159 423 163 446C178 543 254 623 278 643C317 674 380 705 430 717C449 722 473 723 494 723C604 723 654 688 687 667C730 638 745 625 771 592C795 563 803 552 803 547C803 542 792 541 751 540L701 539L703 385ZM226 625C229 625 262 658 262 662C262 663 261 664 259 664C253 664 249 659 245 659C240 659 216 678 216 687C216 692 219 697 219 702C219 705 218 706 216 706C207 706 179 676 179 665C179 663 180 662 182 662C186 662 193 669 197 669C203 669 230 649 230 643C230 638 223 634 223 628C223 626 224 625 226 625ZM781 610C784 610 786 613 787 620C789 628 806 687 806 694C806 695 804 697 800 697C794 697 784 692 774 687C763 681 750 675 741 675C735 675 734 678 729 678C727 678 726 677 726 675C726 668 741 652 745 652C749 652 746 666 756 666C764 666 776 654 776 645C776 642 775 640 772 640H769C766 640 764 638 764 635C764 629 774 610 781 610ZM782 657 768 673 778 679C782 682 785 683 787 683C788 683 789 682 789 679C789 677 788 673 786 667ZM271 497C268 497 231 538 231 542C231 543 247 544 263 544C278 544 302 544 302 542C302 537 275 497 271 497ZM390 391 392 426C393 442 394 455 394 467C394 475 395 482 395 488C396 514 397 530 399 533C401 536 408 537 421 537H426L449 536V391ZM556 387V457C556 496 557 528 557 529C558 530 571 530 588 530H623L624 474C625 458 625 442 625 429C625 416 625 405 624 401L623 387ZM795 502C788 502 783 505 783 511C783 520 792 528 799 528C805 528 809 523 809 518C809 513 806 511 806 509C806 507 807 507 807 506C807 504 801 502 795 502ZM772 224 747 225C733 225 720 226 717 226C713 226 712 229 712 259V297L713 368L724 369C736 369 746 356 759 356C770 356 786 370 786 386C786 401 772 412 759 412C734 412 738 386 726 386C724 386 720 386 716 387V476C716 503 716 523 717 524C717 526 730 526 746 526H773C771 519 770 515 770 511C770 503 780 488 792 488C797 488 803 490 809 494L822 501L825 487C831 466 843 434 843 382C843 328 825 258 822 258C817 258 807 271 793 271C777 271 763 255 763 243C763 236 768 230 772 224ZM512 490C504 490 495 497 495 505C495 511 501 517 506 517C510 517 520 514 520 501C520 494 518 490 512 490ZM671 494C663 494 655 501 655 508C655 513 661 517 667 517C674 517 682 512 682 505C682 500 678 494 671 494ZM302 393 271 394C253 395 238 396 237 397C236 397 236 405 236 415C236 434 237 461 239 463C240 465 254 466 272 466H304ZM868 326C870 326 873 329 876 335C881 344 897 352 912 359C926 366 938 372 938 378C938 382 935 385 924 388C874 402 875 421 870 421C866 421 865 418 865 413C865 407 868 386 872 386C876 386 878 393 881 393C885 393 889 386 889 377C889 368 883 361 877 361C873 361 870 366 867 366C864 366 862 360 862 350C862 339 863 326 868 326ZM88 351C95 351 101 352 101 357C101 364 75 365 75 374C75 375 82 376 90 376C141 376 119 353 129 353C133 353 134 396 134 401C134 402 131 405 129 405C128 405 126 404 126 401C126 391 117 388 106 388C95 388 75 392 75 394C75 401 104 407 104 413C104 417 99 418 92 418C68 418 66 411 66 406C66 402 68 396 68 388C68 375 65 364 65 359C65 354 70 351 88 351ZM172 370C164 370 160 376 160 383C160 394 170 400 178 400C187 400 192 394 192 388C192 382 180 370 172 370ZM757 370C750 370 746 377 746 383C746 392 754 397 762 397C768 397 773 393 773 387C773 379 765 370 757 370ZM897 369C895 369 895 371 895 376V378C895 383 895 384 896 384C899 384 915 380 915 376C915 373 900 369 897 369ZM494 31C464 31 384 53 343 73C305 92 251 137 222 175C222 175 198 196 171 277C163 298 154 345 154 358C154 359 154 360 156 360C158 360 164 357 171 357C186 357 199 376 211 376H220V311C220 293 221 276 221 263C221 237 220 234 220 231C220 215 229 214 303 213H373C384 228 384 212 388 366C388 372 389 373 399 373C411 373 412 373 412 352V327C412 258 408 151 405 151C389 151 369 164 369 175C369 179 367 181 365 181C360 181 359 178 358 139C358 124 357 116 357 112C357 109 358 107 361 107C370 107 375 132 382 134C393 137 398 140 402 140C407 140 408 133 408 127C408 92 373 93 373 84C373 77 414 76 429 76C447 76 458 78 459 83C460 87 458 88 452 88C438 88 421 112 421 131C421 138 421 141 423 141C440 141 454 109 464 109C467 109 468 109 468 112C468 117 465 129 465 153V159C465 173 463 178 461 178C454 178 442 151 428 151C423 151 422 151 422 166C422 184 423 219 425 294C427 376 427 376 430 376C435 376 446 373 448 372L446 298V253C446 231 447 221 449 219C452 215 478 212 501 212C521 212 542 214 545 218C549 222 550 233 550 296V318C550 364 551 372 562 372C565 372 570 371 576 370L589 369L588 285C587 255 587 231 587 213C587 162 587 151 577 151C546 151 549 183 540 183C536 183 532 157 532 136C532 120 534 107 539 107C544 107 560 137 579 137C584 137 586 130 586 126C586 100 553 91 553 85C553 82 560 81 574 81C584 81 622 83 622 88C622 91 598 91 598 130C598 136 599 136 604 136C621 136 629 107 633 107C636 107 637 118 637 144C637 174 636 181 632 181C630 181 627 177 626 172C624 164 609 149 603 149C600 149 600 154 600 176C600 195 600 229 602 286L604 368L624 370V269C624 208 624 208 628 208C632 208 639 212 662 212H671L695 211V149L685 143C674 138 667 128 667 120C667 112 673 105 688 102L700 99L688 91C667 77 656 71 654 71C654 71 564 31 494 31ZM234 226V372C234 375 243 376 271 376C280 376 291 376 304 375L373 374L371 303C370 263 368 230 367 229C365 227 352 227 329 227H271ZM509 226C491 226 470 229 463 234C461 234 460 246 460 263C460 275 461 290 461 304C462 318 462 332 462 343C462 370 457 367 457 369C457 371 462 372 470 372C479 372 493 370 517 370H536V344C536 329 535 297 535 273L534 227L516 226ZM696 222 668 224C651 225 639 227 638 227C637 228 636 282 636 325V352L637 371L650 369C658 368 672 367 682 367H698V302C698 257 697 237 696 222ZM793 227C786 227 777 232 777 243C777 251 782 259 791 259C800 259 805 250 805 242C805 234 801 227 793 227ZM727 121C725 121 724 123 724 127C724 144 708 129 708 175C708 192 710 203 712 206C717 212 752 212 777 212C789 212 799 212 803 213C803 212 802 204 794 200L779 181C760 157 732 121 727 121ZM696 110C684 110 681 120 681 123C681 130 688 136 697 136C707 136 714 128 714 122C714 115 705 110 696 110ZM223 52C224 52 226 54 226 55C226 58 220 59 220 65C220 71 236 93 246 93C249 93 251 92 255 92C257 92 259 93 259 94C259 98 243 109 240 109C238 109 237 108 237 106C237 101 222 84 218 84C217 84 217 85 217 86C217 91 226 114 226 127C226 131 225 134 222 134C213 134 199 109 177 109C171 109 167 111 165 111C163 111 162 110 162 108C162 103 170 96 171 95L180 88L192 101C198 108 205 112 207 112H209C210 112 210 112 210 110C210 108 201 80 201 72C201 67 217 52 223 52ZM789 51 799 61C807 68 811 79 811 90C811 116 789 123 780 123C767 123 763 110 755 110C753 110 752 111 750 111C748 111 748 110 748 109C748 100 759 94 759 87C759 84 754 77 754 73C754 72 754 71 755 71C760 71 780 90 780 95C780 96 778 97 776 97L772 96C769 96 766 100 766 104C766 109 770 113 774 113C785 113 802 93 802 82C802 75 797 70 789 70C785 70 780 72 778 72C775 72 774 71 774 69C774 67 776 63 781 59ZM488 -58H507L529 -55C524 -34 522 -21 522 -14C522 2 532 1 532 9C532 11 531 12 529 12C524 12 521 7 505 7C488 7 482 12 478 12C471 12 467 -6 467 -9C467 -12 468 -13 470 -13C477 -13 482 1 497 1H500C503 1 509 -1 509 -16C509 -18 509 -19 508 -19C504 -19 495 -12 492 -12C489 -12 489 -15 489 -23C489 -32 492 -37 495 -37C499 -37 502 -29 507 -29C509 -29 510 -31 510 -36C510 -47 508 -50 496 -50C479 -50 478 -29 470 -29C467 -29 466 -29 466 -31C466 -33 467 -37 469 -44C472 -55 476 -58 488 -58Z" fill="#f59e0b" stroke="none"/>
  </g>
</svg>