<svg xmlns="http://www.w3.org/2000/svg" viewBox="-50 -50 1100 1100">
  <g transform="translate(0, 1000) scale(1, -1)">
    <path d="M506 -91C631 -91 651 -60 667 -60C681 -60 793 -14 872 92C889 114 914 155 914 159C914 161 919 170 924 179C941 207 965 281 965 327C965 342 967 350 968 358C970 365 971 372 971 383C971 432 951 526 931 568C925 579 920 590 920 591C920 593 914 603 907 614C897 629 893 636 890 642C884 655 881 661 842 704C782 771 679 827 592 841C583 842 576 844 569 845C546 849 532 851 512 851C503 851 493 851 480 850C319 835 247 771 244 771C241 771 209 746 183 725C151 699 107 639 107 634C107 634 75 580 54 526C41 493 29 434 29 353C29 333 31 323 36 299C54 216 72 171 121 100C131 86 196 18 211 7C261 -31 359 -75 420 -85C441 -89 474 -91 506 -91ZM498 -81C468 -81 435 -78 399 -71C354 -61 273 -25 232 2C212 16 102 111 70 211C45 289 39 322 39 358C39 499 81 570 101 602C106 611 110 617 110 621C110 622 117 633 124 644C175 716 209 734 230 749C321 816 390 824 390 824C418 835 465 839 505 839C530 839 554 837 565 835L605 827C695 810 740 771 744 771C751 771 845 710 902 601C911 584 940 549 959 410C961 402 961 393 961 382C961 340 952 281 938 232C933 212 897 142 886 126C844 70 807 28 785 15L750 -8C736 -17 715 -29 702 -35L674 -49C674 -49 601 -81 498 -81ZM500 -75C559 -75 624 -64 692 -33L718 -22C734 -15 816 35 867 111C911 178 920 193 931 232C946 286 954 333 954 378C954 489 897 609 874 640C835 691 726 833 504 833C408 833 313 805 239 749L199 720C184 709 144 664 127 638C66 545 46 474 46 365C46 338 48 314 53 296L62 258C67 235 84 190 92 175C117 124 179 51 228 14C270 -18 369 -75 500 -75ZM513 -66C504 -66 494 -65 480 -64C371 -54 374 -44 349 -35C272 -9 243 3 170 85C127 132 110 158 83 224C81 230 62 287 62 299C62 304 61 312 61 321C60 336 58 355 58 379C58 435 67 512 116 598L130 623C144 648 183 693 203 708L276 761C292 771 352 798 364 801C365 801 433 822 507 822C525 822 546 820 564 817L605 809C629 804 682 785 700 776C788 730 879 634 908 553C934 482 942 419 942 367C942 253 899 189 899 187C899 187 835 67 757 16L727 -4C673 -39 550 -66 513 -66ZM503 746C513 746 527 756 527 763C527 766 526 767 524 767C520 767 519 758 507 758C497 758 491 764 491 777C491 791 499 805 509 805C512 805 519 803 519 796C519 792 522 782 526 782C528 782 530 787 530 800C530 812 529 817 526 817C523 817 521 813 517 813C513 813 509 818 502 818C495 818 472 810 472 785C472 767 487 746 503 746ZM502 22C565 22 634 36 693 77C699 81 740 100 778 151C830 219 845 257 857 356C858 364 859 373 859 383C859 422 851 469 835 508L827 526C819 546 808 568 798 579L774 609C769 616 757 630 749 637L720 665C700 684 660 704 657 704C657 704 573 738 500 738C471 738 444 733 409 724L369 713C355 710 311 685 289 669C226 621 186 545 183 545C174 545 142 442 142 370C142 360 143 352 144 343C162 225 206 139 297 85C350 53 396 22 502 22ZM658 626 636 627C623 628 614 628 606 629C588 629 581 629 579 635C574 648 519 719 503 719C497 719 458 677 442 653L428 632L409 633H401C390 633 382 632 376 632C368 632 365 635 365 648C365 648 365 676 341 678L328 679L343 687C352 692 370 698 384 702L419 714C442 721 467 724 491 724C568 724 648 695 688 670L678 666C667 661 663 655 660 639ZM562 630 510 631C461 632 449 633 449 637C449 639 493 698 502 698C506 698 535 676 552 648ZM824 580C829 580 832 582 832 584C832 593 810 587 810 599C810 606 818 613 818 616C818 622 842 625 842 636C842 641 824 674 812 674C811 674 810 672 810 669C810 660 782 636 773 636H771C768 636 766 635 766 633C766 627 790 607 795 607C795 607 797 607 797 608C797 610 792 616 792 622C792 627 795 632 799 632C804 632 805 628 805 625C805 618 801 609 801 600C801 584 812 580 824 580ZM187 584C191 584 206 595 206 597C206 603 229 622 229 631C229 636 223 651 217 651C212 651 211 641 209 631C208 620 207 609 201 609C199 609 197 610 195 614C189 623 167 640 167 650C167 655 174 654 174 661C174 663 173 665 171 665C168 665 138 633 138 629C138 627 138 626 139 626C142 626 147 632 149 632C159 632 188 605 188 600C188 598 184 594 184 587C184 585 184 584 187 584ZM338 632C323 632 314 636 314 642C314 648 323 662 337 662C351 662 352 645 352 643C352 638 349 632 338 632ZM371 60 360 65C243 118 206 192 194 217C167 272 156 314 156 370C156 483 191 523 191 535C191 537 237 604 276 640C290 652 298 659 301 659C302 659 303 658 303 658C303 655 299 651 299 643C299 626 306 622 330 620L352 618L351 584C351 584 341 481 341 387V367C342 295 398 260 398 251C398 250 396 250 396 250C385 250 359 273 342 308C339 314 323 324 323 450C323 490 315 532 304 552C299 560 278 572 269 572C230 572 232 527 229 526C222 524 217 511 217 502C217 496 219 491 223 491C226 491 228 490 228 489C228 485 214 475 214 463C214 442 228 451 228 442C228 437 215 434 215 425C215 415 230 404 230 402C230 395 216 390 216 379C216 374 219 368 229 359L222 351C217 344 215 338 215 334C215 323 228 318 228 309C228 303 226 302 226 295C226 273 251 274 251 269C251 266 242 263 242 260C242 257 234 249 234 242C234 229 257 229 257 218C257 208 264 198 269 198H272C273 198 274 198 274 197C274 194 270 190 270 187C270 178 290 166 290 163C290 161 295 155 301 150L321 128C328 120 330 118 335 118C340 118 368 122 368 138C368 143 365 150 353 150C335 150 332 139 327 139C326 139 325 140 325 141C325 147 335 155 335 159C335 160 334 161 331 161C322 161 321 156 316 156C311 156 303 161 303 164C303 168 317 174 317 182C317 184 316 186 313 186C307 186 301 177 293 177C287 177 280 183 280 188C280 195 299 202 299 211C299 214 299 215 297 215C293 215 284 207 277 207C271 207 267 216 267 218C267 224 290 239 290 243C290 245 288 246 285 246C276 246 259 238 250 238C247 238 245 239 245 242C245 247 253 255 261 263C268 269 274 276 274 279C274 282 272 283 267 283C261 283 258 282 252 282C242 282 236 286 236 291C236 297 243 303 250 309C257 314 264 320 264 325C264 327 263 328 261 328C256 328 248 325 240 325C233 325 230 327 230 331C230 344 257 359 257 367C257 369 255 370 251 370H244L231 368C235 405 257 404 257 414C257 415 255 416 253 416C248 416 240 414 237 414C231 414 229 416 229 419C229 429 257 451 257 456C257 457 255 457 252 457C244 457 238 455 232 455C228 455 228 457 228 461C228 475 257 490 257 496C257 498 254 499 247 499H238C230 499 228 501 228 507C228 514 233 519 243 519C257 519 261 526 261 531C261 546 252 544 252 549C252 554 258 557 265 557C274 557 283 552 287 543C295 527 303 490 303 464C303 416 308 326 334 282C344 265 390 228 403 226C407 225 423 208 461 208C465 208 470 209 475 209C480 209 482 208 482 206C482 203 477 197 463 184C448 169 393 94 378 70ZM693 627C689 627 678 628 678 632C678 636 690 651 695 651C701 651 713 638 713 635C713 633 709 627 693 627ZM822 634C817 634 811 641 811 646C811 649 813 650 816 650C824 650 827 645 827 641C827 637 825 634 822 634ZM634 59 577 132C577 132 524 195 524 205C524 208 529 208 551 208C586 208 598 213 629 238C655 259 663 268 679 299L696 331C696 332 697 339 707 366C714 385 718 429 722 465C725 492 727 515 730 520C733 525 749 533 757 533C762 533 764 531 764 528C764 523 756 521 756 510C756 502 762 494 771 494C777 494 779 492 779 487C779 464 754 469 754 460C754 447 779 455 779 437C779 433 777 432 775 432C772 432 768 434 764 434C759 434 757 432 757 429C757 419 779 405 779 398C779 393 774 390 766 390C760 390 756 392 751 392C748 392 746 391 746 389C746 383 760 372 760 361C760 358 758 355 750 355C742 355 738 353 738 351C738 343 752 345 752 331C752 319 748 319 745 319H733C729 319 726 318 726 316C726 310 741 292 741 284C741 279 737 278 732 278C727 278 720 280 715 280C710 280 709 278 709 277C709 273 729 255 729 250C729 247 724 245 720 245C709 245 714 251 706 251C703 251 701 250 701 247C701 242 716 233 716 222C716 217 712 213 705 213C698 213 691 216 688 216C686 216 685 215 685 213C685 206 695 204 695 190C695 185 693 181 689 181C685 181 681 189 675 189C673 189 672 188 672 186C672 177 683 173 683 165C683 161 680 158 675 158C667 158 660 166 656 166C655 166 654 165 654 163C654 157 660 144 660 139C660 136 659 136 659 136C656 136 648 147 641 147C635 147 630 142 630 133C630 123 637 110 650 110C664 110 674 123 674 134C674 140 669 144 669 145C669 146 671 147 674 147C682 147 695 156 695 163C695 170 707 169 707 182C707 203 729 197 729 213C729 216 728 219 728 222C728 235 742 235 742 248C742 254 738 259 738 263C738 269 756 268 756 282C756 291 747 301 747 306C747 308 749 308 752 308C758 308 767 317 767 325C767 331 763 335 763 339C763 347 773 345 773 358C773 360 772 363 772 366C772 381 791 378 791 395C791 402 788 409 788 416C788 425 795 427 795 438C795 447 787 453 787 460C787 464 791 466 791 480C791 495 785 493 785 498C785 503 790 507 790 515C790 526 777 550 759 550C714 550 711 515 701 435C688 326 671 324 671 313C671 308 622 242 606 242C605 242 605 243 605 244C605 244 640 274 649 316C656 351 662 400 665 472C668 528 670 539 671 548C672 554 673 559 674 576L676 607L696 606H702C722 606 729 611 729 628V639L747 619C774 589 807 544 807 539C807 539 847 452 847 379C847 371 847 363 845 356C828 237 802 204 754 148C727 115 698 94 647 66ZM655 568 586 570C548 571 515 572 513 573C511 574 510 584 510 597V618L537 616C537 616 659 615 659 607C659 603 658 597 658 589ZM492 574C492 574 368 576 366 578V584C366 588 366 594 367 599L369 617H497V597C497 580 496 575 492 574ZM477 502C449 502 362 508 360 511C360 511 359 512 359 514C359 520 362 562 371 562C371 562 371 560 438 560L493 559L494 504L483 502ZM620 498C582 498 514 501 510 504C507 506 506 513 506 520C506 558 512 560 515 560H517C524 560 544 557 600 556L651 554L650 528C650 513 648 501 646 499C645 498 635 498 620 498ZM462 232 441 242C421 251 367 291 359 349C358 354 357 371 357 392C357 493 360 493 365 493C373 493 391 490 437 488L492 486L494 383L476 384C427 387 433 425 424 425C419 425 418 421 418 410C418 404 419 400 419 397C419 386 417 376 415 366C414 358 413 351 413 346C413 338 415 334 421 334C425 334 428 336 428 340C429 346 442 365 447 368C449 369 454 370 461 370H470C485 370 491 369 491 352C491 341 489 336 479 323C460 299 446 303 446 295C446 287 477 287 503 286C521 286 538 285 542 283C543 282 545 282 547 282C552 282 558 285 558 289C558 294 548 292 522 316L503 333V369L529 367C558 365 562 362 574 341C578 334 583 330 586 330C590 330 591 341 591 410C591 417 589 421 587 421C581 421 580 410 564 393L553 381L506 384L507 489L525 487C535 486 567 485 598 485H651L649 471C648 461 647 439 646 418C645 392 644 368 642 368C641 368 639 359 637 348C629 263 593 255 577 247L548 232ZM85 260C90 260 87 263 87 265C87 274 117 279 127 279C137 279 137 276 139 276C141 276 141 278 141 281C141 285 141 291 139 299C132 332 132 338 117 338C110 338 101 336 101 332C101 325 128 318 128 299C128 295 124 288 88 288C80 288 77 296 74 296C72 296 70 294 70 291C70 282 80 260 85 260ZM896 251C915 251 929 268 929 284C929 303 912 319 890 319C869 319 856 305 856 288C856 268 877 251 896 251ZM903 266C886 266 866 283 866 293C866 299 873 301 882 301C902 301 918 288 918 277C918 267 907 266 903 266ZM608 59C599 59 574 60 562 61C533 64 498 65 467 65C458 66 449 66 441 66C413 66 393 66 393 68C393 68 401 80 412 94L465 161C473 171 479 181 479 183C479 185 496 204 503 204C510 204 512 190 528 170L569 116C574 108 583 99 592 90C603 78 614 67 614 62C614 60 613 59 608 59ZM343 129C339 129 337 130 337 132C337 135 341 140 349 140C354 140 357 138 357 136C357 131 347 129 343 129ZM646 119C644 119 639 125 639 130C639 132 640 134 645 134C648 134 650 132 650 127C650 121 648 119 646 119ZM304 -10C305 -10 305 -9 305 -8C305 -6 300 -5 300 0C300 8 320 40 328 40C329 40 331 39 333 39C335 39 336 40 336 42C336 47 329 56 322 56C315 56 306 68 302 68C296 68 294 76 289 76C282 76 272 65 272 59C272 58 273 57 275 57C281 57 284 62 290 62C298 62 308 53 308 46C308 40 304 36 300 36C298 36 296 37 296 41C296 45 295 47 293 47C289 47 281 37 281 31C281 28 283 26 287 26C291 26 293 27 293 29C293 34 298 30 298 27C298 23 287 11 281 11C275 11 270 17 270 22V26C270 32 268 34 266 34C260 34 255 23 255 21C255 12 298 -10 304 -10ZM513 36C413 36 390 48 390 52C390 54 394 56 397 56L539 50C539 47 552 47 564 47C576 46 586 46 586 44C586 43 576 36 513 36ZM675 -21C680 -21 686 -13 688 -13C699 -13 711 8 711 23C711 39 682 50 681 50C670 50 645 34 645 20C645 19 646 18 646 18C648 18 653 21 655 21C655 21 656 23 656 26C656 37 671 40 674 40C686 40 696 16 696 4C696 -2 691 -4 686 -4C674 -4 674 4 670 4C668 4 666 1 666 -4C666 -7 668 -21 675 -21Z" fill="#f59e0b" stroke="none"/>
  </g>
</svg>