<svg xmlns="http://www.w3.org/2000/svg" viewBox="-50 -50 1100 1100">
  <g transform="translate(0, 1000) scale(1, -1)">
    <path d="M487 -93C576 -93 656 -68 656 -68C670 -68 768 -13 780 2C782 4 791 11 800 18C875 75 908 147 925 185C930 196 934 204 937 208C948 222 967 310 967 389C967 413 965 437 961 457C954 488 932 557 919 583C899 625 845 697 806 734C776 763 717 800 680 813C664 818 632 852 470 852C406 852 315 819 276 798C221 768 146 701 114 654C71 591 33 506 33 380C33 340 48 232 91 157C133 82 186 23 240 -13C280 -39 354 -93 487 -93ZM496 -83C340 -83 235 -4 193 39C156 77 45 182 45 395C45 514 80 569 80 573C80 576 101 616 117 644C126 660 182 718 207 738C322 831 425 840 477 840C507 840 563 838 574 836C597 833 645 820 650 817C652 815 660 811 672 805C693 795 727 779 762 756C798 732 895 639 931 526C935 513 939 504 941 497C945 485 947 480 947 473C947 463 949 457 951 451C954 443 957 432 957 402C957 382 955 352 950 306C938 181 842 59 797 27C791 23 785 18 778 13C748 -12 703 -48 622 -66C577 -76 535 -83 496 -83ZM496 -78C634 -78 714 -29 775 17C892 104 949 241 950 387C950 436 926 535 903 580C885 617 810 734 707 782L677 798C620 827 541 834 486 834C376 834 333 802 321 802C313 802 138 726 76 543C61 496 51 428 51 371C51 260 110 157 110 152C110 147 173 49 252 -3C334 -57 402 -78 496 -78ZM505 -70C474 -70 454 -65 451 -65C451 -65 349 -59 243 17C125 103 61 256 61 382C61 437 77 542 94 562C98 566 101 573 105 583C112 599 122 623 144 651C189 709 273 775 320 788C334 792 346 796 358 801C388 812 418 823 479 823C498 823 521 822 547 819C646 811 705 766 715 766C725 766 939 634 939 375C939 308 923 264 923 259C923 250 911 213 906 207C904 205 902 201 902 200C902 198 894 181 884 160C822 38 693 -29 642 -44L606 -54C565 -66 531 -70 505 -70ZM491 748C496 748 497 749 497 750C497 753 485 763 485 772C485 776 485 776 486 776C489 776 495 771 501 771C504 771 506 774 506 778C506 787 503 790 499 790C496 790 492 789 488 789C484 789 482 793 482 796C482 799 484 802 486 802C497 802 502 805 506 805C514 805 515 783 522 783C524 783 526 786 526 792C526 814 515 815 500 815C471 815 462 813 462 808C462 803 471 805 471 780C471 754 458 761 458 754C458 751 480 748 491 748ZM497 19C588 19 653 55 657 55C657 55 733 82 803 193C822 223 855 273 855 392C855 396 852 492 790 584C766 621 708 670 656 700C611 726 538 737 480 737C452 737 429 735 413 731L382 721C357 713 313 692 290 676C268 660 231 622 211 592C207 587 142 518 142 381C142 302 169 250 183 222C188 213 191 206 191 203C191 197 247 122 263 111C287 95 296 86 304 79C317 67 323 61 385 38C425 23 463 19 497 19ZM408 46C400 46 340 70 328 78C276 111 203 191 203 213C203 223 188 232 178 270L168 302C160 330 157 358 157 383C157 431 167 468 167 471C167 481 185 530 191 541C247 627 270 652 341 688C358 696 410 725 489 725C616 725 689 663 708 650C718 644 722 639 722 636C722 635 721 634 720 634C716 634 715 636 710 636C695 636 681 619 681 600V590H652C623 589 619 588 616 588C611 588 609 591 609 596C609 601 611 609 611 616C611 635 599 648 580 648C560 648 538 632 538 610C538 599 544 595 544 590C544 586 537 584 519 584C506 584 459 586 459 588C459 591 474 608 474 614C474 623 460 650 438 650C422 650 398 631 398 616C398 610 400 603 405 596L411 585L391 587C379 588 358 589 344 589H317L319 603C320 605 320 608 320 609C320 622 310 638 293 638C273 638 252 618 252 603C252 572 292 575 292 566C292 558 290 566 290 487C290 454 291 412 292 364V338L293 253H286C273 253 252 231 252 214C252 196 272 187 290 187C316 187 322 218 322 223C322 226 321 227 321 230C321 234 324 235 333 235C357 235 361 233 361 221C361 209 359 188 352 188C345 188 336 202 329 202C325 202 323 198 323 191L322 167C322 161 323 156 326 156C333 156 343 172 354 172C359 172 361 166 361 165C361 156 338 143 338 137C338 134 354 132 368 132C383 132 397 134 397 139C397 145 375 149 375 163C375 168 379 172 384 172C396 172 403 154 409 154C413 154 415 160 415 168C415 175 412 203 409 203C404 203 388 188 380 188C377 188 375 190 375 195C375 195 378 231 381 234C383 235 399 235 419 235C447 235 480 234 482 233C486 229 489 221 489 214C489 204 484 202 484 197C484 194 485 191 487 174L488 154L456 110C444 94 435 81 428 71C416 54 410 46 408 46ZM183 570C187 570 188 573 188 577C188 580 190 583 192 583C198 583 212 602 212 610C212 618 202 630 196 630C192 630 183 625 175 621C167 616 159 611 154 611C151 611 149 612 149 616C149 616 150 632 160 632H167C172 632 175 633 175 637C175 640 172 649 167 649C161 649 138 631 138 617C138 609 146 596 156 596C170 596 186 612 193 612C198 612 200 608 200 606C200 593 168 587 168 579C168 576 177 570 183 570ZM829 568C845 568 857 580 867 580C873 580 876 581 876 584C876 589 864 607 858 607C855 607 854 604 854 599C853 589 837 578 825 578C817 578 812 584 812 590C812 600 826 619 842 619C845 619 848 618 850 618C853 618 854 620 854 620C854 625 834 648 832 648C829 648 826 641 814 625C807 617 801 605 801 590C801 579 816 568 829 568ZM438 595C424 595 413 604 413 614C413 626 428 634 437 634C447 634 454 624 454 614C454 607 451 595 438 595ZM576 591C562 591 553 608 553 613C553 625 571 634 584 634C597 634 600 626 600 619C600 607 589 591 576 591ZM284 586C278 586 270 595 270 602C270 613 282 622 293 622C302 622 310 616 310 609C310 598 290 586 284 586ZM717 581C706 581 696 591 696 601C696 613 709 616 718 616C730 616 734 610 734 602C734 590 727 581 717 581ZM597 46C595 46 524 130 517 139L502 158V181C502 193 503 210 504 218L505 234H612L613 214V208C613 192 612 187 606 187C597 187 585 205 580 205C577 205 576 200 576 192C576 177 577 157 585 157C591 157 597 172 606 172C611 172 615 166 615 162C615 151 597 143 597 138C597 135 602 133 614 133C646 133 652 136 652 140C652 148 629 148 629 165C629 171 631 172 638 172C656 172 655 154 663 154C666 154 668 159 668 169C668 182 666 200 660 200C655 200 643 187 636 187C630 187 628 194 628 203C628 213 632 211 632 226V235L655 234C675 233 681 232 681 229C681 225 674 217 674 207C674 190 698 178 710 178C726 178 746 200 746 220C746 233 737 243 722 248L712 251L711 276C709 391 708 484 708 527V554C710 560 717 564 724 567C736 573 749 579 749 596C749 600 748 604 748 608C748 609 748 610 749 610C759 610 839 504 839 383C839 265 798 208 784 187C705 68 597 46 597 46ZM681 249C675 249 672 250 650 250H622C600 250 581 251 577 257C574 263 572 455 572 530V561C574 568 570 571 639 571C651 571 661 571 661 570C661 569 687 569 691 567C692 567 693 536 693 497V394C693 290 696 277 696 265C696 252 692 249 681 249ZM378 252C349 252 313 254 312 256C308 258 307 340 307 418C307 490 308 561 309 563C312 568 321 569 383 570H420L419 544C418 530 418 511 418 486C418 435 419 365 419 317C419 281 419 257 417 256C414 253 397 252 378 252ZM504 249C492 249 487 250 483 251C478 252 474 253 460 253C442 253 440 254 438 260C438 263 435 404 435 494C435 534 436 564 438 567C439 568 448 569 477 569H559L560 419C560 388 561 358 561 333C561 294 561 265 562 251L525 250C517 249 510 249 504 249ZM648 394C681 394 683 425 683 425C683 432 668 466 646 466C632 466 610 447 610 430C610 412 624 394 648 394ZM504 391C523 391 540 406 540 424C540 443 520 465 500 465C478 465 463 441 463 428C463 421 467 414 478 403C488 393 491 391 504 391ZM367 388C381 388 402 404 402 426C402 434 400 460 366 460C334 460 331 426 331 421C331 401 356 388 367 388ZM648 407C637 407 623 416 623 432C623 440 637 451 646 451C657 451 668 437 668 425C668 413 658 407 648 407ZM503 402C488 402 478 416 478 433C478 444 484 450 502 450H504C516 450 526 438 526 425C526 413 514 402 503 402ZM367 401C353 401 343 422 343 427C343 431 351 447 364 447C377 447 390 436 390 423C390 410 376 401 367 401ZM289 202C281 202 272 205 272 219C272 230 282 237 291 237C302 237 308 229 308 220C308 210 300 202 289 202ZM708 193C700 193 688 199 688 209C688 222 704 234 717 234C728 234 734 225 734 218C734 210 720 193 708 193ZM147 130C154 130 166 137 176 140L196 145C199 146 202 146 205 146C215 146 216 142 221 142C222 142 223 143 223 144C223 149 209 168 205 168C200 168 200 155 196 155C193 155 176 162 176 173C176 180 179 182 182 182C188 182 193 179 193 179C195 179 197 180 197 182C197 183 182 211 174 211C172 211 170 208 170 203C170 197 162 179 155 163C149 150 144 138 144 135C144 131 145 130 147 130ZM841 114C852 114 878 150 878 161C878 162 877 162 876 162C875 162 864 153 859 153C853 153 824 181 824 187C824 192 823 193 821 193C814 193 804 173 804 171C804 169 806 169 810 169C817 169 828 159 828 153C828 152 828 151 825 151C820 151 812 157 803 157C794 157 779 147 779 140C779 137 782 134 784 134C788 134 793 144 803 144C812 144 821 137 821 130C821 123 832 114 841 114ZM167 146C165 146 163 148 163 151C163 154 166 156 169 156C171 156 172 155 172 152C172 151 170 146 167 146ZM843 128C839 128 834 134 834 141C834 144 835 150 840 150C845 150 851 144 851 137C851 133 848 128 843 128ZM519 52C496 52 488 54 481 55C475 57 470 58 456 58C446 58 438 59 438 61C438 63 489 136 499 136C502 136 507 131 517 119C524 110 534 97 550 80L573 54L533 53C527 52 523 52 519 52ZM496 29C496 29 432 37 426 42C421 45 422 46 429 44C438 42 573 40 573 40C569 35 520 29 496 29ZM492 -62C511 -62 524 -37 524 -24C524 -5 499 9 484 9C475 9 471 2 471 0C471 -2 474 -4 479 -4C482 -4 484 -3 488 -3C496 -3 506 -10 506 -20C506 -27 503 -54 492 -54C482 -54 475 -30 467 -30C463 -30 461 -37 461 -43C461 -50 463 -56 465 -56C465 -56 466 -55 467 -55C472 -55 481 -62 492 -62Z" fill="#f59e0b" stroke="none"/>
  </g>
</svg>