<svg xmlns="http://www.w3.org/2000/svg" viewBox="0 -125 999 1009">
  <g transform="translate(0, 759) scale(1, -1)">
    <path d="M521 -95C542 -95 544 -94 546 -93C549 -92 552 -91 571 -90C598 -89 601 -83 603 -83C604 -83 604 -84 605 -84C610 -84 625 -78 632 -77C648 -75 682 -58 707 -46C724 -38 737 -31 740 -31C746 -31 770 -11 791 6C805 17 817 28 823 31C839 41 892 109 910 147C910 147 946 213 946 222C946 234 969 281 969 370C969 395 968 423 963 454C960 470 932 560 922 581C911 606 886 650 883 650C881 650 880 651 880 653C880 659 867 664 867 670C867 674 788 755 784 755C782 755 776 759 771 764C756 778 749 774 746 780C745 782 634 854 503 854C326 854 223 758 216 758C211 758 155 707 141 689C124 667 82 600 82 594C82 582 30 524 30 374C30 348 32 329 34 329C37 326 34 322 34 319C34 315 37 310 37 305V302C37 296 42 296 42 292C42 290 41 289 41 287C41 283 45 278 45 276C45 275 44 276 44 274C44 271 49 267 49 264C49 262 48 263 48 261C48 258 51 254 51 252L70 189L82 165C115 99 172 38 179 38C182 38 181 36 181 34C181 25 268 -40 281 -40C284 -40 287 -41 287 -43C287 -45 289 -46 291 -46C297 -46 314 -58 320 -58C322 -58 329 -60 335 -63L379 -77H383C387 -77 387 -84 395 -84H399C401 -84 402 -84 402 -85C405 -90 480 -95 521 -95ZM489 -85C370 -85 260 -18 260 -16C261 -16 270 -20 282 -26C290 -29 298 -33 307 -37C324 -44 341 -51 350 -54L380 -64C403 -73 419 -79 477 -79C502 -79 534 -78 580 -75C590 -75 681 -52 714 -28C734 -14 834 25 912 183C925 209 954 263 954 382C954 459 936 504 926 531C921 542 918 550 918 556C918 564 889 616 869 644C846 675 793 729 758 755C690 805 595 838 494 838C411 838 325 816 251 762L233 750C208 734 179 715 140 661C114 627 76 555 66 522C50 472 49 434 47 410C47 399 47 391 45 386V381C45 362 50 305 53 297L78 210C79 197 115 133 134 109L151 87C173 60 229 5 243 -2C249 -5 254 -10 254 -12C254 -13 253 -13 252 -13C242 -13 180 44 151 79C73 175 68 223 65 231C47 279 38 362 38 381C38 383 38 385 39 385C40 387 41 396 42 409C44 434 47 477 60 520C70 557 112 631 142 671C158 691 198 734 205 737C212 741 220 747 231 754C276 786 357 844 512 844H519C540 844 577 842 666 811C808 761 912 602 922 558C924 549 926 541 928 540C936 530 960 439 960 384C960 339 950 273 939 234C922 177 866 88 820 44C775 2 760 -10 710 -34C630 -74 583 -85 489 -85ZM492 -67C469 -67 446 -65 431 -63C389 -57 308 -27 268 -3C229 20 176 73 138 126C80 206 59 318 59 373C59 459 88 562 94 562C96 562 139 657 210 719C233 738 305 779 305 780C313 787 376 811 394 814C478 825 493 826 499 826H503C567 826 681 802 760 737C853 661 856 634 861 634C869 634 943 509 943 386C943 368 942 345 938 308C930 229 908 204 894 175C863 114 850 109 850 103C850 101 788 26 722 -10C695 -24 637 -67 492 -67ZM468 742C508 742 520 752 520 767C520 774 518 780 518 787C518 794 521 797 521 799C521 799 519 819 489 819C475 819 464 816 464 812C464 805 473 816 473 792C473 756 472 754 465 752C459 751 456 746 456 745C456 743 461 742 468 742ZM495 788C489 788 485 792 485 799C485 804 487 809 494 809C501 809 509 804 509 799C509 794 503 788 495 788ZM495 755C489 755 488 756 488 765C488 776 492 778 500 778C508 778 512 773 512 767C512 761 507 755 495 755ZM263 17C268 17 276 23 285 29C297 37 311 47 323 47C338 47 334 54 339 54C343 54 350 51 360 46C384 36 423 18 482 18C544 18 610 21 683 66C743 103 811 182 811 199C811 202 812 204 813 204C823 204 857 295 857 390C857 459 831 498 831 508C831 510 827 518 822 528C817 538 811 552 806 564C799 580 783 594 783 598C783 599 770 614 752 632C668 719 576 739 506 739C453 739 411 728 394 725C310 711 214 597 201 577C195 567 188 559 188 559C186 559 142 481 142 373C142 301 188 192 200 181C203 179 205 175 205 174C205 158 283 85 319 68C324 65 329 61 329 59C329 58 328 57 327 57C322 57 310 68 305 68C303 68 302 67 302 66C302 64 303 62 303 60C303 55 299 51 293 51C284 51 278 58 278 64C278 73 289 77 289 80C289 83 269 98 261 98C259 98 258 97 258 95C258 90 265 91 265 79C265 62 256 27 256 22C256 19 260 17 263 17ZM622 329 599 346C586 356 565 371 554 382L533 401L534 446V461C534 512 535 509 556 510C564 511 577 512 577 514C577 523 540 595 528 595C521 595 475 528 475 516C475 511 479 509 484 509C490 509 499 511 506 511C515 511 517 511 517 442C517 426 517 414 516 414C514 414 498 426 481 440L424 484C399 503 391 510 391 520C391 531 404 552 410 557C420 564 428 576 436 587C446 601 455 613 463 613C474 613 488 629 488 639C488 651 474 664 458 664C442 664 431 652 431 640C431 628 438 622 444 617L419 587L405 570C395 558 391 553 389 553C385 553 385 579 385 601C385 619 398 625 398 633C398 636 394 643 394 644C394 646 388 661 371 661C357 661 341 650 341 636C341 625 351 610 357 610C366 610 370 574 370 552C370 536 368 533 367 533C358 533 314 572 311 575C299 584 296 586 296 592C296 597 298 599 298 603C298 621 279 628 273 628C269 628 267 629 267 631C267 644 369 709 391 709C401 709 436 727 502 727C535 727 571 722 602 710L643 692C655 692 747 637 793 557C825 502 847 437 847 395V393C847 385 846 383 846 383C843 383 837 402 817 402C807 402 799 395 791 389C784 383 778 378 771 378C767 378 763 381 758 391C748 411 723 416 723 418C723 422 762 431 762 461C762 471 756 507 701 514L683 516L681 530C680 547 674 556 667 556C658 556 643 543 643 530C643 515 664 506 664 498C664 494 657 478 646 478C639 478 634 484 634 489C634 493 636 498 640 498C646 498 644 484 649 484C652 484 656 488 656 494C656 501 649 512 640 512C628 512 618 495 618 489C618 482 636 466 645 466C664 466 675 494 680 494C682 494 683 487 683 458C683 411 681 334 678 332C676 330 663 329 648 329ZM456 623C447 623 440 630 440 637C440 646 451 651 458 651C467 651 474 646 474 638C474 629 463 623 456 623ZM370 619C362 619 352 624 352 632C352 639 364 649 371 649C378 649 383 645 383 636C383 630 380 619 370 619ZM151 516C156 516 164 535 164 539C164 542 163 543 161 543C158 543 157 542 153 542C146 542 138 547 138 550C138 552 141 553 146 553C148 553 162 555 162 564C162 570 154 578 154 583C154 584 155 585 156 585C160 585 176 570 176 567C176 564 176 563 178 563C183 563 195 583 195 590C195 591 195 592 192 592C188 592 186 587 182 587C180 587 178 588 175 591C157 607 146 607 146 616C146 620 147 621 147 625C147 627 147 628 146 628C145 628 141 624 137 616L130 604L140 589C145 581 148 572 148 571C148 568 141 566 124 566C104 566 94 553 94 546C94 543 96 542 99 542C104 542 105 546 112 546C125 546 146 535 146 526C146 526 146 516 151 516ZM263 580C258 580 254 584 254 594C254 606 266 614 275 614C284 614 287 607 287 604C287 593 272 580 263 580ZM296 176C276 176 229 189 229 223C229 229 229 231 233 231C240 231 255 222 269 222C274 222 277 224 277 226C277 235 244 235 244 267C244 280 251 294 251 300C251 302 250 303 248 303C239 303 203 272 194 254C190 247 187 241 186 241C181 241 155 327 155 362C155 538 237 602 240 602C240 602 241 601 241 600C241 597 240 596 240 594C240 586 255 568 262 568C274 568 276 575 282 575C285 575 290 573 298 566L339 532C365 510 380 507 380 422C380 405 379 384 378 359L377 324H352C328 324 327 324 323 332C319 341 310 346 300 346C276 346 270 322 270 317C270 306 286 288 299 288C321 288 305 306 357 307L376 308L375 295C373 273 370 266 362 266C360 266 359 267 356 267C337 267 321 255 321 239C321 231 327 216 341 216C351 216 356 222 360 222C361 222 362 221 362 220C362 218 338 176 296 176ZM845 500C847 500 849 503 850 508C851 519 864 534 874 547C883 558 890 567 890 571C890 573 889 574 886 574C884 574 881 573 876 571C876 570 852 564 834 564C817 564 817 570 813 570C812 570 812 569 812 568C812 560 820 541 823 541C825 541 825 543 825 547C825 552 830 555 834 555C844 555 847 543 847 540C847 537 845 534 839 534H834C830 534 829 533 829 531C829 530 839 500 845 500ZM524 526C502 526 496 527 496 529C496 536 521 571 527 571C534 571 553 536 553 529C553 527 547 526 524 526ZM855 544C853 544 851 550 851 551C851 556 855 559 862 559C867 559 867 559 862 552C859 547 857 544 855 544ZM666 518C661 518 654 524 654 528C654 533 659 541 663 541C668 541 672 532 672 526C672 523 671 518 666 518ZM702 432C696 432 695 434 695 442V446C695 497 697 497 701 497C705 497 747 489 747 458C747 440 707 432 702 432ZM479 31C437 31 441 38 425 38C412 38 416 44 406 44C406 44 280 82 222 172C205 198 200 205 200 206C200 209 193 221 193 225C193 228 206 236 209 236C220 236 205 196 253 172C268 165 273 163 292 163C327 163 344 171 363 197C372 209 377 220 377 225C377 230 380 243 383 256C386 270 389 284 389 290C389 298 391 305 404 305C414 305 428 285 442 285C454 285 467 303 467 313C467 317 461 339 440 339C429 339 425 334 421 330C417 325 413 321 403 321H394L395 396C395 437 396 474 396 479V487L519 393V290C483 297 491 315 482 315C479 315 477 306 477 278C477 265 478 252 482 252C491 252 493 276 510 276C517 276 521 272 521 267C521 264 503 243 503 236C503 234 507 233 518 233C550 233 557 234 557 237C557 243 533 262 533 267C534 273 539 276 545 276C565 276 566 256 572 256C574 256 576 263 576 278C576 303 573 315 569 315C563 315 552 291 538 291C534 291 532 297 532 358C532 371 532 374 534 374C536 374 544 368 557 357C569 348 585 335 605 320C616 313 619 312 636 312H678L679 299C679 295 680 291 680 288C680 279 678 275 674 275C673 275 667 278 656 278C635 278 629 262 629 257C629 248 639 240 647 240C657 240 659 249 659 251C659 255 657 257 654 257C650 257 648 253 645 253C643 253 642 254 642 256C642 260 646 267 654 267C661 267 675 262 675 255C675 243 648 239 648 222C648 217 652 200 664 200C696 200 684 234 699 236C734 241 750 257 750 276C750 303 722 321 722 325C722 327 726 328 736 333C756 342 763 364 774 364C787 364 792 344 813 344C834 344 841 363 842 363C843 363 843 362 843 360C843 265 797 201 771 166C761 151 745 135 714 107C669 66 583 36 569 36H567C567 36 518 31 479 31ZM698 337C693 337 693 341 693 350C693 373 697 408 699 408C699 408 741 399 741 373C741 347 704 337 698 337ZM815 359C809 359 802 365 802 372C802 381 813 387 821 387C827 387 831 384 831 377C831 371 825 359 815 359ZM299 303C293 303 282 317 282 323C282 328 287 330 292 330C298 330 307 327 307 317C307 310 304 303 299 303ZM440 302C435 302 429 307 429 314C429 320 434 327 439 327C449 327 455 314 455 313C455 311 448 302 440 302ZM693 248 692 274V288C692 305 693 312 700 312C700 312 732 309 732 276C732 271 732 256 704 250ZM342 228C336 228 333 230 333 234C333 242 344 254 354 254C358 254 362 250 362 245C362 235 354 228 342 228ZM670 213C669 213 661 214 661 220C661 227 672 232 676 232C679 232 680 231 680 228C680 223 676 213 670 213ZM765 29C771 29 796 51 796 57C796 58 795 59 794 59C790 59 784 56 783 56C776 56 754 85 754 90C754 91 761 98 761 102C761 104 760 105 756 105C751 105 746 96 743 96C737 96 702 68 702 63C702 55 711 45 717 45C718 45 723 46 723 51C723 54 722 58 722 62C722 71 733 78 739 78C744 78 747 73 747 70C747 68 749 66 751 65C757 63 764 47 764 39C764 35 763 35 763 32C763 30 764 29 765 29ZM275 33C273 33 271 34 271 38C271 44 273 47 277 47C279 47 285 45 285 41C285 37 279 33 275 33Z" fill="#f59e0b" stroke="none"/>
  </g>
</svg>