<svg xmlns="http://www.w3.org/2000/svg" viewBox="4 -119 992 997">
  <g transform="translate(0, 759) scale(1, -1)">
    <path d="M499 -89C553 -89 630 -69 633 -69C640 -69 658 -62 691 -47C769 -12 806 33 812 33C820 33 862 81 884 114C896 132 938 215 938 219C938 219 966 274 966 388C966 453 945 588 835 702L806 734C772 769 668 824 599 839C572 845 533 848 493 848C446 848 399 843 375 830C375 830 306 807 265 782C210 748 130 668 130 662C130 661 126 655 121 651C107 634 90 598 80 576L71 558C46 528 34 379 34 379C34 374 37 369 37 361V353C37 314 62 237 62 235C62 232 68 224 68 220C68 218 67 218 67 216C67 202 125 108 132 98C145 80 192 28 204 20L232 -1C242 -9 257 -18 264 -21C298 -38 312 -63 477 -87C483 -88 490 -89 499 -89ZM503 -77C389 -77 294 -29 287 -24C276 -14 163 36 91 183C56 254 45 348 45 377C45 382 46 385 46 386C49 387 49 395 49 407C49 438 50 499 90 577C107 612 116 628 124 636C132 646 156 691 210 732C245 758 290 789 294 789C297 789 307 793 320 799C353 813 412 838 467 838C511 838 622 832 641 817C645 813 701 795 751 764C775 749 891 647 928 538L937 512C949 473 954 431 954 390C954 293 928 207 921 207C920 207 919 205 919 202C919 190 865 103 865 103C865 96 820 48 802 35C795 30 779 19 769 10C751 -5 683 -45 676 -45C675 -45 604 -77 503 -77ZM505 -73C673 -73 770 19 794 35C852 74 950 208 950 380C950 414 946 449 938 485L933 509C932 512 925 527 925 532C925 532 901 596 883 619L869 638C849 665 798 720 771 742C729 777 614 826 566 829C555 830 566 833 506 833C437 833 424 832 352 807C345 807 232 767 154 669C132 642 103 600 103 596C103 595 97 581 89 566C59 502 63 477 58 470C53 463 51 380 51 364C51 295 73 253 73 244C73 241 74 235 77 233C83 224 89 156 191 53C244 0 284 -12 292 -21C306 -35 423 -73 505 -73ZM495 -60C421 -60 302 -19 289 -6C287 -3 283 0 282 0C273 0 233 33 198 67C110 155 100 213 85 252C70 293 62 359 62 379V385C63 387 64 395 65 406C67 440 72 504 103 566C165 686 239 753 362 798C410 816 457 821 500 821C579 821 639 801 640 800C645 796 654 792 666 787C703 772 770 745 845 651C892 592 903 555 906 546C934 467 938 449 938 393C938 329 935 298 927 273L916 235C906 204 849 82 771 32C759 25 755 21 751 17C745 12 739 5 709 -12C664 -39 601 -48 594 -51C581 -57 531 -60 495 -60ZM526 741C539 741 549 742 549 745C549 747 547 749 544 751C539 755 532 768 526 781C518 798 509 816 502 816C498 816 493 809 485 794L474 772C467 758 448 754 448 750C448 748 451 747 456 747C467 747 471 745 474 745C479 745 483 746 483 750C483 754 479 755 479 760C479 765 486 768 500 768C513 768 519 768 519 758C519 750 511 749 511 745C511 742 516 741 526 741ZM498 780C495 780 493 781 493 783C493 786 496 791 500 799C504 789 506 785 506 783C506 781 504 780 498 780ZM483 25C599 25 676 55 743 121C757 136 774 155 781 165L809 203C825 226 838 260 841 276L847 311C852 335 854 360 854 385C854 411 852 436 847 454L840 479C837 489 830 506 823 521C817 535 811 548 811 551C811 556 763 641 668 692C616 720 607 734 480 734C458 734 439 734 435 733C360 716 292 668 292 668C272 657 166 563 153 446C152 432 150 421 149 412C147 397 146 388 146 377C146 363 148 348 154 317C171 237 192 218 192 207C192 202 216 172 236 149C317 57 393 42 434 33C446 31 455 29 460 26C463 26 472 25 483 25ZM639 587C625 587 606 588 576 588H508V639L521 650C528 655 533 660 533 662C533 667 496 668 487 668C478 668 469 668 469 660C469 642 491 670 495 614L496 589H290C289 601 287 623 270 623C267 623 265 621 263 621C263 621 262 622 262 623C262 627 354 724 501 724C574 724 660 700 742 625L731 617C719 608 721 601 720 589L690 588C669 588 663 587 639 587ZM206 588C207 588 208 590 208 593C208 600 229 612 229 627C229 632 227 643 213 643C200 643 185 633 177 633C174 633 173 635 173 639C173 642 174 651 180 651C183 651 186 650 188 650C193 650 194 651 194 653C194 658 183 669 180 669C180 669 161 654 161 638C161 630 168 616 181 616C193 616 207 630 215 630C219 630 222 627 222 623C222 617 213 609 198 609C191 609 188 609 188 606C188 603 202 588 206 588ZM807 585C812 585 822 594 822 599C822 601 820 603 815 603C802 603 791 610 791 614C791 621 807 641 820 641C822 641 825 640 828 640C830 640 832 641 832 643C832 649 812 668 808 668C807 668 806 668 806 667C806 665 807 663 807 661C807 652 785 628 774 628C772 628 771 629 769 629C768 629 767 629 767 628C767 623 800 585 807 585ZM260 579C249 579 247 586 247 590C247 598 255 609 266 609C274 609 276 602 276 597C276 589 271 579 260 579ZM749 583C743 583 730 589 730 597C730 604 738 609 746 609C756 609 759 601 759 595C759 591 757 583 749 583ZM234 171C221 171 162 280 162 372C162 454 190 546 210 559C212 560 214 563 214 565C214 568 229 588 231 588C235 588 238 568 257 568C261 568 271 570 275 570C277 570 278 569 278 564V548C278 531 277 506 277 478L276 387L250 388C221 388 216 391 208 405C203 413 200 417 198 417C193 417 191 403 191 375C191 357 192 330 196 330C200 330 200 345 215 359C224 368 226 368 249 368H273L274 314V234C274 192 273 189 269 189H265C248 189 242 171 234 171ZM767 168C760 168 760 180 741 180H729L731 201C733 220 733 239 733 259V348L734 367L776 369L787 356C794 348 799 342 803 342C810 342 810 395 810 396C810 411 809 416 804 416C793 416 791 388 769 387C756 387 755 382 752 382C751 382 749 385 746 385C744 385 742 383 740 383C735 383 733 386 733 495C733 569 735 569 745 569C761 569 764 586 771 586C785 586 842 483 842 375C842 243 767 168 767 168ZM644 161C641 170 641 178 641 186C641 198 643 210 643 221C643 250 623 259 610 259C586 259 583 242 581 202L578 166L509 164L506 185V197C506 208 510 199 510 234C510 243 510 258 509 274C509 294 508 315 508 331C508 362 510 368 519 368C521 368 523 367 527 367C546 364 546 364 554 349C561 335 565 328 569 328C577 328 578 353 578 387C578 406 572 409 569 409C567 409 565 406 562 399L555 386L511 384L509 395V401C509 405 510 408 512 412C530 441 552 428 552 439V441C552 444 550 446 488 446C462 446 452 444 452 441C452 438 456 434 458 434C467 434 465 430 467 430H469C469 430 494 423 494 400C494 393 493 386 492 385C491 384 478 381 470 381C456 381 446 410 438 410C434 410 430 401 430 374C430 355 433 333 438 333C440 333 446 341 451 351L461 368L473 367C479 366 487 364 489 364C492 363 493 327 493 285C493 232 491 168 489 166C488 166 487 165 484 165C479 165 469 166 458 167L429 169V191C429 201 430 211 430 221C430 243 427 261 407 261C373 261 373 236 371 207C370 188 369 171 368 168C367 166 357 165 346 165C323 165 294 168 292 170C289 173 288 221 288 269V318C288 367 289 367 296 367C331 367 326 336 336 336C341 336 345 361 345 398C345 415 345 419 339 419C335 419 331 415 331 409C331 402 320 385 311 385C309 385 306 386 303 386L291 389L290 465C289 481 289 496 289 510C289 533 290 552 290 557L292 573H328V560C328 543 330 533 330 527C330 519 327 514 323 514C314 514 309 532 305 532C302 532 301 520 301 507C301 484 302 479 305 479C311 479 321 498 325 498C325 498 328 489 328 481C328 456 311 459 311 453C311 449 323 446 341 446C354 446 360 448 360 452C360 461 340 454 340 488C340 496 344 498 353 498C368 498 365 477 373 477C375 477 377 480 377 492C377 506 375 527 372 527C366 527 362 513 349 513H340L342 571C353 573 365 575 372 575H377C388 575 390 573 390 524V447C390 354 389 323 386 323C382 323 367 309 367 297C367 282 383 271 397 271C420 271 426 296 426 302C426 307 424 310 415 318C403 329 402 328 402 366C402 389 404 377 404 395C404 405 403 422 403 441C402 466 401 495 401 520C401 546 402 567 405 571C408 574 421 575 435 575C452 575 471 574 478 573L494 571V555C492 523 471 526 471 514C471 512 476 511 497 511C530 511 540 512 540 518C540 531 506 519 506 546C506 549 506 553 507 557L510 573L557 574H577C595 574 604 573 605 572C606 570 606 567 606 545V331L596 320C589 312 585 308 585 302C585 293 597 273 612 273C627 273 640 290 640 299C640 306 630 318 623 321C620 322 617 355 617 371C617 382 620 371 620 476C620 536 621 570 623 572C624 573 632 574 641 574C654 574 669 572 669 564C669 558 666 560 666 543V528C666 519 665 512 658 511C655 510 651 511 651 513C651 518 640 527 635 527C632 527 631 519 631 508C631 499 632 484 639 484C645 484 645 496 653 496C659 496 666 490 666 484C666 474 651 463 651 456C651 453 656 451 660 451C667 451 665 455 671 455C677 455 682 451 688 451C691 451 695 453 695 455C695 461 676 473 676 486C676 491 677 495 677 495C679 495 683 497 685 497C691 497 700 482 707 482C711 482 714 487 714 508C714 519 712 527 710 527C708 527 706 526 706 525C706 519 693 510 685 510H676V530C676 541 677 556 678 563L681 574L700 573C715 572 723 570 723 566C723 566 721 566 721 504V384H700C682 384 679 385 672 393C667 398 664 404 664 408C664 412 659 417 655 417C649 417 649 350 649 350C649 341 649 337 654 337C658 337 661 340 661 343C661 343 670 367 688 367C693 367 715 366 716 365C716 365 718 293 718 236C718 201 718 172 715 168C713 165 703 163 678 162ZM861 255C865 255 868 257 868 260C868 269 859 273 859 287C859 293 861 299 867 299C868 299 869 299 870 298C882 295 890 294 895 294C907 293 908 293 911 276C914 277 921 284 921 286V288C921 290 923 294 923 297C923 298 922 298 922 299C922 302 927 306 927 312C927 314 926 318 924 318C921 318 916 306 907 306C902 306 897 311 894 311H891C887 311 882 314 880 314C880 313 878 313 876 315C870 318 866 315 865 322C864 328 862 331 860 331C857 331 854 324 854 312C854 288 845 275 845 267C845 261 854 255 861 255ZM108 240C110 240 112 242 113 247C116 256 133 264 146 264C157 264 157 258 160 258C161 258 162 259 162 262C162 266 161 272 159 279C151 312 154 320 144 320C131 320 123 315 123 311C123 304 147 302 147 283C147 279 140 277 137 277C134 277 133 278 133 280C133 285 139 288 139 292C139 294 136 295 131 295C128 295 125 295 120 294L107 290C121 280 123 279 123 276C123 274 116 270 112 270C105 270 103 279 103 286C103 291 104 294 105 294C108 294 114 304 114 310C114 312 112 313 110 313C103 313 88 303 88 297C88 290 96 278 101 251C103 244 105 240 108 240ZM398 282C390 282 382 292 382 300C382 308 391 312 399 312C406 312 413 310 413 302C413 295 408 282 398 282ZM613 285C607 285 599 292 599 300C599 306 604 311 610 311C619 311 627 302 627 300C627 299 622 285 613 285ZM395 166C386 166 384 172 384 191C384 238 395 246 401 246C412 246 417 238 417 218C417 213 416 207 416 200L413 170L402 167C399 166 396 166 395 166ZM610 165C595 165 594 167 594 171V173C594 202 597 246 610 246C613 246 629 245 629 218C629 207 628 170 626 167C625 166 617 165 610 165ZM265 145C258 145 250 152 250 161C250 169 256 177 263 177C271 177 278 166 278 159C278 151 269 145 265 145ZM736 138C729 138 726 145 726 151C726 160 736 168 745 168C752 168 753 162 753 157C753 147 744 138 736 138ZM481 37C468 37 352 63 328 87C320 94 302 99 282 118L269 132C276 135 288 141 290 146C292 151 298 151 389 151C441 151 487 151 488 150C492 147 492 121 492 113V111C492 94 491 92 486 90C479 86 469 71 469 62C469 54 483 42 483 38C483 37 483 37 481 37ZM527 36C524 36 523 37 523 38C523 42 537 52 537 65C537 71 533 78 521 86L508 94V150L532 151H556C592 151 646 150 674 150H706C714 127 709 137 722 127C725 126 726 124 726 122C726 114 651 63 635 63C635 63 548 36 527 36ZM505 45C496 45 490 52 490 64C490 72 496 77 503 77C509 77 517 73 517 59C517 51 515 45 505 45ZM303 3C336 3 345 15 345 33C345 48 336 64 323 67C312 70 313 72 312 72C308 72 298 61 298 59C298 58 305 57 312 57C325 57 330 57 330 44C330 38 328 15 307 15C291 15 297 34 289 34C284 34 274 17 274 14C274 12 276 12 280 12C293 12 284 3 303 3ZM688 -14C693 -14 696 -11 705 -2C717 10 718 12 718 26C718 55 695 58 688 58C671 58 655 41 655 21C655 -11 684 -14 688 -14ZM687 -1C671 -1 667 24 667 26C667 36 685 45 689 45C699 45 706 25 706 18C706 3 696 -1 687 -1Z" fill="#f59e0b" stroke="none"/>
  </g>
</svg>