<svg xmlns="http://www.w3.org/2000/svg" viewBox="-50 -50 1100 1100">
  <g transform="translate(0, 1000) scale(1, -1)">
    <path d="M501 -93C581 -93 586 -92 637 -75C706 -52 719 -45 744 -27C817 25 835 41 877 94C953 189 972 293 972 374C972 484 942 535 935 560C920 614 824 727 805 737C788 746 688 852 493 852C433 852 318 852 172 720C162 711 94 642 52 532C33 482 28 411 28 365C28 323 29 318 37 291C38 285 41 278 43 268C57 214 61 221 61 209C61 198 83 155 109 116C135 77 213 1 245 -18C270 -33 302 -50 305 -50C307 -50 338 -67 389 -80C400 -83 407 -85 412 -87C427 -92 430 -93 501 -93ZM506 -85C465 -85 418 -79 368 -62C345 -54 231 -7 231 2C231 3 229 5 226 6C212 11 133 96 113 128L101 149C90 168 69 206 69 212C69 219 38 277 38 376C38 409 43 447 52 489L58 517C65 549 103 614 103 614C103 615 106 622 111 629L129 653C163 706 190 725 210 738C219 745 227 750 234 758C237 761 300 797 310 802L323 808C381 832 443 841 498 841C565 841 620 828 638 820L657 814C686 802 699 794 704 794C708 794 723 779 753 763C786 745 866 673 899 609L916 576C928 553 934 528 939 517C953 487 961 426 961 369C961 301 946 240 937 221L925 195C893 125 877 114 871 99C865 86 817 37 797 23C787 16 759 -6 750 -13C743 -19 697 -43 692 -43C691 -43 616 -85 506 -85ZM495 -75C589 -75 602 -69 649 -53C665 -48 682 -40 695 -34C707 -29 715 -25 718 -25C725 -25 804 31 832 63C895 134 954 221 954 381C954 417 948 581 798 723C778 742 727 776 721 776C721 776 696 795 672 802C658 806 664 809 653 809C641 809 649 813 633 817L611 821C603 823 553 834 493 834C466 834 437 832 408 825L371 818C302 805 195 725 168 693C152 674 100 602 98 596C95 587 89 574 82 562C75 548 69 535 69 530C69 527 68 524 67 523C60 515 43 410 43 367C43 356 47 332 52 309C53 301 55 293 56 285C59 270 62 257 62 253C64 237 69 240 69 232C69 228 71 224 72 224C74 224 75 220 75 215C75 194 122 109 200 35C217 20 198 32 246 0C268 -15 330 -46 338 -46C349 -46 383 -75 495 -75ZM490 -63C361 -63 356 -34 343 -34C333 -34 267 -2 245 14C174 65 100 175 100 188C100 192 94 195 82 232C63 291 57 334 57 376C57 423 65 468 81 532C83 542 119 611 125 618C132 627 138 635 143 643C156 663 169 683 208 714L236 736C247 745 288 770 303 777C356 802 356 802 380 807L404 812C442 821 473 823 498 823C539 823 565 816 582 814C695 801 761 741 812 692C855 650 870 629 904 566C904 566 943 469 943 375C943 198 844 100 844 95C844 91 778 26 774 26C765 26 757 3 687 -25C657 -37 657 -40 650 -40C639 -40 624 -63 514 -63ZM502 747C512 747 513 750 521 750C525 750 528 748 529 748C531 748 531 750 531 758C531 766 530 770 528 770C524 770 518 756 502 756C492 756 490 762 490 772C490 783 494 802 510 802C524 802 521 785 532 785C533 785 534 791 534 799V814H521C487 814 474 795 474 777C474 762 484 747 502 747ZM511 22H525C553 22 617 26 687 71L718 91C734 101 778 147 794 173L813 203C847 256 859 331 859 386C859 459 837 501 804 568C787 602 713 673 675 692C597 731 546 737 511 737C500 737 490 737 482 736C397 732 373 713 365 713C343 713 242 641 216 597C199 568 141 516 141 372C141 346 144 322 149 305L159 272C162 261 170 243 176 232C188 207 186 176 260 114C291 88 340 56 350 56C356 56 386 22 511 22ZM716 535C705 535 694 543 683 550C675 555 668 560 662 560C658 560 653 563 649 567C637 580 632 581 548 582C476 583 466 584 466 586C466 590 474 596 474 607C474 619 462 632 447 632C418 632 410 608 410 602C410 595 417 594 417 589C417 583 412 582 381 582C341 582 283 586 283 586C276 587 274 587 274 591C274 594 275 597 275 602C275 618 255 618 255 622C255 624 312 682 369 700C432 720 475 727 503 727C535 727 549 719 552 719C564 719 610 706 637 695C710 665 764 605 764 599C764 598 760 597 760 586C760 563 733 535 716 535ZM445 588C436 588 428 599 428 605C428 612 437 618 445 618C453 618 461 612 461 604C461 596 453 588 445 588ZM144 537C161 537 180 553 180 570C180 585 165 608 143 608C130 608 108 598 108 573C108 555 124 537 144 537ZM248 580C243 580 238 585 238 592C238 600 246 608 253 608C258 608 264 604 264 598C264 588 255 580 248 580ZM157 554C146 554 124 577 124 585C124 589 127 595 134 595C146 595 168 578 168 566C168 559 163 554 157 554ZM226 456C210 456 205 463 201 470C197 476 193 481 182 481C173 481 167 477 166 477C166 479 180 516 185 528C191 542 217 578 221 578C226 578 235 566 245 566C251 566 253 565 253 486C253 460 251 458 247 457C238 457 231 456 226 456ZM694 330C687 330 674 334 660 336C653 338 652 340 652 344C652 347 653 351 653 357C653 368 645 389 623 389C613 389 583 383 583 357C583 346 588 339 588 336C588 335 587 334 554 334C442 334 442 335 442 341C442 348 444 368 445 436L446 486L460 487H466C481 487 477 476 487 476C490 476 492 479 492 483C492 498 488 518 485 518C478 518 479 502 458 502H446L445 523V532C445 541 445 551 446 557L448 569L464 568H477C496 568 521 571 525 571C531 571 528 568 580 567C617 566 629 565 629 556C629 555 595 529 595 516C595 505 609 485 623 485C640 485 654 506 654 528C654 537 655 541 658 541C661 541 664 539 670 536C679 531 686 529 691 528C702 525 705 524 705 498V483L704 447L689 445C672 444 667 442 667 436C667 433 674 430 686 427L704 423L703 378C702 331 701 330 696 330ZM854 492C856 492 858 495 858 500C858 508 882 544 891 553C895 556 896 560 896 563C896 567 894 569 888 569C877 569 859 561 845 561C828 561 830 571 822 571C819 571 817 567 817 565C817 560 822 557 822 549C822 543 828 536 832 536C834 536 835 539 835 543C835 548 836 551 839 551C845 551 858 531 858 528C858 526 853 519 848 519C843 519 840 524 837 524C837 524 836 523 836 522C836 519 847 492 854 492ZM414 335C404 335 388 336 365 337C348 337 326 338 299 339L266 340V442C266 465 265 484 265 499V529C265 568 267 569 286 569H289C312 569 353 568 383 568C402 568 405 569 415 569C431 569 435 568 435 562C435 556 430 546 430 530V516C430 503 429 503 421 503C407 503 406 515 400 515C396 515 394 505 394 495C394 485 396 476 401 476C406 476 407 488 423 488C430 488 431 486 431 474C431 469 430 462 430 453C430 409 429 339 428 337C427 335 423 335 414 335ZM377 515C393 515 405 531 405 545C405 556 397 563 386 563C372 563 364 553 364 551C364 550 370 536 379 536C386 536 393 545 395 545C396 545 396 544 396 540C396 535 387 526 381 526C373 526 357 550 348 550C336 550 304 535 304 525C304 522 305 521 307 521C312 521 325 533 331 533C339 533 348 528 356 524C363 519 370 515 377 515ZM721 450C719 450 718 454 718 467V486C718 514 719 517 733 525C752 536 767 563 774 563C778 563 780 556 780 536C780 519 773 497 768 497C767 497 766 495 766 494C766 487 729 450 721 450ZM550 507C562 507 578 523 578 537C578 549 569 558 559 558C549 558 539 552 539 542C539 534 545 527 551 527C557 527 562 533 562 537C562 540 561 541 558 541H555C552 541 550 542 550 543C550 545 553 546 558 546C564 546 567 542 567 538C567 529 559 518 550 518C541 518 526 546 514 546C504 546 489 538 489 532C489 528 492 526 495 526C501 526 499 533 506 533C516 533 530 507 550 507ZM864 542C861 542 858 544 858 548C858 554 865 555 871 555C874 555 875 555 875 553C875 551 870 542 864 542ZM382 545C381 545 380 545 379 546C375 548 377 554 382 554C388 554 387 545 382 545ZM828 267C827 267 826 273 826 287C825 316 822 331 804 366C776 420 727 429 727 435C727 436 732 439 738 443C774 467 797 511 797 530C797 535 796 537 796 541C796 543 797 544 797 544C804 544 830 492 830 487C830 486 829 486 829 485C829 479 845 450 845 386C845 340 835 267 828 267ZM623 502C618 502 613 507 613 514C613 525 629 541 636 541C639 541 643 539 643 533C643 521 631 502 623 502ZM356 412C363 412 372 419 388 434L407 451L383 477C370 491 358 503 356 503C354 503 343 492 331 481L309 459L324 441C341 421 348 412 356 412ZM357 428C354 428 328 455 328 459C328 464 352 484 360 484C362 484 363 484 363 482C363 480 370 471 377 464L391 450L376 439C368 433 360 428 357 428ZM181 438C173 438 168 445 168 452C168 459 173 464 180 464C187 464 195 458 195 450C195 443 188 438 181 438ZM552 407C566 407 585 427 585 435C585 440 580 461 561 461C551 461 541 453 541 445C541 437 550 428 557 428C562 428 563 433 563 436C563 439 561 440 555 440C552 440 550 441 550 442C550 444 554 447 559 447C565 447 570 442 570 435C570 426 562 420 557 420C550 420 543 426 536 433C528 440 518 449 507 449C492 449 479 436 479 433C479 430 482 427 485 427C489 427 495 434 503 434C512 434 519 427 527 421C535 414 542 407 552 407ZM213 189C203 189 152 306 152 376C152 389 156 384 156 408C156 427 157 431 160 431C163 431 169 425 180 425C192 425 195 429 199 433C203 437 207 442 223 442C227 442 232 442 239 441L253 439L252 397C251 354 247 341 239 341C230 341 220 326 220 317C220 304 232 290 244 290C255 290 273 303 273 311C273 323 275 324 305 324C316 324 333 323 333 320C333 318 323 306 312 292L265 239C261 239 248 253 238 253C228 253 225 234 223 217C221 203 219 189 213 189ZM808 262C806 262 804 264 801 269C790 282 750 311 740 311C738 311 732 314 727 317L717 323L718 359C719 399 719 412 726 412C729 412 734 409 741 403C790 368 812 304 812 273C812 267 811 262 808 262ZM373 355C389 355 404 383 404 388C404 388 400 406 387 406C378 406 364 401 364 391C364 386 368 377 375 377C381 377 387 384 390 384C391 384 391 384 391 382C391 376 377 366 376 366C373 366 367 371 361 377L350 390L335 386C318 382 310 375 310 367C310 362 312 360 314 360C321 360 327 372 332 372C340 372 362 355 373 355ZM377 386C375 386 373 387 373 389C373 391 375 392 377 392C380 392 382 391 382 389C382 387 380 386 377 386ZM504 32C471 32 395 43 395 50C395 53 425 54 453 55C478 55 502 56 505 58C507 59 508 62 508 65C508 68 507 70 505 70C503 70 488 86 472 106L441 140V181L455 186C461 188 464 189 467 189C472 189 483 179 483 163V157C483 154 483 153 485 153C489 153 516 175 516 183C516 186 513 187 511 187C507 187 504 186 502 186C493 186 480 192 480 197C480 200 481 203 483 203C487 203 493 228 503 228C513 228 523 209 540 209C550 209 559 219 559 230C559 240 543 257 533 257C524 257 511 241 501 241C498 241 495 243 493 249C489 257 480 263 480 267C480 273 494 283 501 283C505 283 508 285 508 288C508 292 487 308 481 308C479 308 479 306 479 304V292C479 281 474 278 466 278H460L446 279L443 297C443 302 442 306 442 310C442 320 444 321 471 321H475L503 320L521 303L577 239C585 230 590 227 590 223C590 216 560 203 560 194C560 188 628 161 637 161C644 161 647 175 647 226C647 243 646 251 639 251C635 251 604 235 601 235C597 235 531 312 531 316C531 318 535 318 541 318C551 318 565 317 579 317C602 317 606 319 606 324C606 330 602 343 602 356C602 367 612 375 620 375C629 375 636 363 636 352C636 336 626 331 626 325C626 319 644 318 662 318C680 317 698 316 701 311C701 310 705 278 705 267V265C705 263 704 259 691 259C670 259 670 288 661 288C657 288 655 286 655 281C655 281 657 215 662 215C670 215 679 241 698 241C705 241 706 240 706 227C706 191 673 179 673 170C673 168 701 165 722 165C732 165 748 166 748 172C748 180 719 175 719 213C719 215 719 217 720 219V240L730 241H732C752 241 760 220 760 219C760 216 762 215 765 215C771 216 771 229 771 241V252C771 261 771 269 773 269C778 269 805 235 805 216C805 209 770 158 749 135C722 105 654 65 648 65C648 65 572 33 540 33C531 33 530 35 525 35C521 35 518 32 504 32ZM245 303C238 303 234 310 234 316C234 322 238 328 244 328C251 328 258 321 258 315C258 308 250 303 245 303ZM366 60C363 60 355 70 350 70C344 70 323 86 320 86C310 86 229 154 229 164C229 168 243 171 259 175C278 178 300 183 300 191C300 198 279 221 279 227C279 229 283 234 287 239L297 252C298 254 311 268 323 283C329 290 333 296 337 301C353 321 356 324 362 324C367 324 375 322 393 322H409C430 322 430 319 430 299V278L414 276C396 273 394 271 392 271C385 271 374 285 374 297C374 299 376 302 376 305C376 307 375 308 374 308C371 308 347 291 347 284C347 282 349 280 354 280C357 280 364 277 369 273L379 265L373 253C370 245 366 242 362 242C354 242 344 257 333 257C321 257 307 243 307 233C307 223 321 206 330 206C343 206 355 225 362 225C367 225 373 220 373 212C373 198 379 202 379 196C379 192 373 187 358 187C355 187 344 186 344 183C344 177 373 156 380 156C380 156 384 156 384 159C384 163 380 168 380 174C380 182 387 191 392 191C394 191 397 189 403 187C420 181 430 190 430 161C430 147 428 142 423 135L403 108C388 86 370 60 366 60ZM719 258 718 276V287C718 296 719 300 723 300C729 300 749 287 755 287C759 287 761 284 761 281C761 273 750 259 732 259ZM445 238 442 249V256C442 262 444 265 452 265C465 265 482 253 482 244C482 241 479 240 463 239ZM400 238C385 238 382 239 382 243C382 255 401 263 417 263C430 263 430 263 430 253C430 240 427 238 400 238ZM332 218C328 218 322 222 322 230C322 237 327 244 333 244C336 244 343 242 343 233C343 226 339 218 332 218ZM535 223C528 223 521 226 521 232C521 236 528 244 533 244C538 244 548 234 548 230C548 225 542 223 535 223ZM416 196C403 196 385 209 385 219C385 226 389 227 408 227H410C425 227 431 227 431 216C431 206 428 196 416 196ZM447 196C443 196 442 198 442 201C442 205 444 212 444 223C444 226 456 227 466 227C475 227 483 226 483 224C483 213 462 196 447 196ZM251 27C253 27 254 29 254 32V39C254 46 271 72 280 72C284 72 289 71 294 71C297 71 298 72 298 74C298 78 293 82 289 85C278 90 271 104 264 104C262 104 261 102 261 101C261 96 267 88 267 85C267 79 242 51 236 51C233 51 229 54 225 54C222 54 220 52 220 49C220 48 251 27 251 27ZM414 68C407 68 401 70 401 73C401 79 421 104 425 104C429 104 430 100 430 89C430 71 426 68 414 68ZM456 68 443 69 441 85C441 90 440 94 440 97C440 102 441 104 443 104C448 104 475 75 475 71C475 68 472 68 466 68ZM710 -1C713 -1 732 10 732 40V44C732 48 733 49 736 49C743 49 762 41 772 41C781 41 786 44 786 50C786 54 785 55 783 55C781 55 779 54 776 54C769 54 749 73 749 83C749 86 750 91 750 95C750 97 750 98 749 98C747 98 744 95 738 90L729 82L740 72C746 66 750 63 750 61C750 60 749 60 748 60C743 60 732 68 726 68C722 68 720 66 720 60C720 49 727 35 727 32C727 31 726 30 725 30C721 30 707 45 707 57C707 60 708 61 708 64C708 67 706 68 704 68C698 68 695 59 689 59C686 59 680 49 680 46C680 45 680 44 681 44L688 45C698 45 711 25 711 13C711 9 706 4 706 1C706 -1 707 -1 710 -1Z" fill="#f59e0b" stroke="none"/>
  </g>
</svg>