<svg xmlns="http://www.w3.org/2000/svg" viewBox="-50 -50 1100 1100">
  <g transform="translate(0, 1000) scale(1, -1)">
    <path d="M494 -89C556 -89 625 -76 699 -41C754 -16 824 44 867 101C875 111 919 153 945 252L955 285C962 310 965 342 965 374C965 482 947 530 906 601L884 640C862 679 754 817 576 839C563 840 545 846 506 846C490 846 473 845 451 843C333 831 290 794 287 794C282 794 229 760 219 751C214 746 206 739 199 735C173 718 116 650 96 611C58 537 35 458 35 377C35 324 44 271 62 218C69 200 111 114 116 109C116 109 176 33 229 -4C277 -37 371 -89 494 -89ZM484 -77C444 -77 386 -73 286 -25C282 -25 257 -7 255 -7C248 -7 167 54 123 120C102 151 53 264 53 300C53 300 47 338 47 386C47 420 50 459 60 490C76 542 104 666 260 766C293 787 351 815 362 815C368 815 407 835 490 835C636 835 720 794 799 724C881 653 938 543 949 455C952 434 953 398 953 366C953 339 952 316 950 307L943 279C943 279 926 220 924 217L911 186C892 141 832 73 812 53C791 32 742 -7 738 -7C735 -7 728 -17 710 -24C693 -30 687 -37 684 -37C682 -37 638 -57 582 -70C560 -76 549 -77 506 -77ZM509 -69C533 -69 555 -67 562 -65C567 -63 632 -50 666 -34L700 -19C794 21 887 144 887 151C887 158 905 172 921 227C925 239 928 249 930 258C944 301 947 310 947 377V381C947 411 946 499 912 561L894 596C835 706 734 767 730 767C720 767 656 828 499 828C477 828 456 827 438 824C328 807 308 785 300 785C298 785 273 767 271 767C271 767 184 715 128 632C116 615 92 566 92 560C92 557 65 493 59 446L54 410V401C54 263 85 219 85 212C85 204 121 138 137 115C154 91 207 35 219 26C271 -14 331 -38 366 -51C397 -63 461 -69 509 -69ZM494 -58C432 -58 393 -43 384 -43C378 -43 360 -35 345 -28C335 -23 326 -19 324 -19C311 -19 182 52 131 147C108 191 95 222 89 240L81 271C75 293 67 355 67 391C67 451 79 485 87 505C90 514 92 520 92 525C92 527 93 533 96 538C100 546 103 554 106 562C119 594 133 629 188 684C292 788 373 801 409 809L432 814C440 816 501 820 518 820C525 820 532 819 546 816C552 815 561 814 571 812C684 794 713 763 731 752C771 730 829 679 849 650C874 614 897 571 905 551L920 514C930 488 937 423 937 372C937 356 937 341 935 329C920 229 907 237 907 226C907 181 804 46 717 1C627 -46 551 -58 494 -58ZM454 741C458 741 462 744 467 744C473 744 473 741 477 741C479 741 480 745 480 747C480 750 474 757 474 776C474 780 475 783 477 783C481 783 491 759 500 759C510 759 513 787 519 787C521 787 521 778 521 773C521 752 515 753 515 749C515 746 526 742 534 742C542 742 544 748 544 749C544 751 543 752 540 752C536 752 534 767 534 780C534 806 541 801 541 806C541 810 536 812 529 812C515 812 512 797 512 795C512 790 503 781 500 778L485 794C475 804 467 810 459 810C454 810 446 807 446 803C446 800 449 797 455 797C460 797 460 795 460 775C460 754 460 752 454 752C450 752 448 749 448 747C448 744 451 741 454 741ZM502 27C586 27 604 44 609 44C624 44 710 96 710 96C719 101 730 112 740 122C747 128 753 134 758 138C774 151 826 231 826 242C826 243 829 251 832 258C837 268 838 276 840 283C841 290 843 296 846 303C853 316 855 347 855 380C855 450 845 460 843 481C840 512 812 550 812 555C812 560 800 568 800 573C800 581 723 672 665 696C634 709 634 716 620 716C614 716 563 736 498 736C421 736 372 707 363 707C349 707 257 653 216 586L197 557C188 543 179 524 174 513L160 481C152 463 148 423 148 382C148 338 148 263 210 177L231 147C261 106 338 63 344 62C359 61 371 27 502 27ZM494 390C490 390 341 539 341 554C341 558 334 564 334 571C334 583 346 585 358 588C367 590 375 592 375 598C375 602 372 606 366 606H364C359 606 268 603 253 600H248C246 600 244 601 244 602C244 613 313 674 375 695L409 708C440 719 472 723 501 723C565 723 623 703 665 681C691 668 707 653 719 641C727 634 733 628 740 624C745 621 748 618 748 616C748 610 730 609 711 609C701 609 690 610 681 610C653 610 646 608 646 605C646 599 668 599 668 581C668 575 665 568 658 556C647 539 540 428 534 428C534 428 512 436 512 453C512 463 513 466 516 466C521 466 532 449 539 449C543 449 546 454 546 472C546 484 543 497 540 497C534 497 528 483 522 483C518 483 515 489 515 502C515 516 549 504 566 532C572 541 587 551 592 579C594 591 594 592 608 592C616 592 627 595 627 604C627 608 620 609 603 609C564 609 558 608 558 600C558 591 580 597 580 589C580 562 549 524 520 524C516 524 513 525 513 528C513 533 516 530 516 541C516 550 514 564 514 574C514 582 515 589 517 591C521 596 548 592 548 601C548 609 530 611 506 611C471 611 464 607 464 601C464 596 469 593 479 593C497 593 498 585 498 553V548C498 528 497 526 493 526C457 526 431 569 431 582C431 598 448 588 448 599C448 608 440 608 411 608H409C391 608 386 606 386 600C386 594 390 591 396 591C399 591 402 592 404 592C408 592 409 589 412 580C417 568 436 538 447 529C455 522 481 509 487 509C495 509 499 503 499 492C499 485 498 483 494 483C486 483 476 497 468 497C463 497 462 489 462 473C462 457 463 449 467 449C474 449 479 464 489 464C494 464 498 460 498 453C498 437 470 435 470 426C470 422 480 421 493 421H513C521 421 523 421 523 419C523 414 501 390 494 390ZM838 544C854 544 872 558 882 558C887 558 888 554 892 554C894 554 895 555 895 558C895 563 887 581 880 581C878 581 877 580 877 576C877 572 856 557 841 557C833 557 828 561 828 568C828 582 849 601 858 601C864 601 862 593 871 593C873 593 874 594 874 596C874 601 858 623 853 623C852 623 851 622 851 618C851 611 817 595 817 584C817 578 812 576 812 569C812 565 820 544 838 544ZM170 540C178 540 193 567 193 568C193 570 191 571 189 571C185 571 181 568 179 568C173 568 166 574 166 580C166 584 169 586 173 586C184 586 191 575 199 575C203 575 216 585 216 603C216 612 212 619 209 619C207 619 205 616 205 609C205 597 204 591 198 591C195 591 192 593 188 595C166 608 183 622 160 622C154 622 147 621 142 617C138 615 116 585 116 577C116 576 116 575 117 575C121 575 128 582 132 582C135 582 167 565 167 545V543C167 541 167 540 170 540ZM150 588C146 588 143 594 143 599C143 606 147 610 152 610C157 610 162 606 162 601C162 595 155 588 150 588ZM754 155C752 155 727 170 704 186C684 199 572 307 555 330C531 361 523 365 523 368C523 368 545 369 574 369H592C663 369 664 368 664 354C664 347 685 276 743 276C789 276 823 318 823 347C823 352 822 355 819 355C811 355 803 330 776 330C758 330 743 343 743 369C743 387 750 409 758 418C764 424 768 425 785 425C809 425 815 418 819 418C821 418 825 423 825 430C825 438 813 473 759 473C744 473 730 470 721 466L703 459C688 453 663 415 663 401C663 399 664 399 664 397C664 386 635 383 603 383C586 383 521 386 521 388C521 390 525 396 532 401C544 411 568 435 594 461L631 498C667 534 699 566 704 566C712 566 729 587 746 587C757 587 760 592 764 592C778 592 823 505 823 498C823 491 828 491 832 464L838 428C841 411 843 393 843 374C843 347 840 321 834 310C828 298 827 293 826 286C823 276 820 264 801 223C790 200 759 155 754 155ZM448 384C346 384 336 388 336 394C336 396 337 398 337 399C337 408 313 474 244 474C175 474 177 442 168 442C167 442 167 442 167 444C167 451 173 474 179 486L188 508C220 582 230 584 242 584C257 584 252 579 268 574C289 568 307 554 347 514C401 458 434 426 452 408C467 393 473 387 473 386C473 384 465 384 448 384ZM228 293C200 293 185 309 185 312C185 313 186 314 187 314C190 314 212 306 220 306C230 306 271 323 271 377C271 449 207 444 207 451C207 455 219 459 236 459C246 459 259 457 271 454C297 446 319 409 319 380C319 369 317 365 311 345C303 316 262 293 228 293ZM742 296C729 296 714 301 704 314C682 341 680 348 680 378C680 442 726 459 758 459C787 459 800 442 800 441C799 440 793 440 786 440H778C744 440 726 406 726 375C726 333 756 318 775 318C787 318 796 323 797 323C800 323 802 322 802 320C802 315 771 296 742 296ZM215 320C191 320 188 338 173 338C170 338 168 337 167 337C165 337 163 339 163 395V404C163 414 164 415 170 417C186 421 178 437 197 437C232 437 255 403 255 374C255 360 247 320 215 320ZM239 164C236 164 209 192 185 255L169 293C166 302 164 307 164 310C164 311 165 311 166 311C175 311 193 270 229 270C271 270 322 312 330 343L335 359L339 369H407C444 369 476 368 476 367C476 366 468 359 455 347C447 339 436 328 424 317L335 229C300 194 295 190 270 177C255 170 241 164 239 164ZM504 43C411 43 399 59 390 59C384 59 369 67 357 74C348 79 340 83 337 83C330 83 280 117 259 138L249 147L316 146H347C374 146 385 147 385 150C385 153 354 167 349 167C341 167 334 179 334 192C334 215 365 235 365 235C366 235 372 241 381 251L403 273C410 280 418 288 425 296C456 327 488 359 493 359C495 359 495 358 495 356V351C493 344 493 310 493 280C493 270 492 261 492 253C492 240 492 231 491 230C490 227 486 225 480 225C466 225 439 234 439 244C439 247 436 252 433 252C428 252 423 244 423 236V233C426 224 426 211 426 200C426 187 427 176 431 176C443 176 439 208 472 208C491 208 493 205 493 197C493 186 478 162 466 158C449 152 440 148 440 144C440 142 509 139 540 139C556 139 560 140 560 144C560 149 552 154 542 155C538 155 507 177 507 189C507 210 516 211 520 211C547 211 556 176 568 176C571 176 572 178 572 181C572 186 571 184 571 195V223C571 248 569 256 562 256C559 256 557 253 557 249C557 249 552 224 528 224C511 224 507 229 507 238C507 245 509 254 509 266C509 276 508 274 508 284C508 305 512 349 514 349C518 349 533 321 599 258C607 249 659 203 659 179C659 164 641 158 626 153C616 149 607 146 607 141C607 137 617 136 632 136C642 136 653 137 666 137C682 137 697 136 712 134L731 132L720 121C713 114 707 109 705 109C704 109 619 59 606 59C589 59 596 43 504 43ZM848 139C865 139 880 168 880 175C880 180 879 182 877 182C873 182 872 174 868 174C866 174 861 178 852 185L832 200C832 203 839 210 839 216C839 217 838 218 837 218C828 218 812 192 812 186C812 184 813 182 815 182C822 182 822 187 826 187C830 187 835 182 835 175C835 171 833 170 830 170C825 170 818 173 811 173C795 173 787 160 787 152C787 146 793 141 797 141C800 141 802 144 802 148C802 151 801 151 801 154C801 159 804 161 808 161C818 161 822 156 826 151C831 145 836 139 848 139ZM159 127C161 127 163 129 163 133C163 138 169 144 176 150C185 158 195 168 195 180C195 185 191 206 168 206C151 206 142 195 132 195H125C121 195 119 193 119 191C119 181 133 162 138 162C140 162 141 163 141 167V169C141 178 159 192 171 192C179 192 181 185 181 182C181 174 162 154 155 154C153 154 149 158 143 158C141 158 140 157 140 157C140 155 153 127 159 127ZM850 151C843 151 840 153 840 157C840 160 843 170 848 170C851 170 858 165 858 159C858 155 855 151 850 151ZM459 -52C473 -52 475 -51 488 -35L504 -18L510 -30C515 -43 529 -52 541 -52C545 -52 547 -50 547 -48C547 -38 535 -53 535 -18C535 18 550 0 550 10C550 14 540 17 527 17C521 17 516 16 516 14C516 11 523 6 523 -10C523 -17 523 -20 521 -20C515 -20 508 8 502 8C498 8 494 -1 491 -10C487 -19 484 -28 479 -28C477 -28 476 -26 476 -23C476 -3 490 6 490 10C490 17 477 19 465 19C452 19 450 18 450 13C450 1 463 12 463 -9C463 -33 463 -38 454 -40C453 -40 445 -45 445 -48C445 -51 448 -52 459 -52Z" fill="#f59e0b" stroke="none"/>
  </g>
</svg>