<svg xmlns="http://www.w3.org/2000/svg" viewBox="-50 -50 1100 1100">
  <g transform="translate(0, 1000) scale(1, -1)">
    <path d="M495 -91C550 -91 561 -84 569 -84H573C582 -84 581 -79 584 -79C587 -79 588 -82 592 -82C607 -82 671 -55 673 -55C682 -55 770 -5 770 -5C783 2 854 73 871 96C904 142 932 190 932 196C932 199 938 209 938 211C938 215 951 239 951 247C951 249 950 248 950 250C950 252 954 257 954 259C954 261 957 266 957 269C957 271 956 272 956 273C956 277 960 275 960 279L959 283C959 289 963 285 963 293V298C963 317 971 298 971 390C971 437 965 463 961 481C959 490 957 498 957 504C957 507 953 512 953 514C953 516 947 528 947 529C947 531 940 543 940 547C940 569 882 656 869 674C841 712 771 765 767 768C746 787 645 831 633 831C632 831 632 830 631 830C628 830 624 834 622 834C622 834 604 850 483 850C461 850 459 849 455 848C453 847 450 846 433 845C387 843 352 830 287 798C232 771 202 749 161 704C107 647 90 619 50 522C50 520 51 519 51 517C51 516 51 515 49 513C47 510 37 476 37 474C37 471 38 469 38 467C38 463 34 465 34 460C34 459 35 458 35 456C35 449 29 456 29 390C29 322 35 325 35 322C35 319 32 315 32 312C32 309 35 309 35 305C35 302 34 301 34 298C34 287 43 265 43 260C43 256 50 244 50 241C50 240 55 229 59 218C65 204 71 190 71 188C71 186 75 178 80 170C86 159 94 145 94 140C94 140 129 77 206 15C263 -31 267 -33 296 -45C307 -49 320 -55 340 -64C348 -68 382 -76 405 -81C419 -84 429 -87 429 -87C429 -89 469 -91 495 -91ZM489 -81C277 -81 153 73 137 95C54 206 46 301 43 342C42 353 42 361 40 363C39 364 39 368 39 375C39 404 47 480 52 491C52 491 83 588 118 640C138 668 181 714 208 736C257 777 311 799 312 800C330 814 415 839 510 839C530 839 552 838 572 835C634 827 729 785 759 762L788 739C811 721 870 662 873 654C874 651 881 640 890 625C907 597 931 558 931 547C931 544 952 494 952 478C952 478 962 410 962 359C962 333 958 297 937 232C912 157 879 123 878 120L864 101C859 93 818 46 807 36C765 -6 659 -59 607 -69C562 -77 523 -81 489 -81ZM467 -77C520 -77 592 -67 592 -67H596C601 -67 604 -65 639 -54C786 -4 849 86 877 126C882 135 887 141 890 144C900 153 958 265 958 382C958 401 956 419 953 438L945 481C941 507 924 558 911 583C898 609 854 671 835 692C778 751 710 795 625 817C623 818 584 835 505 835C393 835 336 811 253 763C200 733 130 649 130 646C130 644 125 636 119 628C87 584 55 487 54 478L51 458C47 425 45 408 45 393C45 380 46 369 47 350L50 310C51 280 62 252 70 234C73 225 76 218 76 215C76 209 87 188 97 169C104 155 111 142 111 139C111 137 122 122 134 107C198 23 311 -53 390 -63C409 -66 415 -68 421 -71C428 -74 434 -77 467 -77ZM491 -65C397 -65 313 -24 313 -24C312 -24 303 -20 291 -14C265 0 254 9 245 18C238 24 232 29 223 35C198 51 130 127 128 141C125 155 100 166 68 284C66 290 60 337 60 389C60 425 63 465 73 494L83 525L96 559L111 593C126 625 148 654 190 695C220 725 316 822 506 822C611 822 724 770 732 759C734 756 737 754 739 754C745 754 944 629 944 382C944 260 886 152 873 138C873 138 811 56 771 30L735 6C652 -50 560 -65 491 -65ZM504 746C521 746 538 769 538 789C538 806 527 819 499 819C485 819 482 819 475 811C467 803 466 799 466 786C466 761 489 746 504 746ZM503 757C493 757 483 773 483 788C483 804 487 807 505 811C507 811 522 805 522 785C522 772 515 757 503 757ZM497 23C637 23 709 89 753 129C759 135 765 140 771 145C790 161 826 224 837 261L850 302C854 315 858 343 858 380C858 432 849 498 813 555C717 712 587 737 501 737C464 737 435 733 421 732C383 729 269 682 205 586C193 569 184 555 182 555V557C182 565 197 574 197 587C197 595 189 607 179 607C164 607 148 591 139 591C133 591 132 598 132 600C132 607 141 612 151 612C156 612 159 614 159 616C159 620 145 631 142 631C140 631 139 629 139 626C139 616 121 608 121 591C121 585 124 569 137 569C152 569 183 594 187 594C188 594 189 594 189 593C189 585 177 568 168 568C166 568 159 566 159 562C159 555 178 548 178 544C178 534 143 478 143 404C143 389 144 364 146 318C148 285 166 249 179 223C186 209 191 198 191 193C191 189 188 190 188 186C188 182 191 177 191 174C191 173 190 172 187 172C180 172 166 186 166 193C166 194 167 195 170 195C173 195 178 193 181 193C183 193 184 194 184 196C184 201 174 212 171 222C169 227 167 229 165 229C162 229 160 226 160 220C160 213 153 200 145 188C138 175 130 163 130 155C130 155 130 147 140 147C148 147 173 161 195 161C198 161 204 157 208 157C210 157 211 157 211 160C211 163 200 178 200 183C200 185 203 184 205 181C217 159 255 114 270 103C357 36 413 37 418 30C420 27 467 23 497 23ZM672 439C657 439 603 440 600 442C598 443 597 448 597 454L598 458L599 472H611C630 472 648 484 658 484C661 484 747 536 747 592C747 607 741 621 727 636C717 646 712 649 690 649C664 649 648 636 648 615C648 588 676 585 676 585C687 585 705 592 705 606C705 613 700 624 688 624C683 624 670 622 670 613C670 611 671 610 673 610C673 610 679 614 685 614C689 614 693 612 693 606C693 600 685 596 678 596C669 596 664 603 664 610C664 621 673 634 692 634C704 634 708 632 718 622C729 612 730 610 730 597V595C730 555 664 490 614 490C602 490 600 492 600 511C600 514 600 517 601 521L602 544H622C642 544 648 547 648 554C648 567 604 625 595 625C593 625 585 615 576 603C563 584 547 562 540 562C535 562 533 564 533 567C533 569 535 572 535 577C535 589 523 597 514 597C501 597 490 582 490 573V569C490 566 489 565 485 565C480 565 470 578 460 592C447 608 433 626 425 626C422 626 418 623 414 616C414 616 380 568 366 568C361 568 359 569 359 573C359 577 360 579 360 584C360 593 355 598 338 598C321 598 312 591 312 577C312 570 312 568 308 568C303 568 292 576 275 593L250 618L268 635C309 673 383 712 423 717C424 717 461 725 504 725C520 725 536 724 551 721L575 717C575 717 680 692 749 618C763 602 792 567 795 559C795 558 788 558 779 558C763 558 762 557 751 545C728 518 712 468 712 459C712 442 710 439 672 439ZM853 536C857 536 858 541 858 543C858 550 842 546 842 558C842 567 855 579 862 581C870 584 872 586 872 594C872 617 854 633 849 633C846 633 845 631 845 629C845 626 846 624 846 624C846 618 822 597 811 597C808 597 804 601 800 601C797 601 796 599 796 597C796 588 812 574 816 574C819 574 830 587 836 587C837 587 838 586 838 582C838 576 829 569 829 559C829 545 848 536 853 536ZM854 589C852 589 846 591 846 595C846 600 849 606 853 606C856 606 861 601 861 596C861 592 858 589 854 589ZM562 562 579 584C588 596 597 605 599 605C602 605 627 566 627 564C627 562 615 562 597 562ZM245 569 220 571C241 595 238 604 243 604C245 604 272 573 272 569ZM449 566C438 566 395 568 395 569C395 573 421 604 425 604C430 604 460 569 460 567C460 566 456 566 449 566ZM337 568C331 568 327 573 327 578C327 583 333 586 338 586C342 586 349 584 349 579C349 573 343 568 337 568ZM512 566C507 566 503 569 503 573C503 578 511 586 514 586C517 586 524 581 524 576C524 570 517 566 512 566ZM493 35C458 35 424 39 418 46C413 52 357 59 298 102C274 119 253 138 253 141C253 142 245 152 236 162C179 235 156 285 156 400C156 458 170 487 191 534C199 551 200 554 207 554C211 554 217 553 228 553H244L242 493C241 461 240 434 240 410C240 395 239 381 239 369C239 315 238 291 232 291C230 291 226 294 214 294C195 294 184 284 184 267C184 237 216 235 217 235C218 235 220 232 221 227C223 219 241 201 255 201C269 201 280 225 280 232C280 234 276 238 276 243C276 246 281 247 313 247C415 247 462 244 488 243C498 242 505 242 510 242C515 242 524 245 531 245C535 245 537 243 537 242C537 240 532 239 532 227C532 207 556 195 559 195C573 195 582 204 589 212C595 218 600 223 607 223C619 223 634 238 634 250C634 264 619 277 604 277H592L593 312L605 311C644 308 722 269 722 186C722 161 714 143 700 135C687 128 677 123 670 123C655 123 646 145 646 153C646 161 651 166 661 166C670 166 674 161 674 154C674 150 671 146 666 146C664 146 662 148 660 148C658 148 656 146 656 145C656 141 664 134 667 134C672 134 691 148 691 156C691 165 677 179 659 179C644 179 628 168 628 145C628 123 645 109 668 109C700 109 736 135 736 184C736 235 717 256 708 268C691 291 658 319 649 319C643 319 646 322 616 329L595 334V352C595 366 596 368 627 368H649C676 368 701 367 705 362C707 359 712 327 712 316C712 299 733 238 772 238C797 238 814 263 814 285C814 301 805 314 798 314C789 314 769 309 769 287C769 277 774 269 781 269C788 269 790 277 790 279C790 283 788 286 785 286C783 286 782 287 782 288C782 293 788 301 790 301C792 301 802 298 802 284C802 274 796 252 776 252C755 252 733 278 731 310C729 351 724 372 724 384C724 396 729 397 746 397C774 397 780 394 780 379C780 350 767 348 767 340C767 338 768 334 776 334C795 334 834 353 845 383C845 384 845 385 846 385V377C846 360 843 319 840 310L829 276C798 182 755 150 755 150C652 47 579 48 562 43C548 38 521 35 493 35ZM317 264C261 264 250 264 250 272C250 273 251 275 251 277C252 281 253 302 254 349C254 359 254 369 255 381L259 545C259 550 297 551 336 551C378 551 422 549 423 549C426 547 427 538 427 528C427 518 426 505 425 495L423 479L390 480C371 480 355 481 354 481C352 482 337 515 326 515C315 515 315 458 315 453C315 436 317 421 322 421C335 421 341 444 348 452C354 460 355 460 388 461H421V312C412 307 406 304 400 295L394 286L402 277C412 268 416 267 416 266C416 265 374 264 333 264ZM525 261C486 261 439 263 439 265C439 266 452 269 452 284C452 291 448 299 440 302C438 303 438 319 438 344V459L465 458C479 458 494 457 498 457C508 457 520 428 520 425C520 421 524 417 528 417C529 417 530 417 531 418C536 420 543 507 543 507C543 513 536 515 534 515C528 515 524 509 524 501C524 496 520 491 510 485C496 476 494 475 468 475H440V527C440 546 442 548 463 548C477 548 500 547 537 547L583 546C585 539 585 538 585 536V534C585 498 578 269 573 263C571 261 550 261 525 261ZM772 407C766 407 763 411 749 411C743 411 736 410 732 410C726 410 725 411 725 417C725 418 734 544 779 544C789 544 798 543 798 529C798 520 793 508 785 508C780 508 775 515 775 517C775 521 783 520 783 528C783 535 776 539 772 539C766 539 761 533 761 524C761 507 778 496 789 496C799 496 808 503 808 527V539L817 521C828 496 836 465 839 448L842 438L827 451C811 467 807 471 787 471C778 471 772 468 772 464C772 457 780 462 780 431C780 413 779 407 772 407ZM795 350C794 350 793 351 793 352C793 354 794 356 794 358C796 368 797 399 797 423C797 440 797 454 798 454C799 454 831 443 831 407C831 362 795 350 795 350ZM679 410C613 410 596 414 596 419C596 422 599 424 651 424C704 424 707 422 707 417C707 412 700 410 679 410ZM655 383C609 383 596 384 596 390C596 394 599 398 651 398C679 398 705 396 707 393V391C707 383 705 383 655 383ZM299 274C303 274 309 276 312 276C317 276 325 275 332 275C341 275 349 276 349 279C349 284 326 291 326 305C326 313 333 321 343 321C358 321 363 295 374 295C378 295 382 314 382 332C382 347 379 360 370 360C364 360 363 337 344 337C334 337 334 337 334 347C334 366 354 367 354 379C354 383 351 385 345 385C335 385 340 382 315 381C300 381 296 379 295 375C295 372 296 370 299 370C306 370 315 357 315 347C315 338 314 337 307 337C294 337 286 361 277 361C276 361 275 360 273 360C273 359 270 335 270 318C270 303 271 298 275 298C282 298 287 321 307 321C311 321 312 321 312 318C312 287 294 284 294 277C294 275 296 274 299 274ZM511 277C525 277 538 278 538 279C538 284 517 290 517 305C517 313 522 319 532 319C538 319 542 317 543 314C546 303 551 295 555 295C558 295 562 316 562 329C562 342 560 351 556 351C547 351 554 334 529 334C521 334 520 334 520 345C520 363 541 362 541 373C541 376 535 377 513 377C490 377 487 376 487 371C487 368 490 363 494 363C504 363 507 342 507 338C507 334 505 334 499 334C489 334 475 345 475 352C475 354 473 355 470 355C460 353 467 323 462 313C461 311 461 310 461 309C461 306 463 305 465 305C477 305 475 319 494 319C501 319 504 319 504 315C504 290 483 285 483 279C483 277 496 277 511 277ZM431 274C424 274 416 282 416 287C416 290 419 292 424 292C429 292 438 289 438 281C438 277 436 274 431 274ZM213 252C206 252 199 258 199 266C199 273 206 282 217 282C225 282 230 277 230 269C230 261 223 252 213 252ZM604 238C594 238 592 244 592 251C592 260 598 265 604 265C613 265 616 258 616 251C616 243 611 238 604 238ZM564 209C553 209 544 223 544 228C544 234 560 246 565 246C571 246 583 235 583 226C583 216 571 209 564 209ZM252 212C247 212 234 229 234 234C234 238 241 242 249 242C265 242 265 238 265 232V230C265 215 255 212 252 212ZM835 115C856 115 868 140 868 150C868 171 850 188 830 188C812 188 799 174 799 153C799 119 827 115 835 115ZM153 163C149 163 148 163 148 165C148 167 156 178 160 178C162 178 165 175 165 172C165 168 159 163 153 163ZM841 127C830 127 812 146 812 159C812 166 816 172 825 172C849 172 854 147 854 142C854 133 847 127 841 127ZM505 -55C512 -55 518 -52 524 -52C529 -52 529 -53 532 -53C535 -53 537 -51 537 -49C537 -44 531 -45 531 -29C531 6 534 9 540 9C544 10 547 12 547 15C547 18 540 19 530 19C510 19 478 13 478 -2C478 -9 485 -13 485 -19C485 -26 479 -32 479 -39C479 -49 495 -55 505 -55ZM510 -15C503 -15 491 -10 491 -2C491 7 513 10 515 10C517 10 520 3 520 -5C520 -12 516 -15 510 -15ZM504 -43C501 -43 491 -42 491 -37C491 -35 496 -23 510 -23C516 -23 520 -26 520 -30C520 -37 512 -43 504 -43Z" fill="#f59e0b" stroke="none"/>
  </g>
</svg>