<svg xmlns="http://www.w3.org/2000/svg" viewBox="0 -124 1000 1006">
  <g transform="translate(0, 758) scale(1, -1)">
    <path d="M506 -94C589 -94 581 -82 595 -82C600 -82 621 -75 639 -69C654 -64 668 -60 671 -60C673 -60 688 -51 709 -41C765 -14 784 5 806 25C815 33 824 41 835 50C845 59 887 112 887 117C887 118 892 125 897 132C905 143 930 188 930 190C930 191 934 197 934 198C934 199 937 206 937 208C937 208 970 278 970 394C970 437 964 440 964 455C964 463 957 468 957 483C957 485 958 487 958 490C958 501 954 501 954 505C954 507 955 509 955 511C955 517 949 515 949 524C949 530 941 540 937 558C935 569 887 650 881 653C879 654 877 657 877 660C877 663 867 676 855 689L821 726C785 764 699 808 693 808C693 808 663 819 661 821C653 829 625 834 617 839C617 839 606 841 592 842C567 845 531 849 518 852C446 852 398 837 395 837C390 837 385 833 383 833C381 833 361 827 361 827C360 827 354 824 353 824C353 826 350 824 347 821C336 813 323 819 257 779C209 750 124 668 100 626C54 547 43 495 43 495C43 492 42 490 40 490C36 490 37 454 33 451C31 448 30 426 30 371C30 318 31 294 33 292C37 288 35 284 35 282C35 279 39 278 39 275C39 274 38 273 38 271C38 267 42 261 42 259C42 257 46 246 50 234C55 221 60 208 60 205C60 203 65 194 71 182C79 168 89 151 93 139C105 108 193 16 198 16C201 16 225 -5 227 -5C227 -5 314 -60 320 -60C323 -60 330 -64 331 -64C331 -64 382 -82 393 -82H399C400 -82 401 -82 401 -83C405 -89 457 -94 506 -94ZM510 -86C445 -86 350 -67 312 -46C264 -19 230 0 210 16C188 32 137 84 137 89C137 91 131 99 124 108C114 121 101 137 101 144C101 151 65 197 47 277C41 301 39 338 39 375C39 423 44 471 51 488L59 510C74 557 104 648 219 740L253 768C264 777 308 799 325 805L357 816C425 840 464 840 475 840C620 840 657 816 717 786C778 756 832 705 832 702C832 700 840 691 849 683C857 674 865 666 865 663C865 660 869 653 877 644C902 609 961 530 961 365C961 301 955 322 951 293C945 249 920 188 920 188C920 174 855 73 784 16C721 -36 652 -58 652 -58C652 -58 569 -82 552 -82C550 -82 549 -82 549 -81C549 -78 591 -69 591 -69C591 -69 592 -70 594 -70C601 -70 601 -66 603 -66C604 -66 604 -67 606 -67C609 -67 614 -63 616 -63C618 -63 623 -60 625 -60L634 -58C636 -58 647 -50 655 -50C655 -50 779 -16 879 127C886 136 890 142 893 147C901 157 901 158 905 167L934 241C936 247 938 260 940 264C942 266 942 267 942 268C942 270 941 272 941 275C941 276 941 276 942 277C946 282 945 307 949 312C953 317 956 345 956 377C956 514 898 608 880 632L861 659C810 736 704 793 694 793C694 793 610 837 497 837C441 837 397 822 358 811C269 787 170 692 170 688C170 684 134 654 112 619L93 586C86 574 76 543 67 518C63 504 59 492 56 485C46 460 42 421 42 387C42 309 57 256 57 256C57 253 70 223 70 220C70 210 107 143 108 140C111 125 186 37 217 19C224 15 229 10 229 8C229 3 243 2 257 -8C276 -22 299 -28 299 -32C299 -34 301 -35 303 -35C306 -35 308 -36 308 -38C308 -42 367 -62 371 -62C373 -62 382 -67 383 -67C383 -67 477 -83 514 -83C530 -83 526 -79 535 -79C540 -79 545 -81 545 -81C545 -83 531 -86 510 -86ZM507 -65C441 -65 366 -54 325 -33C277 -9 241 13 218 31C188 56 155 89 144 108L130 127C125 135 88 208 81 225C58 279 57 329 57 353V359C57 421 64 487 70 493C70 493 103 597 147 650C179 690 258 757 270 757C272 757 274 759 275 761C278 768 387 824 499 824C538 824 580 819 629 807C652 801 724 767 753 746C784 725 826 691 833 680C840 667 848 664 848 660C848 658 854 650 860 640C867 630 874 620 874 617C874 608 943 547 943 360V358C943 333 941 313 940 313C938 313 937 308 936 302C918 189 858 119 858 119C848 102 839 101 839 97C839 93 827 80 801 54C768 20 687 -33 662 -37C641 -40 629 -49 620 -49H617C610 -49 587 -65 507 -65ZM521 747C526 747 531 750 531 757C533 780 557 766 557 776C557 780 556 780 553 780C549 780 540 778 522 778C514 778 509 777 509 775C509 769 523 771 523 765C523 762 519 759 512 759H510C503 759 500 759 500 775C500 788 507 799 513 799C521 799 521 784 526 784C530 784 532 794 532 801C532 809 530 817 527 817C523 817 529 812 516 812C502 812 487 793 487 776C487 761 508 747 521 747ZM504 19C585 19 633 47 664 60C695 72 760 127 788 164C845 240 858 332 858 387C858 414 856 420 853 434C852 442 849 453 846 472C829 580 722 660 722 662C720 668 699 680 682 689C672 695 663 700 659 703C634 725 534 738 481 738C450 738 372 727 288 669L265 652C258 648 234 622 214 595C172 540 171 506 163 496C153 483 143 420 143 382C143 300 152 260 188 194C195 182 220 148 225 145C229 142 224 143 224 142C224 135 307 73 307 72C309 68 391 19 504 19ZM664 493C664 493 631 544 621 544C620 544 611 537 604 530L590 516L582 523C572 532 571 541 568 541C567 541 559 534 549 526L531 511C510 536 510 540 500 540C486 540 491 519 477 519C468 519 459 535 453 535C449 535 443 543 438 543C434 543 430 533 420 520L390 544L378 530C375 526 359 509 347 494L339 503C335 508 327 521 322 530C316 542 308 551 302 560C293 570 287 579 287 586C287 591 293 601 293 610C293 626 281 630 268 636L283 649C291 652 387 726 494 726C552 726 615 710 646 692C679 673 722 646 722 643C722 640 696 633 696 615C696 610 698 605 702 599L710 589C705 584 699 576 699 573C699 567 667 493 664 493ZM198 600C206 600 224 621 224 623C224 628 222 630 218 630C214 630 210 626 207 626C202 626 185 637 185 652C185 663 190 673 190 679C190 680 189 681 188 681C185 681 166 665 166 659C166 656 167 656 168 656C169 656 172 659 174 659C175 659 176 657 176 651V649C176 645 174 638 157 638C151 638 152 641 150 641C146 641 134 628 134 622C134 621 134 620 135 620C138 620 146 626 164 626C179 626 193 622 193 609C193 603 195 600 198 600ZM812 590C813 590 814 591 814 591C814 593 812 596 809 600L801 608L807 618L815 630C832 634 835 631 835 643C835 668 816 675 813 675C811 675 792 641 774 641C772 641 771 642 768 642C764 642 762 641 762 638C762 629 782 613 788 613C789 613 790 614 790 615C790 617 787 622 787 627C787 633 794 639 798 639C800 639 802 637 802 633C802 628 796 618 796 609C796 596 809 590 812 590ZM820 642C814 642 810 645 803 648C812 654 815 657 819 657C823 657 829 652 829 648C829 644 825 642 820 642ZM723 599C717 599 713 603 713 613C713 625 720 631 728 631C737 631 744 623 744 617C744 609 731 599 723 599ZM265 592C251 592 248 598 248 602C248 609 261 621 271 621C274 621 280 619 280 607C280 597 275 592 265 592ZM525 31C522 31 521 32 521 33C521 36 526 41 526 49C526 59 518 67 511 75C505 81 499 86 499 92C499 95 501 98 507 99C587 114 587 121 595 121C597 121 598 120 598 119V115C598 107 611 93 627 93C645 93 665 109 665 127C665 150 640 157 640 161C640 165 645 171 658 186C688 220 680 221 686 236C689 243 689 250 689 257C689 287 667 319 667 323C667 326 665 328 663 328C655 328 656 337 650 337C648 337 646 338 646 340C646 345 617 346 617 355C617 364 621 370 621 374C621 376 618 382 618 384C618 387 621 386 621 396C621 406 618 423 618 432C618 440 621 438 621 442C621 443 619 446 618 457L617 469H645C684 468 692 465 702 450L710 439C710 439 700 421 688 421C679 421 674 431 674 438C674 442 675 445 678 445C687 445 680 428 692 428C696 428 699 434 699 441C699 448 695 457 684 457C666 457 655 446 655 434C655 416 674 403 679 403C686 403 688 398 692 398C703 398 722 414 722 421C722 428 726 427 726 433C726 438 723 446 723 450C723 452 724 452 724 452C724 454 696 481 685 481C680 481 677 482 677 484C696 522 707 547 714 563C722 582 725 588 729 588H732C738 588 750 599 753 608C755 613 755 613 761 609C824 524 830 487 839 433C840 426 842 419 843 412C844 403 845 389 845 374C845 305 838 323 835 297C832 266 786 187 774 171C759 151 698 93 688 90C686 89 683 87 683 85C683 74 558 31 525 31ZM467 33 452 35C342 48 296 100 289 100C285 100 250 135 239 149L214 182C180 226 157 302 157 314C157 317 158 316 158 320C158 329 154 349 154 377C154 424 164 493 215 570L233 598L238 589C242 583 247 575 261 575H268C274 575 278 571 292 549C318 509 328 490 328 484C328 481 326 480 323 480C320 480 318 481 315 481C300 481 280 460 280 442C280 424 302 406 322 406C335 406 353 422 353 434C353 446 341 456 327 456C316 456 305 448 305 442C305 437 310 429 314 429C317 429 320 432 320 435C320 438 317 439 317 442C317 443 320 445 324 445C328 445 336 443 336 436C336 429 329 418 322 418C312 418 299 433 299 444C299 456 306 466 313 466C313 466 331 472 357 472C367 472 379 471 392 468L391 442C390 428 389 401 389 383V350C347 341 330 316 322 316C317 316 311 305 311 297C311 297 302 274 302 244C302 219 309 190 334 167L348 154L335 149C322 142 316 135 316 124C316 116 325 103 330 103C333 103 334 102 334 101C334 99 341 95 350 95C376 95 375 124 390 124C399 124 415 110 459 105C483 102 487 101 487 95C487 90 485 84 480 83C472 82 457 67 457 59C457 55 460 48 462 42ZM619 484C610 484 607 485 607 488C607 493 596 502 596 506C596 510 613 526 618 526C621 526 649 498 649 490C649 486 644 484 619 484ZM507 490C504 490 500 492 495 497L486 504L500 524L511 513C517 506 520 504 520 501C520 499 513 490 507 490ZM363 483C358 483 355 484 355 484C355 489 386 523 390 523C392 523 396 520 400 516L407 508L399 498C391 486 373 483 363 483ZM454 487C448 487 431 506 431 516C431 521 434 523 438 523C445 523 466 513 466 502C466 495 458 487 454 487ZM550 485C545 485 542 495 542 497C542 505 560 518 565 518C571 518 573 509 573 507C573 500 554 485 550 485ZM410 484C410 486 417 492 422 492C425 492 426 490 426 488C426 485 414 484 412 484ZM480 484C476 484 475 485 475 486C475 487 478 492 481 492C484 492 486 490 486 488C486 486 484 484 480 484ZM579 481C573 481 570 483 570 484C570 487 573 492 578 492C582 492 586 488 586 485C586 483 584 481 579 481ZM524 482C522 482 521 482 521 484C521 486 524 488 527 488C529 488 531 487 531 485C531 484 529 482 524 482ZM488 115 477 117C477 117 400 132 390 142C376 157 318 177 318 239C318 254 321 264 321 268V271C321 276 331 281 331 286C331 289 327 290 327 292C327 298 354 321 365 323C375 325 385 331 389 331C402 331 422 318 422 296C422 283 409 275 399 275C394 275 390 277 390 285C390 290 391 297 393 297C396 297 399 281 402 281C404 281 411 288 411 295C411 303 405 310 396 310C382 310 371 299 371 286C371 274 385 261 399 261C420 261 439 289 439 305C439 318 426 330 415 339C408 346 402 351 402 355C402 358 403 380 403 418V435C403 466 404 471 421 471C466 471 466 468 474 459C491 442 496 422 496 408C496 396 491 387 488 387C487 387 483 390 476 392C473 393 465 398 458 403C446 411 434 420 428 420C426 420 425 419 425 417C425 412 428 414 428 394C428 387 427 379 427 371C427 358 428 346 434 346C442 346 458 376 477 376C479 376 495 375 495 359C495 354 494 345 493 332C491 311 490 253 489 207C489 194 488 182 488 172C488 154 488 142 487 142C486 142 486 139 486 135V129ZM507 115C501 115 500 117 500 121C500 133 506 155 506 234V287C506 308 507 313 507 320C508 325 509 331 509 346L510 371H524C538 370 541 369 553 357C561 350 568 343 570 343C575 343 577 359 577 375C577 385 575 421 572 421C563 421 548 389 531 389H524L510 390L509 410V421C509 432 512 435 520 446C535 465 536 469 557 469C593 469 600 468 601 461C603 442 604 424 604 407C604 398 603 388 603 377L601 344L589 338C571 327 563 315 563 303C563 285 580 270 597 270C610 270 625 282 625 294C625 303 614 316 606 316C596 316 587 309 587 300C587 297 588 290 594 290C602 290 602 304 607 304C609 304 610 302 610 297C610 286 606 283 599 283C590 283 581 292 581 303C581 317 598 331 612 331C628 331 640 316 646 316C649 316 671 276 671 254C671 206 598 139 587 139C582 139 543 115 507 115ZM902 276C918 276 918 299 926 316C928 319 929 323 929 326C929 330 927 333 924 333C917 333 919 328 903 328C867 328 878 346 870 346C868 346 867 343 864 326C861 312 854 302 854 295C854 288 866 283 871 283C873 283 874 284 874 286C874 290 866 297 866 305C866 314 874 318 880 318C884 318 887 317 887 312C887 306 885 304 881 304C877 304 874 303 874 301C874 295 891 293 893 293C894 293 895 294 895 295C895 298 894 301 894 304C894 311 897 315 902 315C906 315 913 311 913 307C913 305 907 286 896 286C892 286 888 284 888 282C888 277 898 276 902 276ZM91 245C93 245 95 247 95 253C95 258 106 271 125 271C130 271 132 270 137 270C143 270 145 271 145 276C145 284 139 295 136 295C134 295 134 294 134 291C134 287 127 284 121 284C117 284 112 286 112 289C112 292 135 297 135 320C135 331 125 334 120 334C116 334 113 332 113 326C113 323 114 320 114 318C114 305 70 320 70 291C70 276 80 257 80 256C80 253 87 245 91 245ZM86 275C83 275 82 276 82 281C82 289 88 295 95 295C97 295 105 292 105 287C105 281 90 275 86 275ZM632 107C618 107 608 119 608 127C608 138 622 145 634 145C650 145 652 129 652 125C652 115 644 107 632 107ZM351 107C342 107 331 117 331 126C331 135 340 141 349 141C361 141 370 127 370 124C370 120 362 107 351 107ZM266 21C292 21 299 37 299 55C299 69 296 82 266 82C246 82 236 66 236 51C236 35 246 21 266 21ZM266 31C255 31 252 36 252 43C252 46 253 69 272 69C279 69 287 68 287 57C287 45 276 31 266 31ZM496 34C483 34 471 43 471 54C471 69 478 69 490 69C508 69 517 52 517 50C517 46 510 34 496 34ZM666 -26C672 -26 688 -14 688 -9C689 3 689 -6 691 22L707 16C717 13 723 11 729 11C738 11 751 22 751 28C751 31 750 32 747 32C740 32 733 26 730 26C728 26 727 29 721 38L713 50L721 57C725 61 727 63 727 65C727 66 724 69 717 69C711 69 706 66 706 64C706 63 704 61 702 61C699 61 697 60 697 58C697 57 695 55 693 55C691 55 687 51 687 48C687 45 688 43 697 43C705 43 709 38 709 32C709 31 709 31 707 31C702 31 689 33 687 33C683 33 683 28 683 23V13C683 8 682 4 679 4C673 4 668 14 668 22C668 29 672 30 672 33C672 35 670 36 666 36C658 36 641 30 641 23C641 21 642 19 646 19C652 19 665 -4 665 -16C665 -24 665 -26 666 -26Z" fill="#f59e0b" stroke="none"/>
  </g>
</svg>