<svg xmlns="http://www.w3.org/2000/svg" viewBox="-50 -50 1100 1100">
  <g transform="translate(0, 1000) scale(1, -1)">
    <path d="M520 -92C600 -92 593 -81 611 -81C621 -81 675 -58 676 -58C678 -58 714 -43 720 -43H722C726 -43 750 -25 769 -16C780 -11 865 74 865 80C865 82 893 120 898 126C903 131 938 199 938 204C938 206 951 242 951 250C951 251 950 252 950 252C950 252 970 302 970 376C970 432 961 449 961 455V457C961 466 954 492 954 492C954 494 948 510 948 513C948 515 943 523 943 525C943 541 886 650 878 658C878 658 849 702 801 739L768 766C760 772 751 777 743 780C735 784 728 788 725 791C707 808 598 840 596 840C589 840 583 841 574 843C560 846 540 850 506 850C438 850 376 832 373 832C354 831 217 779 138 674C123 654 115 651 115 648C115 635 83 621 43 482C40 472 30 428 30 371C30 311 40 236 78 172C83 164 86 157 89 150C101 127 112 103 171 44C229 -14 225 -4 250 -20C302 -54 343 -64 343 -64C345 -64 355 -71 362 -71H364C372 -71 371 -77 375 -77C376 -77 377 -76 378 -76C382 -76 380 -80 385 -80H389C393 -80 397 -92 520 -92ZM494 -83C466 -83 438 -80 412 -76C366 -68 277 -31 228 3C216 11 191 33 172 53C122 106 122 105 84 175C76 191 64 219 64 224C64 234 41 258 41 372C41 422 46 469 55 489C59 499 62 509 64 520C73 554 84 595 151 677C183 716 197 728 253 765C280 783 342 816 350 816C354 816 370 825 380 825H383C392 825 410 831 422 833L446 837C460 839 481 840 502 840C584 840 670 809 706 790C784 749 858 672 863 660C865 656 871 647 878 636C891 616 907 591 907 584C907 582 909 579 911 576C919 568 948 487 948 476C948 474 947 475 947 472C947 465 948 459 950 451C954 437 959 417 959 371C959 341 957 311 952 291C923 166 899 144 886 126L859 90C815 28 729 -30 722 -30C719 -30 688 -45 686 -45C678 -45 629 -83 494 -83ZM489 -79C501 -79 539 -74 545 -74C547 -74 547 -74 547 -75C547 -76 549 -77 553 -77C611 -77 718 -24 722 -24C731 -24 823 45 861 102L886 137C929 193 947 296 950 307C953 315 954 336 954 359C954 446 943 455 943 474C943 495 908 581 884 618C856 659 826 710 730 771C705 786 661 807 652 807C649 807 646 808 645 810C642 813 627 816 608 820C593 823 574 826 558 831C550 834 505 836 483 836C467 836 478 835 456 832C386 824 350 810 348 810C346 810 335 806 323 800L291 784C252 767 180 707 154 673C148 665 139 654 132 647C118 633 79 552 70 522L59 484C48 449 45 407 45 371C45 328 50 295 50 295C55 295 44 268 100 160C123 115 138 95 179 54C246 -14 315 -39 352 -53C362 -57 369 -59 374 -62C387 -69 458 -79 489 -79ZM493 -66C365 -66 307 -18 296 -18C296 -18 222 10 143 109C130 124 101 177 101 185C101 185 57 259 57 359C57 371 57 383 59 396C63 441 60 506 129 623C133 630 186 700 254 747C278 764 342 796 359 802C408 817 462 824 504 824C597 824 713 772 730 756C736 751 743 745 752 739C793 709 862 659 913 534C935 481 929 474 932 462C939 437 940 404 940 375C940 336 937 302 935 300C934 299 908 202 895 175C887 159 883 158 876 142C867 121 817 62 809 56C804 52 799 48 794 42C782 30 767 15 739 -2C725 -11 712 -15 702 -19C693 -23 686 -25 682 -29C677 -34 599 -66 493 -66ZM498 744C531 744 535 781 535 788C535 807 521 818 496 818C478 818 463 797 463 780C463 751 483 744 498 744ZM501 755C492 755 480 759 480 776C480 787 484 804 501 804C517 804 521 791 521 778C521 766 517 755 501 755ZM501 20C555 20 616 29 672 62C765 117 787 159 801 185C805 193 809 199 813 204C824 217 847 276 847 289C847 291 844 294 847 294C855 294 858 338 858 366C858 431 842 502 832 519L816 547C799 578 774 609 737 647C711 673 704 678 673 694C605 729 545 738 496 738C426 738 380 717 374 717C362 717 314 690 290 669L271 653C203 603 141 487 141 381C141 371 142 361 143 352C144 343 145 335 145 328C150 284 152 259 198 184C237 120 275 87 338 57C353 50 365 45 366 45C367 45 370 43 373 40C378 36 432 20 501 20ZM706 578 633 580C535 583 522 585 511 585C510 585 508 593 508 603C508 652 550 633 550 650C550 655 544 657 505 657C468 657 460 655 460 649C460 645 463 642 468 642C471 642 496 632 496 608C496 593 498 591 498 589C498 587 494 586 478 586C442 586 385 588 375 589C360 591 347 591 335 591C315 591 301 592 297 599C287 616 283 619 268 619H253L271 637C281 646 291 653 293 653C294 653 364 701 380 702C382 702 444 725 506 725C523 725 540 723 557 719L588 709C691 681 724 633 744 618L753 612L739 614H734C720 614 710 607 708 590ZM267 572C256 572 244 578 244 588C244 598 253 602 262 602C272 602 282 597 282 587C282 581 279 572 267 572ZM737 570C728 570 720 576 720 584C720 591 727 600 736 600C748 600 756 586 756 582C756 577 745 570 737 570ZM771 165C769 169 766 174 766 179C766 184 769 185 769 190C769 197 764 206 764 211C764 217 768 214 768 221C768 234 757 235 757 240C757 248 770 257 770 268C770 275 762 277 762 284C762 288 764 291 767 291C769 291 773 298 773 305C773 312 768 314 768 318C768 321 770 324 773 324C773 324 781 325 781 335C781 349 771 361 771 367C771 369 771 369 773 369H775C780 369 783 372 783 377C783 381 781 385 778 390L771 399C781 404 787 408 787 414C787 420 780 426 780 431C780 436 787 436 787 444C787 456 779 456 779 463C779 469 786 473 786 479C786 484 780 487 780 492C780 498 786 502 786 508C786 515 775 521 775 526C775 531 784 526 784 539C784 548 781 553 777 558C773 563 768 569 768 583V591C771 591 809 532 809 529C809 528 812 520 817 509C830 481 843 417 843 361C843 337 841 315 835 297C828 278 825 266 823 257C820 246 818 241 814 236C810 230 811 216 808 216C803 216 800 196 778 173ZM216 181C204 181 155 269 155 384C155 447 161 465 191 531C200 550 222 583 227 583C228 583 229 580 229 577C229 573 233 568 241 558L230 545C223 537 222 532 222 529C222 526 225 525 225 520C225 513 218 508 218 501C218 495 222 493 222 488C222 484 216 482 216 479C216 475 223 472 223 467C223 462 215 458 215 450C215 445 218 442 218 438C218 429 208 426 208 420C208 416 212 412 224 404C215 395 211 388 211 383C211 374 223 373 223 369C223 367 205 352 205 343C205 336 221 338 221 329C221 328 220 327 217 327C214 327 212 322 212 317C212 308 219 304 219 301C219 296 206 287 206 274C206 270 207 267 207 264C207 255 199 257 199 246C199 233 215 231 215 225C215 220 209 214 209 203C209 191 218 186 218 183C218 182 217 181 216 181ZM501 390C497 390 467 419 433 453C427 458 421 464 415 470C379 506 343 542 332 550C317 560 309 569 309 574C309 578 314 580 317 577C318 575 349 574 393 573C412 573 394 568 446 568H495L496 485L480 476C466 467 462 462 462 448C462 430 476 417 495 417C514 417 534 432 534 444C534 449 529 454 529 461C529 464 525 470 521 473C512 480 512 481 512 506C512 517 511 534 510 558V568H529C540 568 551 567 553 566C554 565 565 565 580 565C590 565 601 564 612 564C647 564 683 564 683 562C683 560 674 551 664 541L621 499L561 442C553 437 544 427 534 417C521 403 508 390 501 390ZM266 193C259 193 255 198 249 198C241 198 235 194 229 194C222 194 219 203 219 208C219 219 233 225 233 233C233 237 231 239 229 239C226 239 221 235 220 235C216 235 211 240 211 246C211 254 231 266 231 271C231 272 229 273 225 273C221 273 217 275 217 276C217 281 231 302 237 306C239 307 241 309 241 312C241 315 238 317 235 317C233 317 229 315 225 315C223 315 222 315 222 317C222 323 244 345 244 346C244 348 243 349 242 349C238 349 229 343 224 343C221 343 219 345 219 348C219 353 229 359 229 365C229 367 232 369 235 369C239 369 241 371 241 375C241 379 239 381 234 381C229 381 225 383 225 385C225 386 226 387 229 387C233 387 235 388 235 390C235 393 231 395 231 397C231 402 247 416 247 420C247 422 246 423 245 423C240 423 230 414 226 414C222 414 220 415 220 417C220 426 247 447 247 450C247 452 246 453 245 453C240 453 230 443 228 443C225 443 224 444 224 446C224 450 232 459 240 466C246 473 252 479 252 482L250 483C245 483 232 475 230 475C229 475 229 476 229 478C229 481 233 485 239 490L253 501C255 503 256 506 256 507C256 509 255 509 252 509C243 509 234 502 230 502C229 502 229 502 229 504C229 513 256 527 256 532C256 534 254 535 250 535C245 535 242 532 237 532C235 532 233 533 233 535C233 548 271 558 277 562L287 569L362 499C362 499 428 431 472 396C480 389 484 384 484 381C484 378 479 377 469 377C463 377 457 377 449 378C438 378 426 379 412 379H381L380 391V395C380 422 406 416 406 423C406 430 345 431 345 431C339 431 335 431 335 427C335 413 360 434 365 392C365 386 356 381 343 381C313 381 326 403 304 403C280 403 267 387 267 371C267 358 276 345 294 345C308 345 325 355 327 362C328 368 332 369 345 369C360 369 366 365 366 356C366 330 339 333 339 327C339 323 356 322 374 322C388 322 400 322 400 323C400 330 380 326 380 347C380 351 380 353 382 365H429C450 365 466 364 466 363C466 360 400 301 381 286C362 272 347 258 336 248C327 240 321 234 319 234C315 234 297 206 293 206C288 206 276 193 266 193ZM723 185C722 185 707 199 691 214C674 230 655 248 647 254C631 266 641 266 630 271C618 276 621 285 615 285C611 285 583 311 583 315C583 317 577 320 569 325C559 332 556 336 552 341C548 347 544 353 530 362L557 361C570 360 593 359 607 359L633 358V348C633 329 613 334 613 324C613 319 630 318 646 318C658 318 670 319 670 320C670 328 650 338 650 341C650 343 653 347 653 352C653 357 658 359 666 359C674 359 678 353 682 347C687 339 692 331 705 331C714 331 739 334 739 361C739 376 731 394 711 394C679 394 682 370 672 370C669 370 666 372 659 372C653 372 652 373 652 386C652 412 673 403 673 417C673 420 666 422 637 422C623 422 610 420 610 415C610 405 634 413 634 385V372L592 373C569 373 550 374 550 376C550 376 548 377 544 377C537 377 526 375 522 375C520 375 519 376 519 378C519 386 521 388 534 399C542 406 554 416 572 433L604 462C614 471 628 484 642 498C649 504 655 511 662 517C687 542 709 564 713 564C715 564 730 551 743 551C751 551 754 556 756 556C762 556 771 547 771 540C771 537 771 533 768 533C764 533 757 536 755 536C752 536 751 534 751 531C751 522 771 522 771 509C771 506 769 505 767 505C764 505 761 509 758 509C756 509 755 505 755 503C755 494 773 486 773 480C773 475 767 473 761 473C758 473 755 474 755 474C753 474 752 473 752 472C752 467 774 453 774 445C774 443 772 442 769 442C765 442 761 443 758 443C756 443 755 443 755 442C755 437 773 422 773 414C773 411 771 410 768 410H759C756 410 755 409 755 408C755 402 770 389 770 382C770 377 769 375 767 375C765 375 761 380 757 380C755 380 752 378 752 375C752 364 771 339 771 332C771 331 768 329 766 329C759 329 751 338 747 338C745 338 742 336 742 332C742 322 760 306 760 299C760 296 759 295 754 295H750C744 295 742 292 742 288C742 277 755 269 755 261C755 258 753 256 750 256C746 256 742 258 741 258C738 258 737 256 737 253C737 242 754 228 754 222C754 220 751 219 747 219C742 219 739 217 739 214C739 206 754 204 754 195C754 182 726 190 723 185ZM496 430C482 430 480 435 480 438V440C480 456 483 464 501 464C507 464 520 454 520 450C520 448 515 430 496 430ZM298 358C289 358 281 363 281 372C281 380 289 390 298 390C306 390 315 381 315 372C315 363 307 358 298 358ZM714 345C710 345 694 355 694 357C694 360 692 363 692 365C692 370 699 380 710 380C717 380 728 375 728 366C728 357 717 345 714 345ZM693 160C693 160 494 163 488 168C487 169 487 169 486 169C482 169 472 166 418 166C407 166 398 166 395 167L384 168L396 180C404 188 406 192 406 197C406 216 392 228 376 228C357 228 344 212 344 198V196C344 193 345 189 363 177L376 169H327C297 169 278 171 278 172C278 174 290 186 303 197L347 238L364 253C374 262 388 274 402 287C416 300 431 313 445 325C466 343 483 358 484 360C484 362 487 362 491 362C495 362 496 361 496 356C496 347 493 327 493 289V254L477 256C439 259 446 285 438 285C433 285 431 270 431 242C431 223 432 213 436 213C447 213 439 240 476 240C490 240 493 238 493 225C493 194 463 190 463 181C463 178 476 177 490 177C495 177 541 177 541 184C541 187 506 198 506 221C506 235 508 240 510 240H512C527 235 537 243 549 222C552 215 555 212 557 212C562 212 562 226 562 246C562 275 561 287 555 287C546 287 547 256 519 254L507 253V318C507 353 508 359 512 359C515 359 528 346 544 328C551 322 558 315 565 307L597 277L688 194C702 181 707 175 707 171C707 161 698 160 693 160ZM607 174C628 174 639 192 639 203C639 220 619 234 604 234C599 234 574 223 574 205C574 192 588 174 607 174ZM608 183C599 183 588 192 588 204C588 208 590 211 592 213L603 218C604 220 607 220 609 220C616 220 620 213 620 201C620 190 615 183 608 183ZM380 182C371 182 358 190 358 200C358 209 368 219 375 219C382 219 396 204 396 195C396 187 389 182 380 182ZM145 121C146 121 148 123 148 126C148 137 173 160 189 160C192 160 192 159 195 159C198 159 199 161 199 163C199 165 183 194 181 194C180 194 179 196 179 198C179 202 168 213 166 213C163 213 151 203 151 197C151 189 167 197 177 185C180 181 182 179 182 177C182 173 171 168 167 168C165 168 164 169 164 171C164 173 165 175 165 178C165 180 164 181 162 181C158 181 143 173 143 167C143 166 144 165 146 165C150 165 152 163 152 160C152 156 144 148 142 148C139 148 134 162 134 164C134 169 140 168 140 181C140 184 139 186 138 186C132 186 120 177 120 170C120 163 140 121 145 121ZM854 121C855 121 856 121 856 122C856 127 874 143 874 158C874 173 856 180 855 180C850 180 827 159 815 159C812 159 810 162 810 168C810 176 813 178 840 188C829 198 823 201 820 201C818 201 817 199 817 197C817 194 802 177 802 161C802 154 806 145 818 145C840 145 850 161 860 161C863 161 864 159 864 155C864 142 857 141 854 141C846 141 843 140 843 137C843 131 850 121 854 121ZM249 148C240 148 228 160 228 170C228 178 234 185 242 185C249 185 266 177 266 165C266 157 256 148 249 148ZM734 144C727 144 722 150 722 159C722 168 728 174 737 174C743 174 757 171 757 162C757 153 744 144 734 144ZM474 32C454 32 396 43 382 51C377 54 336 74 325 79C313 84 300 96 297 96C294 96 250 132 250 135C250 138 263 142 270 150C273 154 275 156 298 156C306 156 317 155 333 155L392 154L400 144C405 139 409 132 409 129C409 126 429 101 447 78C465 57 481 36 481 34C481 33 479 32 474 32ZM489 48C475 62 426 127 426 129C426 131 412 150 412 151C412 152 430 153 448 153C469 153 490 152 491 151V98ZM505 51C503 51 502 67 502 86C502 103 503 122 504 134L506 152L556 148C567 147 577 145 577 144C577 143 571 136 564 128C521 82 511 51 505 51ZM511 30C509 30 508 31 508 33C508 41 525 62 530 70C539 86 550 86 550 90C550 93 574 123 586 135L598 146L711 147C716 142 725 132 729 132C730 132 737 130 737 127C737 119 712 107 702 100C646 58 577 36 547 36C518 36 518 30 511 30Z" fill="#f59e0b" stroke="none"/>
  </g>
</svg>