<svg xmlns="http://www.w3.org/2000/svg" viewBox="-50 -50 1100 1100">
  <g transform="translate(0, 1000) scale(1, -1)">
    <path d="M494 -96C500 -96 509 -93 517 -93H523C535 -93 533 -89 552 -89C594 -87 619 -73 629 -73H634C644 -73 712 -45 741 -28C840 33 872 90 885 109C891 118 927 157 949 250C964 315 958 296 966 315C968 320 969 348 969 372C969 430 965 402 965 429C965 437 960 436 960 447V454C960 465 958 465 954 491C942 566 873 662 873 665C873 669 811 735 798 744L782 757C779 760 764 770 748 780C662 835 576 852 492 852C467 852 440 851 439 850C438 848 362 839 309 813C286 802 288 813 227 770C190 744 117 670 102 643C66 581 59 552 53 527C50 516 47 505 42 493C33 471 38 451 33 448C31 447 31 446 31 445C31 443 35 441 35 437C35 434 32 437 32 405C32 349 38 332 38 323C38 319 35 319 35 317C35 304 47 267 48 263C59 219 78 185 78 180C78 176 83 172 98 144C123 96 140 75 195 27C226 1 231 -3 258 -18C280 -31 300 -53 379 -74C437 -89 446 -84 448 -87C449 -89 450 -89 451 -89C452 -89 453 -88 455 -88C461 -88 460 -93 470 -93C475 -93 479 -92 483 -92C489 -92 486 -96 494 -96ZM508 -80C397 -80 312 -39 307 -39C305 -39 300 -37 297 -34C293 -30 283 -23 270 -15C227 14 150 66 113 135L92 175C86 185 82 194 82 196C84 196 89 186 97 172C109 150 125 121 141 102L155 84C183 50 276 -22 345 -47C355 -51 458 -75 491 -75C549 -75 641 -57 667 -45L696 -32C730 -17 809 42 836 74C841 80 847 88 852 95C856 101 861 107 865 112C874 125 882 135 885 138C898 152 951 274 951 359C951 388 948 429 939 487C926 572 831 747 670 807C663 810 657 812 651 814C627 824 607 833 521 836C490 837 472 838 472 840C472 841 480 842 494 842C615 842 655 818 658 817C765 784 860 671 860 664C860 662 865 656 869 651C906 610 946 503 946 487V485C946 477 959 425 959 366C959 342 957 317 951 292L938 241C935 227 929 207 925 197L911 166C905 154 895 139 886 127C880 118 874 110 870 103C852 73 767 -17 672 -51C644 -61 650 -63 637 -63C627 -63 617 -65 605 -68C584 -73 556 -80 508 -80ZM268 784C268 790 389 842 461 842H464C464 839 457 838 444 837C419 834 372 829 308 801C280 788 270 784 268 784ZM511 -61C469 -61 415 -54 344 -31C245 1 139 117 130 134L118 159C78 236 55 282 55 401C55 492 63 487 70 518C83 572 99 589 99 591C99 607 143 668 188 713C217 742 272 781 287 784C290 784 304 790 318 796C334 803 351 810 354 810C373 810 387 829 482 829H501C632 826 646 801 652 801C662 801 755 761 803 708L825 683C834 674 840 666 840 664C840 664 906 573 912 538C913 534 939 466 939 379C939 355 938 330 933 305C911 195 885 159 860 125C854 117 848 109 843 101C836 90 782 39 760 22C729 -2 661 -39 648 -39C638 -39 643 -45 634 -45C624 -45 613 -47 599 -50C578 -55 550 -61 511 -61ZM512 753C524 753 529 753 529 754C529 755 528 756 525 758C521 761 517 770 512 780C504 796 496 813 487 813C483 813 453 770 453 770C453 766 438 764 438 760C438 758 442 757 451 757C465 757 469 758 469 760C469 762 466 766 466 770C466 774 470 776 478 776C496 776 506 769 506 763C506 761 504 759 497 759C494 759 492 757 492 756C492 754 501 753 512 753ZM482 783C477 783 475 783 475 785C475 787 479 798 485 798C490 798 493 789 493 787C493 784 490 783 482 783ZM79 201C72 201 47 284 44 315C42 345 40 371 40 395C40 541 107 640 113 649C169 721 255 782 264 782C264 782 173 726 113 641C89 607 42 498 42 402C42 385 44 370 46 353C47 342 49 331 50 317C55 246 80 211 80 203C80 202 80 201 79 201ZM497 18C538 18 574 25 624 41C722 73 827 181 849 301C851 315 857 305 857 368C857 430 845 465 842 483C837 518 761 685 580 732C566 735 513 738 476 738C360 738 247 653 219 610L197 578C165 532 161 495 156 491C150 487 141 445 141 391C141 350 146 301 163 258C199 165 282 84 356 52C398 34 465 18 497 18ZM157 377C154 377 151 383 151 387C151 391 154 393 154 396C154 397 151 397 151 400C151 403 155 413 155 446C155 463 163 460 165 488C166 493 174 492 174 499C174 503 183 527 192 546C243 651 321 680 345 691C376 706 386 709 387 709C388 709 395 712 397 713L408 716C441 725 457 727 466 727C474 727 477 725 482 725C504 725 497 728 506 728C526 728 583 717 586 717C593 717 602 709 605 709C607 709 606 710 608 710C610 710 617 706 618 706C619 706 626 703 627 703C631 703 649 687 654 687C663 687 705 656 705 656C728 640 783 583 783 574C783 573 780 572 777 572C772 572 764 566 759 566C755 566 753 568 753 574C753 579 732 597 727 597C709 597 689 577 689 561C689 546 702 535 715 535C729 535 737 549 737 559C737 567 733 572 726 572C723 572 714 570 714 568C714 563 729 564 729 558C729 553 717 546 711 546C706 546 702 551 702 559C702 573 713 585 725 585C738 585 741 576 741 558C741 531 732 491 726 485C720 479 706 393 646 393C637 393 621 406 621 421C621 432 632 445 657 470C690 501 691 516 694 516C694 518 691 524 687 524C682 524 684 519 673 519L663 520C651 520 654 515 648 515C646 515 645 517 645 521C645 529 652 536 652 543C652 547 649 548 646 548C637 548 617 543 603 543C599 543 598 544 598 545C598 556 611 564 611 574C611 576 610 577 608 577C606 577 604 577 603 575C600 573 554 559 550 559V561C550 567 562 594 562 597C562 599 561 600 559 600C553 600 529 579 521 579C519 579 519 580 519 581C519 588 531 607 531 607C531 608 529 608 525 608C499 608 473 601 472 601C470 601 469 601 469 603C469 606 475 613 475 616C475 618 474 619 472 619C457 619 433 603 431 603C430 603 429 604 429 605C429 611 442 620 442 626C442 628 441 629 438 629C436 629 430 627 422 623L405 615L396 627C390 635 383 642 363 642C336 642 324 623 307 597L295 579C294 579 288 583 282 588C271 597 270 599 270 612C270 622 268 627 266 627C263 627 261 624 258 618C252 607 227 572 227 564C227 563 228 562 229 562C234 562 252 575 263 575C272 575 285 567 285 562C285 558 279 559 279 553C279 551 277 549 276 549C274 549 272 546 271 542C268 534 260 519 246 498L232 474C222 458 211 438 198 415C187 394 181 388 169 382C162 379 159 377 157 377ZM504 192C492 192 420 235 420 237C420 242 444 303 450 303C455 303 498 281 500 278C502 276 502 272 502 268C502 260 499 250 499 242C499 234 504 233 507 233C514 233 521 247 532 270L551 307C552 310 553 313 553 315C553 318 552 318 550 318C545 318 539 313 532 307C524 301 516 295 510 295C499 295 480 312 473 312C470 312 463 319 463 325C463 331 469 341 475 352C480 363 486 374 486 379C486 391 462 393 462 399C462 402 378 442 371 442C367 442 351 410 336 381C324 356 312 332 309 332C300 332 265 351 265 356C265 359 276 395 283 395C287 395 303 391 303 370C303 361 305 357 308 357C311 357 312 359 315 363C318 369 323 377 328 384C335 394 341 404 341 409C341 410 340 411 338 411C333 411 320 400 312 400C308 400 292 403 292 415C292 442 336 447 336 455C336 457 334 459 329 461C319 464 317 471 310 471C301 471 283 485 279 485C276 485 274 483 274 479C274 472 286 469 286 449C286 434 277 420 274 420C274 420 255 425 255 442C255 454 260 455 260 457C260 458 258 461 255 461C251 461 246 455 239 441L225 415C221 408 220 404 220 402C220 400 221 398 224 398C229 398 241 413 249 413C254 413 267 408 267 401C267 393 251 365 244 365C243 365 201 385 201 390C201 396 254 489 259 491C261 492 266 500 271 511C281 529 293 554 305 554C320 554 313 514 320 514C328 514 361 564 361 574C361 576 359 577 358 577C351 577 335 566 322 566C315 566 309 570 309 573C309 578 334 627 365 627C375 627 380 622 380 611C380 603 376 591 376 588C376 586 377 585 380 585C389 585 403 609 417 609C418 609 419 609 419 608C419 603 393 575 393 572C393 571 394 570 395 570C399 570 409 578 420 586C431 594 442 603 447 603C448 603 449 602 449 601C449 596 427 581 427 570C427 567 430 564 432 564C437 564 461 589 494 589C502 589 504 587 504 584C504 573 477 552 477 546C477 544 477 544 478 544C481 544 488 549 497 554C508 562 523 571 531 571C535 571 538 569 538 566C538 552 515 539 515 532C515 530 516 529 518 529C522 529 532 535 544 542C559 551 577 561 586 561C587 561 588 560 588 558C588 542 567 526 562 525C560 525 558 523 558 520C558 516 560 513 562 513C569 513 596 530 610 530C620 530 623 535 627 535C628 535 631 534 631 529C631 512 607 496 607 492C607 491 609 489 611 489C620 489 636 510 667 510H675L670 501C666 494 657 487 647 479C627 462 603 442 603 414C603 398 640 376 645 376C659 376 689 389 697 401C700 405 703 408 704 408C706 408 707 404 707 399C707 399 701 246 665 192L654 202C623 233 612 229 612 230C612 235 632 271 637 272C640 273 642 275 642 276C642 289 593 309 591 312C589 315 586 317 582 317C571 317 568 311 561 296C557 287 552 276 543 261C533 244 527 229 523 217C517 201 513 192 504 192ZM492 32C475 32 464 34 463 36C458 41 442 40 433 43L408 49C246 90 160 268 160 322C160 328 161 333 164 333C168 333 169 328 175 328C185 328 201 342 201 353C201 357 202 359 205 359C211 359 240 347 240 344C240 340 233 328 225 315C215 299 204 281 204 273C204 265 267 236 271 236C273 236 285 228 296 221C305 215 313 210 314 210C326 210 329 230 337 248C349 276 379 263 379 272C379 278 334 303 318 303C314 303 312 301 312 298C312 294 315 289 320 281L329 269L312 228L301 235C275 253 255 263 242 269C231 274 225 277 225 280C225 287 237 315 239 315C240 315 245 320 248 326L255 339L270 332C278 328 285 325 285 323C285 320 300 319 300 315C300 314 304 312 309 312C317 312 324 317 325 324C326 327 339 354 351 378C362 399 371 417 372 420C373 421 374 421 375 421C386 421 423 401 423 401C436 393 444 390 448 389C455 386 456 386 466 372L455 350C448 337 443 326 443 324C443 322 441 319 439 317C432 310 401 240 401 232C401 220 423 210 443 202C458 196 471 191 471 185C471 184 473 183 477 183C483 183 501 168 513 168C517 168 520 170 521 175C547 238 561 246 561 255C561 263 576 294 581 294C589 294 615 281 615 277C615 268 596 233 586 224C577 216 573 206 573 197C573 153 640 148 641 148C644 148 645 149 645 150C645 151 646 152 649 152C656 152 673 171 682 189C697 219 706 266 711 293C714 304 715 312 716 313C719 316 719 338 720 362C721 385 722 409 724 420C740 488 750 496 750 504C750 505 760 559 774 559H778C781 559 780 563 784 563C787 563 800 557 800 542C800 535 797 517 783 517C777 517 771 521 771 526C771 526 772 527 774 527C777 527 780 526 782 526C787 526 790 528 790 532C790 536 783 545 779 545C775 545 759 532 759 520C759 512 767 506 780 506C802 506 808 525 811 525C817 525 844 435 844 366C844 300 834 313 834 293C834 287 829 286 829 283C829 282 830 281 830 280C830 276 826 271 826 270C826 267 817 243 817 243V241C817 240 808 226 803 215L785 183C776 166 725 115 699 97C674 80 638 60 631 60C626 60 614 52 612 52C611 52 604 49 604 49C555 36 517 32 492 32ZM176 343C169 343 163 350 163 357C163 363 170 370 179 370C185 370 191 365 191 362C191 358 183 343 176 343ZM637 160C627 160 588 186 588 201C588 207 595 212 604 212C631 212 652 183 652 175C652 172 643 160 637 160ZM161 109C165 109 168 113 168 123V127C168 143 176 170 189 170C194 170 198 165 202 165C204 165 205 166 205 168C205 176 185 201 179 201C178 201 177 200 177 198C177 195 178 193 178 191C178 177 154 173 140 173C123 173 127 177 119 177C116 177 114 176 114 173C114 171 123 155 132 155C136 155 136 157 142 157C147 157 153 154 153 149C153 139 144 141 144 133C144 127 154 109 161 109ZM830 105C833 105 835 108 835 113C835 120 832 124 832 132C832 147 844 147 854 147C882 147 883 165 883 165C883 166 883 167 881 167C879 167 875 166 872 166C858 166 840 178 840 188C840 192 839 194 837 194C832 194 819 175 819 173C819 172 820 171 821 171C825 171 827 172 829 172C838 172 852 165 852 160C852 157 849 155 840 155C824 155 818 152 818 148C818 144 823 137 823 135C821 135 820 134 820 132V125C820 124 820 123 819 123C807 123 810 154 805 154C800 154 780 135 780 129C780 128 781 127 784 127C787 127 788 128 791 128C797 128 804 122 811 117C817 111 824 105 830 105Z" fill="#f59e0b" stroke="none"/>
  </g>
</svg>