<svg xmlns="http://www.w3.org/2000/svg" viewBox="4 -120 992 1000">
  <g transform="translate(0, 760) scale(1, -1)">
    <path d="M493 -90C529 -90 569 -88 585 -85C618 -77 702 -48 721 -38C808 8 903 123 924 174L939 211C943 221 949 241 952 257L963 302C965 312 966 327 966 353V376C963 550 898 607 898 618C898 620 892 630 885 640C880 647 875 655 872 661C863 678 796 741 760 765C701 805 633 832 621 832C621 832 556 850 488 850C415 850 324 819 288 799C249 778 205 743 160 699C119 659 116 655 92 611C52 537 34 452 34 375C34 223 96 141 127 98C133 91 138 84 141 79C148 67 206 13 227 -1C249 -16 252 -20 254 -20C261 -20 298 -54 393 -77L432 -87C441 -89 466 -90 493 -90ZM502 -77C468 -77 438 -75 434 -74L396 -66C340 -55 314 -36 301 -33C293 -31 287 -28 281 -23C275 -20 270 -16 262 -13C253 -10 249 -6 240 1L223 14C190 37 112 122 112 135C112 137 111 139 110 139C110 139 45 231 45 373V390C45 415 46 439 47 451C58 535 92 588 92 595C92 599 101 603 101 609C101 617 133 660 164 692C195 724 262 776 285 788C315 803 377 825 389 825C392 825 395 823 395 826C395 831 466 839 485 839C759 839 958 624 958 373C958 247 897 139 893 139C886 139 872 101 817 47C798 29 744 -32 597 -69C571 -76 534 -77 502 -77ZM504 -72C578 -72 586 -66 627 -54C671 -41 715 -16 719 -16C729 -16 811 41 855 105L883 144C925 200 939 292 944 307C946 314 947 336 947 360C947 484 920 534 913 550C873 640 854 649 854 653C854 659 810 705 787 723C768 738 753 749 743 756C733 763 727 767 725 770C722 773 656 803 642 808L613 816C566 829 521 833 486 833C451 833 428 829 428 829C428 827 424 826 420 826C417 826 342 820 260 764C92 649 49 519 49 359C49 273 76 228 76 218C76 214 78 211 79 211C81 211 83 208 83 204C83 199 92 182 101 167C106 159 110 151 113 145C128 111 204 28 238 8C300 -30 313 -35 331 -41C340 -43 349 -46 366 -54C396 -68 454 -72 504 -72ZM511 -60C490 -60 476 -59 467 -58C368 -55 369 -38 354 -38C336 -38 205 34 193 59C190 64 182 73 172 83C155 102 132 126 121 151L111 169C92 203 60 259 60 375C60 428 66 475 70 488C71 490 101 603 148 652C157 662 162 668 166 673C176 686 183 694 231 732L257 752C262 757 280 763 280 766C280 771 362 807 373 807C375 807 374 806 377 806C387 806 423 822 488 822C652 822 747 739 747 739C754 739 836 665 836 659C836 658 844 646 853 634C864 620 875 605 875 603C875 597 883 601 925 487C925 485 923 484 923 480C923 468 936 448 936 368C936 293 920 267 920 261C919 239 887 175 887 175C887 165 855 125 851 117C840 94 757 17 726 0C630 -53 557 -60 511 -60ZM489 746C502 746 526 758 526 780C526 805 502 816 496 816C494 816 458 810 458 781C458 764 472 746 489 746ZM487 756C479 756 475 763 475 775C475 785 478 806 490 806C495 806 512 800 512 779C512 760 492 756 487 756ZM497 24H501C595 24 614 46 624 46C646 46 770 130 797 186C822 236 851 284 851 376C851 390 851 401 850 406C848 413 847 421 846 429C839 475 828 545 737 636C733 640 680 706 560 732L545 734C545 734 527 737 500 737C472 737 433 734 392 721L361 712C334 704 285 667 285 667C242 639 141 526 141 393C141 377 143 359 144 343C145 332 146 323 146 317C146 284 167 251 167 243C167 240 168 238 170 238C171 238 173 235 173 234C173 224 199 183 199 182C199 178 235 135 247 125C311 72 328 66 328 66C331 66 352 52 358 52C364 52 364 46 389 39C442 24 435 24 497 24ZM437 546C432 546 418 568 413 576C409 584 410 586 395 586C386 586 372 585 349 585C343 585 337 585 331 586H283C283 588 284 590 284 591C284 610 276 621 264 621C259 621 255 620 253 620C252 620 251 620 251 621C251 623 257 631 259 631C263 631 278 651 303 665L324 678C369 707 441 724 487 724C651 724 736 620 736 618C736 612 728 620 712 592H670C646 592 615 591 601 590L573 588L552 561C550 561 550 567 550 573V587C550 600 549 611 544 611C533 611 540 590 514 590H500V603C500 627 528 634 528 634C531 634 532 636 532 640C531 644 526 645 493 645C455 645 455 644 455 638C455 635 457 634 460 634C465 634 487 619 487 604C487 597 484 589 481 589C480 589 480 590 479 590C476 590 473 587 470 587C461 587 448 609 441 609C438 609 438 605 438 594V560C438 550 438 546 437 546ZM165 537C167 537 169 539 169 542C169 545 168 547 168 549C168 561 188 568 188 579C188 587 179 597 169 597C156 597 144 579 132 579C125 579 119 587 119 589C119 591 126 601 133 601C136 601 139 600 143 600C146 600 147 601 147 603C147 604 143 616 136 616C128 616 112 597 112 584C112 572 123 565 131 565C143 565 160 581 170 581C173 581 174 580 174 577C174 559 145 555 145 552C145 547 161 537 165 537ZM259 580C248 580 242 585 242 592C242 595 245 609 259 609C271 609 273 596 273 593C273 585 268 580 259 580ZM742 574C734 574 725 584 725 589C725 593 733 604 740 604C748 604 754 592 754 586C754 579 749 574 742 574ZM230 484C205 484 208 502 191 502C184 502 179 496 176 496C175 496 175 496 175 498C175 506 218 591 228 591C233 591 229 571 252 571C267 571 268 567 268 540V531C268 511 266 488 264 486C260 484 234 484 230 484ZM851 493C853 493 854 496 854 500C854 511 850 508 850 513C850 521 859 535 866 535C872 535 884 545 884 553C884 561 868 589 859 589C857 589 857 588 857 586V582C857 573 836 560 825 560C819 560 818 565 812 565C811 565 809 564 809 561C809 555 823 536 823 530C823 528 825 526 828 526C830 526 833 528 833 531C833 534 832 537 832 540C832 545 836 547 840 547C845 547 847 544 847 541C847 531 837 528 837 517C837 504 849 493 851 493ZM756 477C742 477 724 478 723 480C722 480 722 494 722 511C722 557 722 568 725 568C728 568 733 562 742 562C756 562 765 578 771 578C775 578 797 541 797 538C797 538 819 500 819 492C819 490 817 489 816 489C813 489 809 495 801 495C782 495 784 477 756 477ZM571 151 572 181V197C572 223 569 224 542 224H534C534 224 533 239 533 264C533 283 534 307 534 333L536 443L544 454C563 478 575 495 582 506C593 521 596 525 602 525C604 525 608 524 612 524C622 524 633 536 633 543C633 551 622 568 606 568C595 568 585 559 585 547V541C585 529 560 496 551 486C527 458 531 451 526 451C524 451 523 420 523 382C523 298 520 315 520 294V259C520 243 520 229 517 226C515 225 508 224 500 224H494L477 225L476 267V281C476 305 477 341 477 372C477 407 475 438 470 442C446 461 391 525 391 531C391 535 396 539 396 545C396 559 374 568 369 568C361 568 347 553 347 545C347 535 357 523 366 523C375 523 406 497 406 489C406 487 414 479 424 468C437 455 453 438 460 426C462 422 462 397 462 370C462 313 459 310 459 308C459 302 462 285 462 253C462 230 460 223 452 223C450 223 448 224 445 224C431 224 430 211 430 195V181L429 158L392 156L393 180C393 203 393 203 404 211C410 215 415 220 415 223C415 229 402 229 388 229H372C364 229 357 230 355 231C354 232 353 247 353 265V298L389 296C401 296 411 295 418 295H423C433 295 451 297 451 324C451 330 447 329 447 340C447 352 451 364 451 370C451 383 439 383 385 383C370 383 350 384 326 384L277 385V415C277 431 278 473 279 508L281 571H305C318 571 332 572 344 573C352 573 359 574 364 574C376 574 376 571 384 571H389C395 571 401 569 419 547C429 534 437 525 444 518C455 505 462 497 466 489C475 471 493 461 499 461C504 461 521 487 539 514C558 543 577 573 585 575C588 576 617 577 648 577H706L707 566V526C707 474 706 387 702 383C700 381 678 381 650 381C642 381 634 381 626 380C595 380 563 379 545 376L544 338C543 328 543 318 543 312C543 303 544 297 544 295C545 293 558 292 573 292C589 292 607 293 621 293C633 293 641 292 641 290C641 289 642 267 642 240C642 177 646 197 646 174C646 159 646 157 637 154C630 151 625 151 622 151C615 151 610 157 610 179C610 199 635 210 635 219C635 223 621 226 607 226C596 226 579 224 579 217C579 213 583 208 588 208C598 208 600 194 600 181C600 168 598 155 597 153C596 152 590 151 583 151ZM504 487C500 487 500 493 500 530V544C500 576 500 574 516 576C520 576 542 554 542 546C542 539 529 528 529 525C529 524 525 517 521 510C508 491 511 487 504 487ZM480 491C477 491 473 498 473 500C473 504 467 510 460 517C452 525 443 534 443 540C443 547 451 543 451 553C451 555 453 573 472 573H474L486 572L485 541V535C485 511 488 504 488 500C488 495 483 491 480 491ZM861 547C857 547 854 549 854 552C854 556 862 563 866 563C870 563 871 558 871 555C871 549 866 547 861 547ZM375 533C369 533 360 538 360 546C360 551 364 556 371 556C377 556 386 551 386 544C386 539 382 533 375 533ZM610 532C607 532 597 538 597 546C597 552 602 556 607 556C613 556 619 551 619 544C619 538 615 532 610 532ZM189 462C177 462 173 476 173 478C173 482 184 489 191 489C198 489 204 484 204 477C204 472 201 462 189 462ZM800 454C793 454 784 462 784 469C784 477 791 481 798 481C805 481 813 475 813 468C813 460 803 454 800 454ZM494 39C461 39 429 40 428 42C427 44 422 46 417 47C369 56 368 68 358 68C353 68 355 69 328 83C207 147 167 281 167 287C167 291 165 295 164 296C160 299 156 356 156 395C156 431 160 442 160 455C160 458 162 460 165 460C167 460 170 459 170 457C170 456 181 448 192 448C205 448 208 453 211 459C215 464 218 469 229 469H240L263 468L264 385H255C244 385 225 368 225 358C225 348 235 327 252 327C258 327 280 334 280 359V370L356 369C397 368 432 367 433 366C433 366 435 348 435 332C435 310 432 309 411 309H406C365 309 353 314 353 320C353 329 339 340 329 340C318 340 312 335 305 322L299 311L309 303C323 292 338 297 338 288V175C338 148 338 142 348 142C352 142 355 144 361 144C373 144 373 138 373 127C373 113 373 112 360 106C352 102 348 97 348 94C348 87 392 86 400 86C417 86 418 96 418 96C418 103 389 95 389 124V128L390 141H413C427 141 438 143 440 145C444 149 444 168 444 184C445 195 445 205 446 207C447 209 470 210 494 210C523 210 555 208 557 205C559 202 560 186 560 168V136H584C596 136 596 134 596 123C596 98 578 103 578 89C578 86 580 84 584 84C629 84 631 85 631 90C631 108 609 88 609 129C609 138 612 138 641 140C659 142 660 143 660 156C660 167 659 182 658 198C656 216 655 236 655 252C655 273 657 287 664 287C668 287 668 284 674 284C691 284 695 315 695 317C695 327 682 335 672 335C663 335 653 329 646 318L640 307H554L556 318C557 324 558 337 559 347L560 364H578C616 365 644 365 662 365C703 365 703 362 703 353C703 346 719 324 735 324C752 324 762 345 762 355C762 367 750 378 731 380L720 381V465L744 463C767 461 768 461 774 454C781 444 791 441 799 441C819 441 820 463 825 463C833 463 834 393 834 346C834 312 826 293 820 279C817 270 814 263 814 255C814 252 813 250 812 250C810 250 809 247 809 244C809 232 764 156 746 142L731 128C726 122 720 118 718 118C717 118 705 110 692 101C650 68 591 46 582 46C577 46 571 45 569 43C567 40 530 39 494 39ZM259 347C250 347 239 348 239 355C239 359 247 369 259 369C266 369 271 366 271 359C271 359 271 347 259 347ZM729 341C725 341 716 348 716 354C716 360 726 364 732 364C741 364 744 360 744 357C744 350 736 341 729 341ZM327 307C321 307 318 310 318 315C318 318 320 327 328 327C335 327 340 321 340 318C340 312 334 307 327 307ZM671 299C666 299 656 301 656 306C656 312 664 318 671 318C676 318 679 315 679 307C679 302 677 299 671 299ZM366 157C352 157 350 159 350 179C350 197 351 218 355 218C355 218 378 217 378 178L379 157ZM216 46C220 46 230 51 240 57C255 65 273 74 284 74C288 74 289 73 292 73C295 73 296 74 296 76C296 83 273 99 269 99L268 97C268 95 274 92 274 88C274 85 271 83 268 83C257 83 247 93 247 100C247 102 248 103 250 103C251 103 252 102 254 102C257 102 260 103 260 107C260 113 241 127 237 127C236 127 235 126 235 123C235 119 239 115 239 113C239 108 233 95 226 83C220 70 213 56 213 50C213 47 214 46 216 46ZM758 43C765 43 780 58 780 65C780 66 779 67 776 67C774 67 772 66 771 66C765 66 746 87 746 97C746 100 752 103 752 110C752 113 751 115 749 115C746 115 726 91 720 91C717 91 715 89 715 86C715 83 718 80 721 80C725 80 727 84 731 84C734 84 757 63 757 56C757 52 755 51 755 47C755 44 757 43 758 43ZM233 68C233 70 237 83 244 83C247 83 251 81 251 77C251 73 240 68 235 68Z" fill="#f59e0b" stroke="none"/>
  </g>
</svg>