<svg xmlns="http://www.w3.org/2000/svg" viewBox="5 -118 990 996">
  <g transform="translate(0, 760) scale(1, -1)">
    <path d="M515 -88C531 -88 546 -87 556 -85C609 -76 616 -69 619 -69C621 -69 622 -71 626 -71C630 -71 635 -69 636 -69C638 -69 643 -65 646 -65C650 -65 660 -59 662 -59C664 -59 674 -56 686 -50L726 -30C742 -22 761 -8 776 3C787 11 795 17 797 17C801 17 833 49 833 53C833 57 852 69 852 73C852 76 876 106 876 106C929 181 938 237 942 242C945 246 945 248 945 250V254C945 258 949 258 949 265C949 268 948 271 948 273C948 277 952 275 952 281C952 284 951 286 951 289C951 296 955 294 955 297V301C955 302 965 319 965 373C965 392 962 384 962 400V408C962 421 958 421 958 426C958 428 959 429 959 432C959 437 957 447 955 457C954 466 952 476 952 480V484C952 486 949 493 949 494C949 497 943 508 942 512L940 524L928 553C898 622 872 645 872 651C872 654 852 681 852 684C852 685 851 686 849 686C847 686 754 781 718 790C709 793 693 806 687 806C684 806 656 819 653 819C652 819 646 822 645 822C633 822 624 835 614 835L607 834C603 834 604 838 600 838H596C591 838 593 841 588 841H583C582 841 581 841 580 842C578 844 530 848 496 848C462 848 465 843 461 843C458 843 457 847 454 847C451 847 450 844 446 844C443 844 443 845 439 845C429 845 412 837 408 837C407 837 407 838 405 838C401 838 397 834 395 834C393 834 393 835 391 835C389 835 387 831 384 831H380C376 831 375 827 372 827C370 827 370 828 368 828C363 828 355 821 354 821C338 819 267 783 267 783C243 775 161 698 160 698C159 698 158 696 158 694C158 690 144 675 132 663C125 655 119 648 119 647C119 645 116 640 112 636C83 605 55 512 55 509C55 505 46 484 46 483C46 482 47 481 47 480C47 476 42 475 42 470C42 468 43 466 43 464C43 458 39 461 39 450V440C39 434 35 440 35 378C35 352 37 334 39 319C41 308 42 299 42 288C42 284 47 280 47 277C47 276 46 276 46 275C46 273 50 267 50 266C50 266 55 247 55 245C55 244 59 238 59 235C59 234 58 234 58 233C58 229 64 221 64 217C64 215 63 216 63 214C63 211 68 203 73 195C78 186 83 178 83 175C83 170 102 147 102 139C102 129 160 56 190 30C213 10 245 -13 249 -13C254 -13 268 -28 274 -28C276 -28 278 -29 278 -31C278 -39 334 -58 334 -58C344 -66 379 -70 382 -73C384 -75 386 -75 387 -75C389 -75 391 -74 393 -74C394 -74 395 -74 396 -75C406 -82 469 -88 515 -88ZM495 -81C483 -81 473 -81 465 -79L403 -68C310 -52 273 -16 266 -12C224 6 130 98 111 139C111 139 63 234 63 244C63 259 45 265 45 393C45 466 62 496 63 503C66 529 94 587 94 588C101 607 141 655 161 680C169 689 174 695 174 696C174 703 253 767 272 776C288 784 325 803 329 803C329 803 399 838 476 838C514 838 572 835 587 832L617 826C621 825 626 822 628 821C633 818 644 817 658 810L701 788C752 765 780 743 825 695C937 577 955 445 955 371C955 336 950 314 950 314C947 303 945 291 942 280C934 235 924 180 837 68C802 24 676 -81 495 -81ZM505 -74C624 -74 697 -28 702 -28C706 -28 748 -3 750 1C752 3 754 5 757 5C759 5 763 8 766 11C771 17 776 15 778 17C784 27 817 41 875 127C909 178 949 274 949 371C949 426 936 469 936 480C934 513 890 592 868 630C861 642 857 650 857 651C857 657 789 727 765 745C728 773 679 794 651 805C637 811 629 815 629 816L598 825C596 825 594 824 591 824C591 824 590 835 494 835C478 835 407 825 407 825C404 825 399 818 392 818H390C372 818 332 799 307 788C296 783 289 779 287 779C281 779 235 747 216 731C73 606 72 499 62 485C58 481 50 415 50 403C50 372 55 314 55 314C54 313 54 311 54 308C54 293 64 269 64 262C64 260 63 260 63 259C63 256 67 255 69 244C75 218 106 162 110 152C127 114 255 -74 505 -74ZM502 -61C435 -61 457 -58 427 -54C379 -49 342 -33 319 -23C310 -19 303 -16 298 -15C287 -13 289 -7 250 19C207 48 135 120 133 139C132 144 107 181 107 183C107 186 104 193 99 203C87 231 64 283 64 355V396C64 449 66 460 77 492C98 552 106 576 116 592L140 629C154 651 221 720 247 740C285 769 378 809 430 818C438 819 455 819 477 819C518 819 572 818 591 815C597 814 729 779 812 688L831 667C834 664 839 657 842 653C847 645 852 637 858 629C891 579 937 510 937 354C937 333 936 318 933 310C933 310 903 173 855 117L825 83C798 53 801 53 797 53C795 53 788 48 782 42C756 18 692 -21 658 -34C633 -44 579 -53 576 -54L536 -60C530 -61 517 -61 502 -61ZM498 749C504 749 521 800 538 800C543 800 547 802 547 805C547 810 536 811 533 811C523 811 515 807 515 803C515 801 517 802 517 799C517 790 500 769 498 769C493 769 476 793 476 798C476 799 479 799 479 802C479 803 476 805 473 805C469 805 468 804 465 804C458 804 456 808 453 808C451 808 450 807 450 805C450 803 452 799 456 796C464 789 472 778 480 768C488 758 495 749 498 749ZM500 25C559 25 611 37 646 52C689 70 758 134 759 134C760 134 765 140 771 147C842 235 840 305 846 305C848 305 852 330 852 365C852 411 845 474 821 521C796 571 795 572 791 577C788 579 785 583 777 595C729 669 632 709 629 714C625 719 561 736 493 736C396 736 329 691 298 670C288 663 282 659 279 659C273 659 231 612 214 588C196 561 167 504 167 495C167 495 146 448 146 391C146 355 153 300 162 274C196 167 291 89 291 89C302 89 360 25 500 25ZM494 37C382 37 282 106 276 122C275 125 273 128 271 128C268 128 235 164 222 183C167 262 162 318 162 390C162 459 177 484 184 501C216 589 277 643 281 643C284 643 290 647 300 654C331 676 396 722 481 722H496C551 722 646 717 746 614C823 533 839 430 839 365C839 333 835 311 833 307C830 301 828 292 825 282C819 262 811 237 798 212C727 78 591 37 494 37ZM507 105H510C534 105 545 107 545 109C545 115 520 124 516 135C511 149 503 142 503 167V185H539L550 168C557 157 562 151 564 151C567 151 568 158 568 172C568 198 568 226 562 227C560 227 558 226 558 225C558 224 553 217 547 211C538 201 536 200 521 200H503V263H583L582 248V242C582 217 603 211 614 211C639 211 642 227 642 240C642 255 635 253 635 256C635 259 640 260 647 260C667 260 681 253 681 236C681 224 674 221 674 204C674 181 696 167 715 167C724 167 742 183 745 192C747 196 752 203 757 210C765 220 775 233 775 241C775 249 770 252 770 258C770 264 779 270 779 277C779 279 778 281 776 281C774 281 771 285 771 288C771 296 791 302 791 318C791 329 779 341 779 347C779 353 788 352 788 363C788 369 776 390 771 392V394C771 396 784 403 784 411C784 422 771 431 771 439C771 445 783 445 783 455C783 467 767 480 767 485C767 487 785 490 785 505C785 516 769 526 769 536C769 541 773 545 773 556C773 579 746 603 719 603C705 603 690 597 676 583L663 571L626 573C614 574 606 574 601 574C585 574 581 571 581 562C581 553 584 539 584 520C584 502 583 484 581 470H525C508 470 502 471 502 480C502 484 507 483 507 497C507 507 519 523 532 542C550 565 570 593 570 616C570 639 548 665 529 665C512 665 504 652 495 652C488 652 485 661 475 661C438 661 433 635 430 622L425 601L438 573C455 542 455 542 477 524L493 509L491 490C489 473 487 469 477 469C469 469 456 471 435 471L400 472L401 520V537C401 556 400 570 399 572C398 577 393 578 353 578C316 578 308 579 307 582C304 590 285 597 281 603C280 605 277 605 274 605C251 605 226 585 226 567C226 560 229 555 229 550C229 542 217 533 217 522C217 514 224 512 224 506C224 496 203 486 203 474C203 463 220 459 220 455C220 451 207 442 207 430C207 422 214 417 214 411C214 403 203 401 203 386C203 366 217 365 217 362C217 359 203 346 203 335C203 325 214 319 219 317C203 308 198 299 198 291C198 279 208 270 208 265C208 262 201 262 201 250C201 238 209 238 209 231C209 228 207 226 207 222C207 219 208 216 214 211C221 205 227 200 231 195C243 184 250 177 265 177C289 177 305 190 305 210C305 231 288 244 288 252C288 265 301 266 318 266H331C347 266 359 265 359 264C359 258 349 250 349 237C349 223 362 210 377 210C394 210 408 225 408 234C408 246 402 261 402 264C402 265 410 266 423 266C433 266 447 266 464 264L488 262V200C476 198 476 198 473 198C448 198 433 227 433 230C433 232 435 234 430 233C425 232 423 217 423 201C423 160 426 158 430 158C434 158 438 163 443 172C447 181 446 185 473 185C487 185 488 181 488 164C488 152 487 149 479 141C464 127 456 116 450 116C447 116 446 114 449 110C452 105 472 105 507 105ZM499 530C479 530 452 570 452 579C452 579 444 597 444 615C444 639 452 643 465 643C475 643 485 638 485 628C485 618 489 614 493 614C497 614 500 618 500 623C500 632 517 647 525 647C542 647 549 628 549 610C549 589 539 578 539 574C539 566 507 530 499 530ZM168 551C175 551 185 567 185 575C185 578 183 579 181 579C179 579 178 578 176 578C174 578 173 581 173 584C173 595 184 604 197 604C200 604 203 603 203 600C203 597 205 596 207 596C214 596 224 613 224 617C224 618 223 619 221 619C217 619 215 617 206 617C195 617 183 621 172 624C164 627 157 629 152 629C148 629 146 627 146 623C146 620 167 580 167 563C167 559 166 558 166 555C166 552 167 551 168 551ZM833 536C835 536 836 538 836 543C836 556 843 571 850 584C855 595 859 604 859 610C859 618 854 619 849 619C838 619 822 609 807 609C796 609 789 615 785 615C783 615 782 615 782 613C782 606 797 588 802 588C802 588 803 589 803 590V593C803 598 804 602 813 602C821 602 833 584 833 579C833 575 827 567 824 567C820 567 819 571 816 571C815 571 815 570 815 569C815 567 824 536 833 536ZM167 596C166 596 164 600 164 604C164 609 166 611 168 611C170 611 173 609 173 606C173 601 170 596 167 596ZM836 591C832 591 827 597 827 601C827 605 834 608 839 608C843 608 846 607 846 603C846 596 841 591 836 591ZM267 192C251 192 240 203 240 215C240 222 244 227 250 227C256 227 259 225 259 222C259 216 248 218 248 210C248 204 254 198 261 198C268 198 275 204 275 212C275 215 271 239 250 239C229 239 230 216 223 216C220 216 219 223 219 224C219 233 233 241 233 247C233 250 232 251 230 251C226 251 219 245 217 245C214 245 213 246 213 249C213 258 232 273 232 278C232 279 230 280 228 280H220C216 280 213 281 213 290C213 308 239 315 239 326C239 330 238 331 235 331C231 331 229 330 224 330C218 330 216 332 216 335C216 345 233 363 243 366C246 367 248 371 248 375C248 377 247 380 244 380C243 380 236 375 229 375C225 375 216 377 216 385C216 401 238 407 238 416C238 418 236 420 231 420H227C223 420 222 421 222 427C222 445 247 461 247 468C247 470 243 472 233 472C224 472 220 473 220 477C220 483 227 490 234 496C241 503 247 509 247 514C247 516 245 517 243 517C239 517 237 516 235 516C231 516 230 518 230 521C230 539 259 547 259 555C259 558 255 560 248 560C242 560 239 563 239 567C239 574 255 593 268 593C273 593 279 590 286 585L297 576L295 475C291 283 291 280 283 274C277 269 273 264 273 258C273 251 277 243 282 235C286 226 291 217 291 209C291 194 276 192 267 192ZM713 180C700 180 687 194 687 204C687 220 693 227 693 237C693 242 691 250 684 260L675 271V366C675 404 674 435 674 460C674 580 679 574 697 584C705 588 713 590 721 590C748 590 765 565 765 553C765 550 761 544 755 539L746 530L760 520C769 513 773 507 773 504C773 499 767 497 752 497C743 497 739 495 739 492C739 488 747 482 755 475C762 469 770 462 770 458C770 455 767 454 760 454H750C743 454 740 453 740 451C740 443 765 429 765 423C765 421 766 419 767 419C769 419 772 415 772 411C772 408 770 405 767 405C762 405 764 409 755 409C748 409 744 406 744 403C744 396 773 382 773 359C773 358 772 358 771 358C767 358 762 359 758 359C755 359 753 359 753 355C753 347 777 325 777 313C777 309 774 304 766 304C760 304 753 306 748 306C745 306 743 305 743 302C743 296 765 288 765 275C765 272 763 269 759 269C755 269 747 276 743 276C741 276 740 275 740 273C740 269 765 248 765 238C765 235 762 233 755 233C750 233 746 232 746 230C746 230 753 221 753 217C753 216 752 215 750 215C744 215 744 238 726 238C722 238 698 234 698 219C698 207 706 192 718 192C726 192 730 200 730 209C730 215 728 221 724 221C721 221 720 218 720 212C720 206 718 203 716 203C713 203 709 210 709 215C709 222 716 227 723 227C731 227 737 219 737 209C737 195 727 180 713 180ZM655 274C640 274 647 277 577 277H522C492 277 492 279 489 279C486 279 477 277 467 277C447 277 463 280 436 280H418C398 280 398 282 398 282C396 282 388 280 348 280H304V298C304 308 306 351 307 394L310 515L312 560C313 561 330 562 351 562H388C387 551 387 539 387 512C386 502 386 490 386 476V405L372 398C359 392 348 389 348 379C348 375 351 374 366 374C392 374 385 378 396 378C401 378 408 377 414 377C425 377 434 379 434 389C434 394 430 395 422 395C398 395 398 414 398 428V430C398 455 400 458 423 458C440 458 439 453 441 453C443 453 446 457 450 457C454 457 450 455 489 455H518C546 455 573 454 577 452C580 449 581 442 581 430C581 411 581 410 569 400C562 395 557 391 554 391H552C548 391 544 388 544 383C544 376 551 374 562 374C575 374 595 377 605 377C613 377 613 376 615 376C620 376 626 380 626 384C626 390 598 398 595 407C594 409 594 419 594 433C594 476 597 558 602 559C602 560 604 560 607 560C613 560 623 559 633 558L661 556V390C661 274 661 274 655 274ZM380 223C374 223 368 225 368 229C368 232 367 233 365 233C363 233 362 234 362 237C362 245 369 257 385 257H387C392 257 397 256 397 240C397 226 387 223 380 223ZM614 223C604 223 595 235 595 245C595 251 599 256 608 256C626 256 629 249 629 234C629 226 618 223 614 223ZM836 115C857 115 872 151 872 153C872 154 871 154 870 154C868 154 866 153 864 153C860 153 856 155 851 159C834 174 825 173 825 180C825 183 827 185 827 189C827 190 826 191 825 191C820 191 807 169 807 166C807 164 809 164 813 164C819 164 828 158 828 151C828 143 818 134 818 127C818 120 829 115 836 115ZM180 101C182 101 182 102 182 103C182 105 181 108 181 111C181 125 205 142 214 142C219 142 220 139 224 139C226 139 227 140 227 142C227 150 209 162 209 166C209 172 194 188 188 188C184 188 175 180 175 175C175 172 177 170 184 170C191 170 203 162 203 156C203 154 179 129 167 129C166 129 161 132 159 132C157 132 155 131 155 127C155 124 177 101 180 101ZM835 125C832 125 831 126 831 129C831 135 838 146 843 146C847 146 854 139 854 138C854 135 842 125 835 125ZM474 -53C479 -53 498 -52 498 -48C498 -46 492 -46 492 -34C492 -20 502 2 508 2C514 2 522 -15 522 -27C522 -41 513 -41 513 -45C513 -49 521 -51 528 -51C536 -51 545 -49 545 -46C545 -45 545 -45 543 -44C537 -40 539 -15 528 -1C521 8 517 12 511 12C493 12 479 -19 479 -30C479 -41 465 -39 465 -49C465 -51 467 -53 474 -53Z" fill="#f59e0b" stroke="none"/>
  </g>
</svg>