<svg xmlns="http://www.w3.org/2000/svg" viewBox="2 -122 996 1004">
  <g transform="translate(0, 760) scale(1, -1)">
    <path d="M512 -92C594 -92 577 -85 593 -85C597 -85 598 -81 600 -81C602 -81 602 -82 603 -82C610 -82 634 -73 653 -66C665 -62 675 -58 677 -58C679 -58 689 -51 692 -51C694 -51 693 -52 694 -52C706 -52 818 17 859 76C863 83 867 88 869 88C871 88 877 97 884 107C889 116 895 125 900 131C909 141 936 204 936 205C936 206 938 212 938 214C938 216 942 221 942 223C942 225 946 231 946 233C946 234 945 234 945 236C945 239 949 240 949 244V246C949 254 955 256 955 266C955 269 954 271 954 273C954 274 955 275 956 276C960 278 956 297 961 307C963 311 968 359 968 387C968 419 964 393 964 424C964 435 960 434 960 439C960 442 961 443 961 446C961 454 955 456 955 476V481C955 487 948 510 948 511C948 513 945 519 945 520C945 521 939 532 939 534C939 536 936 542 936 544C934 561 872 665 870 668C864 681 807 736 786 751C664 835 586 843 545 847C535 848 527 849 521 851C519 851 515 852 509 852C479 852 413 845 411 841C409 838 404 840 403 840C400 840 399 837 395 837C393 837 392 838 390 838C385 838 384 833 380 833C379 833 378 834 376 834C373 834 371 830 369 830C367 830 367 831 365 831C362 831 358 826 354 826C352 826 351 827 349 827C343 827 334 821 332 821C331 821 319 816 317 816C317 817 314 817 312 815C301 806 208 771 115 651C103 635 67 566 67 558C60 542 59 536 59 532V530C59 526 53 524 53 520C53 519 54 518 54 516C54 509 47 509 47 498C47 488 32 488 32 388C32 322 39 318 39 318C39 315 34 315 34 308C34 302 39 293 39 291C39 290 38 290 38 289C38 285 42 284 42 281V279C42 271 58 218 67 200C84 165 73 176 85 162C97 148 103 114 180 35C230 -15 295 -44 327 -58C337 -63 344 -65 345 -67C347 -69 348 -70 349 -70C350 -70 350 -69 351 -69C353 -69 355 -73 359 -73C361 -73 362 -72 363 -72C366 -72 366 -76 370 -76C371 -76 373 -75 375 -75C380 -75 376 -79 383 -79H389C396 -79 392 -82 396 -82H401C403 -82 404 -82 405 -83C411 -89 465 -92 512 -92ZM442 -79C398 -79 373 -63 373 -63C367 -63 311 -43 299 -36C240 -4 173 53 173 56C173 58 167 64 161 71C112 123 63 216 51 283C45 313 43 352 43 388C43 424 45 457 51 477C75 566 104 660 235 757C320 820 412 839 491 839C641 839 719 781 719 781C794 740 862 666 862 660C862 656 942 535 943 481C943 472 945 465 947 455C950 439 954 417 954 377C954 289 936 237 926 209C922 199 920 192 920 188C920 184 898 147 895 146C894 145 893 144 893 142C893 137 852 80 843 70L820 48C790 15 724 -32 697 -39C688 -42 629 -67 606 -67H604C604 -65 613 -62 626 -58C659 -49 720 -31 772 10C791 24 854 90 859 100C862 106 867 112 872 119C892 143 922 180 943 298C948 329 951 350 951 372C951 396 948 422 942 465C931 542 900 590 878 624C870 637 863 647 859 657C849 680 762 755 721 776C711 781 701 785 700 787C697 791 620 820 606 821C606 821 562 828 561 830C561 830 519 836 503 836H498C496 834 484 834 470 833C451 833 430 832 426 828C425 827 424 827 422 827C419 827 416 828 413 828C406 828 409 824 405 824C404 824 403 825 401 825C397 825 396 821 392 821H387C387 821 338 802 329 802C328 802 248 770 174 692C132 649 126 639 103 592C89 564 77 537 77 533C77 532 72 525 72 523C72 522 68 515 68 514L61 484C61 483 57 477 57 473C57 471 58 470 58 468C58 468 50 468 50 375C50 332 54 324 54 319C54 316 50 315 50 309C50 305 53 303 53 297V293C53 288 58 287 58 284C58 282 57 281 57 279C57 276 61 275 61 273C61 272 60 271 60 270C60 264 70 245 70 238C70 234 86 197 99 174L116 138C124 123 153 85 179 57C194 40 241 1 246 1C246 1 325 -57 445 -78C445 -79 444 -79 442 -79ZM521 -65C482 -65 408 -58 402 -53C400 -52 398 -51 397 -51C395 -51 393 -52 392 -52C374 -52 285 -10 247 16C223 32 173 78 173 84C173 86 134 131 132 141C131 150 123 152 108 183L94 211C91 218 89 225 89 228C89 234 63 263 63 391C63 432 67 470 75 488C80 498 83 509 86 522C100 569 119 635 239 734C265 756 337 796 350 796C363 796 363 807 456 819C465 821 477 821 489 821C521 821 563 818 620 806C672 795 712 763 714 763C737 763 845 668 845 655C845 653 846 652 847 651C854 649 887 596 900 567L912 539C936 485 941 405 941 358C941 290 915 186 867 125L840 91C802 43 738 -8 699 -21C697 -22 597 -65 521 -65ZM484 745H521C518 766 516 769 512 769C500 769 504 754 485 754C480 754 476 755 476 756C476 759 483 766 492 774C505 787 521 802 521 811C521 813 520 816 517 816C514 816 507 811 502 811C500 811 492 815 478 815C471 815 465 814 461 814H459L448 815L450 802C452 790 456 782 459 782C466 782 458 802 484 802C488 802 490 801 490 799C490 798 489 796 488 796C485 796 445 762 445 753C445 747 457 746 484 745ZM532 21C608 21 693 76 697 76C698 76 724 98 727 98V96C727 93 717 88 717 80C717 74 723 70 723 65C723 61 719 59 719 55C719 53 720 52 722 52C729 52 747 68 747 74C747 76 745 78 743 78C739 78 736 74 734 74C732 74 730 80 730 83C730 88 734 91 739 91C753 91 770 72 770 61C770 54 765 50 757 50C752 50 748 51 744 51C741 51 739 50 739 48C739 41 759 26 763 26C766 26 767 27 767 32C767 45 783 42 783 69C783 89 756 102 743 102H729L754 124C841 206 844 303 852 313C854 315 855 340 855 370C855 437 837 501 836 502C833 504 815 545 815 549C816 549 820 543 820 541C820 540 821 539 821 539C823 539 826 542 826 548V550C826 556 827 559 830 559C836 559 848 545 848 537C848 531 848 529 846 529C843 529 837 535 833 535C831 535 830 533 830 530C830 522 842 495 850 495C852 495 854 498 854 504C854 511 863 526 873 539C881 552 889 564 889 570C889 574 887 576 879 576C873 576 864 574 855 573C845 571 834 569 826 569C812 569 813 576 808 576C805 576 806 571 805 571C803 571 798 577 792 587C779 606 728 658 711 669C710 670 687 695 619 718C562 737 526 732 526 735C526 737 517 738 502 738C283 738 193 568 193 568C193 567 192 565 190 565C188 565 188 563 188 559C188 553 184 547 179 538C166 516 144 478 144 385C144 302 154 278 162 258L174 226C179 214 188 197 210 165C235 128 271 98 331 63C364 43 396 21 532 21ZM525 35C405 35 352 68 350 70C348 72 270 111 249 146C235 168 174 213 159 339L156 359L167 354C174 351 180 350 185 350C191 350 196 352 202 359C211 368 229 368 245 368C257 368 268 369 272 373C276 376 277 383 277 404C277 437 282 436 282 437C282 441 278 445 278 453C278 464 281 465 298 465H307L335 466L333 422C333 412 332 403 332 397C332 383 333 375 334 373C337 369 358 367 379 367C398 367 417 368 418 369C424 370 425 373 426 417V465H438C439 466 442 466 443 466C449 466 449 459 450 408V317H439C424 317 411 335 404 335C402 335 400 332 400 323C400 311 396 311 396 310C396 307 398 303 398 291C398 288 397 287 397 284C397 275 399 270 403 270C414 270 422 298 435 298C443 298 447 292 447 285C447 255 412 245 412 237C412 234 420 230 433 230H439C451 230 455 228 457 228C458 228 458 228 459 229C460 231 496 228 496 237C496 241 490 247 486 247C479 247 460 272 460 286C460 293 464 298 473 298C482 298 490 293 490 287C490 285 492 283 493 283C495 283 496 281 496 278C496 276 500 273 504 273C510 273 514 282 514 317C514 328 513 338 508 338C500 338 496 313 474 313C470 313 466 315 466 316C465 318 463 387 463 430V453L464 466L486 465V421C486 381 488 371 497 371C502 371 506 376 508 385C514 417 540 456 548 456C549 456 550 455 550 452C550 446 545 412 545 386C545 374 547 372 575 372H579L601 373L600 342C599 308 599 312 598 304C597 294 570 289 570 270C570 248 598 232 606 232C621 232 640 246 640 257C640 270 642 266 642 270C642 277 626 294 613 299C612 299 611 300 611 300C611 303 617 312 617 343L618 371H652C669 371 667 375 668 421L669 458H683C690 458 702 456 710 455L723 453V426C723 408 721 396 721 387C721 369 727 364 758 364C771 364 778 363 778 359C778 354 770 344 763 335C757 327 752 321 752 318C752 318 767 317 782 317C797 317 813 318 813 320C813 324 794 345 794 357C794 362 800 364 804 364C822 364 823 337 832 337C836 337 838 348 838 367C838 398 836 404 833 404C822 404 822 381 801 381H799C797 381 794 382 794 395C794 414 817 421 817 428C817 430 809 430 798 430C782 430 759 430 759 426C759 417 780 410 780 393V384L736 382L737 423V442C737 456 736 467 736 468C733 472 700 475 678 475C653 475 652 473 652 444C652 431 651 412 650 404L649 389H637C620 389 618 390 618 408C618 421 620 424 622 424C633 424 635 402 642 402C646 402 649 412 649 429C649 445 648 448 645 448C639 448 631 436 624 436C622 436 618 438 618 440C618 453 641 468 641 469C641 472 631 474 611 474H609C589 474 584 474 584 467C584 458 604 461 604 444C604 440 604 438 602 438C598 438 589 450 581 450C578 450 573 448 573 435C573 423 576 403 580 403C585 403 598 424 602 424C604 424 604 418 604 411C604 392 599 388 578 388C563 388 561 389 561 407C561 423 563 465 563 470C563 475 563 478 555 478C544 478 520 454 511 436C508 428 504 421 502 421C501 421 500 434 500 449C500 470 498 479 496 480C494 481 475 482 452 482L412 483V438C412 412 412 390 411 388C410 385 400 384 390 384C375 384 356 386 356 386C355 387 355 392 355 400V434C355 470 355 484 336 484C328 484 320 483 311 483C302 483 296 484 289 484C283 484 284 482 274 481C269 480 264 483 263 405V385H236C233 384 230 384 228 384C209 384 202 387 202 396C202 403 188 411 174 411C165 411 162 407 158 407C156 407 155 409 155 414C155 478 213 606 311 669C346 692 406 714 447 721L476 726H487C508 726 531 719 538 719C598 719 654 684 655 684C703 669 797 560 797 548C797 547 801 540 806 532C822 505 844 426 844 383C844 306 810 226 778 178C749 134 684 85 674 85C673 85 669 83 667 80C660 72 575 35 525 35ZM158 533C164 533 176 550 176 558C176 560 175 562 172 562C170 562 169 561 167 561C160 561 149 567 149 569C149 570 150 572 155 572C160 572 169 570 177 570C185 570 187 574 187 577C187 583 178 590 169 597C161 604 153 610 153 614C153 619 156 622 156 626C156 628 153 632 150 632C145 632 137 617 137 613C137 605 160 593 160 588C160 586 159 586 157 586C153 586 146 588 137 588C112 588 107 566 107 565C107 563 108 563 109 563C112 563 115 568 119 568C122 568 155 557 155 546V539C155 535 156 533 158 533ZM859 551C856 551 853 554 853 558C853 562 856 565 859 565C862 565 864 562 864 559C864 556 862 551 859 551ZM180 365C174 365 164 376 164 386C164 393 168 400 175 400C183 400 193 390 193 380C193 372 186 365 180 365ZM605 250C593 250 590 259 590 266C590 275 597 282 605 282C614 282 623 275 623 265C623 253 612 250 605 250ZM238 32C245 32 271 48 271 49C271 51 273 52 276 52C285 52 283 60 291 60C299 60 304 54 312 54C314 54 316 55 316 58C316 61 286 85 282 85C281 85 280 84 280 83C280 81 282 77 282 73C282 67 276 65 271 65C264 65 258 72 258 78C258 81 259 84 264 84C267 84 268 83 271 83C273 83 274 84 274 86C274 93 257 111 247 111C244 111 243 109 243 108C243 104 246 99 246 96C246 90 243 79 240 69C236 58 233 47 233 40C233 33 236 32 238 32ZM250 49C249 49 248 51 248 52C248 55 251 61 254 61C257 61 258 60 258 58C258 55 253 49 250 49ZM598 -70C596 -70 594 -69 594 -69C594 -68 596 -68 598 -68C600 -68 601 -68 601 -69C601 -70 600 -70 598 -70ZM574 -77C572 -77 571 -76 571 -76C571 -74 580 -71 585 -71C587 -71 589 -71 589 -72C589 -74 576 -77 574 -77ZM561 -80C558 -80 558 -80 558 -79C558 -77 563 -74 566 -74C567 -74 567 -75 567 -76C567 -79 563 -80 561 -80ZM544 -83C541 -83 539 -83 539 -82C539 -80 547 -77 551 -77C552 -77 553 -78 553 -79C553 -81 548 -83 544 -83ZM505 -83C475 -83 455 -81 455 -80C455 -79 462 -79 472 -79C482 -79 523 -80 523 -82C523 -82 515 -83 505 -83ZM531 -83C530 -83 527 -82 527 -81C527 -81 529 -80 531 -80C534 -80 535 -81 535 -81C535 -82 533 -83 531 -83Z" fill="#f59e0b" stroke="none"/>
  </g>
</svg>