<svg xmlns="http://www.w3.org/2000/svg" viewBox="1 -118 998 995">
  <g transform="translate(0, 759) scale(1, -1)">
    <path d="M509 -88C581 -88 627 -76 710 -40C795 -3 878 100 892 121C902 137 926 184 937 211C948 238 969 269 969 380C969 514 920 578 920 589C920 589 883 678 798 741L775 758C694 819 590 847 501 847C372 847 273 799 179 724C146 697 85 608 67 559C35 475 31 410 31 380C31 304 51 230 64 196C69 184 131 47 238 -16C262 -29 274 -38 277 -38C280 -38 323 -58 330 -58C347 -58 363 -88 509 -88ZM524 -76C352 -76 337 -41 322 -41C318 -41 218 8 218 13C218 15 214 18 208 21C201 25 163 56 155 72C152 79 141 92 130 105C119 118 109 131 109 134C109 146 42 212 42 380C42 507 104 609 108 620C115 636 122 632 122 638C122 640 127 647 133 653C152 675 150 682 155 682C157 682 158 684 158 687C158 695 215 741 254 764L340 811C356 819 461 838 481 838C525 838 624 827 651 817C692 801 742 769 742 769C746 769 777 745 780 745C782 745 790 738 800 730L837 696C854 681 890 633 890 625C890 623 891 622 893 622C894 622 898 613 903 604L929 546C947 504 960 435 960 375C960 359 959 344 957 329C955 313 958 301 951 301C948 301 947 304 947 309C947 321 952 347 952 384C952 508 888 621 870 645C838 687 829 694 816 705C810 710 803 715 793 725C757 758 672 804 623 817C590 825 554 829 516 829C333 829 264 754 252 754C251 754 242 748 231 740L204 720C182 704 119 634 119 622C119 620 116 614 113 611C103 600 93 572 90 570C83 568 51 458 51 380C51 276 87 183 98 172C100 171 108 157 117 141C129 121 144 97 153 85C165 70 204 31 206 31C214 31 203 26 285 -15C345 -44 396 -67 519 -67C622 -67 716 -14 716 -14C716 -13 718 -11 722 -11C733 -11 794 37 839 83C890 136 921 219 936 261C942 276 945 286 947 286C947 286 948 287 948 288L947 295C947 297 948 298 949 298C951 298 953 296 953 294C953 281 934 227 918 192C905 165 903 152 858 93C833 59 742 -16 716 -24C716 -24 663 -50 568 -74C564 -75 547 -76 524 -76ZM494 -57C378 -57 363 -32 350 -32C344 -32 283 -5 258 10C214 35 183 66 144 121C69 228 84 257 75 271C68 282 60 358 60 398C60 420 77 494 77 494C114 621 131 606 131 617C131 624 175 675 175 675C189 692 252 744 271 754L301 769C370 805 438 817 499 817C614 817 698 772 700 772C703 772 724 758 730 751C730 751 811 708 876 613C882 605 885 600 885 598C885 592 833 580 820 580C809 580 807 585 803 585C802 585 801 585 801 583C801 576 811 555 817 555C822 555 821 558 821 563C821 567 824 569 828 569C836 569 848 560 848 550C848 547 847 544 843 544C840 544 838 545 836 545C833 545 830 543 830 540C830 538 831 535 834 532C841 525 843 508 852 508C855 508 856 509 856 510C856 512 855 515 855 519C855 538 883 581 889 581C892 581 896 576 896 572C896 570 900 562 904 553C910 541 917 527 917 523C917 508 940 493 940 377C940 268 911 232 911 224C911 218 890 175 878 157C864 136 820 78 816 76C813 75 805 67 795 58C779 42 757 21 745 16C740 13 736 11 736 10C736 5 678 -20 630 -37C588 -52 554 -57 494 -57ZM494 21C559 21 607 36 607 36C607 36 702 74 751 124C777 151 815 206 819 223C823 237 856 274 856 382C856 406 855 433 854 443C850 466 826 539 810 552C800 560 796 590 758 626C691 691 640 717 550 733C540 734 528 736 523 736C519 736 515 736 515 737C515 739 540 784 554 789C560 791 562 794 562 796C562 802 542 807 528 807C521 807 516 806 516 801C516 797 519 793 523 793C527 793 530 792 530 791C530 785 515 764 509 764C505 764 490 785 490 790C490 797 499 792 499 802C499 804 498 806 495 807H493C484 807 451 806 449 798C449 795 451 793 456 791C463 789 472 775 480 763C486 755 491 747 494 745C498 743 500 741 500 739C500 737 494 736 481 736C455 736 399 721 384 715C363 707 367 715 350 705L324 692C260 655 185 566 185 547C185 545 181 537 175 528C159 502 139 432 139 390C139 231 223 140 241 128C254 119 266 110 278 100C327 62 379 21 494 21ZM254 383C187 383 205 415 182 415C173 415 164 407 160 407C157 407 156 409 156 413C156 421 160 440 170 477C179 511 216 582 229 590L248 609C287 651 355 694 371 694C381 694 408 721 497 721C534 721 619 704 682 667C708 651 756 608 770 588L788 562C821 513 841 449 841 438C841 436 840 435 839 435C824 435 833 496 740 501C703 503 717 508 694 508C687 508 680 509 680 510C680 515 700 528 700 547C700 564 684 575 668 575C652 575 655 567 643 567C637 567 630 568 624 568C610 568 603 555 603 546C603 542 604 538 604 534C604 521 575 514 575 489C575 481 579 478 579 476C579 473 574 472 561 469L541 466L517 489L525 500C535 512 538 514 562 515C576 516 584 518 584 523C584 532 533 573 525 573C524 573 521 572 521 569C521 566 526 556 526 534C526 526 524 524 516 514L504 501L493 513C483 524 481 525 481 541C481 555 487 566 487 570C487 572 486 573 484 573C482 573 421 525 421 512C421 510 424 507 429 507C435 507 443 511 453 511C461 511 470 509 479 500L491 488C488 486 476 479 476 474C476 472 467 461 457 450L438 430L404 445L403 538L417 553C427 564 433 572 433 580C433 595 421 611 403 611C387 611 359 594 359 579C359 569 365 556 375 546L387 534L388 495C389 483 389 473 389 466C389 444 386 443 369 438C361 435 357 434 354 434C345 434 348 446 310 482L293 497L302 507C310 516 315 519 322 519C331 519 341 512 354 512C359 512 361 514 361 518C361 523 308 577 303 577C299 577 297 574 297 570C297 563 303 565 303 550C303 535 295 514 283 514C275 514 259 535 259 544C259 555 265 569 265 572C265 574 264 575 262 575C258 575 251 571 244 566L216 540C207 531 204 528 204 526C204 524 208 518 212 518C215 518 218 523 229 523C252 523 269 503 269 498C269 494 253 478 230 478C224 478 218 479 214 479C207 479 206 476 206 473C206 461 252 422 265 422C268 422 269 423 269 426C269 427 269 428 268 430L258 462L281 485L311 454C332 432 339 424 339 417C339 412 336 408 333 400L328 386L291 384C276 384 265 383 254 383ZM147 525C163 525 179 536 179 558C179 568 176 575 173 575C165 575 170 546 153 546C145 546 122 557 122 569C122 574 128 578 134 578C140 578 146 575 149 575C153 575 154 578 154 580C154 586 142 601 135 601C135 601 110 583 110 562C110 542 131 525 147 525ZM396 560C388 560 379 568 379 579C379 589 399 598 401 598C404 598 414 587 414 576C414 566 404 560 396 560ZM856 566C855 566 853 567 853 569C853 572 856 577 860 577C861 577 863 575 863 572C863 568 860 566 856 566ZM553 381 507 382C467 383 461 383 461 388C461 390 458 398 455 404L449 416L476 444C491 459 503 472 504 472C508 472 527 456 527 442C527 433 518 435 518 423C518 419 520 415 523 415C530 415 560 430 560 433C560 436 581 458 581 465C581 467 582 467 584 467C589 467 599 463 607 463C625 463 629 482 629 487C629 507 609 504 609 509C609 516 629 513 629 523C629 527 624 534 624 540C624 546 630 550 633 550C643 550 640 526 650 526C654 526 657 529 657 533C657 538 654 539 654 545C654 552 659 559 666 559C673 559 685 549 685 542C685 528 651 517 632 448L614 392C602 399 593 401 586 401C578 401 572 398 564 391ZM608 478C602 478 599 482 599 484C599 488 603 493 607 493C612 493 614 491 614 485C614 481 612 478 608 478ZM702 254C682 254 665 257 664 258C647 278 637 327 637 348C637 358 637 362 686 362C697 362 700 361 700 359C700 352 673 335 673 317C673 314 676 285 719 285C742 285 751 309 751 315C751 321 741 349 726 349C721 349 719 351 719 355C719 360 721 361 737 361C758 361 763 359 781 342C794 329 796 303 804 303C810 303 811 303 811 363C811 438 810 440 807 440C799 440 793 428 793 425C793 423 794 421 794 416C794 411 789 403 780 395C771 386 770 378 726 378H723C719 378 717 379 717 390C717 398 719 406 727 406C730 406 736 408 740 412C746 416 747 420 747 434C747 453 744 457 719 465C716 465 712 468 707 468C695 468 678 453 678 438C678 407 703 406 703 391C703 381 696 379 669 379C645 379 635 381 635 389C635 391 636 392 636 393C643 417 648 434 651 447C661 485 661 486 683 486C709 486 756 483 768 480C817 465 829 423 829 385C829 351 820 320 819 317C816 293 782 271 780 271C772 271 757 254 702 254ZM723 421C721 421 719 423 719 427C719 437 716 442 709 442C705 442 704 441 704 438V434C704 430 703 429 701 429C697 429 692 434 692 438C692 442 701 452 709 452C715 452 732 444 732 434C732 427 727 421 723 421ZM383 394C380 394 368 412 368 416C368 417 382 424 384 424C385 424 389 412 389 403C389 399 387 394 383 394ZM406 399C402 399 401 405 401 410C401 418 406 424 411 424C415 424 421 420 421 415C421 407 410 399 406 399ZM367 380C365 380 348 381 348 390C348 392 349 402 354 402C360 402 371 386 371 382C371 381 369 380 367 380ZM426 380C422 380 417 380 417 383C417 387 432 402 435 402C437 402 446 395 446 389C446 382 434 380 426 380ZM180 361C173 361 164 373 164 382C164 397 182 400 182 400C185 400 194 392 194 380C194 370 188 361 180 361ZM588 356C585 356 574 359 574 371C574 378 578 385 587 385C593 385 602 383 602 373C602 364 595 356 588 356ZM354 352C352 352 349 357 349 360C349 366 355 367 359 367C363 367 366 365 366 363C366 359 359 352 354 352ZM518 41C382 41 391 61 377 61C365 61 311 95 311 95C296 100 203 169 179 256C179 256 154 332 154 351C154 354 155 355 156 355C159 355 168 347 180 347C187 347 194 350 204 357C213 364 215 364 272 364H331L342 336L313 309C297 293 283 280 282 280C276 280 274 295 274 310C274 320 275 332 275 337C275 341 273 343 271 343C264 343 253 336 237 322L215 304C208 299 205 295 205 292C205 287 217 286 231 284C249 282 271 279 271 268C271 258 237 241 221 241C207 241 213 250 203 250C200 250 197 248 197 245C197 238 238 182 253 182C256 182 258 184 258 188C258 191 257 193 257 203C257 238 276 250 280 250C287 250 303 230 303 210C303 200 295 192 295 187C295 184 297 183 300 183C313 183 357 218 357 231C357 234 355 235 350 235H343C312 235 299 260 299 266C299 271 351 323 359 323C361 323 365 320 365 319C365 318 369 315 376 313L387 310L385 277C382 212 382 214 375 210C363 204 353 191 353 183C353 169 365 143 394 143C415 143 430 158 430 177C430 192 419 208 411 208C404 208 401 212 401 234C401 250 403 310 409 310C411 310 417 313 423 315L432 320L451 299C468 281 474 275 474 270C474 266 468 253 452 253C440 253 427 260 419 260C415 260 413 258 413 253C413 252 450 193 469 193C475 193 476 199 476 202C476 213 470 206 470 220C470 234 479 257 486 257C490 257 505 242 505 225C505 210 494 197 494 190C494 185 500 182 502 182C506 182 545 212 557 225C562 230 564 232 566 232C567 232 567 231 567 228C567 224 566 222 566 219C566 204 575 200 583 195C590 192 596 189 596 180C596 162 613 152 624 152C637 152 645 166 662 166C677 166 696 184 696 202C696 221 680 227 680 233C680 237 687 237 699 237H706C727 237 757 238 782 252C815 271 822 281 834 317C834 317 821 236 803 225C801 224 800 221 800 219C800 209 757 151 732 127C714 109 694 97 646 73C588 45 558 41 518 41ZM631 169C621 169 614 188 614 192C614 197 625 203 625 211C625 213 624 214 621 214C613 214 609 207 603 207C594 207 581 216 581 229C581 232 582 233 584 233C589 233 594 215 603 215C609 215 623 228 623 240C623 251 613 258 604 258C594 258 585 248 577 248C574 248 573 249 570 249C563 249 555 245 544 245C534 245 523 248 510 261L495 275L505 283C512 289 519 292 525 292C541 292 545 280 554 280C558 280 560 283 560 286C560 297 543 309 537 319C532 329 512 340 512 345C512 347 509 349 506 349C502 349 499 347 499 342C499 334 501 322 501 318C501 304 495 286 489 286C485 286 446 323 446 328C446 330 450 339 455 347L465 364H496C537 364 552 360 557 353C566 343 577 338 586 338C595 338 602 342 602 343C602 345 604 346 607 346C612 346 614 343 617 326C623 296 630 280 635 269C638 261 641 255 641 248C641 241 650 233 659 224C668 214 678 204 678 196C678 190 670 186 666 186C659 186 650 201 644 201C641 201 639 198 639 193C639 190 640 187 640 183C640 174 636 169 631 169ZM435 342 425 350C419 354 416 358 416 359C416 362 419 363 426 363C434 363 444 362 444 358C444 355 440 350 435 342ZM382 331C375 331 372 333 372 336C372 341 382 351 385 351C388 351 389 347 389 340C389 332 388 331 382 331ZM406 325C404 325 403 326 403 328C403 331 402 337 402 342C402 345 403 347 405 347C407 347 419 336 419 334C419 331 409 325 406 325ZM717 299C712 299 710 304 701 304C695 304 692 313 692 320C692 330 698 332 699 332C702 332 704 329 704 323C704 318 709 314 713 314C716 314 719 317 719 322C719 328 721 330 724 330C729 330 734 323 734 317C734 306 723 299 717 299ZM604 230C601 230 597 234 597 237C597 239 598 241 602 241C605 241 607 239 607 235C607 231 606 230 604 230ZM396 161C387 161 377 167 377 177C377 185 383 192 392 192C400 192 412 186 412 177C412 168 404 161 396 161ZM227 34C232 34 242 41 254 49C267 58 281 68 288 68C291 68 292 65 299 65C302 65 305 66 305 68C305 72 286 91 283 91C280 91 274 80 274 78C274 76 273 76 271 76C264 76 256 84 256 90C256 92 257 93 261 93C266 93 269 92 272 92C275 92 276 93 276 94C276 101 253 118 243 118C241 118 239 117 239 114C239 111 240 110 240 108C240 102 236 84 232 68C228 53 225 40 225 36C225 35 226 34 227 34ZM758 33C764 33 785 50 785 58C785 60 783 61 778 61C775 61 772 63 772 64C772 70 753 82 753 94C753 98 756 103 756 106C756 108 755 109 752 109C751 109 744 104 737 97C716 76 691 72 691 67C691 61 700 46 707 46C716 46 716 76 730 76C734 76 759 55 759 44C759 43 756 38 756 35C756 34 757 33 758 33ZM249 62C248 62 248 63 248 66C248 68 249 70 251 70C253 70 254 68 254 68C254 66 251 62 249 62Z" fill="#f59e0b" stroke="none"/>
  </g>
</svg>