<svg xmlns="http://www.w3.org/2000/svg" viewBox="-50 -50 1100 1100">
  <g transform="translate(0, 1000) scale(1, -1)">
    <path d="M498 -91C558 -91 532 -88 558 -88C567 -88 567 -84 571 -84C572 -84 574 -85 576 -85C580 -85 582 -82 590 -82H596C603 -82 608 -78 610 -78C612 -78 616 -74 618 -74C618 -75 620 -75 620 -75C621 -75 626 -71 628 -71C630 -71 629 -72 631 -72C638 -72 669 -58 669 -58C675 -58 744 -19 744 -19C748 -19 783 6 799 20C929 133 936 235 946 242C950 244 951 246 951 249V253C951 254 951 255 953 256C954 256 964 295 964 308C964 311 963 311 963 312C963 314 968 316 968 340L969 401V408C969 439 966 442 966 443C966 444 968 446 968 448C968 455 961 458 961 475V481C961 489 957 490 957 492V495C957 498 954 499 954 501V504C954 509 948 517 948 521C948 523 949 522 949 524C949 526 944 530 944 531C944 532 944 533 945 533C945 534 941 540 941 542C941 543 923 583 923 589C923 595 895 642 878 663C803 762 690 817 680 817C678 817 646 828 646 828C646 826 640 832 638 832C636 832 635 831 634 831C630 831 630 835 624 835C622 835 620 834 618 834C614 834 616 838 611 838H608C600 838 603 844 594 844H589C587 844 589 851 508 851C472 851 462 849 453 848C445 846 438 845 417 845H412C405 845 404 840 401 840C399 840 398 841 397 841C394 841 393 837 390 837C389 837 388 838 387 838C385 838 384 834 380 834C379 834 378 835 377 835C372 835 361 828 358 828C358 828 333 817 329 817C328 817 321 814 320 814C320 815 317 815 315 813C308 808 299 803 287 796C250 778 191 747 131 665C117 647 106 632 106 631C106 629 99 617 91 606C84 594 76 582 76 580C76 578 72 569 68 560C64 551 60 542 60 539L51 512V507C51 505 48 505 48 501V496C48 491 44 494 44 487C44 485 45 484 45 482C45 475 41 480 41 473C41 471 42 469 42 467C42 465 41 463 40 462C37 460 38 429 34 427C32 425 31 411 31 393C31 352 36 288 40 285C42 284 42 283 42 282C42 280 41 278 41 276C41 275 42 273 43 272C46 268 46 264 46 259C46 250 47 237 62 209C72 190 69 170 133 83C174 27 247 -16 250 -20C255 -29 338 -65 343 -65C346 -65 356 -71 359 -71H364C368 -71 369 -75 374 -75C376 -75 377 -74 379 -74C381 -74 381 -78 385 -78H390C391 -78 393 -78 394 -79C396 -84 416 -79 423 -85C425 -87 427 -87 428 -87C430 -87 432 -86 433 -86C433 -86 433 -91 498 -91ZM495 -81C376 -81 309 -42 309 -39V-37C310 -37 313 -38 318 -41C350 -58 414 -67 419 -70C426 -74 469 -77 496 -77C509 -77 512 -77 518 -76C525 -75 535 -73 560 -71C667 -64 763 9 770 13C775 16 832 68 836 72C843 77 856 99 859 101C871 109 923 205 923 216C923 219 926 227 930 236C935 248 940 260 940 265C940 273 953 281 953 388C953 421 952 452 948 470C937 529 904 591 904 595C904 595 866 681 745 768C739 776 655 815 621 820C604 823 599 836 524 836C430 836 390 823 386 823C386 823 278 782 240 754C146 683 109 607 109 607C109 606 105 600 101 593C76 559 48 466 48 371C48 344 50 317 56 290L64 245C67 229 82 199 82 194C82 191 111 139 132 112L156 80C188 35 278 -24 284 -28C271 -28 240 -1 222 13C162 57 163 69 146 86C146 86 41 199 41 375C41 602 202 732 229 752C276 787 377 830 423 835L457 839C467 840 484 840 504 840C532 840 564 839 579 837C593 835 719 798 752 770C831 703 861 673 890 629C939 555 957 449 957 448C959 446 959 432 959 413C959 267 940 256 931 225C908 153 844 71 842 71C833 71 737 -59 552 -78C532 -80 513 -81 495 -81ZM494 -64C429 -64 369 -40 367 -40C348 -40 278 -8 255 12L225 35C203 51 155 100 152 110C151 111 155 113 160 114C168 115 176 122 185 128C194 134 204 141 211 141C217 141 221 134 226 134C228 134 229 135 229 138C229 143 227 146 229 146C231 146 232 145 232 143C232 128 318 58 344 48C414 23 425 27 425 23C425 22 453 16 494 16C518 16 546 18 576 25L610 32C631 37 689 67 715 86C761 121 791 157 819 212L838 248C852 275 858 327 858 379C858 461 836 517 828 520C823 522 825 525 825 527C825 535 814 552 801 572C793 584 784 597 777 609C768 624 719 666 689 684C635 715 607 715 604 720C600 727 545 733 504 733C479 733 381 722 377 710C376 708 373 707 369 707C348 707 209 621 169 500C164 485 146 413 146 375C146 309 171 216 205 178C208 174 210 172 210 171C210 170 209 170 208 170C206 170 201 176 199 176C198 176 197 175 197 173C197 169 201 166 201 162C201 158 197 155 191 155C187 155 179 167 179 174C179 178 181 179 183 179C186 179 188 177 190 177C192 177 193 178 193 180C193 186 187 200 184 200C183 200 182 202 182 204C182 208 180 211 176 211C167 211 166 200 165 189C165 181 164 173 160 170C158 169 155 155 151 142C148 131 145 120 144 120C138 121 100 185 86 226C71 268 60 352 60 396C60 396 64 477 91 542C104 575 119 604 123 604C124 604 125 604 125 602C125 596 138 579 142 579C144 579 146 577 148 577C158 577 172 599 179 599C181 599 189 595 189 589C189 583 184 578 176 578C170 578 167 576 167 573C167 568 181 558 185 558C187 558 188 560 188 565C188 573 201 585 201 597C201 607 189 613 182 613C170 613 157 603 148 603C142 603 137 609 137 613C137 618 143 622 150 622C154 622 156 621 161 621C166 621 168 622 168 625C168 627 166 631 162 635L154 643C147 633 142 629 139 629C138 629 137 630 137 631C137 633 151 651 176 680C291 811 454 825 508 825C538 825 614 818 696 781C808 730 893 605 893 592C893 590 931 509 938 455C939 442 940 406 940 376C940 278 922 252 908 214C895 179 862 119 856 119C854 119 854 117 854 115C854 103 713 -64 494 -64ZM463 740C476 740 495 745 495 749C495 753 492 752 488 752C486 752 484 754 484 756C484 762 490 771 507 771C523 771 526 761 526 755C526 747 515 748 515 745C515 742 531 741 542 741C550 741 554 742 554 744C554 749 542 751 540 769C537 789 521 821 515 821C514 821 481 768 481 768C474 755 451 753 451 746C451 744 453 740 463 740ZM517 777C511 777 503 778 503 782C503 786 511 801 513 801C515 801 520 783 520 780C520 778 519 777 517 777ZM745 550C742 550 738 553 738 554C738 561 749 570 749 587C749 603 738 614 721 614C704 614 680 594 680 581C680 573 691 557 697 557C699 557 700 556 700 555C700 554 693 554 683 554C569 554 568 560 568 568C568 586 574 603 574 607C574 612 562 616 489 616C460 616 449 614 447 609C446 606 444 592 443 578L441 553H371C332 553 319 554 319 558C319 559 325 564 325 566L323 567C323 568 327 571 327 575C327 577 317 606 297 606C283 606 257 588 257 572C257 564 263 558 263 556C263 555 262 555 261 555C246 555 223 571 223 571C223 584 302 663 384 698C409 709 482 721 508 721C563 721 646 705 735 631C778 595 781 575 784 575C786 575 787 573 787 571C787 568 782 569 778 569C768 569 755 550 745 550ZM818 566C825 566 846 591 859 591C865 591 866 586 871 586C873 586 875 588 875 591C875 600 867 607 863 611C848 597 847 597 833 590L836 602C838 609 839 617 839 624C839 644 831 649 825 649C823 649 821 647 821 645C821 641 823 640 823 639C823 631 802 609 794 609C792 609 790 610 788 610C785 610 784 609 784 608C784 603 795 589 802 589C804 589 805 590 805 592C805 594 804 596 804 597C804 602 816 617 821 617C822 617 823 615 823 612C823 600 815 579 815 570C815 568 816 566 818 566ZM722 567C704 567 698 572 698 581C698 592 710 601 720 601C729 601 735 595 735 585C735 575 729 567 722 567ZM579 469C567 472 557 473 453 473C439 473 434 474 434 476C434 478 450 484 450 506C450 526 436 527 436 534C436 535 437 535 438 535C438 535 439 534 442 534C457 534 457 544 457 561C457 594 460 600 480 600C490 600 504 599 522 599H554V575C554 538 562 546 562 537C562 530 555 530 555 504C555 491 557 489 567 480ZM291 559C283 559 271 564 271 572C271 581 284 589 294 589C305 589 308 580 308 573C308 568 304 559 291 559ZM783 526C776 526 770 534 770 543C770 550 774 557 781 557C789 557 797 550 797 541C797 532 789 526 783 526ZM220 528C213 528 208 535 208 542C208 549 213 556 221 556C227 556 232 551 232 542C232 530 224 528 220 528ZM496 29C366 29 251 135 251 145C251 146 244 153 236 162C214 188 185 238 185 252C185 257 161 301 161 378C161 442 191 524 196 524C202 524 209 514 219 514C235 514 241 537 251 537C255 537 258 533 262 533C267 533 270 537 273 537C278 537 280 530 280 515C280 511 280 508 279 504L278 478H262C235 479 226 495 213 495C207 495 189 487 189 470C189 445 205 440 215 440C220 440 225 441 230 444C244 453 235 460 247 460C270 460 277 456 277 449C277 442 272 429 271 400V386L254 388C225 391 231 403 214 403C199 403 185 391 185 378C185 373 196 353 211 353C232 353 228 370 248 370C250 370 252 370 255 369L270 367L267 332C266 307 263 291 261 278C259 267 258 259 258 251C258 229 283 158 330 158C344 158 356 165 369 179C395 207 389 248 395 248C399 248 396 256 398 256C399 256 400 255 402 252C409 242 401 229 411 229C419 229 424 244 424 262C424 276 421 292 415 301C393 333 383 347 378 347C376 347 376 344 376 338V326C376 310 372 314 372 310V306C372 303 351 277 351 245C351 234 354 232 356 232C360 232 364 237 364 239C364 245 379 265 383 265C383 265 386 263 386 257C386 253 384 248 381 247C376 245 379 241 379 238C379 234 375 230 375 228C375 226 376 226 376 225C376 222 372 217 372 215L369 205C369 202 362 189 357 185C351 180 342 180 342 179C342 179 333 178 329 178C315 178 304 186 290 205L279 222V274C279 302 281 334 283 347L285 369L302 368C305 368 319 367 319 365C319 362 299 346 299 342C299 339 308 338 327 338C351 338 355 339 355 343C355 349 335 354 335 361C335 367 340 369 369 369C388 369 416 368 456 366L501 365V307C495 307 491 306 487 306C481 306 479 308 469 317C449 334 455 341 446 341C443 341 438 341 438 306C438 297 438 287 439 276L440 253L457 272C473 289 475 290 487 291H501L500 269C500 257 499 228 498 205L496 164L443 109C433 98 423 89 422 89C418 89 400 68 400 64C400 62 402 58 404 57C406 56 490 52 550 52C606 52 608 54 608 61C608 67 604 74 601 74C600 74 599 75 599 76C599 79 544 134 523 151L514 160V207C514 255 517 245 517 262C517 267 516 270 516 276C516 288 518 292 523 292C549 292 564 258 574 258C578 258 580 262 580 282C580 334 576 344 571 344C562 344 557 306 526 306C517 306 515 311 515 325C515 335 516 348 517 355L519 366L592 363C662 361 667 361 667 359C667 356 661 347 657 347C654 347 650 342 650 338C650 334 655 333 677 333C697 333 702 334 702 336C702 342 686 356 686 359C686 360 691 361 699 361H704L723 360C724 357 724 353 724 351C724 335 720 333 720 332C720 331 723 332 723 320C723 225 685 186 673 185C665 184 661 180 658 180C653 180 648 183 646 183C637 183 623 207 623 215C623 217 624 219 624 220C624 223 620 222 620 229V232C620 238 617 237 617 242C617 242 621 259 624 259C633 259 633 229 644 229C646 229 651 231 651 238V243C651 248 656 244 656 256C656 280 642 297 642 306C642 309 639 309 639 318V324C639 338 635 340 632 340C620 340 601 296 599 296C595 296 583 261 583 244C583 239 584 235 588 235C592 235 598 242 610 259L608 234C607 229 607 224 607 220C607 206 616 166 651 166C683 166 709 184 729 238C736 258 737 288 737 313V337C737 352 737 362 740 363C786 376 796 387 797 419L798 441L785 452C771 466 762 470 748 470C738 470 738 471 738 506V509C738 529 740 537 745 537C755 537 774 513 779 513C794 513 804 526 810 526C816 526 846 473 846 369C846 308 825 245 820 245C813 245 793 125 617 50C599 42 527 29 496 29ZM322 473C314 473 315 478 312 478C311 478 309 475 304 475C293 475 293 485 293 503C293 526 297 531 297 533C297 535 313 537 326 537C343 537 337 534 344 534C351 534 361 536 367 536C370 536 372 536 372 535C375 532 379 535 381 535C383 535 384 534 384 532C384 529 381 525 381 525L382 523C382 521 375 515 375 508C375 495 388 483 388 478C388 476 386 475 375 475C357 475 352 477 346 477C339 477 329 473 322 473ZM669 469C638 469 617 470 617 471C617 473 636 491 636 507C636 513 622 531 622 533C622 535 651 536 679 536C699 536 719 536 721 534C724 532 727 506 727 488C727 480 726 472 724 471C721 470 694 469 669 469ZM401 486C397 486 393 494 393 503C393 517 402 525 412 525C428 525 437 507 437 500C437 493 429 486 423 486C421 486 419 487 419 490V496C419 502 418 511 413 511C410 511 406 502 406 497C406 489 404 486 401 486ZM605 480C604 480 602 484 602 490C602 502 599 507 597 507C593 507 590 500 590 491V482C581 488 570 499 570 506C570 517 586 524 598 524C607 524 616 519 616 505C616 491 610 480 605 480ZM215 453C206 453 202 463 202 470C202 478 205 479 212 479C221 479 229 476 229 467C229 460 224 453 215 453ZM658 377C642 377 609 378 564 378C545 378 529 379 529 380C529 385 539 382 539 407V409C539 420 538 435 511 435C491 435 470 424 470 407C470 392 479 385 479 383C479 381 476 381 467 381C456 381 437 382 418 382C399 383 380 384 368 384C361 384 356 383 352 383H350C345 383 337 384 337 397C337 419 357 422 357 424C357 427 346 430 332 430C312 430 301 424 301 420C301 414 319 411 319 396C319 386 316 385 301 385C289 385 286 386 286 388C286 395 291 457 291 457C292 459 314 460 342 460H349L405 459V450C405 443 402 441 399 441C392 441 378 455 374 455L369 419C369 415 372 411 375 411C381 411 388 425 401 425C404 425 406 424 406 421C406 416 389 398 389 395C389 393 418 391 431 391C436 391 437 391 437 392C437 394 419 402 419 414C419 417 420 424 426 424C432 424 436 410 441 410C446 410 450 417 450 428C450 432 448 447 443 447C439 447 435 439 429 439C423 439 419 443 419 449C419 459 423 459 430 459C440 459 465 457 519 457L588 456L589 445C589 441 587 438 583 438C575 438 569 448 563 448C561 448 560 444 560 436C560 419 556 421 556 417C556 415 557 412 561 412C566 412 575 422 582 422C585 422 587 420 587 416C587 408 565 398 565 392C565 387 613 384 613 384C618 384 621 386 621 390C621 394 616 398 610 398C605 398 600 406 600 412C600 416 602 418 605 418C612 418 621 410 626 410C630 410 636 424 636 430C636 434 634 430 634 442C634 444 633 445 631 445C622 445 624 435 614 435C608 435 602 440 602 445C602 454 608 454 635 454H665L726 453V439C726 426 723 386 722 381C722 378 716 377 705 377H688V394C688 409 689 410 697 415C703 419 707 421 707 423C707 427 698 428 680 428C664 428 652 428 652 427C652 421 657 416 662 416C670 416 672 406 672 398C672 388 670 378 670 378C669 377 665 377 658 377ZM736 379 738 455H748C764 455 780 439 780 421C780 405 769 390 736 379ZM508 387C497 387 486 398 486 407C486 415 494 422 503 422C516 422 526 411 526 404C526 398 517 387 508 387ZM213 365C206 365 200 370 200 381C200 386 203 389 209 389C219 389 227 384 227 377C227 370 220 365 213 365ZM824 114C845 114 865 135 865 143C865 144 864 146 861 146L853 145C852 145 851 145 851 146C851 151 818 166 818 174C818 178 823 178 823 183C823 186 822 188 819 188C816 188 813 185 812 180C805 163 798 173 798 147C798 133 800 114 824 114ZM215 161C213 161 212 162 212 164C212 166 212 167 213 167C214 167 219 161 215 161ZM831 122C820 122 809 138 809 151C809 156 810 161 811 161C811 161 840 140 840 129C840 126 836 122 831 122ZM227 151C226 151 218 155 218 157C218 157 219 158 220 158C224 158 227 152 227 151ZM171 138C170 138 170 139 170 142C170 150 173 152 176 152C178 152 180 151 180 149C180 145 171 138 171 138ZM572 68C560 68 560 70 511 70C489 70 468 69 452 69C436 69 432 70 432 70C432 75 498 143 503 143C506 143 513 139 518 133L556 98C572 83 580 72 580 69C580 68 575 68 572 68ZM494 -59C494 -59 536 -57 536 -53C536 -50 533 -46 529 -46C524 -46 523 -44 523 -26C523 5 534 -10 534 1C534 3 532 6 523 6C517 6 506 5 506 2C506 -1 511 -2 511 -9C511 -14 507 -19 503 -19C490 -19 492 8 470 8C456 8 448 -4 448 -10C448 -12 449 -13 451 -13C454 -13 469 -1 471 -1C473 -1 482 -19 482 -23C482 -28 473 -31 473 -43C473 -54 480 -59 494 -59ZM301 -36C298 -35 294 -34 292 -34C291 -34 289 -33 289 -31C289 -29 290 -28 291 -28C293 -28 296 -30 300 -33C306 -37 306 -38 301 -36ZM498 -46C489 -46 486 -45 486 -41C486 -37 489 -34 500 -34C508 -34 510 -34 510 -37C510 -44 505 -46 498 -46Z" fill="#f59e0b" stroke="none"/>
  </g>
</svg>