<svg xmlns="http://www.w3.org/2000/svg" viewBox="-50 -50 1100 1100">
  <g transform="translate(0, 1000) scale(1, -1)">
    <path d="M515 -92C600 -92 606 -77 615 -77H617C620 -77 625 -72 627 -72C627 -72 628 -73 629 -73C630 -73 636 -69 637 -69C638 -69 645 -66 646 -66C647 -66 653 -63 655 -63L686 -55C688 -55 733 -29 755 -15C789 8 806 28 810 28C812 28 874 91 874 94C874 94 924 170 928 192C929 195 942 222 942 226L941 228C941 229 945 234 945 234C945 234 945 236 944 236C942 236 948 241 948 244C948 246 947 247 947 248C947 253 954 250 954 257V261C954 265 957 263 957 267V273C957 274 957 275 959 276C961 277 970 331 970 393C970 470 957 488 957 493V496C957 500 953 501 953 504C953 505 954 505 954 507C954 510 950 514 950 516C952 520 947 522 947 526C947 526 933 563 933 565C933 566 930 572 930 574C930 576 923 585 918 597C905 634 839 716 795 748C741 787 697 810 683 813C680 814 671 822 669 822C668 822 667 822 667 821C666 821 660 824 658 824C657 824 651 827 649 827C647 827 643 831 640 831C638 831 637 830 635 830C633 830 633 834 629 834C627 834 626 833 624 833C619 833 622 837 616 837H610C604 837 606 841 595 841C583 841 583 844 580 844C579 844 578 842 576 842C576 842 575 849 489 849C433 849 445 844 427 844C420 844 420 839 417 839C416 839 415 840 413 840C411 840 411 837 407 837H400C396 837 396 833 392 833C391 833 390 834 388 834C385 834 383 830 381 830C380 830 379 831 378 831C374 831 365 824 361 824C360 824 360 825 359 825C355 825 344 817 342 817H340C331 817 285 800 227 758C200 738 130 668 122 654C120 650 114 641 107 630C91 606 70 572 69 562C69 558 57 538 57 533C57 533 58 532 58 531C58 529 51 520 51 515V512C51 511 51 510 49 509C45 507 45 478 43 477C42 476 41 475 41 474C41 473 42 472 42 470C42 466 38 471 38 456V453C38 442 35 442 35 440C35 438 36 437 36 436C36 433 30 436 30 386C30 219 107 121 136 82C144 73 148 67 148 65C148 60 200 14 226 -3C244 -16 328 -60 328 -60C330 -60 336 -63 338 -63C341 -63 343 -66 346 -66H348C348 -66 378 -77 379 -77C380 -77 382 -76 384 -76C393 -76 399 -83 406 -83C410 -83 412 -81 414 -81C415 -81 416 -82 417 -83C418 -85 459 -92 515 -92ZM521 -81C402 -81 369 -62 366 -62C353 -62 245 -12 203 26C195 33 189 40 183 45C160 66 151 75 149 80C147 84 134 103 122 121C111 136 101 151 101 152C101 152 41 241 41 375C41 685 313 802 324 802C332 802 408 840 494 840C543 840 618 828 650 818C717 797 787 742 787 742C840 705 907 610 907 601C907 597 911 590 916 580C931 550 962 491 962 389C962 303 949 267 938 239C936 231 933 224 931 217C916 169 883 123 876 110C860 84 784 14 739 -15C701 -39 630 -66 574 -78C562 -80 543 -81 521 -81ZM486 -75H507C617 -75 599 -60 625 -60C626 -60 632 -58 634 -58C634 -58 729 -27 791 29L816 52C823 59 844 82 847 82C847 82 903 135 944 274C944 274 957 312 957 393C957 415 954 415 954 421C954 426 957 426 957 431C957 439 952 460 948 477C945 488 942 498 942 502C939 517 921 556 910 581C905 593 901 601 901 602C900 606 887 624 874 641C863 655 853 669 849 676C835 699 763 758 731 771C719 776 716 784 712 784C709 784 688 794 670 803C656 810 643 816 642 816C641 816 639 815 637 815C633 815 633 818 630 818H625C621 818 617 823 605 823C601 823 597 823 594 825C593 826 516 835 478 835C443 835 469 831 441 831C434 831 435 827 431 827C428 827 427 828 424 828C420 828 419 824 416 824C414 824 413 825 412 825C408 825 407 821 404 821C403 821 402 822 401 822C398 822 393 818 391 818C390 818 382 814 370 812C337 805 315 787 310 787C303 787 280 776 258 762C201 726 197 706 192 706C188 706 127 641 127 633C127 631 112 609 109 607C104 603 91 571 82 550C77 539 74 531 73 530C70 526 61 488 59 484C53 469 58 450 52 443C51 442 50 441 50 440C50 438 51 437 51 436C51 428 44 437 44 383C44 335 55 286 58 275C58 275 61 211 132 114C143 98 160 63 224 16C336 -68 439 -75 486 -75ZM508 -66C498 -66 500 -64 480 -63C359 -57 325 -28 300 -16C227 19 173 73 170 82C164 96 148 106 148 109C148 111 81 200 74 259C73 272 71 280 69 288C64 304 60 321 60 388C60 426 61 431 67 455C68 463 70 472 73 485C99 614 200 700 203 700C204 700 209 704 215 710C250 751 316 784 325 784C329 784 335 786 344 790C370 800 420 820 503 820C561 820 614 811 655 796C701 779 812 721 872 627L883 610C886 606 887 603 887 603C887 602 893 588 900 572C938 497 937 453 942 444C943 443 944 425 944 401C944 351 940 275 927 251C927 251 890 161 890 159C890 155 837 85 821 76C817 74 814 71 814 69C814 60 745 5 706 -15C700 -18 693 -22 691 -24C691 -24 593 -66 508 -66ZM523 742C533 742 538 743 538 746C538 748 532 744 532 776C532 795 533 799 537 799C539 799 541 801 541 803C541 806 538 809 527 809H525C515 809 512 808 512 806C512 802 521 797 521 789C521 783 519 781 513 781C505 781 490 783 490 790C490 796 502 806 502 809C502 811 482 813 478 813C470 813 464 812 464 808C464 801 475 806 475 785C475 754 475 753 466 752C460 751 457 749 457 746C457 743 458 743 460 743C463 743 470 745 482 745C489 745 492 745 492 748C492 749 488 758 488 764C488 769 491 772 498 772C504 772 518 771 518 762C518 754 509 748 509 745C509 743 513 742 523 742ZM505 22C573 22 597 32 637 48C646 52 655 56 666 60C682 66 695 79 699 79C707 79 783 143 817 216C846 277 857 299 857 373C857 395 856 413 856 421C856 428 858 427 858 430C858 435 854 445 849 469C828 558 776 608 761 629C753 641 690 688 683 688C681 688 678 691 676 692C669 701 597 735 503 735C456 735 404 727 353 702L320 688C275 667 190 566 190 556C190 554 188 548 184 542C176 529 157 477 157 467C157 452 146 445 144 392C143 355 141 353 141 353C141 352 142 352 150 310C163 240 178 210 221 155C255 111 323 64 323 64C341 49 419 22 505 22ZM779 177C778 177 778 179 778 179C778 184 794 190 794 208C794 218 788 228 788 230V232C789 232 790 231 792 231C797 231 805 234 805 251C805 263 800 267 800 271C800 276 808 277 808 292C808 311 798 313 798 318C798 321 806 319 806 335C806 353 797 359 797 364C797 368 803 368 803 377C803 389 794 396 786 402C792 405 804 408 804 419C804 436 784 451 784 460C784 465 793 461 793 474C793 495 778 498 778 505C778 509 787 507 787 521C787 524 787 526 785 526C785 526 757 545 757 554C757 558 763 557 763 567C763 583 739 592 715 600C702 605 689 609 681 615C665 627 651 630 640 630C611 630 612 616 604 616C603 616 602 614 602 613C602 609 590 604 590 593C590 578 618 557 628 557C633 557 634 561 636 561C637 561 637 560 638 560C644 560 658 576 658 582C658 585 654 607 641 607C636 607 620 604 620 595C620 592 621 591 623 591C627 591 627 594 632 594C636 594 640 591 640 585C640 578 635 574 629 574C619 574 607 582 607 592C607 603 626 615 646 615C676 615 696 575 696 575C694 571 699 571 699 567C699 567 699 565 698 565C698 564 703 558 703 550V543C703 535 705 536 705 533C705 531 701 529 701 526C701 522 705 518 705 516C705 513 701 512 701 510C701 508 702 508 702 506C702 503 698 498 698 495C698 493 699 493 699 492C699 488 692 485 692 481V478C692 473 687 466 687 464C688 464 688 463 688 462C688 454 637 404 613 387C591 372 545 355 525 355H514L516 409C517 440 518 478 518 493V523H529C543 523 553 510 562 499C568 490 574 482 581 482C585 482 586 486 586 498C587 551 592 546 592 550C592 559 581 577 579 577C576 577 565 566 565 562C565 559 550 548 550 545C550 541 537 539 528 539C524 539 521 539 520 540C518 543 515 555 515 566C515 583 533 594 547 603C557 609 565 614 565 619C565 621 563 622 561 623C558 624 488 628 463 628C448 628 448 626 448 622C448 618 450 616 452 616C455 616 467 606 478 597C486 590 494 583 496 583C499 583 500 577 504 554L506 541L485 542C444 544 449 562 445 562C443 562 442 565 442 567C442 568 440 571 439 571C438 571 437 573 437 575C437 578 435 580 431 579C423 578 422 553 422 518C422 493 423 484 428 484C432 484 438 493 447 505L462 525H480C483 526 486 526 489 526C500 526 502 522 502 493V436L501 357C434 366 383 400 365 420C348 440 329 465 328 467C328 467 306 503 306 509V511C306 513 303 518 303 520C303 522 298 529 298 551C298 581 303 567 303 580C303 591 331 625 359 625C366 625 374 622 381 617L392 609L384 603C372 594 378 583 361 583C356 583 353 584 353 588C353 594 355 600 357 600C359 600 361 595 364 595C368 595 372 603 372 609C372 613 368 615 365 615C352 615 332 600 332 589C332 581 339 568 344 568C356 568 347 566 357 566C392 566 390 604 397 604C399 604 400 606 400 608C400 618 383 641 364 641C352 641 342 631 329 631C319 631 325 618 296 615C273 613 242 598 242 585C242 581 249 581 249 578C249 570 217 554 217 530C217 526 219 523 222 523C227 523 228 522 228 520C228 516 222 508 215 500C209 492 202 484 202 479C202 471 209 472 209 467C209 458 188 442 188 422C188 414 192 409 201 409C205 409 208 408 208 407C208 400 186 369 186 354C186 342 199 345 199 340C199 334 183 316 183 301C183 288 194 288 194 275C194 266 190 258 190 254C190 250 198 245 201 245C206 245 210 250 211 250V248C211 245 203 233 203 216C203 211 204 208 204 204C204 203 204 202 203 202C199 202 177 253 177 258C176 270 156 318 156 391C156 447 193 542 221 578C232 593 276 638 296 652C299 655 394 723 496 723C677 723 802 597 837 468C844 442 845 433 845 374C845 299 837 283 816 237L798 199C794 191 782 177 779 177ZM191 571C192 571 192 572 192 574V582C192 594 205 598 205 604C205 606 206 607 208 607C211 607 212 609 212 611C212 621 202 630 195 630C188 630 171 619 160 619C156 619 154 620 154 623C154 629 166 637 174 637C178 637 182 638 182 640C182 642 170 654 168 654C166 654 145 636 145 619C145 610 152 603 158 603C169 603 193 616 196 616C197 616 198 615 198 613C198 595 173 598 173 588C173 581 188 571 191 571ZM831 553C833 553 831 561 831 563C831 574 848 594 848 598C848 600 849 601 850 601C853 601 859 619 859 627C859 632 856 634 852 634C846 634 836 631 825 627C815 624 804 620 797 620C787 620 787 628 781 628C779 628 778 627 778 624C778 619 791 599 794 598C797 598 798 611 807 611C814 611 824 603 824 594C824 588 821 584 817 584C814 584 813 585 812 585C810 585 809 583 809 581C809 572 820 566 820 561C820 558 826 553 831 553ZM832 605C830 605 824 609 824 612C824 616 831 618 836 618C839 618 841 618 841 616C841 614 834 605 832 605ZM320 156C317 156 314 159 314 163C314 169 318 172 318 178C318 180 317 181 316 181C312 181 288 161 281 161C280 161 280 162 280 163C280 167 287 174 287 180C287 182 284 186 281 186C280 186 279 185 278 184C277 182 262 166 252 166C248 166 246 171 246 175C246 180 248 185 248 189C248 191 247 192 246 192C240 192 233 183 230 183C228 183 224 186 224 191C224 198 235 206 235 217C235 221 233 223 230 223C229 223 227 221 227 219C227 215 222 212 218 212C215 212 212 213 212 218C212 231 225 252 225 260C225 263 224 263 222 263C218 263 211 259 208 259C207 259 206 261 206 263C206 279 221 286 221 297C221 299 220 301 217 301C213 301 202 294 197 294C195 294 194 295 194 297C194 315 222 360 222 360C222 362 221 362 219 362C215 362 204 358 201 358C200 358 199 358 199 359C199 364 209 382 218 398C224 409 229 418 229 420C229 423 228 424 225 424C219 424 208 418 202 418C200 418 199 420 199 422C199 434 217 462 230 470C238 475 241 477 241 478C241 480 238 480 235 480C229 480 221 479 216 479C215 479 214 479 214 480C214 485 223 495 232 505C241 515 250 525 250 530C250 532 248 533 244 533C239 533 232 532 229 532C228 532 228 533 228 534C228 539 239 550 249 560C259 569 268 579 268 583C268 585 266 586 263 586C258 586 256 587 256 588C256 595 282 606 299 606H301C301 594 285 601 285 543C285 448 322 454 322 435C322 429 354 391 358 391C361 391 371 384 371 380C371 378 369 375 365 370C351 353 343 341 337 332C329 319 325 313 318 313C314 313 310 314 302 318C284 326 281 330 278 343C276 356 270 359 262 359C249 359 229 347 229 333C229 321 243 312 256 312C262 312 265 314 271 314C288 314 308 295 308 293C308 293 300 271 281 271C275 271 269 269 267 267C254 255 248 254 248 248C248 243 256 222 274 222C286 222 296 231 296 239V245C296 253 300 262 312 275L320 285L331 279C347 271 355 262 355 256C355 254 354 254 354 252C354 246 367 233 373 233C375 233 375 234 378 234C381 234 381 231 384 231C396 236 400 231 410 251C413 256 415 260 415 263C415 270 400 285 390 285C381 285 373 277 368 277C364 277 335 291 335 299C335 303 340 310 350 322C380 360 380 371 388 371C393 371 399 368 402 365C408 359 447 350 473 344C484 341 493 339 495 338C499 337 500 321 500 299C500 276 499 245 499 218V166H419L411 177C404 186 397 189 392 189C384 189 377 183 375 183C372 183 354 157 347 157C345 157 343 158 343 163C343 167 342 169 339 169C334 169 328 156 320 156ZM668 154C658 154 647 162 637 170C627 178 617 186 606 186C598 186 593 181 589 175C585 170 580 164 571 164C564 164 560 168 556 168C551 168 556 163 534 163C513 163 512 166 512 181C512 188 512 197 513 210C514 230 515 258 516 297V335L537 337C564 340 577 343 577 347C577 349 602 356 602 356C608 356 613 348 613 345C613 343 631 323 643 309L657 291L646 281C639 274 634 272 629 272C625 272 621 274 616 274C603 274 583 257 583 246C583 237 594 224 610 224C622 224 634 232 634 242C634 250 661 274 667 274C673 274 688 250 688 245C688 239 680 234 680 228C680 219 694 205 709 205C722 205 734 215 734 234C734 252 726 255 720 255C716 255 714 254 710 254C701 254 686 273 686 278C686 279 690 301 699 301C702 301 704 300 707 300C709 300 736 302 736 326C736 344 724 349 711 349C695 349 689 327 689 321V319C689 313 680 301 673 301C668 301 659 312 649 324C643 332 637 340 631 345C625 350 622 354 622 358C622 361 626 365 636 372C648 382 656 391 663 400C669 407 674 414 682 420C708 441 718 492 718 530C718 570 707 576 707 586C707 588 708 588 709 588C726 588 751 568 751 565C751 563 750 563 747 563C744 563 740 564 736 564C728 564 726 560 726 558C726 555 737 548 748 541C760 533 774 525 774 520C774 518 772 517 768 517C763 517 757 518 756 518C753 518 752 517 752 515C752 510 759 504 766 498C774 490 783 482 783 475C783 472 781 471 777 471C773 471 771 472 769 472C765 472 763 470 763 468C763 459 791 439 791 419C791 416 790 414 788 414C786 414 776 417 769 417C765 417 763 416 763 414C763 407 794 390 794 378C794 375 793 374 788 374C784 374 780 375 777 375C773 375 772 374 772 371C772 366 799 351 799 333C799 331 798 331 796 331C794 331 786 333 782 333C779 333 778 332 778 331C778 326 783 319 788 311C793 304 798 296 798 291C798 288 796 286 790 286C786 286 784 284 784 280C784 273 794 257 794 249C794 245 793 243 788 243H784C778 243 776 240 776 236C776 228 783 214 783 204C783 196 777 195 772 195H767C765 195 764 194 764 192C764 187 771 177 771 174C771 171 764 170 763 170C754 170 743 179 737 179C734 179 733 177 733 173C733 170 734 166 734 165C734 162 732 161 730 161C722 161 715 175 706 175C702 175 701 171 701 168C701 165 702 166 702 163C702 160 699 156 694 156C684 156 677 173 671 173C669 173 668 171 668 167C668 166 669 161 669 157C669 155 668 154 668 154ZM257 323C250 323 241 329 241 335C241 342 252 349 260 349C265 349 268 346 268 339C268 332 264 323 257 323ZM715 310C708 310 704 318 704 326C704 337 713 340 715 340C719 340 728 331 728 324C728 319 720 310 715 310ZM385 245C378 245 372 249 372 255C372 264 383 274 386 274C391 274 387 270 395 270C397 270 402 267 402 260C402 252 394 245 385 245ZM609 235C603 235 597 241 597 248C597 256 607 265 611 265C615 265 623 263 623 253C623 245 618 235 609 235ZM278 232C271 232 263 240 263 247C263 252 271 260 277 260C284 260 286 244 286 242C286 236 284 232 278 232ZM711 217C705 217 697 219 697 230C697 236 701 243 705 243C714 243 710 245 713 245C718 245 728 237 728 232C728 222 719 217 711 217ZM157 118C160 118 163 122 163 124C163 127 159 128 159 131C159 137 186 155 192 155C195 155 195 151 200 151C202 151 205 153 205 157C205 160 204 163 202 163C201 163 199 166 198 170C195 182 182 192 182 197C182 201 174 205 168 205C161 205 160 200 160 197C160 186 182 191 182 176C182 171 178 167 173 167C167 167 171 172 163 172C158 172 151 169 151 163C151 154 163 157 163 151C163 150 157 147 152 147C146 147 141 150 141 158C141 162 143 166 143 171C143 177 141 180 138 180C134 180 126 175 126 167C126 155 148 118 157 118ZM212 187C210 187 207 192 207 195C207 197 208 199 210 199C212 199 214 196 214 193C214 190 213 187 212 187ZM826 109C833 109 844 126 844 129C844 132 841 134 836 135C820 141 811 156 811 167C811 173 813 178 822 178C832 178 854 158 854 149V143C855 143 874 162 874 167C874 168 873 168 872 168C870 168 862 165 862 168C862 173 839 189 827 189C812 189 803 178 803 164C803 140 828 131 828 123C828 119 824 115 824 110C824 109 824 109 826 109ZM516 33C498 33 441 39 431 41L418 44C344 62 302 94 250 144C231 162 225 169 225 171C225 172 226 172 228 172C238 172 229 156 250 156H257C271 156 269 151 280 151C286 151 289 152 295 152C310 152 308 143 314 143C317 143 324 147 331 147C335 147 338 146 342 146C349 146 354 150 358 150C369 150 367 133 389 133C397 133 401 135 406 142L413 151H462C491 151 498 151 498 141C498 134 495 127 495 117C495 109 497 103 497 99C497 95 496 94 492 92C483 89 469 76 469 69C469 63 489 39 503 39C512 39 525 43 525 61C525 76 522 80 519 84C515 88 512 92 512 106V120L513 149L547 150H565C596 150 585 134 604 134C616 134 627 151 635 151C638 151 662 142 672 142C679 142 678 145 686 145C689 145 694 144 698 144C712 144 710 150 722 150C726 150 729 149 733 149C745 149 741 158 752 158C757 158 760 156 760 153C760 143 714 107 714 107C702 87 596 46 590 46C590 46 553 33 516 33ZM387 147C377 147 375 162 375 165C375 169 378 172 391 172C402 172 404 169 404 164C404 156 396 147 387 147ZM609 149C603 149 594 154 594 161C594 166 600 171 605 171C612 171 618 164 618 157C618 152 615 149 609 149ZM502 51C493 51 484 60 484 68C484 71 486 77 494 77C503 77 516 71 516 64C516 59 510 51 502 51ZM506 -56C521 -56 529 -55 529 -49C529 -46 527 -44 523 -44C518 -44 518 -42 518 -22C518 -4 518 -1 523 0C527 1 529 3 529 4C529 7 522 10 511 10C504 10 500 7 500 5C500 4 501 4 502 4C504 4 505 1 505 -3C505 -12 502 -18 498 -18C489 -18 484 12 465 12C454 12 443 3 443 -3C443 -4 444 -5 445 -5C449 -5 454 1 461 1C469 1 476 -7 476 -15C476 -24 465 -23 465 -39C465 -53 477 -56 506 -56ZM492 -44C483 -44 479 -41 479 -37C479 -32 484 -26 490 -26C496 -26 502 -31 502 -39C502 -43 500 -44 492 -44Z" fill="#f59e0b" stroke="none"/>
  </g>
</svg>