<svg xmlns="http://www.w3.org/2000/svg" viewBox="4 -123 992 1005">
  <g transform="translate(0, 759) scale(1, -1)">
    <path d="M477 -93C508 -93 558 -90 558 -90H562C574 -90 575 -87 584 -87H590C599 -87 600 -82 602 -82C603 -82 604 -83 604 -83C615 -83 717 -44 717 -39C717 -38 725 -33 732 -30C759 -18 816 29 831 49C836 56 847 68 859 81C874 97 889 114 889 118C889 118 930 192 932 206C933 213 941 218 941 222C941 223 939 223 939 224C939 227 944 232 944 234C942 234 946 240 946 241V245C946 250 954 252 954 263V265C954 278 960 286 960 291C960 294 959 296 959 298C959 300 959 301 961 302C964 305 966 371 966 411C966 451 963 441 963 454C963 460 959 460 959 464C959 466 960 467 960 469C960 472 956 472 956 478C956 480 957 481 957 482C957 490 944 520 944 522C944 523 940 530 940 531C940 533 937 538 937 540C937 541 932 552 927 564L912 599C902 624 883 649 869 667C864 674 860 679 857 684C839 710 755 778 722 795C695 809 599 852 517 852C474 852 432 846 432 846H430C422 846 421 841 419 841C417 841 417 842 416 842C413 842 412 838 409 838C407 838 406 839 405 839C401 839 400 835 396 835C396 835 395 836 394 836C389 836 370 829 369 829C368 829 362 826 360 826C358 826 353 823 352 823C350 823 338 817 337 817C336 817 331 816 325 812C321 809 314 806 305 801C265 782 184 744 103 619C69 567 51 503 48 499L44 477C45 477 45 476 43 474C37 466 34 432 34 392C34 237 72 184 87 155C115 101 132 88 132 81C132 74 211 5 212 4C225 -9 283 -43 307 -50C313 -52 321 -58 324 -58C326 -58 346 -64 346 -64C346 -62 352 -67 354 -67H356C363 -67 367 -74 373 -74H376C381 -74 386 -80 392 -80H395C398 -80 398 -83 403 -83H409C411 -83 412 -83 413 -85C414 -87 466 -93 477 -93ZM510 -82C499 -82 485 -81 462 -79C454 -78 446 -78 436 -77C384 -73 374 -60 367 -60C354 -60 258 -25 212 18C170 58 145 82 145 85C145 97 42 179 42 377C42 526 111 615 111 618C111 626 169 696 198 725C212 739 265 774 270 774C272 774 275 780 304 793L335 807C372 824 441 843 513 843C604 843 702 797 716 789C779 753 851 688 882 639L897 615C897 615 934 531 934 530C934 530 958 470 958 381C958 334 952 277 929 221L914 185C909 172 897 157 897 155C897 151 874 115 863 101C837 68 768 0 760 0C758 0 756 -1 756 -3C756 -3 723 -26 708 -31C688 -38 688 -45 684 -45C680 -45 667 -54 640 -61C608 -69 629 -71 532 -81C524 -81 518 -82 510 -82ZM509 -73C586 -73 571 -68 586 -68C589 -68 590 -64 594 -64C595 -64 596 -65 598 -65C601 -65 603 -61 605 -61C607 -61 608 -62 609 -62C613 -62 614 -58 617 -58C618 -58 619 -59 620 -59C623 -59 628 -56 630 -56C631 -56 638 -53 639 -53C657 -44 671 -38 684 -32C725 -14 750 -3 816 61C944 186 952 335 952 359C952 399 948 467 944 477C939 489 935 502 930 515C907 583 877 672 759 754C684 806 653 812 628 818C616 820 606 822 593 828C590 830 588 830 586 830C583 830 581 829 580 829C579 829 579 829 578 831C576 833 542 840 520 840C453 840 341 816 276 774C221 739 207 726 185 702C143 657 137 650 125 631C113 610 72 574 51 436C48 416 47 397 47 379C47 326 57 299 57 290C57 287 56 285 56 283C56 282 56 281 58 280C61 278 59 278 62 260C66 233 72 237 72 227C72 213 110 142 133 112L156 82C166 70 181 56 195 44C204 36 213 28 220 21C238 3 320 -42 359 -50C373 -53 374 -56 377 -56C378 -56 379 -55 380 -55C384 -55 389 -62 390 -62C390 -60 392 -61 395 -63C396 -65 422 -73 509 -73ZM472 -59C417 -59 434 -55 418 -55C408 -55 403 -53 403 -50C403 -47 407 -46 407 -42C407 -40 405 -39 405 -34C405 -24 410 2 423 3C428 4 431 7 431 9C431 12 428 14 423 15C398 18 380 32 369 32C362 32 349 14 349 8C349 5 351 4 354 4C363 4 369 18 380 18C385 18 395 12 395 4C395 -1 390 -6 390 -12V-14C390 -18 382 -26 377 -26H374C371 -26 368 -26 368 -31C368 -36 397 -44 397 -47C397 -47 396 -48 395 -48C386 -48 319 -27 288 -9L258 8C223 28 165 85 135 130C113 163 90 205 90 213C90 228 58 241 58 401C58 427 60 435 65 457L70 482C87 567 129 619 129 619C146 650 209 723 217 723C219 723 226 729 235 736C249 748 267 762 274 762C275 762 276 760 276 757C276 746 251 750 251 726C251 714 260 706 274 706C286 706 294 711 303 711C308 711 310 709 310 705C310 693 271 694 271 688C271 683 288 675 291 675C293 675 294 677 295 681C298 689 326 696 326 712C326 719 320 729 305 729C293 729 280 724 272 724C270 724 268 725 268 728C268 735 273 741 280 741C286 741 295 744 295 749C295 756 282 764 282 769C282 769 346 803 389 813L416 819C445 825 475 828 503 828C612 828 705 785 730 766C734 763 817 707 854 653L876 621C881 613 885 606 885 604C885 601 890 592 896 582C920 541 937 458 938 457C939 451 940 427 940 396C940 348 937 284 922 251C922 251 884 151 870 142C866 140 864 136 864 133C864 127 850 117 850 113C850 109 807 64 802 59L781 41C774 35 769 29 768 29C766 29 754 21 742 13C730 5 718 -3 716 -3C706 -3 718 -12 615 -48C613 -48 613 -47 613 -45C613 -33 626 -16 626 -14C626 -13 625 -12 625 -11C625 -8 629 -8 629 -5C629 -4 628 -3 628 -2C628 1 632 2 632 4V7C632 11 643 17 643 25C643 26 643 28 637 28C633 28 610 24 610 20C610 18 617 16 617 7C617 1 613 -9 597 -9C586 -9 584 1 584 7C584 11 585 14 585 16C585 17 584 18 581 18C571 18 554 15 554 11C554 7 566 0 574 -14C582 -27 603 -46 603 -50C603 -56 524 -59 472 -59ZM472 752C481 752 497 753 497 757C497 760 493 762 493 766C493 772 500 776 509 776C518 776 523 774 523 769C523 764 517 763 517 759C517 755 533 752 543 752C549 752 553 753 553 756C553 758 551 761 546 765C541 770 536 782 532 794C527 808 522 822 517 822C512 822 508 814 502 803C495 788 486 770 469 762C463 760 460 758 460 756C460 754 464 752 472 752ZM517 787C511 787 508 789 508 792C508 796 512 801 515 801C516 801 517 800 517 798C517 795 519 791 519 789C519 788 519 787 517 787ZM712 688C722 688 730 717 749 717C755 717 759 715 762 715C766 715 768 718 768 721C768 727 760 732 752 732C744 732 746 729 736 729C731 729 725 714 721 714C720 714 719 717 719 724V730C719 744 709 771 687 771C681 771 675 770 675 767C675 757 685 759 685 753C685 750 683 746 677 738C663 719 652 723 652 718C652 712 672 703 678 703C680 703 681 704 681 705C681 709 677 712 677 717C677 722 694 743 696 743C699 743 702 739 702 734V729C702 729 706 688 712 688ZM495 21C530 21 552 28 558 28C561 28 559 27 562 27C578 27 668 55 718 97L743 118C755 128 801 185 801 190C801 191 805 198 810 205C827 231 841 286 844 288C850 292 854 346 854 392C854 476 828 516 828 516C823 519 784 625 697 681C683 690 670 695 668 695C666 695 604 729 576 729C561 729 573 737 488 737C460 737 438 731 419 725C408 722 398 719 388 718C371 717 301 678 293 667C292 664 287 660 283 658C269 650 189 572 189 549C189 540 185 546 172 508L161 476C159 471 157 463 155 455C152 444 149 432 147 430C145 427 144 417 144 403C144 328 164 265 164 260C164 259 163 258 163 256C163 254 164 250 168 242C206 166 213 166 213 159C213 156 273 99 285 91C285 91 310 67 369 46C369 46 421 21 495 21ZM767 165C765 165 765 169 765 175V197C765 205 764 212 761 212C752 212 745 192 733 192C728 192 724 196 719 196H716C711 196 708 210 708 234C708 256 710 262 719 267C748 285 827 337 827 442C827 456 825 469 822 481L816 504C814 511 812 516 811 516C809 516 808 518 808 521C808 525 780 567 773 567C767 567 749 583 713 583C692 583 674 579 674 563C674 557 676 554 676 554C677 554 677 553 677 551C677 545 672 531 672 523C672 514 677 515 677 512C677 509 673 505 668 505H666C666 505 639 501 617 501C606 501 598 502 595 505C591 509 591 527 591 546V551C591 566 591 578 589 581C587 584 570 585 551 585C533 585 516 584 497 583C475 582 451 581 423 581C400 581 392 582 387 582C382 582 381 579 381 572C381 562 384 544 384 527V523L383 502H350C331 502 314 501 312 500L283 504C282 506 281 513 281 522C281 537 283 557 287 563C292 573 306 585 314 585C323 585 331 575 331 565C331 553 316 535 310 535C309 535 308 536 307 536C303 536 299 531 299 527C299 525 300 522 330 522C350 522 371 524 371 530C371 532 370 534 367 536L354 546C343 554 347 598 314 598C275 598 273 567 273 535C273 505 273 498 256 498C242 498 240 501 240 510C240 539 261 547 261 555C261 560 254 561 246 561C236 561 225 559 217 559C214 559 209 560 209 562C209 570 287 651 312 667C396 721 467 726 512 726C562 726 557 719 577 715L593 712C605 710 637 697 662 685C739 648 814 555 835 466C839 449 842 440 842 376C842 313 839 293 811 238L794 204C784 184 771 165 767 165ZM858 506C869 506 890 515 890 545C890 568 878 598 870 598C867 598 866 596 866 593C866 589 869 583 869 583C869 570 831 556 829 556C824 556 824 564 819 564C817 564 816 563 816 560C816 548 831 506 858 506ZM135 500C150 500 162 517 162 530C162 552 133 567 133 573C132 578 131 580 129 580C124 580 114 565 114 558C114 557 115 556 116 556C118 556 119 557 121 557C125 557 125 553 128 553C129 553 129 554 130 554C134 554 153 532 153 526C153 521 146 518 137 518C112 518 104 531 101 537C93 526 90 519 90 515C90 512 92 511 94 511C95 511 95 512 98 512C106 512 121 500 135 500ZM572 225C534 225 507 238 507 238C507 240 531 261 531 283C531 303 513 308 504 308C488 308 478 293 478 268V261C478 239 475 238 457 238H448C427 238 398 242 389 252C380 262 346 281 346 309C346 322 408 312 408 359C408 379 403 382 379 382C357 382 357 382 347 371C335 359 324 336 322 336C309 336 289 370 289 379C289 381 290 381 290 382C290 385 285 386 285 397C285 482 286 482 286 482V484C286 487 349 488 366 488C387 488 388 485 388 469V467C388 454 387 452 376 445C361 437 354 430 354 423C354 412 371 398 389 398C407 398 412 418 412 428C412 432 410 435 406 439C399 446 397 466 395 532L394 566C411 565 413 563 415 563C420 563 434 564 447 565L476 567C483 567 484 540 484 505C484 433 479 415 471 415C469 415 466 416 461 419C440 429 449 446 434 446C433 446 431 422 431 401C431 383 432 367 436 367C443 367 442 401 466 401C477 401 479 399 479 389C479 361 448 347 448 343C448 338 461 336 476 336C521 336 524 341 524 347C524 351 521 354 516 354C505 354 492 372 492 388C492 401 492 401 503 401C523 401 528 372 541 372C544 372 545 376 545 379C545 388 542 386 542 400L543 434C543 442 541 450 538 450C535 450 516 417 501 417C494 417 492 418 492 423C492 430 496 422 496 459V528C496 550 496 566 499 568C501 568 518 569 534 569C572 569 562 566 571 566C576 566 578 551 578 536C578 518 575 507 575 499C575 487 582 485 608 485C688 485 688 487 688 508V540C688 565 691 568 705 568C728 568 770 556 786 532C799 512 813 478 813 439C813 340 724 282 713 282C711 282 710 290 710 316V359C740 359 741 359 741 365C741 371 736 374 727 374C714 374 711 372 696 372C681 372 671 375 666 375C662 375 660 373 660 368C660 361 665 358 672 358C677 358 680 359 685 359C699 359 694 337 697 327C697 326 698 325 698 323C698 317 694 309 694 304C694 296 700 301 700 289C700 277 693 261 685 261C683 261 676 257 667 252C657 245 645 238 637 236L616 231C601 227 586 225 572 225ZM854 525C846 525 840 533 840 534L878 560C879 560 879 559 879 556C879 535 866 525 854 525ZM490 36C453 36 413 41 386 53L348 70C335 76 323 81 322 81C322 81 245 134 212 189C168 262 180 255 172 276C161 305 155 342 155 377C155 397 157 415 161 432L170 472C176 498 196 546 201 546C201 546 215 544 215 518C215 464 212 445 196 443C191 442 187 442 187 433C187 430 188 430 189 430C192 430 198 431 207 431C221 431 224 428 235 428C251 428 258 436 258 437C258 437 237 459 237 476C237 483 237 485 258 485H274L272 444C271 438 271 432 271 426C271 361 289 346 289 338C289 335 275 330 260 324C243 318 226 312 219 306C209 296 201 278 201 266C201 259 204 246 208 237C208 237 213 214 244 214C282 214 296 254 296 265C296 276 279 297 268 297C252 297 229 290 229 265C229 245 243 240 250 240C260 240 273 252 273 260C273 270 257 271 257 271C259 267 259 264 259 262C259 256 255 255 250 255C244 255 242 259 242 263C242 272 251 283 265 283C274 283 281 276 281 265C281 249 274 231 243 231C225 231 215 242 215 257C215 270 222 285 238 298C251 308 260 318 305 318C320 318 324 314 327 302C336 265 390 232 397 232C398 232 398 233 400 233C408 233 421 220 421 210C421 201 409 199 401 199C390 199 391 221 383 221C380 221 377 216 377 214C377 212 381 211 381 204C381 196 376 184 376 176C376 170 379 168 381 168C386 168 391 183 406 183H408C413 183 419 182 419 166C419 154 413 147 400 147C394 147 384 150 377 150C368 150 364 145 364 141C364 135 375 130 387 110C397 93 411 85 411 79C411 75 420 68 425 68C432 68 485 142 485 143C485 146 469 147 455 148C445 149 436 150 434 151C432 151 431 159 431 167C431 182 432 186 437 186C457 186 459 163 468 163C472 163 474 170 474 180C474 187 471 216 470 216C467 216 459 199 443 199C435 199 434 200 433 211L432 222H451C473 222 483 227 487 227C494 227 493 219 554 210L581 206H584C604 206 654 229 654 229C662 229 691 250 692 250C694 250 696 245 696 234V225C696 214 697 210 697 206C697 200 691 192 686 192C672 192 650 215 644 215C640 215 638 206 638 174C638 163 639 158 643 158C649 158 663 172 663 175C663 178 674 182 683 182C689 182 696 180 696 174C696 173 695 172 695 171C695 167 697 164 697 160C697 147 669 128 669 120C669 115 677 114 693 114C705 114 714 113 714 111C714 109 683 86 677 84C676 84 607 51 601 51C601 51 571 36 490 36ZM391 408C387 408 382 410 376 415L368 423C373 427 380 434 388 434C395 434 399 428 399 421C399 416 397 408 391 408ZM354 327C347 327 341 329 341 332C341 332 350 371 381 371C392 371 398 365 398 356C398 335 362 327 354 327ZM72 277C77 277 102 292 121 292C134 292 129 285 137 285C138 285 139 286 139 290C139 295 137 303 132 315C126 309 121 304 113 304C104 304 104 306 104 316V318C104 325 104 329 120 329C124 329 126 328 126 327C126 325 128 324 129 324C131 324 132 326 132 331C132 336 131 344 128 356C124 350 119 338 86 338C75 338 66 340 66 345C66 350 62 346 62 340C62 330 65 313 68 313C72 313 67 322 82 322C92 322 94 321 94 318C94 301 89 301 87 301H85C80 301 72 304 72 306C72 308 71 309 69 309C67 309 67 307 67 303C67 298 68 277 72 277ZM850 260C857 276 868 280 877 280C892 280 892 273 901 273C917 273 921 306 921 312C921 314 921 315 919 315C917 315 915 313 908 313C874 313 861 331 859 331C855 331 854 314 854 308C854 305 854 303 855 303C858 303 858 307 864 307C869 307 876 303 876 300C876 298 874 297 872 297C869 297 867 295 867 294C867 292 864 291 860 291C851 291 845 286 845 277C845 273 847 267 850 260ZM899 288C893 288 889 290 889 295C889 298 890 302 894 302C897 302 901 300 903 300C905 300 906 297 906 294C906 289 904 288 899 288ZM496 250C490 250 488 266 488 271C488 282 501 289 506 289C509 289 511 288 516 288C518 288 519 284 519 279C519 273 517 262 514 262C507 260 501 250 496 250ZM731 125 722 135C713 145 711 148 711 161V183L723 181C744 177 754 157 754 151C754 148 751 145 743 137ZM422 93C418 93 393 122 393 130C393 133 398 135 425 135C440 135 456 134 456 132C456 123 430 93 422 93ZM770 39C773 39 779 46 785 53C793 62 801 71 805 71C808 72 814 77 814 80C814 82 812 84 807 84C802 84 782 106 778 115C775 123 772 125 770 125C763 125 757 108 751 108C749 108 747 106 747 104C747 101 728 90 728 78C728 71 731 68 735 68C737 68 739 68 740 71C746 89 755 102 762 102C766 102 769 94 769 91C769 89 768 88 765 88C763 88 760 89 759 89C757 89 756 87 756 81C756 73 762 67 766 67C771 67 771 79 776 79C781 79 784 70 784 67C784 60 777 57 771 57C763 57 765 62 761 62C757 62 753 59 753 54C753 48 763 39 770 39ZM213 61V63C213 64 212 66 212 68C212 79 238 97 247 97H251C254 97 255 97 255 98C255 103 235 120 232 120C232 120 231 119 231 118C231 115 233 114 233 111C233 107 228 103 222 103C212 103 207 117 196 117C187 117 181 107 181 96C181 75 213 61 213 61ZM199 82C193 82 192 90 192 94C192 98 193 103 198 103C203 103 211 97 211 92C211 88 205 82 199 82ZM604 -32C603 -32 601 -30 601 -26C601 -22 604 -18 606 -18C607 -18 609 -20 609 -23C609 -28 607 -32 604 -32Z" fill="#f59e0b" stroke="none"/>
  </g>
</svg>