<svg xmlns="http://www.w3.org/2000/svg" viewBox="0 -122 1000 1002">
  <g transform="translate(0, 758) scale(1, -1)">
    <path d="M499 -92C549 -92 578 -84 578 -84C701 -64 736 -21 745 -21C748 -21 812 26 832 44C845 56 883 106 898 131C942 203 970 275 970 397C970 451 961 490 956 505L945 541C910 658 791 762 787 762C787 762 737 799 710 807L674 819C635 834 592 850 508 850C391 850 326 817 294 801C284 795 277 792 273 792C273 792 172 734 121 655C107 634 102 631 102 625C102 622 90 613 73 579C54 538 45 497 39 469C36 453 34 442 31 437C30 434 30 419 30 400C30 363 32 310 35 290C43 239 86 136 107 108C131 76 193 15 195 13C202 6 225 -8 243 -18C256 -26 267 -33 267 -34C267 -41 380 -92 499 -92ZM500 -81C450 -81 360 -64 323 -49C291 -36 274 -25 258 -15C250 -9 242 -4 232 1C206 16 137 83 109 124C98 140 80 177 80 182C80 187 77 194 73 203C62 227 41 271 41 375C41 535 108 614 131 649C155 684 205 734 251 766C275 783 349 816 391 826C425 835 467 840 510 840C530 840 551 839 571 837C625 831 729 791 771 761C806 736 887 653 920 581C930 560 964 468 964 393C964 253 904 162 892 141C852 71 811 43 787 23C715 -35 612 -81 500 -81ZM502 -75C516 -75 527 -74 534 -72L576 -63C613 -57 657 -49 706 -22C740 -4 813 50 830 68C877 121 894 168 904 183C924 215 949 303 950 345C950 378 954 375 954 390C954 401 952 420 945 466C941 493 940 496 938 500C937 504 935 508 931 521C910 597 884 623 884 624C884 629 822 712 770 752C750 767 654 833 494 833C478 833 460 832 442 831C379 825 267 769 267 766C267 765 260 760 252 755C240 748 232 742 224 735C218 730 212 725 204 719C194 712 181 697 171 684C164 676 158 669 154 666C146 659 145 651 120 617C77 559 48 458 48 362C48 269 80 209 80 208C80 191 124 108 136 103C138 102 141 100 141 98C141 89 233 3 243 3C244 3 256 -5 268 -14C321 -54 438 -75 502 -75ZM495 -61C392 -61 345 -34 336 -34C335 -34 335 -35 334 -35C332 -35 331 -31 318 -27C283 -16 241 24 236 24C227 24 144 108 144 114C144 117 132 126 122 146L105 177C103 182 79 230 68 272C63 290 62 318 62 351C62 411 69 482 83 512C100 549 101 561 104 561C106 561 107 562 107 564C107 572 150 643 167 660C177 671 186 682 186 684C186 686 188 688 190 689C198 691 214 717 219 717C224 717 231 730 251 741L276 756C301 771 357 796 362 796C362 796 417 822 500 822C562 822 627 812 639 802C641 800 646 797 649 796C668 792 708 771 710 771C716 771 763 741 775 729C782 723 788 717 790 717C794 717 830 680 830 677C830 675 837 666 846 657C899 599 921 514 924 508C933 492 942 448 942 391C942 185 824 90 824 79C824 76 751 17 732 7L712 -4C669 -28 611 -61 495 -61ZM498 749C519 749 529 766 529 770C529 772 527 773 525 773C516 773 516 766 503 766C494 766 487 770 487 779C487 787 494 803 503 803C515 803 517 783 521 783C525 783 527 793 527 801C527 811 524 818 521 818C517 818 521 815 503 815C492 815 475 806 470 798C468 793 467 782 467 778C467 761 481 749 498 749ZM479 18C508 18 556 25 556 25H560C568 25 578 33 584 33C588 33 598 36 609 40C617 42 626 45 631 46C660 51 737 114 740 114C742 114 743 115 743 117C743 117 813 202 819 219C822 229 823 223 837 264C851 306 853 332 855 349C856 359 856 366 859 371C861 374 861 376 861 378C861 382 858 384 858 386C858 389 862 390 862 393C862 396 857 398 857 411C857 416 858 417 858 421C858 437 851 454 849 466C843 497 831 521 823 537C818 547 815 554 815 558C815 566 797 585 797 588C797 589 794 594 789 599L771 619C766 625 761 631 761 632C761 637 731 662 720 669C720 669 636 720 626 720C623 720 620 721 619 723C615 729 591 728 589 732C588 733 587 734 586 734C584 734 582 733 580 733C573 733 575 737 564 737H558C552 737 558 740 502 740C431 740 441 736 431 736C427 736 425 733 418 733C396 733 306 684 271 655C249 636 231 617 216 594C206 578 199 569 194 562C180 542 179 541 152 465V453C152 439 146 444 146 436C146 433 147 430 147 428C147 425 141 422 141 399C141 388 145 389 145 386C145 384 140 382 140 362C140 343 143 315 146 310C149 306 147 303 147 301C147 295 153 285 158 267C164 247 171 232 177 220C182 211 186 203 188 195C196 163 280 83 329 62L349 53C354 50 418 26 438 26H440C446 26 453 23 455 23C456 23 461 18 479 18ZM195 220C193 220 180 249 175 266L166 297C161 313 159 333 159 358C159 402 167 457 181 499C198 552 221 571 221 573C221 580 259 622 279 638C350 694 405 722 490 722C541 722 610 716 644 693C645 693 728 653 780 583C794 563 815 526 815 519C815 519 845 450 845 390C845 381 844 356 839 356C837 356 831 359 820 359C799 359 807 348 785 348C780 348 776 349 776 352C776 357 781 363 788 371C802 388 825 416 825 462C825 474 806 542 753 542C725 542 715 517 706 496C700 481 695 468 685 468C667 468 665 490 665 512V528C665 542 664 554 657 554C656 554 655 554 654 553C649 551 648 557 646 557C644 557 641 553 638 553C634 553 638 556 601 556C568 556 564 553 561 553H555C541 553 541 531 541 508V473H476C444 473 442 474 442 493C442 501 443 511 443 520C443 536 441 553 426 553C420 553 421 549 414 549C407 549 396 554 390 554C386 554 390 549 347 549C326 549 305 547 299 546L287 543L289 470H244C213 470 199 468 196 465C193 462 191 400 191 340C191 277 193 255 194 241C195 233 195 228 195 220ZM806 593C807 593 809 595 809 596C809 598 806 599 806 602C806 611 828 632 839 632C844 632 846 630 849 630C850 630 852 631 852 632C852 637 830 663 825 663C820 663 822 658 822 654C822 650 818 645 808 635L791 620L782 627C776 631 773 633 771 633V631C771 624 797 593 806 593ZM191 579C193 579 195 581 196 585C197 590 225 606 225 619C225 623 207 639 202 639C194 639 175 620 166 620C163 620 161 622 161 627C161 635 166 636 186 641C184 644 174 657 171 657C169 657 146 634 146 622C146 618 150 603 165 603C183 603 196 620 200 620C202 620 208 615 208 611C208 604 190 597 187 597C182 597 180 595 180 592C180 587 186 579 191 579ZM279 187C256 187 255 199 255 228C255 240 258 252 268 252C274 252 281 265 281 276C281 294 268 303 252 303C235 303 218 291 218 271C218 256 223 254 229 251C234 249 239 247 239 234C240 223 240 215 240 208C240 192 238 189 229 189C228 189 225 190 223 190L211 191L212 217C212 217 208 313 208 382C208 419 209 448 213 450C216 452 233 454 252 454C312 454 309 450 332 430L393 379L386 371C382 366 380 363 373 363C364 363 349 368 342 368C340 368 338 367 338 365C338 359 384 318 389 318C392 318 396 320 396 329C396 335 394 344 394 351C394 361 399 365 403 365C408 365 412 358 412 344C412 335 410 328 410 321C410 317 411 315 413 315C422 315 447 339 450 339C455 339 470 356 470 360C470 362 464 364 446 364C422 364 416 366 416 374C416 381 424 388 430 388C431 388 432 388 433 387C437 384 438 387 439 387C445 387 457 379 464 379C469 379 470 383 470 385C470 389 467 394 462 395C454 397 449 411 446 411C442 411 433 422 420 431L410 438V428C410 414 415 406 415 401C415 395 409 391 406 391C400 391 392 397 377 410L307 472L305 499C305 507 304 514 304 519C304 525 305 527 305 528C307 531 343 533 391 534L427 535L428 506V495C428 483 427 478 424 478C422 478 416 485 414 485C411 485 410 479 410 463C410 451 411 441 413 441C415 441 419 444 422 449L429 457L555 458L575 441L569 424C568 423 553 374 553 372C553 364 563 363 603 363H671C672 368 673 370 673 374C673 383 669 397 651 442L628 508C628 510 627 512 627 513C627 515 618 530 618 535C618 539 622 540 634 540C643 540 650 539 650 539C650 539 652 522 653 500C656 456 657 453 681 453C706 453 715 475 723 495C730 513 738 531 756 531C771 531 804 496 804 484C804 483 803 482 800 482C796 482 795 483 787 483C761 483 738 468 738 445C738 430 762 418 770 418C780 418 797 428 803 428C805 428 806 428 806 426C806 422 802 414 791 398C769 363 761 357 743 357C715 357 688 334 688 320C688 318 688 316 691 312C697 300 698 297 715 297C744 297 753 311 761 322C766 329 770 335 777 335C788 335 788 324 791 304C792 294 793 286 793 279C793 251 771 234 753 234C704 234 725 272 710 279C707 280 698 281 689 281C652 281 652 280 652 268C652 259 653 245 654 231C654 219 655 207 655 200C655 193 654 192 646 192C637 192 623 196 616 196H604V250C604 267 604 262 617 269C623 273 629 274 629 292C629 311 611 316 597 316C574 316 568 297 568 289C568 284 570 280 577 273L587 262V215C587 201 585 192 569 192C560 192 560 193 560 235C560 263 559 274 556 276C554 277 529 279 503 279C485 279 467 278 452 276L454 193L413 192V253L424 265C431 272 434 278 434 284C434 299 419 309 403 309C386 309 371 297 371 283C371 268 394 255 396 255C396 255 397 248 397 235V224L396 193L384 192H379C373 192 370 193 368 197C366 200 366 223 365 243C364 260 364 275 363 276C362 277 352 278 338 278C322 278 303 277 289 275V234C289 196 288 187 279 187ZM576 451C575 451 575 456 575 468C575 478 574 485 573 485C569 485 561 476 558 476C556 476 555 483 555 510V518C555 538 556 540 575 540C586 540 596 538 596 536C596 536 577 451 576 451ZM605 384C588 384 582 385 582 392C582 402 592 424 599 471C603 493 605 502 609 502C614 502 620 482 629 455C635 435 642 411 651 389C652 388 652 388 652 387C652 384 646 384 617 384ZM771 437C763 437 757 442 757 450C757 468 772 468 783 468C795 468 805 464 805 457C805 439 773 437 771 437ZM823 336C815 336 812 339 812 342C812 345 816 348 822 348C828 348 830 346 830 342C830 337 828 336 823 336ZM898 229C900 229 904 233 909 242L917 256L902 270C895 277 887 283 887 285C887 286 894 290 901 294C924 305 926 308 926 326C926 336 925 341 923 341C917 341 915 327 906 327C900 327 872 334 872 338C872 342 867 347 863 347C859 347 856 319 856 312C856 308 857 307 857 307C859 307 865 315 879 315C887 315 895 313 895 310C895 304 857 305 857 291C857 287 860 284 868 282C879 279 893 268 893 264C893 263 893 262 892 262C884 262 854 275 854 278C854 280 852 283 851 283C847 283 843 275 841 259L838 247C841 250 850 259 854 259C863 252 896 248 896 234C896 230 896 229 898 229ZM718 314C714 314 710 316 710 319C710 327 728 340 742 340C747 340 750 339 750 336C750 327 728 314 718 314ZM90 247C95 247 96 262 101 263C115 265 124 272 132 272C140 272 145 263 148 263C149 263 150 264 150 266C150 276 141 301 140 310C139 324 137 329 129 329C120 329 110 327 110 321C110 312 131 313 131 295C131 285 119 282 118 282C117 282 116 283 116 284C116 289 125 292 125 297C125 299 122 300 117 300C107 300 93 297 93 293C93 290 105 285 105 282C105 281 104 278 98 278C90 278 78 283 78 292C78 300 89 306 89 306C91 306 92 308 92 311C92 313 91 317 87 317C83 317 76 309 71 309C69 309 68 307 68 304C68 293 83 247 90 247ZM495 37C423 37 331 59 254 139C237 156 225 170 225 172C225 174 244 174 264 174H301C304 174 304 176 304 188C304 226 299 238 299 251C299 262 305 264 326 264C339 264 351 263 352 261C353 259 353 243 354 225C354 203 354 180 356 178L414 176H469V218C469 241 470 261 470 262C471 263 498 264 527 264H541C545 264 546 250 546 234V207C546 194 546 184 549 181C550 179 579 178 607 178C636 178 665 179 668 181C670 183 671 189 671 206V224L670 265C674 266 680 268 687 268C694 268 702 265 704 250C706 238 723 218 747 218C758 218 812 228 812 284C812 307 807 314 807 321C807 325 809 327 810 327C813 327 812 322 819 322C826 322 836 326 838 326C839 326 839 325 839 324C839 311 822 257 812 234C797 202 782 189 767 169C734 125 653 63 630 63C625 63 577 37 495 37ZM603 278C593 278 587 283 587 288C587 294 593 300 602 300C609 300 611 297 611 292C611 286 607 278 603 278ZM402 274C396 274 393 277 393 282C393 287 398 294 402 294C408 294 416 284 416 281C416 280 410 274 402 274ZM249 261C245 261 234 265 234 271C234 276 243 284 249 284C256 284 262 276 262 274C262 272 255 261 249 261ZM646 -21 664 -15C684 -7 706 -1 706 6C706 7 704 8 701 10C694 12 682 33 682 45C681 59 680 60 676 60C669 60 667 53 642 45C627 40 620 35 620 30C620 26 625 19 630 19C639 19 640 38 657 38C662 38 665 36 665 32C665 30 663 25 661 25C659 25 656 32 652 32C649 32 648 29 648 24C648 20 649 2 655 2C661 2 668 15 673 15C675 15 675 14 675 12C675 6 667 -6 656 -6C649 -6 647 0 643 0C640 0 638 -2 638 -6C638 -12 643 -16 646 -21ZM348 -27C352 -27 354 -25 354 -22C354 -16 345 -17 345 -13C345 -7 362 25 367 25C369 25 374 20 379 20C382 20 384 22 384 25C384 28 379 35 366 37C359 39 348 48 343 48C342 48 341 47 341 46C341 41 345 38 345 33C345 27 332 -6 318 -6H310C306 -6 304 -6 304 -8C304 -13 337 -27 348 -27Z" fill="#f59e0b" stroke="none"/>
  </g>
</svg>