<svg xmlns="http://www.w3.org/2000/svg" viewBox="-2 -118 1004 996">
  <g transform="translate(0, 760) scale(1, -1)">
    <path d="M474 -88C506 -88 558 -85 558 -85H560C610 -85 715 -43 770 -5C870 64 922 176 928 183C938 196 961 271 964 309C966 331 969 328 969 330C969 333 966 336 966 338C966 341 969 340 969 343C969 345 968 347 968 351C968 357 972 357 972 378C972 427 954 539 910 615C848 721 731 813 587 837L557 842C537 845 541 848 517 848C470 848 386 832 386 832C385 832 322 823 247 772C240 768 234 763 228 760C186 732 162 716 100 623C73 582 37 483 37 447V443C37 421 34 437 34 411V386C34 376 34 369 31 369C29 369 28 363 28 358C28 339 34 349 34 327V324C34 296 44 276 44 273C44 266 65 199 70 193C75 187 62 185 113 114C137 81 209 8 239 -12C305 -56 404 -84 437 -84C455 -84 442 -88 474 -88ZM487 -76C431 -76 406 -73 383 -64C383 -64 307 -45 247 -4C222 13 164 68 142 96C120 122 95 160 95 166C95 173 83 184 83 189C83 193 80 200 76 210C64 237 43 287 43 368C43 481 63 548 130 650C147 676 189 721 205 731C214 737 224 743 233 750C278 781 331 818 443 831C485 836 472 837 490 837C584 837 693 808 748 766L779 742C800 726 845 684 868 654C935 566 961 456 961 375C961 342 956 319 951 296L945 267C934 203 873 88 787 23C762 4 763 2 723 -19C635 -65 592 -76 487 -76ZM498 -73C537 -73 575 -70 603 -63C678 -44 737 -3 742 -3C748 -3 954 126 954 383C954 603 781 830 500 830C347 830 262 765 226 738C216 731 210 726 207 726C202 726 170 691 145 660C106 611 67 519 65 512C60 494 48 435 48 371C48 347 49 322 54 300C89 145 159 84 185 57C252 -13 297 -29 343 -44C355 -49 367 -53 380 -58C402 -67 450 -73 498 -73ZM495 -60C472 -60 446 -59 420 -55C420 -55 388 -53 311 -16C229 23 173 86 173 91C173 94 168 89 157 106L133 142C115 169 106 182 106 187C106 189 103 195 103 197C103 199 86 226 79 253L70 286C70 286 60 330 60 355C60 365 62 372 66 372C74 372 120 344 130 333L140 322V342C140 358 139 364 136 364C132 364 131 356 123 356C118 356 113 360 113 363C113 366 115 372 115 383C115 393 116 396 120 396C127 396 131 388 134 388C138 388 140 398 140 407C140 424 136 428 134 428C132 428 130 426 127 422C119 414 70 388 63 388C62 388 62 390 62 395C62 424 77 533 96 550C96 550 153 670 212 711L251 738C288 763 348 795 360 795C367 795 374 800 383 802L416 808C456 815 473 818 485 818H497C489 809 481 796 474 784C465 768 456 753 448 752C443 752 440 750 440 748C440 746 444 744 454 744C472 744 480 746 480 750C480 751 479 753 479 757C479 774 486 774 492 774H494C506 774 514 767 514 760C514 756 509 752 509 749C509 747 514 747 526 747C538 747 544 748 544 751C544 752 542 754 538 756C533 759 501 818 501 818C501 818 502 819 507 819C589 819 675 781 679 781C681 781 688 777 697 772C703 768 710 764 717 761C747 746 770 724 786 709C797 699 804 692 808 692C810 692 812 692 812 689C812 687 817 680 824 673C910 587 942 448 942 379C942 370 942 362 941 357L932 300C922 235 906 205 895 186L880 161C808 40 725 2 668 -25C666 -25 639 -39 636 -39C636 -39 577 -60 495 -60ZM492 786C489 786 488 787 488 789C488 792 491 797 494 802C498 794 499 790 499 789C499 786 494 786 492 786ZM493 23C527 23 552 27 562 27H565C576 27 643 49 655 57L677 69C749 112 789 173 798 182C809 192 857 275 857 383C857 513 788 588 788 595C788 597 789 597 791 597C794 597 792 601 792 604C792 608 797 614 809 627L826 647L834 639C838 636 840 634 842 634C843 634 844 635 844 637C844 645 833 663 824 663C816 663 797 654 791 654C789 654 788 655 788 657C788 661 794 670 794 682C794 696 782 707 774 707C772 707 771 706 771 705C771 701 777 695 777 693C777 692 758 664 745 664L732 665C729 665 729 665 729 663C729 661 731 658 737 651L746 643L760 657C768 665 771 669 773 669C774 669 775 669 775 668C775 664 769 651 769 646C769 642 771 638 773 638C776 638 779 642 782 642C783 642 783 641 784 641C786 641 805 651 811 651C811 651 813 651 813 650C813 648 788 623 778 623C774 623 774 626 770 626C768 626 767 625 767 624C767 618 786 601 786 598C784 598 770 611 753 629C686 700 623 717 589 726C579 729 572 731 567 733C562 735 539 736 513 736C491 736 468 736 454 734C340 718 342 696 329 696C328 696 322 692 316 688C293 669 270 668 188 556C155 511 146 438 146 378C146 284 168 245 188 208C193 200 198 192 202 183C216 154 272 103 280 97C291 88 341 59 344 59C344 60 347 59 352 56C367 48 408 23 493 23ZM565 405C562 405 562 409 549 409H538V424C538 435 538 441 546 441C557 441 564 425 577 425C584 425 596 433 596 443C596 453 588 462 578 462C569 462 565 455 550 455C540 455 537 459 537 462C537 468 554 476 554 489C554 497 547 509 536 509C524 509 509 495 509 487C509 478 521 470 521 462C521 458 521 456 518 456C512 456 504 459 490 459C484 459 480 458 479 456C478 451 473 452 473 457C473 463 448 494 448 497C448 501 456 504 466 504C482 504 496 530 496 543C496 565 476 579 455 579C439 579 417 570 417 535V525C416 525 407 529 397 535C369 552 353 546 345 553C344 553 343 554 343 554C340 554 339 549 320 549C293 549 273 539 264 539C259 539 257 542 257 549C257 560 242 576 232 576C228 576 226 577 226 579C226 584 236 594 244 606C262 636 336 682 386 699C401 704 411 709 412 709C414 709 419 712 423 712L433 711C438 711 450 719 462 719H466C470 719 466 723 505 723C528 723 649 714 736 627C763 600 776 584 776 580C776 580 776 578 775 578C773 578 761 586 738 586C732 586 712 586 701 553L696 536L714 505L731 503H740C762 503 768 531 768 538C768 553 752 557 748 557C737 557 722 542 722 533C722 529 726 526 728 526C733 526 733 545 746 545C750 545 751 540 751 537C751 529 748 520 735 520C722 520 716 525 716 533C716 543 727 568 741 568H748C760 564 757 570 771 558L781 547V486C781 419 784 426 784 419C784 415 781 408 762 408C736 408 753 413 730 413C721 413 708 412 698 412C686 412 686 413 686 424V456C686 477 684 495 673 495C671 495 662 487 654 479C645 470 636 462 634 462C632 462 600 432 592 425L575 411C569 406 567 405 565 405ZM226 619C228 619 229 621 229 625C229 631 257 639 257 656C257 660 253 675 237 675C224 675 208 663 199 663C195 663 193 665 193 672C193 677 198 680 206 680C212 680 212 679 217 679C221 679 223 681 223 685C223 691 215 698 210 698C203 698 201 687 193 687C188 687 178 674 178 662C178 654 183 648 200 648C221 648 232 658 238 658C240 658 241 656 241 651C241 645 230 639 219 639C213 639 211 637 211 634C211 628 220 619 226 619ZM456 513C437 513 433 527 433 539C433 552 442 561 454 561C461 561 479 557 479 541C479 536 478 529 474 522C470 514 468 513 456 513ZM216 517C206 517 198 526 198 535C198 545 207 558 221 558C231 558 241 557 241 536C241 528 227 517 216 517ZM799 216C797 216 796 319 796 412C796 486 797 553 797 553C798 552 805 536 812 520C840 449 832 448 835 445C837 444 837 443 837 443C837 442 836 441 836 439C836 433 841 436 841 423V416C841 406 845 411 845 392C845 374 841 351 841 349C842 348 842 347 842 346C842 335 836 333 836 329C836 327 838 326 838 324C838 321 833 316 833 308C833 284 805 216 799 216ZM316 260C267 260 269 266 266 266C260 266 206 296 193 343C191 350 190 361 190 375C190 407 196 448 205 462C228 497 260 528 296 528C312 528 313 524 313 488V426H293C241 426 248 465 234 465C230 465 229 450 229 414C229 374 229 363 235 363C259 363 228 407 294 407C303 407 311 406 312 404C313 402 316 383 316 371C316 362 309 357 303 351C295 344 286 337 286 324C286 310 300 289 321 289C336 289 358 296 358 320C358 333 352 346 341 352C335 355 333 357 333 370C333 382 334 405 334 405C334 407 344 408 355 408C406 408 403 366 414 366C420 366 421 395 421 415C421 455 417 468 411 468C407 468 402 462 402 456C402 453 403 453 403 452C403 448 399 442 394 437L383 426L333 428L331 462V514L332 531H345C355 531 461 509 461 399C461 346 434 318 434 312C434 310 431 308 430 308V324C430 338 422 345 405 345C388 345 376 332 376 319C376 292 414 294 414 292C414 292 391 260 320 260ZM483 37C446 37 440 42 430 42C422 42 423 47 421 47C419 47 418 46 417 46C414 46 407 49 406 49C402 49 374 62 351 73C334 80 320 87 319 87C317 87 316 88 316 90C316 95 299 97 299 102C299 103 293 107 286 111C260 126 216 182 216 184C216 186 217 188 217 189C217 190 217 191 216 192C208 196 174 276 174 278L166 303C160 321 157 352 157 381C157 450 165 449 165 457C165 464 174 488 174 489C174 491 179 499 182 508L186 520C199 506 200 507 212 501L201 489C181 468 166 425 166 385C166 330 173 334 188 306C196 291 205 287 205 282C205 276 267 246 278 246C282 246 283 245 283 243C283 241 281 238 277 235C263 222 248 188 248 180C248 166 257 136 271 127C303 107 318 104 329 104C414 104 420 169 420 193C420 208 402 233 395 235C389 237 381 246 376 251L387 253C404 256 411 270 416 270C423 270 459 318 472 344C477 354 478 354 492 354C505 354 509 353 509 350C509 347 507 345 506 345C504 345 503 344 503 342C503 335 488 332 488 318C488 300 515 277 521 277C530 277 560 307 560 316C560 321 555 327 549 334C544 340 538 347 538 351C538 353 542 358 548 358C555 358 563 352 576 340C599 318 617 306 619 306C623 306 623 297 630 297C632 297 636 295 637 292C641 286 671 267 677 267C683 267 688 273 688 276C688 279 685 281 685 301C685 318 688 322 688 324C688 327 685 337 685 345C685 356 686 359 714 359C723 359 730 359 731 358C732 356 733 331 734 301C736 258 738 207 740 203C742 199 747 198 764 198C775 198 785 199 786 201C789 205 794 204 794 199C794 197 792 194 791 194C788 194 784 188 776 178C764 162 744 137 715 116L691 99C657 75 600 52 599 52C597 52 591 49 590 49C588 49 575 42 556 42H549C535 42 542 37 483 37ZM530 479C525 479 521 484 521 487C521 491 525 495 531 495C537 495 538 493 538 487C538 482 535 479 530 479ZM667 291C663 291 608 335 588 353L573 367L529 368C483 369 482 371 482 376C482 381 484 390 484 393L513 394H526C538 394 549 394 555 393L569 390L597 412C615 426 629 439 641 449C656 462 666 471 669 471C670 471 672 420 672 373C672 330 671 291 667 291ZM490 438C486 438 484 441 484 443C484 446 487 450 491 450C494 450 496 447 496 443C496 440 494 438 490 438ZM575 436C570 436 569 442 569 443C569 447 572 450 578 450C582 450 583 448 583 445C583 442 579 436 575 436ZM481 408V419C481 428 482 429 490 429C500 429 510 441 516 441C522 441 523 424 523 419C523 410 519 409 502 409ZM655 309C661 309 662 319 662 369V376C662 430 660 441 652 441C652 441 580 388 580 378C580 369 646 309 655 309ZM645 334C644 334 643 335 642 337C637 344 630 344 607 365L595 378L624 403C640 417 644 411 644 417C644 419 645 420 646 420C647 420 649 394 649 370C649 352 648 334 645 334ZM899 336C927 336 934 361 934 382C934 392 933 407 930 407C925 407 910 400 894 400C887 400 879 401 872 405L862 411V384C862 369 864 354 865 351C870 342 886 336 899 336ZM767 260C751 260 749 260 749 301V332C749 371 749 372 715 372H688V382C688 395 690 395 707 395C732 395 782 393 783 392V390C783 382 783 356 782 325L780 260ZM98 369C95 369 90 373 81 381C90 384 95 386 98 386C101 386 101 384 101 378C101 372 100 369 98 369ZM894 354C883 354 875 359 875 370V373C875 380 876 383 908 383C918 383 922 381 922 373C922 362 906 354 894 354ZM249 295C253 295 274 304 274 319C274 333 264 351 248 351C237 351 218 338 218 323C218 296 249 295 249 295ZM521 291C518 291 503 314 503 318C503 321 521 342 523 342C525 342 545 318 545 316C545 312 524 291 521 291ZM247 310C236 310 233 324 233 326C233 332 243 336 244 336C246 336 259 330 259 321C259 315 253 310 247 310ZM318 309C311 309 305 317 305 324C305 329 307 336 321 336C335 336 340 331 340 322C340 315 331 309 318 309ZM403 307C398 307 395 310 395 318C395 326 396 329 400 329C405 329 419 325 419 318C419 313 410 307 403 307ZM329 124C289 124 299 135 288 135C284 135 269 147 269 175C269 238 329 242 337 242C340 242 344 241 354 238C377 233 381 230 393 212C401 199 403 193 403 190C403 185 398 185 398 179C398 176 399 174 399 171C399 165 395 167 395 159C395 152 380 136 368 129C363 126 350 124 329 124ZM752 219V230C752 235 752 242 773 242C782 242 783 235 783 229V227C783 221 782 219 767 219ZM331 141C344 141 350 142 350 145C350 150 341 143 341 180C341 216 351 219 351 222C351 224 347 225 333 225C321 225 316 224 316 221C316 215 324 223 324 185C324 144 315 146 315 143C315 141 319 141 331 141ZM299 144C307 144 311 145 311 148C311 153 303 155 303 174C303 197 314 208 314 213C314 215 312 216 304 216C291 216 288 215 288 211C288 207 291 201 291 192C291 156 284 152 284 150C284 146 289 144 299 144ZM368 147C376 147 380 150 380 152C380 158 370 152 370 167C370 184 381 213 381 214C381 214 378 216 366 216C359 216 353 215 353 214C354 207 359 213 359 186C359 155 354 153 354 151C354 149 358 147 368 147ZM779 52C784 52 803 69 803 75C803 76 802 77 801 77C798 77 796 76 795 76C788 76 768 93 768 108C768 115 777 121 779 121C785 121 807 106 807 95C807 93 806 92 806 90C806 88 807 87 808 87C814 87 835 107 835 113C835 114 834 115 832 115C831 115 830 114 829 114C821 114 808 135 787 135C765 135 755 112 755 108C755 98 762 87 769 78C774 71 778 64 778 60C778 57 777 56 777 54C777 53 778 52 779 52ZM218 53C220 53 221 54 221 56C221 60 217 68 217 68C217 73 232 81 232 86C232 88 245 99 249 99C253 99 258 91 264 91C266 91 268 92 268 94C268 97 266 100 261 103C256 107 249 112 244 117C235 125 227 132 223 132C222 132 221 131 221 129C221 125 229 121 229 116C229 109 206 84 206 84C203 84 194 93 190 93C188 93 188 91 188 88C188 83 211 53 218 53ZM494 -56C509 -56 526 -47 526 -31C526 -16 485 -1 485 4C485 5 486 6 490 6C512 6 521 -13 529 -13C532 -13 535 -8 535 -6C535 -5 534 -4 534 -2C534 2 537 1 537 8C537 13 535 18 533 18C530 18 524 10 520 10C514 10 508 15 492 15C481 15 467 5 467 -2C467 -8 487 -26 499 -30C505 -32 508 -35 508 -38C508 -42 502 -45 494 -45C481 -45 480 -25 472 -25C470 -25 468 -27 468 -31C468 -38 464 -37 464 -46C464 -50 464 -51 466 -51C467 -51 469 -50 472 -50C480 -50 482 -56 494 -56Z" fill="#f59e0b" stroke="none"/>
  </g>
</svg>