<svg xmlns="http://www.w3.org/2000/svg" viewBox="0 -120 1000 998">
  <g transform="translate(0, 758) scale(1, -1)">
    <path d="M529 -90C646 -90 740 -22 746 -22C746 -22 789 8 799 17L830 46C911 123 970 246 970 380C970 494 928 615 820 724C807 737 743 783 738 783C738 783 698 812 654 822L620 831C572 844 532 848 502 848C465 848 443 842 443 842C414 840 240 818 114 651C106 641 91 613 78 589C41 518 30 466 30 361C30 300 33 290 67 195C77 169 124 76 227 -3C243 -16 327 -57 354 -66C377 -73 424 -90 529 -90ZM521 -80C430 -80 325 -54 304 -35C300 -32 294 -29 286 -24C272 -17 253 -7 225 13C197 33 148 82 135 103C119 127 115 123 115 129C115 133 53 224 43 315C41 336 40 356 40 375C40 414 45 452 54 496C71 577 98 592 98 600C98 602 99 604 100 604C101 604 104 611 109 620C122 649 187 719 217 738C225 743 234 750 239 755C271 783 370 818 394 822L425 830C439 833 463 836 490 836C553 836 639 824 696 793C750 763 763 756 769 750C772 747 776 744 778 744C782 744 849 679 858 664C863 657 868 651 869 651C871 651 872 650 872 648C872 638 958 549 958 378C958 318 946 248 910 176C877 109 853 77 797 29C748 -13 644 -80 521 -80ZM516 -74C525 -74 534 -73 543 -72C676 -52 684 -30 697 -30C700 -30 716 -16 737 -5C750 1 824 59 824 63C824 72 951 179 951 384C951 425 946 459 942 471C939 479 936 489 933 499C925 526 916 556 906 578C887 622 825 693 818 698C807 706 800 721 795 721C793 721 791 723 790 725C787 732 738 764 709 778C654 804 605 829 475 829C402 829 312 786 306 786C303 786 297 783 293 779C288 775 282 772 275 768C257 757 230 742 189 705C173 690 121 629 121 627C121 623 47 534 47 378C47 245 119 130 151 96L170 74C191 51 249 7 249 7C253 3 311 -30 313 -30C316 -30 347 -45 350 -45C350 -45 446 -74 516 -74ZM508 -61C499 -61 489 -60 480 -59C386 -50 319 -36 220 45C198 63 133 134 133 140C133 142 132 144 131 144C128 144 123 156 123 161C123 166 171 175 184 175C193 175 194 172 197 172C198 172 199 173 199 174C199 181 187 203 184 203C179 203 184 189 172 189C161 189 153 207 153 209C153 212 158 220 161 220C164 220 167 215 173 215C175 215 176 216 176 217C176 222 161 249 157 249C155 249 151 244 151 240C151 238 120 182 109 182C107 182 106 184 106 189C106 193 60 288 60 362C60 457 70 452 70 472C70 494 81 510 81 517C81 519 87 527 87 531C87 536 122 616 130 616C131 616 134 620 137 624C158 660 235 735 250 735C252 735 253 736 253 738C253 750 396 818 480 818C498 818 604 809 612 802C617 798 618 801 620 801C631 801 714 762 742 744C769 726 842 659 842 652C842 647 854 642 882 596L891 582C891 582 938 484 938 388C938 371 932 265 916 246C914 244 915 242 915 241C915 240 911 235 911 233C911 232 912 232 912 231C912 228 905 213 899 200C894 189 890 179 890 177C890 169 854 122 854 122C852 122 851 121 851 119C851 118 845 109 837 101L808 69C744 0 659 -32 659 -32C659 -32 582 -61 508 -61ZM493 739C516 739 533 744 533 761C533 769 525 769 525 780C525 784 531 789 531 793C531 802 527 813 479 813C472 813 462 812 462 807C462 806 464 805 466 805C473 805 474 798 474 775C474 755 474 753 467 751C462 749 460 747 460 746C460 742 477 739 493 739ZM502 783C496 783 491 783 491 796C491 802 494 804 498 804C505 804 516 798 516 791C516 788 514 783 505 783ZM499 747C496 747 491 748 491 762C491 771 495 775 502 775C509 775 520 770 520 763C520 760 517 748 499 747ZM515 22C572 22 599 36 605 36C610 36 625 42 652 55L675 66C682 69 687 71 687 72C687 73 688 74 690 74C693 74 695 76 695 77C695 79 697 80 700 80C706 80 705 88 715 91C727 94 726 107 734 109C745 112 789 172 798 183C810 196 842 273 842 273V275C842 276 859 280 859 380C859 408 845 474 845 474C845 481 835 503 827 520C821 531 817 540 817 542L810 557L793 584C778 608 736 648 706 667L672 691C619 727 546 736 493 736C423 736 382 716 381 716C380 716 374 713 372 713C369 713 338 693 336 693C331 693 312 681 310 681C308 681 300 675 276 659C220 621 167 515 167 515C167 508 143 467 143 373C143 303 156 293 158 274C159 266 203 179 210 170C213 167 218 161 222 156C237 135 289 90 294 90C301 90 363 22 515 22ZM244 203C230 203 225 218 217 218C214 218 211 215 211 209C211 206 211 204 210 204C196 219 185 253 177 277C172 291 169 302 166 304C165 304 165 306 165 307V317C165 324 159 328 159 350C159 359 160 367 161 375C162 383 163 391 163 399C163 450 180 512 204 549C249 617 303 661 309 661C317 661 334 683 397 702L429 712C448 718 481 722 513 722C609 722 654 685 658 685C659 685 675 673 694 659C786 591 805 540 816 508C820 497 823 488 828 482C831 478 832 475 832 473C832 471 831 471 828 471C822 471 814 472 807 472C795 472 788 469 788 465C788 459 803 457 803 443C803 442 802 440 800 440C799 440 780 457 758 479L720 518V559L708 562C701 564 688 565 676 565C652 565 647 565 647 552C647 546 646 541 646 540C641 535 649 524 631 524C621 524 618 529 617 547L616 564L590 565H575C574 565 573 566 571 566C566 566 558 563 558 536C558 525 558 524 552 524H550C540 524 537 526 537 535C537 542 539 545 539 551C539 563 533 566 503 566H492C475 566 474 564 474 541V520C457 522 458 520 457 543L456 565L435 566H426C397 566 397 561 396 542V524L384 523C377 522 370 522 370 522C369 523 368 532 367 542C367 552 366 561 365 563C364 563 358 564 351 564C331 564 299 561 296 559C293 557 292 548 292 532C292 510 291 509 274 483C250 445 234 434 234 430C234 429 233 428 231 428C229 428 229 429 229 430C229 437 242 452 242 456C242 460 226 460 214 460C194 460 187 459 187 455C187 445 198 451 198 422C198 374 197 372 189 368C185 366 181 362 181 360C181 357 187 356 212 356C234 356 244 357 244 361C244 364 229 378 229 382C229 383 230 383 231 383C234 383 243 376 255 366C262 361 270 354 279 347C291 338 291 322 292 308C292 300 292 292 295 287C297 284 345 280 375 280C404 280 405 282 405 300V302C405 324 408 325 434 325H444L476 324L475 309C474 285 465 270 443 251C428 237 406 219 372 219C360 219 349 221 340 226C336 228 278 266 278 286C278 293 282 293 282 305C282 318 276 332 256 332C238 332 220 320 220 310C220 300 227 284 230 284C233 284 234 282 234 281C234 279 238 277 241 277C245 276 252 279 252 214V212C252 207 251 203 244 203ZM831 535C836 535 848 546 848 550C848 552 845 553 840 553C820 553 821 566 815 581C821 583 826 588 828 588C829 588 830 588 830 586C830 583 828 579 828 575C828 569 830 566 833 566C836 566 839 571 845 571C850 571 859 579 859 583C859 584 859 585 858 585C857 585 855 584 853 584C845 584 840 592 840 594C840 596 848 603 854 603C861 603 867 595 867 584C867 575 863 568 863 563C863 561 864 560 865 560C868 560 882 571 882 578C882 590 853 628 847 628C846 628 845 626 845 623C845 621 843 619 841 619C838 619 836 617 836 615C836 610 811 594 807 594C803 594 798 596 795 596C793 596 792 595 792 594C792 592 802 578 810 566C823 547 825 535 831 535ZM158 525C161 525 165 530 178 549L195 572C200 580 205 587 205 588C205 591 189 607 187 607C183 607 183 604 183 600V585C183 577 178 579 178 571C178 568 177 565 173 565C169 565 135 578 134 595C133 600 132 604 131 604C125 604 107 575 107 568C107 567 109 566 110 566C112 566 113 569 119 569C129 569 154 553 154 542C154 538 151 535 151 532C151 527 157 525 158 525ZM471 147C461 147 451 148 446 150C438 152 438 152 438 183V214L458 234C469 246 477 256 477 257C477 257 493 280 493 287C493 288 492 288 492 289C492 293 500 313 500 330C500 341 491 344 439 344H391C388 330 388 321 388 315C387 300 387 300 363 300H348L314 301L312 317C311 326 310 336 308 340C305 347 270 380 266 380C264 380 243 393 243 406C243 410 244 413 248 417C255 424 302 484 303 488C307 498 313 488 313 514C313 522 312 526 312 532C312 544 315 547 328 547H338L350 546L351 529C352 521 354 512 354 509C357 507 366 505 376 505C410 505 411 515 411 529V532C411 538 413 550 431 550C440 550 444 544 444 533C444 528 443 524 443 519C443 510 446 502 459 502C464 502 470 503 478 506L489 509L487 526V535C487 539 487 541 489 541C490 541 492 543 492 546C492 549 494 550 500 550H506L521 549L523 507L545 505H556C573 505 576 510 576 528C576 545 579 550 591 550C603 550 605 545 605 526V508H627C656 508 656 516 659 531L661 546L697 548L699 526C700 510 702 504 706 502C713 497 791 420 791 417C791 415 751 374 748 374C746 374 724 353 721 353C715 353 710 340 710 328V319C710 307 707 305 687 305C649 305 649 307 648 323C647 329 647 337 644 348L595 347C564 346 545 344 543 342C543 342 541 336 541 327C541 310 546 281 571 250L586 232V193C586 172 584 153 582 151C581 151 570 150 557 150C553 150 549 150 546 151H512V167C512 183 513 184 519 184C531 184 549 159 556 159C561 159 562 183 562 198V200C562 212 562 215 558 215C553 215 537 200 519 200C516 200 513 201 513 204C513 211 537 223 537 231C537 235 527 239 498 239C481 239 473 237 473 231C473 222 496 215 496 206C496 204 495 200 489 200C479 200 459 213 454 213C452 213 450 210 450 196C450 190 452 162 456 162C460 162 471 186 482 186C484 186 489 188 489 185C489 185 493 169 493 159V153C493 149 492 147 471 147ZM514 419C524 419 529 426 529 440C529 454 519 462 509 462C497 462 489 451 489 441C489 429 499 419 514 419ZM842 378C842 378 830 379 830 396C830 405 827 421 827 440C827 448 828 454 832 454C836 454 843 409 843 387C843 383 843 380 842 378ZM771 207C767 207 764 211 764 230C764 238 765 248 765 256C765 270 763 268 763 271C763 276 768 284 772 284C774 284 776 285 776 287C776 289 778 290 780 290C785 290 794 306 794 313C794 316 788 341 763 341C747 341 733 329 733 313C733 296 740 299 740 289C740 264 695 222 676 222C676 222 629 223 599 251C583 266 564 303 564 319C564 326 569 328 587 328H603L628 327V309C628 299 629 290 631 289C633 288 653 287 678 287H689C724 287 726 288 726 308V333L745 350C755 358 765 367 774 376C787 388 797 397 801 397C802 397 802 397 802 395C802 385 788 377 788 369C788 365 792 364 815 364H843L841 346C836 311 806 213 798 213C797 213 799 224 791 224C788 224 785 223 785 222C785 220 778 207 771 207ZM760 298C753 298 750 305 750 312C750 319 754 328 762 328C767 328 776 325 776 316C776 307 767 298 760 298ZM249 290C240 290 232 303 232 306C232 308 240 318 251 318C258 318 265 317 265 309C265 299 257 290 249 290ZM522 35C444 35 424 48 396 56C327 74 299 107 272 128L251 145L270 146C286 147 290 150 290 153C290 163 265 166 265 186C265 188 266 189 269 189C280 189 291 171 295 171C297 171 304 175 304 196C304 208 302 215 297 215C290 215 287 203 275 203C267 203 265 209 265 239V262L300 227C307 220 319 213 331 208L350 201L349 172C348 136 346 125 341 125C336 125 332 118 332 109C332 98 340 84 362 84C380 84 388 94 388 105C388 132 369 103 369 173C369 192 373 197 385 199C399 201 408 206 413 206C420 206 420 198 421 169L422 131L455 130C490 129 495 133 495 110C495 103 493 97 492 97C487 97 467 119 462 119C460 119 459 103 459 88C459 69 460 65 462 65C467 65 477 84 489 84C494 84 498 82 498 80C498 65 472 54 472 50C472 45 491 42 509 42C524 42 540 44 540 49C540 57 514 68 514 80C514 82 516 84 518 84C527 84 544 63 549 63C551 63 552 75 552 88C552 109 550 115 547 115C542 115 535 99 521 99C514 99 513 99 513 111C513 127 515 129 543 129C549 129 554 128 561 128C593 128 600 129 604 134C607 138 607 159 607 178C608 197 608 215 611 215C614 215 622 213 630 211C647 205 649 209 649 160C649 130 636 137 636 123C636 122 645 96 660 96C666 96 673 98 680 102C688 107 689 109 689 121C689 135 684 139 678 142C673 145 667 149 667 164C667 175 672 187 672 193C672 202 673 203 684 205C700 208 702 215 707 215C712 215 743 245 746 252C748 258 749 257 749 250C749 242 751 229 751 219C751 212 750 206 746 206C739 206 729 221 724 221C721 221 720 216 720 204C720 184 714 182 714 179C714 177 720 171 722 171C728 171 740 191 746 191C748 191 749 189 749 184C749 173 729 161 729 155C729 153 733 152 740 152C747 152 752 151 752 151C752 148 723 119 701 101C680 83 625 56 602 52C587 49 589 46 586 46C585 46 583 47 581 47C577 47 577 43 574 43L570 44C565 44 566 40 558 40H555C544 40 552 35 522 35ZM858 141C863 141 882 169 882 176C882 177 882 178 881 178C878 178 873 174 872 174C867 174 842 198 842 208V211C842 214 836 221 833 221C830 221 833 220 804 185C796 175 791 167 791 161C791 153 801 145 806 145C813 145 808 186 822 186C827 186 844 167 852 164C854 162 856 158 856 154C856 152 853 148 853 144C853 142 854 141 858 141ZM136 176C132 176 131 177 131 179C131 184 142 195 145 195C147 195 148 193 148 189C148 182 143 176 136 176ZM772 178C770 178 768 180 768 185C768 191 770 193 772 193C775 193 780 190 780 186C780 182 775 178 772 178ZM236 167C231 167 227 174 227 178C227 184 234 188 240 188C245 188 249 186 249 183C249 178 243 167 236 167ZM663 109C657 109 652 113 652 120C652 126 656 134 663 134C668 134 674 130 674 123C674 116 669 109 663 109ZM360 96C352 96 346 104 346 109C346 113 352 117 357 117C366 117 372 110 372 106C372 100 366 96 360 96ZM510 -48C526 -48 531 -47 531 -44C531 -41 527 -39 524 -38C518 -37 517 -34 517 -10C517 7 520 12 529 12C533 12 537 13 537 15C537 17 525 18 509 18C487 18 481 18 481 15C481 12 485 9 489 9C495 9 499 2 499 -25C499 -47 487 -37 487 -44C487 -46 495 -48 510 -48Z" fill="#f59e0b" stroke="none"/>
  </g>
</svg>