<svg xmlns="http://www.w3.org/2000/svg" viewBox="-50 -50 1100 1100">
  <g transform="translate(0, 1000) scale(1, -1)">
    <path d="M510 -90C537 -90 546 -88 556 -86C563 -85 570 -83 585 -82C618 -80 670 -63 726 -33C781 -4 797 6 831 41C877 89 923 158 940 208C958 261 961 277 967 328C969 346 972 367 972 391C972 420 964 453 957 484C952 503 948 520 946 536C943 553 920 602 897 639C872 679 832 724 804 746C799 750 793 755 787 759C780 765 773 770 770 773C755 786 744 792 727 800L706 809C678 821 671 823 635 832C622 835 613 838 606 840C582 847 577 849 517 849C484 849 450 847 437 845C422 842 415 842 410 842C395 842 327 821 293 803C234 772 220 762 190 736C181 728 170 720 166 717C136 693 80 606 61 556C58 548 55 541 54 541C51 541 43 514 36 481C31 460 28 406 28 353C28 342 31 316 36 293C51 224 73 160 119 99C138 72 193 19 214 6C222 1 227 -4 227 -6C227 -8 236 -16 247 -22C286 -45 339 -66 375 -74C385 -76 398 -80 405 -83C415 -87 469 -90 510 -90ZM481 -81C429 -81 420 -78 403 -73C395 -70 386 -67 372 -64C328 -54 258 -20 228 6C201 29 135 96 119 117C101 140 91 163 70 215C50 266 38 313 38 376C38 441 48 503 71 552L97 608C114 643 118 647 133 664C137 669 143 675 151 684C171 708 204 736 221 747C224 749 227 752 228 754C231 759 241 758 246 763C274 788 375 829 425 833L449 836C465 838 480 840 501 840C538 840 579 835 601 829L647 817C684 807 731 786 752 771C781 751 810 727 821 714L882 642C892 630 925 566 931 547L948 476C955 447 959 416 959 385C959 369 958 353 956 337L951 300C947 268 942 254 935 235L925 207C902 138 825 40 771 7C699 -38 695 -39 631 -61C589 -75 553 -81 481 -81ZM485 -77C515 -77 526 -76 586 -68C610 -65 664 -48 673 -40C675 -38 682 -36 687 -35C693 -34 706 -27 718 -19C730 -11 746 -1 756 5C790 24 816 47 844 84L878 130C916 178 955 300 955 384C955 423 950 460 939 502C935 518 930 534 929 539C924 571 878 645 834 693C776 756 727 789 664 807L617 821C583 831 564 836 523 836C500 836 474 833 451 831C438 829 425 828 414 827C403 827 346 811 329 802L293 784C278 776 262 767 257 763C251 759 246 755 240 752C230 746 220 741 212 732C206 726 199 721 197 721C189 721 136 661 136 653C136 652 133 648 129 644C119 633 87 577 82 560C80 552 76 544 74 542C59 528 43 445 43 382C43 311 55 248 82 197C86 189 90 177 93 170C99 154 120 122 137 102C164 71 229 10 251 -5C286 -29 348 -55 391 -64C397 -65 403 -67 405 -68C411 -73 454 -77 485 -77ZM486 -61C467 -61 411 -59 405 -53C400 -49 375 -47 375 -45C375 -44 380 -38 385 -30C395 -15 421 8 430 11C440 14 436 19 419 25C411 27 406 29 404 29C402 29 401 28 401 27C401 26 402 24 404 22C410 15 406 9 398 9H394C387 10 377 12 372 16C368 19 369 23 369 25C369 27 371 27 374 27C383 27 379 31 364 40C356 45 352 47 347 47C345 47 343 46 340 45L345 39C354 28 361 -22 361 -36C361 -38 360 -40 360 -40C358 -40 349 -36 339 -32C277 -6 241 19 182 78C129 131 116 149 101 191C95 208 89 222 88 224C82 232 66 289 60 324C58 337 56 362 56 387C56 406 57 424 59 437C65 480 83 541 89 541C90 541 91 542 91 545C91 551 114 598 127 618C149 653 207 721 216 721C220 721 231 733 234 732C235 732 243 737 252 743C278 763 331 790 364 800C418 817 468 822 508 822C559 822 593 813 593 812C593 810 596 810 600 810C614 810 674 790 702 776C752 751 787 728 804 706C810 698 818 688 827 678C841 662 855 645 865 630C883 604 912 546 913 536C913 532 918 517 922 502C928 482 935 460 935 454C935 453 934 452 934 452C933 452 930 456 925 465C917 479 903 488 889 488C875 488 863 479 858 461C856 454 854 451 852 451C850 451 848 457 848 462C848 472 829 525 827 533C821 559 791 594 775 616C763 635 695 688 660 706C655 709 634 717 612 725L572 737L518 738C485 738 457 736 447 734C438 732 424 729 415 728C385 724 344 708 307 685C291 675 241 633 237 625C235 621 231 617 229 617C224 617 197 580 185 556C180 546 175 541 173 537C172 535 171 536 170 534C168 527 159 516 159 509C159 505 156 490 152 476C144 448 140 408 140 371C140 348 142 327 145 311C154 271 173 225 194 194C200 185 205 177 205 176C205 174 245 124 255 115C263 108 311 73 333 61C354 50 417 30 442 25C455 22 470 21 488 21C583 21 657 47 712 90C736 108 777 149 784 161C787 167 791 172 792 172C800 172 832 235 842 271L850 301C853 310 853 315 853 318V323C853 330 855 337 856 346C858 355 860 364 860 373C860 381 858 394 856 406C855 418 853 430 853 437C853 440 853 441 854 441C856 441 856 432 862 425C868 418 881 412 890 412C896 412 891 416 880 427C871 435 870 442 870 449C870 462 873 468 890 474H903C907 470 915 463 915 457C915 450 895 445 895 439C895 436 896 434 905 434C909 434 914 435 922 435H939L940 404V391C940 336 928 269 909 217C898 187 885 162 880 162C878 162 875 185 860 202C851 213 848 216 848 222V226C849 230 847 235 844 235C843 235 842 234 841 232C838 228 827 211 827 206C827 198 835 207 839 208C841 209 843 206 844 206L846 197C848 189 840 172 829 172C824 172 821 173 821 176C821 180 817 184 815 184C809 184 792 158 792 157C792 148 803 155 808 157C818 157 857 146 860 146C866 146 871 144 871 143C871 131 787 38 769 30C767 29 754 21 739 11C704 -12 668 -33 647 -39C625 -46 596 -52 588 -52C584 -52 572 -53 561 -55C537 -59 512 -61 486 -61ZM465 740C478 740 509 746 519 751C531 757 542 772 542 788V793C542 793 539 803 535 807C531 811 526 813 526 813L504 816C497 817 492 815 488 815C479 815 477 813 466 811C460 810 457 807 457 804C457 802 460 800 465 800H473V752H465C460 752 457 749 457 746C457 743 460 740 465 740ZM490 755V777C491 798 492 804 499 804C503 804 516 800 516 799C520 794 524 783 524 778C524 765 504 755 495 755ZM765 648C770 648 783 659 783 662C783 666 779 667 774 667H762C758 668 751 671 746 675L737 683L741 689C744 693 747 695 749 695C753 695 755 692 756 686C757 680 759 677 762 677C768 677 777 687 777 693C777 703 761 698 761 708C761 709 762 710 762 711C764 715 765 718 768 718C770 718 772 716 775 713C782 706 790 706 790 691C790 683 791 680 794 680C797 680 806 687 808 692L807 694L802 702C794 713 762 739 757 739C755 739 754 737 754 733C754 725 725 696 718 696C710 696 712 688 722 682C727 679 738 670 747 662C758 652 761 648 765 648ZM498 396C496 396 478 411 460 428L442 445C421 465 417 469 385 503L315 575C317 584 321 602 321 606C321 620 296 631 283 631C277 631 266 627 262 627H260C260 629 269 636 285 649C323 679 381 709 412 714L447 720C461 722 482 723 505 723C535 723 564 721 576 718C586 715 594 712 602 709C609 706 617 703 626 700C644 695 677 676 710 655C722 647 727 644 727 642C727 641 724 641 718 641C707 641 691 629 683 620C683 620 678 612 678 602V598C680 586 684 579 684 579L637 534C584 484 518 418 508 405C504 400 500 396 498 396ZM220 626C221 626 228 630 234 635L245 644C239 648 231 651 231 660C231 665 234 670 239 674C244 677 248 679 252 679C257 679 260 676 261 670C262 665 262 661 263 661C267 661 290 680 290 683C290 685 286 686 282 686C273 686 235 703 232 708C231 711 227 712 222 712C215 712 206 708 206 702C206 698 208 690 213 677C218 660 220 649 220 641C220 634 219 630 219 628C219 627 219 626 220 626ZM224 686C222 690 221 692 221 694C221 695 221 695 222 695C223 695 225 694 227 693C231 691 234 688 234 686C234 680 227 680 224 686ZM517 471 536 479C556 488 571 503 579 517C581 521 582 524 582 527C582 529 581 531 578 531C576 531 573 530 570 527C561 519 551 515 541 515C517 515 490 538 490 570C490 597 510 623 536 623C549 623 561 617 569 607L577 596C581 600 586 603 586 610C586 625 565 648 541 656C532 659 518 660 505 660C491 660 476 659 466 655C444 648 419 620 414 598C412 587 410 578 410 567C410 526 421 508 449 486L464 473ZM497 485C472 485 463 492 446 516L432 535V558C432 598 453 626 476 638C484 642 497 645 511 645C520 645 530 643 536 641C543 639 546 636 546 635C546 633 542 632 534 632C506 632 490 623 477 596C473 587 471 582 471 575C471 534 486 510 530 504L550 502L538 494C527 488 516 485 497 485ZM720 581 709 583C704 588 704 598 704 603C704 613 714 624 724 624C731 624 738 620 745 617C745 617 748 611 748 603V600C747 588 744 587 744 587ZM237 158C232 162 228 166 226 172C225 175 216 191 206 207C184 242 172 272 162 310L155 338L160 447L168 475C179 513 189 533 192 537C198 550 224 596 236 605C240 608 242 613 243 616C244 618 247 622 247 618C249 600 240 606 240 590C240 579 247 565 257 560C260 559 263 559 268 559C272 559 278 559 284 560L303 563L362 503L385 479C407 457 423 441 423 439C423 437 422 436 420 436C418 436 415 434 414 431C410 420 393 400 386 395C381 392 368 387 348 386L317 385L315 399C310 439 277 470 233 470C218 470 204 466 193 457C183 450 173 434 173 426C173 420 182 421 191 428C196 432 204 433 213 433H227C237 419 246 402 246 384C246 357 230 332 201 332C191 332 173 336 170 336C166 336 164 335 164 332C164 325 184 306 195 301C208 296 221 293 233 293C265 293 292 312 311 349L318 370H350C388 369 401 362 407 347C413 330 416 328 422 328H428L427 341C427 352 430 351 430 358C430 365 427 383 427 400C427 409 429 430 434 430C437 430 483 384 483 381C483 379 433 331 408 308C405 306 396 296 385 284C374 273 362 259 349 246L297 194L287 197C285 198 282 198 280 198C260 198 237 176 237 165ZM275 573C265 573 255 581 255 590C255 596 258 602 264 608C270 614 274 617 279 617C282 617 286 615 290 611C295 606 296 601 296 596C296 584 287 573 275 573ZM760 161 758 171C755 186 737 199 721 199C716 199 705 194 702 194C698 194 611 276 550 339L508 382L699 570L713 566C717 565 722 564 726 564C746 564 763 577 763 593C763 604 767 603 778 586C805 543 803 547 824 490C836 456 842 426 842 391C842 341 829 274 814 242L801 215C790 191 781 176 770 168ZM680 276H700C735 276 739 279 739 289C739 293 736 295 731 295C722 295 718 304 712 304C710 304 704 311 698 318L687 330L691 376L724 380L741 371C759 362 769 351 773 336C774 330 777 328 781 328L789 331L790 351C790 364 795 377 796 379C797 381 797 385 795 389C793 392 792 406 792 419C792 440 789 450 783 450C779 450 775 445 770 435C756 406 742 397 714 395L693 394C690 399 688 402 688 407C688 410 689 414 690 420C695 438 705 451 717 457C723 460 726 466 726 470C726 473 725 475 722 475C718 475 703 476 688 476H678C656 476 631 475 631 465C631 461 635 458 639 457C643 456 652 447 660 438L675 423L674 409C673 395 674 392 667 392C663 392 658 393 649 393H626L613 404C606 410 597 421 594 428C590 436 585 440 581 440C579 440 577 438 577 434C577 422 576 397 576 374C576 362 575 352 575 345C575 333 577 327 584 327C588 327 590 329 591 337C595 359 622 377 653 377C670 377 675 376 675 367C675 363 674 358 673 350L671 330L658 312C651 302 642 294 637 292C631 290 629 288 629 284C629 282 629 280 630 277ZM130 404C130 405 133 404 134 406C136 415 138 437 138 446C138 449 137 452 136 452C135 452 131 447 128 443C124 439 121 438 117 438C112 438 106 440 97 441L81 443C80 447 76 458 73 458C66 458 65 411 65 411C70 403 76 422 79 429L98 426C127 423 123 421 130 404ZM225 309C213 309 196 315 194 317C192 319 194 320 200 320C227 320 240 333 253 351L263 366V383C263 403 252 427 239 434C235 436 231 438 230 440C228 443 206 442 206 447C206 450 221 457 228 457C235 457 242 454 255 447C279 435 293 416 295 391L297 375L290 355C284 340 271 326 260 320L248 313L238 310L227 309ZM496 38C458 38 416 43 407 50C404 52 395 56 386 58C377 60 361 66 349 72C325 83 271 118 271 122C271 123 277 124 284 124C294 124 299 126 308 134L319 144L318 155C316 166 315 176 313 186L354 229C429 306 493 367 496 367C498 367 509 357 522 344L567 300C580 288 590 277 590 276C590 275 610 255 636 231C670 199 681 184 681 179C681 168 674 170 674 157C674 132 690 119 712 119C715 119 718 120 721 120C722 120 723 119 723 119C723 114 681 87 655 74C605 50 591 46 526 39C517 38 507 38 496 38ZM511 93C571 93 609 140 609 193V212L596 237C576 276 557 289 512 289C480 289 458 276 438 253C428 242 423 235 423 230C423 227 431 220 436 220C438 220 439 221 439 224C439 232 453 239 470 239C500 239 534 215 534 190C534 181 521 156 511 147C507 143 496 141 484 141C472 141 458 143 446 147L430 152C428 150 425 148 425 144C425 136 433 122 444 113C459 100 485 93 511 93ZM507 106C486 106 445 120 445 130C445 131 446 132 449 132C461 132 476 127 486 127C516 127 533 140 548 169L555 185L552 196C546 216 536 232 520 243L504 253H484C470 253 464 254 464 257C464 258 466 260 471 263C484 271 503 275 520 275C529 275 537 274 543 271C565 259 584 228 586 192L587 175C587 175 586 167 579 152C572 137 565 130 565 130L550 119C537 110 523 106 507 106ZM154 128C154 130 150 135 150 137C150 142 155 146 169 156L184 166L193 161C196 159 200 156 203 156C203 156 204 157 204 158C204 173 181 210 160 210C151 210 142 200 142 192C142 185 138 187 133 186C124 184 117 176 117 166C117 150 154 117 154 128ZM163 173C160 173 158 176 158 186C158 193 162 197 167 197C173 197 178 191 181 187C177 183 168 173 163 173ZM856 163C851 163 845 166 845 168C845 172 850 181 854 181C856 181 863 174 863 170C863 165 862 163 856 163ZM720 140C709 140 695 150 695 162C695 171 710 179 722 179C730 179 740 175 740 164V152C738 145 730 140 720 140ZM269 135C259 139 250 149 250 157C250 167 266 177 279 177C290 177 297 169 297 158C297 147 290 142 283 137ZM137 156C133 156 130 158 130 163C130 170 135 173 140 173C144 173 149 170 149 164C149 160 142 156 137 156ZM631 -38C648 -38 668 -28 682 -17L693 -8V-4C686 -2 676 -9 672 -9C667 -9 664 -5 657 9L648 30C652 33 659 40 659 43C659 45 658 45 656 45C652 45 645 42 636 36L622 29C622 29 621 24 631 24C638 24 638 14 638 14C638 14 638 11 637 9C635 7 629 6 629 6L622 17C618 23 608 30 602 30H590C586 27 574 21 574 17C574 7 586 17 596 17C596 17 613 9 614 4C615 -1 616 -1 616 -1L606 -14L605 -18C606 -29 616 -38 631 -38ZM377 -18C375 -18 374 -15 374 -10C374 -2 375 2 379 2C382 2 389 0 394 -2L387 -10C383 -15 379 -18 377 -18ZM629 -25C626 -24 624 -20 624 -17C624 -13 626 -9 630 -7C634 -6 637 -5 639 -5C645 -5 649 -8 649 -18C649 -21 638 -25 632 -25Z" fill="#f59e0b" stroke="none"/>
  </g>
</svg>