<svg xmlns="http://www.w3.org/2000/svg" viewBox="-1 -117 1002 994">
  <g transform="translate(0, 760) scale(1, -1)">
    <path d="M494 -87C665 -87 746 -14 766 -6C782 0 863 79 887 111C887 111 971 233 971 371C971 406 966 431 966 439C966 473 947 540 925 583L904 622C879 671 794 754 789 754C785 754 750 789 648 825C604 841 563 847 493 847H488C437 847 432 846 422 843C417 841 412 840 401 838C357 830 268 792 230 763C169 717 95 627 70 565C50 515 33 446 33 417C33 409 32 402 31 396C30 389 29 382 29 373C29 367 29 361 30 354L36 301C57 112 234 -87 494 -87ZM479 -77C368 -77 251 -13 246 -5C245 -4 234 5 221 14C197 31 135 86 135 92C135 95 117 117 117 119C117 121 90 155 66 218C48 268 44 295 44 375C44 422 45 446 47 451C49 455 51 462 53 472C63 512 83 592 154 675L175 698C229 760 322 812 419 832C447 838 438 838 515 838H518C573 838 654 832 783 746C795 738 853 679 869 658C869 658 953 548 959 434C960 416 960 399 960 382C960 379 961 374 961 367C961 339 955 167 803 40C740 -13 661 -77 479 -77ZM499 -71C635 -71 718 -20 786 34C814 57 863 106 872 120L887 144C913 186 929 234 938 259L952 306V383C952 390 953 399 953 409C953 450 947 514 901 592C895 601 891 610 886 619C879 633 873 645 866 652L848 673C831 693 793 731 782 738C650 827 584 832 496 832C457 832 414 829 386 819C386 819 303 795 240 749C202 722 146 659 116 614C84 565 46 472 46 376C46 281 75 189 111 138L130 112C136 105 142 96 144 92C156 69 250 -5 261 -5C263 -5 264 -6 265 -8C269 -17 367 -71 499 -71ZM495 -58C402 -58 310 -26 262 6C243 18 194 59 186 69C170 89 163 85 107 173L81 235C70 257 60 332 60 391C60 422 61 459 98 547C122 604 139 625 156 646C163 654 170 662 177 673C188 689 193 689 202 699C216 715 269 754 272 754C284 754 353 820 502 820C561 820 611 810 633 803C670 791 743 754 764 738L779 726C792 715 849 656 862 639C875 621 878 604 882 604C887 604 919 534 928 505C937 475 943 467 943 377C943 349 942 322 939 310C904 143 794 44 771 44H768C764 44 760 41 758 41C757 41 756 42 756 43C756 51 732 69 732 83C732 88 741 95 741 98C741 100 740 100 738 100C733 100 691 73 679 62L668 52L674 40C677 36 683 28 688 28C689 28 690 29 690 31C690 35 688 46 688 50C688 60 714 73 714 73C716 73 725 61 725 55C725 52 722 50 717 50C711 50 707 51 703 51C699 51 698 50 698 48C698 43 714 26 718 26C720 26 720 27 720 32C720 37 725 45 730 45C736 45 743 34 743 32C743 28 728 14 717 14C709 14 704 18 696 18C693 18 691 17 691 16C691 13 695 8 703 2L712 -5L669 -24C625 -44 552 -58 495 -58ZM488 22C556 22 620 46 625 46C631 46 714 89 763 138C767 142 800 185 804 192C811 204 818 220 824 235C830 249 836 262 840 267C848 275 857 321 857 378C857 484 823 518 823 533V535C825 535 829 526 834 515C842 498 852 476 861 476C867 476 879 480 879 484C879 490 850 483 850 510C850 515 860 522 865 522C867 522 869 520 869 518C869 512 864 507 864 503C864 501 865 500 867 500C873 500 891 508 891 514C891 520 877 521 877 526C877 528 894 537 897 537C900 537 905 526 905 522C905 514 892 503 892 494C892 493 893 492 894 492C897 492 918 506 918 516C918 516 897 568 891 568C889 568 889 562 889 557C889 552 886 549 866 540L843 528C839 532 830 541 824 541C816 541 815 556 786 595C751 641 757 636 744 645C739 649 730 655 713 668C698 680 645 709 639 709C634 709 619 722 604 725L570 731C550 735 522 735 501 735C482 736 468 736 468 738C468 740 473 743 479 743C488 743 500 739 510 739C527 739 534 754 534 758C534 777 486 788 486 795C486 800 498 808 501 808C505 808 507 801 521 783C521 785 523 794 523 802C523 814 521 814 504 814C477 814 471 801 471 793C471 779 485 773 497 768C508 764 519 760 519 750C519 747 516 745 509 745C483 745 475 769 466 769C464 769 462 764 462 753V737L431 731C351 713 291 665 263 643C254 636 248 631 246 631C246 631 142 520 142 376C142 339 146 317 150 301C152 292 153 284 153 277C153 250 207 174 207 173C207 170 231 142 248 127L274 103C287 91 312 73 316 73C317 72 400 22 488 22ZM480 38C464 38 448 39 445 40C424 48 327 62 266 127C238 157 216 183 216 185C216 188 179 233 169 285C163 319 159 315 159 327C159 332 158 340 158 348C157 356 156 364 156 369C156 377 157 379 157 381C157 386 154 388 154 392C154 396 157 398 158 408C160 433 168 454 175 472C180 485 184 496 184 505C184 513 198 534 198 542C198 548 202 544 217 571C247 625 362 725 506 725H517L534 723C592 716 646 696 697 664C731 643 802 565 809 538C815 517 844 485 844 371C844 347 843 328 842 325C832 268 792 195 787 195C786 195 786 198 786 202V217C786 253 778 256 778 265C778 266 778 267 779 267C783 267 793 253 804 253C810 253 814 259 814 268C814 276 812 281 812 287C812 294 818 294 818 306C818 319 806 337 806 344C806 346 811 346 811 357C811 380 793 395 793 398C793 401 802 400 802 412C802 430 787 444 787 448C787 453 795 456 795 463C795 478 770 488 770 499C770 503 771 508 771 514C771 533 747 538 747 547C747 559 741 565 730 565C723 565 721 566 721 569L722 576C722 586 712 595 700 595C676 595 698 620 663 620C651 620 648 618 643 615C638 612 632 608 610 606C576 603 560 595 551 595C541 595 539 608 539 613C539 626 549 636 549 647C549 654 535 667 527 667C515 667 493 656 493 639C493 623 504 617 514 612C522 607 530 603 530 593C530 589 528 585 521 581C493 566 479 552 470 541C462 533 457 528 450 528C442 528 426 539 426 541C426 544 390 564 390 569C390 570 401 589 415 589C420 589 420 588 426 588C440 588 449 599 449 612C449 620 445 640 426 640C420 640 413 639 405 634C397 629 396 626 396 613C396 601 395 597 385 586L373 572L360 579C336 593 323 584 321 599C321 602 314 624 296 624C282 624 256 617 256 590V587C256 578 218 569 218 538C218 533 220 528 225 528C229 528 229 528 224 524C209 508 202 496 202 486C202 477 208 476 208 471C208 465 192 454 192 441C192 433 198 428 198 424C198 420 189 420 189 402C189 390 196 392 196 387C196 382 179 370 179 349C179 340 183 334 189 334C193 334 194 333 194 331C194 326 187 318 187 305C187 293 198 296 198 282C198 270 210 266 210 256C210 249 224 232 230 232C236 232 244 240 247 240V238C247 234 246 218 246 200C246 153 258 162 258 156C258 151 273 131 286 131C296 131 315 138 315 142C315 144 316 145 317 145C329 145 346 124 371 124C396 124 413 143 413 170C413 177 412 185 409 193C396 242 369 263 369 269C369 277 336 306 336 344C336 352 340 391 355 391C374 391 386 370 394 370C399 370 413 380 413 389C413 397 408 414 408 426C408 437 414 437 438 438H458L459 421V416C459 386 444 350 418 316C414 310 407 295 382 295C372 295 365 307 365 315C365 323 372 332 383 332C389 332 392 328 392 324C392 321 391 319 387 319C383 319 381 323 377 323C374 323 373 321 373 319C373 311 377 306 385 306C394 306 405 314 405 325C405 328 396 343 382 343C369 343 351 328 351 312C351 308 354 283 380 283C390 283 392 282 392 279C392 277 391 276 391 274C391 263 405 239 428 239C437 239 461 245 461 269C461 278 457 294 440 294C429 294 417 286 417 276C417 271 420 268 423 268C431 268 434 282 438 282C441 282 446 275 446 270C446 261 437 254 427 254C418 254 409 260 409 268C409 279 420 294 432 311C443 325 454 340 460 355C461 359 464 360 465 360C471 352 475 343 478 335C483 324 487 315 494 315C498 315 500 317 500 327C500 356 541 370 541 370C541 370 552 356 552 332C552 323 550 315 546 304L537 310C533 314 531 315 528 315C525 315 501 310 501 289C501 282 504 262 522 262C547 262 565 290 565 302C565 304 564 303 564 305C564 308 569 314 569 326C569 350 558 368 558 377C558 381 563 389 573 389C587 389 600 371 605 371C606 371 608 373 608 376C608 383 577 433 569 433C563 433 566 394 551 394C548 394 546 396 546 397C546 399 538 408 528 419C494 454 475 443 475 460C475 469 459 498 459 502C459 517 519 567 537 567C544 567 558 542 558 532C558 523 547 523 547 508C547 496 558 485 573 485C584 485 605 489 605 511C605 523 598 534 582 536C572 538 570 540 562 557L552 575L568 579C594 585 607 588 616 588C627 588 627 583 631 577C638 566 650 559 664 559C668 559 674 565 681 571C687 577 694 584 699 584C705 584 707 577 707 576C707 568 688 556 688 551C688 547 689 546 692 546C701 546 717 554 726 554C729 554 732 553 732 548C732 542 717 539 717 532C717 529 719 529 723 529C726 529 730 530 735 530C754 530 759 516 759 510C759 505 756 503 750 503C744 503 742 504 737 504C733 504 731 503 731 502C731 498 739 492 746 491C754 489 780 467 780 462C780 461 779 460 777 460C769 460 763 467 757 467C755 467 754 466 754 464C754 450 776 444 782 432L790 417V414C790 411 788 409 784 409C777 409 775 415 767 415C764 415 762 414 762 412C762 409 798 378 798 360C798 357 797 355 796 355C792 355 783 367 778 367C775 367 774 365 774 363C774 360 779 354 786 346C795 335 807 321 807 310C807 308 806 306 804 306C798 306 787 320 780 320C779 320 778 319 778 318C778 314 783 307 789 299C796 290 804 280 804 273C804 271 804 268 803 268C793 268 768 294 764 294C762 294 760 292 760 288C760 279 771 253 771 200C771 184 770 179 768 179C761 179 755 197 750 213C746 224 743 234 740 234C738 234 735 230 733 223C726 194 690 149 686 149C686 149 685 149 685 152C685 157 688 169 691 181C695 197 699 214 699 224C699 229 697 232 695 232C691 232 679 218 669 202C661 190 628 157 623 157C620 157 618 155 618 154C616 152 587 139 582 139C580 139 579 140 579 141C579 145 590 157 604 172C633 201 675 245 675 278C675 287 672 296 668 305L660 321L666 327C677 339 687 391 687 428C687 482 655 489 635 489C615 489 598 483 598 455C598 443 604 431 622 431C653 431 642 467 650 467C659 467 672 458 672 423C672 396 664 361 654 338C648 325 647 325 636 325C612 325 595 301 595 284C595 274 603 266 613 266C639 266 649 297 651 297C654 297 658 291 658 283C658 250 589 174 574 161C562 150 555 139 555 131C555 123 562 121 567 121C590 121 645 149 664 170C667 173 669 174 670 174C671 174 672 172 672 169C672 159 668 141 668 127C668 116 672 113 674 113C677 113 681 117 690 127C727 166 732 194 736 194C736 194 759 167 759 161C759 156 729 126 708 109C693 96 634 64 626 64C622 64 615 62 606 59C583 51 543 38 480 38ZM519 627C512 627 508 633 508 639C508 645 512 650 520 650C525 650 533 647 533 641C533 634 525 627 519 627ZM418 602C413 602 409 603 409 612C409 621 416 627 424 627C433 627 436 616 436 612C436 604 427 602 418 602ZM286 575C278 575 271 581 271 591C271 601 278 610 289 610C297 610 309 603 309 595C309 585 298 575 286 575ZM659 574C649 574 646 580 646 587C646 596 652 607 661 607C670 607 678 596 678 589C678 581 672 574 661 574ZM363 142C339 142 333 160 328 174C324 185 321 193 313 193C310 193 308 190 308 185C308 181 309 180 309 177C309 166 300 150 288 150C278 150 265 158 265 208C265 243 275 254 275 261C275 264 272 268 268 268C257 268 237 247 230 247C229 247 227 250 227 255C227 265 238 272 238 278C238 281 236 283 232 283C228 283 219 275 214 275C212 275 211 277 211 279C211 286 222 297 222 298C222 303 232 308 232 314C232 317 230 319 228 319C221 319 206 301 200 301C199 301 198 302 198 305C198 321 219 337 219 347C219 350 219 352 215 352C204 352 195 346 191 346C190 346 189 347 189 348C189 358 200 370 209 381C217 389 223 397 223 401C223 402 221 405 218 405C213 405 206 398 203 398C202 398 201 400 201 402C201 410 219 433 225 433C227 433 232 440 232 443C232 445 230 447 229 447C223 447 211 438 207 438C206 438 206 439 206 440C206 445 220 461 232 473C240 482 246 488 246 490C246 492 245 493 243 493C235 493 223 484 218 484C215 484 213 485 213 487C213 500 261 539 261 541C261 544 257 546 254 546C249 546 243 541 238 541C236 541 232 543 232 545C232 553 256 570 259 570C265 570 270 556 283 556C296 556 310 570 322 570C333 570 360 561 360 557C360 556 338 527 328 527C327 527 326 528 324 528C314 528 293 516 293 500C293 485 305 472 318 472C333 472 351 488 351 498C351 503 348 506 348 512C348 518 352 527 366 542L378 554L388 549C448 520 459 456 459 456C459 454 458 454 456 454C453 454 446 457 435 457C427 457 424 457 424 460C424 461 429 478 429 485C429 489 428 489 423 489H419C411 489 403 491 396 491C384 491 375 487 375 465C375 448 379 445 379 444C379 440 358 433 348 416L331 394C323 383 317 355 317 337C317 323 337 292 356 263C373 236 390 210 390 199C390 190 396 196 396 174C396 152 382 142 363 142ZM144 466C146 466 156 485 156 490C156 492 160 502 166 513L175 532L165 541C160 546 157 549 155 549C153 549 151 547 151 544C151 539 156 531 156 521C156 516 154 504 146 504C141 504 133 509 133 512C133 513 135 514 139 514C143 514 146 517 146 521C146 526 140 529 119 538L121 527C122 525 122 523 122 521C122 518 121 517 116 517C108 517 105 520 105 523C105 538 135 547 135 551C135 554 130 556 120 558L109 559L99 536C92 522 85 505 85 497C85 493 87 491 89 491C95 491 98 502 104 502C104 502 142 498 142 477C142 471 143 466 144 466ZM574 496C568 496 564 504 564 510C564 518 569 523 577 523C583 523 590 519 590 512C590 505 581 496 574 496ZM324 485C316 485 310 492 310 500C310 504 312 511 326 511C337 511 339 508 339 503C339 496 333 485 324 485ZM406 451C392 451 388 465 388 471C388 479 394 481 399 481C406 481 411 479 411 461C411 453 411 451 406 451ZM618 446C612 446 609 451 609 456C609 462 617 472 621 472C626 472 636 461 636 457C636 453 624 446 618 446ZM490 360C489 360 470 362 470 372C470 389 473 433 481 433C500 433 534 396 534 385C534 383 501 360 490 360ZM396 396C391 396 363 407 363 410C363 412 383 424 388 424C394 424 399 411 399 402C399 400 397 396 396 396ZM612 279C609 279 608 281 608 284C608 292 622 310 628 310C629 310 635 308 635 303C635 294 619 279 612 279ZM526 277C520 277 517 279 517 287C517 292 519 299 526 299C531 299 542 295 542 288C542 282 534 277 526 277ZM282 1C284 1 285 2 285 4C285 6 284 7 284 10C284 23 308 57 317 57C320 57 325 55 328 55C329 55 330 56 330 56C330 60 300 74 300 76C300 77 298 79 294 79C290 79 288 78 288 76C288 73 297 67 297 64C297 61 285 49 282 49C280 49 273 55 273 61C273 67 280 73 280 82C280 94 268 106 258 106C251 106 246 102 246 99C246 96 249 94 255 94C263 94 264 93 264 86C264 76 258 64 253 64C249 64 236 56 236 43C236 22 277 1 282 1ZM265 24C258 24 250 32 250 41C250 44 252 52 258 52C264 52 275 45 275 36C275 29 269 24 265 24ZM720 3C720 6 762 33 766 33C766 29 728 3 722 3Z" fill="#f59e0b" stroke="none"/>
  </g>
</svg>