<svg xmlns="http://www.w3.org/2000/svg" viewBox="-50 -50 1100 1100">
  <g transform="translate(0, 1000) scale(1, -1)">
    <path d="M508 -89H510C566 -89 661 -69 702 -48C746 -26 778 -5 801 18L841 55C856 68 868 81 868 83C868 89 916 136 943 225C948 239 970 272 970 382C970 419 968 457 965 469L956 500C946 541 933 566 925 583C920 592 916 599 915 605C911 624 879 661 858 686C849 696 842 705 839 709C823 732 753 784 686 814L664 822C608 848 467 849 467 849C450 849 382 837 348 824L329 817C250 785 206 755 141 684C139 681 137 678 137 677C137 669 30 578 30 375C30 345 32 315 36 299L48 248C59 201 83 166 83 163C83 155 146 70 146 70C146 67 176 37 179 37C181 37 182 35 182 32C182 25 192 26 230 -6C239 -13 257 -22 272 -30C285 -37 296 -42 296 -44C296 -46 326 -59 329 -59C329 -59 412 -89 508 -89ZM509 -80C299 -80 213 30 201 30C197 30 146 86 146 90C146 92 145 94 144 94C137 94 97 156 82 190C82 190 41 258 41 377C41 575 148 671 148 673C148 676 214 742 217 742C225 742 248 776 310 798C385 825 427 839 490 839C652 839 732 780 778 746C788 739 796 733 803 729C815 721 901 624 901 606C901 604 903 601 904 599C912 591 932 545 932 536V534C929 534 924 545 918 559C912 572 906 587 899 598C894 607 901 614 838 686C786 745 727 777 671 803C639 818 594 832 490 832C412 832 373 817 335 802C326 798 317 794 307 791C260 775 172 701 138 651C135 647 131 641 126 635C115 621 102 604 94 586L83 561C51 488 45 394 45 387C45 337 59 256 74 218C126 92 255 -74 515 -74C630 -74 746 -10 746 -5C746 -3 747 -2 749 -2C760 -2 852 84 870 111L887 138C902 161 943 244 952 321C954 338 955 366 955 392C955 458 936 519 933 527C932 531 932 532 934 530C937 528 959 484 959 395C959 350 955 299 947 265C936 216 890 125 860 94C855 88 851 81 851 79C851 73 835 71 814 47C789 20 682 -80 509 -80ZM504 -61C287 -61 180 77 143 124C126 146 72 239 65 304C61 339 61 368 61 393C61 459 73 490 80 509C84 518 86 525 86 531C86 533 93 548 99 563C106 578 112 593 112 594C112 596 117 603 122 608C127 614 135 623 143 634C174 672 224 734 286 766C313 780 409 821 494 821C548 821 620 812 672 784C683 779 780 740 842 659C876 614 880 609 881 604C881 602 886 592 892 581C899 568 907 553 909 547C913 533 917 523 921 514C931 492 940 470 940 383V361C940 314 936 244 865 128C865 121 808 56 744 11C681 -34 589 -61 504 -61ZM489 750C516 750 543 757 543 781C543 810 516 817 485 817C477 817 470 816 470 815C470 806 479 812 479 782C479 754 470 763 470 755C470 752 479 750 489 750ZM503 759C498 759 497 764 497 783C497 800 500 805 510 805C519 805 523 802 523 784C523 765 514 759 503 759ZM250 649H252C258 650 267 658 267 663C267 668 250 681 250 686C250 688 252 688 254 688C264 688 271 682 286 682C294 682 302 685 302 691C302 695 298 703 286 714L271 730L279 741C283 746 285 752 285 754C285 755 282 757 279 757C272 757 256 744 256 737C256 733 259 725 271 712L279 702L257 707C248 709 237 714 228 714C220 714 213 711 209 703C206 697 206 696 214 696C225 696 248 671 248 660C248 656 245 654 245 651C245 650 247 649 250 649ZM506 21C631 21 728 97 728 97C731 97 775 144 781 154C783 158 787 162 789 164C798 171 845 265 851 289C856 311 858 344 858 376C858 414 854 452 848 472C848 472 821 565 792 590C790 592 780 602 771 614C738 654 687 688 682 688C680 688 673 692 667 697C629 729 529 737 478 737C435 737 372 718 334 695L305 679C276 663 226 613 204 581C156 509 144 436 144 379C144 325 155 285 159 274L170 243C210 155 249 126 268 111L295 88C357 35 465 21 506 21ZM509 35C442 35 370 61 350 71C320 87 286 117 267 134C257 143 251 148 250 148C250 148 193 219 193 225C193 227 174 270 168 299L165 315C160 338 157 361 157 384C157 541 273 645 288 645C289 645 290 645 290 643C290 642 301 622 316 622C332 622 345 638 345 652C345 671 327 668 327 675C327 677 329 679 334 679C337 679 405 724 498 724C512 724 525 723 540 721L565 717C673 698 748 620 749 619L769 594C788 571 825 518 836 460L825 464C818 467 812 469 805 469C770 469 770 445 770 434C770 404 777 407 777 401C777 396 753 362 745 362C742 362 725 363 725 391C725 402 725 402 716 402C711 402 707 401 706 400C706 395 701 387 695 378C689 369 683 360 683 354C683 349 688 348 689 348C695 348 699 359 711 359C721 359 736 348 736 345C736 335 677 273 659 264C643 255 601 250 544 250C533 250 489 250 489 252C489 255 498 283 508 315L524 367C530 388 536 405 537 409L540 419C540 419 557 453 557 467C557 469 556 471 556 472C555 473 538 474 515 476C507 476 498 476 489 477C480 477 470 478 461 478L423 480C420 482 418 503 418 525C418 545 420 566 423 568C423 568 442 571 458 571C476 571 481 566 485 561C489 556 493 552 507 552C517 552 526 556 534 567L543 577L537 591C532 605 526 609 514 609C493 609 490 605 488 601C485 596 482 592 458 592C455 592 452 592 449 593H417L418 609C419 637 439 647 439 658C439 676 425 688 408 688C398 688 378 682 378 659C378 639 396 632 396 621V618C391 596 399 592 363 592C339 592 335 595 332 599C329 601 327 604 310 604H307C298 604 281 602 281 578C281 559 286 558 295 554C302 550 305 548 308 548C311 548 313 549 318 551C344 562 325 568 364 568C378 568 391 568 393 566C394 564 395 542 395 522C395 500 394 479 393 478C392 477 367 476 343 475C319 474 295 473 293 471C292 469 291 437 291 399V329H260C189 329 211 369 194 369C190 369 189 365 189 346C189 269 191 264 195 264C199 264 206 268 206 278C206 285 209 292 216 300C217 303 221 316 261 316H276L291 315L293 259L283 255C272 251 266 237 266 224C266 197 294 192 306 192C328 192 334 212 334 223C334 232 330 238 320 249C309 261 309 261 308 287V313H339C370 313 371 313 371 306C371 302 368 296 364 293C358 287 352 278 346 270C340 261 334 253 331 253C329 253 329 251 331 248C334 245 344 244 371 244C415 244 425 246 425 252C425 257 419 265 412 273C404 283 394 294 394 305C394 308 396 317 403 317C414 317 433 300 436 283C437 274 438 272 442 272C448 272 449 274 449 285C449 378 445 382 439 382C435 382 434 380 434 373C434 359 409 330 398 330C395 330 394 339 394 347C394 370 423 375 423 386C423 387 421 393 413 393C405 393 392 388 360 388C334 388 327 387 327 383C327 376 336 370 346 363C357 356 369 348 369 338V329H306L307 393C307 428 308 457 309 458C309 458 400 462 467 462C532 462 536 459 536 456C536 448 526 436 508 367L493 316C479 266 469 251 469 244C469 235 483 234 536 234H583C616 234 655 237 681 258C696 270 736 309 736 312C736 312 748 333 762 333C769 333 777 329 777 315C777 306 775 297 775 290C775 286 776 283 781 283C785 283 788 284 788 285C788 287 793 296 799 305C809 320 821 340 821 348C821 351 819 352 816 352C812 352 799 341 797 341C796 341 791 339 785 339C778 339 770 346 770 352C770 356 772 360 778 367C783 374 787 379 789 384C794 392 797 397 807 399C818 401 836 415 836 423C836 425 837 427 838 427C844 427 845 418 845 377C845 320 840 328 840 321V318C840 311 839 294 811 232C785 176 728 119 728 117C728 116 727 115 724 115C722 115 713 109 704 102C650 61 562 35 509 35ZM772 625C774 625 775 627 775 630C775 635 785 659 792 678C796 689 800 698 800 699C800 702 798 703 795 703C788 703 780 698 771 693C759 686 747 679 734 679H725C721 679 719 678 719 677C719 672 744 655 747 655C748 655 749 656 749 659C749 662 755 674 762 674C765 674 770 670 770 662C770 655 766 649 761 649C756 649 754 648 754 646C754 642 768 625 772 625ZM774 673C772 673 770 675 770 677C770 682 777 687 779 687L781 686C781 682 778 673 774 673ZM507 624C522 624 532 646 532 654C532 671 521 676 509 676C490 676 477 668 477 651C477 630 498 624 507 624ZM408 644C400 644 394 651 394 659C394 666 398 674 407 674C415 674 423 668 423 659C423 653 417 644 408 644ZM506 638C496 638 490 647 490 655C490 660 492 664 501 664C510 664 520 661 520 651C520 644 513 638 506 638ZM316 636C311 636 303 642 303 649C303 655 312 661 319 661C326 661 332 657 332 649C332 646 325 636 316 636ZM509 566C499 566 492 573 492 581C492 590 500 598 508 598C517 598 523 587 523 578C523 568 513 566 509 566ZM310 561C308 561 293 567 293 577C293 577 294 592 306 592C316 592 326 587 326 580C326 572 312 561 310 561ZM319 480C334 480 349 494 349 510C349 525 333 534 327 534C322 534 293 527 293 510C293 498 304 480 319 480ZM513 482C528 482 542 493 542 508C542 525 531 534 518 534C512 534 505 532 497 528C485 523 484 521 484 511V508C484 500 487 482 513 482ZM319 496C312 496 307 500 307 505C307 511 314 520 320 520C326 520 334 511 334 505C334 498 325 496 319 496ZM511 494C501 494 499 504 499 506C499 514 507 520 515 520C523 520 526 513 526 508C526 501 519 494 511 494ZM922 401C925 401 928 406 928 413C928 428 923 429 920 429H918C909 429 899 425 895 425C894 425 893 425 893 426C893 430 923 448 923 468C923 476 916 484 914 484C913 484 911 482 909 479C902 471 884 463 874 463C867 463 861 471 856 477L857 463C857 447 858 439 863 439C869 439 869 459 898 459C900 459 901 459 901 458C901 455 892 446 883 438C873 430 864 422 864 418C864 415 867 412 873 412C880 412 890 414 898 414C917 414 915 401 922 401ZM109 404C139 404 146 424 146 447C146 457 146 482 106 482C75 482 67 456 67 442C67 412 96 404 109 404ZM114 429C97 429 77 431 77 447C77 456 90 460 104 460C125 460 141 452 141 442C141 434 131 429 114 429ZM798 411C789 411 782 425 782 434C782 446 793 455 805 455C816 455 826 447 826 436C826 421 805 411 798 411ZM302 206C292 206 281 214 281 225C281 233 291 243 297 243C301 243 317 237 317 224C317 218 314 206 302 206ZM152 131C154 131 154 132 154 136V146C154 161 180 177 188 177C194 177 197 172 200 172C201 172 201 173 201 174C201 175 177 223 170 223C167 223 165 219 165 216C165 210 171 207 171 201C171 193 144 170 136 170C134 170 129 173 126 173C123 173 122 169 122 168C122 161 145 131 152 131ZM846 120C854 120 884 177 884 183C884 191 863 200 855 200C854 200 853 199 853 198C853 195 867 181 867 168C867 166 867 165 866 165C859 165 832 180 832 192C832 195 834 196 834 200C834 203 831 206 828 206C824 206 820 200 820 197C820 192 801 173 801 167C801 166 803 166 806 166C814 166 816 173 821 173C829 173 839 159 852 155C854 153 856 151 856 150C856 146 851 140 842 140C833 140 825 148 820 148C818 148 818 147 818 146C818 139 836 120 846 120ZM384 -40C387 -40 388 -39 388 -38C388 -34 382 -32 382 -23C382 -7 396 19 404 19C408 19 410 20 410 22C410 25 405 28 397 29C385 31 374 36 364 40C355 44 347 47 341 47C328 47 324 33 324 30C324 27 325 26 328 26C333 26 342 33 354 33C359 33 376 31 376 20C376 16 368 -21 356 -21C353 -21 349 -17 345 -17C342 -17 341 -18 341 -21C341 -31 381 -40 384 -40ZM625 -39C630 -39 633 -23 637 -5C641 13 645 33 652 38C654 39 655 41 655 43C655 45 654 46 651 46C650 46 626 38 626 33C626 30 631 29 631 23C631 16 621 8 611 8C604 8 598 14 598 18C598 21 602 23 602 25C602 26 600 27 597 27C588 27 565 19 565 19C565 17 569 15 573 12C579 10 589 -2 599 -14C610 -27 620 -39 625 -39ZM622 -10C618 -10 614 -6 614 -3C614 -1 615 1 619 1C623 1 626 -1 626 -4C626 -9 624 -10 622 -10Z" fill="#f59e0b" stroke="none"/>
  </g>
</svg>