<svg xmlns="http://www.w3.org/2000/svg" viewBox="-50 -50 1100 1100">
  <g transform="translate(0, 1000) scale(1, -1)">
    <path d="M505 -90C543 -90 556 -87 569 -87H583C599 -87 687 -58 713 -44C731 -34 738 -30 775 -6C823 26 888 99 911 147C927 180 932 191 932 193C932 194 937 210 943 227C960 273 966 302 966 375V378C966 446 962 480 950 515L939 544C913 623 905 617 905 622C905 625 886 652 870 672C836 715 760 779 718 801C707 806 615 849 520 849C466 849 387 842 326 815C318 812 197 765 125 652L99 613C51 544 34 405 34 405C34 400 37 398 37 397C37 396 34 396 34 385C34 350 50 230 63 204C71 189 93 140 112 115L128 93C148 67 151 68 151 63C151 62 164 50 178 37L214 6C269 -44 339 -64 377 -74C387 -77 395 -79 399 -81C412 -87 462 -90 505 -90ZM484 -81C436 -81 407 -76 367 -63C276 -33 219 3 164 67L145 90C124 114 102 150 86 183C74 206 44 257 44 398C44 455 77 559 97 592C136 656 155 682 192 718C208 734 224 747 225 747C230 747 313 815 414 830L461 837C468 838 481 839 497 839C529 839 568 837 578 834C591 829 683 814 744 771L764 757C881 673 929 550 929 539C929 537 930 534 932 532C938 526 957 466 957 378C957 151 796 21 759 -2L726 -21C645 -70 599 -81 484 -81ZM484 -75H495C545 -75 603 -70 644 -56C836 12 952 191 952 374C952 469 925 577 859 659C851 669 792 728 783 734L763 750C682 813 573 834 517 834C421 834 334 815 231 745C199 723 160 681 132 638L109 603C77 556 50 466 50 369C50 318 58 267 76 218C110 128 189 31 264 -12C369 -71 452 -75 484 -75ZM482 -63C463 -63 444 -61 431 -59C414 -56 312 -28 312 -19C312 -19 352 21 369 21C376 21 380 23 380 25C380 30 356 42 353 42C352 42 351 42 351 41V36C351 33 350 29 346 26L338 18L328 24C320 28 318 32 318 36C318 44 332 49 332 51C332 53 307 68 302 68H300C300 65 302 61 302 56C302 47 300 33 300 5V-16C298 -16 277 -4 269 2C206 43 227 38 210 48C195 57 199 62 192 68C170 85 63 194 63 375C63 487 104 579 134 615C134 621 160 655 187 683C263 765 344 790 344 790C344 790 410 819 482 821L496 822C488 795 463 753 456 753C453 753 452 751 452 750C452 748 461 747 470 747C480 747 483 748 483 750C483 752 479 756 479 759C479 765 488 771 499 771C507 771 512 767 512 762C512 755 504 754 504 750C504 746 516 745 526 745C535 745 542 745 542 746C542 748 541 750 539 750C531 750 512 807 511 811L506 822L536 820C596 817 661 800 738 751C796 715 884 609 884 597C884 590 938 510 938 378C938 310 924 253 910 224C872 141 868 134 835 91C819 71 811 62 800 53C791 45 746 12 744 12C743 12 657 -39 647 -39C646 -39 642 -41 639 -42C617 -54 542 -63 482 -63ZM498 780C495 780 492 781 492 785C492 789 498 797 498 797C500 797 506 787 506 785C506 782 502 780 498 780ZM291 676C293 676 295 679 295 685C296 692 298 692 308 692C327 692 336 713 336 718C336 726 326 737 311 737C299 737 287 731 281 731C277 731 276 734 276 735C276 742 291 749 300 749C309 749 304 744 314 744C317 744 319 744 319 746C319 750 309 768 306 768C303 768 299 756 289 756C273 756 260 739 260 727C260 715 273 711 280 711C295 711 305 722 312 722C318 722 321 717 321 714C321 706 307 699 295 699C285 699 284 703 279 703C277 703 276 702 276 700C276 692 287 676 291 676ZM728 663C733 663 757 703 770 703C776 703 783 699 786 699C787 699 788 700 788 701C788 709 763 729 760 729C758 729 758 727 758 723C758 720 754 713 749 707L740 697L738 719C737 730 735 740 734 742C731 747 720 754 716 754C714 754 713 752 713 750C713 748 715 745 715 741C715 728 694 704 689 704H686C685 704 680 704 680 702C680 696 706 679 709 679C709 679 710 680 710 681C710 683 706 686 706 692C706 696 708 703 714 712L724 728L725 695C725 678 727 663 728 663ZM489 22C532 22 582 26 613 36C714 69 753 129 756 129C761 129 857 220 857 377C857 443 852 471 827 524C812 556 788 597 782 603C782 603 683 737 513 737H503C448 737 355 734 250 630C223 602 146 526 146 372C146 268 190 203 207 177C267 85 347 54 386 39C395 36 401 33 405 31C415 25 450 22 489 22ZM490 33C345 33 235 155 226 173C218 189 203 208 203 211C203 215 188 233 188 241C188 243 186 251 182 261C174 289 158 339 158 372C158 388 161 409 171 456C186 528 213 575 270 627C270 627 355 725 511 725C553 725 571 715 576 715H579C590 715 646 695 668 683C708 661 756 620 765 601L777 581C790 562 807 534 814 518C826 491 838 444 840 441C840 441 845 405 845 369C845 350 843 330 839 317L828 276C824 261 820 252 819 252C818 252 817 254 817 257C817 269 807 280 791 280C777 280 769 272 762 264C756 258 751 252 743 252H737L724 253L723 270C723 274 722 276 722 278C722 287 724 288 732 292C738 295 746 297 749 297C753 297 757 301 757 304C757 308 754 309 726 309C686 309 660 307 660 300C660 289 697 303 697 275V269L696 253L665 251C653 250 630 250 606 250H572L511 252L509 287C508 300 507 312 507 318C507 321 508 324 508 324C509 326 532 326 553 327C571 328 586 328 587 329C588 330 588 340 588 352V373L599 375C608 377 693 379 740 379H769L781 377L780 362V359C780 339 790 327 806 327C832 327 842 344 842 359C842 370 836 381 828 381C819 381 806 369 806 363C806 357 812 352 817 352C820 352 821 353 824 353C826 353 827 352 827 350C827 346 819 340 812 340C803 340 796 346 796 356C796 367 807 380 817 393C826 405 834 415 834 423C834 429 823 448 807 448C792 448 778 433 778 422C778 415 784 411 791 411C798 411 805 415 805 424C805 433 797 431 797 435C797 437 799 438 802 438C810 438 814 432 814 425C814 416 807 404 799 400C792 397 731 395 672 394C628 394 586 393 569 391C567 390 565 384 565 369V359C565 345 564 345 545 345H540C512 345 516 340 513 340C508 340 506 350 506 374C506 378 506 383 507 389V431C526 428 524 425 528 425C537 425 562 437 567 444C569 448 572 456 572 462C572 474 561 504 557 504C555 504 554 506 554 507C554 509 558 510 565 510C577 510 581 509 604 509C629 509 659 510 679 510H688C700 510 701 509 701 494C701 482 692 471 683 471C675 471 668 468 668 463C668 457 675 456 713 456C740 456 759 458 759 466C759 473 723 470 723 497C723 510 727 513 733 513C741 513 747 506 752 500C758 492 764 485 774 485C781 485 806 491 806 514C806 521 802 544 776 544C764 544 758 539 752 535C747 531 742 527 733 527H722V543C722 576 756 566 756 579C756 583 749 583 709 583C676 583 662 582 662 580C662 576 683 567 689 567C694 567 701 553 701 540C701 526 701 524 608 524C594 524 576 525 557 525C529 525 532 526 516 541L486 566C480 571 477 575 477 579C477 588 489 594 512 594H514C537 594 541 569 551 569C555 569 557 574 557 593C557 609 555 629 551 629C543 629 533 609 511 609C484 609 449 595 449 569C449 559 455 546 472 531L485 520H317L318 531C320 560 350 568 350 574C350 578 344 579 314 579C277 579 264 576 264 568C264 556 301 567 301 540C301 517 292 516 278 516H275C255 516 254 516 247 526C240 534 232 538 224 538C203 538 194 513 194 506C194 499 205 483 222 483C249 483 227 502 289 502C297 502 299 500 299 490C299 455 257 468 257 457C257 451 264 450 291 450C328 450 355 452 355 461C355 463 352 465 345 465C329 465 319 475 319 489V492L320 504H354C398 504 433 505 455 505C489 505 491 504 491 484C491 475 489 459 489 459C486 459 471 471 468 471C462 471 459 483 454 483C451 483 450 479 450 464C450 454 451 418 457 418C463 418 477 441 485 441C490 441 492 433 492 420C492 410 491 399 491 386L489 340H469C448 340 447 343 447 353C447 361 449 370 449 376C449 387 443 390 409 390C377 390 264 387 247 385L230 383L217 398C208 408 203 413 203 418C203 426 210 433 215 433C217 433 219 432 219 427V423C219 416 228 409 229 409C230 409 245 417 245 428C245 442 223 446 215 446C204 446 188 431 188 418C188 407 197 397 205 387C213 378 221 368 221 359C221 347 208 339 204 339C202 339 190 344 190 347C190 351 205 352 205 362C205 367 203 378 192 378C183 378 171 369 171 359C171 346 189 327 208 327C217 327 219 330 226 331C229 331 240 352 240 358C240 359 239 359 239 360C239 368 270 373 368 373C399 373 425 373 427 371C428 370 429 359 429 348V324H494V288C494 266 492 251 490 250C488 249 452 248 409 248H330L329 260V264C329 294 359 291 359 303C359 306 356 307 346 307H342C271 307 269 303 269 297C269 292 271 291 280 291C297 291 305 282 305 265V258L304 247L283 246H278C247 246 260 263 238 263C218 263 199 251 199 234C199 216 226 199 232 199C238 199 254 214 254 216C254 216 256 231 284 231H302V211C302 194 301 190 295 184C292 180 286 177 282 177C279 177 270 176 270 171C270 169 272 162 283 162C294 162 312 168 341 168C356 168 364 169 364 174C364 181 356 182 352 182H346C331 182 327 199 327 214C327 224 329 232 329 233C330 234 365 234 402 234C444 234 489 234 490 233C493 230 494 125 494 111C494 100 470 104 470 80C470 74 472 68 472 67C472 66 471 66 471 65C471 60 489 42 496 42C514 42 539 58 539 71C539 101 522 107 511 112L508 172C508 190 507 203 507 213C507 227 508 234 509 234C512 235 543 236 579 236C631 236 694 234 695 233C697 231 698 223 698 214C698 181 665 184 665 177C665 175 672 173 699 173C746 173 757 177 757 181C757 184 752 186 741 188C728 190 723 192 723 210V218L724 237L736 238C737 238 738 239 739 239C752 239 756 232 761 226C766 219 770 213 782 213C788 213 794 214 797 214C799 214 800 214 800 213C800 206 775 172 775 171C775 163 716 109 688 91C659 71 595 42 582 42C575 42 566 41 555 39C538 36 517 33 490 33ZM169 563C186 563 199 574 199 592C199 615 172 632 172 639C172 639 174 642 174 645C174 647 173 648 170 648C170 648 153 634 153 626C153 623 156 621 164 621C178 621 189 603 189 590C189 582 186 576 177 576C165 576 147 589 147 599C147 601 148 602 148 603C148 605 147 606 146 606C138 606 122 588 122 580C122 578 123 577 125 577C127 577 128 578 131 578C143 578 147 563 169 563ZM855 514C862 514 892 517 892 543C892 568 871 602 862 602C861 602 859 600 859 596C859 585 865 586 865 582C865 574 845 563 834 563C829 563 827 567 820 567C817 567 814 566 814 562C814 562 829 514 855 514ZM858 527C853 527 840 534 840 540C840 546 870 562 875 562C877 562 878 554 878 551C878 540 867 527 858 527ZM778 501C771 501 762 506 762 516C762 524 766 531 775 531C784 531 790 526 790 517C790 511 786 501 778 501ZM225 498C217 498 207 502 207 510C207 516 213 525 222 525C229 525 235 519 235 510C235 502 232 498 225 498ZM531 442C527 442 523 442 517 445C507 450 505 450 505 493V502C515 502 546 466 546 454C546 451 539 442 531 442ZM74 315C82 315 71 332 98 333C107 334 114 334 118 334C130 334 130 332 131 325C132 320 134 317 137 317C140 317 141 318 141 330C141 368 139 377 136 377C125 377 145 358 93 358C73 358 82 371 74 371C69 371 67 365 67 359C67 345 71 315 74 315ZM848 240C855 240 851 267 871 267C881 267 882 253 896 253C917 253 923 281 923 318C923 325 922 327 919 327C907 327 919 316 894 316C874 316 870 317 869 324C868 330 867 334 865 334C860 334 855 307 855 305C855 299 859 298 867 298C875 298 879 297 879 294C879 286 843 279 843 250C843 244 845 240 848 240ZM898 270C894 270 887 275 887 285C887 292 891 300 897 300C899 300 909 293 909 289C909 286 905 285 905 279C905 274 901 270 898 270ZM786 227C773 227 771 238 771 246C771 258 780 264 789 264C803 264 806 253 806 245C806 238 802 227 786 227ZM230 216C224 216 212 227 212 233C212 239 220 249 231 249C242 249 244 241 244 234C244 221 236 216 230 216ZM170 103C172 103 172 104 172 105C172 108 168 110 168 112C168 117 195 146 207 146L217 145C220 145 221 145 221 146C221 148 216 154 210 161C203 169 196 179 191 188C185 198 179 207 175 207C175 207 156 202 156 195C156 190 177 188 188 173L197 163L181 148C169 137 162 132 156 132C150 132 148 141 141 141C139 141 137 140 137 138C137 134 160 103 170 103ZM766 37C782 37 798 59 798 74C798 96 775 110 760 110C741 110 729 94 729 76C729 53 753 37 766 37ZM772 53C762 53 744 65 744 85C744 94 748 99 754 99C766 99 782 71 782 62C782 56 778 53 772 53ZM503 58C492 58 485 68 485 76C485 85 494 93 504 93C513 93 521 89 521 75C521 62 510 58 503 58ZM317 1C315 1 314 3 314 6C314 9 318 11 318 15L317 19C317 21 317 21 319 21C321 21 332 15 332 12C332 9 323 1 317 1ZM503 -57C529 -57 527 -30 537 -30C544 -30 558 -54 573 -54C581 -54 586 -50 586 -48C586 -46 585 -45 581 -45C572 -45 568 -36 568 -16C568 14 579 1 579 10C579 12 577 14 572 14C563 14 552 13 552 6C552 0 557 -7 557 -15V-24L548 -16C542 -11 540 -8 538 -8C529 -8 522 -32 521 -32C519 -32 516 -10 516 -5C516 4 528 3 528 7C528 9 507 10 502 10C497 10 494 9 494 7C494 4 506 -4 506 -39C506 -51 494 -46 494 -51C494 -55 498 -57 503 -57Z" fill="#f59e0b" stroke="none"/>
  </g>
</svg>